<?xml version="1.0" encoding="UTF-8"?>
<svg id="Layer_2" data-name="Layer 2" xmlns="http://www.w3.org/2000/svg" viewBox="0 0 201.03 78.96">
  <defs>
    <style>
      .cls-1 {
        fill: #fff;
      }

      .cls-2 {
        fill: #f58220;
        stroke: #fff;
        stroke-miterlimit: 10;
      }
    </style>
  </defs>
  <g id="Layer_1-2" data-name="Layer 1">
    <g>
      <rect class="cls-2" x=".5" y=".5" width="200.03" height="77.96" rx="3.25" ry="3.25"/>
      <g>
        <g>
          <path class="cls-1" d="m69.27,10.72l-9.63,21.16c-.44.97-1.3,2.43-1.83,3.29h.24c1.96,0,2.87-.92,3.48-1.99.2-.34.36-.7.52-1.04l.05-.11,2.38-5.24h7.49l2.4,5.24c.69,1.47,1.46,3.13,6.11,3.13h.25s-1.16-1.84-1.83-3.29l-9.63-21.16Zm-3.95,14.26l2.9-6.38,2.92,6.38h-5.82Z"/>
          <path class="cls-1" d="m108.46,10.72l-8.4,18.66-8.84-18.66-7.35,21.04c-.54,1.52-1.48,3.42-1.48,3.42h.19c2.59,0,3.27-1.98,3.72-3.29l4.42-12.57,8.45,17.65,7.93-17.65,4.43,12.63c.55,1.52,1.17,3.24,5.6,3.24h.18s-.94-1.9-1.48-3.42l-7.35-21.04Z"/>
          <path class="cls-1" d="m141.44,15.2v19.91h4.56V15.2c0-1.53.31-3.4.31-3.42l.07-.44h-.45c-4.5,0-4.5,2.23-4.5,3.86Z"/>
          <path class="cls-1" d="m169.32,13.68c1.55,0,1.96-1.47,1.96-2.34h-21.98c0,.87.41,2.34,1.97,2.34.82-.01,1.49-.04,2.13-.06.95-.03,1.86-.07,3.22-.07h1.24v21.53h4.88V13.56h1.24c1.36,0,2.26.03,3.22.07.65.02,1.31.05,2.14.06Z"/>
          <path class="cls-1" d="m135.89,32.61l-6.05-8.1c3.68-.63,6.61-3.31,6.4-7.22-.2-3.7-3.54-5.95-7.6-5.95-3.01,0-5.8.13-8.55.13,0,0,.32,1.58.32,3.17l-.12,17.06c0,1.58-.32,3.49-.32,3.49,4.12,0,4.12-1.9,4.12-3.49l.12-18.55c1.68,0,2.72-.07,3.8-.06,2.4.01,4.29,1.72,4.56,4.27.3,2.82-.68,4.91-2.73,5.84-1.5.61-4.77.52-4.77.52l6.69,8.99c.95,1.27,2.24,2.48,6.39,2.48,0,0-1.14-1.08-2.25-2.57Z"/>
          <path class="cls-1" d="m188.92,31.88l-9.63-21.16-9.63,21.16c-.44.97-1.3,2.43-1.83,3.29h.24c1.96,0,2.87-.92,3.48-1.99.2-.34.36-.7.52-1.04l.05-.11,2.38-5.24h7.49l2.4,5.24c.69,1.47,1.46,3.13,6.11,3.13h.25s-1.16-1.84-1.83-3.29Zm-13.58-6.9l2.9-6.38,2.92,6.38h-5.82Z"/>
        </g>
        <g>
          <polygon class="cls-1" points="36.62 52.62 36.44 53.41 37.09 53.28 36.62 52.62"/>
          <path class="cls-1" d="m24.09,52.47c.09-.03.15-.1.18-.21.03-.11.01-.2-.05-.27-.07-.07-.18-.13-.33-.17l-.08-.02-.18.64.1.03c.14.04.26.05.36.02Z"/>
          <polygon class="cls-1" points="31.15 53.1 30.81 53.84 31.47 53.85 31.15 53.1"/>
          <polygon class="cls-1" points="40.44 51.59 40.37 52.4 40.99 52.18 40.44 51.59"/>
          <path class="cls-1" d="m34.71,54.12c.28-.03.48-.12.62-.26.13-.14.19-.32.16-.55-.03-.22-.13-.39-.29-.49-.16-.1-.38-.14-.65-.1h-.1s.18,1.41.18,1.41h.09Z"/>
          <polygon class="cls-1" points="47.73 47.1 47.7 47.91 48.3 47.67 47.73 47.1"/>
          <polygon class="cls-1" points="27.37 52.79 26.93 53.48 27.59 53.57 27.37 52.79"/>
          <polygon class="cls-1" points="17.43 47.94 16.88 48.53 17.5 48.74 17.43 47.94"/>
          <path class="cls-1" d="m11.47,47.99c-.11.27-.25.55-.39.81-.23.45-.48.92-.6,1.45-.05.2-.15,1.81.18,1.93.06.02.17.03.27-.16.34-.68.91-1.4,1.27-1.42.06,0,.16,0,.26.16.09.13.17.34.23.5.1.26.15.37.29.35.13-.03.13-.18.13-.3,0-.78.22-1.52.46-2.21.65.25,1.31.43,1.94.6.88.24,1.71.47,2.53.86l-.19.2c-.17.18-.25.4-.23.61.02.21.14.39.32.53,3.07,2.19,8.12,3.49,13.49,3.49,3.39,0,9.72-.5,13.99-3.86.1-.07.15-.18.16-.31.02-.24-.13-.49-.22-.59l-.16-.19c.86-.42,1.73-.66,2.65-.91.64-.18,1.29-.35,1.94-.6.24.69.46,1.43.46,2.21,0,.12,0,.27.13.3.13.03.18-.09.29-.35.06-.16.15-.36.23-.5.1-.16.2-.17.26-.16.36.02.93.74,1.27,1.42.09.19.21.18.27.16.33-.12.22-1.73.18-1.93-.12-.52-.36-.99-.6-1.45-.14-.26-.28-.53-.39-.81.25-.18.51-.39.76-.61.81-.73.33-1.7-.06-2.48l-.08-.16c-.2-.41-.16-.8-.13-1.16.03-.33.06-.64-.14-.85-.18-.19-.52-.26-1.09-.23h0c-1.2.1-1.94,1.08-2.09,2.77-.1.05-.2.1-.3.15-1.49.69-3.4,1.08-4.67,1.33-.89.18-1.37.28-1.56.41-.2.13-.26.44-.24.78-.02.05,0,.1,0,.14,0,.02.01.04.01.06,0,.18.04.35.08.51.03.13.06.25.07.37-1.97,1.68-6.28,2.81-11.02,2.81-4.46,0-8.48-.96-10.61-2.49.14-.46.47-1.7,0-2-.19-.12-.66-.22-1.56-.41-1.26-.26-3.18-.65-4.67-1.34-.1-.05-.2-.1-.3-.15-.15-1.71-.89-2.69-2.09-2.77,0,0-.01,0-.02,0h0c-.56-.03-.89.04-1.08.23-.2.21-.18.52-.14.85.03.35.07.75-.13,1.16l-.08.16c-.39.78-.87,1.75-.06,2.48.25.22.5.43.76.61Zm39.08-2.53l.21-.09.72,1.68-.21.09-.35-.81-.8.34.35.81-.21.09-.72-1.68.21-.09.29.68.8-.34-.29-.68Zm1.5,3.28c.23.44.46.89.58,1.38.07.29.06,1.11,0,1.47-.31-.57-.89-1.43-1.44-1.46-.01,0-.02,0-.03,0-.14,0-.32.05-.47.29-.06.1-.12.22-.17.34-.05-.69-.25-1.34-.46-1.95.54-.22,1.08-.49,1.62-.85.11.27.24.52.37.77Zm-.87-6.16c.27,0,.29.12.3.15.09.4-.71,1.4-2.12,2.19.11-.94.51-2.24,1.82-2.35Zm-1.91,3.43l.08.19-.4.16.61,1.5-.21.09-.61-1.5-.4.16-.08-.19,1.01-.41Zm-1.73.62l1.51,1.45-.23.09-.36-.35-.78.31-.03.5-.23.09.11-2.09Zm-1.42,2.08l.09-1.58,1.01,1.67-.22.08-.62-1.06-.09,1.36-.95-.98.21,1.2-.22.08-.31-1.93,1.09,1.14Zm-2.67,3.13l-.84-1.63.21-.11.84,1.63-.21.11Zm-.72-3.97c.1-.02.21-.04.25-.02.02.02.05.06.06.12.04.18-.13.39-.32.6-.07-.26-.11-.49-.13-.68.05,0,.1-.02.15-.03Zm-1.36,2.92l.73.53.11-.9.24-.11-.14,1.19.32.73-.21.09-.32-.73-.97-.7.24-.11Zm-1.1.33l1.47,1.5-.24.08-.35-.36-.81.28-.05.5-.24.08.2-2.09Zm-1.48,1.97l.24-1.57.86,1.75-.23.06-.52-1.11-.22,1.35-.86-1.05.1,1.22-.23.06-.13-1.95.99,1.24Zm-2.26-.96l1.23,1.71-.25.05-.29-.41-.84.16-.12.49-.24.05.51-2.04Zm-1.97.38c.32-.04.58.01.79.15.21.14.33.35.37.63.04.28-.03.51-.2.7-.17.18-.42.3-.74.34l-.37.05-.23-1.81.38-.05Zm-1.62.77c.25.22.49.45.74.68l-.08-1.35h.23s.11,1.89.11,1.89l-1.48-1.36.08,1.36h-.23s-.11-1.9-.11-1.9c.25.23.49.46.74.68Zm-1.79-.67l.87,1.92h-.25s-.21-.46-.21-.46h-.85s-.22.45-.22.45h-.25s.91-1.9.91-1.9Zm-2.67-.16c.21.26.42.52.64.77.21.25.43.51.64.78l.11-1.35.23.02-.16,1.9-1.28-1.55-.11,1.36-.23-.02.16-1.91Zm-.45,1.88l-.25-.04-.14-.49-.84-.13-.28.42-.25-.04,1.17-1.75.59,2.02Zm-2.6-2.32l1.09.23-.04.2-.43-.09-.33,1.59-.23-.05.33-1.59-.43-.09.04-.2Zm-.46-.11l.23.05-.43,1.78-.23-.05.43-1.78Zm-1.34-.36l.34.1c.2.06.34.14.43.26.09.12.11.26.07.42-.03.12-.1.22-.2.29-.1.08-.22.1-.37.09l.35.93-.27-.08-.31-.89-.1-.03-.21.75-.22-.06.49-1.76Zm-1.78-.69l.13,1.58,1.08-1.16-.27,1.93-.23-.08.19-1.21-.94.99-.12-1.36-.6,1.06-.23-.08.99-1.69Zm-1.71-2.56c.05-.14.13-.18.28-.18.05,0,.12,0,.19.01.05,0,.11.01.16.01,0,.14-.06.31-.11.48-.03.1-.06.2-.08.3-.02-.02-.05-.04-.07-.05-.28-.22-.44-.37-.37-.56Zm.5,2.08l.08,2.1-.23-.1-.02-.51-.79-.33-.37.34-.23-.1,1.56-1.41Zm-7.78.59c-.05-.12-.11-.24-.17-.34-.16-.25-.36-.3-.5-.29-.54.03-1.13.88-1.44,1.46-.06-.37-.06-1.19,0-1.47.12-.49.35-.95.58-1.38.13-.25.26-.51.37-.77.5.33,1.03.61,1.62.85-.21.61-.41,1.26-.46,1.95Zm4.94-1.39l-.23-.08-.05-.5-.79-.27-.35.36-.23-.08,1.45-1.52.2,2.09Zm-2.18-2.49l.07-.2,1.03.37-.07.2-.41-.15-.55,1.52-.21-.08.55-1.52-.41-.15Zm-.65-.55l.13,2.09-.23-.09-.03-.5-.78-.3-.36.35-.23-.09,1.51-1.46Zm-3.07-3.6s.03-.15.31-.15c1.26.09,1.69,1.27,1.81,2.35-1.41-.79-2.21-1.8-2.12-2.19Zm.72,2.56l-.06,1.58,1.19-1.04-.49,1.89-.21-.1.33-1.18-1.03.88.04-1.36-.71.99-.21-.1,1.16-1.57Z"/>
          <polygon class="cls-1" points="20.45 50.82 19.86 51.37 20.47 51.63 20.45 50.82"/>
          <polygon class="cls-1" points="14.79 46.98 14.22 47.55 14.83 47.79 14.79 46.98"/>
        </g>
        <g>
          <path class="cls-1" d="m36.23,35.86l-.63.21c.2.12.46.21.85.21.02,0,.04,0,.07,0,.06,0,.12,0,.16.02h9.02c.1-.25.19-.5.28-.76h-8.96c-.23.13-.49.24-.78.33Z"/>
          <path class="cls-1" d="m26.2,36.27s.05,0,.07,0c.39,0,.65-.09.85-.21l-.64-.21c-.29-.09-.54-.2-.78-.33h-9.01c.09.26.18.51.28.76h9.08s.1-.02.16-.02Z"/>
          <path class="cls-1" d="m36.71,36.96c-.35.22-1.07.44-1.78.45h-.02c-.06,0-.12-.01-.18-.03-.22.13-.72.28-1.18.33h11.49c.13-.25.25-.5.37-.76h-8.68s-.01.01-.02.01Z"/>
          <path class="cls-1" d="m27.97,37.38c-.05.02-.11.03-.18.03h-.02c-.71,0-1.43-.23-1.77-.44,0,0-.02-.01-.03-.02h-8.74c.12.26.24.51.37.76h11.54c-.45-.05-.96-.2-1.18-.33Z"/>
          <path class="cls-1" d="m14.17,30.67c-.4.1-.71.32-.92.65-.77,1.18-.2,3.57.25,5.49.16.69.32,1.34.38,1.82.01.09.02.17.04.26.08.6.18,1.27.05,1.69l-.04.13.13.03c.43.1.97.52,1.44.89.07.06.14.11.21.16.39.3.87.75,1.39,1.24,1.4,1.32,3.14,2.97,4.54,2.97.03,0,.06,0,.1,0,.4-.02.75-.19,1.04-.48-.11.4-.07.77.1,1.12.64,1.26,2.99,1.96,4.88,2.53.68.2,1.32.39,1.77.58.08.03.16.07.25.1.56.23,1.19.48,1.49.8l.09.1.09-.1c.3-.32.93-.58,1.49-.8.08-.03.17-.07.25-.1.45-.19,1.09-.38,1.77-.58,1.89-.57,4.25-1.27,4.88-2.53.18-.36.21-.74.1-1.14.29.29.63.45,1.03.47.03,0,.06,0,.1,0,1.39,0,3.13-1.64,4.54-2.97.51-.48,1-.94,1.39-1.24.07-.05.14-.11.21-.16.47-.37,1.01-.79,1.44-.88l.13-.03-.04-.13c-.13-.42-.04-1.09.05-1.69.01-.09.02-.18.04-.26.06-.48.22-1.13.38-1.82.46-1.92,1.02-4.31.25-5.49-.22-.33-.53-.55-.94-.66.4-.1.71-.32.92-.65.77-1.18.2-3.57-.25-5.49-.16-.69-.32-1.34-.38-1.82-.01-.09-.02-.17-.04-.26-.08-.59-.18-1.27-.05-1.69l.04-.13-.13-.03c-.43-.1-.97-.52-1.44-.88-.07-.06-.14-.11-.21-.16-.39-.3-.87-.75-1.39-1.24-1.4-1.32-3.14-2.97-4.54-2.97-.03,0-.06,0-.1,0-.4.02-.75.19-1.04.48.11-.4.07-.77-.1-1.12-.64-1.26-2.99-1.96-4.88-2.53-.68-.2-1.32-.39-1.77-.58-.08-.03-.16-.07-.25-.1-.56-.23-1.19-.48-1.49-.8l-.09-.1-.09.1c-.3.32-.93.58-1.49.8-.08.03-.17.07-.25.1-.45.19-1.09.38-1.77.58-1.89.57-4.25,1.27-4.88,2.53-.18.36-.21.74-.1,1.14-.29-.29-.63-.45-1.03-.47-1.41-.08-3.19,1.61-4.63,2.96-.51.48-1,.94-1.39,1.24-.07.05-.14.11-.21.16-.47.37-1.01.79-1.44.88l-.13.03.04.13c.13.42.04,1.09-.05,1.69-.01.09-.02.18-.04.26-.06.48-.22,1.13-.38,1.82-.45,1.92-1.02,4.31-.25,5.49.22.33.53.55.94.66ZM31.32,13.78c9.27,0,16.82,7.58,16.82,16.89s-7.54,16.89-16.82,16.89-16.82-7.58-16.82-16.89,7.54-16.89,16.82-16.89Z"/>
          <path class="cls-1" d="m25.2,44.81h12.26c.52-.23,1.03-.48,1.51-.76h-15.29c.49.28.99.53,1.51.76Z"/>
          <path class="cls-1" d="m31.33,46.08c1.49,0,2.93-.21,4.3-.61h-8.6c1.36.4,2.81.61,4.3.61Z"/>
          <path class="cls-1" d="m35.06,30.68c-.1-.09-.42-.19-.8-.19-.17,0-.34.02-.49.06-.58.14-1.05.74-1.05,1.04.18.22.4.46.61.66.46.44.88.89.91,1.49.01.28-.03.54-.13.8-.21.54-.69.85-1.14,1.03,1.31-.06,2.25-.36,2.75-.87.33-.34.48-.78.44-1.31-.02-.37-.3-.74-.56-1.09-.37-.5-.75-1.02-.53-1.62,0,0,0,0-.01-.01Z"/>
          <path class="cls-1" d="m36.83,31.02c-.2,0-.51.02-.8.12-.34.12-.55.25-.64.39.11.21.26.42.41.63.28.38.58.78.61,1.23.04.61-.13,1.12-.51,1.51-.46.47-1.22.78-2.26.9.07,0,.15,0,.22,0,1.54,0,2.79-.35,3.51-.98.45-.39.66-.87.64-1.41-.02-.37-.22-.65-.42-.93-.27-.38-.58-.81-.23-1.39-.09-.03-.28-.06-.52-.06Z"/>
          <path class="cls-1" d="m33.87,34.46c.09-.23.12-.45.11-.69-.02-.51-.41-.91-.83-1.32-.15-.14-.89-.87-1.15-1.51l-.04-.1c-.18-.45-.31-.73-.6-.73-.29,0-.43.3-.62.75-.02.02-.51.95-1.23,1.63-.4.39-.76.78-.78,1.27-.01.24.02.47.11.69.31.79,1.46,1.15,2.47,1.15h.04s0,0,0,0h.04c1.01,0,2.16-.36,2.47-1.15Z"/>
          <path class="cls-1" d="m26.55,33.4c-.04.53.11.98.44,1.31.5.51,1.44.81,2.75.87-.45-.18-.93-.49-1.14-1.03-.1-.26-.14-.52-.13-.8.03-.61.45-1.05.91-1.49.21-.2.43-.44.61-.66,0-.3-.47-.9-1.05-1.04-.15-.04-.32-.06-.49-.06-.38,0-.7.1-.8.19,0,0,0,0-.01.01.23.6-.16,1.12-.53,1.62-.26.36-.53.72-.56,1.09Z"/>
          <path class="cls-1" d="m24.69,33.4c-.03.54.19,1.02.64,1.41.72.63,1.97.98,3.51.98.07,0,.15,0,.22,0-1.04-.12-1.8-.42-2.26-.9-.38-.39-.55-.9-.51-1.51.03-.45.32-.85.61-1.23.15-.2.31-.42.41-.63-.08-.14-.29-.27-.64-.39-.29-.1-.6-.12-.8-.12-.25,0-.43.03-.52.06.34.59.04,1.01-.23,1.39-.2.28-.4.56-.42.93Z"/>
          <path class="cls-1" d="m28.28,36.44c.06-.04.1-.07.15-.1.1-.07.16-.13.21-.19.03-.03.06-.06.09-.1-.3,0-.59-.02-.88-.05h0s-.04.02-.06.02c-.04.03-.07.06-.11.09-.24.21-.64.54-1.43.54h-.03c.27.15.89.36,1.55.36h0c.07,0,.07-.02.07-.04,0-.04,0-.08,0-.11.04-.18.22-.29.42-.42Z"/>
          <path class="cls-1" d="m29.26,37.36c.16,0,.31-.02.43-.06.08-.03.14-.06.17-.1-.03-.03-.05-.07-.08-.1-.18-.28-.28-.73.05-1.08,0,0,0,0,.01-.01-.1,0-.2.02-.3.02-.49.06-.58.16-.7.3-.06.07-.14.15-.26.23-.05.03-.1.07-.15.1-.15.1-.3.19-.32.27,0,.02,0,.05.03.09.12.19.63.34,1.12.34Z"/>
          <path class="cls-1" d="m31.35,35.89h-.02c-.71,0-1.13.1-1.32.31-.22.24-.16.55-.02.77.03.05.06.09.11.12l.03.03c.11.08.23.13.37.18.3.11.63.23.86.75.23-.52.56-.64.86-.75.13-.05.26-.1.37-.18l.03-.03s.08-.08.11-.12c.14-.21.21-.53-.02-.77-.2-.21-.62-.31-1.32-.31h-.01Z"/>
          <path class="cls-1" d="m32.85,37.21s.08.07.17.1c.11.04.26.06.43.06.49,0,1-.16,1.12-.34.02-.04.03-.07.03-.09-.02-.08-.16-.17-.32-.27-.05-.03-.1-.06-.15-.1-.12-.08-.19-.16-.26-.23-.12-.13-.22-.23-.7-.3-.1,0-.2-.01-.3-.02,0,0,0,0,.01.01.32.35.23.8.05,1.08-.02.03-.05.07-.08.1Z"/>
          <path class="cls-1" d="m34.93,37.02h0c.65,0,1.28-.21,1.55-.36h-.03c-.79,0-1.19-.33-1.43-.54-.04-.03-.07-.06-.11-.09-.01,0-.03-.02-.06-.02h0c-.29.03-.58.05-.88.05.03.03.07.06.09.1.06.06.12.13.21.19.05.03.09.06.15.1.2.13.38.24.42.42,0,.03,0,.07,0,.11,0,.02,0,.04.07.04Z"/>
          <path class="cls-1" d="m28.1,41.98c.08.03,1.15.34,1.35.37.35.05.72.04.99-.2.02-.02.04-.04.06-.05.05-.06.09-.12.12-.18.14-.36-.2-.8-1.28-1.06-1.33-.32-3.36-.37-4.78.05-.8.24-1.14.57-1.13.91,0,.09.03.18.08.27h0c.09.16.25.31.47.45.11.06.22.12.36.18h0c.23.09.5.17.79.23.8.17,1.76.22,2.59.17,1.2-.07,1.11-.43.85-.59-.06-.03-.36-.19-.57-.35-.16-.12-.05-.25.1-.18Z"/>
          <path class="cls-1" d="m29,42.56s.02.05.02.07c.01.07.01.14,0,.21-.1.39-.62.51-1.09.55h12.1c.35-.24.69-.49,1.02-.76h-11.75c-.08-.02-.18-.04-.29-.07Z"/>
          <path class="cls-1" d="m25.06,43.23c-.31-.07-.59-.15-.83-.24h-.01s-.02-.01-.02-.01c-.15-.06-.28-.12-.39-.19-.08-.05-.15-.1-.22-.15h-1.98c.33.27.67.52,1.02.76h3.63c-.43-.03-.84-.09-1.2-.16Z"/>
          <path class="cls-1" d="m33.82,39.1c-.05-.14-.03-.31.05-.43.05-.07.12-.13.21-.19.08-.05.19-.09.3-.12h-16.41c.15.26.31.51.47.76h15.39s0-.02-.01-.03Z"/>
          <path class="cls-1" d="m39.58,38.61c.62.16,1.09.33,1.41.52h3.22c.16-.25.32-.5.47-.76h-6.36c.45.07.88.15,1.26.24Z"/>
          <path class="cls-1" d="m41.54,39.91c-.02.16-.11.31-.26.46l-.05.05c-.05.04-.11.09-.17.13h2.09c.21-.25.41-.5.6-.76h-2.2s0,.08,0,.12Z"/>
          <path class="cls-1" d="m24.66,40.55c.66-.17,1.46-.26,2.31-.26s1.72.09,2.42.26h2.95c-.07-.17-.05-.31-.03-.41.03-.14.1-.25.19-.35h-13.59c.19.26.39.51.6.76h5.16Z"/>
          <path class="cls-1" d="m23.11,41.81c0-.18.05-.39.23-.6h-3.26c.25.26.5.52.76.76h2.28c-.01-.05-.02-.11-.02-.16Z"/>
          <path class="cls-1" d="m38.59,41.44l-.1.02c-.92.19-1.88.28-2.76.28s-2.02-.1-2.74-.54h-2.26c.06.06.1.13.14.19.09.18.11.38.06.57h10.89c.26-.24.52-.5.76-.76h-3.04c-.29.08-.6.16-.93.23Z"/>
          <path class="cls-1" d="m35.38,39.84c-.15,0-.35-.03-.55-.06-.22-.03-.47-.07-.73-.08-.06,0-.13,0-.19,0-.31,0-.6.04-.82.09-.31.08-.8.48-.24.95.46.46,1.48.72,2.88.72.87,0,1.8-.1,2.71-.28l.1-.02c1.16-.24,2.09-.6,2.5-.95l.04-.04c.1-.1.16-.19.17-.28.02-.15-.11-.55-1.74-.97-.97-.25-2.27-.4-3.4-.4h-.06c-1.02,0-1.58.12-1.81.25-.05.03-.09.06-.11.09-.02.03-.04.1-.02.16.16.39.8.48,1.39.48.33.02.32.16.25.23-.1.11-.25.13-.36.13Z"/>
          <path class="cls-1" d="m44.23,35l-3.83-.33c0,.1-.02.2-.03.3l3.83.33c.01-.1.02-.2.03-.3Z"/>
          <path class="cls-1" d="m44.11,31.63l-3.79.67c.02.1.03.2.05.3l3.79-.68c-.01-.1-.03-.2-.05-.3Z"/>
          <path class="cls-1" d="m39.62,30.04c.04.09.08.18.12.28l3.5-1.64c-.04-.09-.08-.18-.12-.28l-3.5,1.64Z"/>
          <path class="cls-1" d="m41.51,25.78c-.06-.08-.12-.16-.19-.24l-2.96,2.49c.06.08.13.16.19.24l2.96-2.49Z"/>
          <path class="cls-1" d="m39.19,23.51c-.08-.06-.16-.12-.24-.18l-2.25,3.15c.08.06.16.12.24.18l2.25-3.15Z"/>
          <path class="cls-1" d="m35,25.5l1.4-3.61c-.09-.04-.19-.07-.28-.11l-1.4,3.6c.09.04.19.08.28.12Z"/>
          <path class="cls-1" d="m18.57,35.3l3.77-.32c-.01-.1-.03-.2-.03-.3l-3.77.32c0,.1.02.2.03.3Z"/>
          <path class="cls-1" d="m22.4,32.3l-3.74-.67c-.02.1-.03.2-.05.3l3.74.67c.01-.1.03-.2.05-.3Z"/>
          <path class="cls-1" d="m19.52,28.69l3.45,1.62c.04-.09.08-.19.12-.28l-3.45-1.62c-.04.09-.08.18-.12.28Z"/>
          <path class="cls-1" d="m24.37,28.02l-2.93-2.46c-.06.08-.13.16-.19.24l2.93,2.46c.06-.08.12-.16.19-.24Z"/>
          <path class="cls-1" d="m25.68,26.73c.08-.06.16-.13.24-.19l-2.28-3.09c-.08.06-.16.12-.24.19l2.28,3.09Z"/>
          <path class="cls-1" d="m27.62,25.54l-1.56-3.51c-.09.04-.19.08-.28.13l1.56,3.52c.09-.04.18-.09.28-.13Z"/>
          <path class="cls-1" d="m40.45,33.79l6.68-.3c0-.1,0-.2,0-.3l-6.68.3c0,.1,0,.2,0,.3Z"/>
          <path class="cls-1" d="m40.13,31.44l6.39-2.02c-.03-.1-.06-.19-.09-.29l-6.39,2.02c.03.1.06.19.08.29Z"/>
          <path class="cls-1" d="m39.21,29.25l5.66-3.61c-.05-.09-.11-.17-.16-.26l-5.65,3.61c.05.09.11.17.16.26Z"/>
          <path class="cls-1" d="m42.29,22.43c-.07-.07-.15-.14-.22-.21l-4.53,4.95c.07.07.15.14.22.21l4.53-4.95Z"/>
          <path class="cls-1" d="m39.1,20.06c-.09-.05-.18-.1-.26-.15l-3.15,5.92c.09.05.18.1.26.15l3.15-5.93Z"/>
          <path class="cls-1" d="m22.28,33.49l-6.63-.29c0,.1,0,.2,0,.3l6.63.29c0-.1,0-.2,0-.3Z"/>
          <path class="cls-1" d="m22.67,31.14l-6.34-2c-.03.1-.06.19-.09.29l6.34,2c.03-.1.05-.2.08-.29Z"/>
          <path class="cls-1" d="m23.67,28.98l-5.62-3.58c-.05.09-.11.17-.16.26l5.62,3.59c.05-.09.1-.17.16-.26Z"/>
          <path class="cls-1" d="m25.08,27.26l-4.59-4.85c-.07.07-.15.14-.22.21l4.59,4.85c.07-.07.14-.14.22-.21Z"/>
          <path class="cls-1" d="m23.12,20.38l3.37,5.78c.09-.05.17-.11.26-.16l-3.37-5.77c-.09.05-.17.1-.26.16Z"/>
          <path class="cls-1" d="m20.61,20.57l-.23-.2-.36.41c-.07.09-.11.18-.11.29,0,.11.04.2.12.27.1.09.24.15.42.19.18.04.39.05.62.04l.02-.13c-.14,0-.28-.02-.4-.05-.12-.04-.21-.08-.28-.14-.06-.05-.1-.12-.1-.2s.01-.15.06-.21l.23-.27Z"/>
          <path class="cls-1" d="m22.35,17.17s.1-.04.15-.05c.05,0,.1,0,.15.02l.54.23c.09-.05,0-.13-.24-.25-.12-.06-.21-.1-.25-.12-.12-.05-.24-.08-.36-.09-.12,0-.22.02-.3.06-.05.03-.08.06-.1.09l.29.2s.08-.07.12-.1Z"/>
          <path class="cls-1" d="m23.86,16.59s.09-.05.13-.07c.07-.03.17-.05.29-.04.13,0,.26.03.4.07l.19-.08-.5-.44c-.08-.08-.16-.13-.25-.15-.09-.02-.18-.02-.26.02-.09.04-.15.09-.19.13l.29.2s.01-.04.04-.06c.03-.03.06-.04.09-.06.04-.02.1-.02.15,0,.07.03.13.07.19.13l.3.22h-.03c-.29-.07-.51-.13-.66-.15-.17-.03-.3-.03-.37,0-.04.01-.07.03-.1.05-.02.02-.04.04-.06.06l.26.23s.04-.04.07-.06Z"/>
          <path class="cls-1" d="m20.54,19.92s.03,0,.04.01c.02,0,.04.03.07.05.05.05.06.13.03.23-.03.1-.09.19-.17.27.2.13.39.2.6.21.2.02.35-.03.46-.13.05-.05.09-.11.12-.17.04-.07.06-.15.06-.23l.23.25.39-.08-1.06-1.12c.16-.14.32-.28.48-.41l.82,1.04.4-.03-.96-1.22c.18-.14.36-.27.54-.4l.25.39-.14.09s-.04.04-.04.06c0,.02,0,.05,0,.07.04.07.15.11.31.15.17.03.28.03.35-.02.03-.02.04-.04.05-.07,0-.03,0-.06-.02-.09l-.5-.77c.12-.08.25-.17.38-.25l.75,1.15.39-.03-.85-1.3c.39-.23.78-.45,1.19-.65l.21.42-.67.34s-.06.05-.07.09c-.01.04-.01.08,0,.11.04.09.12.16.24.21.12.06.21.07.27.04.02-.01.03-.02.03-.04.01-.02.01-.04,0-.06l-.06-.12s-.01-.05,0-.07c0-.02.01-.04.03-.05l.37-.18.27.54.39.02-.69-1.39c.43-.2.86-.37,1.31-.53l.18.5c-.12-.07-.23-.12-.33-.14-.1-.03-.18-.03-.24,0-.13.04-.22.12-.28.23-.06.11-.07.22-.03.34.04.12.15.22.32.31.17.08.31.1.43.06.05-.02.11-.06.15-.11.06-.05.11-.12.15-.2l.11.3.39.08-.24-.67c.03-.09.07-.16.13-.22.06-.06.12-.11.18-.13.04-.01.07,0,.1.01.04.02.06.04.07.08.03.07.04.15.03.25-.01.1-.03.2-.07.3l.35.09c.05-.22.05-.41-.02-.59-.05-.12-.14-.23-.28-.32-.15-.09-.27-.12-.37-.08-.05.02-.09.04-.14.08-.05.04-.1.09-.14.14l-.15-.41c.33-.11.67-.21,1.01-.29l-.08-.07h0s-.01-.01-.01-.01l-.21-.18c-3.3.88-6.17,2.82-8.23,5.42l.35.09c.33-.41.68-.79,1.04-1.16Zm5.87-2.79c-.07.07-.14.12-.2.14-.05.02-.09.02-.13,0-.04-.01-.07-.04-.08-.08-.03-.08-.02-.15.01-.21.03-.07.08-.12.15-.15.06-.02.13-.03.21-.02.08,0,.15.03.23.06-.06.1-.12.19-.19.26Zm-5.36,2.29l.42.44c-.02.13-.04.25-.07.34s-.08.16-.13.21c-.05.04-.1.07-.17.09-.06.02-.13.01-.19,0,0,0-.01-.01-.01-.02,0-.01,0-.02,0-.02.08-.11.13-.21.16-.3.02-.1.02-.17-.02-.21-.03-.03-.08-.07-.16-.09-.06-.02-.14-.03-.23-.04.13-.13.27-.26.41-.39Z"/>
          <path class="cls-1" d="m25.59,15.49c.05-.02.11-.02.16-.01.05,0,.1.02.14.05l.48.35c.1-.03.04-.13-.18-.3-.11-.09-.18-.14-.22-.17-.1-.08-.21-.14-.33-.17-.12-.03-.22-.03-.31,0-.05.02-.09.04-.12.07l.24.26s.09-.05.14-.07Z"/>
          <path class="cls-1" d="m32.16,17.18c.06-.04.14-.05.22-.04l.19.02-.12-.24-.17-.02c-.11-.01-.2,0-.29.06-.08.05-.13.12-.14.2-.02.15.03.29.13.41.11.13.24.2.38.22.1.01.19,0,.26-.01.08-.02.15-.05.22-.09l-.12-.28c-.08.05-.16.09-.26.13-.09.03-.17.03-.25.03-.05,0-.09-.03-.12-.07-.03-.05-.05-.1-.04-.15,0-.06.04-.11.11-.15Z"/>
          <path class="cls-1" d="m35.17,16.51c.07-.04.14-.06.22-.04l.34.09.08-.29-.53-.14c-.11-.03-.21-.02-.3.03-.1.05-.16.13-.19.23-.04.13-.03.28.01.46.04.18.12.37.24.58l.13-.04c-.06-.13-.11-.26-.13-.38-.02-.12-.02-.22,0-.31.02-.08.07-.14.13-.18Z"/>
          <path class="cls-1" d="m41.7,19.33c-.12.03-.19.11-.22.29-.03.18,0,.37.07.6-.15.04-.28.03-.41-.02.03-.05.04-.1.04-.13,0-.04,0-.07-.02-.09-.03-.03-.07-.05-.13-.04-.05,0-.1.03-.15.08-.05.05-.06.11-.04.18.02.08.06.14.13.2l-.11.53.19.05.02-.52c.23.06.43.07.61.05.18-.02.33-.08.44-.19.2-.2.29-.58.02-.88-.09-.09-.22-.15-.43-.12Zm.31.48c-.01.07-.05.14-.1.2-.05.05-.1.09-.14.12-.04.03-.08.05-.11.05-.03-.11-.04-.22-.03-.31,0-.09.03-.15.07-.2.04-.04.09-.07.14-.08.05-.01.09,0,.12.03.04.05.06.11.05.19Z"/>
          <path class="cls-1" d="m41.25,21.81c-.1-.01-.19-.06-.27-.15-.13-.15-.23-.3-.3-.44-.07-.14-.1-.27-.09-.39h-.13c-.01.17.01.35.08.52.07.19.17.36.31.52.1.12.22.19.35.21.13.02.25,0,.34-.08.08-.07.12-.17.13-.32.01-.15-.02-.26-.08-.34-.04-.04-.08-.07-.14-.1-.06-.03-.13-.04-.21-.05v.31c.05,0,.11,0,.16.01.06.02.1.04.12.07s.04.06.04.09c0,.03,0,.06-.02.08-.07.06-.16.09-.27.07Z"/>
          <path class="cls-1" d="m29.24,16.77c.17.12.33.17.5.15.12-.01.21-.07.29-.16.08-.1.11-.21.1-.33,0-.05-.02-.1-.04-.14-.02-.04-.05-.08-.08-.12.08.05.14.09.21.1.06.02.12.03.18.03.07-.01.12-.03.15-.05l.05.52.35.15-.15-1.53c.2,0,.4-.01.61-.01.03,0,.06,0,.09,0l-.03.62h-.11s-.05,0-.07.02c-.02.01-.03.03-.03.06,0,.06.06.15.18.29s.21.2.27.2c.02,0,.04,0,.05-.03.02-.02.03-.05.03-.08v-.15s.57.03.57.03l-.02.41.33.24.07-1.56c.47.04.94.1,1.4.19l-.04.25-.48-.08c-.12-.02-.23,0-.32.06-.09.06-.15.14-.17.24-.02.15,0,.3.05.47.05.17.14.35.26.53l.12-.06c-.08-.11-.14-.22-.17-.34-.03-.12-.04-.23-.02-.34.01-.08.06-.15.12-.19.06-.05.14-.07.22-.05l.33.06-.13.78.3.28.26-1.54c.88.18,1.73.44,2.55.76l-.17.47c-.04-.13-.1-.24-.18-.33-.08-.1-.17-.16-.26-.19-.14-.05-.27-.06-.39-.01-.13.04-.21.12-.25.23-.05.14-.03.3.06.49.09.19.21.31.34.36.07.03.16.04.24.03.08,0,.17-.03.25-.07l-.11.28.24.33.55-1.46c.21.09.42.18.63.28l-.29.55-.1-.05s-.05-.01-.07,0c-.02,0-.04.02-.06.04-.03.05-.01.16.04.34.05.17.11.27.16.3.02,0,.04,0,.06,0,.03-.01.05-.03.06-.06l.07-.13.5.26-.19.37.19.36.73-1.38c.18.1.36.21.53.32l-.73,1.12.16.37.86-1.31c.37.25.73.51,1.07.79l-.29.38-.59-.46s-.07-.04-.11-.03c-.04,0-.08.02-.1.06-.06.07-.09.18-.09.3,0,.13.02.22.08.26.02.01.04.02.05.01.02,0,.04,0,.05-.03l.08-.1s.04-.03.06-.03c.02,0,.04,0,.06,0l.33.25-.37.47.15.36.96-1.23c.14.12.28.24.42.36l.23-.24c-2.77-2.5-6.43-4.02-10.44-4.02-.46,0-.92.02-1.37.06l.21.31c.07,0,.15,0,.22-.01l.04.44s-.07.08-.11.11c-.04.03-.09.04-.14.05-.1,0-.17.01-.23,0-.06,0-.11-.01-.13-.03.05-.04.09-.09.11-.15.02-.06.03-.12.03-.18-.01-.12-.09-.23-.24-.33-.15-.1-.3-.14-.44-.13-.07,0-.15.03-.22.07-.08.04-.15.09-.21.16l.19.23c.06-.07.14-.13.22-.18.08-.04.15-.07.22-.07.06,0,.12,0,.16.04.05.03.08.08.08.13,0,.08,0,.15-.04.22-.02.06-.06.09-.14.1-.04,0-.09,0-.15,0-.07.02-.13.05-.2.08l.16.27c.12-.02.24-.08.36-.17.03.02.05.05.06.08.01.02.02.06.03.1.01.09-.01.18-.07.25-.07.07-.14.12-.23.12-.11.01-.23-.02-.35-.1-.12-.08-.22-.19-.31-.34l-.1.09c.12.21.26.37.43.49Zm7.18.42c-.12.01-.23,0-.32-.04-.07-.03-.12-.07-.15-.13-.03-.06-.04-.11-.02-.16.03-.08.1-.13.23-.16.13-.03.25-.02.36.02.06.02.11.06.17.13.05.06.09.14.12.22-.13.06-.26.1-.39.11Zm1.85-.18c.17.08.33.17.5.26l-.29.56-.5-.26.3-.56Zm-6.43-1.62c.19,0,.38.01.56.03l-.03.63-.56-.03.03-.63Z"/>
          <path class="cls-1" d="m41.61,21.22l.1.37,1.1-1.08c.08.09.16.18.24.28l.09-.4c-.19-.22-.4-.44-.6-.65l-.23.23c.09.09.18.19.27.28l-.97.96Z"/>
          <rect class="cls-1" x="42.29" y="21.49" width=".43" height=".43"/>
          <rect class="cls-1" x="42.76" y="21.02" width=".43" height=".43"/>
          <path class="cls-1" d="m29.12,27.2s0,0,0,0c-.14.26-.09.47-.03.61.09.19.28.34.57.45,0,0,0,.01,0,.02,0,.33.31.6.85.74.03.25.29.6.84.6.07,0,.15,0,.25-.02.3-.09.5-.31.52-.57.54-.14.85-.4.85-.74,0-.03,0-.07,0-.1.37-.22.58-.49.56-.75,0-.08-.02-.15-.06-.21.55-.55.86-1.09,1.01-1.6h0s.02-.07.03-.1c.04-.2.07-.43.08-.47.04-.43-.02-.86-.16-1.26l-.15-.34c-.12-.24-.28-.46-.46-.64-.05-.05-.09-.09-.14-.13h0s-.19-.18-.19-.18c-.05-.05-.1-.09-.15-.13-.66-.6-1.13-1.03-.98-2.05.17-.95-.13-1.94-.52-2.19-.03-.02-.05-.03-.08-.04-.02-.15-.03-.23-.04-.24-.11-.2-.28-.25-.39-.27-.03,0-.05,0-.08,0-.19,0-.53.08-.67.63-.09.36-.08.84-.08,1.31,0,.09,0,.19,0,.26-.04.8-.78,1.78-1.33,2.45,0,0-.42.46-.79,1.11-.28.49-1.35,2.48.74,3.87Zm2.26,1.99c-.22,0-.41-.12-.41-.25,0-.02,0-.05.02-.07.06,0,.13.01.2.02.06,0,.13,0,.2,0,.13,0,.26,0,.39-.02.01.02.02.05.02.07,0,.14-.19.25-.41.25Zm.43-.55c-.08.01-.17.02-.26.02-.06,0-.12,0-.18,0-.15,0-.29,0-.43-.03-.52-.07-.83-.26-.83-.4,0-.01,0-.02,0-.03.39.08.82.1,1.11.1.56,0,1.08-.06,1.36-.16.03.03.04.06.04.09,0,.14-.31.33-.83.4Zm-2.46-5.97l.02-.03c.7-.83,1.51-1.91,1.55-2.86,0-.09,0-.19,0-.28,0-.44-.01-.89.06-1.19.07-.27.17-.3.24-.3.01,0,.02,0,.03,0,.05,0,.09.08.09.21,0,.09,0,.32-.02.58-.03.57-.06,1.34.02,1.68.09.38.27.76.44,1.13.22.48.43.94.45,1.36.03.76-.34.82-.62.87-.12.02-.28.05-.28.2,0,.06.04.12.13.12.03,0,.07,0,.12-.02.09-.02.22-.05.36-.05.09,0,.17.01.25.04.23.07.42.24.49.45.06.2.07.53-.28.99-.07.09-.23.22-.59.29-.11.02-.12.09-.11.12,0,.05.05.1.13.1.03,0,.07,0,.1,0,.54,0,.95.12,1.15.32.09.09.13.2.13.33-.01.24-.34.33-.56.39-.15.04-.25.07-.26.17v.05s.07.07.07.07h.05s.06,0,.13-.03c.15-.04.27-.06.36-.06.04,0,.07,0,.1.01.07.02.08.06.08.08,0,.12-.19.33-.62.52h-.01s0,0,0,0c-.21.09-.68.14-1.18.14-.79,0-1.71-.15-1.87-.47-.04-.08-.02-.18.04-.29.02.02.04.04.08.06.52.28,1.21.32,1.58.32.25,0,.44-.02.52-.04.1-.02.25-.05.24-.18,0-.08-.07-.11-.18-.11-.02,0-.04,0-.06,0-.08,0-.2.01-.33.01-.5,0-.99-.1-1.54-.3-.27-.08-.81-.41-.93-.5-.41-.32-.64-.87-.64-1.54-.04-1.07.73-1.97,1.05-2.36Z"/>
          <path class="cls-1" d="m39.85,35.99l-.39-.1c.18-.68.26-1.38.26-2.09,0-3.62-2.31-6.82-5.75-7.96l.13-.38c3.6,1.19,6.02,4.54,6.02,8.33,0,.74-.09,1.48-.28,2.19Z"/>
          <path class="cls-1" d="m22.86,36c-.18-.72-.28-1.46-.28-2.2,0-3.59,2.15-6.79,5.48-8.14l.15.37c-3.18,1.29-5.24,4.34-5.24,7.77,0,.71.09,1.42.27,2.1l-.39.1Z"/>
        </g>
        <g>
          <path class="cls-1" d="m60.81,46.47h7.58v-5.13c0-1.17,0-2.57,3.03-2.57,0,0-.23,1.4-.23,2.57v11.69c0,1.17.23,2.54.23,2.54-3.03,0-3.03-1.4-3.03-2.57v-5.13h-7.58v5.13c0,1.17,0,2.57-3.03,2.57,0,0,.23-1.38.23-2.54v-11.69c0-1.17-.23-2.57-.23-2.57,3.03,0,3.03,1.4,3.03,2.57v5.13Z"/>
          <path class="cls-1" d="m84.96,38.77c4.83,0,8.21,3.76,8.21,8.4s-3.38,8.4-8.21,8.4-8.21-3.76-8.21-8.4,3.38-8.4,8.21-8.4Zm0,15.63c3.1,0,5.29-3.24,5.29-7.23s-2.19-7.23-5.29-7.23-5.29,3.24-5.29,7.23,2.19,7.23,5.29,7.23Z"/>
          <path class="cls-1" d="m103.58,40.15c-2.24,0-3.31,1.19-3.31,2.5,0,.65.33,1.26.96,1.56l5.83,2.85c1.75.86,2.57,2.29,2.57,3.71,0,2.33-2.17,4.69-6.06,4.69-1.87,0-3.5-.09-5.67-.12l1.24-1.75c1.4.33,3.08.54,4.41.54,2.59,0,3.8-1.31,3.8-2.52,0-.68-.37-1.33-1.12-1.68l-5.71-2.82c-1.56-.77-2.38-2.26-2.38-3.78,0-2.22,1.75-4.43,5.46-4.43,1.66,0,3.34.09,5.25.12,0,.16-.02,1.56-1.7,1.56-1.4-.23-2.5-.42-3.55-.42Z"/>
          <path class="cls-1" d="m126.75,43.42c0,2.78-2.52,4.62-5.5,4.62-1,0-2.03-.07-3.03-.07v5.04c0,1.17,0,2.57-3.03,2.57,0,0,.23-1.4.23-2.57v-11.66c0-1.17-.23-2.33-.23-2.33h3.38c.51,0,.91,0,1.33-.02.42,0,.86-.02,1.35-.02,2.99,0,5.5,1.66,5.5,4.46Zm-8.54-3.24v6.69c.91.05,1.91.07,2.57.07,1.7,0,3.13-1.26,3.13-3.52s-1.42-3.29-3.13-3.29c-.84,0-1.68.05-2.57.05Z"/>
          <path class="cls-1" d="m135.8,55.34h-2.8v-14c0-1.17,0-2.57,3.03-2.57,0,0-.23,1.4-.23,2.57v14Z"/>
          <path class="cls-1" d="m141.24,39.01h15.63c0,.09-.02,1.45-1.17,1.45-1.47-.02-2.24-.09-3.94-.09h-1.19v14.98h-3.03v-14.98h-1.19c-1.7,0-2.47.07-3.94.09-1.14,0-1.17-1.35-1.17-1.45Z"/>
          <path class="cls-1" d="m169.12,49.27h-5.74l-1.89,4.15c-.49,1.05-.96,2.15-2.73,2.15,0,0,.68-1.07,1.17-2.15l7.09-15.58,7.09,15.58c.49,1.07,1.17,2.15,1.17,2.15-3.24,0-3.76-1.1-4.25-2.15l-1.91-4.15Zm-5.11-1.4h4.48l-2.24-4.9-2.24,4.9Z"/>
          <path class="cls-1" d="m182.82,53.94h6.3c1.63,0,1.63,1.31,1.63,1.4h-10.96s.23-1.17.23-2.33v-11.66c0-1.17-.23-2.57-.23-2.57,3.03,0,3.03,1.4,3.03,2.57v12.6Z"/>
        </g>
      </g>
      <g>
        <path class="cls-1" d="m64.66,64.78h2.55v.61h-2.55v2.24c0,.51,0,1.12-1.33,1.12,0,0,.1-.61.1-1.12v-5.1c0-.51-.1-1.02-.1-1.02h4.79s0,.61-.71.61h-2.75v2.65Z"/>
        <path class="cls-1" d="m74.68,66.01h-2.51l-.83,1.82c-.21.46-.42.94-1.19.94,0,0,.3-.47.51-.94l3.1-6.81,3.1,6.81c.21.47.51.94.51.94-1.42,0-1.64-.48-1.86-.94l-.84-1.82Zm-2.23-.61h1.96l-.98-2.14-.98,2.14Z"/>
        <path class="cls-1" d="m82.84,64.96c.84,0,1.42-.76,1.42-1.55,0-.83-.62-1.37-1.37-1.37-.35,0-.68.02-1.22.02v5.58c0,.51,0,1.12-1.33,1.12,0,0,.1-.61.1-1.12v-5.1c0-.51-.1-1.02-.1-1.02.89,0,1.78-.04,2.75-.04,1.31,0,2.39.71,2.39,1.91,0,.94-.82,1.62-2,1.83l1.99,2.72c.36.48.72.83.72.83-1.34,0-1.66-.42-1.97-.83l-2.17-2.98h.79Z"/>
        <path class="cls-1" d="m90.78,68.66h-1.22v-6.12c0-.51,0-1.12,1.33-1.12,0,0-.1.61-.1,1.12v6.12Z"/>
        <path class="cls-1" d="m97.4,61.47c2.11,0,3.53,1.59,3.53,3.62s-1.42,3.62-3.53,3.62c-.96,0-1.74-.05-2.53-.05,0,0,.1-.55.1-1.02v-5.1c0-.51-.1-1.02-.1-1.02.85,0,1.68-.05,2.53-.05Zm-1.2.58v6.08c.44,0,.83.03,1.21.03,1.57,0,2.24-1.33,2.24-3.07s-.8-3.07-2.24-3.07c-.44,0-.83.03-1.21.03Z"/>
        <path class="cls-1" d="m107.91,66.01h-2.51l-.83,1.82c-.21.46-.42.94-1.19.94,0,0,.3-.47.51-.94l3.1-6.81,3.1,6.81c.21.47.51.94.51.94-1.42,0-1.64-.48-1.86-.94l-.84-1.82Zm-2.23-.61h1.96l-.98-2.14-.98,2.14Z"/>
        <path class="cls-1" d="m118.95,66.73c0,1.09-1.2,1.97-2.63,1.97-.92,0-1.84-.04-2.75-.04,0,0,.1-.5.1-1.01v-5.11c0-.51-.1-1.02-.1-1.02.84,0,1.67-.04,2.51-.04,1.35,0,2.48.88,2.48,1.96,0,.61-.5,1.18-1.13,1.56.83.34,1.53.99,1.53,1.73Zm-4.06-4.69v2.81c.33,0,.65.01.98.01.79,0,1.43-.58,1.43-1.48,0-.8-.64-1.38-1.43-1.38-.3,0-.6.03-.98.03Zm1.29,6.13c.84,0,1.52-.6,1.52-1.39,0-.91-.71-1.48-1.58-1.48-.36,0-1.01,0-1.22.02v2.81c.41,0,.81.03,1.29.03Z"/>
        <path class="cls-1" d="m125.98,66.01h-2.51l-.83,1.82c-.21.46-.42.94-1.19.94,0,0,.3-.47.51-.94l3.1-6.81,3.1,6.81c.21.47.51.94.51.94-1.42,0-1.64-.48-1.86-.94l-.84-1.82Zm-2.23-.61h1.96l-.98-2.14-.98,2.14Z"/>
        <path class="cls-1" d="m134.16,61.47c2.11,0,3.53,1.59,3.53,3.62s-1.42,3.62-3.53,3.62c-.96,0-1.74-.05-2.53-.05,0,0,.1-.55.1-1.02v-5.1c0-.51-.1-1.02-.1-1.02.85,0,1.68-.05,2.53-.05Zm-1.2.58v6.08c.44,0,.83.03,1.21.03,1.57,0,2.24-1.33,2.24-3.07s-.8-3.07-2.24-3.07c-.44,0-.83.03-1.21.03Z"/>
      </g>
      <rect class="cls-1" x="10.29" y="64.83" width="47.69" height=".48"/>
      <rect class="cls-1" x="143.33" y="64.83" width="47.69" height=".48"/>
    </g>
  </g>
</svg>