<svg width="21" height="31" viewBox="0 0 21 31" fill="none" xmlns="http://www.w3.org/2000/svg">
<path d="M20.8107 19.9035V24.9838C20.8107 26.3862 20.7813 27.3372 19.5775 28.3178C19.2373 28.5907 18.8686 28.8258 18.478 29.019C18.478 29.019 16.1159 30.2655 14.7783 29.9915V21.8942C14.7783 21.8942 14.8452 17.499 17.8066 16.5668C18.7669 16.2605 19.4116 16.5077 19.8691 16.9778C20.7893 17.9665 20.8107 19.9035 20.8107 19.9035Z" stroke="#29577E" stroke-width="0.3" stroke-linecap="round" stroke-linejoin="round"/>
<path d="M6.48478 18.7887L6.63726 18.5469M6.15039 19.326L6.29217 19.103" stroke="#29577E" stroke-width="0.3" stroke-linecap="round" stroke-linejoin="round"/>
<path d="M9.05711 17.1025C9.05711 17.1025 8.21712 21.0168 7.58312 22.9861C7.47879 23.2117 7.37178 23.4401 7.27281 23.6577C7.21663 23.7867 7.16313 23.9102 7.10695 24.0338C7.05077 24.1574 6.98389 24.3186 6.92236 24.461L6.75116 24.8479C6.703 24.9687 6.65218 25.0896 6.60403 25.2079C6.55587 25.3261 6.5104 25.4443 6.46224 25.5571C6.41409 25.6699 6.37397 25.7693 6.33651 25.8714C6.29906 25.9735 6.23753 26.1213 6.19473 26.2368L6.14926 26.355C6.1225 26.4302 6.09308 26.5028 6.06633 26.5726C6.03958 26.6425 6.03958 26.6398 6.02888 26.672C6.00212 26.7473 5.9727 26.8144 5.9513 26.8789C5.9299 26.9434 5.90582 27.0025 5.88709 27.0535C5.86837 27.1046 5.84964 27.1502 5.83627 27.1905C5.82022 27.2281 5.80952 27.2631 5.79882 27.2899C5.78811 27.3168 5.76939 27.3571 5.76404 27.3705C4.9786 26.9687 4.23406 26.491 3.54102 25.944C3.56574 25.8839 3.58543 25.8219 3.59987 25.7586C3.59987 25.7237 3.62127 25.6807 3.63197 25.635C3.64267 25.5893 3.64802 25.5625 3.65605 25.5222C3.66407 25.4819 3.6721 25.4604 3.68012 25.4255L3.7042 25.3234C3.71226 25.2725 3.72388 25.2222 3.73897 25.1729C3.73746 25.1649 3.73746 25.1567 3.73897 25.1487C3.7577 25.0628 3.77643 24.9714 3.79783 24.8801C3.81923 24.7887 3.82993 24.7296 3.84865 24.6464C3.87808 24.5174 3.90483 24.3777 3.93961 24.2461C3.95566 24.1682 3.97438 24.0902 3.99311 24.0096C3.99311 23.9774 3.99311 23.9505 4.01184 23.9156L4.03324 23.8243V23.7759L4.07604 23.7034L4.22585 23.244L4.381 22.7765L4.56559 22.2097V22.1935L4.72609 21.8604C4.78762 21.7341 4.85182 21.5917 4.9187 21.4762L5.14609 21.0732C5.28787 20.8046 5.4457 20.5359 5.60086 20.2673H5.64901L6.10913 20.3398C6.22012 20.3577 6.33363 20.3307 6.42486 20.2647C6.51609 20.1988 6.57762 20.0992 6.596 19.9879C6.59722 19.9655 6.59722 19.9431 6.596 19.9207C6.59653 19.8189 6.56063 19.7203 6.49483 19.6429C6.42903 19.5655 6.33772 19.5144 6.23753 19.4989L6.06633 19.4721C6.09308 19.4237 6.1225 19.3753 6.15193 19.327V19.3109L6.29371 19.0906L6.48365 18.795L6.63613 18.5533L6.68963 18.4646C7.41191 17.3497 7.99509 16.5195 7.99509 16.5195C8.26142 16.8436 8.64169 17.0524 9.05711 17.1025Z" fill="#65BEBF" stroke="#65BEBF" stroke-width="0.3" stroke-miterlimit="10"/>
<path d="M5.94727 27.4648C7.96163 28.4804 10.7892 29.3992 14.7752 29.9929" stroke="#29577E" stroke-width="0.3" stroke-linecap="round" stroke-linejoin="round"/>
<path d="M15.8766 10.8055C15.8684 10.8385 15.8577 10.8709 15.8445 10.9022C15.8362 10.9233 15.829 10.9448 15.8231 10.9667C15.8231 10.9936 15.8017 11.0258 15.7883 11.0527C15.775 11.0795 15.7589 11.1172 15.7429 11.1548C15.7268 11.1924 15.7215 11.2112 15.7054 11.2434C15.6519 11.3536 15.5957 11.4557 15.5315 11.5604C14.4347 13.3255 11.7061 14.0858 10.0261 13.441C9.29302 13.1371 8.68912 12.5848 8.31941 11.8801C8.31941 11.8801 8.31941 11.8587 8.30336 11.8533C7.31357 10.0855 7.25471 7.36942 7.69343 5.34913C7.76455 5.11456 7.86811 4.89119 8.00107 4.68555L8.02782 4.71241" stroke="#29577E" stroke-width="0.3" stroke-linecap="round" stroke-linejoin="round"/>
<path d="M15.1943 12.0117V13.0863V13.6989C15.1004 13.8115 14.9893 13.9085 14.8652 13.9863" stroke="#29577E" stroke-width="0.3" stroke-linecap="round" stroke-linejoin="round"/>
<path d="M11.411 14.9665C10.8974 15.4769 9.05693 17.0996 9.05693 17.0996C8.64439 17.0475 8.26731 16.8389 8.00293 16.5166L8.61553 13.8301C9.14253 14.2035 10.2821 14.894 11.411 14.9665Z" fill="#65BEBF" stroke="#65BEBF" stroke-width="0.3" stroke-miterlimit="10"/>
<path d="M8.62477 13.8383L8.01216 16.5249C8.01216 16.5249 7.42096 17.347 6.69868 18.4619L6.64518 18.5506L6.4927 18.787L6.30009 19.0932C6.25461 19.1685 6.20646 19.2437 6.15831 19.3189V19.335C6.12888 19.3834 6.09946 19.4317 6.0727 19.4801L5.78379 19.4344C5.70349 19.4205 5.62088 19.431 5.54653 19.4645C5.47219 19.498 5.40949 19.553 5.36647 19.6225C5.37748 19.5872 5.39181 19.553 5.40928 19.5204C5.35042 19.5204 5.29692 19.4962 5.24609 19.4828C5.26214 19.4237 5.28355 19.3619 5.30495 19.3001C5.36915 19.1094 5.43603 18.9159 5.5029 18.7225C5.53233 18.6365 5.56443 18.5452 5.59921 18.4538C5.63399 18.3625 5.66074 18.2765 5.69551 18.1852C5.69551 18.1852 5.69551 18.161 5.70889 18.1503L5.72226 18.118L5.74099 18.0643L5.81857 17.8762L5.94965 17.535C5.9871 17.4356 6.0299 17.3335 6.0727 17.2368L6.09143 17.1858C6.09143 17.1697 6.10748 17.1455 6.11551 17.1267C6.50357 16.6825 6.84594 16.2 7.1374 15.6867C7.4565 15.137 7.70375 14.5482 7.87306 13.9351L7.89714 13.8303C8.02822 13.6422 8.16465 13.4649 8.30375 13.293V13.5804C8.39396 13.6823 8.4964 13.7725 8.60872 13.8491L8.62477 13.8383Z" stroke="#29577E" stroke-width="0.3" stroke-linecap="round" stroke-linejoin="round"/>
<path d="M5.59296 20.2638C5.43781 20.5324 5.27997 20.8011 5.13819 21.0697L4.92686 21.4673C4.85998 21.5963 4.79578 21.736 4.73425 21.8515L4.57374 22.1847V22.2008L4.38916 22.7676L4.234 23.2351L4.07617 23.6999L4.1805 23.2593L4.32228 22.687L4.41056 22.3163V22.2867C4.50152 21.9241 4.60585 21.5453 4.71553 21.153C4.8252 20.7608 4.92686 20.4303 5.04189 20.0569C5.04189 20.0569 5.04189 20.0569 5.04189 20.0408C5.12971 20.0683 5.21903 20.0907 5.3094 20.1079C5.30034 20.0745 5.29408 20.0404 5.29068 20.0059C5.31698 20.0699 5.35814 20.1267 5.41071 20.1716C5.46329 20.2164 5.52577 20.248 5.59296 20.2638Z" stroke="#29577E" stroke-width="0.3" stroke-linecap="round" stroke-linejoin="round"/>
<path d="M5.05566 20.039C5.14348 20.0665 5.2328 20.089 5.32318 20.1062C5.31412 20.0727 5.30785 20.0386 5.30445 20.0041C5.29242 19.9303 5.29242 19.855 5.30445 19.7811C5.31267 19.7282 5.32797 19.6767 5.34993 19.628C5.36094 19.5927 5.37527 19.5585 5.39273 19.5259C5.33388 19.5259 5.28037 19.5017 5.22955 19.4883" stroke="#29577E" stroke-width="0.3" stroke-linecap="round" stroke-linejoin="round"/>
<path d="M8.30273 11.8857V11.8477" stroke="#29577E" stroke-width="0.3" stroke-linecap="round" stroke-linejoin="round"/>
<path d="M16.0312 13.6367C17.2618 14.4427 19.5303 16.0976 19.9342 17.0648" stroke="#29577E" stroke-width="0.3" stroke-linecap="round" stroke-linejoin="round"/>
<path d="M15.2531 13.1274L15.2291 13.1113L15.1943 13.0898" stroke="#29577E" stroke-width="0.3" stroke-linecap="round" stroke-linejoin="round"/>
<path d="M15.8078 14.0744L14.818 16.0221C14.7123 16.232 14.536 16.3976 14.3204 16.4896L11.4795 17.6958C11.3783 17.7372 11.2969 17.8161 11.2521 17.9161C11.2073 18.0162 11.2025 18.1297 11.2387 18.2331L11.648 19.469C11.6785 19.5591 11.6862 19.6554 11.6703 19.7492C11.6544 19.843 11.6155 19.9314 11.557 20.0063L11.0568 20.6322C11.0193 20.6645 10.9792 20.6967 10.9418 20.7343C10.8069 20.867 10.6964 21.0225 10.6154 21.1937L10.5539 21.3388C10.5225 21.433 10.4966 21.529 10.4763 21.6263L5.94732 27.4615C5.88579 27.4346 5.82961 27.405 5.77344 27.3755C5.77344 27.3755 5.78949 27.3352 5.80821 27.2949L5.84567 27.1955C5.85904 27.1552 5.88044 27.1095 5.89649 27.0585C5.91254 27.0074 5.93929 26.9483 5.9607 26.8839C5.9821 26.8194 6.01152 26.7522 6.03827 26.677C6.03827 26.6448 6.06235 26.6125 6.07573 26.5776C6.0891 26.5427 6.1319 26.4352 6.15865 26.36L6.20413 26.2418C6.24693 26.1262 6.29509 26.0054 6.34591 25.8764C6.39674 25.7474 6.42884 25.6695 6.47164 25.5621C6.51444 25.4546 6.5626 25.331 6.61342 25.2128C6.66425 25.0946 6.7124 24.9737 6.76056 24.8528L6.92374 24.4713C6.98527 24.3289 7.04679 24.2027 7.10832 24.0442C7.16985 23.8857 7.218 23.797 7.27418 23.668C7.37316 23.4504 7.48016 23.2221 7.58449 22.9964C9.02103 19.9391 11.2387 16.1242 14.0155 14.4317C14.2865 14.2657 14.569 14.1193 14.8608 13.9938C15.1307 13.8757 15.4098 13.7804 15.6954 13.709C15.746 13.8263 15.7837 13.9488 15.8078 14.0744Z" stroke="#29577E" stroke-width="0.3" stroke-linecap="round" stroke-linejoin="round"/>
<path d="M7.55478 12.6604L7.11874 12.9103C7.0315 12.9637 6.96895 13.0497 6.94486 13.1494L6.48474 15.1052C6.46637 15.1873 6.42677 15.263 6.36994 15.3248C6.31311 15.3866 6.24106 15.4322 6.16105 15.4571L5.05087 15.8198C5.01477 15.8295 4.98044 15.8449 4.94922 15.8655C5.5538 14.2724 6.53289 13.0607 7.54676 12.5879C7.55478 12.6121 7.55478 12.6389 7.55478 12.6604Z" stroke="#29577E" stroke-width="0.3" stroke-linecap="round" stroke-linejoin="round"/>
<path d="M7.91388 12.4473L7.55273 12.6568C7.55273 12.6353 7.55273 12.6085 7.55273 12.587C7.66993 12.5325 7.79057 12.4858 7.91388 12.4473Z" stroke="#29577E" stroke-width="0.3" stroke-linecap="round" stroke-linejoin="round"/>
<path d="M2.772 18.1925C2.75328 18.2059 2.73723 18.2247 2.72385 18.2354L2.6543 18.2838C2.73903 18.2493 2.81101 18.1892 2.86028 18.1119C2.88139 18.0808 2.8968 18.0463 2.90576 18.0098C2.86846 18.0757 2.82357 18.137 2.772 18.1925Z" stroke="#29577E" stroke-width="0.3" stroke-linecap="round" stroke-linejoin="round"/>
<path d="M7.98206 11.8809C7.81219 11.9259 7.64728 11.988 7.48984 12.0662C6.18438 12.6922 4.93777 14.382 4.31982 16.5608C4.15341 17.1381 4.04233 17.7301 3.98811 18.3286C3.60227 18.3392 3.22767 18.1974 2.94481 17.9337C2.94481 17.9605 2.92341 17.9847 2.91003 18.0116C2.9206 17.9731 2.926 17.9333 2.92608 17.8934C2.92839 17.8208 2.91244 17.7487 2.87971 17.6839C2.84699 17.6191 2.79853 17.5637 2.73883 17.5226L2.34291 17.2781C2.29585 17.2485 2.24342 17.2284 2.18863 17.2191C2.13384 17.2097 2.07775 17.2114 2.02358 17.2239C1.96941 17.2363 1.91823 17.2594 1.87295 17.2918C1.82768 17.3241 1.78921 17.3652 1.75973 17.4125C1.71702 17.4789 1.69469 17.5564 1.69553 17.6355C1.69525 17.7078 1.71326 17.779 1.74789 17.8425C1.78251 17.9059 1.83261 17.9595 1.89349 17.9981L2.28673 18.248C2.34177 18.2823 2.40388 18.3035 2.46832 18.31C2.53276 18.3165 2.59783 18.3082 2.65857 18.2856C2.62112 18.3071 2.58634 18.3313 2.55157 18.3474C2.73244 18.5319 2.9516 18.674 3.19344 18.7636C3.43528 18.8532 3.69383 18.8882 3.95065 18.8659C3.95065 18.9626 3.95065 19.0513 3.95065 19.1346C4.00112 19.3187 4.1055 19.4835 4.25027 19.6074L3.956 22.2671L3.92123 22.5948L3.84097 23.3068L3.7741 23.9274L3.54136 25.9423C1 23.8817 1 21.9286 1 21.9286V17.2862C1 17.2862 1.13376 13.1032 6.45724 12.0904C6.75953 12.034 7.08589 11.9829 7.43098 11.9427C7.61289 11.9238 7.7948 11.905 7.98206 11.8809Z" stroke="#29577E" stroke-width="0.3" stroke-linecap="round" stroke-linejoin="round"/>
<path d="M3.83811 23.3105L3.76855 23.9311L3.83543 23.3105H3.83811Z" stroke="#29577E" stroke-width="0.3" stroke-linecap="round" stroke-linejoin="round"/>
<path d="M5.05619 20.0397C5.05619 20.0397 5.05619 20.0397 5.05619 20.0558C4.94116 20.4293 4.83148 20.7973 4.72983 21.1519C4.62817 21.5066 4.51582 21.923 4.42486 22.2857V22.3152C4.39009 22.4388 4.36066 22.5624 4.32856 22.6806L4.18678 23.2528L4.0771 23.7042L4.0557 23.7794V23.8278L4.0343 23.9191C4.0343 23.954 4.02092 23.9809 4.01557 24.0131C3.99685 24.0937 3.97812 24.1716 3.96207 24.2495C3.92729 24.3892 3.90054 24.5182 3.87112 24.6498C3.85239 24.7331 3.83634 24.811 3.82029 24.8836C3.80424 24.9561 3.77749 25.0716 3.76144 25.1522C3.75992 25.1602 3.75992 25.1684 3.76144 25.1764C3.74634 25.2257 3.73472 25.2759 3.72666 25.3269L3.70258 25.4289C3.70258 25.4639 3.68386 25.4934 3.67851 25.5257C3.67316 25.5579 3.66246 25.6036 3.65443 25.6385C3.64641 25.6734 3.63303 25.7271 3.62233 25.7621C3.60789 25.8254 3.5882 25.8874 3.56348 25.9474L3.78551 23.9352L3.85506 23.3146L3.93532 22.6027L3.97009 22.2749L4.26436 19.6152C4.49387 19.8137 4.76429 19.9586 5.05619 20.0397Z" stroke="#29577E" stroke-width="0.3" stroke-linecap="round" stroke-linejoin="round"/>
<path d="M6.11608 17.1191C6.11608 17.1379 6.10003 17.1621 6.092 17.1782L6.07327 17.2293C6.03047 17.326 5.98767 17.4281 5.95022 17.5275L5.81111 17.8794C5.78436 17.9439 5.76296 18.0057 5.73621 18.0702L5.71748 18.1239L5.70411 18.1562C5.70411 18.1562 5.70411 18.1803 5.69073 18.1911C5.65596 18.277 5.62653 18.3657 5.59443 18.4597C5.56233 18.5538 5.52755 18.637 5.49812 18.7284C5.43125 18.9218 5.36437 19.1153 5.30016 19.306C5.27876 19.3678 5.25736 19.4296 5.24131 19.4887C4.46285 19.2818 4.39062 18.8654 4.39062 18.8654C4.39062 18.809 4.39062 18.7553 4.39062 18.6988C4.90396 18.3406 5.37909 17.9301 5.80844 17.4738C5.91544 17.3502 6.01977 17.2347 6.11608 17.1191Z" stroke="#29577E" stroke-width="0.3" stroke-linecap="round" stroke-linejoin="round"/>
<path d="M7.55198 12.6602C7.56209 13.1347 7.498 13.6079 7.36204 14.0625C7.19308 14.6414 6.94649 15.1946 6.62906 15.7067C6.32366 16.2065 5.96485 16.6714 5.55901 17.093C5.21092 17.4622 4.82742 17.7961 4.41406 18.0897C4.46846 17.5808 4.56601 17.0775 4.70565 16.5852C4.7752 16.3381 4.85546 16.0963 4.94106 15.8679C4.97228 15.8473 5.00661 15.8319 5.04272 15.8222L6.15289 15.4595C6.23422 15.4352 6.30761 15.3896 6.36546 15.3272C6.42331 15.2649 6.46352 15.1881 6.48193 15.1049L6.9367 13.1464C6.9608 13.0467 7.02334 12.9607 7.11058 12.9073L7.55198 12.6602Z" stroke="#29577E" stroke-width="0.3" stroke-linecap="round" stroke-linejoin="round"/>
<path d="M8.31287 12.2207V13.2792C8.17376 13.4538 8.04536 13.6311 7.90625 13.8165C8.02237 13.3596 8.07104 12.888 8.05071 12.4168L7.91428 12.4517L8.04803 12.3765L8.31287 12.2207Z" stroke="#29577E" stroke-width="0.3" stroke-linecap="round" stroke-linejoin="round"/>
<path d="M5.76625 27.3763H5.74752C4.8139 27.0324 3.76526 26.1458 3.57532 25.9819L3.5459 25.9551" stroke="#29577E" stroke-width="0.3" stroke-linecap="round" stroke-linejoin="round"/>
<path d="M8.0742 11.8809L8.03906 11.8971" stroke="#29577E" stroke-width="0.3" stroke-linecap="round" stroke-linejoin="round"/>
<path d="M5.23425 19.4843C4.46114 19.2828 4.38891 18.8664 4.38891 18.8664C4.38891 18.81 4.38891 18.7562 4.38891 18.6998C4.38891 18.5064 4.40229 18.3049 4.42102 18.1034C4.47541 17.5945 4.57296 17.0912 4.7126 16.5989C4.78216 16.3518 4.86241 16.11 4.94801 15.8816C5.55259 14.2885 6.53168 13.0769 7.54555 12.604C7.66449 12.5493 7.78692 12.5027 7.91204 12.4643L8.0458 12.3891L8.31331 12.236V11.8867H8.30261C8.21344 11.8867 8.12427 11.8921 8.0351 11.9028H7.9816C7.81173 11.9478 7.64682 12.0099 7.48938 12.0882C6.18392 12.7142 4.93731 14.404 4.31936 16.5828C4.15428 17.1531 4.04321 17.7378 3.98765 18.3291C3.96892 18.5145 3.95555 18.6944 3.9502 18.8664C3.9502 18.9631 3.9502 19.0518 3.9502 19.135C4.00066 19.3192 4.10504 19.484 4.24981 19.6079C4.48219 19.8087 4.75642 19.9547 5.05234 20.035" stroke="#29577E" stroke-width="0.3" stroke-linecap="round" stroke-linejoin="round"/>
<path d="M5.05566 20.039C5.14348 20.0665 5.2328 20.089 5.32318 20.1062C5.31412 20.0727 5.30785 20.0386 5.30445 20.0041C5.29242 19.9303 5.29242 19.855 5.30445 19.7811C5.31267 19.7282 5.32797 19.6767 5.34993 19.628C5.36094 19.5927 5.37527 19.5585 5.39273 19.5259C5.33388 19.5259 5.28037 19.5017 5.22955 19.4883" stroke="#29577E" stroke-width="0.3" stroke-linecap="round" stroke-linejoin="round"/>
<path d="M8.05245 12.4192L7.91602 12.4541L8.04977 12.3789C8.05199 12.3922 8.05288 12.4057 8.05245 12.4192Z" stroke="#29577E" stroke-width="0.3" stroke-linecap="round" stroke-linejoin="round"/>
<path d="M3.98728 18.3297C3.96855 18.5151 3.95518 18.6951 3.94983 18.867C3.69147 18.8913 3.43098 18.8576 3.18717 18.7684C2.94337 18.6791 2.72234 18.5367 2.54004 18.3512C2.57482 18.3351 2.60959 18.3109 2.64704 18.2894C2.73286 18.2568 2.80535 18.1963 2.85303 18.1175C2.87306 18.0859 2.88839 18.0515 2.8985 18.0154C2.91188 17.9885 2.92258 17.9644 2.93328 17.9375C3.21923 18.2029 3.59815 18.3439 3.98728 18.3297Z" stroke="#29577E" stroke-width="0.3" stroke-linecap="round" stroke-linejoin="round"/>
<path d="M2.90576 18.0098C2.89564 18.0458 2.88032 18.0802 2.86028 18.1119C2.81261 18.1906 2.74011 18.2511 2.6543 18.2838L2.73723 18.2354C2.75215 18.2207 2.76826 18.2072 2.78538 18.1951C2.8323 18.1381 2.87269 18.0759 2.90576 18.0098Z" stroke="#29577E" stroke-width="0.3" stroke-linecap="round" stroke-linejoin="round"/>
<path d="M7.89698 13.8218L7.87291 13.9266C7.7036 14.5398 7.45634 15.1285 7.13725 15.6782C6.84579 16.1916 6.50341 16.674 6.11535 17.1182C6.01905 17.2337 5.91472 17.3493 5.81039 17.4594C5.38104 17.9157 4.90592 18.3262 4.39258 18.6845C4.39258 18.4911 4.40595 18.2896 4.42468 18.0881C4.83803 17.7944 5.22154 17.4606 5.56963 17.0914C5.97547 16.6697 6.33427 16.2049 6.63968 15.7051C6.95711 15.193 7.2037 14.6398 7.37266 14.0609C7.5059 13.6059 7.56729 13.1327 7.55457 12.6585L7.91838 12.449L8.05481 12.4141C8.07157 12.8886 8.01839 13.3629 7.89698 13.8218Z" stroke="#29577E" stroke-width="0.3" stroke-linecap="round" stroke-linejoin="round"/>
<path d="M7.91388 12.4473L7.55273 12.6568C7.55273 12.6353 7.55273 12.6085 7.55273 12.587C7.66993 12.5325 7.79057 12.4858 7.91388 12.4473Z" stroke="#29577E" stroke-width="0.3" stroke-linecap="round" stroke-linejoin="round"/>
<path d="M4.41054 22.3145L4.32227 22.6852C4.34367 22.5616 4.37577 22.438 4.41054 22.3145Z" stroke="#29577E" stroke-width="0.3" stroke-linecap="round" stroke-linejoin="round"/>
<path d="M5.81 17.8914L5.73242 18.0794C5.75917 18.0149 5.78057 17.9531 5.80732 17.8887L5.81 17.8914Z" stroke="#29577E" stroke-width="0.3" stroke-linecap="round" stroke-linejoin="round"/>
<path d="M15.2285 13.1152L15.2528 13.1315" stroke="#29577E" stroke-width="0.3" stroke-linecap="round" stroke-linejoin="round"/>
<path d="M16.0331 13.6326C15.9422 13.5735 15.8566 13.5144 15.7656 13.4688" stroke="#29577E" stroke-width="0.3" stroke-linecap="round" stroke-linejoin="round"/>
<path d="M12.4736 20.6486C12.3976 20.5667 12.3068 20.5001 12.2061 20.4525C15.5473 17.0244 16.0074 15.0793 15.8175 14.0746C15.7944 13.9482 15.7577 13.8248 15.7078 13.7065C15.6149 13.4762 15.4603 13.2762 15.261 13.1289C15.3493 13.18 15.5286 13.2928 15.7506 13.4405L15.7693 13.4567C15.8315 13.5096 15.8848 13.5721 15.9271 13.642L15.978 13.7253C16.3257 14.3916 16.5397 16.2641 12.4736 20.6486Z" stroke="#29577E" stroke-width="0.3" stroke-linecap="round" stroke-linejoin="round"/>
<path d="M12.1576 20.9704C12.0995 20.9231 12.0345 20.885 11.965 20.8576C11.9215 20.8419 11.8767 20.8302 11.8312 20.8226C11.6281 20.8119 11.4274 20.8702 11.2613 20.9882C11.0953 21.1062 10.9738 21.2769 10.9163 21.4728C10.7371 21.9644 10.9163 22.4802 11.3176 22.628C11.7188 22.7758 12.1897 22.499 12.3662 22.0101C12.4404 21.836 12.4602 21.6433 12.4229 21.4577C12.3856 21.272 12.2931 21.1021 12.1576 20.9704ZM12.4732 20.648C12.3959 20.5677 12.3054 20.5014 12.2057 20.4519L12.1308 20.4223C11.9494 20.3615 11.7554 20.349 11.5678 20.3862C11.3802 20.4234 11.2055 20.509 11.0608 20.6346C11.0233 20.6668 10.9832 20.6991 10.9457 20.7367C10.8109 20.8693 10.7004 21.0249 10.6194 21.1961C10.598 21.2471 10.5766 21.2928 10.5578 21.3411C10.5268 21.4346 10.5009 21.5296 10.4803 21.6259C10.3679 22.2573 10.6381 22.8671 11.1597 23.0579C11.7563 23.2782 12.4572 22.8671 12.7247 22.1364C12.8256 21.8895 12.8555 21.6191 12.8111 21.356C12.7666 21.0929 12.6496 20.8476 12.4732 20.648Z" stroke="#29577E" stroke-width="0.3" stroke-linecap="round" stroke-linejoin="round"/>
<path d="M12.371 22.0154C12.1944 22.5017 11.7236 22.7811 11.3223 22.6306C10.9211 22.4802 10.7418 21.9671 10.9211 21.4754C10.9794 21.28 11.1012 21.1098 11.267 20.992C11.4328 20.8742 11.6331 20.8155 11.836 20.8253C11.8812 20.8341 11.9259 20.8457 11.9697 20.8602C12.0399 20.8875 12.1051 20.9266 12.1623 20.9757C12.2982 21.1072 12.391 21.2771 12.4282 21.4629C12.4655 21.6486 12.4455 21.8414 12.371 22.0154Z" stroke="#29577E" stroke-width="0.3" stroke-linecap="round" stroke-linejoin="round"/>
<path d="M12.1996 20.456L12.1247 20.4238C11.9433 20.3637 11.7494 20.3516 11.562 20.3888C11.3745 20.426 11.1998 20.5111 11.0547 20.636L11.5683 20.002C11.6268 19.9271 11.6657 19.8387 11.6816 19.7449C11.6975 19.6511 11.6898 19.5548 11.6593 19.4647L11.25 18.2289C11.2137 18.1254 11.2185 18.0119 11.2633 17.9118C11.3082 17.8118 11.3896 17.7329 11.4907 17.6915L14.3237 16.4933C14.5393 16.4014 14.7155 16.2358 14.8213 16.0259L15.811 14.0781C16.001 15.091 15.5409 17.028 12.1996 20.456Z" stroke="#29577E" stroke-width="0.3" stroke-linecap="round" stroke-linejoin="round"/>
<path d="M6.59242 19.9434C6.59363 19.9658 6.59363 19.9882 6.59242 20.0106C6.57404 20.122 6.51251 20.2215 6.42128 20.2874C6.33005 20.3534 6.21654 20.3804 6.10555 20.3625L5.64543 20.29H5.59727C5.5324 20.2706 5.47296 20.2362 5.42371 20.1895C5.37447 20.1429 5.3368 20.0853 5.31371 20.0214C5.30168 19.9475 5.30168 19.8722 5.31371 19.7984C5.32193 19.7455 5.33723 19.694 5.35919 19.6452C5.4022 19.5757 5.4649 19.5207 5.53925 19.4872C5.61359 19.4537 5.69621 19.4432 5.77651 19.4572L6.06542 19.5028L6.23663 19.5297C6.33496 19.5455 6.42457 19.5957 6.48967 19.6714C6.55476 19.7471 6.59115 19.8434 6.59242 19.9434Z" stroke="#29577E" stroke-width="0.3" stroke-linecap="round" stroke-linejoin="round"/>
<path d="M5.31277 19.7781C5.30074 19.852 5.30074 19.9273 5.31277 20.0011C5.2957 19.9546 5.28665 19.9056 5.28602 19.856C5.28487 19.8337 5.28487 19.8113 5.28602 19.7889C5.29539 19.7298 5.31829 19.6737 5.3529 19.625C5.33277 19.674 5.31928 19.7255 5.31277 19.7781Z" stroke="#29577E" stroke-width="0.3" stroke-linecap="round" stroke-linejoin="round"/>
<path d="M2.92585 17.8831C2.92576 17.9231 2.92036 17.9628 2.9098 18.0013C2.87253 18.0681 2.82764 18.1304 2.77604 18.1867C2.75892 18.1988 2.74282 18.2123 2.72789 18.227L2.65834 18.2754C2.5976 18.298 2.53252 18.3063 2.46808 18.2998C2.40364 18.2933 2.34153 18.2721 2.28649 18.2378L1.88255 17.996C1.82167 17.9573 1.77157 17.9037 1.73695 17.8403C1.70232 17.7769 1.68431 17.7056 1.68459 17.6333C1.68375 17.5542 1.70608 17.4767 1.7488 17.4103C1.77827 17.363 1.81674 17.322 1.86202 17.2896C1.90729 17.2572 1.95848 17.2342 2.01264 17.2217C2.06681 17.2092 2.1229 17.2076 2.17769 17.2169C2.23249 17.2262 2.28491 17.2463 2.33197 17.276L2.73859 17.5205C2.79714 17.5607 2.84487 17.6149 2.87754 17.6782C2.91021 17.7415 2.92681 17.8119 2.92585 17.8831Z" stroke="#29577E" stroke-width="0.3" stroke-linecap="round" stroke-linejoin="round"/>
<path d="M2.90576 18.0098C2.89564 18.0458 2.88032 18.0802 2.86028 18.1119C2.81261 18.1906 2.74011 18.2511 2.6543 18.2838L2.73723 18.2354C2.75215 18.2207 2.76826 18.2072 2.78538 18.1951C2.8323 18.1381 2.87269 18.0759 2.90576 18.0098Z" stroke="#29577E" stroke-width="0.3" stroke-linecap="round" stroke-linejoin="round"/>
<path d="M14.0157 14.4297C11.2389 16.1222 9.02124 19.9371 7.58203 22.981C8.21603 21.0064 9.05602 17.0974 9.05602 17.0974C9.05602 17.0974 10.8965 15.4855 11.4101 14.9643H11.5947C12.4291 14.9494 13.2521 14.7676 14.0157 14.4297Z" stroke="#29577E" stroke-width="0.3" stroke-linecap="round" stroke-linejoin="round"/>
<path d="M9.05693 17.1025C9.05693 17.1025 8.16076 16.7398 8.00293 16.5195" stroke="#29577E" stroke-width="0.3" stroke-linecap="round" stroke-linejoin="round"/>
<path d="M8.62402 13.8398C8.62402 13.8398 11.1039 14.9601 11.4195 14.9682" stroke="#29577E" stroke-width="0.3" stroke-linecap="round" stroke-linejoin="round"/>
<path d="M18.6025 6.04025C18.5811 7.7086 18.3163 8.44203 17.6288 9.39845C17.273 9.89815 16.8637 10.2044 16.6363 10.5698C16.6363 10.5859 16.6149 10.5993 16.6095 10.6128C16.2297 11.1823 15.8819 11.0749 15.8819 11.0749C15.5582 10.8975 15.7348 10.2958 15.7749 9.84441C15.7749 9.84441 17.6876 9.05994 17.0937 7.15786C16.7192 5.96771 15.6786 6.62055 15.2399 7.49368C15.2399 7.49368 14.8627 8.31308 15.0125 8.72143C15.1409 9.07875 14.127 8.94173 14.0655 7.45338C14.0834 7.08498 14.1611 6.72199 14.2956 6.37876C14.384 6.13729 14.4503 5.88819 14.4935 5.63458C14.6193 4.96294 13.905 5.41428 13.7766 5.49488L13.7525 5.511C13.1928 5.89572 12.5568 6.15443 11.8883 6.26943C11.2197 6.38442 10.5343 6.35299 9.87895 6.17727C9.1531 5.96107 8.50357 5.54173 8.00637 4.96832C7.94484 4.90115 7.88599 4.8313 7.82981 4.76145L7.63988 4.51697C7.62753 4.49594 7.61319 4.47615 7.59708 4.45787C7.39377 4.15698 6.21404 2.46982 8.81425 2.24415C9.53119 2.18236 10.0261 1.90296 10.9329 1.51878C11.8497 1.10278 12.8582 0.93239 13.8601 1.0242C14.8619 1.11601 15.823 1.46689 16.6497 2.04266C16.8332 2.18058 16.9986 2.34126 17.1419 2.52086C17.7197 3.17638 18.6266 4.62712 18.6025 6.04025Z" fill="#29577E" stroke="#29577E" stroke-opacity="0.9" stroke-width="0.3" stroke-linecap="round" stroke-linejoin="round"/>
</svg>
