<svg width="28" height="32" viewBox="0 0 28 32" fill="none" xmlns="http://www.w3.org/2000/svg">
<path d="M19.5705 30.1761V31.248L1 20.5259V19.4512L1.92936 19.9885L19.5705 30.1761Z" stroke="#29577E" stroke-width="0.3" stroke-linecap="round" stroke-linejoin="round"/>
<path d="M27.0006 25.8828V26.9547L19.5713 31.2453V30.1733L26.0712 26.4174L27.0006 25.8828Z" stroke="#29577E" stroke-width="0.3" stroke-linecap="round" stroke-linejoin="round"/>
<path d="M26.9998 25.884L26.0704 26.4186L19.5705 30.1745L1.92936 19.987L1 19.4497L4.71465 17.3086V20.0822L8.4293 22.2848L10.0221 23.2308L10.1705 23.3175L14.6269 25.9596L14.6857 25.996L18.3472 28.165L24.5112 24.6274V24.4455L26.9998 25.884Z" fill="#29577E" fill-opacity="0.9" stroke="#29577E" stroke-width="0.3" stroke-miterlimit="10"/>
<path d="M24.5159 14.3086V15.5037C21.2883 17.3509 18.3798 19.0245 18.3574 19.0497V17.849L20.7984 16.4497L24.5159 14.3086Z" stroke="#29577E" stroke-width="0.3" stroke-linecap="round" stroke-linejoin="round"/>
<path d="M24.5111 14.3086V14.3114L20.7881 16.4497L24.5083 14.3086H24.5111Z" stroke="#29577E" stroke-width="0.3" stroke-linecap="round" stroke-linejoin="round"/>
<path d="M18.3574 19.0513C18.3882 19.0345 21.2967 17.3721 24.5159 15.5137V24.6265L18.3574 28.1641V19.0513Z" stroke="#29577E" stroke-width="0.3" stroke-linecap="round" stroke-linejoin="round"/>
<path d="M8.42852 11.9702V13.322L4.71387 11.1754V9.76758H4.71667L8.42852 11.9702Z" stroke="#29577E" stroke-width="0.3" stroke-linecap="round" stroke-linejoin="round"/>
<path d="M8.42852 13.3224V22.2869L4.71387 20.0843V11.1758L8.42852 13.3224Z" stroke="#29577E" stroke-width="0.3" stroke-linecap="round" stroke-linejoin="round"/>
<path d="M8.42865 7.63086V11.9662L4.7168 9.76352L8.42865 7.63086Z" fill="#29577E" fill-opacity="0.9" stroke="#29577E" stroke-width="0.3" stroke-miterlimit="10"/>
<path d="M20.7881 4.80078V12.1308L20.0406 12.5562L14.6268 15.6404V15.6432H14.624V8.34122H14.6268L20.7881 4.80078Z" stroke="#29577E" stroke-width="0.3" stroke-linecap="round" stroke-linejoin="round"/>
<path d="M18.3492 17.85V19.0422L14.6289 16.8956V15.6445H14.6317L18.3492 17.85Z" stroke="#29577E" stroke-width="0.3" stroke-linecap="round" stroke-linejoin="round"/>
<path d="M18.3492 19.0431V28.1643L14.6877 25.9953L14.6289 25.9589V16.8965L18.3492 19.0431Z" stroke="#29577E" stroke-width="0.3" stroke-linecap="round" stroke-linejoin="round"/>
<path d="M20.7896 4.80353L14.6284 8.34397H14.6256L14.5948 8.32438V8.32158L8.43359 4.54044L14.5948 1L20.7896 4.80353Z" fill="#29577E" fill-opacity="0.9" stroke="#29577E" stroke-width="0.3" stroke-linecap="round" stroke-linejoin="round"/>
<path d="M14.5948 8.32215V8.32495L8.43359 4.54102L14.5948 8.32215Z" stroke="#29577E" stroke-width="0.3" stroke-linecap="round" stroke-linejoin="round"/>
<path d="M24.5076 14.3075L20.7873 16.4485L18.3464 17.8507L14.6289 15.6453L20.0399 12.5582L20.7873 12.1328L24.5076 14.3075Z" fill="#29577E" fill-opacity="0.9" stroke="#29577E" stroke-width="0.3" stroke-miterlimit="10"/>
<path d="M24.5111 14.3114L20.7881 16.4497L24.5083 14.3086L24.5111 14.3114Z" stroke="#29577E" stroke-width="0.3" stroke-linecap="round" stroke-linejoin="round"/>
<path d="M14.6287 9.43581L14.6258 9.43298L14.5947 9.41602" stroke="#29577E" stroke-width="0.3" stroke-linecap="round" stroke-linejoin="round"/>
<path d="M8.42871 13.1152L14.5899 16.6725L14.6263 16.6949" stroke="#29577E" stroke-width="0.3" stroke-linecap="round" stroke-linejoin="round"/>
<path d="M8.42871 13.584L14.5899 17.1412L14.6263 17.1608" stroke="#29577E" stroke-width="0.3" stroke-linecap="round" stroke-linejoin="round"/>
<path d="M20.7873 5.89844L14.6289 9.43888" stroke="#29577E" stroke-width="0.3" stroke-linecap="round" stroke-linejoin="round"/>
<path d="M12.4283 20.2059V24.6448L10.1749 23.3154L10.0293 23.2286V19.05C10.0292 18.9116 10.0657 18.7756 10.1352 18.6558C10.2048 18.5361 10.3048 18.4369 10.4251 18.3684C10.5454 18.2998 10.6817 18.2644 10.8202 18.2657C10.9587 18.2669 11.0943 18.3048 11.2134 18.3755L11.4933 18.5379C11.7802 18.7112 12.0172 18.9561 12.1811 19.2485C12.3449 19.5409 12.4301 19.8708 12.4283 20.2059Z" fill="#65BEBF"/>
<path d="M17.6619 21.6426V21.7098C17.6621 21.7321 17.6563 21.7541 17.6452 21.7734C17.6341 21.7928 17.618 21.8088 17.5987 21.8199C17.5793 21.831 17.5573 21.8368 17.535 21.8366C17.5127 21.8364 17.4908 21.8303 17.4716 21.8189L15.3721 20.6071C15.354 20.5963 15.3389 20.5812 15.3282 20.5631C15.3174 20.545 15.3113 20.5245 15.3105 20.5035V20.372C15.3107 20.3517 15.3161 20.3319 15.3264 20.3144C15.3366 20.297 15.3513 20.2826 15.3689 20.2726C15.3865 20.2627 15.4065 20.2576 15.4267 20.2578C15.4469 20.2581 15.4667 20.2636 15.4841 20.274L17.5668 21.4775C17.5959 21.494 17.6202 21.518 17.6369 21.5471C17.6536 21.5761 17.6623 21.6091 17.6619 21.6426Z" fill="#65BEBF"/>
<path d="M17.6619 22.8418V22.909C17.6621 22.9313 17.6563 22.9533 17.6452 22.9726C17.6341 22.992 17.618 23.008 17.5987 23.0191C17.5793 23.0303 17.5573 23.036 17.535 23.0358C17.5127 23.0357 17.4908 23.0296 17.4716 23.0181L15.3721 21.8063C15.354 21.7955 15.3389 21.7804 15.3282 21.7623C15.3174 21.7443 15.3113 21.7238 15.3105 21.7027V21.5712C15.3107 21.551 15.3161 21.5311 15.3264 21.5137C15.3366 21.4962 15.3513 21.4818 15.3689 21.4719C15.3865 21.4619 15.4065 21.4568 15.4267 21.457C15.4469 21.4573 15.4667 21.4629 15.4841 21.4732L17.5668 22.6907C17.5938 22.7062 17.6166 22.7281 17.6332 22.7544C17.6498 22.7808 17.6597 22.8108 17.6619 22.8418Z" fill="#65BEBF"/>
<path d="M17.6619 24.0449V24.1149C17.6613 24.1369 17.655 24.1583 17.6437 24.1772C17.6324 24.1961 17.6164 24.2117 17.5973 24.2227C17.5782 24.2336 17.5566 24.2395 17.5346 24.2397C17.5126 24.24 17.4909 24.2346 17.4716 24.224L15.3721 23.0094C15.3535 22.9993 15.3379 22.9843 15.3271 22.9661C15.3162 22.9478 15.3105 22.927 15.3105 22.9058V22.7771C15.311 22.7569 15.3166 22.7372 15.3269 22.7199C15.3371 22.7025 15.3516 22.6881 15.3691 22.678C15.3865 22.6679 15.4062 22.6624 15.4264 22.6621C15.4465 22.6618 15.4664 22.6667 15.4841 22.6763L17.5668 23.8798C17.5958 23.8965 17.6198 23.9206 17.6365 23.9496C17.6532 23.9786 17.662 24.0114 17.6619 24.0449Z" fill="#65BEBF"/>
<path d="M17.6619 25.2441V25.3141C17.6613 25.3361 17.655 25.3575 17.6437 25.3764C17.6324 25.3953 17.6164 25.4109 17.5973 25.4219C17.5782 25.4328 17.5566 25.4387 17.5346 25.4389C17.5126 25.4392 17.4909 25.4338 17.4716 25.4232L15.3721 24.2086C15.3535 24.1985 15.3379 24.1835 15.3271 24.1653C15.3162 24.1471 15.3105 24.1262 15.3105 24.105V23.9763C15.311 23.9561 15.3166 23.9365 15.3269 23.9191C15.3371 23.9018 15.3516 23.8873 15.3691 23.8772C15.3865 23.8671 15.4062 23.8616 15.4264 23.8613C15.4465 23.861 15.4664 23.8659 15.4841 23.8755L17.5668 25.079C17.5958 25.0957 17.6198 25.1198 17.6365 25.1488C17.6532 25.1778 17.662 25.2107 17.6619 25.2441Z" fill="#65BEBF"/>
<path d="M7.64855 15.8593V15.9292C7.64788 15.9512 7.64159 15.9727 7.63028 15.9916C7.61896 16.0104 7.60299 16.0261 7.5839 16.037C7.56481 16.048 7.54323 16.0538 7.52123 16.0541C7.49922 16.0543 7.47752 16.0489 7.4582 16.0384L5.35593 14.8237C5.3376 14.8135 5.32242 14.7984 5.31206 14.7802C5.30169 14.7619 5.29653 14.7411 5.29715 14.7202V14.5914C5.29564 14.5696 5.30038 14.5479 5.31081 14.5287C5.32124 14.5095 5.33693 14.4937 5.35604 14.4831C5.37514 14.4725 5.39687 14.4676 5.41867 14.469C5.44047 14.4703 5.46143 14.4778 5.4791 14.4907L7.55057 15.6941C7.58027 15.7103 7.60505 15.7341 7.6223 15.7632C7.63955 15.7923 7.64862 15.8255 7.64855 15.8593Z" fill="#65BEBF"/>
<path d="M7.64686 17.0588V17.1287C7.64702 17.1511 7.64125 17.173 7.63012 17.1924C7.619 17.2117 7.60294 17.2278 7.58357 17.2389C7.5642 17.25 7.54223 17.2558 7.5199 17.2556C7.49758 17.2554 7.4757 17.2493 7.45651 17.2379L5.35425 16.026C5.33649 16.0151 5.32179 15.9999 5.31151 15.9818C5.30123 15.9637 5.29571 15.9433 5.29546 15.9225V15.7909C5.29329 15.7689 5.29767 15.7468 5.30806 15.7273C5.31844 15.7078 5.33436 15.6918 5.35381 15.6813C5.37326 15.6709 5.39537 15.6664 5.41737 15.6685C5.43937 15.6705 5.46026 15.6791 5.47742 15.693L7.56009 16.8936C7.58732 16.9116 7.60956 16.9362 7.62474 16.965C7.63991 16.9939 7.64752 17.0262 7.64686 17.0588Z" fill="#65BEBF"/>
<path d="M7.64827 18.266V18.3332C7.64843 18.3555 7.64266 18.3775 7.63154 18.3968C7.62041 18.4162 7.60435 18.4322 7.58498 18.4433C7.56561 18.4544 7.54364 18.4602 7.52132 18.46C7.49899 18.4598 7.47711 18.4537 7.45792 18.4423L5.35566 17.2305C5.3379 17.2196 5.3232 17.2044 5.31292 17.1863C5.30264 17.1681 5.29712 17.1477 5.29688 17.1269V16.9954C5.29726 16.9755 5.30276 16.9562 5.31286 16.9391C5.32296 16.922 5.33731 16.9079 5.35451 16.898C5.3717 16.8882 5.39116 16.8829 5.41099 16.8828C5.43081 16.8827 5.45033 16.8877 5.46763 16.8974L7.5503 18.0981C7.58002 18.1149 7.60475 18.1393 7.62196 18.1688C7.63917 18.1983 7.64825 18.2318 7.64827 18.266Z" fill="#65BEBF"/>
<path d="M7.64827 19.4652V19.5324C7.64843 19.5547 7.64266 19.5767 7.63154 19.596C7.62041 19.6154 7.60435 19.6314 7.58498 19.6425C7.56561 19.6537 7.54364 19.6594 7.52132 19.6592C7.49899 19.6591 7.47711 19.653 7.45792 19.6415L5.35566 18.4297C5.3379 18.4188 5.3232 18.4036 5.31292 18.3855C5.30264 18.3674 5.29712 18.3469 5.29688 18.3261V18.1946C5.29726 18.1748 5.30276 18.1554 5.31286 18.1383C5.32296 18.1213 5.33731 18.1071 5.35451 18.0973C5.3717 18.0874 5.39116 18.0821 5.41099 18.082C5.43081 18.0819 5.45033 18.0869 5.46763 18.0966L7.5503 19.3001C7.5802 19.316 7.60515 19.3398 7.62243 19.3689C7.63971 19.3981 7.64865 19.4314 7.64827 19.4652Z" fill="#65BEBF"/>
<path d="M11.2289 11.5404V11.0254L11.674 11.3053V11.8146L12.1163 12.0693V12.5815L11.674 12.3324V12.8418L11.2289 12.5871V12.0525L10.7979 11.8062V11.2801L11.2289 11.5404Z" fill="#65BEBF"/>
<path d="M13.156 12.3487C13.121 11.8814 12.9472 11.4352 12.657 11.0672C12.3667 10.6992 11.9732 10.4262 11.5268 10.2832C10.6395 10.0257 9.92285 10.5631 9.92285 11.4755C9.94188 11.948 10.11 12.4023 10.4032 12.7733C10.6964 13.1444 11.0995 13.4131 11.5548 13.541C12.4534 13.7649 13.1728 13.2303 13.156 12.3487Z" fill="#65BEBF"/>
<path d="M17.7108 21.7146V21.7818C17.7109 21.8041 17.7052 21.8261 17.694 21.8454C17.6829 21.8648 17.6668 21.8809 17.6475 21.892C17.6281 21.9031 17.6061 21.9088 17.5838 21.9086C17.5615 21.9085 17.5396 21.9024 17.5204 21.891L15.4182 20.6791C15.4004 20.6682 15.3857 20.653 15.3754 20.6349C15.3651 20.6168 15.3596 20.5964 15.3594 20.5755V20.4524C15.3598 20.4326 15.3653 20.4132 15.3754 20.3961C15.3855 20.3791 15.3998 20.3649 15.417 20.3551C15.4342 20.3452 15.4537 20.34 15.4735 20.3398C15.4933 20.3397 15.5128 20.3448 15.5301 20.3544L17.6156 21.5579C17.6436 21.5737 17.667 21.5964 17.6837 21.6238C17.7003 21.6513 17.7097 21.6825 17.7108 21.7146Z" stroke="#29577E" stroke-width="0.3" stroke-linecap="round" stroke-linejoin="round"/>
<path d="M17.7108 22.9125V22.9685C17.7109 22.9908 17.7052 23.0127 17.694 23.0321C17.6829 23.0515 17.6668 23.0675 17.6475 23.0786C17.6281 23.0897 17.6061 23.0955 17.5838 23.0953C17.5615 23.0951 17.5396 23.089 17.5204 23.0776L15.4182 21.8769C15.4004 21.8661 15.3857 21.8509 15.3754 21.8327C15.3651 21.8146 15.3596 21.7942 15.3594 21.7734V21.6418C15.3598 21.622 15.3653 21.6026 15.3754 21.5856C15.3855 21.5685 15.3998 21.5544 15.417 21.5445C15.4342 21.5347 15.4537 21.5294 15.4735 21.5293C15.4933 21.5292 15.5128 21.5342 15.5301 21.5439L17.6156 22.7474C17.6446 22.7641 17.6686 22.7882 17.6853 22.8172C17.7021 22.8461 17.7108 22.879 17.7108 22.9125Z" stroke="#29577E" stroke-width="0.3" stroke-linecap="round" stroke-linejoin="round"/>
<path d="M17.711 24.1134V24.1806C17.7108 24.2028 17.7049 24.2246 17.6937 24.2438C17.6826 24.2631 17.6667 24.2791 17.6475 24.2904C17.6284 24.3017 17.6066 24.3078 17.5844 24.3082C17.5621 24.3085 17.5402 24.3031 17.5206 24.2925L15.4184 23.0778C15.3994 23.0669 15.3838 23.0509 15.3734 23.0316C15.363 23.0124 15.3583 22.9906 15.3596 22.9687V22.8399C15.3595 22.8199 15.3647 22.8002 15.3746 22.7827C15.3845 22.7653 15.3988 22.7507 15.416 22.7405C15.4333 22.7303 15.453 22.7249 15.473 22.7246C15.4931 22.7244 15.5128 22.7294 15.5304 22.7392L17.6158 23.9427C17.6456 23.9599 17.6702 23.9848 17.687 24.0149C17.7038 24.0449 17.7121 24.079 17.711 24.1134Z" stroke="#29577E" stroke-width="0.3" stroke-linecap="round" stroke-linejoin="round"/>
<path d="M17.7115 25.3126V25.3826C17.7105 25.4049 17.7036 25.4266 17.6916 25.4455C17.6796 25.4643 17.6629 25.4798 17.6431 25.4902C17.6233 25.5007 17.6012 25.5058 17.5788 25.5051C17.5564 25.5043 17.5347 25.4978 17.5156 25.4861L15.4133 24.2715C15.395 24.2612 15.3798 24.2462 15.3694 24.2279C15.3591 24.2096 15.3539 24.1889 15.3545 24.1679V24.0392C15.3544 24.0191 15.3596 23.9994 15.3695 23.9819C15.3794 23.9645 15.3937 23.9499 15.411 23.9398C15.4283 23.9296 15.4479 23.9241 15.468 23.9238C15.488 23.9236 15.5078 23.9286 15.5253 23.9384L17.6108 25.1419C17.6416 25.1583 17.6674 25.183 17.6851 25.2131C17.7029 25.2432 17.7121 25.2776 17.7115 25.3126Z" stroke="#29577E" stroke-width="0.3" stroke-linecap="round" stroke-linejoin="round"/>
<path d="M7.69423 15.9301V16C7.69357 16.022 7.68727 16.0435 7.67596 16.0623C7.66464 16.0812 7.64867 16.0969 7.62958 16.1078C7.61049 16.1188 7.58891 16.1246 7.56691 16.1249C7.5449 16.1251 7.5232 16.1197 7.50388 16.1092L5.40441 14.8945C5.38534 14.8849 5.36941 14.8701 5.3585 14.8517C5.34759 14.8334 5.34215 14.8123 5.34283 14.791V14.6622C5.34273 14.6422 5.34788 14.6224 5.35779 14.605C5.36769 14.5875 5.38199 14.573 5.39927 14.5628C5.41654 14.5526 5.43619 14.5471 5.45625 14.5469C5.4763 14.5466 5.49607 14.5517 5.51359 14.5615L7.59905 15.7649C7.62804 15.7817 7.65209 15.8057 7.6688 15.8347C7.68551 15.8637 7.69428 15.8966 7.69423 15.9301Z" stroke="#29577E" stroke-width="0.3" stroke-linecap="round" stroke-linejoin="round"/>
<path d="M7.69418 17.1332V17.2031C7.69352 17.2251 7.68723 17.2466 7.67591 17.2655C7.66459 17.2843 7.64863 17.3 7.62953 17.3109C7.61044 17.3219 7.58886 17.3278 7.56686 17.328C7.54485 17.3282 7.52315 17.3228 7.50383 17.3123L5.40436 16.1004C5.38549 16.0899 5.36981 16.0744 5.35897 16.0557C5.34813 16.037 5.34254 16.0157 5.34278 15.9941V15.8653C5.34268 15.8453 5.34784 15.8255 5.35774 15.8081C5.36764 15.7907 5.38194 15.7761 5.39922 15.7659C5.41649 15.7557 5.43614 15.7502 5.4562 15.75C5.47626 15.7498 5.49603 15.7548 5.51354 15.7646L7.599 16.968C7.62799 16.9848 7.65205 17.0089 7.66876 17.0378C7.68546 17.0668 7.69423 17.0997 7.69418 17.1332Z" stroke="#29577E" stroke-width="0.3" stroke-linecap="round" stroke-linejoin="round"/>
<path d="M7.69417 18.3324V18.3996C7.69433 18.4219 7.68856 18.4439 7.67743 18.4632C7.66631 18.4826 7.65025 18.4986 7.63088 18.5097C7.61151 18.5208 7.58954 18.5266 7.56721 18.5264C7.54489 18.5262 7.52301 18.5201 7.50382 18.5087L5.40436 17.2969C5.3857 17.2868 5.37013 17.2718 5.35929 17.2536C5.34845 17.2353 5.34274 17.2145 5.34277 17.1933V17.0618C5.34315 17.0419 5.34866 17.0226 5.35876 17.0055C5.36886 16.9885 5.38321 16.9743 5.40041 16.9644C5.4176 16.9546 5.43706 16.9493 5.45688 16.9492C5.47671 16.9491 5.49623 16.9541 5.51353 16.9638L7.599 18.1645C7.62801 18.1819 7.65203 18.2065 7.6687 18.2359C7.68538 18.2653 7.69416 18.2986 7.69417 18.3324Z" stroke="#29577E" stroke-width="0.3" stroke-linecap="round" stroke-linejoin="round"/>
<path d="M7.69417 19.5361V19.6117C7.69433 19.634 7.68856 19.656 7.67743 19.6753C7.66631 19.6947 7.65025 19.7107 7.63088 19.7218C7.61151 19.7329 7.58954 19.7387 7.56721 19.7385C7.54489 19.7383 7.52301 19.7322 7.50382 19.7208L5.40436 18.4922C5.3857 18.4821 5.37013 18.4671 5.35929 18.4489C5.34845 18.4307 5.34274 18.4098 5.34277 18.3886V18.2571C5.34315 18.2373 5.34866 18.2179 5.35876 18.2008C5.36886 18.1838 5.38321 18.1696 5.40041 18.1598C5.4176 18.1499 5.43706 18.1446 5.45688 18.1445C5.47671 18.1444 5.49623 18.1494 5.51353 18.1591L7.599 19.3626C7.62947 19.3798 7.65453 19.4051 7.67135 19.4358C7.68816 19.4664 7.69607 19.5012 7.69417 19.5361Z" stroke="#29577E" stroke-width="0.3" stroke-linecap="round" stroke-linejoin="round"/>
<path d="M14.5927 8.32495V9.41367L8.42871 5.85924V4.54102H8.43151L14.5927 8.32495Z" stroke="#29577E" stroke-width="0.3" stroke-linecap="round" stroke-linejoin="round"/>
<path d="M14.5948 8.32215V8.32495L8.43359 4.54102L14.5948 8.32215Z" stroke="#29577E" stroke-width="0.3" stroke-linecap="round" stroke-linejoin="round"/>
<path d="M14.6263 15.6458V25.9621L10.1699 23.32L10.0215 23.2333L8.42871 22.2873V5.86133L14.5927 9.41576V15.6262L14.6235 15.643L14.6263 15.6458Z" stroke="#29577E" stroke-width="0.3" stroke-linecap="round" stroke-linejoin="round"/>
<path d="M11.2289 11.5861V11.0684L11.674 11.3482V11.8604L12.1163 12.1151V12.6161L11.674 12.3586V12.8708L11.2289 12.6161V12.1067L10.7979 11.852V11.3258L11.2289 11.5861Z" fill="white"/>
</svg>
