<svg width="19" height="28" viewBox="0 0 19 28" fill="none" xmlns="http://www.w3.org/2000/svg">
<path d="M13.5155 13.5464C13.3416 13.6919 13.1569 13.8241 12.9633 13.9422C11.098 15.0529 8.68719 14.6368 6.88835 13.0815L6.9595 12.3219L5.53036 11.3154L5.69308 9.57798L4.53577 8.71068C4.27182 6.60947 5.06736 4.59513 6.76755 3.58016C6.96269 3.46463 7.16669 3.3647 7.37765 3.28132C5.42763 4.90079 5.06504 8.0582 6.63498 10.6822C8.20493 13.3062 11.1611 14.4853 13.5155 13.5464Z" fill="#BAE4E5" stroke="#29577F" stroke-width="0.3" stroke-linecap="round" stroke-linejoin="round"/>
<path d="M13.8552 15.4532C13.8197 15.4715 13.7855 15.4923 13.7528 15.5153L13.7036 15.5378C13.6513 15.5675 13.6019 15.5926 13.5527 15.6152C13.2238 15.7911 12.8769 15.931 12.5178 16.0324C11.859 16.2203 11.1725 16.2932 10.4888 16.2478C8.56364 16.0862 6.76816 15.2127 5.45437 13.7987L5.83658 14.0817L6.21633 14.3645L6.79068 14.0771L6.88248 13.0969C8.67641 14.6517 11.0922 15.0683 12.9574 13.9576C13.1544 13.8402 13.3423 13.7083 13.5195 13.5628C15.4673 11.9406 15.8299 8.78321 14.2599 6.15922C12.69 3.53523 9.73205 2.34851 7.37738 3.28983C7.16037 3.36854 6.95008 3.46458 6.74855 3.57702C5.05818 4.59291 4.26265 6.60726 4.53396 8.70916L4.27232 8.51408L3.69061 8.80074L3.58733 9.90347L3.12308 9.57077C2.41466 6.55531 3.41732 3.51965 5.84942 2.06893C5.93082 2.0197 6.01445 1.97315 6.09516 1.93127C9.22241 0.278674 13.3822 1.77819 15.532 5.37854C17.7447 9.07378 16.9928 13.584 13.8552 15.4532Z" stroke="#29577E" stroke-width="0.3" stroke-linecap="round" stroke-linejoin="round"/>
<path d="M15.0295 14.753C15.0295 14.753 14.0484 15.3632 13.7542 15.5161C13.7869 15.4931 13.8211 15.4723 13.8566 15.454C17.004 13.5857 17.7461 9.0746 15.5432 5.38028C13.3885 1.77947 9.21642 0.27881 6.10145 1.93255C6.39809 1.72562 6.70852 1.53913 7.03061 1.37438C10.3249 -0.210656 14.5006 0.986293 16.7109 4.6813C18.9212 8.37631 18.3193 12.29 15.0295 14.753Z" fill="#BAE4E5" stroke="#29577F" stroke-width="0.3" stroke-linecap="round" stroke-linejoin="round"/>
<path d="M15.0309 26.4661C15.0132 26.6683 14.9465 26.8631 14.8366 27.0338C14.7445 27.1759 14.6196 27.2939 14.4724 27.3779C13.8691 27.7095 13.1703 27.3425 12.9918 26.6039L10.495 16.2348C11.1767 16.2845 11.8618 16.2165 12.5202 16.0339L14.9987 26.0429C15.0331 26.1812 15.044 26.3242 15.0309 26.4661Z" stroke="#29577E" stroke-width="0.3" stroke-linecap="round" stroke-linejoin="round"/>
<path d="M15.939 25.9962C15.9395 26.1587 15.8982 26.3186 15.819 26.4605C15.7397 26.6024 15.6253 26.7216 15.4865 26.8066C15.1679 27.0317 14.8278 27.2251 14.4714 27.384C14.6186 27.3 14.7435 27.182 14.8355 27.0398C14.9454 26.8691 15.0121 26.6743 15.0299 26.4722C15.0436 26.3287 15.0329 26.1839 14.9981 26.044L12.5196 16.0351C12.877 15.9332 13.2223 15.7931 13.5496 15.6174L15.8386 25.3218C15.8948 25.5427 15.9284 25.7686 15.939 25.9962Z" fill="#BAE4E5" stroke="#29577F" stroke-width="0.3" stroke-linecap="round" stroke-linejoin="round"/>
<path d="M6.37663 12.6091L6.21368 14.349L5.83392 14.0662L5.45171 13.7832L5.30812 13.703L4.79682 13.3437L4.63433 15.0786L3.20075 14.0668L3.36369 12.3269L1.9397 11.3185L2.10677 9.53449L3.3825 10.4598L3.52134 10.5643L3.68635 8.80239L4.68141 9.55067L5.10507 9.86721L4.94281 11.5997L6.37663 12.6091Z" stroke="#29577E" stroke-width="0.3" stroke-linecap="round" stroke-linejoin="round"/>
<path d="M3.62508 9.54933L3.62305 9.54688" stroke="#29577E" stroke-width="0.3" stroke-linecap="round" stroke-linejoin="round"/>
<path d="M5.82959 14.0794L5.83008 14.0742" stroke="#29577E" stroke-width="0.3" stroke-linecap="round" stroke-linejoin="round"/>
<path d="M5.29862 13.7034L5.29883 13.7012" stroke="#29577E" stroke-width="0.3" stroke-linecap="round" stroke-linejoin="round"/>
<path d="M4.95049 11.5979L4.94803 11.5999" stroke="#29577E" stroke-width="0.3" stroke-linecap="round" stroke-linejoin="round"/>
<path d="M5.68377 9.5778L5.11166 9.86783L4.688 9.55129L3.69294 8.80302L4.26728 8.51567L4.52892 8.71074L5.68377 9.5778Z" fill="#29577E" stroke="#29577E" stroke-width="0.3" stroke-linecap="round" stroke-linejoin="round"/>
<path d="M3.59067 9.91066L3.52893 10.5699L3.39009 10.4654L2.107 9.53934L2.67889 9.25177L3.13132 9.57842L3.59067 9.91066Z" fill="#29577E" stroke="#29577E" stroke-width="0.3" stroke-linecap="round" stroke-linejoin="round"/>
<path d="M6.94882 12.3222L6.38475 12.6056L6.37693 12.6098L4.95293 11.6013L5.44411 11.3556L5.52459 11.3162L6.94882 12.3222Z" fill="#29577E" stroke="#29577E" stroke-width="0.3" stroke-linecap="round" stroke-linejoin="round"/>
<path d="M5.68232 9.64848L5.5196 11.3859L5.43912 11.4253L4.94795 11.671L4.94549 11.6708L5.10775 9.93828L5.67986 9.64825L5.68232 9.64848Z" fill="#29577E" stroke="#29577E" stroke-width="0.3" stroke-linecap="round" stroke-linejoin="round"/>
<path d="M6.95185 12.3223L6.78891 14.0622L6.21456 14.3495L6.37751 12.6097L6.38533 12.6054L6.9494 12.3221L6.95185 12.3223Z" fill="#29577E" stroke="#29577E" stroke-width="0.3" stroke-linecap="round" stroke-linejoin="round"/>
<path d="M5.30036 13.6992L5.19846 14.7872L4.62658 15.0748L4.78906 13.3398L5.30036 13.6992Z" fill="#29577E" stroke="#29577E" stroke-width="0.3" stroke-linecap="round" stroke-linejoin="round"/>
<path d="M5.29721 13.7048L5.29883 13.6875" stroke="#29577E" stroke-width="0.3" stroke-linecap="round" stroke-linejoin="round"/>
</svg>
