<svg width="20" height="27" viewBox="0 0 20 27" fill="none" xmlns="http://www.w3.org/2000/svg">
<path d="M3.23922 6.70218C3.23886 6.73559 3.2274 6.76831 3.20602 6.79695C3.10832 6.88309 2.98718 6.94985 2.85208 6.99201C2.71699 7.03416 2.5716 7.05057 2.42732 7.03994C1.97458 7.03994 1.60938 6.89171 1.60938 6.70704C1.60938 6.57096 1.8116 6.46405 2.10436 6.39844C2.08927 6.52722 2.08022 6.61956 2.0772 6.66816C2.2815 6.71298 2.49399 6.72861 2.70499 6.71433C2.70499 6.71433 2.70499 6.64872 2.75027 6.39844C3.037 6.44704 3.23922 6.56124 3.23922 6.70218Z" stroke="#29577E" stroke-width="0.3" stroke-linejoin="round"/>
<path d="M10.1092 10.1133C10.0435 10.8716 9.8558 11.6197 9.55078 12.3391" stroke="#29577E" stroke-width="0.3" stroke-linejoin="round"/>
<path d="M2.44629 11.6836C2.53985 13.4283 3.17972 15.1195 5.10535 15.7464C6.29151 16.1304 7.97267 15.0879 9.05621 13.3165" stroke="#29577E" stroke-width="0.3" stroke-linejoin="round"/>
<path d="M2.47461 10.2819C2.58145 9.10691 2.82601 7.94265 3.20502 6.80469" stroke="#29577E" stroke-width="0.3" stroke-linejoin="round"/>
<path d="M3.84087 16.4229C-0.755892 14.3015 1.60738 6.70312 1.60738 6.70312" stroke="#29577E" stroke-width="0.3" stroke-linejoin="round"/>
<path d="M4.99023 16.8061C9.00146 17.6712 11.0599 13.1879 11.7179 10.1797" stroke="#29577E" stroke-width="0.3" stroke-linejoin="round"/>
<path d="M2.51367 10.2812C2.61362 10.4532 2.73605 10.6161 2.87888 10.7672" stroke="#29577E" stroke-width="0.3" stroke-linejoin="round"/>
<path d="M9.54903 12.3395C9.40972 12.6716 9.24439 12.9963 9.05404 13.3115C5.23598 13.851 3.22584 12.6214 2.44411 11.6835C2.30366 11.5191 2.17953 11.346 2.07287 11.1659C1.98489 11.0415 1.95291 10.8964 1.98232 10.7552C2.0276 10.4879 2.24189 10.2862 2.4743 10.2911H2.51353C2.61348 10.4631 2.73591 10.626 2.87874 10.7771C3.59406 11.5547 5.49554 12.9689 9.54903 12.3395Z" stroke="#29577E" stroke-width="0.3" stroke-linejoin="round"/>
<path d="M15.3031 15.8165C15.2667 16.0579 15.2604 16.3022 15.2843 16.5449C14.7837 16.6031 13.223 17.0547 12.3887 20.4998C11.385 24.6441 10.0502 26.9286 7.07935 26.1784C2.32431 24.9645 3.75593 16.4235 3.75593 16.4235C4.07202 16.5876 4.41031 16.714 4.76238 16.7998H4.77852C4.74623 17.0256 3.75593 24.9937 7.85705 25.3239C10.801 25.5666 10.5669 21.4393 12.4318 17.5548C13.3467 15.6417 14.9156 15.6126 15.3381 15.6393C15.3246 15.7048 15.3139 15.7583 15.3031 15.8165Z" fill="#65BEBF"/>
<path d="M19.5312 16.234C19.314 17.5217 18.1659 18.4573 16.967 18.3233C15.991 18.2166 15.2745 17.4308 15.1701 16.4452C15.1451 16.2182 15.1517 15.9897 15.1899 15.7639C15.1899 15.7094 15.2124 15.6594 15.2237 15.6072C15.5058 14.4035 16.6059 13.5473 17.7625 13.6723H17.8246C18.9811 13.838 19.754 14.969 19.5312 16.234Z" stroke="#29577E" stroke-width="0.3" stroke-linejoin="round"/>
<path d="M16.5296 18.1575C16.4551 17.7059 16.4277 17.2501 16.4478 16.7949C16.4653 16.1953 16.5946 15.6012 16.8314 15.0325C17.0438 14.5292 17.3806 14.0657 17.8215 13.6699" stroke="#29577E" stroke-width="0.3" stroke-linejoin="round"/>
<path d="M16.8357 15.0402C16.9502 15.0141 17.0702 15.0072 17.1883 15.0198C17.7214 15.0857 18.074 15.5694 17.9753 16.0963C17.8766 16.6232 17.3632 17.0047 16.8272 16.9366C16.6937 16.9187 16.5655 16.881 16.4492 16.8253" stroke="#29577E" stroke-width="0.3" stroke-linejoin="round"/>
<path d="M2.07324 6.66992C2.07324 6.69202 2.07324 6.70429 2.07324 6.70429" stroke="#29577E" stroke-width="0.3" stroke-linejoin="round"/>
<path d="M11.7437 10.1124C11.7437 10.1294 11.7437 10.1415 11.7437 10.161C11.6653 10.314 11.3393 10.4283 10.9439 10.4283C10.4942 10.4283 10.129 10.28 10.126 10.0954C10.126 9.95441 10.3373 9.83535 10.6421 9.78432C11.0496 8.91926 13.0054 4.54538 11.8977 3.31584C12.0728 3.24363 12.213 3.12649 12.2961 2.98293C12.3353 2.91965 12.3608 2.85144 12.3715 2.78125C14.0014 3.89416 11.9369 8.58879 11.3635 9.81348C11.5838 9.88395 11.7437 9.99329 11.7437 10.1124Z" stroke="#29577E" stroke-width="0.3" stroke-linejoin="round"/>
<path d="M5.75433 0.412316C5.67969 0.541144 5.65346 0.68473 5.67887 0.825404C3.61742 0.942041 2.92021 5.08022 2.75119 6.39967C2.71799 6.64267 2.70592 6.71556 2.70592 6.71556C2.49491 6.72984 2.28243 6.71422 2.07812 6.6694C2.07813 6.6208 2.07812 6.52846 2.10529 6.39967C2.25016 5.0462 3.02887 -0.241336 5.83582 0.300539C5.80449 0.335726 5.77722 0.37314 5.75433 0.412316Z" stroke="#29577E" stroke-width="0.3" stroke-linejoin="round"/>
<path d="M10.8074 9.64258C10.7576 9.71201 10.7256 9.75117 10.7256 9.75117C10.8206 9.80493 11.1043 9.87718 11.238 9.90319C11.3716 9.9292 11.3515 9.7804 11.4941 9.77288" stroke="#29577E" stroke-width="0.3" stroke-linejoin="round"/>
<path d="M7.90211 1.22955C7.82835 1.35076 7.71424 1.45311 7.57248 1.52519C7.43073 1.59727 7.2669 1.63624 7.09926 1.63778C6.96802 1.63647 6.83853 1.61331 6.71896 1.56974L6.17568 1.36319C6.045 1.31205 5.93152 1.23633 5.84484 1.14244C5.75817 1.04855 5.70083 0.939239 5.67767 0.823749C5.6532 0.682838 5.68047 0.53924 5.75615 0.41066C5.82732 0.288667 5.93991 0.185372 6.0809 0.112706C6.2219 0.0400398 6.38555 0.000967347 6.55296 1.46202e-06C6.68571 -0.000216238 6.81679 0.023881 6.93627 0.0704695L7.47955 0.274584C7.69012 0.358515 7.85192 0.505057 7.93077 0.683252C8.00962 0.861447 7.99934 1.05734 7.90211 1.22955Z" fill="#65BEBF"/>
<path d="M12.3549 2.79496C12.3442 2.86516 12.3186 2.93336 12.2794 2.99665C12.1963 3.1402 12.0561 3.25735 11.881 3.32955C11.7553 3.3798 11.617 3.40639 11.4766 3.40731C11.3502 3.40598 11.2256 3.38277 11.1114 3.33927L10.5651 3.1303C10.3826 3.06115 10.2349 2.94405 10.1462 2.79827C10.0575 2.65249 10.0331 2.48674 10.077 2.3283C10.1209 2.16986 10.2305 2.02819 10.3878 1.92663C10.5451 1.82506 10.7407 1.76965 10.9424 1.76953C11.0751 1.76932 11.2062 1.79341 11.3257 1.84L11.869 2.04412C12.0388 2.11122 12.1776 2.22027 12.265 2.35534C12.3524 2.49042 12.3839 2.64445 12.3549 2.79496Z" fill="#65BEBF"/>
<path d="M3.83887 16.4238C4.19919 16.5896 4.58472 16.717 4.98579 16.8029" stroke="#29577E" stroke-width="0.3" stroke-linejoin="round"/>
</svg>
