<svg width="21" height="33" viewBox="0 0 21 33" fill="none" xmlns="http://www.w3.org/2000/svg">
<path d="M16.4457 26.2075V31.7676C16.4453 31.7926 16.4394 31.8171 16.4284 31.8395C16.4175 31.8619 16.4017 31.8816 16.3823 31.8973L16.3506 31.9203C16.3105 31.9409 16.2661 31.9517 16.221 31.952C16.1776 31.9525 16.1349 31.9415 16.0971 31.9203C15.9876 31.8675 15.8945 31.786 15.8276 31.6846C15.7606 31.5832 15.7224 31.4655 15.7168 31.3441V25.9453C15.7571 25.9684 15.8003 25.9885 15.8436 26.0087C16.0366 26.1009 16.2396 26.1705 16.4485 26.2161L16.4457 26.2075Z" stroke="#29577E" stroke-width="0.3" stroke-linejoin="round"/>
<path d="M5.4668 3.13365L5.50463 3.11328" stroke="#29577E" stroke-width="0.3" stroke-linejoin="round"/>
<path d="M8.15465 5.41016L8.10254 5.442" stroke="#29577E" stroke-width="0.3" stroke-linejoin="round"/>
<path d="M1.9502 1.50918C1.98221 1.49593 2.01491 1.48439 2.04815 1.47461" stroke="#29577E" stroke-width="0.3" stroke-linejoin="round"/>
<path d="M8.36651 4.60218V5.17836C8.36651 5.27631 8.29737 5.31952 8.15332 5.41747C8.18819 5.37754 8.20761 5.32644 8.20806 5.27343V4.69725C8.20813 4.66246 8.1988 4.6283 8.18105 4.59838C8.1633 4.56846 8.13779 4.54389 8.10723 4.52727L5.67574 3.12715C5.64818 3.11447 5.6182 3.10791 5.58787 3.10791C5.55753 3.10791 5.52756 3.11447 5.5 3.12715C5.54343 3.09046 5.59408 3.0633 5.64867 3.04742C5.70325 3.03154 5.76057 3.02729 5.8169 3.03496L8.30025 4.47542C8.33775 4.50762 8.36147 4.553 8.36651 4.60218Z" stroke="#29577E" stroke-width="0.3" stroke-linejoin="round"/>
<path d="M11.7084 6.42908L8.3089 4.4643C8.34601 4.50305 8.36667 4.55468 8.36652 4.60834V5.18453C8.36652 5.28248 8.30026 5.32857 8.15333 5.42364C8.18866 5.38399 8.20814 5.33271 8.20807 5.2796V4.70341C8.20834 4.66854 8.19943 4.63421 8.18224 4.60387C8.16504 4.57353 8.14017 4.54825 8.11012 4.53056L5.67574 3.12755C5.64824 3.11469 5.61824 3.10802 5.58788 3.10802C5.55751 3.10802 5.52751 3.11469 5.50001 3.12755C5.60372 3.06417 5.73048 3.00079 5.81691 3.03825L3.34508 1.59779C3.15098 1.48406 2.9343 1.41428 2.71031 1.39338C2.48632 1.37247 2.26047 1.40094 2.04867 1.47679L1.9536 1.51136C1.66988 1.63004 1.42778 1.8303 1.25801 2.08675C1.08824 2.34319 0.998452 2.64427 1.00002 2.95182V22.3202C0.999861 22.5964 1.07281 22.8676 1.21146 23.1065C1.3501 23.3453 1.5495 23.5432 1.78939 23.68L10.144 28.4393C10.4121 28.592 10.7194 28.6618 11.0271 28.6397C11.3348 28.6177 11.6291 28.5048 11.8726 28.3154H11.887C11.949 28.2654 12.0077 28.2115 12.0627 28.154C12.3403 27.8631 12.4942 27.4758 12.492 27.0737V7.77159C12.4894 7.49899 12.4158 7.23177 12.2784 6.99633C12.1409 6.7609 11.9445 6.56537 11.7084 6.42908ZM10.4177 24.7229L8.28585 23.4582V20.1048L8.49904 20.2315L10.4177 21.3666V24.7229Z" stroke="#29577E" stroke-width="0.3" stroke-linejoin="round"/>
<path d="M8.20865 4.70037V5.27655C8.2082 5.32957 8.18878 5.38067 8.15391 5.4206L8.10205 5.45229C8.07297 5.46843 8.04025 5.4769 8.00698 5.4769C7.97372 5.4769 7.941 5.46843 7.91191 5.45229L5.46602 4.02335C5.43489 4.0064 5.40886 3.98144 5.39063 3.95105C5.37239 3.92066 5.36261 3.88594 5.3623 3.8505V3.30025C5.36416 3.26592 5.37463 3.23262 5.39276 3.20342C5.41089 3.17421 5.43608 3.15005 5.46602 3.13315L5.50347 3.11299C5.53103 3.10031 5.561 3.09375 5.59134 3.09375C5.62167 3.09375 5.65165 3.10031 5.6792 3.11299L8.1107 4.51887C8.14251 4.53677 8.16861 4.56332 8.18594 4.59544C8.20328 4.62757 8.21115 4.66395 8.20865 4.70037Z" stroke="#29577E" stroke-width="0.3" stroke-linejoin="round"/>
<path d="M1.97949 10.8033L3.41995 11.5466L4.81143 9.16406L5.88313 16.2396L7.22852 13.7447L9.20482 14.8884L11.0169 12.7018" stroke="#29577E" stroke-width="0.3" stroke-linejoin="round"/>
<path d="M1.97949 17.2539L6.66098 19.8698" stroke="#29577E" stroke-width="0.3" stroke-linejoin="round"/>
<path d="M1.97949 18.1113L6.66098 20.7272" stroke="#29577E" stroke-width="0.3" stroke-linejoin="round"/>
<path d="M1.97949 19.0098L6.66098 21.6228" stroke="#29577E" stroke-width="0.3" stroke-linejoin="round"/>
<path d="M1.9502 19.8711L6.63168 22.4841" stroke="#29577E" stroke-width="0.3" stroke-linejoin="round"/>
<path d="M10.418 21.3654V24.7216L8.28613 23.4569V20.1035L8.49932 20.2303L10.418 21.3654Z" fill="#65BEBF" stroke="#29577F" stroke-width="0.3" stroke-linecap="round" stroke-linejoin="round"/>
<path d="M16.9217 26.2067V31.5249C16.9214 31.5582 16.9127 31.5908 16.8967 31.62C16.8806 31.6492 16.8575 31.6739 16.8295 31.6919L16.4521 31.8821C16.463 31.876 16.4727 31.8683 16.481 31.859C16.5147 31.8232 16.5333 31.7757 16.5328 31.7265L16.5098 26.1289C16.5626 26.1818 16.6302 26.2176 16.7037 26.2314C16.7772 26.2453 16.8532 26.2367 16.9217 26.2067Z" fill="#29577E" stroke="#29577E" stroke-width="0.3" stroke-linecap="round" stroke-linejoin="round"/>
<path d="M16.3438 31.8453L16.3507 31.8418" stroke="#29577E" stroke-width="0.3" stroke-linejoin="round"/>
<path d="M12.1604 28.0977L11.9011 28.3022L11.8838 28.3137" stroke="#29577E" stroke-width="0.3" stroke-linejoin="round"/>
<path d="M17.4438 25.334C18.7853 24.9736 19.4918 23.2638 19.022 21.5152C18.5521 19.7666 17.0838 18.6412 15.7424 19.0017C14.4009 19.3621 13.6944 21.0718 14.1642 22.8205C14.6341 24.5691 16.1024 25.6945 17.4438 25.334Z" stroke="#29577E" stroke-width="0.3" stroke-linejoin="round"/>
<path d="M17.871 26.0374C17.7989 26.0634 17.724 26.0893 17.652 26.1095C17.257 26.2128 16.8428 26.2187 16.4449 26.1268C16.235 26.0813 16.031 26.0117 15.837 25.9193C15.7009 25.8539 15.5691 25.7798 15.4424 25.6975C14.5052 25.0513 13.8378 24.0836 13.5669 22.9779C12.9907 20.7971 13.855 18.6565 15.5345 18.2186C15.6095 18.1991 15.6855 18.1838 15.7621 18.1725C17.3697 17.8845 19.0608 19.2731 19.6168 21.3416C20.1728 23.41 19.4007 25.4728 17.871 26.0374Z" stroke="#29577E" stroke-width="0.3" stroke-linejoin="round"/>
<path d="M15.7119 25.8594V31.2611C15.7184 31.3823 15.757 31.4995 15.8239 31.6008C15.8907 31.7021 15.9833 31.7837 16.0922 31.8373C16.13 31.8585 16.1727 31.8694 16.2161 31.869C16.2612 31.8687 16.3056 31.8578 16.3457 31.8373" stroke="#29577E" stroke-width="0.3" stroke-linejoin="round"/>
<path d="M13.0283 7.33257V26.8565C13.0431 27.0018 13.0249 27.1485 12.975 27.2857C12.9251 27.4229 12.8448 27.547 12.7402 27.6488L12.1842 28.1241C12.1554 28.1241 11.9278 28.2883 11.8961 28.3027C12.1496 28.0146 12.4723 27.6661 12.4723 27.2426V7.71573C12.4727 7.43898 12.4009 7.16691 12.264 6.92641C12.1271 6.68591 11.9297 6.4853 11.6915 6.34442L8.30647 4.35947L8.27189 4.33354L5.83752 2.90749H5.81736L3.34553 1.46703C2.92204 1.20775 2.40059 1.34603 2.00879 1.49296C2.4755 1.30282 2.80392 1.02337 3.16115 1.00032C3.53113 0.993537 3.89522 1.09356 4.20981 1.28842L12.2447 5.96414C12.4834 6.10397 12.6813 6.30387 12.8188 6.54395C12.9563 6.78403 13.0285 7.05592 13.0283 7.33257Z" fill="#29577E" fill-opacity="0.9" stroke="#29577E" stroke-width="0.3" stroke-linecap="round" stroke-linejoin="round"/>
<path d="M18.0985 26.0028C18.0236 26.0233 17.9476 26.0396 17.8709 26.0518C19.4007 25.4756 20.1756 23.3553 19.6167 21.2003C19.0578 19.0454 16.9893 17.9881 15.3789 18.2676C15.448 18.2388 15.7592 18.161 15.8341 18.1408C17.505 17.677 19.4813 18.8236 20.0662 21.0765C20.651 23.3293 19.7723 25.539 18.0985 26.0028Z" fill="#29577E" stroke="#29577E" stroke-width="0.3" stroke-linecap="round" stroke-linejoin="round"/>
</svg>
