<svg width="312" height="269" viewBox="0 0 312 269" fill="none" xmlns="http://www.w3.org/2000/svg">
<g clip-path="url(#clip0_8796_40461)">
<path d="M156 269.001C242.156 269.001 312 257.854 312 244.105C312 230.355 242.156 219.209 156 219.209C69.8436 219.209 0 230.355 0 244.105C0 257.854 69.8436 269.001 156 269.001Z" fill="#476577"/>
<path d="M143.649 215.18C143.649 215.18 88.8352 130.81 56.7182 158.208C29.737 181.202 124.635 227.165 124.635 227.165L143.649 215.18Z" fill="#65BEBF"/>
<path d="M74.0041 171.244C67.0146 165.815 61.0521 161.236 56.7933 158.133L57.62 157.633C65.1356 163.238 77.787 172.846 91.9916 184.305L95.9248 162.387L96.7014 162.962L92.693 184.881C105.62 195.314 119.724 207.224 132.301 219.009L135.182 203.096L135.908 204.072L133.027 219.71L134.355 220.986L133.603 221.486C126.964 215.181 119.85 208.851 112.735 202.67L93.7953 209.977L92.8684 209.401L111.958 201.895C98.9561 190.71 85.7536 180.177 74.931 171.87L55.1148 177.224L54.6638 176.424L74.0041 171.244Z" fill="#3E7979"/>
<path d="M136.284 218.459C136.284 218.459 65.1357 147.449 98.5303 121.728C126.639 100.085 152.017 202.37 152.017 202.37L136.284 218.459Z" fill="#3E7979"/>
<path d="M107.724 141.319C103.866 133.362 100.685 126.606 98.455 121.777L97.7035 122.353C101.637 130.835 108.426 145.222 116.718 161.461L94.4216 160.76C94.4216 161.06 94.6722 161.36 94.8225 161.661L117.169 162.361C124.685 177.149 133.478 193.387 142.397 208.125L126.288 207.674L127.09 208.575L142.998 209.05L143.975 210.627L144.601 209.976C139.841 202.195 135.081 193.938 130.522 185.656L141.62 168.667C141.495 168.316 141.369 167.966 141.219 167.616L130.046 184.78C121.804 169.767 114.213 154.755 108.2 142.244L117.52 123.929L116.843 123.329L107.724 141.319Z" fill="#499094"/>
<path d="M130.597 207.849C130.597 207.849 41.0857 161.936 26.856 201.644C14.8811 234.997 120.1 227.691 120.1 227.691L130.597 207.849Z" fill="#87BBBB"/>
<path d="M48.3258 204.37C39.5575 203.144 32.1421 202.193 26.8811 201.568C26.9745 201.279 27.0832 200.995 27.2068 200.717C36.5011 201.843 52.259 203.895 70.2966 206.772L62.7809 185.805H63.7329L71.2485 206.822C87.6577 209.474 105.821 212.802 122.606 216.831L117.244 201.643L118.347 202.118L123.683 217.131L125.487 217.556L125.061 218.357C116.167 216.205 106.848 214.228 97.5032 212.452L84.7517 228.19H83.6494L96.5763 212.302C79.7162 209.099 63.0314 206.497 49.4281 204.57L34.8477 219.032L34.046 218.582L48.3258 204.37Z" fill="#3E7979"/>
<path d="M264.777 95.3802V155.831H230.756V74.1875H243.532C247.19 74.1854 250.785 75.1264 253.972 76.9192C257.158 78.712 259.827 81.296 261.72 84.4211C263.719 87.7281 264.776 91.5174 264.777 95.3802Z" fill="#64A8DB"/>
<path d="M264.777 95.3791V129.157L246.088 126.13C250.358 124.328 254.024 121.345 256.656 117.533C259.288 113.722 260.775 109.239 260.944 104.612L261.72 84.4199C263.719 87.727 264.776 91.5163 264.777 95.3791Z" fill="#2F7DC0"/>
<path d="M185.386 155.48H264.877V168.366H185.386C184.732 168.383 184.081 168.268 183.472 168.029C182.864 167.79 182.309 167.431 181.842 166.973C181.374 166.516 181.004 165.969 180.752 165.366C180.5 164.763 180.372 164.115 180.376 163.462V160.334C180.379 159.685 180.512 159.043 180.767 158.445C181.021 157.848 181.393 157.308 181.86 156.855C182.326 156.403 182.879 156.049 183.484 155.813C184.09 155.577 184.736 155.463 185.386 155.48Z" fill="#64A8DB"/>
<path d="M252.301 240.201L257.587 239.801L250.923 170.418C250.712 169.097 249.996 167.91 248.926 167.107C247.855 166.304 246.514 165.948 245.186 166.114V166.514H184.66C184.189 166.487 183.727 166.644 183.371 166.953C183.015 167.261 182.794 167.697 182.756 168.166L176.017 238.575C175.989 238.834 176.014 239.096 176.091 239.345C176.168 239.594 176.294 239.825 176.463 240.023C176.632 240.222 176.839 240.385 177.072 240.501C177.305 240.618 177.56 240.686 177.82 240.701L181.102 240.952L187.891 171.118H240.802C242.064 171.037 243.31 171.435 244.291 172.233C245.271 173.031 245.913 174.171 246.088 175.422L252.301 240.201Z" fill="#2F7DC0"/>
<path d="M284.668 240.201L289.954 239.801L283.29 170.418C283.08 169.097 282.363 167.91 281.293 167.107C280.223 166.304 278.882 165.948 277.553 166.114V166.514H217.027C216.558 166.493 216.099 166.653 215.745 166.96C215.39 167.267 215.168 167.699 215.123 168.166L208.384 238.575C208.36 238.833 208.388 239.094 208.466 239.341C208.544 239.589 208.671 239.818 208.839 240.016C209.007 240.214 209.213 240.377 209.444 240.495C209.676 240.612 209.929 240.683 210.188 240.701L213.495 240.952L220.184 171.118H273.069C274.331 171.037 275.578 171.435 276.558 172.233C277.539 173.031 278.18 174.171 278.355 175.422L284.668 240.201Z" fill="#2F7DC0"/>
<path d="M199.641 221.736H188.743V233.947H199.641V221.736Z" fill="#F6B696"/>
<path d="M199.641 233.946H188.743V229.192C190.655 228.958 192.579 228.849 194.505 228.867C196.18 228.883 197.853 228.991 199.516 229.192L199.641 233.946Z" fill="#392B13"/>
<path d="M188.743 230.793V232.294C188.736 232.784 188.585 233.26 188.309 233.665C188.033 234.07 187.644 234.385 187.19 234.571L181.178 237.073C180.677 237.271 180.248 237.616 179.948 238.063C179.648 238.51 179.492 239.037 179.499 239.575H201.094V238.124C201.136 237.105 200.902 236.094 200.418 235.196C199.938 234.34 199.688 233.375 199.691 232.394V230.968H197.762C197.578 230.959 197.395 230.988 197.222 231.052C197.05 231.117 196.893 231.216 196.76 231.343L195.633 232.369C195.483 232.505 195.306 232.609 195.115 232.675C194.923 232.74 194.719 232.765 194.517 232.749C194.315 232.733 194.119 232.675 193.94 232.579C193.761 232.484 193.604 232.353 193.478 232.194L192.752 231.293C192.612 231.13 192.439 230.999 192.245 230.908C192.05 230.818 191.839 230.77 191.624 230.768L188.743 230.793Z" fill="#575D64"/>
<path d="M179.474 239.475H200.919C201.052 239.475 201.179 239.527 201.273 239.621C201.367 239.715 201.42 239.842 201.42 239.975V240.425C201.42 240.558 201.367 240.685 201.273 240.779C201.179 240.873 201.052 240.926 200.919 240.926H179.474C179.328 240.926 179.188 240.868 179.084 240.765C178.981 240.661 178.923 240.521 178.923 240.375V240.025C178.923 239.879 178.981 239.739 179.084 239.636C179.188 239.533 179.328 239.475 179.474 239.475Z" fill="#392B13"/>
<path d="M222.639 159.884L230.906 136.039L191.85 144.046C189.392 144.598 187.201 145.98 185.644 147.958C184.088 149.936 183.263 152.39 183.307 154.905C183.255 156.512 183.566 158.11 184.217 159.58C184.868 161.05 185.842 162.355 187.067 163.398C188.292 164.442 189.736 165.196 191.292 165.605C192.849 166.015 194.478 166.069 196.058 165.764L222.639 159.884Z" fill="#29577E"/>
<path d="M205.177 155.129C205.176 155.902 205.1 156.673 204.952 157.431L202.221 215.18L201.795 224.212C201.79 224.379 201.731 224.539 201.628 224.67C201.524 224.801 201.381 224.895 201.219 224.938C199.007 225.59 196.712 225.918 194.405 225.913C192.288 225.915 190.181 225.629 188.142 225.063H187.716C187.559 225.021 187.418 224.931 187.315 224.805C187.211 224.68 187.15 224.525 187.14 224.362C185.837 200.626 184.518 176.889 183.182 153.153C183.701 150.455 185.206 148.045 187.403 146.392C189.601 144.739 192.335 143.961 195.075 144.207C197.814 144.453 200.365 145.707 202.232 147.725C204.099 149.743 205.148 152.382 205.177 155.129Z" fill="#29577E"/>
<path d="M212.342 162.161L215.875 161.385L216.15 155.855L212.342 162.161Z" fill="#29577E"/>
<path d="M202.221 215.18L201.795 224.212C201.79 224.379 201.731 224.54 201.628 224.67C201.524 224.801 201.38 224.895 201.219 224.938C199.007 225.59 196.712 225.919 194.405 225.914C192.288 225.916 190.181 225.629 188.142 225.063L191.549 224.688C194.101 224.419 196.504 223.356 198.418 221.65C200.333 219.945 201.663 217.681 202.221 215.18Z" fill="#29577E"/>
<path d="M232.359 221.736H221.461V233.947H232.359V221.736Z" fill="#F6B696"/>
<path d="M232.359 233.946H221.461V229.192C225.081 228.756 228.74 228.756 232.359 229.192V233.946Z" fill="#392B13"/>
<path d="M221.461 230.793V232.294C221.456 232.781 221.309 233.256 221.037 233.66C220.766 234.065 220.382 234.381 219.933 234.571L213.896 237.073C213.395 237.271 212.966 237.616 212.666 238.063C212.366 238.51 212.21 239.037 212.217 239.575H233.812V238.124C233.808 237.091 233.522 236.079 232.985 235.197C232.506 234.34 232.256 233.375 232.259 232.394V230.968H230.48C230.292 230.959 230.105 230.987 229.928 231.052C229.752 231.116 229.59 231.215 229.453 231.343L228.326 232.369C228.178 232.505 228.004 232.609 227.814 232.674C227.624 232.739 227.423 232.764 227.222 232.748C227.022 232.731 226.828 232.674 226.651 232.578C226.475 232.483 226.32 232.352 226.196 232.194L225.47 231.318C225.326 231.154 225.149 231.021 224.951 230.931C224.752 230.84 224.536 230.793 224.317 230.793H221.461Z" fill="#575D64"/>
<path d="M212.217 239.475H233.662C233.728 239.475 233.793 239.488 233.854 239.513C233.914 239.538 233.97 239.575 234.016 239.621C234.063 239.668 234.1 239.723 234.125 239.784C234.15 239.844 234.163 239.909 234.163 239.975V240.425C234.163 240.491 234.15 240.556 234.125 240.617C234.1 240.678 234.063 240.733 234.016 240.779C233.97 240.826 233.914 240.863 233.854 240.888C233.793 240.913 233.728 240.926 233.662 240.926H212.217C212.071 240.926 211.931 240.868 211.827 240.765C211.724 240.661 211.666 240.521 211.666 240.375V240.025C211.666 239.879 211.724 239.739 211.827 239.636C211.931 239.533 212.071 239.475 212.217 239.475Z" fill="#392B13"/>
<path d="M241.152 159.759C244.025 159.134 246.602 157.558 248.466 155.288C250.33 153.017 251.373 150.184 251.424 147.248V147.098C251.457 143.206 250.69 139.348 249.169 135.764L223.29 141.068C220.833 141.62 218.641 143.002 217.085 144.98C215.529 146.958 214.703 149.412 214.747 151.927C214.695 153.534 215.007 155.132 215.657 156.602C216.308 158.073 217.282 159.378 218.507 160.421C219.732 161.464 221.176 162.218 222.733 162.628C224.289 163.037 225.918 163.091 227.499 162.786L241.152 159.759Z" fill="#29577E"/>
<path d="M237.495 151.902C237.497 152.676 237.413 153.448 237.244 154.204L234.463 210.976L233.812 224.037C233.808 224.226 233.742 224.409 233.624 224.558C233.507 224.707 233.344 224.814 233.161 224.863C231.043 225.468 228.85 225.771 226.647 225.763C224.529 225.743 222.422 225.44 220.384 224.863L220.083 224.712C219.978 224.631 219.89 224.53 219.826 224.413C219.761 224.297 219.721 224.169 219.708 224.037L215.449 149.8C215.971 147.092 217.486 144.676 219.696 143.023C221.907 141.37 224.655 140.6 227.403 140.863C230.152 141.126 232.704 142.402 234.561 144.443C236.418 146.485 237.446 149.144 237.445 151.902H237.495Z" fill="#29577E"/>
<path d="M216.15 161.459C216.13 161.464 216.108 161.463 216.088 161.458C216.067 161.452 216.049 161.441 216.034 161.426C216.018 161.411 216.008 161.392 216.002 161.372C215.996 161.351 215.995 161.33 216 161.309V155.855C215.995 155.834 215.996 155.812 216.002 155.792C216.008 155.771 216.018 155.753 216.034 155.738C216.049 155.723 216.067 155.712 216.088 155.706C216.108 155.7 216.13 155.7 216.15 155.704C216.15 155.704 216.15 155.704 216.15 155.855V161.309C216.15 161.309 216.226 161.459 216.15 161.459Z" fill="#29577E"/>
<path d="M230.756 155.83L227.674 169.642C227.593 169.937 227.581 170.247 227.64 170.547C227.699 170.848 227.827 171.131 228.014 171.373C228.201 171.616 228.442 171.812 228.718 171.945C228.994 172.079 229.297 172.147 229.603 172.144H236.392V166.739L230.756 155.83Z" fill="#29577E"/>
<path d="M234.463 210.977L233.812 224.037C233.808 224.227 233.742 224.41 233.624 224.559C233.507 224.708 233.344 224.814 233.161 224.863C231.043 225.468 228.85 225.772 226.647 225.764C224.529 225.743 222.422 225.441 220.384 224.863L220.083 224.713C223.612 224.352 226.925 222.844 229.514 220.422C232.102 217.999 233.823 214.795 234.413 211.302L234.463 210.977Z" fill="#29577E"/>
<path d="M253.027 151.025V151.176C253.015 155.55 252.165 159.881 250.522 163.936L250.021 165.137L248.017 169.841C247.978 169.936 247.916 170.019 247.838 170.085C247.759 170.15 247.666 170.195 247.566 170.216C244.534 170.861 241.445 171.196 238.346 171.217C235.385 171.226 232.43 170.933 229.528 170.342C229.431 170.378 229.324 170.378 229.227 170.342C229.148 170.269 229.087 170.18 229.048 170.08C229.009 169.98 228.993 169.873 229.002 169.766L230.881 155.955L253.027 151.025Z" fill="#F2F2F2"/>
<path d="M247.758 157.471L234.992 156.943L234.946 158.068L247.711 158.596L247.758 157.471Z" fill="#E1E1E1"/>
<path d="M250.522 163.938L250.021 165.139L248.017 169.842C247.978 169.937 247.917 170.021 247.838 170.086C247.759 170.152 247.666 170.197 247.566 170.218C244.534 170.862 241.446 171.197 238.347 171.219C235.385 171.228 232.43 170.934 229.528 170.343C229.431 170.379 229.324 170.379 229.228 170.343L240.276 169.817C242.327 169.733 244.33 169.168 246.123 168.169C247.916 167.169 249.448 165.763 250.597 164.063L250.522 163.938Z" fill="#E8E7E7"/>
<path d="M120.576 124.479H255.157V132.285H120.576C119.81 132.253 119.086 131.924 118.558 131.368C118.029 130.813 117.738 130.074 117.745 129.308V127.406C117.751 126.648 118.048 125.922 118.575 125.377C119.102 124.832 119.818 124.511 120.576 124.479Z" fill="#414042"/>
<path d="M305.937 124.479H255.156V132.26H305.912C306.306 132.263 306.696 132.189 307.061 132.041C307.425 131.892 307.757 131.674 308.036 131.397C308.316 131.12 308.538 130.791 308.689 130.428C308.841 130.065 308.919 129.676 308.918 129.283V127.606C308.935 127.204 308.871 126.802 308.729 126.424C308.587 126.047 308.37 125.703 308.092 125.411C307.814 125.119 307.48 124.886 307.11 124.726C306.739 124.566 306.341 124.482 305.937 124.479Z" fill="#CED1D8"/>
<path d="M132.927 132.26H125.136V240.951H132.927V132.26Z" fill="#565A61"/>
<path d="M125.136 132.285L132.927 134.537V132.285H125.136Z" fill="#565A61"/>
<path d="M302.28 132.26L302.129 137.164L299.374 240.951H259.065V132.26H302.28Z" fill="#CED1D8"/>
<path d="M259.065 132.285V134.537L302.28 136.038V132.285H259.065Z" fill="#565A61"/>
<path d="M302.129 137.164L299.374 240.951H259.065C268.968 238.79 277.926 233.537 284.641 225.953C291.357 218.369 295.481 208.847 296.418 198.766L302.129 137.164Z" fill="#989BA0"/>
<path d="M173.261 240.951H132.927V132.26H172.71L172.835 155.829V155.855L173.261 240.951Z" fill="#CED1D8"/>
<path d="M135.507 132.26H132.927V134.512H135.507V132.26Z" fill="#565A61"/>
<path d="M173.236 240.952H132.927C143.267 239.358 152.729 234.223 159.695 226.426C166.66 218.629 170.694 208.657 171.107 198.216L172.86 155.855L173.236 240.952Z" fill="#989BA0"/>
<path d="M259.065 132.26H135.507V155.829H259.065V132.26Z" fill="#989BA0"/>
<path d="M251.023 142.145C250.312 145.383 248.616 148.324 246.167 150.563C243.719 152.803 240.637 154.232 237.344 154.655L229.102 155.731H251.449L251.023 142.145Z" fill="#989BA0"/>
<path d="M251.273 132.26H135.507V134.512H251.273V132.26Z" fill="#989BA0"/>
<path d="M259.065 132.26H251.273V240.951H259.065V132.26Z" fill="#565A61"/>
<path d="M259.065 132.26H251.273V134.512H259.065V132.26Z" fill="#565A61"/>
<path d="M41.4112 65.0538C41.4112 65.0538 37.4028 58.8236 26.3799 63.7277C26.3799 63.7277 23.5991 62.902 22.2463 73.736C20.8935 84.5701 23.2484 83.219 23.2484 83.219L30.4634 85.9212L37.0521 83.4191C37.4279 83.4191 44.0166 80.5167 44.0166 80.5167L46.3715 78.3899C46.3715 78.3899 53.3611 75.8878 51.6575 69.8328C49.954 63.7777 41.4112 65.0538 41.4112 65.0538Z" fill="#BC584F"/>
<path d="M32.1671 80.5916C31.611 81.6693 30.9657 82.6987 30.2381 83.6692C29.9052 83.6945 29.571 83.6432 29.2611 83.5191C28.284 79.816 25.7287 80.6917 24.902 80.6166C24.0753 80.5416 22.5471 82.5683 23.95 86.1212C25.3529 89.6742 30.664 86.8719 30.664 86.8719C32.7467 89.3 35.5145 91.0441 38.6056 91.8761C39.3653 92.0575 40.1548 92.0777 40.9229 91.9355C41.691 91.7933 42.4207 91.4917 43.0648 91.0504C50.2548 85.9211 44.3676 70.5332 44.3676 70.5332C42.9145 79.2655 32.1671 80.5916 32.1671 80.5916Z" fill="#F5D0B7"/>
<path d="M21.3945 57.097C20.3364 57.2601 19.3296 57.6621 18.4505 58.2724C17.5715 58.8827 16.8434 59.6852 16.3216 60.6189C15.7998 61.5526 15.4982 62.5928 15.4395 63.6604C15.3809 64.7281 15.5668 65.795 15.9832 66.7801C16.2009 67.4199 16.5461 68.009 16.9979 68.512C17.4497 69.015 17.9989 69.4213 18.6122 69.7066C19.2256 69.9918 19.8904 70.1501 20.5666 70.1717C21.2429 70.1934 21.9165 70.078 22.5469 69.8326L26.3548 63.7275C26.3548 63.7275 28.4342 55.6708 21.3945 57.097Z" fill="#963536"/>
<path d="M44.6931 67.4062L44.3674 70.6089L46.547 78.1152C54.7641 72.9109 44.6931 67.4062 44.6931 67.4062Z" fill="#963536"/>
<path d="M30.8642 76.6901C24.1001 76.1146 24.2755 67.082 24.2755 67.082C22.7974 67.5324 21.8955 74.213 21.5698 78.9169C21.2441 83.6209 23.1982 83.0954 23.1982 83.0954C23.3005 82.5927 23.5322 82.1252 23.8704 81.7391C24.2087 81.353 24.6419 81.0616 25.1272 80.8936C27.8078 79.8427 29.2608 83.5208 29.2608 83.5208C29.5575 83.6876 29.9047 83.7409 30.2379 83.6709C30.7139 83.5208 32.1669 80.5933 32.1669 80.5933C32.1669 80.5933 32.5427 81.0437 35.2734 80.0679C38.0041 79.0921 42.789 71.811 42.789 71.811C41.2313 73.3824 39.3726 74.6243 37.3238 75.4626C35.275 76.3008 33.0781 76.7183 30.8642 76.6901Z" fill="#963536"/>
<path d="M26.4803 63.0527C24.788 65.1296 23.3732 67.4173 22.2715 69.8584C22.5972 70.0336 23.0732 69.1078 23.0732 69.1078L26.3299 63.7283C27.2318 63.3029 26.4803 63.0527 26.4803 63.0527Z" fill="#F79835"/>
<path d="M29.2109 95.429C28.2589 98.4065 31.0397 101.334 34.9228 101.434C38.2798 101.434 40.8351 105.362 40.9353 102.71L41.5867 86.5966L30.2631 85.0703L29.2109 95.429Z" fill="#F5D0B7"/>
<path d="M38.8058 94.9302L38.906 92.0028L32.4927 89.1504L38.8058 94.9302Z" fill="#F5907E"/>
<path d="M56.117 128.633C55.8111 128.801 55.4734 128.903 55.1256 128.933C54.7778 128.963 54.4275 128.92 54.0973 128.807C53.7671 128.694 53.4641 128.513 53.208 128.277C52.9518 128.04 52.748 127.752 52.6096 127.432C42.9896 105.639 40.9854 102.861 40.9854 102.861L35.2986 124.855C35.2986 124.855 43.6911 137.54 50.3299 140.493C56.9687 143.445 79.2902 128.783 79.2902 128.783L75.1566 118.925L56.117 128.633Z" fill="#8497C0"/>
<path d="M117.044 239.049C115.741 238.198 112.259 237.272 108.952 235.796C106.057 234.632 103.481 232.797 101.436 230.442C98.6054 225.863 98.7557 217.381 98.7557 217.381L88.4592 218.382C88.4592 218.382 92.192 229.166 90.764 233.72V234.045C89.4363 238.448 89.4112 241.851 91.6409 241.851H117.194C117.194 241.851 119.374 240.575 117.044 239.049Z" fill="#EFAD9D"/>
<path d="M117.044 239.049C115.741 238.198 112.259 237.273 108.952 235.796C106.146 237.022 99.8078 238.574 90.6137 234.045C89.2859 238.449 89.2609 241.851 91.4905 241.851H117.044C117.044 241.851 119.374 240.575 117.044 239.049Z" fill="#3F2536"/>
<path d="M41.9875 147.373L38.7307 159.608L68.3675 168.741L75.4071 188.758L76.1086 191.26L86.1295 224.713L96.7516 223.287L106.096 222.01C106.096 222.01 98.5804 176.698 94.3466 170.117C90.1128 163.537 41.9875 147.373 41.9875 147.373Z" fill="#05799D"/>
<path d="M94.9479 195.164C98.38 185.156 90.6389 173.621 90.6389 173.621C90.6389 173.621 80.618 185.306 76.1086 191.136L86.1295 224.589L96.7516 223.163C96.2837 220.861 96.5194 218.473 97.4281 216.307C100.585 206.774 91.5157 205.172 94.9479 195.164Z" fill="#026381"/>
<path d="M75.1566 232.319C73.0679 229.99 71.5726 227.192 70.7975 224.163C70.3215 218.833 74.2798 211.277 74.2798 211.277L64.5846 207.674C64.5846 207.674 63.0313 218.958 59.5741 222.411L59.3487 222.661C56.167 226.014 54.6138 229.042 56.618 230.018L79.4906 241.277C79.4906 241.277 81.9959 241.152 80.7432 238.775C80.167 237.449 77.4113 235.197 75.1566 232.319Z" fill="#EFAD9D"/>
<path d="M75.1565 232.32C72.0751 232.17 65.7119 230.769 59.524 222.662C56.3423 226.015 54.7891 229.042 56.7933 230.018L79.6659 241.278C79.6659 241.278 82.1711 241.153 80.9185 238.776C80.167 237.449 77.4112 235.198 75.1565 232.32Z" fill="#3F2536"/>
<path d="M63.3821 157.307C52.7099 153.003 43.0147 149.8 43.0147 149.8C43.0147 149.8 17.9625 142.294 16.1087 153.328C15.8798 154.65 15.7875 155.991 15.8331 157.332C16.0836 167.015 22.9229 176.072 30.8644 176.773C37.5784 177.373 55.4406 178.274 64.4343 178.699L69.8206 178.975L58.7475 213.303L73.7788 219.133L79.7162 221.435C79.7162 221.435 97.0523 181.577 89.8623 172.119C86.1546 167.34 74.2548 161.71 63.3821 157.307Z" fill="#05799D"/>
<path d="M43.0147 149.874C43.0147 149.874 17.9625 142.368 16.1087 153.402C15.8798 154.724 15.7875 156.065 15.8331 157.406C20.3926 158.982 25.854 157.531 29.0105 157.806C33.3446 158.206 40.9604 157.231 42.8143 154.879C44.6682 152.527 64.7851 159.057 64.7851 159.057L63.3821 157.306C52.6097 153.002 43.0147 149.874 43.0147 149.874Z" fill="#05799D"/>
<path d="M30.2881 93.8281L35.7996 106.339L41.3361 105.163C41.3361 105.163 40.8852 103.636 40.3591 101.935C36.8388 99.4415 33.4754 96.7341 30.2881 93.8281Z" fill="white"/>
<path d="M48.2757 119.751C45.7705 114.747 41.211 104.738 41.211 104.738C38.2926 103.204 35.8822 100.857 34.2715 97.9828C32.9614 95.3613 30.8336 93.2362 28.2089 91.9277C24.2477 94.4296 21.0908 98.0168 19.1149 102.261C15.6327 109.467 15.2569 120.251 16.9354 129.259C18.6139 138.266 13.4531 154.78 13.4531 154.78C18.806 156.559 24.5496 156.81 30.0377 155.506C35.4901 154.225 40.6116 151.813 45.069 148.425C44.0797 146.637 43.49 144.657 43.3404 142.62V141.669C43.3587 138.855 43.8499 136.064 44.7934 133.412C46.6723 127.608 49.7036 122.603 48.2757 119.751Z" fill="#B4BCE1"/>
<path d="M41.0354 127.732C38.9811 126.131 37.503 120.701 37.503 120.701L31.0396 122.328L33.5448 138.716L43.2901 141.694C43.3084 138.88 43.7996 136.089 44.7431 133.437C43.8141 131.353 42.5629 129.428 41.0354 127.732Z" fill="#8497C0"/>
<path d="M36.2005 137.616L21.3946 117.148C21.3946 117.148 20.2673 129.509 21.9458 133.812C23.6243 138.116 18.8143 144.421 25.0523 148.625C27.3518 150.388 29.0918 152.777 30.0627 155.506C35.5151 154.225 40.6366 151.812 45.094 148.425C44.096 146.639 43.4977 144.659 43.3403 142.62L36.2005 137.616Z" fill="#8497C0"/>
<path d="M63.5824 180.9H55.6909L56.6179 184.203L72.8266 241.601H73.8538L64.1335 184.203L63.5824 180.9Z" fill="#355B88"/>
<path d="M20.9938 180.926L10.8477 241.602H11.8748L28.2088 183.703L29.0105 180.901L21.8205 176.047L20.9938 180.926Z" fill="#355B88"/>
<path d="M55.6909 180.9L56.6179 184.203H64.1335L63.5824 180.9H55.6909Z" fill="#22436F"/>
<path d="M20.9937 180.926C21.6701 181.326 22.3214 181.652 22.9477 181.952C24.6287 182.734 26.3939 183.322 28.2087 183.703L29.0104 180.901L21.8204 176.047L20.9937 180.926Z" fill="#22436F"/>
<path d="M64.6095 177.024H32.5677C28.5517 176.741 24.7186 175.237 21.5836 172.714C18.4486 170.192 16.162 166.771 15.0312 162.912C13.3237 156.872 12.7045 150.577 13.2024 144.321C13.3778 134.963 13.5531 125.305 5.68673 118.324C5.39057 118.053 5.03338 117.857 4.64532 117.752C4.25725 117.648 3.84971 117.638 3.45709 117.724C2.92276 117.834 2.43897 118.115 2.07922 118.525C1.85011 118.767 1.67197 119.054 1.55527 119.366C1.43856 119.679 1.38566 120.012 1.39966 120.345C1.41367 120.679 1.4943 121.006 1.63682 121.308C1.77934 121.609 1.98086 121.88 2.22953 122.103C8.44247 127.607 8.29216 135.264 8.14185 144.221C7.59455 151.073 8.30776 157.968 10.2462 164.563C11.2953 167.887 13.0206 170.958 15.3141 173.585C17.6075 176.211 20.4196 178.336 23.574 179.826C26.386 181.159 29.4339 181.924 32.5427 182.078H64.6095C65.2739 182.078 65.9111 181.814 66.3809 181.345C66.8508 180.876 67.1147 180.239 67.1147 179.576C67.1214 179.243 67.0615 178.912 66.9386 178.603C66.8157 178.293 66.6322 178.012 66.3989 177.774C66.1656 177.536 65.8872 177.348 65.5799 177.219C65.2726 177.09 64.9427 177.023 64.6095 177.024Z" fill="#4A6392"/>
<path d="M64.6097 177.024H32.5679C28.5519 176.741 24.7188 175.237 21.5838 172.714C18.4488 170.192 16.1622 166.771 15.0314 162.912C13.3239 156.872 12.7047 150.577 13.2026 144.321C13.3779 134.963 13.5533 125.305 5.68692 118.324C5.39076 118.053 5.03357 117.857 4.64551 117.752C4.25744 117.648 3.8499 117.638 3.45728 117.724C3.45773 118.079 3.53392 118.43 3.68078 118.754C3.82765 119.077 4.04182 119.366 4.30905 119.601C10.4719 125.105 10.3216 132.762 10.1462 141.719C9.61994 148.572 10.3414 155.464 12.2756 162.061C13.3247 165.385 15.05 168.456 17.3435 171.083C19.637 173.709 22.4491 175.834 25.6034 177.324C28.4155 178.657 31.4633 179.422 34.5721 179.576H66.6389H67.1901C67.197 179.236 67.1348 178.899 67.0073 178.585C66.8797 178.271 66.6895 177.985 66.4482 177.747C66.2068 177.508 65.9194 177.321 65.6033 177.196C65.2873 177.072 64.9492 177.013 64.6097 177.024Z" fill="#54A4DA"/>
<path d="M73.1775 155.379C70.685 153.541 68.0739 151.87 65.3612 150.375L58.4468 154.654C61.6735 156.516 65.071 158.066 68.5929 159.282C72.1754 160.183 77.2359 165.713 79.4656 164.937C81.6952 164.162 76.0334 157.631 73.1775 155.379Z" fill="#F5D0B7"/>
<path d="M27.5574 98.9582C13.9541 95.155 24.3507 137.49 28.7599 141.494C33.1691 145.497 64.7599 159.008 64.7599 159.008L68.3173 152.028L40.4844 134.213C36.451 120.501 36.2255 101.36 27.5574 98.9582Z" fill="#B4BCE1"/>
<path d="M48.6765 165.138C34.7475 163.837 32.1671 156.306 32.142 156.23L31.4155 156.456C31.4155 156.781 34.1212 164.562 48.6264 165.889C65.261 167.415 77.3362 170.893 80.142 174.946C80.4161 175.295 80.6042 175.703 80.6912 176.138C80.7783 176.572 80.7618 177.021 80.6431 177.448C79.3153 182.052 70.6222 216.906 70.3967 217.257L71.1483 217.432C71.1483 217.081 80.0669 182.252 81.3947 177.648C81.5416 177.108 81.5638 176.541 81.4597 175.991C81.3555 175.44 81.1277 174.92 80.7934 174.471C77.7871 170.142 65.8122 166.689 48.6765 165.138Z" fill="#1D4D94"/>
<path d="M44.3423 70.5586L44.8934 73.386L46.5469 80.0665C46.7921 78.2173 46.8926 76.3517 46.8475 74.4869C46.3126 73.009 45.4571 71.6676 44.3423 70.5586Z" fill="#F5D0B7"/>
<path d="M86.5552 116.872C85.0046 116.916 83.4755 117.247 82.0458 117.848L76.2588 120.976L78.1628 126.33L79.9916 125.279C80.646 125.525 81.3592 125.568 82.0383 125.402C82.7175 125.237 83.3311 124.872 83.7995 124.354C84.3858 124.972 85.1455 125.4 85.979 125.58C86.2568 125.586 86.5303 125.511 86.7662 125.365C87.002 125.218 87.1899 125.006 87.3068 124.754C87.6839 124.763 88.0512 124.633 88.338 124.388C88.6247 124.144 88.8107 123.801 88.86 123.428H89.0103C89.2224 123.384 89.4206 123.289 89.5884 123.152C89.7562 123.015 89.8886 122.84 89.9746 122.642C90.0605 122.443 90.0974 122.227 90.0822 122.011C90.067 121.795 90.0001 121.586 89.8872 121.401L88.7097 119.274L92.8183 117.848C94.3214 117.323 93.5698 116.172 93.5698 116.172C91.2491 116.556 88.9061 116.79 86.5552 116.872Z" fill="#FBC5A9"/>
<path d="M82.6721 123.028C83.293 123.137 83.9321 123.023 84.4773 122.707C85.0225 122.391 85.4389 121.894 85.6533 121.302C86.6697 121.373 87.6816 121.498 88.6846 121.677C90.1377 121.953 90.313 120.351 90.313 120.351L84.9519 118.475L82.6721 123.028Z" fill="#FBC5A9"/>
<path d="M85.7285 118.774V118.924L90.0375 120.4C89.9709 120.786 89.7769 121.138 89.4863 121.401C89.3561 121.5 89.2045 121.568 89.0436 121.598C88.8827 121.629 88.7169 121.621 88.5594 121.576C87.5481 121.397 86.5278 121.271 85.503 121.201C85.3086 121.77 84.9154 122.25 84.3956 122.553C83.8757 122.857 83.2639 122.963 82.6721 122.852H83.2233C83.7703 122.838 84.3006 122.662 84.7468 122.345C85.1929 122.029 85.5347 121.587 85.7285 121.076C86.7204 121.143 87.7074 121.269 88.6846 121.451C88.8738 121.495 89.0701 121.497 89.2603 121.459C89.4505 121.42 89.6301 121.34 89.7869 121.226C90.149 120.912 90.3812 120.475 90.4383 120L85.954 118.424C85.9309 118.409 85.9052 118.399 85.8783 118.394C85.8513 118.389 85.8237 118.39 85.7969 118.395C85.7702 118.401 85.7448 118.412 85.7223 118.428C85.6999 118.443 85.6807 118.463 85.6659 118.486C85.6511 118.509 85.6409 118.535 85.6361 118.562C85.6312 118.589 85.6317 118.616 85.6375 118.643C85.6433 118.67 85.6543 118.695 85.67 118.718C85.6856 118.74 85.7055 118.759 85.7285 118.774Z" fill="#F7A189"/>
<path d="M88.8602 123.303C87.8331 123.303 85.6536 121.251 85.6285 121.226C85.6034 121.201 85.6285 121.226 85.4782 121.226C85.3279 121.226 85.4782 121.226 85.4782 121.376C86.4252 122.319 87.5605 123.052 88.8101 123.528C88.8344 123.523 88.8568 123.512 88.8746 123.495C88.8924 123.478 88.9048 123.456 88.9101 123.432C88.9155 123.408 88.9136 123.383 88.9047 123.36C88.8958 123.337 88.8804 123.317 88.8602 123.303Z" fill="#F7A189"/>
<path d="M83.5993 123.129C83.5993 123.129 83.5993 123.004 83.5993 122.979H83.449C83.1734 123.379 83.6744 124.305 83.7245 124.405V124.255C83.6995 123.929 83.4489 123.304 83.5993 123.129Z" fill="#F7A189"/>
<path d="M78.1628 126.331L79.5406 125.58L76.2588 120.977L78.1628 126.331Z" fill="#F7A189"/>
<path d="M136.284 26.1465H119.248C112.164 26.1465 106.422 31.882 106.422 38.9572V42.6353C106.422 49.7104 112.164 55.446 119.248 55.446H136.284C143.368 55.446 149.111 49.7104 149.111 42.6353V38.9572C149.111 31.882 143.368 26.1465 136.284 26.1465Z" fill="#B2DAF2"/>
<path d="M140.192 30.9258H111.232C110.457 30.9258 109.829 31.5531 109.829 32.327V32.4771C109.829 33.2509 110.457 33.8783 111.232 33.8783H140.192C140.967 33.8783 141.595 33.2509 141.595 32.4771V32.327C141.595 31.5531 140.967 30.9258 140.192 30.9258Z" fill="#64A8DB"/>
<path d="M131.399 36.3301H111.232C110.457 36.3301 109.829 36.9574 109.829 37.7312V37.8814C109.829 38.6552 110.457 39.2825 111.232 39.2825H131.399C132.174 39.2825 132.802 38.6552 132.802 37.8814V37.7312C132.802 36.9574 132.174 36.3301 131.399 36.3301Z" fill="#64A8DB"/>
<path d="M140.192 42.7617H111.232C110.457 42.7617 109.829 43.389 109.829 44.1629V44.313C109.829 45.0869 110.457 45.7142 111.232 45.7142H140.192C140.967 45.7142 141.595 45.0869 141.595 44.313V44.1629C141.595 43.389 140.967 42.7617 140.192 42.7617Z" fill="#64A8DB"/>
<path d="M131.399 48.166H111.232C110.457 48.166 109.829 48.7933 109.829 49.5672V49.7173C109.829 50.4912 110.457 51.1185 111.232 51.1185H131.399C132.174 51.1185 132.802 50.4912 132.802 49.7173V49.5672C132.802 48.7933 132.174 48.166 131.399 48.166Z" fill="#64A8DB"/>
<path d="M202.171 2.50283C200.335 0.782578 197.891 -0.141102 195.374 -0.0660744C192.858 0.00895331 190.474 1.07658 188.743 2.90316L186.238 5.53036L183.733 3.02827C181.897 1.30802 179.453 0.384337 176.936 0.459365C174.42 0.534393 172.035 1.60202 170.305 3.4286C168.582 5.26264 167.658 7.70344 167.733 10.2169C167.808 12.7303 168.877 15.1117 170.706 16.8398L180.251 25.8223L183.858 29.2002C184.736 30.0284 185.907 30.4751 187.114 30.4422C188.321 30.4094 189.465 29.8997 190.297 29.025L202.672 15.889C204.38 14.0462 205.287 11.602 205.193 9.09245C205.099 6.58293 204.012 4.21309 202.171 2.50283Z" fill="#29577E"/>
<path d="M283.215 67.2055L282.739 67.0804L281.887 70.0579L279.582 66.1547L266.23 62.5516C265.971 62.4828 265.73 62.3626 265.52 62.198C265.309 62.0335 265.134 61.8282 265.006 61.5944C264.877 61.3606 264.797 61.1032 264.77 60.8377C264.744 60.5722 264.772 60.3041 264.852 60.0495L267.507 50.3664C267.576 50.1083 267.697 49.8666 267.861 49.6556C268.025 49.4446 268.23 49.2686 268.464 49.138C268.697 49.0074 268.955 48.9248 269.221 48.8952C269.487 48.8655 269.756 48.8893 270.012 48.9653L286.973 53.6192C287.231 53.6883 287.473 53.8085 287.685 53.9726C287.896 54.1367 288.072 54.3414 288.203 54.5746C288.333 54.8078 288.416 55.0648 288.446 55.3305C288.476 55.5961 288.452 55.865 288.376 56.1213L285.595 65.8294C285.454 66.3221 285.127 66.741 284.683 66.9977C284.239 67.2545 283.713 67.329 283.215 67.2055Z" fill="#65BEBF"/>
<path d="M270.714 58.2496C271.599 58.2496 272.317 57.5326 272.317 56.6482C272.317 55.7638 271.599 55.0469 270.714 55.0469C269.828 55.0469 269.111 55.7638 269.111 56.6482C269.111 57.5326 269.828 58.2496 270.714 58.2496Z" fill="white"/>
<path d="M274.923 59.3999C275.808 59.3999 276.526 58.683 276.526 57.7986C276.526 56.9142 275.808 56.1973 274.923 56.1973C274.037 56.1973 273.319 56.9142 273.319 57.7986C273.319 58.683 274.037 59.3999 274.923 59.3999Z" fill="white"/>
<path d="M279.107 60.5503C279.992 60.5503 280.71 59.8334 280.71 58.949C280.71 58.0646 279.992 57.3477 279.107 57.3477C278.221 57.3477 277.503 58.0646 277.503 58.949C277.503 59.8334 278.221 60.5503 279.107 60.5503Z" fill="white"/>
<path d="M283.315 61.6773C284.201 61.6773 284.919 60.9603 284.919 60.0759C284.919 59.1916 284.201 58.4746 283.315 58.4746C282.43 58.4746 281.712 59.1916 281.712 60.0759C281.712 60.9603 282.43 61.6773 283.315 61.6773Z" fill="white"/>
<path d="M55.6911 39.2571C62.9411 39.2571 68.8184 33.3871 68.8184 26.1461C68.8184 18.9051 62.9411 13.0352 55.6911 13.0352C48.441 13.0352 42.5637 18.9051 42.5637 26.1461C42.5637 33.3871 48.441 39.2571 55.6911 39.2571Z" fill="#3063A0"/>
<path d="M53.1514 18.8151C52.6689 18.2274 51.8007 18.1416 51.2122 18.6235C50.6238 19.1054 50.5379 19.9725 51.0204 20.5603L53.3236 23.3658C53.8061 23.9535 54.6743 24.0393 55.2628 23.5574C55.8512 23.0755 55.9371 22.2084 55.4546 21.6207L53.1514 18.8151Z" fill="white"/>
<path d="M60.1428 28.0397C59.6603 27.452 58.7921 27.3662 58.2037 27.8481C57.6152 28.33 57.5293 29.1971 58.0118 29.7849L60.3151 32.5904C60.7976 33.1781 61.6658 33.2639 62.2542 32.782C62.8427 32.3001 62.9286 31.433 62.4461 30.8453L60.1428 28.0397Z" fill="white"/>
<path d="M50.3798 20.1426L53.1606 23.7706C53.1606 23.7706 51.6826 25.0467 53.8872 28.1743C56.0917 31.3019 57.6951 29.7256 57.6951 29.7256L60.5761 33.1785C59.8219 33.769 58.8913 34.0898 57.9331 34.0898C56.9748 34.0898 56.0442 33.769 55.2901 33.1785C54.0678 32.243 52.9431 31.1868 51.9331 30.0258C50.816 28.7421 49.8416 27.341 49.027 25.8473C48.5827 25.0541 48.406 24.139 48.5234 23.2376C48.6407 22.3362 49.0457 21.4966 49.6784 20.8432L50.3798 20.1426Z" fill="white"/>
<path d="M251.023 124.479H210.438V80.4675C211.603 80.1093 212.805 79.8909 214.021 79.817H240.2C243.37 79.7613 246.487 80.6309 249.169 82.3191V102.586L249.319 105.088L250.021 113.07L251.023 124.479Z" fill="#F2F2F2"/>
<path d="M250.021 113.07L249.019 108.392C248.935 108.19 248.811 108.008 248.654 107.856C248.498 107.704 248.313 107.584 248.11 107.505C247.906 107.426 247.689 107.388 247.471 107.394C247.253 107.4 247.038 107.45 246.839 107.541C242.67 108.747 238.416 109.642 234.113 110.218L232.56 107.391L242.58 101.711L249.169 102.036V102.587L249.319 105.089L250.021 113.07Z" fill="#E8E7E7"/>
<path d="M210.639 103.386C210.612 103.39 210.586 103.388 210.56 103.381C210.534 103.374 210.51 103.362 210.489 103.346C210.468 103.329 210.451 103.309 210.438 103.286C210.425 103.263 210.416 103.237 210.413 103.211L210.614 91.2009C210.614 91.2009 210.614 91.0508 210.839 91.0508C210.839 91.0508 211.065 91.0508 211.065 91.2009L210.864 103.211C210.861 103.237 210.853 103.263 210.84 103.286C210.827 103.309 210.809 103.329 210.788 103.346C210.767 103.362 210.743 103.374 210.718 103.381C210.692 103.388 210.665 103.39 210.639 103.386Z" fill="#BBBBBB"/>
<path d="M234.639 79.8164L234.363 95.9049V97.0808L233.912 123.778L217.954 124.479C217.954 124.479 217.954 113.219 218.605 101.209C218.593 101.11 218.593 101.009 218.605 100.909C218.862 93.8365 219.599 86.7895 220.81 79.8164H234.639Z" fill="#B9E7DC"/>
<path d="M218.129 112.32L234.113 110.218V108.717L218.129 110.518V112.32Z" fill="#C6DCF2"/>
<path d="M223.34 109.841C223.256 110.863 223.323 111.891 223.541 112.893L225.595 121.05L226.823 117.597L227.198 116.471L228.601 112.593C228.924 110.634 229.033 108.646 228.927 106.663C228.927 103.361 228.927 100.108 228.927 96.805C228.927 96.4297 228.927 91.9259 228.927 91.4255L225.019 91.2754C224.894 92.4764 224.518 97.7558 224.418 98.9318C223.992 102.585 223.616 106.163 223.34 109.841Z" fill="#29577E"/>
<path d="M215.449 123.029L244.885 116.773C246.83 116.165 248.481 114.86 249.521 113.11C250.561 111.359 250.918 109.287 250.522 107.29C250.303 106.164 249.851 105.095 249.196 104.153C248.54 103.211 247.695 102.415 246.715 101.817C245.734 101.219 244.639 100.832 243.5 100.68C242.362 100.528 241.204 100.615 240.1 100.935L212.944 110.593C212.772 110.66 212.625 110.776 212.522 110.929C212.419 111.081 212.365 111.26 212.367 111.444C212.376 113.367 212.561 115.285 212.919 117.174C213.219 119.023 213.689 120.84 214.322 122.603C214.368 122.705 214.433 122.797 214.515 122.874C214.596 122.95 214.692 123.01 214.797 123.049C214.902 123.089 215.013 123.107 215.125 123.104C215.237 123.1 215.347 123.075 215.449 123.029Z" fill="#F2F2F2"/>
<path d="M212.092 112.144C212.062 112.144 212.033 112.138 212.006 112.127C211.978 112.115 211.953 112.099 211.932 112.078C211.912 112.057 211.895 112.032 211.884 112.005C211.872 111.978 211.866 111.948 211.866 111.919C211.871 111.585 211.976 111.261 212.168 110.989C212.361 110.717 212.631 110.509 212.944 110.392L235.015 102.586L239.574 90.4758C239.618 90.4433 239.67 90.4258 239.724 90.4258C239.779 90.4258 239.831 90.4433 239.875 90.4758C239.902 90.5167 239.916 90.5645 239.916 90.6134C239.916 90.6624 239.902 90.7102 239.875 90.7511L235.491 102.886L213.319 110.768C213.093 110.857 212.898 111.012 212.759 111.213C212.621 111.413 212.546 111.65 212.543 111.894C212.576 111.953 212.584 112.024 212.565 112.09C212.547 112.155 212.502 112.211 212.443 112.244C212.383 112.277 212.312 112.285 212.247 112.267C212.181 112.248 212.125 112.204 212.092 112.144Z" fill="#BBBBBB"/>
<path d="M215.273 123.354C215.038 123.357 214.807 123.289 214.611 123.16C214.414 123.03 214.261 122.845 214.171 122.628L213.72 121.527C213.693 121.486 213.679 121.439 213.679 121.39C213.679 121.341 213.693 121.293 213.72 121.252C213.762 121.215 213.815 121.195 213.871 121.195C213.926 121.195 213.98 121.215 214.021 121.252L214.447 122.328C214.517 122.488 214.64 122.619 214.794 122.701C214.949 122.783 215.127 122.81 215.299 122.778L244.585 116.423C245.456 116.248 246.283 115.899 247.015 115.396C247.747 114.892 248.369 114.246 248.843 113.496C248.862 113.474 248.885 113.457 248.911 113.445C248.937 113.434 248.965 113.428 248.994 113.428C249.022 113.428 249.05 113.434 249.076 113.445C249.102 113.457 249.125 113.474 249.144 113.496C249.181 113.537 249.201 113.59 249.201 113.646C249.201 113.701 249.181 113.754 249.144 113.796C248.634 114.602 247.968 115.299 247.185 115.844C246.402 116.39 245.518 116.774 244.585 116.973L215.449 123.329L215.273 123.354Z" fill="#BBBBBB"/>
<path d="M202.221 110.218C202.035 110.202 201.848 110.247 201.689 110.345C201.53 110.443 201.406 110.59 201.336 110.763C201.266 110.936 201.254 111.128 201.3 111.309C201.347 111.49 201.45 111.651 201.595 111.769C202.714 112.727 204.109 113.305 205.578 113.42C203.9 113.42 195.232 112.595 195.307 114.396C195.382 116.198 204.201 116.348 204.201 116.348C204.201 116.348 193.403 117.199 193.754 118.85C194.104 120.501 204.201 119.4 204.201 119.4C204.201 119.4 195.482 121.903 195.858 123.029C196.459 124.905 204.601 122.728 204.601 122.728C204.601 122.728 199.265 124.53 200.217 125.806C201.445 127.457 214.071 121.327 214.071 121.327C213.498 119.758 213.062 118.142 212.768 116.498C212.481 114.98 212.321 113.439 212.292 111.894L202.221 110.218Z" fill="#FCC892"/>
<path d="M225.47 80.0673L212.493 104.763L211.766 106.114C211.434 106.768 211.003 107.367 210.489 107.891L210.138 108.266C208.805 109.515 207.096 110.289 205.278 110.468H204.451C203.024 110.469 201.621 110.101 200.38 109.398C199.138 108.696 198.101 107.683 197.369 106.46C196.636 105.237 196.235 103.845 196.203 102.421C196.17 100.996 196.509 99.5872 197.186 98.3325L199.691 93.9539L204.702 85.7971C206.06 83.5668 208.084 81.817 210.489 80.7929C211.629 80.314 212.838 80.0185 214.071 79.9171C214.446 79.8922 214.823 79.8922 215.198 79.9171H216.927L225.47 80.0673Z" fill="#F2F2F2"/>
<path d="M210.639 105.312C210.637 106.303 210.459 107.286 210.113 108.215C209.793 109.046 209.345 109.823 208.785 110.517C207.477 112.115 205.615 113.165 203.569 113.456C201.522 113.748 199.441 113.262 197.737 112.093L176.017 95.329C175.855 95.1932 175.726 95.022 175.641 94.8286C175.59 94.6232 175.59 94.4084 175.641 94.203C175.925 91.938 176.657 89.752 177.795 87.7727C178.727 86.1237 179.92 84.6365 181.328 83.369C181.537 83.2107 181.792 83.125 182.054 83.125C182.317 83.125 182.572 83.2107 182.781 83.369L199.866 94.0529L207.081 98.5567C208.238 99.3345 209.178 100.394 209.812 101.634C210.366 102.781 210.649 104.039 210.639 105.312Z" fill="#F2F2F2"/>
<path d="M210.639 107.59C210.639 107.59 209.361 109.716 208.785 110.442C207.477 112.041 205.615 113.09 203.569 113.382C201.522 113.674 199.441 113.187 197.737 112.018L176.017 95.2543C175.855 95.1185 175.726 94.9473 175.641 94.7539L197.536 108.891C198.368 109.424 199.298 109.789 200.271 109.963C201.244 110.138 202.242 110.119 203.208 109.907C204.174 109.696 205.088 109.296 205.899 108.731C206.71 108.166 207.401 107.446 207.933 106.614L210.789 101.935L210.639 107.59Z" fill="#E8E7E7"/>
<path d="M203.925 98.5318C203.897 98.5435 203.867 98.5496 203.837 98.5496C203.807 98.5496 203.777 98.5435 203.749 98.5318L199.641 94.1782C199.619 94.1572 199.601 94.1319 199.589 94.104C199.577 94.076 199.571 94.046 199.571 94.0156C199.571 93.9852 199.577 93.9551 199.589 93.9271C199.601 93.8992 199.619 93.8739 199.641 93.8529C199.66 93.8316 199.683 93.8146 199.709 93.8029C199.735 93.7912 199.763 93.7852 199.791 93.7852C199.82 93.7852 199.848 93.7912 199.874 93.8029C199.9 93.8146 199.923 93.8316 199.941 93.8529L204.075 98.2066C204.112 98.2479 204.132 98.3013 204.132 98.3567C204.132 98.4121 204.112 98.4655 204.075 98.5068L203.925 98.5318Z" fill="#BBBBBB"/>
<path d="M172.033 75.0634C171.87 74.9203 171.666 74.8326 171.449 74.8129C171.233 74.7931 171.016 74.8424 170.829 74.9536C170.643 75.0649 170.496 75.2323 170.411 75.4318C170.326 75.6314 170.306 75.8528 170.355 76.0642C170.706 77.7443 171.583 79.2691 172.86 80.4178C171.332 79.1668 163.616 72.4362 162.438 74.2127C161.261 75.9891 169.528 82.2444 169.528 82.2444C169.528 82.2444 158.681 75.5388 157.829 77.4153C156.977 79.2919 167.499 85.0717 167.499 85.0717C167.499 85.0717 157.478 81.2936 157.052 82.7198C156.301 84.8966 165.57 88.4996 165.57 88.4996C165.57 88.4996 159.257 86.4979 159.257 88.4996C159.257 91.0017 175.641 93.8291 175.641 93.8291C175.967 91.7424 176.671 89.7328 177.72 87.8991C178.544 86.435 179.583 85.1025 180.802 83.9458L172.033 75.0634Z" fill="#FCC892"/>
<path d="M253.503 95.8052L250.797 110.217C250.605 111.497 250.097 112.71 249.319 113.745C248.559 114.792 247.561 115.644 246.407 116.232C245.253 116.819 243.976 117.124 242.681 117.123C241.944 117.138 241.21 117.046 240.501 116.848C238.538 116.312 236.843 115.07 235.743 113.361C234.642 111.651 234.213 109.596 234.539 107.59L238.321 79.8168C245.086 79.6417 246.789 81.1179 249.169 83.2197C250.922 84.7624 252.243 86.7337 253.002 88.9401C253.762 91.1464 253.935 93.5121 253.503 95.8052Z" fill="#F2F2F2"/>
<path d="M239.574 90.5C238.652 91.6678 237.893 92.9557 237.319 94.3282L234.363 101.434L212.944 110.592L235.315 102.71L239.574 90.5Z" fill="#E8E7E7"/>
<path d="M234.363 101.436L234.338 103.012L218.58 108.567V108.141L234.363 101.436Z" fill="#C6DCF2"/>
<path d="M173.962 88.9002C173.934 88.9004 173.906 88.8946 173.879 88.883C173.853 88.8714 173.83 88.8544 173.811 88.833C173.792 88.8117 173.778 88.7866 173.769 88.7593C173.761 88.7321 173.758 88.7033 173.762 88.675C173.926 87.5813 173.778 86.4635 173.335 85.45C172.892 84.4365 172.172 83.5683 171.257 82.9452C171.226 82.9447 171.196 82.9373 171.169 82.9236C171.142 82.9098 171.118 82.89 171.1 82.8658C171.082 82.8415 171.069 82.8134 171.063 82.7835C171.057 82.7537 171.058 82.7229 171.066 82.6935C171.074 82.6641 171.089 82.6369 171.109 82.6139C171.129 82.591 171.153 82.5728 171.181 82.5609C171.209 82.549 171.24 82.5436 171.27 82.5452C171.301 82.5467 171.33 82.5552 171.357 82.5699C172.366 83.2131 173.168 84.1338 173.666 85.2213C174.164 86.3089 174.336 87.5169 174.163 88.7C174.157 88.7513 174.135 88.7991 174.098 88.8355C174.062 88.8719 174.014 88.8948 173.962 88.9002Z" fill="#F7AD8D"/>
<path d="M173.637 86.2211C173.14 85.8047 172.524 85.5542 171.877 85.5049C171.23 85.4555 170.584 85.6097 170.029 85.9459C169.992 85.9811 169.943 86.0007 169.891 86.0007C169.84 86.0007 169.791 85.9811 169.754 85.9459C169.733 85.9295 169.716 85.9086 169.704 85.8848C169.693 85.861 169.687 85.8348 169.687 85.8083C169.687 85.7818 169.693 85.7557 169.704 85.7318C169.716 85.708 169.733 85.6871 169.754 85.6707C170.386 85.3049 171.113 85.1379 171.842 85.1914C172.57 85.245 173.266 85.5167 173.837 85.9709C173.858 85.9897 173.876 86.0128 173.887 86.0387C173.899 86.0646 173.905 86.0927 173.905 86.1211C173.905 86.1495 173.899 86.1775 173.887 86.2034C173.876 86.2293 173.858 86.2524 173.837 86.2712C173.804 86.29 173.764 86.2953 173.727 86.286C173.69 86.2767 173.657 86.2535 173.637 86.2211Z" fill="#F7AD8D"/>
<path d="M234.764 80.3167L235.491 86.8472L236.843 80.5669L235.24 78.0898L234.764 80.3167Z" fill="#F2F2F2"/>
<path d="M233.862 99.833C233.84 99.812 233.823 99.7868 233.811 99.7588C233.799 99.7309 233.793 99.7008 233.793 99.6704C233.793 99.64 233.799 99.6099 233.811 99.582C233.823 99.554 233.84 99.5288 233.862 99.5078L236.969 94.8789C237.156 94.6025 237.271 94.2832 237.302 93.9506C237.332 93.6181 237.278 93.2833 237.144 92.9773L236.493 91.426C236.31 91.024 236.236 90.5807 236.28 90.1412C236.324 89.7018 236.484 89.2818 236.743 88.9239L238.923 85.8714C239.141 85.5457 239.258 85.1625 239.258 84.7704C239.258 84.3784 239.141 83.9951 238.923 83.6695L235.24 78.0898L239.223 83.5444C239.477 83.9448 239.612 84.4091 239.612 84.883C239.612 85.357 239.477 85.8212 239.223 86.2216L237.044 89.2992C236.845 89.5752 236.723 89.898 236.687 90.2359C236.652 90.5738 236.706 90.915 236.843 91.2258L237.495 92.8022C237.645 93.1703 237.705 93.5688 237.67 93.9648C237.635 94.3607 237.506 94.7427 237.294 95.0791L234.163 99.7329C234.136 99.7858 234.089 99.8259 234.033 99.8446C233.977 99.8634 233.915 99.8592 233.862 99.833Z" fill="#BBBBBB"/>
<path d="M222.99 77.6641L222.764 79.7408L219.683 87.5723L220.284 79.6908L222.99 77.6641Z" fill="#F2F2F2"/>
<path d="M218.255 100.559C218.173 100.531 218.103 100.479 218.054 100.409L216.175 95.7296C215.925 95.0944 215.925 94.3882 216.175 93.753L217.578 90.2751C217.717 89.891 217.76 89.4786 217.703 89.0741L216.776 83.9448C216.707 83.4765 216.763 82.9982 216.939 82.5586C217.115 82.1191 217.405 81.734 217.779 81.4427L222.964 77.5645L217.954 81.5928C217.624 81.8412 217.37 82.1763 217.219 82.5607C217.069 82.945 217.028 83.3636 217.102 83.7696L218.029 88.7738C218.105 89.2707 218.053 89.7785 217.879 90.2501L216.501 93.728C216.389 93.989 216.332 94.2698 216.332 94.5537C216.332 94.8375 216.389 95.1184 216.501 95.3794L218.355 100.058C218.39 100.095 218.41 100.145 218.41 100.196C218.41 100.247 218.39 100.296 218.355 100.333L218.255 100.559Z" fill="#BBBBBB"/>
<path d="M220.685 69.0068C221.467 69.5335 222.135 70.2129 222.647 71.0042C223.159 71.7954 223.506 72.682 223.666 73.6106C223.618 74.9546 223.382 76.2852 222.965 77.5639C222.658 79.4196 222.658 81.313 222.965 83.1686C223.441 85.6707 223.891 88.1728 224.367 90.825L230.155 88.0727L235.566 79.0152L234.839 74.3112C234.241 70.7749 234.031 67.184 234.213 63.6023C234.689 58.3479 220.685 69.0068 220.685 69.0068Z" fill="#FFCC99"/>
<path d="M223.641 88.9489C223.59 89.1961 223.593 89.4514 223.65 89.6972C223.707 89.9431 223.817 90.1737 223.972 90.3733C224.126 90.5729 224.322 90.7368 224.546 90.8537C224.77 90.9706 225.017 91.0378 225.269 91.0506H227.073H228.726C228.977 91.0515 229.224 91.0004 229.453 90.9006C229.683 90.8009 229.889 90.6546 230.058 90.4711C230.228 90.2875 230.357 90.0708 230.439 89.8346C230.52 89.5984 230.551 89.3479 230.53 89.099C230.554 88.8576 230.529 88.6138 230.455 88.3827C230.381 88.1516 230.261 87.9381 230.101 87.7552C229.941 87.5724 229.746 87.4241 229.527 87.3196C229.308 87.215 229.069 87.1564 228.827 87.1474H227.774H227.098H225.52C225.276 87.1336 225.032 87.1702 224.802 87.2548C224.573 87.3395 224.364 87.4704 224.188 87.6395C224.011 87.8085 223.872 88.012 223.778 88.2373C223.684 88.4626 223.637 88.7048 223.641 88.9489Z" fill="#29577E"/>
<g opacity="0.11">
<path d="M243.006 92.3518C242.843 91.5481 242.634 90.7545 242.38 89.9748C241.15 86.307 239.413 82.8289 237.219 79.6411C237.219 79.6411 236.818 79.1908 236.568 79.2658C236.511 79.2447 236.449 79.2447 236.392 79.2658C236.334 79.3134 236.29 79.3754 236.263 79.4458C236.237 79.5161 236.23 79.5921 236.242 79.6662C238.388 83.0921 240.072 86.7852 241.253 90.6503C241.403 91.3509 241.553 91.9014 241.653 92.3518C240.962 92.589 240.383 93.0738 240.028 93.7126C239.673 94.3514 239.569 95.0987 239.734 95.8103C239.899 96.5218 240.322 97.1471 240.921 97.5651C241.521 97.9832 242.255 98.1644 242.98 98.0738C243.706 97.9833 244.372 97.6272 244.85 97.0746C245.328 96.522 245.584 95.812 245.569 95.0818C245.554 94.3516 245.268 93.653 244.767 93.121C244.265 92.5891 243.585 92.2615 242.856 92.2016L243.006 92.3518Z" fill="#05799D"/>
</g>
<path d="M242.731 94.1536C242.778 92.5841 242.487 91.0227 241.879 89.5748C240.691 85.9172 239.005 82.4402 236.868 79.2412C236.868 79.2412 236.468 78.7908 236.217 78.8659H236.042C235.983 78.9188 235.939 78.9854 235.913 79.0596C235.887 79.1338 235.879 79.2134 235.891 79.2912C238.027 82.7226 239.711 86.4144 240.902 90.2754C241.679 93.7283 241.829 93.7783 241.854 94.0035C241.854 94.3288 242.104 94.4039 242.255 94.4039C242.505 94.4789 242.731 94.1536 242.731 94.1536Z" fill="#3F5067"/>
<path d="M242.28 97.8327C243.912 97.8327 245.236 96.5108 245.236 94.8802C245.236 93.2496 243.912 91.9277 242.28 91.9277C240.647 91.9277 239.323 93.2496 239.323 94.8802C239.323 96.5108 240.647 97.8327 242.28 97.8327Z" fill="#088FC8"/>
<path d="M242.28 97.0568C243.483 97.0568 244.459 96.0822 244.459 94.8799C244.459 93.6777 243.483 92.7031 242.28 92.7031C241.076 92.7031 240.1 93.6777 240.1 94.8799C240.1 96.0822 241.076 97.0568 242.28 97.0568Z" fill="#63C5E5"/>
<g opacity="0.11">
<path d="M220.058 80.7165L218.505 81.7174L218.881 81.0918C218.958 80.9414 219.077 80.8164 219.224 80.732C219.371 80.6477 219.539 80.6075 219.708 80.6165L220.058 80.7165Z" fill="#05799D"/>
<path d="M222.964 80.066C222.964 80.3162 222.965 80.6165 222.814 80.9417C222.664 81.7424 222.463 82.7433 222.213 83.8942C221.035 89.2737 218.681 97.5306 215.073 99.4572C215.307 99.6661 215.569 99.8428 215.85 99.9827C215.917 99.8777 216.021 99.8016 216.141 99.7692C216.262 99.7368 216.39 99.7505 216.501 99.8075L217.628 100.383C217.736 100.442 217.819 100.538 217.86 100.653C217.902 100.768 217.899 100.895 217.854 101.009L217.678 101.484C217.628 101.601 217.537 101.697 217.422 101.752C217.307 101.807 217.175 101.819 217.052 101.784L215.825 101.459C215.762 101.448 215.702 101.423 215.65 101.387C215.597 101.351 215.553 101.304 215.52 101.25C215.487 101.196 215.465 101.135 215.457 101.072C215.45 101.008 215.455 100.944 215.474 100.883C214.834 100.697 214.26 100.333 213.82 99.8326C213.317 99.8788 212.809 99.8015 212.342 99.6074C212.279 99.7169 212.178 99.8 212.059 99.8413C211.939 99.8827 211.809 99.8796 211.691 99.8326L210.514 99.3321C210.394 99.2922 210.295 99.2065 210.239 99.0939C210.183 98.9814 210.173 98.8511 210.213 98.7316L210.388 98.2312C210.423 98.1129 210.503 98.0129 210.611 97.9522C210.718 97.8915 210.845 97.8749 210.964 97.9059L212.217 98.1311C212.338 98.1605 212.445 98.2319 212.519 98.3328C212.592 98.4336 212.627 98.5573 212.618 98.6816C212.826 98.7117 213.037 98.7117 213.244 98.6816C211.891 95.1286 214.923 88.2979 217.102 84.1194C217.603 83.1686 218.054 82.3429 218.405 81.6173L219.958 80.6165H220.134C220.309 80.8167 220.134 80.9167 220.134 81.0418C219.571 81.8424 219.061 82.6782 218.605 83.5439C217.185 86.2414 215.995 89.0537 215.048 91.951C214.149 93.912 213.971 96.1273 214.547 98.2062C215.699 97.7058 217.052 96.3046 218.33 92.9268C219.509 89.8363 220.406 86.6456 221.01 83.3938C221.236 82.0427 221.361 81.0418 221.436 80.4163C221.452 80.1923 221.525 79.9761 221.648 79.7879C221.771 79.5997 221.939 79.4458 222.138 79.3404H222.363C222.43 79.3092 222.503 79.293 222.576 79.293C222.65 79.293 222.723 79.3092 222.789 79.3404C222.904 79.4172 222.986 79.5345 223.019 79.669C223.051 79.8034 223.032 79.9452 222.964 80.066Z" fill="#05799D"/>
</g>
<path d="M222.739 79.5424C222.739 80.3931 222.363 81.7442 222.012 83.3455C220.835 88.725 218.48 96.9819 214.873 98.9085C214.484 99.1163 214.058 99.244 213.62 99.2839C212.913 99.3469 212.204 99.1895 211.591 98.8335C211.577 98.8062 211.571 98.7763 211.571 98.7459C211.571 98.7156 211.577 98.6856 211.591 98.6583V97.5824C212.028 97.9446 212.576 98.1476 213.144 98.1579C213.567 98.1647 213.985 98.0793 214.372 97.9077C215.524 97.4073 216.877 95.9811 218.154 92.6033C219.322 89.5089 220.219 86.3193 220.835 83.0703C221.06 81.7442 221.186 80.7183 221.236 80.0928C221.261 79.8714 221.34 79.6596 221.467 79.4762C221.594 79.2929 221.764 79.1437 221.962 79.0419L222.163 78.9168C222.248 78.8925 222.338 78.8923 222.423 78.9162C222.508 78.94 222.584 78.9871 222.644 79.052C222.704 79.1169 222.745 79.1971 222.761 79.2837C222.778 79.3703 222.77 79.4599 222.739 79.5424Z" fill="#63C5E5"/>
<path d="M210.764 97.3556L211.992 97.5808C212.062 97.5954 212.128 97.6241 212.187 97.6652C212.245 97.7063 212.295 97.7589 212.332 97.8198C212.37 97.8808 212.395 97.9487 212.405 98.0194C212.415 98.0902 212.411 98.1623 212.392 98.2314L212.192 98.957C212.169 99.0262 212.133 99.0903 212.086 99.1455C212.038 99.2007 211.98 99.2459 211.915 99.2785C211.849 99.3111 211.778 99.3304 211.705 99.3353C211.633 99.3403 211.56 99.3307 211.491 99.3073L210.288 98.8069C210.175 98.7525 210.085 98.6597 210.035 98.545C209.984 98.4303 209.976 98.3013 210.012 98.1813L210.163 97.7059C210.203 97.5844 210.286 97.4818 210.397 97.4173C210.508 97.3528 210.638 97.3309 210.764 97.3556Z" fill="#088FC8"/>
<path d="M219.833 80.7667C219.265 81.5685 218.746 82.404 218.28 83.2688C216.881 85.973 215.7 88.7842 214.748 91.6758C213.833 93.6419 213.656 95.8702 214.246 97.9561C214.393 98.2953 214.606 98.6016 214.873 98.8568C215.114 99.1024 215.402 99.2958 215.721 99.425C216.04 99.5541 216.383 99.6162 216.727 99.6075L216.025 100.458C215.064 100.386 214.167 99.9467 213.52 99.2321C213.267 98.9238 213.064 98.5776 212.919 98.2063C211.591 94.6283 214.622 87.7976 216.777 83.6441C217.503 82.268 218.13 81.142 218.455 80.5916C218.539 80.4411 218.663 80.3168 218.813 80.2329C218.964 80.1489 219.135 80.1085 219.307 80.1162L219.808 80.2913C220.109 80.5665 219.933 80.6416 219.833 80.7667Z" fill="#63C5E5"/>
<path d="M217.403 99.8329L216.301 99.2574C216.171 99.1964 216.022 99.1884 215.887 99.2352C215.751 99.2819 215.639 99.3796 215.574 99.5076L215.274 100.208C215.242 100.275 215.225 100.348 215.224 100.421C215.224 100.495 215.24 100.568 215.271 100.635C215.302 100.702 215.348 100.761 215.404 100.809C215.461 100.856 215.528 100.89 215.599 100.909L216.852 101.259C216.978 101.292 217.112 101.277 217.228 101.217C217.343 101.157 217.433 101.056 217.478 100.934L217.654 100.483C217.705 100.364 217.707 100.229 217.66 100.107C217.614 99.9859 217.521 99.8875 217.403 99.8329Z" fill="#088FC8"/>
<g opacity="0.45">
<path d="M214.873 98.983C214.589 98.712 214.359 98.3893 214.196 98.0322L214.572 97.832C214.572 97.832 214.246 97.9571 214.873 98.983Z" fill="#088FC8"/>
</g>
<path d="M219.908 80.3413C220.108 80.5665 219.908 80.6416 219.908 80.7667C219.34 81.5685 218.821 82.404 218.355 83.2688C217.878 83.3546 217.408 83.4801 216.952 83.6441C217.678 82.268 218.305 81.142 218.63 80.5916C218.714 80.4411 218.838 80.3168 218.989 80.2329C219.139 80.1489 219.31 80.1085 219.482 80.1162L219.908 80.3413Z" fill="#088FC8"/>
<path d="M222.739 79.5412C222.739 80.3919 222.363 81.743 222.012 83.3444C221.583 83.2525 221.148 83.1939 220.71 83.1692C220.935 81.8431 221.06 80.8172 221.111 80.1917C221.136 79.9703 221.215 79.7585 221.342 79.5751C221.468 79.3918 221.639 79.2426 221.837 79.1408L222.037 79.0157C222.118 78.9687 222.211 78.9465 222.305 78.952C222.398 78.9574 222.488 78.9902 222.563 79.0463C222.637 79.1023 222.694 79.1792 222.725 79.2672C222.757 79.3552 222.762 79.4505 222.739 79.5412Z" fill="#088FC8"/>
<path d="M235.491 48.8157C227.889 46.3869 219.718 46.3869 212.117 48.8157C212.117 48.8157 210.138 64.8291 213.244 70.1836C213.244 70.1836 218.706 80.192 226.171 74.5122C229.152 72.2353 232.008 70.5089 232.559 67.006L235.491 48.8157Z" fill="#FCC892"/>
<path d="M229.027 56.9723C227.992 56.3284 226.804 55.9706 225.584 55.9354C224.365 55.9002 223.159 56.189 222.088 56.7721L222.964 55.2709C226.447 54.0198 227.975 55.2709 227.975 55.2709L229.027 56.9723Z" fill="#182436"/>
<path d="M239.95 54.5206C239.884 56.4363 239.666 58.3438 239.299 60.2253C237.846 65.5548 234.288 67.4314 234.288 67.1061C234.288 66.7808 234.288 66.3304 234.438 65.7049H234.639C235.459 64.9682 236.036 63.9995 236.292 62.9276C237.345 59.875 237.67 55.4213 234.313 55.1211L233.411 55.6715C233.411 55.6715 233.411 58.1736 233.411 58.8992C233.411 59.6248 233.111 59.5998 233.086 59.5998C232.699 59.7492 232.295 59.8501 231.883 59.9001C231.658 59.9001 231.708 59.6248 231.708 59.6248C231.708 59.6248 231.708 59.3496 231.708 59.2495V58.3237C231.708 58.0235 231.708 57.7733 231.708 57.448C231.723 57.4077 231.723 57.3632 231.708 57.3229V56.7724C231.717 56.6475 231.717 56.5221 231.708 56.3971C231.708 56.3971 231.708 56.1719 231.708 56.0719C231.845 55.5724 231.845 55.0451 231.708 54.5456L231.532 53.895L231.056 52.1436V52.0185C231.011 51.7712 230.944 51.5284 230.856 51.2929C230.844 51.252 230.844 51.2086 230.856 51.1678C230.405 49.7165 229.929 49.6915 229.754 49.5414C229.578 49.3913 229.353 49.3412 229.353 49.3412L228.777 49.1411L227.95 48.8909H227.725C227.128 48.7213 226.503 48.6737 225.887 48.7511C225.272 48.8285 224.678 49.0292 224.142 49.3412L223.591 49.5414C222.724 49.8797 221.785 49.9952 220.862 49.8771C219.938 49.7591 219.059 49.4114 218.305 48.8658H218.155C217.734 48.5879 217.253 48.4161 216.752 48.3654C216.058 48.3768 215.377 48.5585 214.77 48.8945C214.162 49.2304 213.647 49.7104 213.269 50.292C212.548 51.3072 212.014 52.4425 211.691 53.6448C211.683 53.6945 211.683 53.7453 211.691 53.795C211.691 54.8709 211.541 55.5965 211.541 55.5965C210.796 54.961 210.322 54.0665 210.213 53.0944C210.081 52.46 210.006 51.8153 209.988 51.1678V49.7916C210.263 44.7874 214.096 38.5322 232.535 40.5839C230.676 40.5704 228.883 41.2688 227.524 42.5355C229.448 41.4749 231.654 41.0377 233.837 41.2845H234.739C237.821 41.5847 238.898 42.9109 239.249 43.6365C239.223 43.7434 239.223 43.8548 239.249 43.9617C239.446 44.4761 239.572 45.0148 239.624 45.5631C239.624 46.4888 239.775 47.3896 239.825 48.2653C239.875 49.1411 239.825 49.2662 239.825 49.7416C240.025 51.6181 240.025 53.1694 239.95 54.5206Z" fill="#182436"/>
<path d="M231.282 52.0189L231.106 51.3184C231.185 51.5465 231.243 51.7809 231.282 52.0189Z" fill="#182436"/>
<path d="M218.305 58.6235C218.305 59.6744 217.127 60.5501 215.649 60.5501C214.171 60.5501 213.144 59.6744 213.144 58.6235C213.119 58.4555 213.156 58.2843 213.248 58.1416C213.341 57.999 213.482 57.8946 213.645 57.8479C214.084 57.7652 214.534 57.7652 214.973 57.8479H215.449C217.002 57.7228 218.305 57.5476 218.305 58.6235Z" fill="white"/>
<path d="M215.449 58.6498C215.43 58.9395 215.299 59.2107 215.084 59.4065C214.869 59.6023 214.587 59.7077 214.296 59.7006C214.152 59.7074 214.007 59.6855 213.871 59.6363C213.734 59.5871 213.609 59.5115 213.502 59.4139C213.395 59.3163 213.308 59.1986 213.247 59.0674C213.185 58.9363 213.15 58.7944 213.144 58.6498C213.149 58.4418 213.219 58.2406 213.344 58.0743C213.32 58.125 213.307 58.1806 213.307 58.2369C213.307 58.2932 213.32 58.3488 213.344 58.3995C213.354 58.4558 213.374 58.5097 213.404 58.5579C213.434 58.6062 213.474 58.6479 213.521 58.6806C213.567 58.7133 213.62 58.7363 213.676 58.7481C213.732 58.76 213.789 58.7606 213.846 58.7498C213.903 58.7445 213.96 58.7266 214.01 58.6974C214.06 58.6682 214.104 58.6284 214.137 58.5808C214.17 58.5332 214.193 58.4788 214.203 58.4216C214.213 58.3644 214.211 58.3056 214.196 58.2494C214.19 58.1909 214.172 58.1343 214.143 58.0832C214.114 58.032 214.075 57.9874 214.028 57.9521C213.981 57.9168 213.927 57.8917 213.87 57.8783C213.813 57.8649 213.753 57.8634 213.695 57.8741C213.651 57.8785 213.608 57.8919 213.57 57.9134C213.531 57.9349 213.497 57.9641 213.47 57.9992V57.8491C213.908 57.7665 214.359 57.7665 214.797 57.8491C214.967 57.9132 215.117 58.0211 215.231 58.1617C215.346 58.3023 215.421 58.4707 215.449 58.6498Z" fill="black"/>
<path d="M229.278 58.6235C229.278 59.6744 228.1 60.5501 226.622 60.5501C225.144 60.5501 223.967 59.6744 223.967 58.6235C223.943 58.4522 223.984 58.2782 224.081 58.135C224.178 57.9917 224.325 57.8895 224.493 57.8479C224.931 57.7652 225.382 57.7652 225.82 57.8479H226.497C227.975 57.7228 229.278 57.5476 229.278 58.6235Z" fill="white"/>
<path d="M226.422 58.6498C226.402 58.9395 226.272 59.2107 226.057 59.4065C225.842 59.6023 225.56 59.7077 225.269 59.7006C225.124 59.7108 224.978 59.6914 224.84 59.6435C224.702 59.5956 224.575 59.5202 224.468 59.4219C224.36 59.3236 224.273 59.2045 224.213 59.0718C224.153 58.939 224.12 58.7955 224.117 58.6498C224.11 58.4398 224.182 58.2348 224.317 58.0743C224.293 58.125 224.28 58.1806 224.28 58.2369C224.28 58.2932 224.293 58.3488 224.317 58.3995C224.326 58.4558 224.347 58.5097 224.377 58.5579C224.407 58.6062 224.447 58.6479 224.494 58.6806C224.54 58.7133 224.593 58.7363 224.649 58.7481C224.705 58.76 224.762 58.7606 224.818 58.7498C224.919 58.7148 225.004 58.6452 225.059 58.5534C225.113 58.4615 225.133 58.3535 225.115 58.2484C225.097 58.1433 225.042 58.048 224.96 57.9795C224.878 57.9109 224.775 57.8736 224.668 57.8741C224.574 57.8898 224.487 57.9334 224.418 57.9992L224.568 57.8491C225.007 57.7665 225.457 57.7665 225.896 57.8491C226.042 57.9297 226.166 58.0448 226.258 58.1843C226.35 58.3239 226.406 58.4836 226.422 58.6498Z" fill="black"/>
<path d="M224.192 64.5545C224.015 64.8003 223.754 64.972 223.458 65.0367C223.162 65.1013 222.852 65.0544 222.589 64.9048C222.082 65.2328 221.499 65.4216 220.896 65.4524C220.294 65.4831 219.694 65.3547 219.157 65.08L220.459 60.0508L218.781 65.055C218.781 65.055 219.633 66.2309 222.664 65.4553C222.639 65.5053 224.042 65.8306 224.192 64.5545Z" fill="#D3A57D"/>
<path d="M236.994 59.0249V59.4252C236.954 60.5618 236.734 61.685 236.342 62.753C236.178 63.4102 235.943 64.0477 235.641 64.6546C234.938 65.915 233.784 66.8626 232.409 67.3068L231.332 68.783C233.637 65.7305 233.336 55.6721 233.336 55.6721C236.743 53.4702 236.994 57.5486 236.994 59.0249Z" fill="#FCC892"/>
<path d="M233.486 62.7015C233.495 62.7968 233.533 62.887 233.596 62.9589C233.659 63.0309 233.744 63.081 233.837 63.1019C234.138 63.1019 234.889 62.4013 235.741 60.5998C235.994 60.1198 236.105 59.5777 236.061 59.0371C236.016 58.4964 235.819 57.9796 235.491 57.5472C235.491 57.5472 233.637 55.9209 234.063 57.9976C234.25 59.589 234.053 61.2022 233.486 62.7015Z" fill="#F7AD8D"/>
<path d="M221.787 69.8828C221.391 70.0521 220.965 70.1394 220.534 70.1394C220.104 70.1394 219.678 70.0521 219.282 69.8828C219.631 70.1806 220.075 70.3443 220.534 70.3443C220.994 70.3443 221.438 70.1806 221.787 69.8828Z" fill="#D3A57D"/>
<path d="M226.622 66.0293L227.749 67.3054C227.749 67.3054 227.925 68.1311 227.449 68.4063C227.449 68.4063 228.075 68.4063 228 67.0051C227.575 66.634 227.113 66.307 226.622 66.0293Z" fill="#D3A57D"/>
<path d="M221.111 66.3809L221.486 67.732C221.486 67.732 220.284 68.3325 219.708 67.9572C220.146 68.0031 220.589 67.9251 220.985 67.732L221.111 66.3809Z" fill="#D3A57D"/>
<path opacity="0.4" d="M230.029 61.627C229.459 62.0634 228.783 62.3418 228.071 62.4341C227.358 62.5264 226.634 62.4292 225.971 62.1524C226.837 63.1174 227.832 63.9592 228.927 64.6545C228.927 64.6545 229.678 64.1791 230.029 61.627Z" fill="#F7DAD0"/>
<path opacity="0.4" d="M211.967 61.9766C212.537 62.413 213.213 62.6914 213.925 62.7837C214.638 62.876 215.362 62.7788 216.025 62.502C215.158 63.4659 214.163 64.3076 213.069 65.0041C213.069 65.0041 212.317 64.5287 211.967 61.9766Z" fill="#F7DAD0"/>
<path d="M232.259 45.2637C232.259 45.2637 228.752 46.9651 228.977 49.1419L228.15 48.8917H227.925C227.328 48.7221 226.703 48.6746 226.088 48.752C225.472 48.8294 224.878 49.0301 224.342 49.3421L223.791 49.5422C224.693 48.2912 224.768 45.614 232.259 45.2637Z" fill="#B7B7B7"/>
<path d="M223.791 44.2362C218.58 46.7383 218.781 47.564 218.43 48.84H218.28C217.86 48.562 217.378 48.3903 216.877 48.3396C216.183 48.351 215.502 48.5327 214.895 48.8687C214.288 49.2046 213.772 49.6846 213.395 50.2662C214.572 46.363 215.674 45.3871 216.777 44.6615C216.637 44.7882 216.525 44.9427 216.449 45.115C216.372 45.2874 216.333 45.4738 216.333 45.6624C216.333 45.8509 216.372 46.0373 216.449 46.2097C216.525 46.3821 216.637 46.5366 216.777 46.6632C221.286 43.0602 223.791 44.2362 223.791 44.2362Z" fill="#B7B7B7"/>
<path d="M239.299 60.2246C237.845 65.5541 234.288 67.4306 234.288 67.1054C234.288 66.7801 234.288 66.3297 234.438 65.7042H234.639C235.459 64.9675 236.036 63.9988 236.292 62.9269L239.299 60.2246Z" fill="#182436"/>
<path d="M225.069 69.2327C222.296 69.3585 219.517 69.3 216.751 69.0576C219.52 68.7492 222.316 68.8081 225.069 69.2327Z" fill="#823F3F"/>
<path d="M239.173 43.7363C239.148 43.8433 239.148 43.9547 239.173 44.0616C239.185 43.9535 239.185 43.8445 239.173 43.7363Z" fill="#231F20"/>
<path d="M217.954 55.0467L218.781 56.523C217.781 55.9562 216.645 55.675 215.496 55.7103C214.347 55.7456 213.23 56.096 212.267 56.7231L213.219 55.1468C213.219 55.1468 214.622 53.8708 217.954 55.0467Z" fill="#182436"/>
<path d="M231.282 52.0189L231.106 51.3184C231.185 51.5465 231.243 51.7809 231.282 52.0189Z" fill="#182436"/>
<path d="M233.336 55.6709C233.336 55.6709 233.336 58.173 233.336 58.8986C233.336 59.6242 233.036 59.5992 233.011 59.5992C232.624 59.7486 232.22 59.8494 231.808 59.8994C231.583 59.8994 231.633 59.6242 231.633 59.6242C231.633 59.6242 231.633 59.3489 231.633 59.2489V58.3231C231.633 58.0228 231.633 57.7726 231.633 57.4473C231.648 57.4071 231.648 57.3625 231.633 57.3222V56.7718C231.642 56.6469 231.642 56.5214 231.633 56.3965C231.633 56.3965 231.633 56.1713 231.633 56.0712C231.77 55.5717 231.77 55.0444 231.633 54.5449L233.912 55.1204L233.336 55.6709Z" fill="#182436"/>
<path d="M230.656 50.2164L231.207 51.7427C232.331 51.5787 233.479 51.708 234.539 52.118C233.479 52.1481 232.428 52.3078 231.407 52.5934L231.883 54.3448C234.571 53.7837 237.363 54.0096 239.925 54.9954C239.925 53.6443 239.925 52.0179 239.925 50.3165C236.933 48.9969 233.544 48.8981 230.48 50.0412L230.656 50.2164Z" fill="#B7B7B7"/>
<path d="M230.129 58.0236C230.056 58.2035 229.972 58.3789 229.879 58.5491C229.646 58.8044 229.505 59.1303 229.478 59.4748C229.348 60.2563 229.155 61.0261 228.902 61.7768C228.838 62.0268 228.719 62.2596 228.555 62.4586C228.39 62.6576 228.184 62.8178 227.95 62.9277C227.364 63.2096 226.726 63.3705 226.076 63.4006C225.426 63.4307 224.777 63.3294 224.167 63.1029C223.171 62.6817 222.367 61.9059 221.912 60.926C221.611 60.374 221.359 59.7962 221.161 59.1996C221.161 58.9244 221.161 58.6491 220.61 58.6491C220.058 58.6491 219.833 58.6491 219.582 59.0995C219.461 59.4224 219.377 59.7583 219.332 60.1004C219.233 60.7328 218.971 61.3286 218.571 61.8289C218.171 62.3291 217.648 62.7165 217.052 62.9527C216.236 63.2036 215.363 63.2036 214.547 62.9527C213.899 62.8296 213.296 62.5312 212.806 62.0901C212.316 61.6489 211.956 61.0818 211.766 60.4506C211.616 60.0253 211.465 59.625 211.34 59.1996C211.195 58.6968 210.887 58.2566 210.463 57.9486V56.8977C210.807 56.7534 211.17 56.6607 211.541 56.6224C212.747 56.2473 214.017 56.1196 215.273 56.2471C216.116 56.3487 216.953 56.499 217.779 56.6975C218.951 57.0275 220.172 57.1461 221.386 57.0478C222.238 56.9227 223.065 56.6975 223.891 56.5724C225.27 56.2723 226.697 56.2723 228.075 56.5724C228.751 56.7525 229.437 56.8946 230.129 56.9978V58.0236ZM222.388 57.248C222.097 57.3458 221.853 57.5491 221.705 57.8178C221.556 58.0865 221.514 58.401 221.587 58.6992C222.088 60.9761 223.39 62.9027 225.695 62.9027C226.158 62.9233 226.621 62.8812 227.073 62.7776C227.409 62.7001 227.719 62.5373 227.974 62.305C228.228 62.0727 228.418 61.7787 228.526 61.4515C228.83 60.5504 228.949 59.5973 228.877 58.6491C228.876 58.3214 228.775 58.0018 228.587 57.7333C228.399 57.4649 228.133 57.2605 227.825 57.1479C227.319 56.9444 226.788 56.8098 226.246 56.7475H225.119C224.182 56.6974 223.246 56.8689 222.388 57.248ZM215.574 62.7025C216.281 62.7647 216.988 62.579 217.574 62.1772C218.159 61.7754 218.586 61.1826 218.781 60.5007C218.982 59.9703 219.109 59.4145 219.156 58.8493C219.182 58.5361 219.112 58.2225 218.956 57.95C218.799 57.6774 218.563 57.4588 218.28 57.323C217.547 56.9252 216.733 56.7025 215.9 56.6725C214.951 56.6009 213.998 56.6683 213.069 56.8727C212.813 56.9227 212.567 57.0157 212.342 57.1479C212.146 57.245 211.985 57.4009 211.882 57.5938C211.779 57.7866 211.738 58.0069 211.766 58.2238C211.816 59.2575 212.098 60.2667 212.593 61.1763C212.783 61.5895 213.077 61.947 213.445 62.2143C213.814 62.4816 214.245 62.6497 214.697 62.7025C214.997 62.7276 215.299 62.7276 215.599 62.7025H215.574Z" fill="#070707"/>
<path d="M234.388 54.6465L235.14 54.9217H234.488L229.478 58.0493V57.5489L234.388 54.6465Z" fill="#070707"/>
<path d="M230.029 56.9988V58.1748L233.862 55.1973L230.029 56.9988Z" fill="#070707"/>
<path d="M211.465 56.7226V56.3223L210.463 56.8977L211.465 56.7226Z" fill="#070707"/>
</g>
<defs>
<clipPath id="clip0_8796_40461">
<rect width="312" height="269" fill="white"/>
</clipPath>
</defs>
</svg>
