<svg width="279" height="261" viewBox="0 0 279 261" fill="none" xmlns="http://www.w3.org/2000/svg">
<path d="M83.4548 63.1692C81.9153 64.369 80.8993 66.1042 80.6149 68.0193C80.6522 69.4046 80.8605 70.7803 81.2354 72.1159C81.5271 74.0594 81.5271 76.0348 81.2354 77.9783C80.782 80.6388 80.3285 83.3228 79.899 86.0068L74.4817 83.1109L69.327 73.6933L70.0191 68.7727C70.6963 65.4423 70.929 62.0388 70.7112 58.6488C70.3532 53.1396 83.4548 63.1692 83.4548 63.1692Z" fill="#FFCC99"/>
<path d="M144.691 260.96C218.393 260.96 278.141 250.471 278.141 237.534C278.141 224.596 218.393 214.107 144.691 214.107C70.9884 214.107 11.2408 224.596 11.2408 237.534C11.2408 250.471 70.9884 260.96 144.691 260.96Z" fill="#476577"/>
<path d="M187.074 197.413C185.913 202.529 184.267 207.527 182.158 212.34C181.92 212.504 181.49 213.376 181.753 213.211C181.371 213.964 182.612 214.435 183.018 213.705L183.733 212.245C188.22 210.338 193.279 210.315 198.052 209.091C201.822 208.166 205.253 206.216 207.956 203.464C215.402 195.882 218.027 185.123 225.997 177.848C232.87 171.585 241.366 167.442 249.265 162.639C257.721 157.909 264.842 151.167 269.98 143.027C273.774 136.552 277.735 127.299 275.277 119.671C272.7 111.596 263.87 112.019 257.212 114.539C237.858 121.861 223.062 136.128 211.345 152.538C204.611 161.485 198.587 170.93 193.327 180.791C190.682 186.11 188.587 191.679 187.074 197.413Z" fill="#65BEBF"/>
<path d="M180.201 215.895C179.008 218.532 177.815 221.193 176.669 223.877L178.411 224.159C179.294 222.04 180.225 219.945 181.204 217.849C182.182 215.754 182.993 214.059 183.924 212.175C185.261 209.468 186.645 206.76 188.1 204.123C196.058 200.075 203.341 194.851 209.698 188.631C209.841 188.49 209.698 188.231 209.483 188.372C202.896 193.717 195.904 198.025 188.888 202.664C192.398 196.33 196.295 190.214 200.558 184.346C203.74 180.062 207.057 175.933 210.509 171.962C222.632 164.028 237.022 160.19 248.931 151.903C236.999 158.66 223.587 162.78 212.132 170.314C224.189 156.969 238.249 145.527 253.823 136.388C254.109 136.223 253.823 135.752 253.537 135.893C232.309 147.486 213.858 163.449 199.436 182.698C200.08 181.262 200.701 179.826 201.369 178.413C203.397 174.105 205.641 169.867 208.051 165.747C212.556 158.009 217.637 150.611 223.253 143.616C223.253 143.427 223.253 143.616 223.253 143.616C217.17 150.508 211.745 157.94 207.049 165.817C202.729 173.116 199.341 180.862 195.474 188.396C191.259 194.683 187.449 201.225 184.067 207.984C182.635 210.645 181.299 213.258 180.201 215.895Z" fill="#3E7979"/>
<path d="M182.348 224.845L185.522 225.433L187.909 225.881C190.08 226.304 192.109 226.728 194.042 227.152C204.399 223.809 216.546 224.138 227.07 223.15C233.824 222.537 243.179 221.643 245.971 214.297C247.236 210.977 246.305 207.234 247.283 203.961C248.858 198.617 254.132 195.203 258.667 192.448C264.179 189.058 271.744 184.702 272.484 177.545C273.224 170.388 264.179 171.636 259.597 172.672C243.68 176.25 229.29 184.443 215.496 192.849L213.754 193.908C206.096 198.33 199.094 203.773 192.944 210.083C192.276 210.789 191.608 211.519 190.987 212.272C187.64 216.131 184.743 220.349 182.348 224.845Z" fill="#65BEBF"/>
<path d="M185.523 225.434L187.909 225.881L188.816 224.869C189.103 224.539 189.413 224.233 189.723 223.904C203.206 217.288 218.981 219.195 232.87 213.497C232.87 213.497 232.87 213.238 232.87 213.285C219.816 217.782 203.994 215.852 191.537 222.02C203.589 209.042 218.565 199.042 235.256 192.826C235.348 192.798 235.425 192.735 235.47 192.651C235.514 192.567 235.523 192.469 235.495 192.378C235.466 192.288 235.403 192.212 235.318 192.168C235.233 192.124 235.133 192.115 235.042 192.143C223.482 195.465 212.692 200.984 203.278 208.388C208.87 202.742 214.973 197.612 221.51 193.061C221.548 193.02 221.572 192.967 221.577 192.912C221.582 192.856 221.569 192.8 221.54 192.753C221.51 192.705 221.466 192.668 221.413 192.647C221.361 192.626 221.303 192.623 221.248 192.637C217.411 194.977 213.786 197.639 210.413 200.595C208.409 202.361 206.5 204.221 204.686 206.152C203.469 207.423 202.3 208.741 201.13 210.083C195.479 214.736 190.256 219.873 185.523 225.434Z" fill="#3E7979"/>
<path d="M238.716 206.689C232.273 208.337 225.83 210.127 219.339 211.775C226.029 211.116 232.593 209.531 238.836 207.066C238.871 207.068 238.906 207.062 238.938 207.048C238.97 207.034 238.998 207.013 239.019 206.986C239.041 206.959 239.056 206.927 239.062 206.893C239.068 206.859 239.066 206.824 239.056 206.791C239.045 206.758 239.027 206.728 239.002 206.704C238.977 206.68 238.947 206.662 238.913 206.652C238.88 206.642 238.845 206.64 238.81 206.646C238.776 206.653 238.744 206.668 238.716 206.689Z" fill="#3E7979"/>
<path d="M248.597 189.999C241.402 194.2 233.877 197.821 226.093 200.829C226.093 200.829 226.093 201.041 226.093 200.994C234.21 198.762 241.862 195.127 248.692 190.258C248.719 190.241 248.74 190.215 248.75 190.184C248.761 190.154 248.76 190.121 248.749 190.091C248.738 190.061 248.717 190.035 248.689 190.019C248.662 190.002 248.629 189.995 248.597 189.999Z" fill="#3E7979"/>
<path d="M151.874 80.9181C161.443 80.9181 169.2 73.2654 169.2 63.8252C169.2 54.3851 161.443 46.7324 151.874 46.7324C142.306 46.7324 134.549 54.3851 134.549 63.8252C134.549 73.2654 142.306 80.9181 151.874 80.9181Z" fill="#B6E3F5"/>
<path d="M151.016 53.8691H142.949V56.6238H144.119V73.2928C144.083 73.6744 144.128 74.0591 144.251 74.4224C144.375 74.7858 144.574 75.1197 144.835 75.4029C145.097 75.6861 145.416 75.9123 145.771 76.0671C146.126 76.2219 146.51 76.3018 146.899 76.3018C147.287 76.3018 147.671 76.2219 148.027 76.0671C148.382 75.9123 148.701 75.6861 148.962 75.4029C149.224 75.1197 149.423 74.7858 149.546 74.4224C149.67 74.0591 149.715 73.6744 149.679 73.2928V56.6238H151.016V53.8691Z" fill="white"/>
<path d="M160.823 53.8691H152.661V56.6238H153.831V73.2928C153.831 74.0234 154.125 74.724 154.648 75.2406C155.172 75.7572 155.882 76.0474 156.623 76.0474C157.363 76.0474 158.073 75.7572 158.597 75.2406C159.121 74.724 159.415 74.0234 159.415 73.2928V56.6238H160.727L160.823 53.8691Z" fill="white"/>
<path d="M145.049 61.2129H148.724V72.9848C148.724 73.4656 148.53 73.9267 148.186 74.2667C147.841 74.6067 147.374 74.7977 146.886 74.7977C146.399 74.7977 145.932 74.6067 145.587 74.2667C145.242 73.9267 145.049 73.4656 145.049 72.9848V61.2129Z" fill="#E23670"/>
<path d="M154.881 65.4258H158.58V72.9834C158.58 73.4642 158.386 73.9253 158.042 74.2652C157.697 74.6052 157.23 74.7962 156.742 74.7962C156.499 74.7993 156.257 74.7548 156.032 74.665C155.806 74.5753 155.601 74.4423 155.427 74.2736C155.254 74.105 155.117 73.9041 155.023 73.6826C154.929 73.4611 154.881 73.2234 154.881 72.9834V65.4258Z" fill="#0397C1"/>
<path d="M196.524 220.957H201.226V175.164H196.524V220.957Z" fill="#252F3A"/>
<path d="M196.835 224.256H200.915C201.825 224.256 202.562 223.529 202.562 222.631V220.771C202.562 219.874 201.825 219.147 200.915 219.147H196.835C195.925 219.147 195.188 219.874 195.188 220.771V222.631C195.188 223.529 195.925 224.256 196.835 224.256Z" fill="black"/>
<path d="M194.997 222.985V220.395C194.993 220.205 195.029 220.015 195.101 219.838C195.172 219.661 195.279 219.5 195.415 219.364C195.55 219.229 195.712 219.121 195.89 219.047C196.068 218.973 196.259 218.936 196.452 218.936H201.225C201.618 218.936 201.994 219.089 202.272 219.363C202.549 219.637 202.705 220.008 202.705 220.395V222.985C202.705 223.372 202.549 223.744 202.272 224.017C201.994 224.291 201.618 224.445 201.225 224.445H196.452C196.259 224.445 196.068 224.407 195.89 224.333C195.712 224.26 195.55 224.152 195.415 224.016C195.279 223.88 195.172 223.719 195.101 223.542C195.029 223.365 194.993 223.176 194.997 222.985ZM196.452 219.336C196.172 219.342 195.905 219.456 195.708 219.654C195.512 219.852 195.402 220.118 195.402 220.395V222.985C195.402 223.262 195.512 223.528 195.708 223.726C195.905 223.924 196.172 224.038 196.452 224.045H201.225C201.366 224.045 201.506 224.017 201.636 223.964C201.767 223.911 201.885 223.833 201.985 223.734C202.084 223.636 202.163 223.519 202.217 223.391C202.271 223.262 202.299 223.124 202.299 222.985V220.395C202.299 220.256 202.271 220.118 202.217 219.99C202.163 219.861 202.084 219.744 201.985 219.646C201.885 219.548 201.767 219.47 201.636 219.416C201.506 219.363 201.366 219.336 201.225 219.336H196.452Z" fill="black"/>
<path d="M201.464 221.123V222.3C201.464 222.612 201.59 222.911 201.814 223.132C202.038 223.353 202.341 223.477 202.658 223.477H214.709C214.849 223.477 214.982 223.532 215.081 223.629C215.179 223.726 215.234 223.858 215.234 223.995V229.434H218.814V223.218C218.814 222.35 218.464 221.518 217.842 220.904C217.22 220.29 216.377 219.945 215.497 219.945H202.777C202.611 219.929 202.443 219.947 202.284 219.999C202.125 220.05 201.979 220.135 201.855 220.246C201.731 220.357 201.633 220.492 201.565 220.643C201.498 220.794 201.464 220.958 201.464 221.123Z" fill="#252F3A"/>
<path d="M216.929 234.734C218.827 234.734 220.365 233.216 220.365 231.343C220.365 229.471 218.827 227.953 216.929 227.953C215.031 227.953 213.492 229.471 213.492 231.343C213.492 233.216 215.031 234.734 216.929 234.734Z" fill="black"/>
<path d="M213.277 231.342C213.277 230.63 213.491 229.934 213.892 229.341C214.293 228.749 214.864 228.287 215.531 228.014C216.198 227.742 216.932 227.67 217.64 227.809C218.349 227.948 218.999 228.292 219.51 228.795C220.021 229.299 220.368 229.941 220.509 230.64C220.65 231.338 220.578 232.063 220.301 232.721C220.025 233.379 219.557 233.942 218.957 234.338C218.356 234.733 217.65 234.945 216.928 234.945C215.962 234.938 215.037 234.557 214.353 233.883C213.67 233.209 213.283 232.296 213.277 231.342ZM213.683 231.342C213.683 231.976 213.873 232.595 214.23 233.121C214.586 233.648 215.093 234.058 215.686 234.301C216.279 234.543 216.932 234.606 217.561 234.483C218.191 234.359 218.769 234.054 219.223 233.607C219.677 233.159 219.986 232.588 220.111 231.967C220.237 231.346 220.172 230.702 219.927 230.117C219.681 229.532 219.265 229.032 218.731 228.68C218.198 228.328 217.57 228.14 216.928 228.14C216.501 228.137 216.078 228.218 215.682 228.378C215.287 228.538 214.928 228.773 214.626 229.071C214.324 229.369 214.085 229.724 213.923 230.113C213.761 230.503 213.679 230.921 213.683 231.342Z" fill="black"/>
<path d="M196.285 221.123V222.3C196.288 222.453 196.26 222.606 196.203 222.748C196.146 222.891 196.06 223.021 195.951 223.131C195.842 223.24 195.712 223.327 195.569 223.387C195.425 223.446 195.271 223.477 195.116 223.477H182.993C182.853 223.477 182.72 223.531 182.621 223.629C182.523 223.726 182.468 223.857 182.468 223.995V229.433H178.912V223.218C178.912 222.35 179.261 221.518 179.883 220.904C180.506 220.29 181.349 219.945 182.229 219.945H195.14C195.293 219.948 195.445 219.981 195.585 220.042C195.726 220.103 195.853 220.19 195.96 220.3C196.066 220.409 196.15 220.538 196.205 220.679C196.261 220.82 196.288 220.971 196.285 221.123Z" fill="#252F3A"/>
<path d="M180.821 234.734C182.719 234.734 184.258 233.216 184.258 231.343C184.258 229.471 182.719 227.953 180.821 227.953C178.923 227.953 177.385 229.471 177.385 231.343C177.385 233.216 178.923 234.734 180.821 234.734Z" fill="black"/>
<path d="M177.194 231.342C177.194 230.629 177.408 229.932 177.811 229.339C178.213 228.746 178.785 228.284 179.453 228.012C180.122 227.74 180.857 227.67 181.566 227.811C182.275 227.952 182.925 228.298 183.435 228.804C183.945 229.31 184.291 229.954 184.429 230.654C184.567 231.354 184.491 232.079 184.211 232.737C183.931 233.395 183.46 233.956 182.856 234.349C182.252 234.742 181.544 234.949 180.821 234.945C179.857 234.938 178.934 234.556 178.255 233.881C177.575 233.206 177.194 232.294 177.194 231.342ZM177.599 231.342C177.669 232.141 178.04 232.885 178.638 233.427C179.237 233.969 180.02 234.27 180.833 234.27C181.646 234.27 182.429 233.969 183.027 233.427C183.626 232.885 183.997 232.141 184.067 231.342C184.105 230.9 184.05 230.455 183.905 230.035C183.76 229.616 183.528 229.23 183.224 228.903C182.92 228.576 182.551 228.315 182.139 228.137C181.727 227.958 181.283 227.866 180.833 227.866C180.383 227.866 179.939 227.958 179.527 228.137C179.115 228.315 178.746 228.576 178.442 228.903C178.138 229.23 177.906 229.616 177.761 230.035C177.616 230.455 177.561 230.9 177.599 231.342Z" fill="black"/>
<path d="M229.433 172.012C229.433 172.012 230.03 168.457 224.064 166.597C218.098 164.737 197.288 159.228 194.233 159.087C191.179 158.946 166.097 161.936 166.097 165.255C166.097 165.255 165.477 171.965 167.171 173.354C173.424 178.581 189.055 183.949 192.014 184.797C194.973 185.644 217.644 181.571 226.355 180.088C227.317 179.922 228.185 179.413 228.792 178.658C229.399 177.903 229.704 176.954 229.648 175.991L229.433 172.012Z" fill="#0B507F"/>
<path d="M228.551 168.669C228.551 168.669 233.324 168.175 233.61 161.865C233.896 155.555 232.417 129.139 235.782 118.662C239.146 108.185 239.003 97.2369 226.236 95.7537C213.468 94.2704 201.202 93.5405 198.243 102.369C195.284 111.198 194.424 149.08 191.561 155.72C188.697 162.359 218.456 167.845 228.551 168.669Z" fill="#3063A0"/>
<path d="M207.741 100.698C207.741 100.698 224.16 99.1207 225.472 106.725C226.09 112.126 225.52 117.595 223.802 122.759L207.741 100.698Z" fill="#1F568C"/>
<path d="M197.812 87.9129C197.812 87.9129 193.23 87.1124 187.217 91.8211C181.203 96.5299 191.083 96.5299 191.083 96.5299L196.905 92.9983C196.905 92.9983 199.507 88.7604 197.812 87.9129Z" fill="#65BEBF"/>
<path d="M176.025 151.248C176.025 151.248 159.845 154.591 155.311 160.901C150.776 167.211 156.074 192.662 163.973 208.271C171.873 223.881 190.702 156.475 190.702 156.475C186.275 153.655 181.256 151.868 176.025 151.248Z" fill="#1E4668"/>
<path d="M186.286 154.635C186.286 154.635 164.068 159.132 162.422 168.761C160.775 178.39 166.025 197.296 166.025 197.296C166.025 197.296 194.853 159.603 186.286 154.635Z" fill="#153B5A"/>
<path d="M201.822 92.3173L195.259 89.9629L187.813 93.8241C187.813 93.8241 186.071 94.1772 184.257 98.886C182.444 103.595 184.257 137.733 184.257 137.733C184.257 137.733 183.422 151.977 180.773 153.673C185.654 156.83 191.532 158.127 197.311 157.322L201.822 92.3173Z" fill="#3E4A60"/>
<path d="M195.259 83.0391C195.534 85.7782 196.476 88.4112 198.004 90.7143C198.004 90.7143 196.19 102.486 189.317 101.592C189.317 101.592 186.334 100.72 187.861 93.9163L186.978 89.8432L195.259 83.0391Z" fill="#F4A589"/>
<path d="M176.526 79.6277C176.585 81.2077 176.76 82.7815 177.051 84.3364C177.767 88.2683 179.222 91.5879 181.633 92.2001C184.201 92.7026 186.866 92.2852 189.15 91.0229C193.446 88.9275 195.307 84.1481 195.14 78.4505C194.925 70.1866 188.124 62.4878 182.158 66.9611C182.158 66.9611 178.626 66.1135 177.17 71.2932C176.554 74.0268 176.337 76.8334 176.526 79.6277Z" fill="#FBBD9D"/>
<path d="M181.299 67.9966C181.299 67.9966 182.468 74.7773 190.844 74.5889C190.844 74.5889 191.155 76.1428 194.209 76.5195L193.732 81.4402L196.906 83.5356C197.715 83.4132 198.463 83.0424 199.046 82.476C199.629 81.9096 200.016 81.1764 200.152 80.3807C200.152 80.3807 207.311 72.4464 202.538 67.3139C202.538 67.3139 202.968 61.8517 195.856 60.91C195.856 60.91 192.539 55.542 185.26 59.8976C185.26 59.8976 177.218 60.7687 176.812 64.9595C176.812 64.9595 174.068 70.7513 174.426 72.8467C174.497 73.4469 174.771 74.0058 175.204 74.4331C175.637 74.8603 176.204 75.1309 176.812 75.2011C176.939 73.7383 177.411 72.3251 178.19 71.0742C178.969 69.8233 180.033 68.7694 181.299 67.9966Z" fill="black"/>
<path d="M196.786 83.7451L193.588 81.6497C193.568 81.6139 193.556 81.5733 193.556 81.532C193.556 81.4906 193.568 81.45 193.588 81.4143L194.042 76.7055C191.655 76.3523 190.939 75.2693 190.749 74.822C189.249 74.927 187.745 74.6811 186.36 74.1042C184.975 73.5273 183.748 72.6358 182.778 71.5023C182.04 70.5822 181.496 69.5254 181.179 68.3945C179.546 69.5645 178.267 71.1518 177.48 72.9856C177.162 73.7326 176.984 74.5303 176.955 75.3399C176.966 75.366 176.972 75.394 176.972 75.4223C176.972 75.4506 176.966 75.4787 176.955 75.5047C176.927 75.524 176.894 75.5343 176.859 75.5343C176.825 75.5343 176.792 75.524 176.764 75.5047C176.105 75.4325 175.489 75.1456 175.014 74.6893C174.538 74.2331 174.23 73.6336 174.139 72.9856C173.781 70.8902 176.287 65.5457 176.525 65.0042C176.979 60.8134 184.329 59.8481 185.117 59.7539C186.291 58.9248 187.652 58.3906 189.082 58.1978C190.513 58.005 191.97 58.1593 193.326 58.6474C194.371 59.1201 195.275 59.8497 195.951 60.7663C197.188 60.8572 198.386 61.2378 199.444 61.8765C200.502 62.5153 201.391 63.3938 202.036 64.4391C202.507 65.3255 202.752 66.311 202.752 67.3115C203.75 68.5159 204.344 69.9952 204.456 71.5465C204.567 73.0977 204.188 74.6449 203.373 75.9756C202.582 77.6673 201.571 79.2501 200.366 80.6844C200.199 81.5126 199.781 82.2712 199.167 82.8599C198.554 83.4485 197.773 83.8393 196.929 83.9805L196.786 83.7451ZM185.355 60.2012C183.969 60.391 182.609 60.7305 181.298 61.2136C179.508 61.8729 177.313 63.0736 177.098 65.0984C177.098 65.0984 176.406 66.5581 175.786 68.2297C175.097 69.7077 174.731 71.312 174.712 72.9385C174.77 73.4251 174.98 73.8817 175.314 74.2447C175.648 74.6076 176.088 74.8588 176.573 74.9632C176.778 73.5275 177.295 72.1525 178.091 70.9331C178.886 69.7138 179.939 68.679 181.179 67.9001C181.219 67.8774 181.264 67.8654 181.31 67.8654C181.356 67.8654 181.402 67.8774 181.441 67.9001C181.48 67.9163 181.513 67.9423 181.539 67.9753C181.564 68.0084 181.58 68.0474 181.585 68.0884C181.854 69.2795 182.402 70.392 183.184 71.3375C184.129 72.3999 185.316 73.2267 186.648 73.7504C187.979 74.2742 189.417 74.48 190.844 74.3511C190.872 74.3478 190.901 74.3501 190.928 74.3578C190.956 74.3656 190.981 74.3786 191.003 74.3961C191.025 74.4136 191.044 74.4353 191.058 74.4599C191.071 74.4845 191.08 74.5116 191.083 74.5394C191.171 74.8272 191.346 75.0817 191.584 75.2693C192.349 75.8687 193.282 76.222 194.257 76.2817C194.316 76.2967 194.368 76.3299 194.407 76.3764C194.446 76.423 194.468 76.4806 194.471 76.5407L193.994 81.2494L196.977 83.2036C197.715 83.0777 198.393 82.7255 198.916 82.1971C199.439 81.6687 199.779 80.991 199.889 80.2606C201.087 78.8864 202.091 77.3577 202.872 75.7166C204.423 72.3263 204.208 69.5717 202.251 67.5234C202.227 67.4628 202.227 67.3956 202.251 67.335C202.276 66.3854 202.054 65.4454 201.607 64.6039C200.995 63.6093 200.143 62.7794 199.127 62.1879C198.111 61.5964 196.963 61.2618 195.784 61.2136C195.758 61.2261 195.729 61.2326 195.7 61.2326C195.672 61.2326 195.643 61.2261 195.617 61.2136C195.005 60.3531 194.185 59.6571 193.23 59.1889C192.425 58.8137 191.544 58.6207 190.653 58.6238C188.783 58.6328 186.951 59.1457 185.355 60.1071V60.2012Z" fill="black"/>
<path d="M173.543 222.35C172.583 225.193 171.981 228.143 171.753 231.131C171.753 234.734 171.276 239.254 169.915 240.196C168.555 241.138 161.467 240.525 158.699 239.984C155.931 239.442 154.905 237.276 155.716 235.77C156.129 234.894 156.694 234.097 157.387 233.415L163.209 221.055L173.543 222.35Z" fill="black"/>
<path d="M189.365 154.893C189.365 154.893 169.367 161.674 166.766 171.869C164.164 182.063 160.919 221.005 160.919 221.005C163.007 222.84 165.455 224.232 168.111 225.094C170.767 225.957 173.575 226.272 176.359 226.019L189.365 180.698C189.365 180.698 211.201 171.28 212.705 167.678C214.208 164.076 208.552 152.209 189.365 154.893Z" fill="#1E4668"/>
<path d="M186.286 156.425C186.286 156.425 201.393 156.707 211.034 165.513C211.902 166.293 212.461 167.353 212.609 168.503C212.646 168.831 212.646 169.163 212.609 169.491C212.609 169.688 212.664 169.881 212.769 170.048C212.874 170.216 213.024 170.351 213.202 170.439C213.381 170.527 213.581 170.564 213.779 170.547C213.978 170.529 214.168 170.457 214.327 170.339C217.262 168.267 222.083 164.1 222.298 159.085C222.442 155.767 222.298 152.443 221.868 149.15C221.63 147.525 221.415 146.348 221.296 145.853C221.302 145.775 221.302 145.696 221.296 145.618L221.51 145.5C222.775 144.794 228.837 140.792 226.713 130.244C225.185 122.828 222.417 110.679 215.974 101.85L215.473 101.238C211.886 96.1908 206.499 92.6672 200.39 91.373C200.39 91.373 196.095 103.145 194.042 104.864C194.066 104.864 195.331 151.575 186.286 156.425Z" fill="#E5F5E7"/>
<path d="M197.812 87.9121C196.869 93.5142 194.827 98.8806 191.798 103.71C191.798 103.71 193.755 108.725 196.428 109.361C199.101 109.996 201.201 91.2318 201.201 91.2318C200.49 89.7752 199.294 88.6034 197.812 87.9121Z" fill="#B9E7DC"/>
<path d="M136.385 150.022C136.576 150.729 137.96 151.082 137.96 151.082C137.96 151.082 138.796 153.106 140.204 153.577C141.17 154.825 142.53 155.72 144.07 156.12C146.713 156.497 149.397 156.497 152.04 156.12C153.483 155.982 154.837 155.368 155.883 154.378L160.465 150.116L168.507 148.327C168.507 148.327 170.893 139.074 166.884 137.756L156.957 143.359C154.911 143.662 152.824 143.55 150.823 143.03C148.351 142.535 145.803 142.535 143.33 143.03L141.111 143.854C141.021 143.889 140.942 143.944 140.878 144.014C140.814 144.085 140.767 144.169 140.742 144.26C140.716 144.351 140.713 144.447 140.731 144.54C140.75 144.633 140.79 144.72 140.848 144.795C140.975 144.975 141.142 145.124 141.337 145.23C141.531 145.336 141.748 145.397 141.97 145.408C143.258 145.408 146.098 145.408 146.098 145.408L146.766 146.491L146.981 146.844L146.671 147.056L144.595 148.539L143.998 148.963L140.371 149.363C140.371 149.363 137.292 148.092 136.529 149.222C136.43 149.328 136.364 149.459 136.338 149.601C136.313 149.743 136.329 149.889 136.385 150.022Z" fill="#FBBD9D"/>
<path d="M146.672 147.221C148.786 148.996 151.44 150.023 154.213 150.141C154.279 150.135 154.34 150.105 154.384 150.057C154.428 150.009 154.452 149.946 154.452 149.882C154.452 149.819 154.427 149.759 154.382 149.715C154.337 149.671 154.277 149.646 154.213 149.646C151.49 149.509 148.893 148.473 146.839 146.703L147.054 147.056L146.672 147.221Z" fill="#F7AD8D"/>
<path d="M136.386 150.02C136.386 150.02 136.386 149.149 138.534 149.572C139.707 149.836 140.912 149.939 142.114 149.878L144.023 149.455L144.596 148.701L143.999 149.125L140.372 149.525C140.372 149.525 137.293 148.254 136.529 149.384C136.459 149.473 136.409 149.576 136.385 149.686C136.36 149.796 136.36 149.91 136.386 150.02Z" fill="#F7AD8D"/>
<path d="M137.961 151.083C137.961 151.083 138.223 150.448 140.109 151.083C141.219 151.465 142.394 151.633 143.569 151.578L145.263 151.201C144.76 151.56 144.181 151.801 143.569 151.907C142.323 152.028 141.066 151.833 139.918 151.342C139.322 151.015 138.623 150.922 137.961 151.083Z" fill="#F7AD8D"/>
<path d="M140.203 153.576C140.615 153.267 141.106 153.078 141.621 153.032C142.136 152.987 142.654 153.085 143.115 153.317C144.494 153.798 145.982 153.888 147.41 153.576C146.367 154.087 145.17 154.205 144.046 153.906C142.113 153.435 140.872 153.035 140.203 153.576Z" fill="#F7AD8D"/>
<path d="M166.072 145.78C166.817 147.509 167.214 149.364 167.242 151.242C167.242 151.242 178.649 148.205 181.56 137.657C182.592 132.758 182.858 127.732 182.348 122.754C181.632 113.336 179.055 104.578 175.666 105.143C175.666 105.143 168.936 123.554 165.762 134.502C164.81 136.095 163.673 137.573 162.373 138.905C163.832 141.071 165.071 143.374 166.072 145.78Z" fill="#B9E7DC"/>
<path d="M166.073 145.786C166.818 147.514 167.215 149.37 167.242 151.248C167.242 151.248 178.65 148.211 181.561 137.663C182.593 132.764 182.859 127.738 182.349 122.76C181.609 127.704 178.435 141.595 166.168 145.056L166.073 145.786Z" fill="#65BEBF"/>
<path d="M160.918 141.076C160.918 141.076 164.641 144.16 163.806 151.977C164.119 152.18 164.446 152.361 164.784 152.518C165.566 152.933 166.454 153.113 167.338 153.036C167.543 153.007 167.744 152.952 167.934 152.872C168.892 152.493 169.754 151.915 170.464 151.176C171.098 147.774 170.901 144.271 169.891 140.958L169.748 140.441C168.34 135.944 166.121 135.12 164.975 134.978C164.811 134.96 164.645 134.986 164.494 135.052C164.343 135.118 164.213 135.223 164.116 135.355L162.47 137.474C162.284 137.473 162.106 137.54 161.968 137.662C161.487 138.077 161.133 138.617 160.947 139.221C160.762 139.824 160.752 140.467 160.918 141.076Z" fill="#65BEBF"/>
<path d="M160.918 141.076C160.918 141.076 164.641 144.16 163.806 151.977C164.119 152.18 164.445 152.361 164.784 152.518C165.93 149.622 163.829 143.101 162.398 141.453C161.952 140.931 161.683 140.286 161.627 139.606C161.572 138.927 161.732 138.247 162.087 137.662C161.585 138.063 161.208 138.597 161.001 139.202C160.794 139.806 160.765 140.456 160.918 141.076Z" fill="#65BEBF"/>
<path d="M167.934 152.866C168.891 152.488 169.754 151.909 170.464 151.171C171.097 147.769 170.901 144.266 169.891 140.953C170.506 145.028 169.823 149.191 167.934 152.866Z" fill="#65BEBF"/>
<path d="M187.575 93.541C186.471 97.7443 185.847 102.056 185.713 106.396C185.713 112.4 186.978 143.878 186.477 147.551C185.976 151.223 182.515 154.614 180.582 154.896L178.196 154.331C176.717 154.039 175.328 153.41 174.139 152.495L173.304 151.883C173.304 151.883 180.821 147.551 181.107 141.382C181.394 135.214 174.879 113.129 175.475 104.983C178.051 99.9075 182.325 95.8654 187.575 93.541Z" fill="#E5F5E7"/>
<path d="M187.217 91.8203C186.095 92.4393 185.145 93.3205 184.449 94.3866C183.661 95.8699 180.392 104.487 181.824 109.572C181.824 109.572 184.21 106.959 185.714 104.864C185.714 104.864 186.931 98.0123 187.575 94.1041C187.675 93.3248 187.551 92.5334 187.217 91.8203Z" fill="#B9E7DC"/>
<path d="M203.707 135.024C203.723 135.072 203.751 135.114 203.789 135.147C203.827 135.18 203.872 135.203 203.922 135.213C205.751 135.479 207.501 136.129 209.053 137.12C210.787 138.27 212.219 139.812 213.227 141.618C214.236 143.424 214.793 145.441 214.852 147.503C214.855 147.534 214.864 147.564 214.879 147.591C214.894 147.619 214.914 147.643 214.938 147.663C214.963 147.682 214.991 147.697 215.021 147.706C215.051 147.715 215.083 147.718 215.114 147.714C217.22 147.334 219.282 146.751 221.271 145.972C221.292 145.952 221.309 145.929 221.32 145.902C221.332 145.876 221.338 145.848 221.338 145.819C221.338 145.791 221.332 145.762 221.32 145.736C221.309 145.71 221.292 145.686 221.271 145.666C221.227 145.623 221.167 145.599 221.104 145.599C221.042 145.599 220.982 145.623 220.937 145.666C219.079 146.45 217.144 147.042 215.162 147.432C215.038 144.485 213.915 141.665 211.971 139.423C210.028 137.182 207.379 135.649 204.447 135.071L208.003 132.717C208.042 132.671 208.063 132.612 208.063 132.552C208.063 132.492 208.042 132.434 208.003 132.387C207.119 130.479 206.447 128.482 205.998 126.431C204.856 121.462 204.686 116.324 205.497 111.292C206.189 106.96 207.716 104.064 210.079 102.675C210.887 102.234 211.776 101.957 212.694 101.86C213.612 101.763 214.54 101.848 215.425 102.11C215.458 102.127 215.495 102.135 215.532 102.135C215.569 102.135 215.606 102.127 215.639 102.11L215.472 101.239C213.658 100.771 211.73 101.025 210.103 101.945C207.716 103.405 205.974 106.419 205.33 110.915C204.515 116.019 204.694 121.228 205.855 126.266C206.303 128.27 206.951 130.226 207.788 132.105L203.898 134.695C203.861 134.699 203.825 134.712 203.794 134.732C203.763 134.752 203.737 134.78 203.718 134.812C203.699 134.844 203.689 134.88 203.687 134.917C203.685 134.954 203.692 134.991 203.707 135.024Z" fill="#65BEBF"/>
<path d="M166.503 142.485C167.192 143.923 167.989 145.308 168.889 146.628C170.456 148.491 172.328 150.082 174.426 151.337C175.257 151.802 176.173 152.098 177.122 152.208C180.735 152.278 184.348 152.09 187.933 151.643L207.788 147.664C207.788 147.664 210.795 140.601 202.084 137.234L201.345 137.517L187.981 142.72C187.804 142.793 187.61 142.811 187.423 142.773C187.235 142.735 187.064 142.643 186.931 142.508C185.575 141.124 184.088 139.871 182.492 138.765C180.414 138.284 178.31 137.914 176.192 137.658C176.108 137.645 176.022 137.649 175.939 137.671C175.857 137.693 175.781 137.732 175.715 137.786C175.65 137.839 175.597 137.906 175.559 137.981C175.522 138.057 175.502 138.139 175.499 138.223C175.443 138.604 175.521 138.992 175.721 139.322C175.921 139.653 176.231 139.905 176.597 140.036C177.056 140.211 177.471 140.48 177.817 140.825C178.162 141.17 178.43 141.583 178.602 142.037L175.141 142.673C174.112 142.867 173.049 142.786 172.063 142.438L169.366 141.472C169.366 141.472 167.648 139.989 166.431 140.554C165.882 140.742 166.073 141.543 166.503 142.485Z" fill="#FBBD9D"/>
<path d="M213.444 145.102C213.795 146.41 214.561 147.573 215.63 148.42C216.7 149.268 218.016 149.755 219.387 149.811C220.23 149.759 221.048 149.508 221.773 149.081C221.534 147.456 221.32 146.279 221.2 145.785C221.206 145.706 221.206 145.628 221.2 145.549L221.415 145.432C222.68 144.725 228.741 140.723 226.617 130.175C225.09 122.759 222.322 110.61 215.879 101.781C215.879 101.781 225.019 130.575 222.751 136.932C221.933 138.903 220.669 140.664 219.056 142.08C217.443 143.496 215.524 144.529 213.444 145.102Z" fill="#B9E7DC"/>
<path d="M229.744 147.288L225.615 146.464C224.943 146.358 224.259 146.358 223.587 146.464L198.004 149.266C198.004 149.266 193.685 150.09 193.78 156.329C194.13 155.382 194.691 154.523 195.422 153.819C196.153 153.114 197.036 152.58 198.004 152.256C200.963 151.503 229.744 147.288 229.744 147.288Z" fill="#0B507F"/>
<path d="M225.114 149.759V172.832C225.114 172.832 223.801 175.917 213.444 177.541C203.087 179.166 198.29 176.081 198.29 176.081V177.965C198.29 177.965 202.514 182.674 215.807 181.261C229.099 179.848 230.555 176.552 231.367 172.197C231.794 165.14 231.794 158.064 231.367 151.007C231.355 150.618 231.263 150.236 231.098 149.883C230.933 149.53 230.698 149.213 230.406 148.952C230.114 148.69 229.772 148.489 229.4 148.361C229.028 148.233 228.634 148.18 228.24 148.205C226.641 148.323 225.114 148.629 225.114 149.759Z" fill="#4483C1"/>
<path d="M198.505 179.878C203.875 183.315 211.01 183.009 219.983 182.02C225.568 181.385 232.083 178.489 232.226 173.756C232.226 170.107 232.226 156.711 232.226 150.213C232.231 149.808 232.15 149.408 231.988 149.037C231.825 148.665 231.585 148.332 231.284 148.059C230.982 147.786 230.625 147.578 230.236 147.45C229.847 147.322 229.436 147.277 229.028 147.317L198.195 151.06C198.195 151.06 194.019 151.06 193.709 156.334C193.398 161.608 194.639 177.406 198.505 179.878ZM195.618 156.428C195.785 153.32 197.551 153.038 198.004 153.014H198.267L228.98 149.294C229.215 149.294 229.439 149.386 229.605 149.55C229.77 149.713 229.863 149.934 229.863 150.165C229.863 156.405 229.863 170.084 229.863 173.709C229.863 177.335 224.47 179.525 219.411 180.066C216.315 180.455 213.2 180.675 210.08 180.725C206.343 180.997 202.609 180.178 199.341 178.371C198.673 177.924 197.265 175.357 196.262 168.436C195.663 164.462 195.447 160.442 195.618 156.428Z" fill="#3A9ADB"/>
<path d="M175.499 138.222C180.702 138.552 182.516 141.448 184.687 143.072C186.859 144.697 186 145.427 192.849 143.072C197.332 141.715 202.085 141.464 206.69 142.343L201.44 137.422L187.98 142.719C187.804 142.792 187.61 142.81 187.422 142.772C187.235 142.735 187.064 142.642 186.93 142.507C185.575 141.123 184.088 139.87 182.492 138.764C180.413 138.283 178.31 137.913 176.191 137.657C176.107 137.644 176.022 137.648 175.939 137.67C175.857 137.692 175.781 137.731 175.715 137.785C175.65 137.838 175.597 137.905 175.559 137.981C175.522 138.056 175.502 138.138 175.499 138.222Z" fill="#F7AD8D"/>
<path d="M199.268 138.199C201.562 138.754 203.601 140.054 205.055 141.891C206.51 143.727 207.295 145.993 207.286 148.323C207.286 148.323 207.788 149.689 210.293 149.759C212.799 149.83 212.68 148.676 214.804 148.676C216.928 148.676 217.19 148.041 217.19 148.041C217.19 148.041 217.19 147.593 217.19 146.863C217.093 144.587 216.584 142.347 215.687 140.248C214.756 138.277 213.267 136.615 211.399 135.462C209.532 134.309 207.365 133.714 205.163 133.75C202.991 133.75 203.206 135.609 201.153 136.434C200.68 136.619 200.238 136.873 199.841 137.187C199.125 137.752 199.268 138.199 199.268 138.199Z" fill="#B9E7DC"/>
<path d="M199.269 138.205C201.563 138.76 203.601 140.06 205.056 141.896C206.51 143.732 207.296 145.998 207.287 148.329C207.287 148.329 207.788 149.694 210.294 149.765C212.8 149.835 212.68 148.682 214.804 148.682C216.928 148.682 217.191 148.046 217.191 148.046C217.191 148.046 217.191 147.599 217.191 146.869C216.736 147.037 216.246 147.088 215.766 147.018C215.286 146.948 214.832 146.759 214.446 146.469C212.609 145.268 211.964 138.464 205.163 136.557C205.163 136.557 211.416 142.066 210.27 145.15C209.125 148.234 209.697 138.087 199.818 137.239C199.125 137.757 199.269 138.205 199.269 138.205Z" fill="#B9E7DC"/>
<path d="M166.502 142.486C167.191 143.925 167.989 145.31 168.888 146.63C170.456 148.492 172.327 150.084 174.425 151.339C174.21 150.939 173.924 150.397 173.542 149.738C172.373 147.642 172.635 148.137 170.511 147.007C168.874 145.788 167.509 144.249 166.502 142.486Z" fill="#F7AD8D"/>
<path d="M103.381 202.692C110.314 202.692 115.934 197.147 115.934 190.308C115.934 183.468 110.314 177.924 103.381 177.924C96.4483 177.924 90.8282 183.468 90.8282 190.308C90.8282 197.147 96.4483 202.692 103.381 202.692Z" fill="#B6E3F5"/>
<path d="M110.802 184.207L106.578 181.97C106.643 181.678 106.802 181.413 107.032 181.217L105.982 180.322C105.591 181.037 105.349 181.823 105.271 182.631C105.193 183.44 105.281 184.256 105.528 185.031C105.895 186.155 106.041 187.338 105.958 188.516L104.454 186.491H105.218L105.075 185.29C104.1 185.304 103.139 185.52 102.254 185.926C101.37 186.332 100.583 186.917 99.944 187.644C99.287 188.563 98.8619 189.624 98.7042 190.738C98.5464 191.852 98.6606 192.987 99.0372 194.048C99.369 194.789 99.532 195.593 99.5145 196.403L97.9871 194.331H98.5837L98.2974 193.059C96.831 192.925 95.3687 193.355 94.2166 194.26L95.1234 195.296C95.1802 195.206 95.253 195.126 95.3382 195.061L99.2997 198.663L99.944 199.322C101.758 197.815 100.541 194.401 100.541 194.401C101.747 194.312 102.927 194.009 104.025 193.507C105.282 192.859 106.27 191.799 106.819 190.51C107.368 189.22 107.443 187.782 107.032 186.444C107.882 186.596 108.757 186.549 109.585 186.308C110.414 186.067 111.174 185.638 111.805 185.055L110.802 184.207ZM99.2997 197.768L96.0064 194.755C96.3622 194.62 96.7296 194.518 97.1042 194.449L99.4906 197.297C99.4418 197.46 99.3779 197.617 99.2997 197.768ZM100.254 193.295C100.198 192.984 100.166 192.669 100.159 192.353L102.545 192.871C101.779 193.14 100.972 193.276 100.159 193.271L100.254 193.295ZM103.595 192.424L100.016 191.647C99.9781 191.271 99.9781 190.893 100.016 190.517L103.882 192.188L103.595 192.424ZM104.598 191.67L100.278 189.881C100.412 189.505 100.597 189.149 100.827 188.822L104.765 191.506L104.598 191.67ZM105.218 190.893L101.352 188.162C101.58 187.954 101.819 187.757 102.068 187.574L105.409 190.54C105.36 190.658 105.296 190.768 105.218 190.87V190.893ZM105.671 190.022L102.808 187.174C103.021 187.06 103.245 186.965 103.476 186.891L105.862 189.599C105.743 189.716 105.719 189.858 105.671 189.999V190.022ZM106.674 185.172C106.664 184.992 106.664 184.811 106.674 184.631L109.609 185.125C108.641 185.32 107.645 185.328 106.674 185.149V185.172ZM110.325 184.749L106.483 184.019C106.448 183.611 106.448 183.202 106.483 182.794L110.516 184.607L110.325 184.749Z" fill="#2F7DC0"/>
<path d="M20.0222 125.56L10.6674 108.844L1.24094 125.419C0.483031 126.83 0.0607459 128.393 0.0060822 129.99C-0.0485815 131.586 0.265811 133.174 0.925434 134.633C1.58506 136.091 2.5726 137.383 3.81323 138.409C5.05385 139.436 6.51501 140.17 8.08596 140.556C9.65692 140.943 11.2964 140.972 12.8803 140.64C14.4642 140.309 15.9508 139.626 17.2275 138.644C18.5042 137.662 19.5376 136.405 20.2492 134.971C20.9608 133.536 21.3321 131.96 21.3348 130.363C21.2898 128.682 20.8399 127.035 20.0222 125.56Z" fill="#B6E3F5"/>
<path d="M9.78487 126.24H11.2406V129.207H14.2475V130.596H11.2406V133.562H9.78487V130.596H6.87341V129.207H9.78487V126.24Z" fill="#2F7DC0"/>
<path d="M35.8456 15.3026V157.743H113.739V160.097C113.741 163.078 112.63 165.954 110.618 168.178C108.606 170.401 105.835 171.816 102.833 172.152C102.364 172.188 101.894 172.188 101.425 172.152H36.3467C33.0809 172.152 29.9487 170.872 27.6394 168.593C25.3301 166.315 24.0327 163.225 24.0327 160.003V13.4662C24.0233 12.0102 24.3058 10.5667 24.864 9.2189C25.4223 7.87105 26.2452 6.64543 27.2855 5.61259C28.3257 4.57975 29.5627 3.76007 30.9254 3.20075C32.288 2.64142 33.7493 2.35349 35.2251 2.35352H101.425C103.05 2.35347 104.659 2.67079 106.16 3.2872C107.66 3.90361 109.022 4.8069 110.166 5.94499C111.311 7.08309 112.216 8.43348 112.829 9.91831C113.442 11.4031 113.752 12.993 113.739 14.5963V15.3026H35.8456Z" fill="#1D4D94"/>
<path d="M99.85 157.577H82.1664L81.2119 151.809L78.2765 152.445L77.6799 157.577H57.777L59.9009 136.859L60.0202 135.776C64.3984 136.3 68.8072 136.536 73.2173 136.482H73.432C76.9163 136.482 80.9255 136.247 85.3643 135.823C88.2757 135.517 91.3542 135.093 94.5521 134.528C95.4828 134.363 96.4135 134.198 97.3681 133.986L99.6113 154.917L99.85 157.577Z" fill="#29577E"/>
<path d="M95.7205 157.577H91.9499V155.929L91.1863 136.247C89.3285 136.725 87.4383 137.071 85.5304 137.282C81.5374 137.708 77.4999 137.445 73.5982 136.505H73.3834C67.4077 134.941 61.8734 132.05 57.2033 128.053C56.9885 127.865 56.7499 127.7 56.559 127.512L56.6783 125.299C60.6223 126.297 64.6822 126.78 68.7537 126.735C70.0901 126.735 71.522 126.735 73.0493 126.735C74.5766 126.735 76.7005 126.405 78.6813 126.099C79.8268 125.926 80.9961 125.715 82.1894 125.463L84.5758 124.945C85.9599 124.592 87.3679 124.192 88.8237 123.745L89.5635 123.509H89.7305L90.7567 123.133C91.8306 122.732 92.9284 122.332 94.0261 121.885V122.238V123.721V126.076L94.4795 134.646L95.6012 155.694L95.7205 157.577Z" fill="#29577E"/>
<path d="M77.6799 91.4648H71.1172C69.9046 91.4648 68.9216 92.4346 68.9216 93.6309V100.105C68.9216 101.302 69.9046 102.271 71.1172 102.271H77.6799C78.8924 102.271 79.8754 101.302 79.8754 100.105V93.6309C79.8754 92.4346 78.8924 91.4648 77.6799 91.4648Z" fill="white"/>
<path d="M74.7675 99.3075C74.3607 99.3069 73.9689 99.1557 73.6697 98.8837L68.4911 93.7511C68.3486 93.6104 68.2354 93.4434 68.1583 93.2596C68.0811 93.0758 68.0414 92.8788 68.0414 92.6799C68.0414 92.4809 68.0811 92.2839 68.1583 92.1001C68.2354 91.9163 68.3486 91.7493 68.4911 91.6086C68.6337 91.4679 68.803 91.3564 68.9893 91.2802C69.1756 91.2041 69.3753 91.1649 69.577 91.1649C69.7786 91.1649 69.9783 91.2041 70.1646 91.2802C70.3509 91.3564 70.5202 91.4679 70.6628 91.6086L74.7675 95.6582L81.4495 89.0423C81.5937 88.9001 81.7648 88.7873 81.9532 88.7103C82.1415 88.6334 82.3434 88.5938 82.5473 88.5938C82.7512 88.5938 82.9531 88.6334 83.1414 88.7103C83.3298 88.7873 83.5009 88.9001 83.6451 89.0423C83.7892 89.1846 83.9036 89.3534 83.9816 89.5392C84.0596 89.7251 84.0998 89.9242 84.0998 90.1254C84.0998 90.3265 84.0596 90.5257 83.9816 90.7115C83.9036 90.8973 83.7892 91.0662 83.6451 91.2084L75.8653 98.8837C75.5661 99.1557 75.1743 99.3069 74.7675 99.3075Z" fill="#2F7DC0"/>
<path d="M86.366 125.229L83.6932 126.171L83.0727 126.383L80.6863 127.23H68.7541L68.5631 124.429L68.229 119.72L66.4392 94.4574V94.1749L66.2006 90.6198V89.4897L66.4392 85.911L66.7494 79.9073L67.012 75.952L68.0143 74.5158V74.351L68.1336 74.2097V74.0449L68.3722 74.351L75.0304 83.1328L76.2236 84.7103L76.8441 83.0387L79.7556 75.175L79.8987 74.869H80.0419V74.9867L80.5192 75.3163C80.6191 75.4298 80.7311 75.5325 80.8533 75.6224L84.5523 93.3979L84.7671 94.4574L85.1966 96.5528L85.3637 97.3533L85.5785 98.4599L85.6978 99.072L86.4615 102.745L86.8194 104.44V104.817L87.3922 107.595L89.0627 115.694L88.7286 124.311L86.366 125.229Z" fill="#B9E7DC"/>
<path d="M78.8006 85.8652L78.5859 88.5492L79.3734 89.7029L78.9916 103.264L78.9677 90.0089L77.7983 88.3138L78.8006 85.8652Z" fill="#29577E"/>
<path d="M71.0931 108.797H75.866L75.5558 108.586C74.4819 107.761 73.1693 106.89 72.0238 106.09L70.9022 105.407C70.0371 104.869 69.1451 104.374 68.2294 103.924L68.5635 106.914L70.3772 108.797H71.0931Z" fill="#B9E7DC"/>
<path d="M88.7527 106.726L86.0799 107.338H85.4594L83.073 107.879H81.5457C82.3093 106.49 83.0253 103.665 84.5764 99.2154L84.8628 98.4855C84.8628 98.1559 85.0776 97.8498 85.1969 97.4967L85.9367 95.5425C86.6594 93.7732 87.2263 91.9457 87.6311 90.0803C87.6311 89.9155 87.6311 89.8214 87.6311 89.6801C87.6311 89.2092 87.822 88.7383 87.8936 88.291L88.0606 88.809L88.2754 89.5153L88.3947 89.9155L89.1584 92.2699L89.5164 93.3529V93.6119L90.0891 95.3777L91.7596 100.557L91.6403 105.949L88.7527 106.726Z" fill="#B9E7DC"/>
<path d="M80.4951 99.8463C80.5412 100.635 80.4851 101.426 80.328 102.201L78.6814 108.887L77.7745 106.085L77.4882 105.191L76.4143 101.942C76.1895 100.383 76.1176 98.8057 76.1995 97.2329C76.1995 94.596 76.1995 91.9591 76.3427 89.3457C76.3427 89.0397 76.3427 85.4139 76.3427 85.0137H79.3496C79.3496 85.979 79.7076 90.2169 79.7791 91.1586C80.0178 93.9603 80.3042 96.9033 80.4951 99.8463Z" fill="#29577E"/>
<g opacity="0.31">
<path d="M93.2631 109.906L89.8505 121.678C88.2437 121.853 86.6174 121.693 85.0776 121.207C85.0776 121.207 82.3809 121.042 82.1662 119.912C82.1662 119.535 82.7151 119.253 83.5742 119.041C82.3571 119.041 80.5911 119.041 80.5434 118.099C80.4957 117.157 82.9298 116.522 85.3163 115.98L84.2424 116.192C84.2424 116.192 79.0877 117.416 78.9445 115.98C78.8013 114.544 83.7174 113.626 83.7174 113.626L88.6334 112.142H85.8413C85.8413 112.142 81.6412 113.037 81.5696 111.672C81.498 110.306 87.1777 108.964 88.5618 108.729C90.22 108.569 91.8826 108.986 93.2631 109.906Z" fill="#088FC8"/>
</g>
<path d="M73.6698 157.581H57.7761V157.746L57.0125 157.605C55.8431 157.369 54.626 157.063 53.3373 156.71L56.0102 127.963L56.2727 124.785V124.29C55.2939 124.125 54.3288 123.889 53.3851 123.584H53.1703C50.235 122.666 46.2019 120.806 45.6053 117.51C45.5941 117.463 45.5941 117.415 45.6053 117.368C45.545 116.994 45.545 116.613 45.6053 116.238C45.5942 116.113 45.5942 115.987 45.6053 115.862C45.6053 115.32 45.7723 114.637 45.8678 113.884C46.7746 105.62 48.0156 86.6673 49.5668 84.8309C54.0196 81.3141 58.6901 78.0745 63.5513 75.1308L64.3627 74.5893L65.5321 73.8594L65.8662 73.6475L66.9162 72.9883L68.2765 72.1172C68.2713 72.1641 68.2713 72.2115 68.2765 72.2585C68.2765 72.2585 68.2765 72.4233 68.2765 72.5174C68.2765 72.6116 68.2765 73.2708 68.3958 73.8359C68.5151 74.4009 68.3958 74.7306 68.539 75.2956C68.8731 78.6624 69.3981 84.4777 70.0186 91.5409C70.0076 91.6505 70.0076 91.7609 70.0186 91.8705C70.1379 93.236 70.2572 94.6251 70.3765 96.0848C70.5436 98.1567 70.7106 100.299 70.9016 102.512C70.9016 103.666 71.0686 104.867 71.1641 105.997V106.915C71.1641 107.621 71.2834 108.328 71.3311 109.034L71.4743 110.706L71.6891 113.813C71.6775 113.868 71.6775 113.924 71.6891 113.978C71.6891 115.226 71.8561 116.497 71.9516 117.745C72.0471 118.993 72.1186 120.382 72.2141 121.701C72.2141 123.419 72.4289 125.114 72.5243 126.81C72.5243 127.304 72.5243 127.775 72.5243 128.246V129.446C72.6675 131.801 72.7868 134.344 72.9062 136.698C73.9085 145.174 73.9085 152.731 73.6698 157.581Z" fill="white" stroke="#E5E6E6" stroke-width="1.38" stroke-miterlimit="10"/>
<g opacity="0.11">
<path d="M73.0497 129.258L65.6994 129.753L64.5062 128.764L55.9866 127.94L56.3207 124.337C55.3426 124.169 54.3776 123.933 53.4331 123.631L56.3923 115.673L72.0235 113.625C72.4053 118.852 72.7633 124.149 73.0497 129.258Z" fill="#05799D"/>
</g>
<g opacity="0.11">
<path d="M58.1579 108.281L51.4043 87.2324L59.7091 108.281H58.1579Z" fill="#05799D"/>
</g>
<g opacity="0.11">
<path d="M95.6724 81.5332C95.4338 82.4514 94.336 90.5976 94.336 90.5976L92.9996 105.948L95.6724 81.5332Z" fill="#05799D"/>
</g>
<path d="M110.779 152.469C108.034 155.13 93.5487 156.778 92.3554 155.601C91.902 155.153 90.6849 143.17 89.3246 128.455C88.8474 123.228 88.3701 117.648 87.8928 112.115C86.1507 92.103 84.5995 72.75 84.5995 72.75L98.059 77.4588C100.27 78.2171 102.121 79.7504 103.261 81.7673C108.273 90.5256 109.944 108.607 109.944 108.607L104.216 113.01H104.073L106.221 125.535L110.779 152.469Z" fill="white" stroke="#E5E6E6" stroke-width="1.38" stroke-miterlimit="10"/>
<g opacity="0.11">
<path d="M95.1714 84.6914L93.5009 102.09L95.1714 101.125V84.6914Z" fill="#05799D"/>
</g>
<path opacity="0.11" d="M101.52 125.724C96.5563 127.749 89.3493 124.476 89.3493 124.476L88.2277 127.137L87.822 128.291L84.5764 128.502C84.0991 123.276 83.6218 117.719 83.1445 112.187L91.33 111.104L99.4678 113.175H99.3246L101.52 125.724Z" fill="#05799D"/>
<path d="M67.1076 113.881L66.0098 119.226L55.1276 125.512C53.3044 125.918 51.3992 125.77 49.6627 125.088C47.5149 124.123 45.558 121.839 45.6296 116.706C45.4828 114.533 46.1447 112.382 47.491 110.656C50.3547 107.477 61.6665 103.451 61.6665 103.451L61.9767 103.592C63.0506 104.628 67.7519 108.96 67.1076 113.881Z" fill="white" stroke="#E5E6E6" stroke-width="0.69" stroke-miterlimit="10"/>
<g opacity="0.06">
<path d="M67.1069 113.884L66.0091 119.229L55.1269 125.515C53.3037 125.921 51.3985 125.773 49.662 125.091C55.4849 124.055 61.976 114.967 60.3294 110.965C60.0332 109.693 60.0272 108.372 60.312 107.097C60.5968 105.823 61.1652 104.627 61.976 103.596C63.0499 104.632 67.7512 108.964 67.1069 113.884Z" fill="#05799D"/>
</g>
<path d="M100.947 123.394C98.8535 123.675 96.7218 123.441 94.7424 122.711C87.5831 119.839 88.657 110.045 95.1958 108.585C98.7418 106.921 102.422 105.551 106.197 104.488C107.042 104.487 107.87 104.724 108.584 105.171C110.267 106.148 111.576 107.646 112.307 109.432C113.046 111.551 114.478 122.052 100.947 123.394Z" fill="white" stroke="#E5E6E6" stroke-width="0.69" stroke-miterlimit="10"/>
<g opacity="0.06">
<path d="M101.687 105.31C100.784 105.522 99.9414 105.935 99.2256 106.519C98.5097 107.103 97.9394 107.841 97.5587 108.677C95.3154 113.809 98.8235 119.931 93.2631 122.309C91.5148 122.968 89.6177 123.148 87.7743 122.827C80.615 119.954 81.7127 110.16 88.2277 108.7C91.7839 107.041 95.4712 105.671 99.2531 104.604C100.117 104.599 100.963 104.845 101.687 105.31Z" fill="#05799D"/>
</g>
<path d="M68.277 73.2663C66.911 74.6512 65.7753 76.2404 64.9121 77.975C64.3633 79.7879 63.2894 81.5066 63.5996 81.8598L66.7497 85.4855L63.4564 88.0283L73.0022 115.904C73.0022 115.904 69.3987 71.4299 68.277 73.2663Z" fill="white" stroke="#E5E6E6" stroke-width="1.38" stroke-miterlimit="10"/>
<path d="M82.4043 71.5977C84.036 72.727 85.4707 74.1106 86.6521 75.6944C87.5351 77.3424 88.9192 78.8492 88.7045 79.2495L86.1748 83.3226L89.9215 85.2061L85.9839 114.377C85.9839 114.377 81.0678 70.0203 82.4043 71.5977Z" fill="white" stroke="#E5E6E6" stroke-width="1.38" stroke-miterlimit="10"/>
<g opacity="0.11">
<path d="M87.7258 84.4274C87.578 83.6286 87.3706 82.8416 87.1053 82.073C85.949 78.6154 84.2933 75.3405 82.1892 72.3494C82.1892 72.3494 81.8313 71.9256 81.5926 71.9962H81.4017C81.3722 72.0548 81.3569 72.1192 81.3569 72.1846C81.3569 72.2499 81.3722 72.3144 81.4017 72.3729C83.4984 75.5875 85.1516 79.0633 86.3178 82.7087C86.4609 83.3679 86.5803 83.8859 86.6996 84.3097C86.1436 84.4925 85.6601 84.8433 85.3174 85.3123C84.9748 85.7813 84.7904 86.3448 84.7904 86.923C84.7878 87.463 84.9447 87.9921 85.242 88.4455C85.5393 88.8989 85.9641 89.257 86.4644 89.476C86.9647 89.695 87.5189 89.7654 88.0592 89.6786C88.5994 89.5918 89.1023 89.3515 89.5063 88.9872C89.9103 88.6228 90.198 88.1502 90.334 87.6272C90.4701 87.1041 90.4487 86.5533 90.2724 86.042C90.0962 85.5307 89.7727 85.0813 89.3416 84.7485C88.9105 84.4157 88.3905 84.2142 87.8451 84.1684L87.7258 84.4274Z" fill="#05799D"/>
</g>
<path d="M87.5357 86.1235C87.58 84.6543 87.3033 83.1929 86.7243 81.8385C85.5549 78.379 83.9001 75.0981 81.8082 72.0914C81.8082 72.0914 81.4503 71.6911 81.2116 71.7382L81.0207 71.8559C80.9913 71.9145 80.976 71.979 80.976 72.0443C80.976 72.1096 80.9913 72.1741 81.0207 72.2326C83.0895 75.4577 84.7109 78.9419 85.8413 82.5919C86.0569 83.7815 86.36 84.9539 86.7482 86.1C86.7482 86.3825 86.9629 86.4531 87.1061 86.4531C87.3209 86.4296 87.5357 86.1235 87.5357 86.1235Z" fill="#3F5067"/>
<path d="M87.1059 89.5837C88.6612 89.5837 89.9219 88.3399 89.9219 86.8055C89.9219 85.2712 88.6612 84.0273 87.1059 84.0273C85.5507 84.0273 84.2899 85.2712 84.2899 86.8055C84.2899 88.3399 85.5507 89.5837 87.1059 89.5837Z" fill="#088FC8"/>
<path d="M87.106 88.8525C88.2526 88.8525 89.1822 87.9354 89.1822 86.8042C89.1822 85.6729 88.2526 84.7559 87.106 84.7559C85.9593 84.7559 85.0298 85.6729 85.0298 86.8042C85.0298 87.9354 85.9593 88.8525 87.106 88.8525Z" fill="#63C5E5"/>
<g opacity="0.11">
<path d="M65.9388 73.5069L64.4592 74.4487C64.5628 74.2361 64.6825 74.0314 64.8172 73.8365C64.8929 73.6968 65.0069 73.5808 65.1461 73.5017C65.2853 73.4226 65.4442 73.3837 65.6047 73.3892L65.9388 73.5069Z" fill="#05799D"/>
<path d="M68.8022 72.8008C68.8022 73.0362 68.8022 73.2952 68.6352 73.6013C68.492 74.3547 68.3249 75.2964 68.0863 76.3795C66.9647 81.4414 64.7214 89.2108 61.2849 91.0237C61.502 91.228 61.752 91.3951 62.0247 91.5181C62.0888 91.4194 62.1879 91.3478 62.3027 91.3173C62.4174 91.2868 62.5396 91.2997 62.6452 91.3533L63.7191 91.8948C63.8218 91.95 63.9003 92.0404 63.9399 92.1489C63.9795 92.2574 63.9773 92.3764 63.9339 92.4834L63.7668 92.9308C63.7236 93.0457 63.6385 93.1406 63.5283 93.1972C63.4181 93.2537 63.2904 93.2679 63.1702 93.2368L61.977 92.9072C61.863 92.8742 61.7655 92.8004 61.7038 92.7003C61.642 92.6001 61.6203 92.4808 61.6429 92.3657C61.0397 92.1913 60.5008 91.8477 60.0917 91.3769C59.6063 91.4164 59.1179 91.3521 58.6599 91.1885C58.6004 91.2863 58.5086 91.3608 58.3998 91.3994C58.2911 91.438 58.1722 91.4384 58.0632 91.4004L56.9416 90.9295C56.8295 90.8825 56.7387 90.7968 56.6859 90.6885C56.6332 90.5802 56.6223 90.4566 56.6552 90.3409L56.7984 89.8936C56.8368 89.7793 56.9162 89.6827 57.0216 89.622C57.1271 89.5613 57.2514 89.5407 57.3712 89.564L58.5405 89.7759C58.6634 89.7988 58.7722 89.8684 58.8436 89.9697C58.915 90.0709 58.9433 90.1958 58.9224 90.3174C59.1204 90.342 59.3209 90.342 59.519 90.3174C58.2542 86.9742 61.1418 80.5467 63.1941 76.6384C63.6714 75.7202 64.1248 74.9433 64.4589 74.2841L65.9385 73.3423H66.0817C66.2726 73.5542 66.0817 73.6248 66.0817 73.7425C65.5438 74.4991 65.0498 75.2852 64.6021 76.0969C63.2693 78.6415 62.1441 81.2868 61.2372 84.0077C60.3665 85.8577 60.1971 87.9544 60.7599 89.9172C61.8577 89.4463 63.1464 88.1043 64.3635 84.9259C65.4045 82.0931 66.2028 79.1791 66.7499 76.2146C66.9647 74.9433 67.084 74.0015 67.1317 73.4129C67.1555 73.2046 67.2311 73.0053 67.3519 72.8328C67.4726 72.6602 67.6347 72.5198 67.8238 72.4241L68.0386 72.3064C68.0957 72.2708 68.1619 72.252 68.2295 72.252C68.2971 72.252 68.3633 72.2708 68.4204 72.3064C68.5366 72.3239 68.6414 72.3852 68.7126 72.4775C68.7838 72.5697 68.816 72.6856 68.8022 72.8008Z" fill="#05799D"/>
</g>
<path d="M68.4914 72.3717C68.3482 73.1721 68.1335 74.4435 67.7755 75.9503C66.7493 81.0122 64.3629 88.8052 60.9741 90.5946C60.6127 90.7895 60.2148 90.9096 59.8048 90.9477C59.1308 91.0186 58.4519 90.8697 57.8718 90.524C57.838 90.5105 57.8089 90.4879 57.7877 90.4587C57.7666 90.4295 57.7544 90.395 57.7524 90.3591V89.4645C58.1691 89.8053 58.6909 89.9962 59.232 90.006C59.6343 90.0101 60.0329 89.9299 60.4014 89.7705C61.4992 89.2997 62.7878 87.9577 64.0049 84.7792C65.1114 81.8676 65.9578 78.8661 66.5346 75.8091C66.7188 74.8748 66.8542 73.9318 66.9402 72.9838C66.964 72.7755 67.0396 72.5761 67.1604 72.4036C67.2811 72.2311 67.4433 72.0907 67.6323 71.995H67.8232C67.891 71.9589 67.967 71.9405 68.044 71.9414C68.121 71.9424 68.1965 71.9627 68.2633 72.0003C68.3302 72.038 68.3862 72.0919 68.4261 72.1569C68.466 72.2218 68.4885 72.2957 68.4914 72.3717Z" fill="#63C5E5"/>
<path d="M57.0604 89.1336L58.2536 89.3455C58.3204 89.3592 58.3836 89.3863 58.4394 89.4249C58.4953 89.4636 58.5425 89.5131 58.5782 89.5704C58.614 89.6277 58.6375 89.6916 58.6473 89.7582C58.6572 89.8248 58.6531 89.8927 58.6355 89.9577L58.4445 90.6404C58.426 90.7075 58.3933 90.77 58.3486 90.8238C58.3039 90.8776 58.2482 90.9215 58.1851 90.9526C58.1221 90.9838 58.0531 91.0014 57.9826 91.0044C57.9122 91.0074 57.8419 90.9957 57.7763 90.97L56.6308 90.4992C56.5738 90.4783 56.5216 90.4464 56.4773 90.4053C56.433 90.3642 56.3976 90.3147 56.3731 90.2598C56.3486 90.2049 56.3356 90.1456 56.3348 90.0856C56.3339 90.0257 56.3454 89.9661 56.3683 89.9106L56.5115 89.4632C56.545 89.3507 56.6198 89.2546 56.7213 89.1937C56.8228 89.1327 56.9437 89.1113 57.0604 89.1336Z" fill="#088FC8"/>
<path d="M65.7227 73.5291C65.1873 74.2873 64.6934 75.0732 64.2431 75.8835C62.8965 78.4298 61.7709 81.084 60.8783 83.8178C60.0092 85.6599 59.8398 87.7487 60.401 89.7037C60.5925 90.1725 60.9224 90.5736 61.348 90.8549C61.7736 91.1362 62.2751 91.2847 62.7874 91.2812L62.1192 92.0581C61.6629 92.0357 61.2159 91.9219 60.8057 91.7236C60.3954 91.5252 60.0303 91.2465 59.7328 90.9045C59.4917 90.6143 59.2985 90.2886 59.16 89.9392C57.8952 86.5724 60.7589 80.1449 62.8351 76.2367C63.5272 74.9417 64.1 73.8823 64.4341 73.3643C64.513 73.2289 64.6283 73.1177 64.7673 73.0429C64.9063 72.9682 65.0635 72.9327 65.2216 72.9405L65.7227 73.0818C65.9614 73.3408 65.7943 73.4114 65.7227 73.5291Z" fill="#63C5E5"/>
<path d="M63.4088 91.4689L62.3349 90.9274C62.2139 90.877 62.0781 90.8733 61.9544 90.9169C61.8307 90.9605 61.7281 91.0482 61.6667 91.1628L61.3803 91.8456C61.3497 91.9066 61.3336 91.9736 61.3333 92.0416C61.3329 92.1097 61.3482 92.1769 61.3781 92.2382C61.4081 92.2995 61.4517 92.3532 61.5059 92.3953C61.56 92.4375 61.6232 92.4669 61.6906 92.4813L62.8838 92.8109C62.9978 92.8422 63.1195 92.8307 63.2253 92.7785C63.3312 92.7262 63.4136 92.6371 63.4566 92.5284L63.6475 92.081C63.6854 91.9675 63.6823 91.8445 63.6389 91.733C63.5954 91.6214 63.5141 91.5281 63.4088 91.4689Z" fill="#088FC8"/>
<g opacity="0.45">
<path d="M60.9983 90.6905C60.7197 90.4281 60.4931 90.1167 60.3301 89.7723L60.7119 89.584C60.7119 89.584 60.3778 89.7017 60.9983 90.6905Z" fill="#088FC8"/>
</g>
<path d="M65.7949 73.1289C65.9619 73.3408 65.7949 73.4114 65.7949 73.5291C65.2595 74.2873 64.7656 75.0732 64.3153 75.8835C63.8606 75.9642 63.4136 76.0824 62.9789 76.2367C63.671 74.9417 64.2437 73.8823 64.5778 73.3643C64.6568 73.2289 64.7721 73.1177 64.911 73.0429C65.05 72.9682 65.2072 72.9327 65.3653 72.9405L65.7949 73.1289Z" fill="#088FC8"/>
<path d="M68.492 72.3717C68.3489 73.1721 68.1341 74.4435 67.7761 75.9503C67.3677 75.8624 66.9526 75.8073 66.5352 75.7855C66.7186 74.859 66.854 73.9239 66.9409 72.9838C66.9646 72.7755 67.0402 72.5761 67.161 72.4036C67.2817 72.2311 67.4439 72.0907 67.6329 71.995H67.8238C67.8916 71.9589 67.9676 71.9405 68.0446 71.9414C68.1216 71.9424 68.1971 71.9627 68.2639 72.0003C68.3308 72.038 68.3868 72.0919 68.4267 72.1569C68.4666 72.2218 68.4891 72.2957 68.492 72.3717Z" fill="#088FC8"/>
<path d="M80.6144 84.5718C80.6144 85.5607 80.2087 86.1963 79.3495 86.267H77.9654H76.7006C76.5028 86.2583 76.309 86.21 76.1308 86.1249C75.9526 86.0398 75.7939 85.9198 75.6644 85.7722C75.5348 85.6245 75.4371 85.4524 75.3773 85.2662C75.3175 85.0801 75.2968 84.8839 75.3165 84.6895C75.2968 84.502 75.3153 84.3126 75.371 84.1322C75.4267 83.9519 75.5184 83.7844 75.6407 83.6396C75.763 83.4948 75.9135 83.3756 76.0832 83.2891C76.2529 83.2025 76.4385 83.1503 76.629 83.1356H77.4404H77.9654H79.1825C79.3744 83.1289 79.5657 83.1615 79.7441 83.2316C79.9225 83.3017 80.0842 83.4077 80.2189 83.5427C80.3536 83.6778 80.4583 83.8391 80.5264 84.0162C80.5945 84.1934 80.6244 84.3826 80.6144 84.5718Z" fill="#29577E"/>
<path d="M93.5013 112.443L81.3066 116.775L72.4291 113.526L68.3005 116.21L66.8686 117.128L65.9618 107.711L70.9733 107.004L73.3598 104.838C75.311 103.83 77.481 103.303 79.6838 103.303C81.8867 103.303 84.0567 103.83 86.0079 104.838C84.4567 108.087 83.1203 106.274 81.235 107.004C79.3497 107.734 79.8986 109.17 79.8986 109.17L83.884 110.606L91.2104 109.17C92.4036 109.547 93.5013 112.443 93.5013 112.443Z" fill="#F8D3A8"/>
<path d="M108.99 2.35305H42.8851C42.4005 2.31721 41.9139 2.31721 41.4293 2.35305C38.7383 2.70636 36.2684 4.01059 34.4779 6.02381C32.6874 8.03704 31.6978 10.6226 31.6927 13.3009V159.744C31.6895 161.341 32.0057 162.923 32.6231 164.4C33.2406 165.877 34.1471 167.219 35.2909 168.349C36.4347 169.48 37.7932 170.377 39.2888 170.989C40.7844 171.601 42.3876 171.916 44.0067 171.916H108.99C110.609 171.916 112.212 171.601 113.707 170.989C115.203 170.377 116.562 169.48 117.705 168.349C118.849 167.219 119.756 165.877 120.373 164.4C120.991 162.923 121.307 161.341 121.304 159.744V14.4781C121.297 11.2602 119.997 8.17619 117.688 5.90297C115.38 3.62975 112.251 2.35304 108.99 2.35305ZM116.865 157.742H35.8451V15.3022H116.865V157.742Z" fill="#A9B8D8"/>
<path d="M82.4051 164.808C82.4716 166.263 81.9495 167.684 80.9537 168.759C79.9579 169.835 78.57 170.475 77.0953 170.541C75.6206 170.606 74.1799 170.091 73.0901 169.109C72.0003 168.127 71.3507 166.757 71.2843 165.302C71.2724 165.138 71.2724 164.973 71.2843 164.808C71.2906 163.351 71.8817 161.956 72.9283 160.928C73.9749 159.899 75.3917 159.322 76.8686 159.322C77.5544 159.327 78.2337 159.455 78.8732 159.699C79.9144 160.101 80.8083 160.804 81.4384 161.716C82.0685 162.627 82.4054 163.705 82.4051 164.808Z" fill="#29577E"/>
<path d="M121.304 32.8201C130.49 32.8201 137.937 25.4731 137.937 16.4101C137.937 7.34703 130.49 0 121.304 0C112.117 0 104.67 7.34703 104.67 16.4101C104.67 25.4731 112.117 32.8201 121.304 32.8201Z" fill="#3063A0"/>
<path d="M115.929 6.73334L115.265 7.27075C114.704 7.7242 114.622 8.54011 115.082 9.09314L118.547 13.2623C119.007 13.8154 119.834 13.8961 120.394 13.4426L121.059 12.9052C121.619 12.4518 121.701 11.6359 121.241 11.0828L117.776 6.91363C117.317 6.36061 116.49 6.27989 115.929 6.73334Z" fill="white"/>
<path d="M124.811 18.2802L124.147 18.8176C123.586 19.2711 123.504 20.087 123.964 20.64L127.429 24.8092C127.889 25.3622 128.716 25.443 129.276 24.9895L129.941 24.4521C130.501 23.9986 130.583 23.1827 130.123 22.6297L126.658 18.4605C126.199 17.9075 125.372 17.8268 124.811 18.2802Z" fill="white"/>
<path d="M114.477 8.89648L117.986 13.464C117.986 13.464 116.124 15.0179 118.916 18.9497C121.708 22.8815 123.689 20.8803 123.689 20.8803L127.364 25.2124C126.411 25.9494 125.234 26.3498 124.023 26.3498C122.812 26.3498 121.636 25.9494 120.682 25.2124C119.124 24.034 117.692 22.7007 116.41 21.2335C114.992 19.6182 113.752 17.8581 112.711 15.9832C112.169 14.9924 111.958 13.858 112.108 12.7419C112.258 11.6257 112.762 10.5848 113.547 9.76761L114.477 8.89648Z" fill="white"/>
<path d="M43.7436 40.6824C43.6004 40.9179 43.4811 41.1769 43.3379 41.4359L42.9561 42.0715L42.8845 42.3776C39.399 47.3779 34.6083 51.3558 29.0193 53.8905C23.5301 51.4022 18.8106 47.5181 15.3449 42.6366C15.1779 42.3776 15.0108 42.1422 14.8677 41.8832V41.7419L14.2472 40.9414C10.7152 34.3256 12.2187 28.2513 16.2041 25.8969C24.0555 21.1882 28.1363 29.2401 28.9238 31.0059C29.6875 29.2401 33.6967 21.1646 41.6197 25.8969C45.5573 28.2513 47.0846 34.1844 43.7436 40.6824Z" fill="#B6E3F5"/>
<path d="M43.7444 40.6833C43.6012 40.9187 43.4819 41.1777 43.3387 41.4367H41.1431L39.9261 44.9918L39.1624 40.024L37.3964 46.3102L34.7713 33.4788L32.7667 41.4602H29.3302L28.2086 44.7328L26.9915 39.6709L25.1062 48.6646L22.1948 33.5259L20.1663 41.6956H14.6536L14.2479 40.9422H19.5697L22.2902 29.9473L25.1301 44.7328L26.9199 36.1393L28.3279 41.9311L28.7814 40.6126H32.1701L34.8668 29.9473L37.5157 42.967L39.401 36.3276L40.2124 41.6956L40.5704 40.6126L43.7444 40.6833Z" fill="#2F7DC0"/>
<path d="M179.7 33.5473L178.721 33.0293L178.745 33.3825L179.7 33.5473Z" fill="#070707"/>
<path d="M69.6847 45.1109C76.9253 42.8224 84.7096 42.8224 91.9502 45.1109C91.9502 45.1109 93.8355 60.179 90.8524 65.1938C90.8524 65.1938 85.65 74.6114 78.5384 69.2905C75.6985 67.148 73.0018 65.4999 72.453 62.2273L69.6847 45.1109Z" fill="#FCC892"/>
<path d="M75.7465 52.7608C76.7309 52.1616 77.8579 51.8287 79.0142 51.7956C80.1704 51.7625 81.3151 52.0305 82.333 52.5724L81.4978 51.1834C78.2045 50.0062 76.7249 51.1834 76.7249 51.1834L75.7465 52.7608Z" fill="#182436"/>
<path d="M65.3414 50.4808C65.3927 52.2843 65.6003 54.0802 65.9619 55.8488C67.346 60.8637 70.7347 62.6294 70.7347 62.3234C70.7347 62.0173 70.7347 61.5935 70.6154 61.0049H70.4245C69.621 60.3296 69.0671 59.4105 68.8495 58.3916C67.8471 55.5192 67.5369 51.3284 70.7347 51.0459L71.57 51.5638C71.57 51.5638 71.57 53.9182 71.57 54.601C71.57 55.2838 71.8564 55.2602 71.8802 55.2602C72.2487 55.4008 72.6335 55.4957 73.0257 55.5428C73.2405 55.5428 73.1689 55.2838 73.1689 55.2838V54.9306C73.1689 54.6245 73.1689 54.342 73.1689 54.0595C73.1689 53.777 73.1689 53.5415 73.1689 53.2355C73.1542 53.1976 73.1542 53.1556 73.1689 53.1177V52.5998C73.1689 52.4585 73.1689 52.3643 73.1689 52.2466C73.1916 52.1458 73.1916 52.0413 73.1689 51.9405C73.0497 51.469 73.0497 50.9759 73.1689 50.5044L73.336 49.8922L73.7655 48.2442C73.7655 47.9852 73.8848 47.7497 73.9326 47.5614C74.3621 46.1959 74.8156 46.1723 74.9826 46.031C75.1497 45.8898 75.3644 45.8427 75.3644 45.8427L75.9133 45.6543L76.7008 45.4189H76.9156C77.4841 45.2593 78.0794 45.2146 78.6658 45.2874C79.2521 45.3602 79.8176 45.5491 80.3282 45.8427L80.8294 46.031C81.6737 46.3093 82.5754 46.3732 83.4513 46.2168C84.3272 46.0604 85.149 45.6888 85.8409 45.1364H85.9841C86.3938 44.8762 86.8598 44.7149 87.3444 44.6655C88.0056 44.6762 88.654 44.8472 89.2324 45.1633C89.8109 45.4795 90.3016 45.9311 90.6615 46.4784C91.3794 47.3663 91.9365 48.3699 92.3082 49.4449C92.3162 49.4917 92.3162 49.5394 92.3082 49.5862C92.3184 50.1529 92.3582 50.7187 92.4275 51.2813C93.1555 50.6953 93.6188 49.8489 93.7162 48.9269C93.8391 48.321 93.9189 47.7074 93.9548 47.0905V46.031C93.6923 41.3223 90.0411 35.4363 72.4768 37.3669C74.2473 37.3542 75.9555 38.0114 77.2497 39.2033C75.4168 38.2068 73.3157 37.7955 71.2359 38.0261H70.3529C67.4176 38.3087 66.4153 39.5565 66.0812 40.2393C66.0947 40.3408 66.0947 40.4437 66.0812 40.5453C65.8813 41.0256 65.7604 41.5343 65.7232 42.0521C65.7232 42.9233 65.5562 43.7708 65.5323 44.5949C65.5323 45.0657 65.5323 45.5366 65.5323 45.984C65.3655 47.4769 65.3017 48.9793 65.3414 50.4808Z" fill="#182436"/>
<path d="M73.5988 48.1241L73.7658 47.4648C73.7181 47.6297 73.6465 47.8651 73.5988 48.1241Z" fill="#182436"/>
<path d="M73.9087 46.8267V46.709C73.9001 46.7275 73.8956 46.7475 73.8956 46.7678C73.8956 46.7882 73.9001 46.8082 73.9087 46.8267Z" fill="#182436"/>
<path d="M85.8411 54.3378C85.8411 55.3267 86.9866 56.1507 88.3707 56.1507C89.7548 56.1507 90.9003 55.3267 90.9003 54.3378C90.919 54.1804 90.8816 54.0215 90.7945 53.8884C90.7074 53.7552 90.5761 53.6561 90.423 53.608C90.0131 53.5309 89.5921 53.5309 89.1821 53.608H88.5377C87.1775 53.4902 85.8411 53.3254 85.8411 54.3378Z" fill="white"/>
<path d="M88.6801 54.3625C88.6985 54.6352 88.8229 54.8903 89.0275 55.0746C89.2321 55.2588 89.5009 55.358 89.7778 55.3513C89.9146 55.3576 90.0512 55.3369 90.1797 55.2903C90.3082 55.2438 90.4259 55.1723 90.526 55.0802C90.6261 54.988 90.7064 54.877 90.7624 54.7538C90.8183 54.6305 90.8487 54.4975 90.8517 54.3625C90.858 54.1649 90.79 53.972 90.6608 53.821C90.6825 53.8691 90.6938 53.9213 90.6938 53.974C90.6938 54.0267 90.6825 54.0789 90.6608 54.127C90.6327 54.233 90.5661 54.3251 90.4737 54.3858C90.3814 54.4466 90.2696 54.4718 90.1597 54.4567C90.1066 54.4486 90.0558 54.4295 90.0107 54.4007C89.9656 54.372 89.9271 54.3341 89.8978 54.2897C89.8685 54.2452 89.8491 54.1952 89.8407 54.1428C89.8324 54.0904 89.8354 54.0369 89.8494 53.9858C89.8551 53.9308 89.8723 53.8775 89.8998 53.8293C89.9274 53.7812 89.9648 53.7392 90.0096 53.706C90.0545 53.6728 90.1058 53.6492 90.1604 53.6365C90.215 53.6239 90.2716 53.6226 90.3267 53.6326C90.3968 53.6123 90.4714 53.6123 90.5415 53.6326V53.4914C90.1315 53.4143 89.7105 53.4143 89.3006 53.4914C89.1182 53.555 88.9605 53.673 88.8493 53.8291C88.7381 53.9853 88.6789 54.1717 88.6801 54.3625Z" fill="black"/>
<path d="M75.5072 54.3378C75.5072 55.3267 76.6288 56.1507 78.0368 56.1507C79.4448 56.1507 80.5426 55.3267 80.5426 54.3378C80.5662 54.1798 80.5308 54.0186 80.443 53.8844C80.3552 53.7501 80.221 53.6519 80.0653 53.608C79.6474 53.5302 79.2184 53.5302 78.8005 53.608H78.1562C76.7481 53.4902 75.5072 53.3254 75.5072 54.3378Z" fill="white"/>
<path d="M78.2286 54.363C78.247 54.6357 78.3714 54.8908 78.576 55.0751C78.7806 55.2594 79.0494 55.3585 79.3263 55.3519C79.4643 55.3582 79.6021 55.3376 79.7319 55.2913C79.8618 55.245 79.9811 55.1739 80.0831 55.0821C80.1851 54.9902 80.2677 54.8794 80.3262 54.7561C80.3847 54.6327 80.418 54.4991 80.4241 54.363C80.419 54.1673 80.3523 53.9781 80.2332 53.8215C80.2565 53.8693 80.2685 53.9216 80.2685 53.9746C80.2685 54.0275 80.2565 54.0798 80.2332 54.1276C80.2246 54.1805 80.2053 54.2312 80.1764 54.2766C80.1476 54.3221 80.1098 54.3613 80.0653 54.3921C80.0207 54.4228 79.9704 54.4444 79.9173 54.4556C79.8641 54.4668 79.8093 54.4673 79.7559 54.4572C79.7007 54.4522 79.6473 54.4353 79.5993 54.4079C79.5514 54.3804 79.5101 54.3429 79.4783 54.2981C79.4465 54.2533 79.4249 54.2022 79.4152 54.1484C79.4054 54.0945 79.4077 54.0392 79.4218 53.9863C79.4275 53.9313 79.4446 53.878 79.4722 53.8299C79.4998 53.7817 79.5371 53.7398 79.582 53.7066C79.6268 53.6734 79.6782 53.6497 79.7327 53.6371C79.7873 53.6245 79.8439 53.6231 79.8991 53.6332C79.9684 53.6079 80.0445 53.6079 80.1139 53.6332L79.9945 53.4919C79.5766 53.4142 79.1476 53.4142 78.7297 53.4919C78.5734 53.578 78.444 53.7047 78.3557 53.8583C78.2673 54.0119 78.2233 54.1865 78.2286 54.363Z" fill="black"/>
<path d="M80.3278 59.896C80.4992 60.1231 80.7466 60.2831 81.0261 60.3477C81.3055 60.4123 81.5992 60.3774 81.8551 60.2491C82.3412 60.5607 82.903 60.7381 83.4822 60.763C84.0613 60.7878 84.6367 60.6592 85.1484 60.3904L83.9074 55.6816L85.5063 60.3904C85.5063 60.3904 84.7188 61.497 81.8312 60.7436C81.8312 60.7907 80.4948 61.2144 80.3278 59.896Z" fill="#D3A57D"/>
<path d="M68.1335 54.7161V55.0928C68.1727 56.1644 68.3904 57.2223 68.7779 58.2241C68.9325 58.84 69.1484 59.4394 69.4222 60.0135C70.1047 61.1979 71.2112 62.0881 72.5246 62.5091L73.5508 63.8982C71.3552 61.0258 71.5223 51.5612 71.5223 51.5612C68.3961 49.4423 68.1335 53.4212 68.1335 54.7161Z" fill="#FCC892"/>
<path d="M71.5223 58.1544C71.5223 58.1544 71.5223 58.5075 71.2121 58.5546C70.9018 58.6017 70.1859 57.8718 69.3984 56.2002C69.148 55.7525 69.035 55.2425 69.0732 54.7326C69.1113 54.2226 69.2989 53.7345 69.6132 53.3279C69.6132 53.3279 71.3553 51.7975 70.9734 53.7517C70.7879 55.2414 70.9764 56.7533 71.5223 58.1544Z" fill="#F7AD8D"/>
<path d="M82.6189 64.9336C82.997 65.089 83.4025 65.169 83.8121 65.169C84.2217 65.169 84.6273 65.089 85.0053 64.9336C84.6686 65.2052 84.2471 65.3535 83.8121 65.3535C83.3772 65.3535 82.9556 65.2052 82.6189 64.9336Z" fill="#D3A57D"/>
<path d="M78.0133 61.2129L76.9394 62.4372C76.9394 62.4372 76.7723 63.1906 77.2257 63.4731C77.2257 63.4731 76.653 63.4731 76.7246 62.1546C77.1193 61.7968 77.5513 61.4812 78.0133 61.2129Z" fill="#D3A57D"/>
<path d="M83.2871 61.6152L82.9053 62.8866C82.9053 62.8866 84.0746 63.4752 84.6235 63.122C84.1959 63.155 83.7673 63.0737 83.3826 62.8866L83.2871 61.6152Z" fill="#D3A57D"/>
<path opacity="0.4" d="M74.7677 57.1602C75.318 57.5669 75.9666 57.8243 76.6491 57.9069C77.3315 57.9896 78.024 57.8944 78.6576 57.631C77.8324 58.539 76.8849 59.3312 75.8416 59.9854C75.8416 59.9854 75.1018 59.5616 74.7677 57.1602Z" fill="#F7DAD0"/>
<path opacity="0.4" d="M91.9978 57.4707C91.4523 57.8771 90.809 58.1364 90.1311 58.223C89.4533 58.3097 88.7642 58.2208 88.1317 57.9651C88.9464 58.8747 89.8863 59.6672 90.9239 60.3195C90.9239 60.3195 91.6637 59.8722 91.9978 57.4707Z" fill="#F7DAD0"/>
<path d="M72.6677 41.7461C72.6677 41.7461 75.9849 43.3706 75.794 45.4189L76.5815 45.1835H76.7963C77.3647 45.0239 77.96 44.9792 78.5464 45.052C79.1328 45.1248 79.6982 45.3137 80.2089 45.6073L80.71 45.7956C79.8748 44.7362 79.8032 42.0757 72.6677 41.7461Z" fill="#B7B7B7"/>
<path d="M80.7104 40.7779C85.6743 43.1322 85.4833 43.9327 85.8413 45.1335H85.9845C86.3942 44.8733 86.8602 44.712 87.3448 44.6626C88.006 44.6733 88.6543 44.8443 89.2328 45.1604C89.8112 45.4766 90.302 45.9282 90.6619 46.4755C89.5164 42.8026 88.4903 41.7667 87.4402 41.1781C87.574 41.2994 87.6808 41.4468 87.7539 41.6109C87.827 41.7751 87.8647 41.9524 87.8647 42.1316C87.8647 42.3109 87.827 42.4882 87.7539 42.6524C87.6808 42.8165 87.574 42.9639 87.4402 43.0852C83.0969 39.6948 80.7104 40.7779 80.7104 40.7779Z" fill="#B7B7B7"/>
<path d="M65.9618 55.8477C67.3459 60.8625 70.7347 62.6283 70.7347 62.3222C70.7347 62.0161 70.7347 61.5924 70.6154 61.0038H70.4244C69.621 60.3284 69.067 59.4094 68.8494 58.3904L65.9618 55.8477Z" fill="#182436"/>
<path d="M79.4929 64.2995C82.1343 64.419 84.7807 64.3718 87.4159 64.1582C84.7796 63.8728 82.1171 63.9203 79.4929 64.2995Z" fill="#823F3F"/>
<path d="M66.0571 40.3047C66.0814 40.4053 66.0814 40.5101 66.0571 40.6108C66.0462 40.509 66.0462 40.4064 66.0571 40.3047Z" fill="#231F20"/>
<path d="M86.3421 50.9931L85.5546 52.3586C86.5128 51.8308 87.5983 51.5695 88.6953 51.6027C89.7923 51.6359 90.8595 51.9622 91.7832 52.547L90.8525 51.0637C90.8525 51.0637 89.4683 49.8394 86.3421 50.9931Z" fill="#182436"/>
<path d="M73.5988 48.1241L73.7658 47.4648C73.7181 47.6297 73.6465 47.8651 73.5988 48.1241Z" fill="#182436"/>
<path d="M71.5217 51.5575C71.5217 51.5575 71.5217 53.9119 71.5217 54.5947C71.5217 55.2774 71.8081 55.2539 71.832 55.2539C72.2005 55.3945 72.5852 55.4894 72.9775 55.5364C73.1922 55.5364 73.1206 55.2774 73.1206 55.2774V54.9243C73.1206 54.6182 73.1206 54.3357 73.1206 54.0532C73.1206 53.7706 73.1206 53.5352 73.1206 53.2291C73.1059 53.1912 73.1059 53.1493 73.1206 53.1114V52.5934C73.1206 52.4522 73.1206 52.358 73.1206 52.2403C73.1433 52.1395 73.1433 52.035 73.1206 51.9342C73.0014 51.4627 73.0014 50.9695 73.1206 50.498L70.949 51.0396L71.5217 51.5575Z" fill="#182436"/>
<path d="M74.195 46.4038L73.6461 47.8635C72.5849 47.7004 71.4989 47.8141 70.496 48.1931C71.5052 48.2215 72.507 48.3717 73.4791 48.6404L73.0257 50.2885C70.4554 49.7701 67.7882 49.9907 65.3413 50.9242C65.3413 49.6528 65.3413 48.1225 65.3413 46.5215C66.7502 45.8751 68.2752 45.5111 69.8277 45.4505C71.3803 45.3898 72.9296 45.6339 74.3859 46.1683L74.195 46.4038Z" fill="#B7B7B7"/>
<path d="M74.6951 52.7878C75.356 52.6995 76.0099 52.5658 76.652 52.3875C77.9675 52.1287 79.3218 52.1287 80.6373 52.3875C81.4248 52.5053 82.2124 52.7171 83.0238 52.8349C84.1801 52.9485 85.3478 52.8365 86.4602 52.5053C87.2478 52.3404 88.0353 52.1992 88.8467 52.0815C90.044 51.9628 91.2532 52.0829 92.4025 52.4346C92.7529 52.4848 93.0969 52.5716 93.4286 52.6936V53.6824C93.0183 53.9654 92.7225 54.3824 92.5934 54.8596C92.5934 55.2599 92.3309 55.6366 92.1877 56.0368C92.0091 56.632 91.6671 57.167 91.1997 57.5824C90.7322 57.9979 90.1574 58.2778 89.5387 58.3912C88.7613 58.6273 87.9298 58.6273 87.1523 58.3912C86.5767 58.1817 86.0701 57.8209 85.6873 57.3478C85.3046 56.8747 85.0602 56.3074 84.9806 55.7072C84.9806 55.4011 84.8375 55.0951 84.742 54.7655C84.6465 54.4358 84.2408 54.3417 83.7636 54.3417C83.2863 54.3417 83.334 54.6007 83.2385 54.8596C83.0493 55.421 82.8097 55.9647 82.5226 56.4842C82.0764 57.3972 81.3149 58.1234 80.3748 58.5325C79.795 58.7511 79.1757 58.8493 78.5556 58.821C77.9356 58.7926 77.3281 58.6383 76.7713 58.3677C76.5445 58.2701 76.3443 58.1212 76.1867 57.933C76.0292 57.7449 75.9188 57.5227 75.8644 57.2847C75.62 56.5792 75.4364 55.8546 75.3155 55.1186C75.2804 54.7968 75.1473 54.4931 74.9337 54.2475C74.826 54.0974 74.7452 53.9302 74.6951 53.7531V52.7878ZM79.468 52.5523C79.1104 52.5288 78.7516 52.5288 78.3941 52.5523C77.8791 52.6166 77.3742 52.7431 76.8906 52.929C76.591 53.0257 76.3314 53.2157 76.1506 53.4704C75.9699 53.7252 75.8778 54.0309 75.8883 54.3417C75.842 55.2386 75.98 56.1356 76.294 56.9786C76.3852 57.2925 76.5628 57.5753 76.8072 57.7956C77.0515 58.0159 77.353 58.165 77.6781 58.2264C78.1061 58.3364 78.5496 58.3762 78.9907 58.3441C81.1862 58.3441 82.4271 56.5312 82.9044 54.3888C82.9679 54.1084 82.9254 53.8148 82.7847 53.5633C82.644 53.3118 82.415 53.1197 82.1408 53.0232C81.2936 52.6814 80.3826 52.5209 79.468 52.5523ZM88.5364 58.1558C88.8223 58.1794 89.1097 58.1794 89.3956 58.1558C89.8309 58.1203 90.2481 57.9677 90.6016 57.7144C90.955 57.4612 91.2313 57.1171 91.4002 56.7196C91.8536 55.8569 92.1217 54.9111 92.1877 53.9414C92.1962 53.7397 92.1498 53.5394 92.0533 53.3613C91.9567 53.1833 91.8136 53.034 91.6388 52.929C91.4232 52.8077 91.1897 52.7204 90.9467 52.6701C90.0509 52.4993 89.1374 52.436 88.2262 52.4817C87.4357 52.5289 86.6638 52.7374 85.9591 53.0938C85.6929 53.2266 85.472 53.4334 85.3236 53.6886C85.1751 53.9438 85.1057 54.2363 85.1238 54.53C85.1464 55.0652 85.2677 55.5917 85.4818 56.0839C85.6593 56.7305 86.064 57.2937 86.6235 57.6732C87.183 58.0527 87.861 58.2237 88.5364 58.1558Z" fill="#070707"/>
<path d="M75.4348 53.3273C75.411 53.4439 75.411 53.5639 75.4348 53.6805L70.5426 50.7375H69.9221L70.6381 50.4785L75.4348 53.3273Z" fill="#070707"/>
<path d="M71.1387 51.1152L74.7899 53.917V52.7868L71.1387 51.1152Z" fill="#070707"/>
<path d="M93.4288 52.6958L92.4742 52.1543V52.531L93.4288 52.6958Z" fill="#070707"/>
</svg>
