<svg width="294" height="254" viewBox="0 0 294 254" fill="none" xmlns="http://www.w3.org/2000/svg">
<g clip-path="url(#clip0_8796_40639)">
<path d="M97.6481 66.4614C96.9376 66.9505 96.3308 67.5747 95.8622 68.2983C95.3936 69.0219 95.0724 69.8307 94.9171 70.6783C94.9552 71.8988 95.1558 73.1088 95.5138 74.2764C95.7946 75.9685 95.7946 77.6951 95.5138 79.3872C95.0778 81.679 94.6647 83.9708 94.2287 86.4001L88.9274 83.8791L83.9705 75.5828L84.636 71.2742C85.2867 68.3811 85.5109 65.4086 85.3015 62.4508C84.9114 57.5922 97.6481 66.4614 97.6481 66.4614Z" fill="#FFCC99"/>
<path d="M94.1828 94.3984H86.7473C85.3911 94.3984 84.2917 95.4963 84.2917 96.8507V104.276C84.2917 105.63 85.3911 106.728 86.7473 106.728H94.1828C95.5389 106.728 96.6383 105.63 96.6383 104.276V96.8507C96.6383 95.4963 95.5389 94.3984 94.1828 94.3984Z" fill="white"/>
<path d="M90.8782 103.337C90.4238 103.327 89.9897 103.147 89.6619 102.833L83.8099 96.989C83.6472 96.8279 83.5178 96.6365 83.4291 96.4255C83.3405 96.2146 83.2943 95.9883 83.2932 95.7595C83.2922 95.5307 83.3362 95.304 83.4229 95.0922C83.5096 94.8804 83.6372 94.6878 83.7984 94.5253C83.9597 94.3628 84.1514 94.2335 84.3626 94.145C84.5739 94.0565 84.8005 94.0104 85.0296 94.0093C85.2586 94.0082 85.4857 94.0522 85.6977 94.1388C85.9098 94.2254 86.1027 94.3528 86.2655 94.5138L90.8553 99.0974L98.4284 91.672C98.562 91.4536 98.7421 91.2672 98.9559 91.1262C99.1697 90.9852 99.412 90.893 99.6656 90.8561C99.9192 90.8192 100.178 90.8386 100.423 90.9128C100.668 90.987 100.894 91.1143 101.084 91.2856C101.275 91.4569 101.425 91.6679 101.524 91.9038C101.624 92.1396 101.67 92.3945 101.66 92.6502C101.649 92.9059 101.583 93.1561 101.464 93.3832C101.346 93.6102 101.179 93.8084 100.976 93.9638L92.1863 102.741C92.0205 102.925 91.8189 103.072 91.5939 103.174C91.369 103.277 91.1254 103.332 90.8782 103.337Z" fill="#2F7DC0"/>
<path d="M103.959 112.688L100.976 113.398L100.264 113.536L97.6481 114.177H84.0163L83.7868 112.115L83.4197 108.7L81.4002 90.3657V90.1594L81.1248 87.5697V86.7446L81.3772 84.1091L81.7673 79.8463L82.0427 76.9358L83.1902 75.8815L83.3279 75.7669H83.4426L83.5574 75.6523L83.8327 75.8815L91.3371 82.2986L92.6911 83.4445L93.3795 82.2069L96.6842 76.4774L96.8448 76.2482H96.9825H97.1432L97.671 76.5003C97.7894 76.595 97.9208 76.6721 98.0611 76.7295L102.399 89.3802L102.651 90.1365L103.133 91.672L103.316 92.2679L103.569 93.07L103.707 93.5055L104.579 96.2556L104.969 97.5161V97.7911L105.611 99.8079L107.493 105.721L107.103 112.023L103.959 112.688Z" fill="#B9E7DC"/>
<path d="M92.7371 87.9824L92.5076 91.0534L93.4026 92.3827L92.9665 107.852L92.9436 92.7035L91.6355 90.7784L92.7371 87.9824Z" fill="#29577E"/>
<path d="M86.7473 114.176H92.0485C91.9198 114.113 91.8032 114.028 91.7043 113.924C90.488 112.985 89.0881 111.999 87.7112 111.083L86.4489 110.303C85.3474 109.616 84.2917 109.043 83.4197 108.607L83.7869 112.022L85.8523 114.176H86.7473Z" fill="#B9E7DC"/>
<path d="M103.959 112.687L100.976 113.398L100.264 113.535L97.6481 114.177H95.9269C96.776 112.573 97.6022 109.341 99.3463 104.253L99.6446 103.428C99.7594 103.062 99.8971 102.718 100.035 102.305C100.172 101.893 100.563 100.839 100.861 100.014C101.683 97.9975 102.321 95.9111 102.766 93.7799C102.766 93.7799 102.766 93.482 102.766 93.3445L103.041 91.7402L103.225 92.3361L103.477 93.1382L103.615 93.5737L104.579 96.2551L104.969 97.5156V97.7906L105.611 99.8074L107.493 105.72L107.103 112.023L103.959 112.687Z" fill="#B9E7DC"/>
<path d="M95.2384 103.796C95.3046 104.732 95.2428 105.672 95.0548 106.592L93.2189 114.04L92.1862 110.854L91.7961 110.006L90.6027 106.294C90.3483 104.487 90.2791 102.66 90.3962 100.839C90.3962 97.814 90.3962 94.8347 90.5568 91.8095C90.5568 91.4658 90.5568 87.2259 90.5568 86.8822L93.9533 86.7676C93.9533 87.8676 94.3434 92.7263 94.4352 93.8034C94.7106 97.0807 95.0089 100.427 95.2384 103.796Z" fill="#29577E"/>
<g opacity="0.31">
<path d="M111.762 115.437L107.86 128.913C106.08 129.098 104.281 128.902 102.582 128.34C102.582 128.34 99.5529 128.18 99.2775 126.873C99.2775 126.438 99.92 126.117 100.884 125.865C99.507 125.865 97.5104 125.865 97.4645 124.811C97.4186 123.756 100.264 123 102.858 122.358L101.618 122.633C101.618 122.633 95.8122 124.008 95.6515 122.381C95.4909 120.754 100.976 119.7 100.976 119.7L106.506 117.981H103.408C103.408 117.981 98.6808 119.035 98.589 117.477C98.4972 115.918 104.923 114.36 106.483 114.085C108.346 113.913 110.211 114.391 111.762 115.437Z" fill="#088FC8"/>
</g>
<path d="M89.5011 192.305C90.6799 197.524 92.3313 202.625 94.4352 207.546C94.6876 207.706 95.1237 208.577 94.8712 208.417C95.2384 209.196 93.9992 209.677 93.609 208.921C93.2189 208.165 93.1041 207.935 92.8746 207.431C88.2849 205.506 83.259 205.46 78.5086 204.223C74.7006 203.277 71.2343 201.284 68.5028 198.47C60.9985 190.747 58.3593 179.769 50.3272 172.344C43.4424 165.95 34.8366 161.756 26.8962 156.851C18.3723 152.035 11.1986 145.155 6.03554 136.844C2.29485 130.221 -1.69828 120.801 0.757262 113.032C3.37345 104.782 12.2318 105.217 18.9788 107.784C38.4625 115.232 53.4023 129.808 65.1752 146.538C71.9658 155.631 78.0351 165.24 83.3279 175.277C85.9481 180.734 88.0161 186.438 89.5011 192.305Z" fill="#65BEBF"/>
<path d="M96.5236 211.167C97.7399 213.848 98.8185 216.553 100.081 219.303L98.3366 219.578C97.4186 217.423 96.5007 215.292 95.5139 213.161C94.5271 211.029 93.7239 209.288 92.783 207.362C91.429 204.589 90.0291 201.862 88.5603 199.158C80.5474 195.019 73.2116 189.687 66.8047 183.344C66.644 183.184 66.8047 182.909 67.0341 183.069C73.6715 188.268 80.5648 193.133 87.6883 197.645C84.1664 191.178 80.2501 184.932 75.9613 178.944C72.7943 174.59 69.4438 170.396 65.9096 166.316C53.7008 158.249 39.197 154.284 27.1946 145.873C39.2199 152.749 52.7369 156.966 64.2803 164.643C52.1904 150.994 38.0635 139.291 22.3983 129.945C22.1229 129.785 22.3983 129.281 22.6966 129.441C44.071 141.314 62.6425 157.633 77.1547 177.294C76.5121 175.85 75.8925 174.361 75.2269 172.94C73.1615 168.524 70.9125 164.208 68.4799 159.991C63.9294 152.126 58.7975 144.611 53.127 137.508C53.127 137.508 53.127 137.325 53.2647 137.508C59.3875 144.554 64.8565 152.14 69.6044 160.174C73.9418 167.623 77.3612 175.529 81.2396 183.092C85.4617 189.51 89.2935 196.176 92.7141 203.054C94.091 205.804 95.3303 208.554 96.5236 211.167Z" fill="#3E7979"/>
<path d="M33.1614 123.414C38.6921 128.433 43.3048 134.048 48.3077 139.457C48.3503 139.511 48.413 139.547 48.4818 139.556C48.5507 139.564 48.6201 139.545 48.6749 139.502C48.7297 139.46 48.7653 139.397 48.7739 139.329C48.7825 139.26 48.7634 139.191 48.7208 139.136C44.3359 133.16 39.0931 127.863 33.1614 123.414Z" fill="#3E7979"/>
<path d="M94.3664 220.287L91.1535 220.883L88.8586 221.341C86.7014 221.754 84.636 222.212 82.6853 222.648C72.2435 219.233 60.0117 219.554 49.4092 218.568C42.5245 217.949 33.1613 217.01 30.3845 209.538C29.0993 206.147 30.0403 202.434 29.0305 198.973C27.447 193.519 22.1458 190.058 17.556 187.239C12.0023 183.802 4.38324 179.333 3.64887 172.045C2.9145 164.757 11.9794 165.994 16.6151 167.049C32.6794 170.715 47.1602 179.126 61.0673 187.675L62.7885 188.752C70.5146 193.261 77.5807 198.814 83.7869 205.253C84.4524 205.963 85.1179 206.72 85.7605 207.545C89.0722 211.476 91.957 215.748 94.3664 220.287Z" fill="#65BEBF"/>
<path d="M91.1536 220.883L88.8587 221.341L87.9637 220.31C87.6653 219.966 87.3441 219.645 87.0457 219.324C73.4369 212.587 57.5103 214.535 43.6032 208.713C43.4655 208.713 43.6032 208.438 43.6032 208.484C56.7301 213.068 72.7026 211.12 85.2557 217.422C73.0765 204.155 57.9324 193.947 41.0559 187.629C40.6198 187.468 40.8034 186.781 41.2624 186.918C52.9075 190.302 63.776 195.931 73.2534 203.488C67.6324 197.686 61.4865 192.416 54.8941 187.744C54.6417 187.56 54.8941 187.148 55.1466 187.331C59.0273 189.732 62.6834 192.478 66.0703 195.536C68.0898 197.346 70.0175 199.248 71.8535 201.219C73.0927 202.526 74.2861 203.878 75.4335 205.23C81.1218 209.979 86.382 215.216 91.1536 220.883Z" fill="#326A65"/>
<path d="M37.5446 201.678C44.0621 203.374 50.5567 205.184 57.0742 206.88C50.3366 206.154 43.7329 204.496 37.4528 201.953C37.4288 201.904 37.4249 201.848 37.4421 201.796C37.4593 201.745 37.4961 201.702 37.5446 201.678Z" fill="#326A65"/>
<path d="M27.5388 184.742C34.7869 189.034 42.3693 192.736 50.2124 195.812C50.3272 195.812 50.2124 195.995 50.2124 195.972C42.0654 193.677 34.3892 189.96 27.5388 184.994C27.5197 184.979 27.5043 184.96 27.4937 184.938C27.4831 184.916 27.4775 184.893 27.4775 184.868C27.4775 184.844 27.4831 184.82 27.4937 184.798C27.5043 184.776 27.5197 184.757 27.5388 184.742Z" fill="#3E7979"/>
<path d="M204.407 167.783C203.232 173.003 201.58 178.105 199.473 183.024C199.22 183.184 198.784 184.055 199.06 183.895C198.67 184.674 199.909 185.155 200.322 184.399C200.735 183.643 200.804 183.413 201.033 182.909C205.623 180.984 210.649 180.938 215.423 179.701C219.216 178.748 222.671 176.765 225.405 173.971C232.91 166.248 235.549 155.247 243.581 147.822C250.466 141.428 259.072 137.234 267.035 132.329C275.557 127.5 282.729 120.613 287.896 112.299C291.728 105.676 295.698 96.2563 293.243 88.4871C290.649 80.2366 281.768 80.6721 275.021 83.2389C255.537 90.6872 240.598 105.263 228.825 121.993C222.041 131.099 215.972 140.715 210.672 150.755C208.03 156.213 205.932 161.916 204.407 167.783Z" fill="#65BEBF"/>
<path d="M197.476 186.644C196.283 189.325 195.182 192.03 193.919 194.78L195.663 195.078C196.581 192.923 197.522 190.769 198.486 188.638C199.45 186.506 200.299 184.765 201.24 182.84C202.571 180.066 203.971 177.339 205.44 174.635C213.451 170.503 220.787 165.179 227.195 158.844C227.356 158.684 227.195 158.432 226.989 158.569C220.353 163.77 213.459 168.635 206.335 173.145C209.842 166.679 213.743 160.434 218.016 154.444C221.167 150.09 224.51 145.888 228.045 141.839C240.253 133.749 254.78 129.784 266.76 121.374C266.76 121.374 266.76 121.213 266.76 121.259C254.734 128.134 241.24 132.351 229.674 140.029C241.783 126.408 255.926 114.735 271.602 105.423C271.877 105.239 271.602 104.735 271.303 104.918C249.927 116.788 231.355 133.108 216.845 152.771C217.511 151.304 218.131 149.838 218.796 148.394C220.839 143.994 223.088 139.662 225.543 135.468C230.102 127.592 235.258 120.076 240.965 112.986C240.965 112.986 240.965 112.802 240.827 112.986C234.712 120.023 229.25 127.602 224.51 135.629C220.15 143.077 216.731 150.984 212.852 158.546C212.852 158.546 212.852 158.546 212.852 158.684C208.603 165.086 204.771 171.753 201.378 178.646C199.932 181.281 198.693 183.94 197.476 186.644Z" fill="#3E7979"/>
<path d="M260.839 98.8906C260.839 98.8906 261.022 98.8906 260.839 99.0281C255.517 104.112 250.461 109.466 245.692 115.071C245.645 115.115 245.584 115.141 245.52 115.145C245.456 115.148 245.392 115.13 245.341 115.091C245.289 115.053 245.252 114.998 245.237 114.936C245.221 114.873 245.228 114.808 245.256 114.75C249.65 108.735 254.9 103.392 260.839 98.8906Z" fill="#3E7979"/>
<path d="M181.986 158.777C182.996 167.485 185.543 175.873 186.094 184.651C186.243 187.621 186.243 190.596 186.094 193.566L188.113 193.864L189.398 194.07C189.398 194.46 189.169 194.849 189.077 195.262C189.261 194.872 189.467 194.483 189.674 194.116H190.179L193.3 194.62C199.519 181.764 204.025 168.149 206.702 154.124C208.327 145.102 209.369 135.985 209.823 126.829C210.455 118.859 209.495 110.843 207 103.246C205.21 98.3647 200.896 88.6475 194.401 89.1517C191.28 89.3809 190.225 91.8102 189.811 94.5833C189.372 99.0149 189.218 103.47 189.352 107.922C189.49 117.387 190.133 126.256 186.369 135.286C184.459 139.166 182.988 143.248 181.986 147.455C181.428 151.208 181.428 155.023 181.986 158.777Z" fill="#6EC6B5"/>
<path d="M198.211 173.947C195.997 180.905 193.171 187.654 189.766 194.115H190.27C193.974 187.836 196.734 181.049 198.463 173.97C198.509 173.878 198.257 173.787 198.211 173.947Z" fill="#499094"/>
<path d="M186.185 145.919C186.216 152.063 186.746 158.195 187.769 164.253C188.274 167.508 188.87 170.762 189.467 174.016C190.268 177.065 190.723 180.194 190.821 183.344L188.182 193.863L189.467 194.07C192.496 182.817 195.365 171.541 197.821 160.151C198.417 157.378 198.968 154.582 199.45 151.786C203.342 142.528 205.735 132.711 206.541 122.703C206.541 122.703 206.541 122.703 206.404 122.703C204.78 132.168 202.479 141.504 199.519 150.64C200.281 145.998 200.756 141.314 200.942 136.614C201.24 128.203 200.689 119.747 200.207 111.404C200.207 111.129 199.771 111.106 199.771 111.404C200.395 121.96 200.226 132.547 199.266 143.077C197.783 153.797 195.629 164.413 192.818 174.864C192.29 177.156 191.739 179.242 191.211 181.419C191.051 179.837 190.706 178.256 190.431 176.698C189.903 173.443 189.329 170.212 188.779 166.958C187.491 160.036 186.648 153.039 186.254 146.011L186.185 145.919Z" fill="#499094"/>
<path d="M189.766 137.669C191.064 144.951 191.61 152.346 191.395 159.739H191.234C190.638 152.382 190.133 145.026 189.559 137.669C189.536 137.509 189.743 137.509 189.766 137.669Z" fill="#499094"/>
<path d="M199.656 195.765L202.892 196.361L205.187 196.82C207.482 197.255 209.41 197.69 211.36 198.126C221.802 194.803 234.08 195.032 244.637 194.046C251.521 193.428 260.885 192.488 263.684 185.017C264.946 181.625 264.006 177.912 265.015 174.452C266.599 169.02 271.9 165.536 276.49 162.718C282.044 159.28 289.686 154.811 290.42 147.523C291.154 140.235 282.066 141.496 277.431 142.55C261.366 146.194 246.886 154.605 233.001 163.176L231.257 164.23C223.539 168.742 216.481 174.294 210.282 180.731C209.593 181.464 208.951 182.198 208.285 183.023C204.966 186.953 202.073 191.225 199.656 195.765Z" fill="#65BEBF"/>
<path d="M202.869 196.362L205.164 196.82L206.059 195.789C206.381 195.468 206.679 195.124 206.977 194.804C220.586 188.066 236.467 190.014 250.443 184.192C250.473 184.192 250.502 184.18 250.524 184.159C250.545 184.137 250.557 184.108 250.557 184.078C250.557 184.047 250.545 184.018 250.524 183.997C250.502 183.975 250.473 183.963 250.443 183.963C237.316 188.547 221.366 186.599 208.813 192.901C220.993 179.645 236.127 169.438 252.99 163.108C253.084 163.081 253.164 163.017 253.211 162.931C253.259 162.845 253.27 162.744 253.242 162.65C253.215 162.555 253.151 162.476 253.065 162.429C252.979 162.381 252.878 162.37 252.784 162.397C241.121 165.783 230.237 171.42 220.747 178.99C226.366 173.18 232.512 167.902 239.106 163.223C239.142 163.182 239.165 163.131 239.17 163.077C239.175 163.023 239.162 162.969 239.134 162.922C239.106 162.876 239.063 162.84 239.012 162.82C238.962 162.799 238.906 162.796 238.853 162.81C234.967 165.212 231.31 167.966 227.93 171.038C225.91 172.825 223.982 174.727 222.147 176.698C220.93 178.005 219.852 179.357 218.567 180.709C212.886 185.458 207.633 190.696 202.869 196.362Z" fill="#3E7979"/>
<path d="M256.455 177.248C249.938 178.944 243.443 180.755 236.926 182.45C243.674 181.743 250.288 180.084 256.57 177.523C256.581 177.498 256.587 177.47 256.587 177.442C256.588 177.414 256.582 177.387 256.572 177.361C256.561 177.335 256.545 177.312 256.525 177.293C256.505 177.273 256.481 177.258 256.455 177.248Z" fill="#3E7979"/>
<path d="M266.392 160.219C259.144 164.51 251.562 168.212 243.719 171.288V171.449C251.925 169.158 259.658 165.425 266.553 160.425C266.56 160.401 266.562 160.375 266.557 160.35C266.552 160.324 266.542 160.301 266.526 160.281C266.51 160.261 266.49 160.244 266.467 160.234C266.443 160.223 266.418 160.218 266.392 160.219Z" fill="#3E7979"/>
<path d="M143.661 254C217.92 254 278.119 243.298 278.119 230.097C278.119 216.895 217.92 206.193 143.661 206.193C69.4016 206.193 9.20251 216.895 9.20251 230.097C9.20251 243.298 69.4016 254 143.661 254Z" fill="#476577"/>
<path d="M45.0031 93.2539H38.2102C36.9554 93.2539 35.9382 94.2697 35.9382 95.5228V102.307C35.9382 103.56 36.9554 104.575 38.2102 104.575H45.0031C46.2579 104.575 47.2751 103.56 47.2751 102.307V95.5228C47.2751 94.2697 46.2579 93.2539 45.0031 93.2539Z" fill="white"/>
<path d="M93.7697 122.543H86.9768C85.722 122.543 84.7048 123.559 84.7048 124.812V131.596C84.7048 132.849 85.722 133.864 86.9768 133.864H93.7697C95.0245 133.864 96.0416 132.849 96.0416 131.596V124.812C96.0416 123.559 95.0245 122.543 93.7697 122.543Z" fill="white"/>
<path d="M90.7634 130.747C90.5545 130.752 90.3467 130.714 90.1532 130.635C89.9596 130.556 89.7846 130.438 89.6389 130.288L84.2689 124.925C83.9645 124.622 83.7936 124.209 83.7936 123.78C83.7936 123.35 83.9645 122.938 84.2689 122.634C84.5732 122.33 84.9859 122.159 85.4163 122.159C85.8467 122.159 86.2595 122.33 86.5638 122.634L90.8093 126.873L97.694 119.998C97.9984 119.694 98.4111 119.523 98.8415 119.523C99.2719 119.523 99.6846 119.694 99.989 119.998C100.293 120.302 100.464 120.714 100.464 121.144C100.464 121.574 100.293 121.986 99.989 122.29L91.7961 130.288C91.524 130.568 91.154 130.733 90.7634 130.747Z" fill="#2F7DC0"/>
<path d="M153.185 44.9883C150.755 44.9883 148.355 45.5102 146.145 46.5185C143.936 47.5269 141.969 48.9981 140.379 50.8324L153.185 61.8789L165.99 50.8095C164.4 48.9771 162.433 47.5085 160.223 46.504C158.013 45.4994 155.613 44.9824 153.185 44.9883Z" fill="#2F7DC0"/>
<path d="M171.177 59.4258L154.401 61.878V78.7915C156.627 78.7945 158.832 78.3592 160.889 77.5106C162.947 76.662 164.817 75.4166 166.392 73.8457C167.967 72.2749 169.216 70.4093 170.069 68.3558C170.922 66.3023 171.36 64.101 171.36 61.878C171.36 61.0572 171.299 60.2375 171.177 59.4258Z" fill="#B2DAF2"/>
<path d="M140.402 50.877C138.969 52.5758 137.885 54.5399 137.212 56.6572C136.539 58.7745 136.29 61.0035 136.48 63.2168C136.669 65.4301 137.294 67.5845 138.317 69.5568C139.341 71.5291 140.743 73.2807 142.445 74.7117C143.059 75.2329 143.711 75.7079 144.395 76.1326L153.368 61.8776L140.402 50.877Z" fill="#64A8DB"/>
<path d="M153.345 78.724C150.092 78.7243 146.906 77.7938 144.166 76.0426L153.345 61.8105V78.724Z" fill="#86C0E8"/>
<path d="M172.118 58.4872C171.65 55.28 170.273 52.2737 168.148 49.8242L155.342 60.8936L172.118 58.4872Z" fill="#80BFE8"/>
<path d="M139.691 92.5879H134.573V104.872H139.691V92.5879Z" fill="#2263A6"/>
<path d="M139.691 87.8438H134.573V93.6191H139.691V87.8438Z" fill="#86C0E8"/>
<path d="M173.311 92.5879H168.193V104.872H173.311V92.5879Z" fill="#2263A6"/>
<path d="M173.334 82.2305H168.193V93.6207H173.334V82.2305Z" fill="#86C0E8"/>
<path d="M162.089 91.9004H156.971V104.872H162.089V91.9004Z" fill="#2263A6"/>
<path d="M162.089 90.7559H156.971V99.373H162.089V90.7559Z" fill="#86C0E8"/>
<path d="M150.89 87.4551H145.772V104.873H150.89V87.4551Z" fill="#2263A6"/>
<path d="M150.89 80.7168H145.772V94.6509H150.89V80.7168Z" fill="#86C0E8"/>
<path d="M120.436 185.751L115.686 185.636C110.913 185.498 106.506 185.269 102.353 185.017L98.6808 160.953L95.5138 161.71L93.0812 184.238C91.6355 184.238 90.2356 183.963 88.8586 183.825C83.2311 183.239 77.6442 182.313 72.1288 181.052L75.7318 143.902L75.8465 142.665C89.2082 144.216 102.735 143.526 115.87 140.625L120.436 185.751Z" fill="#29577E"/>
<path d="M116.673 218.11L111.945 217.72L109.237 143.214C92.4616 147.798 80.0921 140.556 71.9911 133.199L72.1058 130.678C72.1058 130.678 89.8684 136.293 112.129 126.553L116.673 218.11Z" fill="#29577E"/>
<g opacity="0.63">
<path d="M95.445 159.439L93.0124 184.099L88.7898 183.641C89.5012 174.405 91.4289 160.585 95.445 159.439Z" fill="#05799D"/>
</g>
<path d="M89.6389 170.097C82.0126 171.679 74.1059 171.26 66.6899 168.882L69.6962 136.041L70.0634 131.938C68.9616 131.738 67.8733 131.47 66.8046 131.136C62.9721 129.944 57.2349 127.286 57.9922 122.221C59.1396 114.819 60.6084 88.9213 62.582 86.6295C67.931 82.4075 73.525 78.5046 79.3348 74.9413L81.0101 73.8642L83.8787 72.0078V72.4891C83.8787 72.8099 83.8787 73.3141 84.0164 73.9788C84.6131 80.0749 86.3113 99.4177 87.8489 119.677C88.2849 125.659 88.675 131.709 88.9963 137.53C89.7631 148.368 89.9775 159.237 89.6389 170.097Z" fill="white" stroke="#E5E6E6" stroke-width="1.38" stroke-miterlimit="10"/>
<g opacity="0.11">
<path d="M88.9505 137.507L80.6659 138.08L79.289 136.957L69.6963 136.018L70.0634 131.915C68.9617 131.715 67.8734 131.447 66.8047 131.113L70.1552 121.946L87.803 119.654C88.2391 125.659 88.6292 131.709 88.9505 137.507Z" fill="#05799D"/>
</g>
<g opacity="0.11">
<path d="M72.1288 113.582L64.5327 89.541L73.8959 113.582H72.1288Z" fill="#05799D"/>
</g>
<g opacity="0.11">
<path d="M114.47 83.0547C114.217 84.086 112.978 93.3678 112.978 93.3678L111.44 111.015L114.47 83.0547Z" fill="#05799D"/>
</g>
<path d="M126.22 164.092C123.121 167.14 106.782 169.02 105.428 167.667C104.923 167.163 103.546 153.458 102.031 136.636C101.481 130.678 100.93 124.307 100.379 117.981C98.4283 95.0632 96.6613 73.0391 96.6613 73.0391L111.854 78.4248C114.35 79.3028 116.445 81.0528 117.751 83.3522C123.374 93.3673 125.279 114.016 125.279 114.016L118.807 119.173L118.669 119.288L120.964 133.565L126.22 164.092Z" fill="white" stroke="#E5E6E6" stroke-width="1.38" stroke-miterlimit="10"/>
<g opacity="0.11">
<path d="M113.896 86.6309L112.014 106.501L113.896 105.424V86.6309Z" fill="#05799D"/>
</g>
<path opacity="0.11" d="M121.079 133.52C115.479 135.812 107.31 132.076 107.31 132.076L106.093 135.079L105.634 136.385L101.985 136.637C101.435 130.678 100.884 124.307 100.333 117.982L109.513 116.744L118.692 119.036L118.555 119.151L121.079 133.52Z" fill="#05799D"/>
<path d="M82.2493 119.999L80.9871 126.05L68.847 133.269C66.7883 133.741 64.6341 133.573 62.6738 132.788C60.2412 131.688 58.084 129.075 58.084 123.208C57.943 120.738 58.6919 118.299 60.1953 116.333C63.4311 112.689 76.2596 108.082 76.2596 108.082L76.535 108.311C77.6595 109.411 82.9837 114.362 82.2493 119.999Z" fill="white" stroke="#E5E6E6" stroke-width="0.69" stroke-miterlimit="10"/>
<g opacity="0.06">
<path d="M82.2493 119.999L80.9872 126.049L68.8471 133.268C66.7884 133.741 64.6342 133.573 62.6738 132.787C69.2372 131.595 76.5809 121.328 74.7221 116.744C73.6205 114.132 74.9286 110.923 76.4891 108.311C77.6595 109.411 82.9837 114.361 82.2493 119.999Z" fill="#05799D"/>
</g>
<path d="M112.588 130.999C110.217 131.317 107.804 131.041 105.566 130.197C97.5564 126.919 98.6809 115.735 106.07 114.154C106.598 114.04 115.732 109.571 118.509 109.571C119.482 109.562 120.438 109.833 121.263 110.35C123.162 111.468 124.644 113.174 125.485 115.208C126.22 117.454 127.849 129.44 112.588 130.999Z" fill="white" stroke="#E5E6E6" stroke-width="0.69" stroke-miterlimit="10"/>
<g opacity="0.06">
<path d="M121.263 110.189C120.257 110.444 119.321 110.922 118.526 111.589C117.731 112.256 117.098 113.093 116.673 114.039C114.149 119.906 118.096 126.873 111.831 129.6C109.86 130.365 107.715 130.572 105.634 130.196C97.6252 126.919 98.7497 115.735 106.139 114.154C106.667 114.039 115.801 109.57 118.578 109.57C119.513 109.526 120.442 109.74 121.263 110.189Z" fill="#05799D"/>
</g>
<g opacity="0.42">
<path d="M79.725 119.334C78.4645 118.314 77.5114 116.965 76.9711 115.438C78.807 116.492 82.0428 117.844 81.7674 115.438C81.4232 112.092 90.075 108.104 90.075 108.104C90.075 108.104 90.488 106.706 90.7634 105.445C91.4501 105.926 91.9328 106.645 92.1174 107.462C92.7141 110.9 91.5896 128.02 79.725 119.334Z" fill="#F2765D"/>
</g>
<path d="M83.741 72.2377C82.1884 73.8587 80.9026 75.7152 79.9315 77.738C79.3348 79.8006 78.1185 81.7715 78.4628 82.1611L82.1346 86.1947L78.3939 89.1053L89.2029 120.961C89.2029 120.961 84.9114 70.1292 83.741 72.2377Z" fill="white" stroke="#E5E6E6" stroke-width="1.38" stroke-miterlimit="10"/>
<path d="M96.7761 72.6032C98.603 73.8737 100.221 75.42 101.572 77.1868C102.559 79.089 104.143 80.8079 103.867 81.2433C103.592 81.6788 101.045 85.8269 101.045 85.8269L105.267 87.9583L100.815 121.464C100.815 121.464 95.1467 70.7698 96.7761 72.6032Z" fill="white" stroke="#E5E6E6" stroke-width="1.38" stroke-miterlimit="10"/>
<g opacity="0.11">
<path d="M105.565 87.2483C105.393 86.386 105.163 85.5362 104.877 84.7044C103.567 80.7574 101.705 77.0153 99.3463 73.5892C99.3463 73.5892 98.9103 73.1079 98.6578 73.1766C98.5797 73.1951 98.5083 73.2348 98.4513 73.2912C98.3922 73.3455 98.3484 73.4142 98.3243 73.4906C98.3001 73.567 98.2964 73.6484 98.3136 73.7267C100.666 77.4024 102.526 81.3705 103.844 85.5294C104.005 86.2857 104.143 86.8816 104.28 87.3629C103.651 87.567 103.103 87.9655 102.715 88.5011C102.327 89.0366 102.12 89.6814 102.123 90.3422C102.107 90.9647 102.274 91.5783 102.604 92.107C102.933 92.6357 103.411 93.0564 103.977 93.317C104.543 93.5776 105.174 93.6668 105.79 93.5734C106.407 93.48 106.982 93.2082 107.446 92.7917C107.909 92.3751 108.241 91.8319 108.398 91.2294C108.556 90.6269 108.533 89.9915 108.333 89.4017C108.133 88.8119 107.764 88.2936 107.272 87.9108C106.781 87.5281 106.187 87.2978 105.565 87.2483Z" fill="#05799D"/>
</g>
<path d="M105.244 89.1977C105.305 87.51 105 85.8291 104.349 84.2703C103.028 80.3281 101.167 76.5875 98.8185 73.1551C98.8185 73.1551 98.3824 72.6738 98.13 72.7655C98.0896 72.7696 98.0504 72.7818 98.0149 72.8015C97.9794 72.8212 97.9483 72.848 97.9235 72.8801C97.8644 72.9343 97.8206 73.0031 97.7964 73.0795C97.7723 73.1559 97.7686 73.2373 97.7858 73.3155C100.126 77.008 101.97 80.9917 103.271 85.1641C103.516 86.5171 103.861 87.85 104.303 89.1519C104.303 89.4727 104.556 89.5644 104.716 89.5644C105.015 89.5415 105.244 89.1977 105.244 89.1977Z" fill="#3F5067"/>
<path d="M104.785 93.1379C106.534 93.1379 107.952 91.7219 107.952 89.9752C107.952 88.2285 106.534 86.8125 104.785 86.8125C103.036 86.8125 101.618 88.2285 101.618 89.9752C101.618 91.7219 103.036 93.1379 104.785 93.1379Z" fill="#088FC8"/>
<path d="M104.785 92.3139C106.078 92.3139 107.126 91.2673 107.126 89.9763C107.126 88.6853 106.078 87.6387 104.785 87.6387C103.492 87.6387 102.444 88.6853 102.444 89.9763C102.444 91.2673 103.492 92.3139 104.785 92.3139Z" fill="#63C5E5"/>
<g opacity="0.11">
<path d="M80.9183 73.8663L79.243 74.9434C79.4037 74.6684 79.5414 74.4163 79.6561 74.2559C79.7415 74.0936 79.8704 73.9583 80.0285 73.8651C80.1866 73.772 80.3676 73.7248 80.5511 73.7287L80.9183 73.8663Z" fill="#05799D"/>
<path d="M84.1541 73.0405C84.1541 73.3155 84.0394 73.6364 83.9705 73.9801C83.8099 74.8281 83.6033 75.9282 83.3509 77.1428C82.0657 82.9411 79.5413 91.8103 75.663 93.8729C75.9123 94.1036 76.1995 94.2897 76.5121 94.423C76.5866 94.3159 76.6983 94.2403 76.8254 94.2107C76.9526 94.181 77.0862 94.1995 77.2005 94.2626L78.4168 94.8813C78.5309 94.9444 78.6188 95.0458 78.665 95.1675C78.7112 95.2892 78.7127 95.4233 78.6693 95.546L78.4627 96.0502C78.4157 96.1807 78.321 96.2887 78.1975 96.3525C78.0741 96.4162 77.9311 96.431 77.7972 96.3939L76.4662 96.0272C76.3365 95.9898 76.2252 95.906 76.1532 95.792C76.0813 95.6779 76.0539 95.5414 76.076 95.4085C75.397 95.213 74.7904 94.8225 74.3319 94.2855C73.786 94.3305 73.237 94.2521 72.7255 94.0563C72.658 94.1713 72.551 94.258 72.4244 94.3001C72.2978 94.3423 72.1601 94.3371 72.037 94.2855L70.7748 93.7584C70.6448 93.7116 70.5383 93.6158 70.4783 93.4916C70.4182 93.3673 70.4093 93.2245 70.4535 93.0937L70.6142 92.5666C70.6643 92.4422 70.755 92.3383 70.8717 92.2718C70.9883 92.2052 71.1239 92.1799 71.2567 92.1999L72.5878 92.452C72.7191 92.4841 72.8349 92.5615 72.9147 92.6705C72.9944 92.7795 73.0331 92.9132 73.0238 93.0479C73.244 93.0864 73.4692 93.0864 73.6893 93.0479C72.2665 89.2206 75.5023 81.8868 77.8431 77.3949C78.3709 76.3636 78.8758 75.4698 79.243 74.8281L80.9183 73.751H81.1019C81.3084 73.9801 81.1019 74.0718 81.1019 74.2093C80.4931 75.0945 79.9338 76.0126 79.4266 76.9595C77.9186 79.9081 76.6523 82.9738 75.64 86.1267C74.6564 88.2267 74.461 90.6097 75.0892 92.8416C76.3285 92.3145 77.7972 90.779 79.1512 87.158C80.418 83.8358 81.3857 80.4075 82.0428 76.9136C82.2952 75.4698 82.41 74.3697 82.4788 73.7051C82.5017 73.4669 82.5855 73.2385 82.7222 73.0419C82.8588 72.8453 83.0437 72.687 83.2591 72.5821L83.4886 72.4446C83.5561 72.4104 83.6308 72.3926 83.7066 72.3926C83.7824 72.3926 83.857 72.4104 83.9246 72.4446C84.0229 72.5052 84.0985 72.5963 84.14 72.7039C84.1814 72.8116 84.1864 72.9298 84.1541 73.0405Z" fill="#05799D"/>
</g>
<path d="M83.8098 72.5809C83.6492 73.4747 83.3967 74.8727 83.0066 76.6603C81.7444 82.4586 79.22 91.3278 75.3416 93.3905C74.9293 93.6137 74.4771 93.7539 74.0106 93.803C73.2139 93.8891 72.4104 93.7206 71.7157 93.3217C71.6812 93.2993 71.6527 93.2688 71.6327 93.2328C71.6127 93.1969 71.6018 93.1566 71.601 93.1154V92.0841C72.0269 92.4017 72.5295 92.6009 73.0576 92.6613C73.5858 92.7217 74.1205 92.6411 74.6073 92.4279C75.8236 91.8779 77.2923 90.3424 78.6692 86.7213C79.9198 83.3956 80.8796 79.9681 81.5379 76.477C81.7903 75.0332 81.928 73.956 81.9969 73.2914C82.0199 73.0532 82.101 72.8242 82.233 72.6245C82.365 72.4247 82.5439 72.2603 82.7542 72.1455L82.9837 72.0309C83.071 71.9665 83.1761 71.9305 83.2846 71.9279C83.3931 71.9253 83.4998 71.9561 83.5901 72.0163C83.6804 72.0764 83.75 72.1629 83.7893 72.2639C83.8286 72.365 83.8358 72.4757 83.8098 72.5809Z" fill="#63C5E5"/>
<path d="M70.9124 91.6716L72.2435 91.9236C72.3191 91.9369 72.391 91.9657 72.4548 92.0083C72.5186 92.0509 72.5727 92.1064 72.6137 92.1711C72.6548 92.2359 72.6819 92.3084 72.6932 92.3842C72.7045 92.46 72.6999 92.5373 72.6795 92.6112L72.45 93.4133C72.4297 93.488 72.3937 93.5575 72.3446 93.6174C72.2955 93.6772 72.2343 93.726 72.165 93.7606C72.0956 93.7953 72.0198 93.8149 71.9424 93.8182C71.865 93.8215 71.7877 93.8085 71.7157 93.78L70.4305 93.23C70.304 93.1787 70.2011 93.0823 70.1417 92.9595C70.0823 92.8367 70.0708 92.6962 70.1092 92.5654L70.2928 92.0612C70.3304 91.9317 70.4142 91.8205 70.5284 91.7486C70.6426 91.6768 70.7793 91.6494 70.9124 91.6716Z" fill="#088FC8"/>
<path d="M80.6888 73.8876C80.0625 74.7613 79.5025 75.6806 79.0135 76.6377C77.4959 79.5848 76.2219 82.6507 75.204 85.8049C74.2344 87.9175 74.0473 90.3053 74.6762 92.5428C74.8288 92.9063 75.0554 93.2341 75.3417 93.5054C75.8768 94.0257 76.5915 94.321 77.3383 94.3304L76.5809 95.2242C75.5859 95.142 74.6629 94.6729 74.0107 93.9179C73.7185 93.5938 73.4994 93.2108 73.3681 92.7949C71.9223 88.9676 75.1811 81.6338 77.4989 77.1648C78.2792 75.6752 78.9447 74.5064 79.3119 73.8876C79.3987 73.6997 79.5437 73.5447 79.7256 73.4457C79.9075 73.3466 80.1165 73.3087 80.3216 73.3375L80.8724 73.5209C80.9642 73.6813 80.7806 73.7501 80.6888 73.8876Z" fill="#63C5E5"/>
<path d="M78.0267 94.3999L76.8333 93.7811C76.765 93.7429 76.6893 93.7196 76.6113 93.713C76.5333 93.7063 76.4548 93.7163 76.3809 93.7423C76.3071 93.7683 76.2396 93.8098 76.1831 93.8639C76.1266 93.918 76.0822 93.9835 76.0531 94.0561L75.7318 94.8124C75.699 94.8824 75.682 94.9587 75.682 95.036C75.682 95.1133 75.6991 95.1896 75.7319 95.2596C75.7648 95.3296 75.8126 95.3915 75.8721 95.4409C75.9315 95.4904 76.0012 95.5262 76.076 95.5458L77.43 95.9124C77.561 95.9458 77.6996 95.932 77.8214 95.8733C77.9432 95.8146 78.0403 95.7148 78.0955 95.5916L78.2791 95.0874C78.3345 94.9625 78.3391 94.821 78.292 94.6927C78.2449 94.5644 78.1498 94.4594 78.0267 94.3999Z" fill="#088FC8"/>
<g opacity="0.45">
<path d="M75.3417 93.4817C75.0399 93.1822 74.7916 92.8334 74.6073 92.4504L75.0204 92.2441C75.0204 92.2441 74.6532 92.3817 75.3417 93.4817Z" fill="#088FC8"/>
</g>
<path d="M80.7577 73.4514C80.9642 73.6805 80.7577 73.7493 80.7577 73.8868C80.1313 74.7605 79.5714 75.6798 79.0824 76.6369C78.5676 76.7354 78.0613 76.8733 77.5677 77.0495C78.348 75.5598 79.0135 74.391 79.3807 73.7722C79.4797 73.6176 79.6208 73.4945 79.7875 73.4173C79.9542 73.3402 80.1396 73.3122 80.3216 73.3368L80.7577 73.4514Z" fill="#088FC8"/>
<path d="M83.8098 72.5819C83.6492 73.4757 83.3967 74.8737 83.0066 76.6613C82.5447 76.5679 82.077 76.5067 81.6067 76.4779C81.8591 75.0341 81.9968 73.957 82.0657 73.2923C82.0887 73.0541 82.1698 72.8252 82.3018 72.6254C82.4338 72.4257 82.6127 72.2613 82.823 72.1464L83.0525 72.0319C83.1389 71.9889 83.2355 71.9704 83.3317 71.9784C83.428 71.9864 83.5202 72.0207 83.5983 72.0774C83.6764 72.1341 83.7374 72.2111 83.7747 72.3001C83.812 72.389 83.8241 72.4865 83.8098 72.5819Z" fill="#088FC8"/>
<path d="M79.7249 119.333C78.4645 118.314 77.5113 116.965 76.971 115.437C76.5684 114.484 76.3823 113.453 76.4259 112.418C76.4696 111.384 76.7419 110.372 77.2234 109.456C79.2429 105.904 80.7576 103.016 82.2493 102.855C85.2726 102.894 88.2238 103.784 90.7633 105.422C91.45 105.903 91.9327 106.622 92.1173 107.439C92.714 110.9 91.5895 128.019 79.7249 119.333Z" fill="#F8D3A8"/>
<path d="M79.9173 94.7502L79.798 94.819C79.5236 94.9772 79.4296 95.3276 79.588 95.6017L89.8118 113.286C89.9702 113.56 90.3211 113.654 90.5955 113.496L90.7148 113.427C90.9892 113.269 91.0832 112.918 90.9248 112.644L80.701 94.96C80.5426 94.6859 80.1917 94.592 79.9173 94.7502Z" fill="#F2765D"/>
<path d="M105.91 132.81L78.0726 133.795L77.3612 132.81L88.0325 95.3848H116.558L117.27 96.3702L105.91 132.81Z" fill="#E1F3FC"/>
<path d="M117.27 96.3711L111.555 116.47L107.7 129.946L106.621 133.796H78.0726L88.7439 96.3711H117.27Z" fill="#B6E3F5"/>
<path d="M84.3147 177.133C84.1398 178.376 83.5112 179.511 82.5496 180.319C81.588 181.127 80.3613 181.551 79.1052 181.511C77.3571 181.583 75.6098 181.35 73.9417 180.823C73.9417 180.823 70.5911 180.617 70.2928 179.196C70.2928 178.761 70.7747 178.44 71.6009 178.188H72.0599C71.0236 178.298 69.9757 178.189 68.9847 177.867C68.7945 177.806 68.6261 177.691 68.4998 177.537C68.3735 177.382 68.2948 177.194 68.2733 176.996C68.2733 176.033 71.2337 175.048 74.0335 174.36L73.0008 174.567C73.0008 174.567 72.2205 174.75 71.1878 174.91C69.329 175.208 66.7357 175.415 66.4374 174.406C66.4374 174.406 66.4374 174.406 66.4374 174.269C66.2538 172.435 72.4041 171.266 72.4041 171.266L78.5545 169.364H74.8597C73.2592 169.735 71.595 169.735 69.9945 169.364C69.8617 169.307 69.7468 169.215 69.662 169.098C69.5771 168.981 69.5255 168.843 69.5125 168.7C69.5125 166.958 76.5579 165.239 78.2791 164.941C78.8276 164.871 79.3828 164.871 79.9314 164.941C82.0886 165.17 85.049 166.156 85.2097 168.31C85.2214 171.274 84.9214 174.232 84.3147 177.133Z" fill="#F7A99C"/>
<g opacity="0.42">
<path d="M84.3148 177.133C84.1399 178.376 83.5113 179.511 82.5497 180.319C81.5881 181.127 80.3614 181.551 79.1053 181.511C81.6297 179.884 79.5414 177.225 79.5414 177.225C79.9545 176.692 80.1919 176.045 80.2206 175.371C80.2494 174.698 80.0682 174.033 79.702 173.467C81.9969 171.748 79.702 169.066 79.702 169.066C80.1669 168.502 80.4398 167.805 80.4811 167.075C80.5223 166.346 80.3298 165.623 79.9315 165.01C82.0887 165.239 85.0491 166.224 85.2098 168.379C85.2167 171.32 84.9167 174.254 84.3148 177.133Z" fill="#F2765D"/>
</g>
<g opacity="0.42">
<path d="M80.7347 173.535C80.7347 173.535 77.2924 173.741 74.0336 174.246C73.0239 174.406 72.0371 174.589 71.1879 174.796C69.3291 175.093 66.7358 175.3 66.4375 174.291C67.3309 174.474 68.2521 174.474 69.1455 174.291C71.7617 173.879 79.4955 173.1 79.4955 173.1L80.7347 173.535Z" fill="#F2765D"/>
</g>
<g opacity="0.42">
<path d="M80.7346 177.569C77.6635 177.544 74.5949 177.751 71.555 178.188H72.014C70.9778 178.299 69.9298 178.189 68.9388 177.867C71.555 177.455 79.8626 177.432 79.8626 177.432L80.7346 177.569Z" fill="#F2765D"/>
</g>
<g opacity="0.42">
<path d="M82.1575 169.157C82.1575 169.157 79.8626 169.157 77.3382 169.294H74.8597C73.2592 169.665 71.595 169.665 69.9945 169.294H70.4305C73.0697 168.882 81.3543 168.836 81.3543 168.836L82.1575 169.157Z" fill="#F2765D"/>
</g>
<path d="M126.954 159.463H32.0598V230.577H126.954V159.463Z" fill="#B2DAF2"/>
<path d="M126.954 159.463H99.5758V230.577H126.954V159.463Z" fill="#86C0E8"/>
<path d="M55.7432 161.938H35.3645V175.917H55.7432V161.938Z" fill="#B6E3F5"/>
<path d="M53.1728 165.719H37.9347C37.7438 165.719 37.5604 165.645 37.4234 165.513C37.2863 165.38 37.2063 165.199 37.2003 165.009C37.2003 164.814 37.2777 164.628 37.4154 164.49C37.5531 164.353 37.7399 164.275 37.9347 164.275H53.1728C53.2682 164.275 53.3627 164.294 53.4505 164.332C53.5383 164.369 53.6178 164.423 53.6842 164.492C53.7506 164.56 53.8025 164.641 53.8368 164.73C53.8712 164.819 53.8873 164.914 53.8843 165.009C53.8843 165.197 53.8093 165.378 53.6759 165.511C53.5425 165.644 53.3615 165.719 53.1728 165.719Z" fill="#05799D"/>
<path d="M45.3702 168.332H37.9347C37.7438 168.333 37.5604 168.258 37.4234 168.126C37.2863 167.993 37.2063 167.813 37.2003 167.622C37.2003 167.428 37.2777 167.241 37.4154 167.103C37.5531 166.966 37.7399 166.889 37.9347 166.889H45.3702C45.4666 166.889 45.5621 166.908 45.6512 166.945C45.7403 166.981 45.8213 167.035 45.8895 167.103C45.9576 167.172 46.0117 167.252 46.0486 167.341C46.0855 167.43 46.1045 167.526 46.1045 167.622C46.1046 167.717 46.0855 167.812 46.0483 167.899C46.0111 167.987 45.9566 168.066 45.8881 168.133C45.8196 168.199 45.7385 168.251 45.6495 168.285C45.5605 168.319 45.4655 168.336 45.3702 168.332Z" fill="#05799D"/>
<path d="M45.3702 170.946H37.9347C37.7438 170.946 37.5604 170.872 37.4234 170.739C37.2863 170.607 37.2063 170.426 37.2003 170.235C37.2003 170.041 37.2777 169.854 37.4154 169.717C37.5531 169.579 37.7399 169.502 37.9347 169.502H45.3702C45.4666 169.502 45.5621 169.521 45.6512 169.558C45.7403 169.595 45.8213 169.649 45.8895 169.717C45.9576 169.785 46.0117 169.866 46.0486 169.955C46.0855 170.044 46.1045 170.139 46.1045 170.235C46.1046 170.331 46.0855 170.425 46.0483 170.513C46.0111 170.6 45.9566 170.68 45.8881 170.746C45.8196 170.812 45.7385 170.864 45.6495 170.898C45.5605 170.933 45.4655 170.949 45.3702 170.946Z" fill="#05799D"/>
<path d="M45.3702 173.558H37.9347C37.7438 173.558 37.5604 173.484 37.4234 173.351C37.2863 173.219 37.2063 173.038 37.2003 172.848C37.2063 172.657 37.2863 172.476 37.4234 172.344C37.5604 172.211 37.7438 172.137 37.9347 172.137H45.3702C45.4655 172.134 45.5605 172.15 45.6495 172.184C45.7385 172.219 45.8196 172.271 45.8881 172.337C45.9566 172.403 46.0111 172.483 46.0483 172.57C46.0855 172.658 46.1046 172.752 46.1045 172.848C46.1046 172.943 46.0855 173.037 46.0483 173.125C46.0111 173.213 45.9566 173.292 45.8881 173.358C45.8196 173.424 45.7385 173.476 45.6495 173.511C45.5605 173.545 45.4655 173.561 45.3702 173.558Z" fill="#05799D"/>
<path d="M124.108 223.909H124.361C124.445 223.876 124.523 223.827 124.588 223.764C124.653 223.701 124.706 223.626 124.742 223.543C124.778 223.46 124.798 223.371 124.799 223.28C124.801 223.19 124.784 223.1 124.751 223.015L103.064 166.637C103.031 166.553 102.982 166.476 102.919 166.41C102.856 166.345 102.781 166.293 102.698 166.256C102.615 166.22 102.525 166.201 102.434 166.199C102.344 166.198 102.253 166.214 102.169 166.248C102.004 166.314 101.871 166.442 101.798 166.604C101.725 166.767 101.719 166.951 101.779 167.118L123.489 223.497C123.542 223.617 123.628 223.721 123.738 223.794C123.848 223.867 123.976 223.907 124.108 223.909Z" fill="#05799D"/>
<path d="M102.421 223.908C102.562 223.904 102.698 223.858 102.812 223.776C102.927 223.695 103.014 223.581 103.064 223.45L124.751 167.072C124.784 166.989 124.8 166.901 124.798 166.812C124.796 166.723 124.777 166.635 124.74 166.554C124.704 166.473 124.652 166.4 124.586 166.339C124.521 166.278 124.444 166.231 124.361 166.201C124.193 166.141 124.009 166.147 123.846 166.22C123.683 166.293 123.555 166.426 123.489 166.591L101.779 222.969C101.717 223.139 101.724 223.327 101.796 223.493C101.869 223.659 102.002 223.791 102.169 223.863L102.421 223.908Z" fill="#05799D"/>
<path d="M186.254 173.832H235.388C235.872 173.832 236.352 173.928 236.799 174.113C237.246 174.299 237.651 174.571 237.993 174.914C238.334 175.257 238.604 175.664 238.787 176.112C238.97 176.559 239.063 177.038 239.06 177.522V230.485H233.782V183.962C233.776 182.677 233.26 181.447 232.349 180.541C231.437 179.635 230.203 179.126 228.917 179.126H191.097C189.812 179.126 188.581 179.636 187.673 180.542C186.765 181.449 186.254 182.679 186.254 183.962V230.485H180.953V177.522C180.953 176.543 181.342 175.605 182.035 174.913C182.728 174.221 183.668 173.832 184.648 173.832H186.254Z" fill="#29577E"/>
<path d="M165.394 173.832H214.528C215.507 173.832 216.447 174.221 217.14 174.913C217.833 175.605 218.222 176.543 218.222 177.522V230.485H212.921V183.962C212.915 182.681 212.403 181.455 211.496 180.549C210.589 179.644 209.361 179.132 208.079 179.126H170.236C168.953 179.132 167.725 179.644 166.819 180.549C165.912 181.455 165.4 182.681 165.394 183.962V230.485H160.092V177.522C160.092 176.543 160.482 175.605 161.175 174.913C161.867 174.221 162.807 173.832 163.787 173.832H165.394Z" fill="#345A7F"/>
<path d="M202.525 83.2832V161.686H240.965L244.315 96.2548C244.406 94.5896 244.155 92.9235 243.579 91.3583C243.003 89.7931 242.113 88.3618 240.963 87.1519C239.814 85.942 238.43 84.979 236.895 84.3217C235.36 83.6643 233.707 83.3266 232.038 83.329L202.525 83.2832Z" fill="#B4BCE1"/>
<path d="M165.233 176.17L162.502 161.686H240.965C241.161 161.686 241.355 161.724 241.536 161.799C241.717 161.874 241.881 161.984 242.02 162.122C242.158 162.26 242.268 162.424 242.343 162.605C242.418 162.786 242.456 162.98 242.456 163.175V174.634C242.456 174.83 242.418 175.024 242.343 175.204C242.268 175.385 242.158 175.549 242.02 175.688C241.881 175.826 241.717 175.936 241.536 176.01C241.355 176.085 241.161 176.124 240.965 176.124L165.233 176.17Z" fill="#B4BCE1"/>
<path d="M240.07 108.378L236.972 161.685H240.965L244.315 96.2546C244.447 93.7026 243.779 91.173 242.406 89.017C241.032 86.8609 239.021 85.1853 236.65 84.2227C242.594 92.5877 240.529 100.174 240.07 108.378Z" fill="#8497C0"/>
<path d="M156.581 152.267C156.529 154.833 157.249 157.356 158.647 159.509C160.218 161.812 162.549 163.491 165.233 164.253C168.046 165.104 171.038 165.167 173.885 164.437L189.674 160.541L194.723 159.303L199.657 143.123L200.001 141.954L201.47 137.05L202.342 134.162L183.982 137.898L183.271 138.035L164.751 141.84C162.395 142.372 160.295 143.701 158.807 145.601C157.318 147.501 156.532 149.855 156.581 152.267Z" fill="#3F86A9"/>
<path d="M189.261 160.449L188.366 147.18L184.281 161.87L189.261 160.449Z" fill="#3F86A9"/>
<path d="M177.557 152.381C177.557 153.152 177.472 153.921 177.304 154.673L175.744 215.887C175.745 216.032 175.715 216.177 175.656 216.31C175.597 216.443 175.51 216.562 175.402 216.66C175.293 216.757 175.166 216.831 175.027 216.875C174.888 216.92 174.741 216.934 174.596 216.918C172.312 216.629 170.014 216.46 167.712 216.414C165.577 216.414 162.25 216.597 160.551 216.689C160.411 216.698 160.27 216.679 160.137 216.633C160.004 216.587 159.881 216.515 159.776 216.421C159.672 216.327 159.587 216.213 159.527 216.086C159.467 215.959 159.433 215.821 159.427 215.681C159.129 208.186 157.293 163.565 156.696 152.862C156.609 151.487 156.796 150.108 157.246 148.805C157.696 147.502 158.401 146.302 159.318 145.272C160.236 144.243 161.349 143.405 162.592 142.808C163.836 142.211 165.186 141.866 166.564 141.793H167C169.8 141.817 172.478 142.942 174.454 144.924C176.43 146.905 177.545 149.585 177.557 152.381Z" fill="#3F86A9"/>
<path d="M171.773 216.551C171.735 216.546 171.7 216.526 171.674 216.497C171.649 216.467 171.635 216.43 171.636 216.391V215.909C171.636 215.873 171.65 215.838 171.676 215.812C171.702 215.786 171.737 215.772 171.773 215.772C171.81 215.772 171.845 215.786 171.871 215.812C171.897 215.838 171.911 215.873 171.911 215.909V216.414C171.911 216.45 171.897 216.485 171.871 216.511C171.845 216.537 171.81 216.551 171.773 216.551ZM171.911 213.297C171.875 213.297 171.84 213.282 171.814 213.257C171.788 213.231 171.773 213.196 171.773 213.159L171.888 210.386C171.909 210.374 171.933 210.368 171.957 210.368C171.981 210.368 172.005 210.374 172.026 210.386C172.062 210.386 172.097 210.401 172.123 210.427C172.149 210.452 172.164 210.487 172.164 210.524L172.118 213.136C172.118 213.173 172.103 213.208 172.077 213.234C172.052 213.259 172.017 213.274 171.98 213.274L171.911 213.297ZM172.141 207.796C172.123 207.774 172.111 207.748 172.107 207.719C172.103 207.691 172.107 207.662 172.118 207.636V204.886C172.118 204.868 172.121 204.85 172.128 204.833C172.135 204.817 172.145 204.801 172.158 204.789C172.171 204.776 172.186 204.766 172.203 204.759C172.219 204.752 172.237 204.748 172.255 204.748C172.255 204.748 172.393 204.748 172.393 204.909L172.278 207.659C172.278 207.677 172.275 207.695 172.268 207.712C172.261 207.728 172.251 207.743 172.238 207.756C172.225 207.769 172.21 207.779 172.193 207.786C172.177 207.793 172.159 207.796 172.141 207.796ZM172.37 202.273C172.352 202.273 172.334 202.27 172.317 202.263C172.301 202.256 172.286 202.246 172.273 202.233C172.26 202.22 172.25 202.205 172.243 202.188C172.236 202.172 172.232 202.154 172.232 202.136V199.386C172.232 199.349 172.247 199.314 172.273 199.288C172.299 199.263 172.334 199.248 172.37 199.248C172.407 199.248 172.442 199.263 172.467 199.288C172.493 199.314 172.508 199.349 172.508 199.386V202.136C172.508 202.172 172.493 202.207 172.467 202.233C172.442 202.259 172.407 202.273 172.37 202.273ZM172.6 196.773C172.561 196.767 172.526 196.748 172.501 196.719C172.475 196.689 172.462 196.651 172.462 196.613V193.862C172.462 193.826 172.476 193.791 172.502 193.765C172.528 193.739 172.563 193.725 172.6 193.725C172.638 193.73 172.673 193.75 172.699 193.779C172.724 193.809 172.738 193.846 172.737 193.885V196.635C172.737 196.672 172.723 196.707 172.697 196.733C172.671 196.758 172.636 196.773 172.6 196.773ZM172.829 191.25C172.793 191.25 172.758 191.235 172.732 191.209C172.706 191.184 172.691 191.149 172.691 191.112V188.362C172.691 188.362 172.691 188.225 172.852 188.225C172.864 188.245 172.871 188.269 172.871 188.293C172.871 188.317 172.864 188.341 172.852 188.362V191.112C172.852 191.149 172.838 191.184 172.812 191.209C172.786 191.235 172.751 191.25 172.714 191.25H172.829ZM173.059 185.749C173.022 185.749 172.987 185.735 172.961 185.709C172.935 185.683 172.921 185.648 172.921 185.612L173.036 182.839C173.057 182.818 173.086 182.806 173.116 182.806C173.146 182.806 173.175 182.818 173.196 182.839C173.196 182.839 173.196 182.839 173.196 182.976V185.726C173.196 185.763 173.182 185.798 173.156 185.824C173.13 185.85 173.095 185.864 173.059 185.864V185.749ZM173.288 180.226C173.252 180.226 173.217 180.212 173.191 180.186C173.165 180.16 173.15 180.125 173.15 180.089V177.338C173.156 177.3 173.175 177.265 173.205 177.24C173.234 177.214 173.272 177.201 173.311 177.201C173.343 177.206 173.373 177.223 173.394 177.249C173.415 177.274 173.426 177.306 173.426 177.338L173.311 180.112C173.311 180.112 173.311 180.112 173.173 180.112L173.288 180.226ZM173.518 174.726C173.499 174.726 173.482 174.722 173.465 174.715C173.448 174.708 173.433 174.698 173.42 174.686C173.407 174.673 173.397 174.658 173.39 174.641C173.383 174.624 173.38 174.606 173.38 174.588V171.815C173.404 171.801 173.432 171.794 173.46 171.794C173.488 171.794 173.516 171.801 173.541 171.815C173.555 171.835 173.563 171.859 173.563 171.884C173.563 171.909 173.555 171.933 173.541 171.953V174.703C173.541 174.739 173.526 174.774 173.5 174.8C173.474 174.826 173.439 174.84 173.403 174.84L173.518 174.726ZM173.747 169.203C173.711 169.203 173.676 169.188 173.65 169.162C173.624 169.137 173.609 169.102 173.609 169.065V166.315C173.615 166.276 173.634 166.241 173.664 166.216C173.693 166.191 173.731 166.177 173.77 166.177C173.785 166.197 173.793 166.221 173.793 166.246C173.793 166.271 173.785 166.295 173.77 166.315V169.088C173.77 169.088 173.77 169.088 173.632 169.088L173.747 169.203ZM173.977 163.702C173.94 163.702 173.905 163.688 173.879 163.662C173.853 163.636 173.839 163.601 173.839 163.565V163.29C173.854 162.964 173.974 162.653 174.18 162.401C174.387 162.149 174.67 161.97 174.986 161.892L175.698 161.731C175.716 161.723 175.736 161.72 175.756 161.722C175.776 161.724 175.795 161.731 175.811 161.743C175.827 161.755 175.84 161.77 175.848 161.788C175.857 161.806 175.86 161.826 175.858 161.846C175.875 161.869 175.884 161.897 175.884 161.926C175.884 161.955 175.875 161.983 175.858 162.006L175.147 162.167C174.885 162.227 174.651 162.373 174.481 162.58C174.311 162.787 174.214 163.045 174.206 163.313V163.565C174.206 163.601 174.192 163.636 174.166 163.662C174.14 163.688 174.105 163.702 174.068 163.702H173.977ZM178.314 161.273V161.113L181.091 160.425C181.116 160.402 181.149 160.39 181.183 160.39C181.216 160.39 181.249 160.402 181.274 160.425C181.287 160.45 181.293 160.477 181.293 160.505C181.293 160.533 181.287 160.56 181.274 160.585L178.589 161.204C178.589 161.204 178.314 161.342 178.314 161.273ZM183.592 159.737C183.578 159.727 183.566 159.713 183.558 159.697C183.55 159.681 183.546 159.664 183.546 159.646C183.546 159.628 183.55 159.61 183.558 159.595C183.566 159.579 183.578 159.565 183.592 159.554C183.696 159.408 183.774 159.245 183.822 159.073L184.395 156.987C184.422 156.969 184.454 156.959 184.487 156.959C184.52 156.959 184.552 156.969 184.579 156.987C184.596 157.011 184.605 157.039 184.605 157.068C184.605 157.096 184.596 157.124 184.579 157.148L184.005 159.233C183.938 159.44 183.838 159.633 183.707 159.806L183.592 159.737ZM185.222 154.489C185.205 154.466 185.196 154.438 185.196 154.409C185.196 154.38 185.205 154.352 185.222 154.329L185.887 151.67C185.911 151.654 185.939 151.645 185.967 151.645C185.996 151.645 186.024 151.654 186.048 151.67C186.048 151.67 186.185 151.67 186.048 151.831L185.29 154.489H185.222Z" fill="#3F86A9"/>
<path d="M174.275 222.97H160.184V216.851C162.62 216.545 165.073 216.399 167.528 216.415C169.753 216.42 171.976 216.566 174.183 216.851L174.275 222.97Z" fill="#182436"/>
<path d="M160.184 218.889V220.837C160.185 221.466 159.998 222.082 159.646 222.605C159.294 223.127 158.795 223.533 158.211 223.77L150.408 226.887C149.746 227.128 149.172 227.563 148.762 228.136C148.353 228.709 148.126 229.392 148.113 230.096H176.157V228.262C176.166 226.979 175.841 225.716 175.216 224.595C174.598 223.497 174.274 222.257 174.275 220.997V219.141H171.796C171.311 219.129 170.84 219.311 170.488 219.645L169.02 220.951C168.828 221.125 168.603 221.257 168.359 221.341C168.115 221.425 167.856 221.458 167.598 221.438C167.341 221.419 167.09 221.348 166.861 221.229C166.632 221.109 166.429 220.945 166.266 220.745L165.325 219.599C165.147 219.375 164.92 219.195 164.661 219.072C164.403 218.949 164.12 218.886 163.833 218.889H160.184Z" fill="#565A61"/>
<path d="M148.411 230.119H175.767C175.986 230.119 176.196 230.206 176.351 230.361C176.506 230.516 176.593 230.725 176.593 230.944V231.196C176.593 231.415 176.506 231.625 176.351 231.78C176.196 231.934 175.986 232.021 175.767 232.021H148.411C148.168 232.021 147.934 231.925 147.762 231.753C147.59 231.581 147.493 231.348 147.493 231.105C147.484 230.979 147.501 230.852 147.543 230.733C147.584 230.613 147.65 230.504 147.737 230.411C147.823 230.319 147.927 230.245 148.043 230.195C148.16 230.145 148.285 230.119 148.411 230.119Z" fill="#182436"/>
<path d="M187.998 155.843C188.195 157.537 188.75 159.17 189.628 160.633C190.706 162.46 192.242 163.975 194.085 165.028C195.928 166.081 198.015 166.636 200.138 166.637C201.034 166.639 201.927 166.539 202.801 166.339L208.01 165.193L209.112 164.941L212.783 164.139C229.077 160.358 223.432 140.121 222.514 137.967C218.108 138.884 208.171 140.625 199.886 142.046L198.096 142.344C194.999 142.869 192.224 144.564 190.344 147.077C188.464 149.59 187.624 152.728 187.998 155.843Z" fill="#3F86A9"/>
<path d="M183.271 138.034C183.16 138.299 183.108 138.585 183.119 138.872C183.131 139.158 183.204 139.439 183.335 139.695C183.467 139.95 183.652 140.174 183.879 140.35C184.105 140.526 184.368 140.651 184.648 140.716C187.149 141.266 191.533 142.16 196.122 142.732L199.473 143.122C205.264 143.765 211.102 143.88 216.914 143.466C217.811 143.376 218.71 143.624 219.432 144.163C220.154 144.702 220.648 145.492 220.816 146.376C221.711 151.35 221.504 160.631 209.043 164.848L212.715 164.046C229.008 160.265 223.363 140.028 222.445 137.874C218.039 138.791 208.102 140.532 199.817 141.953L201.286 137.049L183.913 137.897H183.202L183.271 138.034Z" fill="#3F86A9"/>
<path d="M208.836 153.368C208.831 154.137 208.754 154.905 208.607 155.66L206.794 216.942C206.792 217.096 206.757 217.248 206.692 217.388C206.627 217.528 206.532 217.652 206.415 217.751C206.297 217.851 206.16 217.925 206.011 217.967C205.863 218.01 205.707 218.02 205.554 217.997C203.364 217.693 201.156 217.532 198.945 217.515C196.543 217.518 194.143 217.679 191.762 217.997C191.61 218.019 191.455 218.01 191.307 217.969C191.159 217.928 191.021 217.857 190.902 217.76C190.784 217.663 190.686 217.542 190.617 217.405C190.548 217.268 190.508 217.118 190.5 216.965C190.247 209.196 189.949 201.45 189.651 193.704C189.123 179.953 188.411 163.268 187.746 151.42C188.263 148.838 189.72 146.538 191.837 144.968C193.953 143.397 196.578 142.667 199.203 142.918C201.828 143.169 204.266 144.383 206.046 146.327C207.825 148.27 208.82 150.803 208.836 153.437V153.368Z" fill="#3F86A9"/>
<path d="M218.429 144.774C218.451 144.749 218.464 144.716 218.464 144.682C218.464 144.648 218.451 144.616 218.429 144.591C218.093 144.256 217.706 143.977 217.281 143.765C217.256 143.743 217.223 143.73 217.19 143.73C217.156 143.73 217.123 143.743 217.098 143.765C217.084 143.776 217.072 143.79 217.064 143.806C217.056 143.822 217.052 143.839 217.052 143.857C217.052 143.875 217.056 143.892 217.064 143.908C217.072 143.924 217.084 143.938 217.098 143.949C217.5 144.146 217.871 144.401 218.199 144.705C218.199 144.705 218.383 144.774 218.429 144.774Z" fill="#1758A6"/>
<path d="M203.145 213.482C203.106 213.476 203.071 213.457 203.046 213.427C203.02 213.398 203.007 213.36 203.007 213.321L203.145 210.594C203.166 210.582 203.189 210.576 203.214 210.576C203.238 210.576 203.262 210.582 203.282 210.594C203.319 210.594 203.354 210.609 203.38 210.634C203.406 210.66 203.42 210.695 203.42 210.732L203.282 213.459C203.282 213.495 203.268 213.53 203.242 213.556C203.216 213.582 203.181 213.596 203.145 213.596V213.482ZM203.397 208.027C203.385 208.006 203.379 207.983 203.379 207.959C203.379 207.934 203.385 207.911 203.397 207.89V205.163C203.403 205.124 203.422 205.089 203.452 205.064C203.481 205.038 203.519 205.025 203.558 205.025C203.573 205.045 203.581 205.069 203.581 205.094C203.581 205.119 203.573 205.143 203.558 205.163V207.89C203.558 207.926 203.543 207.961 203.518 207.987C203.492 208.013 203.457 208.027 203.42 208.027H203.397ZM203.673 202.573C203.636 202.573 203.601 202.558 203.575 202.533C203.549 202.507 203.535 202.472 203.535 202.435L203.673 199.708C203.673 199.672 203.687 199.637 203.713 199.611C203.739 199.585 203.774 199.571 203.81 199.571C203.847 199.571 203.882 199.585 203.908 199.611C203.933 199.637 203.948 199.672 203.948 199.708L203.81 202.435C203.81 202.472 203.796 202.507 203.77 202.533C203.744 202.558 203.709 202.573 203.673 202.573ZM203.948 197.095C203.911 197.095 203.876 197.081 203.851 197.055C203.825 197.029 203.81 196.994 203.81 196.958L203.948 194.231C203.948 194.194 203.963 194.159 203.988 194.133C204.014 194.108 204.049 194.093 204.086 194.093C204.124 194.099 204.159 194.118 204.185 194.148C204.21 194.177 204.224 194.215 204.223 194.254L204.086 197.095C204.08 197.128 204.063 197.157 204.038 197.178C204.013 197.199 203.981 197.211 203.948 197.21V197.095ZM204.246 191.687C204.208 191.681 204.173 191.662 204.147 191.632C204.122 191.603 204.108 191.565 204.109 191.526L204.246 188.799C204.266 188.784 204.29 188.776 204.315 188.776C204.34 188.776 204.364 188.784 204.384 188.799C204.421 188.799 204.456 188.814 204.481 188.839C204.507 188.865 204.522 188.9 204.522 188.937L204.246 191.549C204.246 191.586 204.232 191.621 204.206 191.647C204.18 191.672 204.145 191.687 204.109 191.687H204.246ZM204.522 186.232C204.522 186.232 204.384 186.232 204.384 186.072L204.476 183.345C204.476 183.308 204.49 183.273 204.516 183.247C204.542 183.222 204.577 183.207 204.614 183.207C204.65 183.207 204.685 183.222 204.711 183.247C204.737 183.273 204.751 183.308 204.751 183.345L204.614 186.072C204.614 186.108 204.599 186.143 204.573 186.169C204.547 186.195 204.512 186.209 204.476 186.209L204.522 186.232ZM204.774 180.778C204.738 180.778 204.703 180.763 204.677 180.738C204.651 180.712 204.636 180.677 204.636 180.64L204.774 177.913C204.774 177.877 204.789 177.842 204.814 177.816C204.84 177.79 204.875 177.776 204.912 177.776C204.948 177.776 204.983 177.79 205.009 177.816C205.035 177.842 205.05 177.877 205.05 177.913L204.912 180.64C204.916 180.659 204.916 180.679 204.91 180.698C204.905 180.716 204.895 180.733 204.881 180.747C204.867 180.761 204.85 180.771 204.832 180.776C204.813 180.782 204.793 180.782 204.774 180.778ZM205.05 175.323C205.013 175.323 204.978 175.309 204.952 175.283C204.926 175.257 204.912 175.222 204.912 175.186L205.05 172.459C205.05 172.422 205.064 172.387 205.09 172.361C205.116 172.336 205.151 172.321 205.187 172.321C205.226 172.327 205.261 172.346 205.286 172.375C205.312 172.405 205.325 172.443 205.325 172.482L205.187 175.209C205.166 175.221 205.143 175.227 205.118 175.227C205.094 175.227 205.07 175.221 205.05 175.209V175.323ZM205.302 169.869C205.265 169.869 205.23 169.854 205.205 169.829C205.179 169.803 205.164 169.768 205.164 169.731L205.302 167.004C205.3 166.984 205.304 166.964 205.312 166.946C205.32 166.928 205.333 166.913 205.35 166.901C205.366 166.89 205.385 166.882 205.405 166.88C205.424 166.878 205.444 166.882 205.463 166.89C205.475 166.91 205.481 166.934 205.481 166.958C205.481 166.982 205.475 167.006 205.463 167.027L205.325 169.754C205.325 169.754 205.325 169.869 205.187 169.869H205.302ZM205.715 164.46C205.692 164.435 205.68 164.402 205.68 164.369C205.68 164.335 205.692 164.302 205.715 164.277C205.908 163.974 206.2 163.748 206.541 163.635L208.148 163.269C208.169 163.259 208.192 163.256 208.214 163.258C208.237 163.259 208.259 163.267 208.278 163.28C208.297 163.292 208.313 163.309 208.324 163.329C208.335 163.349 208.34 163.372 208.34 163.395C208.34 163.417 208.335 163.44 208.324 163.46C208.313 163.48 208.297 163.497 208.278 163.51C208.259 163.522 208.237 163.53 208.214 163.532C208.192 163.534 208.169 163.53 208.148 163.521L206.518 163.91C206.199 163.976 205.918 164.166 205.738 164.437L205.715 164.46ZM210.741 162.535C210.722 162.508 210.712 162.476 210.712 162.443C210.712 162.411 210.722 162.379 210.741 162.352C211.54 161.996 212.307 161.575 213.036 161.091C213.061 161.069 213.094 161.056 213.128 161.056C213.161 161.056 213.194 161.069 213.219 161.091C213.244 161.12 213.257 161.157 213.257 161.194C213.257 161.232 213.244 161.269 213.219 161.298C212.487 161.787 211.72 162.224 210.925 162.604C210.915 162.634 210.895 162.66 210.867 162.675C210.839 162.69 210.806 162.693 210.775 162.684C210.745 162.675 210.719 162.654 210.704 162.626C210.689 162.598 210.686 162.566 210.695 162.535H210.741ZM215.331 159.579C215.308 159.553 215.296 159.521 215.296 159.487C215.296 159.453 215.308 159.421 215.331 159.395C215.972 158.758 216.548 158.06 217.052 157.31C217.052 157.31 217.052 157.31 217.235 157.31C217.256 157.34 217.267 157.376 217.267 157.413C217.267 157.45 217.256 157.486 217.235 157.516C216.717 158.269 216.134 158.974 215.491 159.625L215.239 159.579H215.331ZM218.383 155.11C218.36 155.085 218.348 155.052 218.348 155.018C218.348 154.984 218.36 154.952 218.383 154.926C218.716 154.09 218.992 153.233 219.209 152.36C219.233 152.343 219.261 152.334 219.289 152.334C219.318 152.334 219.346 152.343 219.37 152.36C219.391 152.381 219.403 152.41 219.403 152.44C219.403 152.47 219.391 152.499 219.37 152.52C219.153 153.411 218.869 154.284 218.521 155.133C218.499 155.143 218.476 155.148 218.452 155.148C218.428 155.148 218.404 155.143 218.383 155.133V155.11ZM219.737 149.839C219.737 149.839 219.737 149.839 219.737 149.678C219.737 149.518 219.737 148.83 219.875 148.326C219.886 148.196 219.886 148.066 219.875 147.936C219.909 147.632 219.909 147.324 219.875 147.02C219.858 146.996 219.849 146.968 219.849 146.939C219.849 146.911 219.858 146.883 219.875 146.859C219.9 146.837 219.933 146.824 219.966 146.824C220 146.824 220.033 146.837 220.058 146.859C220.081 147.18 220.081 147.501 220.058 147.822C220.07 147.959 220.07 148.097 220.058 148.234C220.058 148.739 220.058 149.174 219.921 149.609C219.9 149.621 219.876 149.628 219.852 149.628C219.828 149.628 219.804 149.621 219.783 149.609L219.737 149.839Z" fill="#1758A6"/>
<path d="M202.938 217.582H203.076V216.207C203.097 216.186 203.109 216.157 203.109 216.127C203.109 216.097 203.097 216.068 203.076 216.047C203.037 216.046 202.999 216.06 202.97 216.086C202.94 216.111 202.921 216.146 202.915 216.184V217.559C202.915 217.596 202.93 217.631 202.956 217.657C202.981 217.683 203.016 217.697 203.053 217.697L202.938 217.582Z" fill="#1758A6"/>
<path d="M188.182 161.182C188.22 161.182 188.258 161.175 188.293 161.159C188.328 161.144 188.359 161.122 188.385 161.094C188.411 161.066 188.431 161.033 188.443 160.997C188.456 160.961 188.461 160.922 188.457 160.884L187.907 151.259C189.1 143.375 199.381 142.092 199.381 142.092C199.42 142.089 199.457 142.078 199.491 142.06C199.525 142.042 199.555 142.017 199.579 141.987C199.602 141.957 199.62 141.922 199.629 141.885C199.639 141.847 199.64 141.809 199.634 141.771C199.631 141.735 199.621 141.699 199.604 141.667C199.587 141.635 199.565 141.606 199.537 141.583C199.509 141.559 199.477 141.541 199.442 141.531C199.408 141.52 199.371 141.515 199.335 141.519C199.335 141.519 188.595 142.825 187.379 151.167L187.93 160.77C187.905 160.813 187.892 160.861 187.892 160.911C187.893 160.96 187.907 161.009 187.933 161.051C187.959 161.093 187.996 161.128 188.039 161.151C188.083 161.174 188.132 161.185 188.182 161.182Z" fill="#1758A6"/>
<path d="M205.233 223.794H191.647V217.881C194.03 217.582 196.429 217.437 198.83 217.446C200.971 217.462 203.11 217.607 205.233 217.881V223.794Z" fill="#182436"/>
<path d="M191.647 219.852V221.731C191.654 222.347 191.473 222.951 191.129 223.462C190.785 223.973 190.293 224.369 189.72 224.596L182.192 227.621C181.578 227.874 181.052 228.302 180.68 228.853C180.309 229.403 180.108 230.051 180.104 230.715H207.046V228.927C207.052 227.708 206.744 226.509 206.151 225.444C205.552 224.38 205.235 223.181 205.233 221.96V220.149H202.938C202.706 220.141 202.475 220.179 202.258 220.261C202.041 220.344 201.843 220.47 201.676 220.631L200.253 221.891C200.068 222.059 199.851 222.187 199.614 222.268C199.378 222.349 199.127 222.381 198.878 222.361C198.628 222.342 198.386 222.272 198.165 222.156C197.943 222.039 197.748 221.879 197.591 221.685L196.696 220.585C196.523 220.369 196.303 220.195 196.052 220.075C195.802 219.956 195.528 219.895 195.25 219.897L191.647 219.852Z" fill="#565A61"/>
<path d="M180.265 230.693H206.679C206.892 230.693 207.096 230.778 207.247 230.928C207.398 231.079 207.482 231.283 207.482 231.495V231.748C207.482 231.96 207.398 232.164 207.247 232.315C207.096 232.465 206.892 232.55 206.679 232.55H180.265C180.033 232.55 179.812 232.458 179.648 232.295C179.484 232.131 179.393 231.91 179.393 231.679C179.393 231.448 179.484 231.226 179.648 231.063C179.812 230.9 180.033 230.808 180.265 230.808V230.693Z" fill="#182436"/>
<path d="M183.271 137.943C183.271 138.185 183.349 138.421 183.494 138.615C183.638 138.809 183.842 138.951 184.074 139.02C186.952 139.925 189.889 140.629 192.864 141.129C196.139 141.703 199.453 142.033 202.778 142.114C205.074 142.183 207.373 142.121 209.662 141.931H210.97C215.466 141.504 219.909 140.637 224.235 139.341C224.676 139.202 225.061 138.924 225.33 138.547C225.599 138.171 225.738 137.718 225.727 137.256C225.727 136.935 225.727 136.614 225.727 136.293C225.727 134.391 225.566 132.512 225.428 130.632C224.258 114.361 220.54 98.5472 220.15 82.138L197.201 81.8859C195.283 81.8455 193.378 82.2059 191.607 82.9439C189.837 83.6819 188.24 84.7813 186.92 86.1715C185.09 87.8529 183.96 90.1597 183.753 92.6344V110.831L183.592 122.061V123.047V124.834L183.271 137.943Z" fill="#E5F5E7"/>
<path d="M203.673 146.286L210.97 141.84L221.55 135.4C222.217 134.988 223.014 134.842 223.784 134.991C224.553 135.139 225.239 135.572 225.704 136.202C225.704 134.3 225.543 132.42 225.405 130.541L209.662 142L203.673 146.286Z" fill="#56C3C0"/>
<path d="M219.324 100.678C217.374 111.254 212.354 121.025 204.889 128.775L195.067 138.997L222.606 117.614L219.324 100.678Z" fill="#E5F5E7"/>
<path d="M220.104 82.0234L218.406 123.276C218.222 127.149 221.55 129.326 225.428 129.578C225.428 129.578 232.313 127.722 232.313 123.711V101.664C233.713 91.6719 229.903 84.1548 220.104 82.0234Z" fill="#E5F5E7"/>
<path d="M186.897 145.735L185.635 148.967L184.395 151.258C184.342 151.355 184.316 151.464 184.319 151.574C184.322 151.684 184.354 151.792 184.413 151.885C184.471 151.979 184.554 152.055 184.651 152.106C184.749 152.157 184.859 152.181 184.969 152.175C186.048 152.175 187.608 151.877 188.044 151.029C188.044 151.809 188.641 156.553 189.49 156.553C190.339 156.553 190.959 152.198 191.097 151.35C191.28 153.138 191.785 157.928 192.542 157.951C193.3 157.973 193.942 153.138 194.149 151.35C194.149 151.946 194.745 156.805 195.595 156.805C196.444 156.805 197.132 151.923 197.201 151.35C197.499 153.642 198.096 155.43 198.647 155.43C199.198 155.43 199.198 153.619 199.473 151.258C200.5 149.443 201.658 147.704 202.938 146.056C201.468 145.074 200.073 143.987 198.762 142.802C197.683 141.791 196.671 140.711 195.732 139.57C194.539 140.441 193.323 141.243 186.897 145.735Z" fill="#F8D3A8"/>
<path d="M188.044 151.259C188.081 151.259 188.116 151.245 188.142 151.219C188.168 151.193 188.182 151.158 188.182 151.122C188.24 149.874 188.569 148.654 189.146 147.546C189.16 147.536 189.172 147.522 189.18 147.506C189.188 147.49 189.192 147.473 189.192 147.455C189.192 147.437 189.188 147.419 189.18 147.404C189.172 147.388 189.16 147.374 189.146 147.363C189.121 147.341 189.088 147.328 189.054 147.328C189.02 147.328 188.988 147.341 188.962 147.363C188.347 148.516 188.002 149.793 187.953 151.099C187.953 151.135 187.967 151.17 187.993 151.196C188.019 151.222 188.054 151.236 188.09 151.236L188.044 151.259Z" fill="#F8D3A8"/>
<path d="M191.097 151.579C191.117 151.591 191.141 151.598 191.165 151.598C191.19 151.598 191.213 151.591 191.234 151.579C191.404 150.445 191.777 149.35 192.336 148.348C192.36 148.319 192.373 148.282 192.373 148.245C192.373 148.207 192.36 148.17 192.336 148.142C192.325 148.127 192.311 148.116 192.295 148.108C192.279 148.1 192.262 148.096 192.244 148.096C192.226 148.096 192.209 148.1 192.193 148.108C192.177 148.116 192.163 148.127 192.152 148.142C191.559 149.173 191.17 150.309 191.005 151.488C190.997 151.506 190.994 151.526 190.996 151.546C190.998 151.565 191.005 151.584 191.016 151.6C191.028 151.617 191.044 151.629 191.062 151.638C191.08 151.646 191.1 151.65 191.12 151.648L191.097 151.579Z" fill="#F8D3A8"/>
<path d="M194.149 151.579C194.169 151.594 194.193 151.602 194.218 151.602C194.242 151.602 194.267 151.594 194.286 151.579C194.484 150.691 194.745 149.818 195.067 148.967C195.041 148.944 195.009 148.932 194.975 148.932C194.941 148.932 194.908 148.944 194.883 148.967C194.535 149.768 194.251 150.596 194.034 151.442C194.013 151.463 194.001 151.492 194.001 151.522C194.001 151.552 194.013 151.581 194.034 151.602L194.149 151.579Z" fill="#F8D3A8"/>
<path d="M197.201 151.579C197.222 151.591 197.246 151.598 197.27 151.598C197.294 151.598 197.318 151.591 197.339 151.579C197.511 150.765 197.83 149.988 198.28 149.287C198.302 149.262 198.315 149.229 198.315 149.196C198.315 149.162 198.302 149.129 198.28 149.104C198.251 149.08 198.214 149.066 198.176 149.066C198.139 149.066 198.102 149.08 198.073 149.104C197.588 149.872 197.261 150.729 197.109 151.625C197.109 151.643 197.113 151.661 197.12 151.678C197.127 151.694 197.137 151.709 197.15 151.722C197.162 151.735 197.178 151.745 197.194 151.752C197.211 151.759 197.229 151.762 197.247 151.762L197.201 151.579Z" fill="#F8D3A8"/>
<path d="M195.526 138.561C195.386 138.685 195.295 138.855 195.269 139.04C195.244 139.225 195.286 139.413 195.388 139.57C196.315 140.863 197.359 142.068 198.509 143.168C199.991 144.468 201.58 145.641 203.26 146.674C203.381 146.757 203.525 146.801 203.673 146.801C203.82 146.801 203.964 146.757 204.086 146.674C206.266 145.116 216.937 137.507 228.251 129.532C229.884 128.271 231.044 126.497 231.544 124.497C232.044 122.497 231.854 120.387 231.005 118.508C230.427 117.749 229.703 117.114 228.876 116.638C228.049 116.163 227.135 115.857 226.187 115.74C225.24 115.623 224.279 115.695 223.361 115.954C222.442 116.213 221.584 116.653 220.839 117.248L195.526 138.561Z" fill="#E5F5E7"/>
<path d="M203.719 146.905C203.853 146.949 203.997 146.949 204.132 146.905L225.818 131.458C225.833 131.445 225.845 131.429 225.853 131.412C225.861 131.394 225.865 131.374 225.865 131.355C225.865 131.335 225.861 131.316 225.853 131.298C225.845 131.281 225.833 131.265 225.818 131.252C225.793 131.229 225.761 131.217 225.727 131.217C225.693 131.217 225.66 131.229 225.635 131.252L203.971 146.676C203.897 146.737 203.803 146.771 203.707 146.771C203.611 146.771 203.517 146.737 203.443 146.676L203.053 146.332C203.026 146.304 202.988 146.289 202.95 146.289C202.911 146.289 202.874 146.304 202.846 146.332C202.819 146.359 202.804 146.396 202.804 146.435C202.804 146.474 202.819 146.511 202.846 146.538L203.237 146.882C203.389 146.949 203.561 146.958 203.719 146.905Z" fill="#329890"/>
<path d="M195.227 139.434L195.457 139.686C195.47 139.7 195.486 139.712 195.504 139.72C195.521 139.728 195.541 139.732 195.56 139.732C195.58 139.732 195.599 139.728 195.617 139.72C195.635 139.712 195.651 139.7 195.663 139.686C195.688 139.657 195.701 139.62 195.701 139.583C195.701 139.545 195.688 139.508 195.663 139.48L195.434 139.227L218.865 119.174L219.439 101.321C219.439 101.288 219.428 101.256 219.407 101.231C219.386 101.206 219.356 101.189 219.324 101.184C219.324 101.184 219.163 101.184 219.163 101.321L218.59 119.105L195.25 139.044C195.223 139.068 195.201 139.097 195.185 139.13C195.169 139.162 195.16 139.198 195.158 139.234C195.156 139.27 195.161 139.307 195.173 139.341C195.185 139.375 195.203 139.407 195.227 139.434Z" fill="#329890"/>
<path d="M225.704 120.961C225.74 120.961 225.775 120.946 225.801 120.921C225.827 120.895 225.841 120.86 225.841 120.823C225.841 120.787 225.827 120.752 225.801 120.726C225.775 120.7 225.74 120.686 225.704 120.686L218.704 118.875C218.681 118.859 218.653 118.85 218.624 118.85C218.595 118.85 218.567 118.859 218.544 118.875C218.525 118.902 218.515 118.934 218.515 118.967C218.515 119 218.525 119.032 218.544 119.059L225.428 120.869L225.704 120.961Z" fill="#329890"/>
<path d="M146.323 94.8114C146.184 94.6912 146.011 94.6177 145.828 94.6014C145.645 94.5852 145.462 94.6271 145.304 94.7211C145.147 94.8151 145.023 94.9564 144.95 95.1249C144.877 95.2934 144.86 95.4804 144.9 95.6594C145.241 97.113 146.047 98.4162 147.195 99.3721C145.887 98.295 139.324 92.4967 138.291 94.0781C137.258 95.6594 144.349 100.953 144.349 100.953C144.349 100.953 135.17 95.224 134.367 96.8282C133.563 98.4325 142.513 103.474 142.513 103.474C142.513 103.474 134.022 100.243 133.586 101.458C132.967 103.314 140.769 106.729 140.769 106.729C140.769 106.729 135.399 104.666 135.399 106.27C135.399 108.333 150.592 112.848 150.592 112.848C150.687 110.95 151.019 109.072 151.578 107.256C152.144 105.543 152.915 103.904 153.873 102.374C151.593 99.6286 149.066 97.097 146.323 94.8114Z" fill="#F8D3A8"/>
<path d="M148.388 107.715C148.346 107.715 148.305 107.698 148.275 107.668C148.245 107.638 148.228 107.597 148.228 107.555C148.358 106.604 148.21 105.635 147.803 104.765C147.396 103.896 146.747 103.161 145.933 102.65C145.907 102.618 145.893 102.577 145.893 102.536C145.893 102.494 145.907 102.454 145.933 102.421C145.948 102.406 145.966 102.394 145.985 102.386C146.005 102.377 146.026 102.373 146.048 102.373C146.069 102.373 146.09 102.377 146.11 102.386C146.13 102.394 146.147 102.406 146.162 102.421C147.003 102.984 147.665 103.775 148.071 104.7C148.478 105.626 148.612 106.648 148.457 107.646C148.442 107.676 148.418 107.7 148.388 107.715Z" fill="#F8D3A8"/>
<path d="M148.113 105.422H147.998C147.574 105.067 147.05 104.853 146.498 104.812C145.946 104.771 145.395 104.904 144.923 105.193C144.889 105.225 144.844 105.243 144.797 105.243C144.75 105.243 144.705 105.225 144.671 105.193C144.655 105.178 144.643 105.16 144.635 105.14C144.627 105.121 144.622 105.1 144.622 105.078C144.622 105.057 144.627 105.036 144.635 105.016C144.643 104.996 144.655 104.979 144.671 104.964C145.203 104.642 145.823 104.494 146.443 104.539C147.064 104.584 147.656 104.821 148.136 105.216C148.168 105.25 148.186 105.295 148.186 105.342C148.186 105.389 148.168 105.434 148.136 105.468C148.126 105.454 148.119 105.438 148.113 105.422Z" fill="#F8D3A8"/>
<path d="M170.488 118.807C170.487 120.252 170.924 121.662 171.741 122.854C172.558 124.045 173.717 124.962 175.066 125.483C176.414 126.004 177.89 126.105 179.297 125.772C180.704 125.44 181.978 124.689 182.95 123.62C183.829 122.663 184.425 121.481 184.671 120.205L196.008 81.7949C196.008 81.7949 183.248 82.0241 178.888 91.1455L170.626 117.409C170.536 117.87 170.49 118.338 170.488 118.807Z" fill="#E5F5E7"/>
<path d="M150.615 113.398C150.602 113.535 150.633 113.673 150.703 113.792C150.773 113.911 150.879 114.006 151.005 114.062L175.009 125.659C176.71 126.44 178.65 126.525 180.414 125.896C182.177 125.266 183.623 123.971 184.441 122.29C184.575 122.031 184.69 121.763 184.786 121.488C185.358 119.81 185.287 117.979 184.588 116.35C183.889 114.721 182.61 113.408 180.999 112.664L154.814 101.664C154.658 101.591 154.481 101.582 154.318 101.637C154.156 101.693 154.021 101.809 153.942 101.961C152.96 103.624 152.189 105.403 151.647 107.256C151.036 109.249 150.689 111.314 150.615 113.398Z" fill="#E5F5E7"/>
<path d="M150.615 113.398C150.602 113.536 150.633 113.674 150.703 113.793C150.773 113.912 150.879 114.006 151.005 114.063C159.014 117.936 167.069 121.603 175.009 125.66C179.691 128.066 183.592 123.757 183.592 123.757V120.641C183.176 121.534 182.618 122.354 181.94 123.07C181.18 123.807 180.22 124.304 179.18 124.5C178.139 124.695 177.064 124.581 176.088 124.17L150.615 113.398Z" fill="#56C3C0"/>
<path d="M183.592 123.963C183.612 123.953 183.628 123.939 183.639 123.921C183.651 123.902 183.657 123.881 183.657 123.86C183.657 123.838 183.651 123.817 183.639 123.799C183.628 123.781 183.612 123.766 183.592 123.757V101.091C183.592 101.054 183.578 101.019 183.552 100.993C183.526 100.968 183.491 100.953 183.455 100.953C183.418 100.953 183.383 100.968 183.357 100.993C183.331 101.019 183.317 101.054 183.317 101.091V123.757C183.317 123.793 183.331 123.828 183.357 123.854C183.383 123.88 183.418 123.894 183.455 123.894L183.592 123.963Z" fill="#329890"/>
<path d="M211.728 83.9485C210.066 85.2679 207.971 85.9216 205.853 85.782C203.711 85.6106 201.696 84.6942 200.161 83.1922L200.712 66.5996L212.187 67.333L211.728 83.9485Z" fill="#F8D3A8"/>
<path d="M212.095 69.5781C212.095 69.5781 208.974 79.1578 200.322 78.6078V76.5681L212.095 69.5781Z" fill="#F8D3A8"/>
<path d="M218.658 64.7825C218.689 61.4285 216.855 58.692 214.561 58.6705C212.267 58.6489 210.382 61.3503 210.35 64.7043C210.319 68.0584 212.153 70.7948 214.447 70.8164C216.741 70.838 218.626 68.1366 218.658 64.7825Z" fill="#F8D3A8"/>
<path d="M192.015 57.2946C191.876 58.2738 191.934 59.2708 192.186 60.2271C192.438 61.1835 192.879 62.0799 193.483 62.8637L194.952 55.9883L192.015 57.2946Z" fill="#434445"/>
<path d="M194.47 53.0312C194.47 53.0312 190.064 75.3075 199.657 76.5222C202.239 76.9328 204.885 76.45 207.155 75.1538C209.426 73.8575 211.185 71.8257 212.141 69.3947L212.669 55.346L194.47 53.0312Z" fill="#F8D3A8"/>
<path d="M211.131 61.191C211.131 61.191 215.124 55.7595 218.314 62.0161C218.314 62.0161 222.904 54.9115 219.255 49.457L208.767 53.5823C208.85 56.2856 209.667 58.9156 211.131 61.191Z" fill="#434445"/>
<path d="M219.186 49.4574C219.186 49.4574 214.596 41.4361 206.863 45.5385C206.863 45.5385 205.394 43.2467 203.535 44.0717L201.653 44.9197C201.653 44.9197 196.467 40.0611 193.759 46.0197C193.759 46.0197 187.172 44.3696 190.293 52.1618C190.293 52.1618 189.284 56.2412 192.015 57.2037C192.015 57.2037 206.449 58.3267 210.374 56.2182L219.186 49.4574Z" fill="#434445"/>
<path d="M212.669 79.6395C212.695 79.5144 212.69 79.3846 212.653 79.2622C212.616 79.1397 212.548 79.0287 212.457 78.9394C212.365 78.8501 212.252 78.7855 212.129 78.7516C212.005 78.7177 211.875 78.7157 211.751 78.7457C209.922 79.203 208.055 79.4944 206.174 79.6166C204.229 79.7312 202.277 79.6621 200.345 79.4103C200.223 79.3923 200.099 79.4042 199.982 79.4451C199.866 79.486 199.762 79.5546 199.678 79.6449C199.595 79.7352 199.534 79.8445 199.502 79.9634C199.471 80.0823 199.468 80.2071 199.496 80.327L200.161 83.1918C200.161 83.1918 203.718 91.3047 211.636 83.9481L212.669 79.6395Z" fill="#E5F5E7"/>
<path d="M41.614 46.247L27.5724 48.8105C20.8897 50.0305 16.4627 56.4296 17.6844 63.1033L20.2513 77.1259C21.473 83.7996 27.8808 88.2206 34.5635 87.0006L48.6051 84.4371C55.2878 83.2171 59.7149 76.8179 58.4932 70.1443L55.9262 56.1217C54.7045 49.448 48.2967 45.0269 41.614 46.247Z" fill="#F7A99C"/>
<path d="M49.7305 59.7474L41.2394 61.3058L39.6788 52.8262L31.7155 54.27L33.2761 62.7726L24.762 64.3081L26.2307 72.2835L34.7218 70.7251L36.2824 79.2048L44.2457 77.7609L42.6852 69.2584L51.1992 67.7229L49.7305 59.7474Z" fill="white"/>
<path d="M153.185 24.2251V26.6773C153.179 28.1009 152.892 29.5093 152.341 30.8222C151.79 32.1351 150.985 33.3267 149.973 34.3291C148.961 35.3314 147.761 36.1249 146.441 36.6641C145.122 37.2033 143.709 37.4777 142.284 37.4717H121.056L115.984 42.3303L116.099 36.9904C113.892 36.3097 111.962 34.9412 110.591 33.0853C109.22 31.2293 108.48 28.9837 108.48 26.6773V24.2251C108.477 22.8007 108.756 21.3897 109.3 20.0731C109.845 18.7566 110.644 17.5604 111.653 16.5531C112.661 15.5459 113.859 14.7476 115.177 14.2039C116.496 13.6602 117.909 13.3818 119.335 13.3849H142.284C143.713 13.3788 145.13 13.6548 146.452 14.1968C147.774 14.7389 148.976 15.5364 149.989 16.5436C151.002 17.5508 151.806 18.7479 152.354 20.0661C152.902 21.3843 153.185 22.7976 153.185 24.2251Z" fill="#2F7DC0"/>
<path d="M151.831 22.9182V25.4391C151.825 28.3041 150.681 31.0496 148.65 33.0733C146.619 35.097 143.868 36.2335 140.999 36.2335H119.702L114.745 41.0921V35.7522C112.539 35.0716 110.608 33.703 109.237 31.8471C107.866 29.9912 107.126 27.7455 107.126 25.4391V22.9182C107.138 20.0572 108.285 17.3175 110.315 15.2988C112.345 13.2801 115.093 12.1467 117.958 12.1467H140.907C142.333 12.1376 143.746 12.4091 145.066 12.9455C146.387 13.4819 147.588 14.2728 148.603 15.273C149.617 16.2733 150.424 17.4632 150.978 18.775C151.532 20.0867 151.822 21.4946 151.831 22.9182Z" fill="#B6E3F5"/>
<path d="M140.425 21.1764H118.325C118.186 21.1629 118.047 21.2028 117.936 21.2879C117.825 21.373 117.751 21.497 117.729 21.6348V22.1619C117.729 22.3911 118.004 22.5973 118.325 22.5973H140.425C140.746 22.5973 141.022 22.3911 141.022 22.1619V21.6348C140.999 21.497 140.925 21.373 140.814 21.2879C140.703 21.2028 140.564 21.1629 140.425 21.1764Z" fill="#2F7DC0"/>
<path d="M140.425 17.9668H118.325C118.004 17.9668 117.729 18.1501 117.729 18.4022V18.9294C117.729 19.1815 118.004 19.3648 118.325 19.3648H140.425C140.746 19.3648 141.022 19.1815 141.022 18.9294V18.3335C141.022 18.1501 140.746 17.9668 140.425 17.9668Z" fill="#2F7DC0"/>
<path d="M140.242 24.4082H118.509C118.233 24.4082 118.004 24.752 118.004 25.1874C118.004 25.6229 118.233 25.9437 118.509 25.9437H140.242C140.517 25.9437 140.769 25.5999 140.769 25.1874C140.769 24.7749 140.517 24.4082 140.242 24.4082Z" fill="#2F7DC0"/>
<path d="M140.242 27.7539H118.509C118.233 27.7539 118.004 28.0977 118.004 28.5331C118.004 28.9686 118.233 29.2894 118.509 29.2894H140.242C140.517 29.2894 140.769 28.9456 140.769 28.5331C140.769 28.1206 140.517 27.7539 140.242 27.7539Z" fill="#2F7DC0"/>
<path d="M89.2717 6.14146L90.4191 8.29575C91.7648 10.8205 92.0567 13.774 91.2314 16.5128C90.406 19.2516 88.5303 21.5536 86.0129 22.9174L67.2636 32.9784L65.1064 39.6475L62.6738 34.8806C60.4061 35.3275 58.0547 35.0367 55.9648 34.0508C53.8748 33.065 52.1563 31.4361 51.0615 29.4032L49.8911 27.2489C48.5311 24.7197 48.2311 21.755 49.0572 19.0053C49.8832 16.2555 51.7678 13.9453 54.2974 12.5814L74.5843 1.74121C77.1169 0.382954 80.0856 0.0834348 82.8391 0.908362C85.5926 1.73329 87.906 3.61529 89.2717 6.14146Z" fill="#2F7DC0"/>
<path d="M87.5046 5.70611L88.675 7.8604C89.3471 9.11241 89.7656 10.4843 89.9067 11.8979C90.0479 13.3114 89.9088 14.7389 89.4975 16.0988C89.0863 17.4586 88.4108 18.7243 87.5097 19.8235C86.6086 20.9227 85.4995 21.8338 84.2458 22.505L65.4965 32.566L63.3393 39.2351L60.9067 34.4911C58.6365 34.936 56.2833 34.6418 54.1931 33.6517C52.1028 32.6616 50.3858 31.0279 49.2945 28.9908L48.1929 26.8365C46.8339 24.3107 46.5346 21.3495 47.3608 18.6034C48.187 15.8574 50.0711 13.5513 52.5991 12.1919L72.8172 1.28294C75.3526 -0.0735355 78.3235 -0.369622 81.0773 0.45971C83.8312 1.28904 86.1428 3.17598 87.5046 5.70611Z" fill="#B6E3F5"/>
<path d="M76.6038 9.51189L57.143 19.9625C56.8447 20.1229 56.707 20.4208 56.8218 20.6271L57.0742 21.1084C57.1727 21.2036 57.3043 21.2568 57.4414 21.2568C57.5784 21.2568 57.7101 21.2036 57.8086 21.1084L77.2693 10.6578C77.5677 10.4974 77.7054 10.1994 77.5906 9.99317L77.3382 9.53481C77.2234 9.3973 76.9022 9.35146 76.6038 9.51189Z" fill="#2F7DC0"/>
<path d="M75.0663 6.66887L55.6055 17.1195C55.4797 17.1706 55.3785 17.2683 55.3229 17.392C55.2673 17.5158 55.2617 17.6563 55.3072 17.7841L55.5596 18.2654C55.6568 18.3539 55.7837 18.403 55.9153 18.403C56.0469 18.403 56.1738 18.3539 56.271 18.2654L75.7318 7.90644C75.8576 7.85528 75.9588 7.75765 76.0144 7.63386C76.07 7.51007 76.0756 7.36965 76.0302 7.24181L75.7318 6.87513C75.6649 6.76588 75.5605 6.68469 75.438 6.64673C75.3155 6.60878 75.1834 6.61664 75.0663 6.66887Z" fill="#2F7DC0"/>
<path d="M78.0267 12.4445L58.8184 22.7117C58.7055 22.8378 58.6431 23.001 58.6431 23.1701C58.6431 23.3392 58.7055 23.5024 58.8184 23.6284C59.002 24.0181 59.3692 24.2014 59.6216 24.0639L78.6922 13.7508C78.9447 13.6133 78.9906 13.2008 78.6922 12.8112C78.3939 12.4216 78.2103 12.307 78.0267 12.4445Z" fill="#2F7DC0"/>
<path d="M79.5643 15.3774L60.4248 25.6676C60.1724 25.8051 60.1265 26.2176 60.4248 26.5843C60.7231 26.951 60.9985 27.1573 61.251 27.0198L80.3216 16.7296C80.5511 16.7296 80.597 16.2025 80.3216 15.8129C80.0462 15.4233 79.8167 15.2399 79.5643 15.3774Z" fill="#2F7DC0"/>
<g opacity="0.11">
<path d="M127.138 187.4L109.054 130.174L132.232 189.852L127.138 187.4Z" fill="#05799D"/>
</g>
<path d="M95.1008 84.9341C95.1008 86.0341 94.6418 86.7904 93.6779 86.8592H92.1174C91.6355 86.8592 91.1535 86.8592 90.6716 86.8592C89.7537 86.8592 89.157 86.1258 89.134 85.0716C89.1087 84.8571 89.1269 84.6398 89.1876 84.4326C89.2483 84.2254 89.3503 84.0325 89.4875 83.8656C89.6246 83.6987 89.7941 83.5612 89.9857 83.4612C90.1774 83.3613 90.3872 83.301 90.6028 83.284H92.1174H93.4944C93.7111 83.2772 93.9268 83.3156 94.1278 83.3968C94.3289 83.4779 94.5107 83.6 94.6619 83.7553C94.813 83.9105 94.9301 84.0955 95.0057 84.2985C95.0813 84.5015 95.1136 84.7179 95.1008 84.9341Z" fill="#29577E"/>
<path d="M80.0462 41C80.0696 41.0979 80.0696 41.2 80.0462 41.2979C80.0357 41.1989 80.0357 41.099 80.0462 41Z" fill="#231F20"/>
<path d="M84.4753 45.8365C91.4387 43.6118 98.9235 43.6118 105.887 45.8365C105.887 45.8365 107.7 60.504 104.854 65.4084C104.854 65.4084 99.8512 74.5756 93.0124 69.3962C90.2814 67.2877 87.6653 65.7064 87.1604 62.5208L84.4753 45.8365Z" fill="#FCC892"/>
<path d="M90.3044 53.2382C91.2554 52.6551 92.3429 52.3313 93.4584 52.2991C94.5738 52.2669 95.6782 52.5275 96.6613 53.0548L95.8581 51.7026C92.6682 50.5567 91.2683 51.7026 91.2683 51.7026L90.3044 53.2382Z" fill="#182436"/>
<path d="M80.3217 51.0161C80.3825 52.7708 80.582 54.518 80.9183 56.2414C82.2494 61.1229 85.5081 62.8418 85.5081 62.5438C85.5081 62.2459 85.5081 61.8334 85.3704 61.2604H85.1868C84.4352 60.5856 83.9069 59.6983 83.6722 58.7165C82.7084 55.9205 82.41 51.8411 85.4852 51.5661L86.3114 52.0703C86.3114 52.0703 86.3114 54.3621 86.3114 55.0267C86.3114 55.6913 86.5867 55.6684 86.6097 55.6684C86.9641 55.8053 87.3341 55.8977 87.7112 55.9434C87.9178 55.9434 87.8719 55.6913 87.8719 55.6913C87.8719 55.6913 87.8719 55.4392 87.8719 55.3476V54.4996C87.8719 54.2246 87.8719 53.9954 87.8719 53.6975C87.8578 53.6606 87.8578 53.6198 87.8719 53.5829V53.0787C87.8633 52.9643 87.8633 52.8494 87.8719 52.7349C87.8719 52.7349 87.8719 52.5287 87.8719 52.437C87.7459 51.9795 87.7459 51.4965 87.8719 51.039L88.0325 50.4431L88.4686 48.8389C88.5101 48.6124 88.5715 48.39 88.6522 48.1743C89.0652 46.845 89.5013 46.8221 89.6619 46.6846C89.8226 46.5471 90.0291 46.5012 90.0291 46.5012L90.5569 46.3179L91.3142 46.0887H91.5208C92.0674 45.9334 92.6399 45.8899 93.2038 45.9607C93.7677 46.0316 94.3114 46.2155 94.8025 46.5012L95.3074 46.6846C96.1012 46.9383 96.9452 46.9937 97.7654 46.8459C98.5857 46.698 99.357 46.3515 100.012 45.8366H100.127H100.264C100.649 45.582 101.09 45.4247 101.55 45.3783C102.185 45.3887 102.809 45.5551 103.365 45.8628C103.921 46.1706 104.393 46.6102 104.739 47.1429C105.4 48.0728 105.89 49.1127 106.185 50.2139C106.193 50.2595 106.193 50.3059 106.185 50.3515C106.185 51.3369 106.323 52.0016 106.323 52.0016C107.005 51.4195 107.44 50.6002 107.539 49.7098C107.66 49.1287 107.729 48.5382 107.746 47.9451V46.9138C107.493 42.3302 103.982 36.6007 87.0916 38.4799C88.7942 38.4676 90.4368 39.1073 91.6814 40.2675C89.9193 39.2961 87.8983 38.8956 85.8983 39.1216H85.0721C82.2494 39.3967 81.2626 40.6113 80.9413 41.2759C80.9647 41.3739 80.9647 41.4759 80.9413 41.5739C80.7608 42.045 80.645 42.5384 80.597 43.0406C80.597 43.8886 80.4594 44.7136 80.4135 45.5158C80.3676 46.3179 80.4135 46.4325 80.4135 46.8679C80.3217 48.3576 80.3217 49.7785 80.3217 51.0161Z" fill="#182436"/>
<path d="M88.239 48.7237L88.3997 48.082C88.3281 48.291 88.2744 48.5057 88.239 48.7237Z" fill="#182436"/>
<path d="M100.127 54.7731C100.127 55.7356 101.205 56.5378 102.559 56.5378C103.913 56.5378 104.969 55.7356 104.969 54.7731C104.992 54.6192 104.957 54.4624 104.873 54.3317C104.789 54.201 104.66 54.1054 104.51 54.0626C104.108 53.9869 103.695 53.9869 103.294 54.0626H102.674C101.32 53.948 100.127 53.7876 100.127 54.7731Z" fill="white"/>
<path d="M102.743 54.7973C102.761 55.0627 102.88 55.3111 103.077 55.4905C103.274 55.6698 103.532 55.7664 103.798 55.7599C103.931 55.766 104.064 55.746 104.189 55.7009C104.313 55.6559 104.428 55.5866 104.526 55.4972C104.624 55.4078 104.704 55.3 104.76 55.1799C104.816 55.0598 104.848 54.9298 104.854 54.7973C104.849 54.6068 104.785 54.4226 104.671 54.2702C104.693 54.3167 104.705 54.3676 104.705 54.4192C104.705 54.4707 104.693 54.5216 104.671 54.5681C104.662 54.6197 104.644 54.669 104.616 54.7132C104.588 54.7574 104.552 54.7957 104.509 54.8256C104.466 54.8555 104.418 54.8765 104.367 54.8874C104.316 54.8983 104.263 54.8988 104.212 54.889C104.158 54.8841 104.107 54.8677 104.061 54.8409C104.015 54.8142 103.975 54.7778 103.945 54.7341C103.914 54.6905 103.893 54.6408 103.884 54.5884C103.875 54.5359 103.877 54.4821 103.89 54.4306C103.896 54.3771 103.912 54.3252 103.939 54.2783C103.965 54.2315 104.001 54.1906 104.044 54.1583C104.087 54.126 104.137 54.103 104.189 54.0907C104.242 54.0784 104.296 54.0771 104.349 54.0868C104.416 54.0623 104.489 54.0623 104.556 54.0868L104.441 53.9493C104.039 53.8737 103.627 53.8737 103.225 53.9493C103.074 54.0331 102.95 54.1565 102.865 54.306C102.78 54.4555 102.738 54.6255 102.743 54.7973Z" fill="black"/>
<path d="M90.075 54.7731C90.075 55.7356 91.1536 56.5378 92.5076 56.5378C93.8615 56.5378 94.9401 55.7356 94.9401 54.7731C94.9618 54.6161 94.9246 54.4567 94.8356 54.3256C94.7466 54.1944 94.6122 54.1008 94.4582 54.0626C94.0563 53.9869 93.6438 53.9869 93.2419 54.0626H92.6223C91.2683 53.948 90.075 53.7876 90.075 54.7731Z" fill="white"/>
<path d="M92.6911 54.7973C92.7088 55.0627 92.8285 55.3111 93.0252 55.4905C93.2219 55.6698 93.4804 55.7664 93.7467 55.7599C93.8801 55.7692 94.0139 55.7514 94.1402 55.7075C94.2664 55.6636 94.3824 55.5946 94.4812 55.5046C94.5799 55.4145 94.6593 55.3054 94.7145 55.1839C94.7697 55.0623 94.7996 54.9308 94.8024 54.7973C94.7975 54.6068 94.7334 54.4226 94.6188 54.2702C94.6412 54.3167 94.6528 54.3676 94.6528 54.4192C94.6528 54.4707 94.6412 54.5216 94.6188 54.5681C94.6105 54.6197 94.592 54.669 94.5642 54.7132C94.5365 54.7574 94.5001 54.7957 94.4573 54.8256C94.4145 54.8555 94.3661 54.8765 94.315 54.8874C94.2639 54.8983 94.2111 54.8988 94.1598 54.889C94.0675 54.8569 93.9895 54.7931 93.9398 54.709C93.8901 54.6249 93.8719 54.5259 93.8884 54.4297C93.905 54.3334 93.9551 54.2461 94.03 54.1834C94.1049 54.1206 94.1997 54.0864 94.2975 54.0868C94.3726 54.0664 94.4519 54.0664 94.527 54.0868L94.3893 53.9493C93.9874 53.8737 93.5749 53.8737 93.173 53.9493C93.0227 54.0331 92.8983 54.1565 92.8133 54.306C92.7283 54.4555 92.686 54.6255 92.6911 54.7973Z" fill="black"/>
<path d="M94.7336 60.1824C94.8956 60.4075 95.1353 60.5648 95.4064 60.624C95.6776 60.6832 95.9611 60.6402 96.2024 60.5032C96.6661 60.8036 97.2009 60.9766 97.7528 61.0047C98.3048 61.0329 98.8545 60.9153 99.3464 60.6637L98.176 56.0801L99.7136 60.6637C99.7136 60.6637 98.9333 61.7408 96.1565 61.0304C96.1565 61.0533 94.8713 61.3512 94.7336 60.1824Z" fill="#D3A57D"/>
<path d="M83.0066 55.1413V55.5079C83.0433 56.549 83.2447 57.5778 83.6033 58.556C83.7542 59.158 83.9696 59.7419 84.2458 60.2978C84.8896 61.4523 85.9474 62.3203 87.2063 62.7271L88.1931 64.0793C86.0818 61.2833 86.3572 52.0703 86.3572 52.0703C83.2361 50.0535 83.0066 53.8808 83.0066 55.1413Z" fill="#FCC892"/>
<path d="M86.2195 58.4869C86.2118 58.5742 86.1766 58.6568 86.1188 58.7227C86.0611 58.7886 85.9838 58.8345 85.8982 58.8536C85.6228 58.8536 84.9343 58.2119 84.1541 56.5618C83.9189 56.1244 83.8134 55.629 83.85 55.1338C83.8866 54.6386 84.0637 54.1641 84.3606 53.7658C84.3606 53.7658 86.0588 52.2762 85.6687 54.1784C85.504 55.6379 85.6929 57.1156 86.2195 58.4869Z" fill="#F7AD8D"/>
<path d="M96.9366 65.0645C97.636 65.3461 98.4174 65.3461 99.1168 65.0645C98.8057 65.3079 98.4219 65.4402 98.0267 65.4402C97.6315 65.4402 97.2477 65.3079 96.9366 65.0645Z" fill="#D3A57D"/>
<path d="M92.5076 61.5352L91.4749 62.704C91.4749 62.704 91.3142 63.4603 91.7502 63.7353C91.7502 63.7353 91.1765 63.7353 91.2454 62.429C91.6346 62.089 92.0575 61.7895 92.5076 61.5352Z" fill="#D3A57D"/>
<path d="M97.5563 61.8789L97.212 63.1165C97.212 63.1165 98.3136 63.6665 98.8414 63.3457C98.4379 63.3736 98.0341 63.2945 97.671 63.1165L97.5563 61.8789Z" fill="#D3A57D"/>
<path opacity="0.4" d="M89.5012 57.502C90.0237 57.9017 90.6426 58.1568 91.2954 58.2413C91.9481 58.3258 92.6117 58.2368 93.219 57.9832C92.4254 58.8671 91.5142 59.6382 90.511 60.275C90.511 60.275 89.7078 59.8396 89.5012 57.502Z" fill="#F7DAD0"/>
<path opacity="0.4" d="M105.933 57.8223C105.41 58.222 104.791 58.4771 104.139 58.5616C103.486 58.6461 102.822 58.5571 102.215 58.3035C103.01 59.1864 103.921 59.9574 104.923 60.5953C104.923 60.5953 105.566 60.1599 105.933 57.8223Z" fill="#F7DAD0"/>
<path d="M87.344 42.5137C87.344 42.5137 90.5569 44.095 90.3503 46.0889L91.1076 45.8597H91.3142C91.8608 45.7044 92.4333 45.6608 92.9972 45.7317C93.5611 45.8026 94.1048 45.9864 94.5959 46.2722L95.1008 46.4556C94.2746 45.3097 94.2058 42.8345 87.344 42.5137Z" fill="#B7B7B7"/>
<path d="M95.1008 41.5737C99.8742 43.8655 99.6906 44.6447 100.012 45.8135H100.127H100.264C100.649 45.5589 101.09 45.4016 101.55 45.3552C102.185 45.3656 102.809 45.532 103.365 45.8397C103.921 46.1475 104.393 46.5871 104.739 47.1198C103.661 43.5446 102.651 42.5362 101.641 41.9633C101.769 42.0793 101.872 42.2208 101.942 42.3787C102.012 42.5366 102.048 42.7073 102.048 42.88C102.048 43.0527 102.012 43.2235 101.942 43.3813C101.872 43.5392 101.769 43.6807 101.641 43.7967C97.3957 40.5195 95.1008 41.5737 95.1008 41.5737Z" fill="#B7B7B7"/>
<path d="M80.8953 56.2402C82.2263 61.1218 85.4851 62.8406 85.4851 62.5427C85.4851 62.2447 85.4851 61.8322 85.3474 61.2593H85.1638C84.4121 60.5845 83.8838 59.6972 83.6491 58.7154L80.8953 56.2402Z" fill="#182436"/>
<path d="M93.9304 64.4675C96.4709 64.5827 99.0162 64.5291 101.549 64.3071C99.0134 64.0351 96.4528 64.089 93.9304 64.4675Z" fill="#823F3F"/>
<path d="M81.01 41.1152C81.0334 41.2132 81.0334 41.3152 81.01 41.4132C80.9996 41.3141 80.9996 41.2143 81.01 41.1152Z" fill="#231F20"/>
<path d="M100.517 51.4971L99.7594 52.8492C100.675 52.3301 101.716 52.0726 102.769 52.1049C103.821 52.1372 104.844 52.4582 105.726 53.0326L104.854 51.5888C104.854 51.5888 103.5 50.4199 100.517 51.4971Z" fill="#182436"/>
<path d="M88.239 48.7237L88.3997 48.082C88.3281 48.291 88.2744 48.5057 88.239 48.7237Z" fill="#182436"/>
<path d="M86.3572 52.0704C86.3572 52.0704 86.3572 54.3622 86.3572 55.0268C86.3572 55.6914 86.6326 55.6685 86.6555 55.6685C87.0099 55.8053 87.3799 55.8977 87.7571 55.9435C87.9636 55.9435 87.9177 55.6914 87.9177 55.6914C87.9177 55.6914 87.9177 55.4393 87.9177 55.3476V54.4997C87.9177 54.2247 87.9177 53.9955 87.9177 53.6975C87.9036 53.6607 87.9036 53.6198 87.9177 53.583V53.0788C87.9091 52.9643 87.9091 52.8494 87.9177 52.735C87.9177 52.735 87.9177 52.5287 87.9177 52.4371C87.7917 51.9796 87.7917 51.4966 87.9177 51.0391L85.8293 51.5662L86.3572 52.0704Z" fill="#182436"/>
<path d="M88.8128 47.0501L88.3079 48.4481C87.2778 48.2979 86.2264 48.4163 85.2557 48.7919C86.2261 48.8195 87.1895 48.9657 88.1243 49.2273L87.6883 50.8316C85.2242 50.3275 82.6668 50.5423 80.3217 51.4504C80.3217 50.2128 80.3217 48.7231 80.3217 47.1647C81.6789 46.5312 83.1484 46.1726 84.6452 46.1096C86.1421 46.0467 87.6365 46.2807 89.0423 46.798L88.8128 47.0501Z" fill="#B7B7B7"/>
<path d="M89.2947 53.2607C89.9288 53.1662 90.557 53.0361 91.1765 52.8711C92.4415 52.6192 93.7439 52.6192 95.009 52.8711C95.7663 52.9857 96.5236 53.192 97.3039 53.3066C98.4158 53.3966 99.5348 53.2879 100.609 52.9857C101.365 52.8039 102.131 52.6662 102.903 52.5732C104.055 52.4564 105.218 52.5733 106.323 52.9169C106.662 52.952 106.995 53.0369 107.31 53.169V54.1316C106.922 54.4137 106.639 54.817 106.506 55.2775C106.506 55.6671 106.254 56.0338 106.116 56.4234C105.942 57.0015 105.613 57.5209 105.164 57.925C104.714 58.3291 104.163 58.6024 103.569 58.7152C102.821 58.945 102.022 58.945 101.274 58.7152C100.728 58.4988 100.249 58.144 99.8825 57.6858C99.5162 57.2276 99.2761 56.6819 99.1857 56.1025C99.141 55.7899 99.0641 55.4827 98.9562 55.1858C98.7267 54.7275 98.4743 54.7733 98.0153 54.7733C97.5563 54.7733 97.6022 55.0254 97.5104 55.2775C97.3284 55.824 97.098 56.3532 96.822 56.8588C96.405 57.7563 95.6689 58.467 94.7565 58.8527C94.1979 59.0602 93.603 59.153 93.0075 59.1254C92.4121 59.0978 91.8283 58.9505 91.2912 58.6923C91.0771 58.5916 90.8879 58.4448 90.7371 58.2626C90.5864 58.0804 90.4778 57.8671 90.4192 57.6381C90.1869 56.9505 90.0104 56.2454 89.8913 55.5296C89.867 55.214 89.7377 54.9156 89.5242 54.6816C89.434 54.528 89.3573 54.367 89.2947 54.2004V53.2607ZM93.8845 53.0315C93.5406 53.0086 93.1956 53.0086 92.8518 53.0315C92.3556 53.0886 91.8693 53.2119 91.406 53.3982C91.1237 53.5014 90.88 53.6886 90.7076 53.9345C90.5353 54.1804 90.4426 54.4732 90.4421 54.7733C90.3817 55.6266 90.4909 56.4833 90.7634 57.2943C90.8619 57.594 91.0362 57.8632 91.2693 58.076C91.5025 58.2888 91.7867 58.4379 92.0945 58.5089C92.5081 58.6038 92.9327 58.6424 93.3567 58.6235C95.468 58.6235 96.6613 56.8588 97.1203 54.7733C97.1867 54.5002 97.1481 54.2121 97.0121 53.966C96.8761 53.7199 96.6527 53.5336 96.3859 53.4441C95.5961 53.1125 94.7392 52.9712 93.8845 53.0315ZM102.605 58.486C102.88 58.509 103.156 58.509 103.431 58.486C103.85 58.4515 104.251 58.3029 104.591 58.0564C104.931 57.8099 105.197 57.4749 105.359 57.088C105.812 56.2549 106.071 55.3305 106.116 54.3837C106.137 54.1829 106.095 53.9807 105.996 53.8044C105.898 53.6282 105.747 53.4864 105.566 53.3982C105.36 53.2772 105.135 53.1919 104.9 53.1461C104.048 52.9705 103.176 52.9089 102.307 52.9628C101.505 52.9722 100.717 53.1767 100.012 53.5587C99.752 53.683 99.536 53.8833 99.3926 54.1329C99.2491 54.3826 99.185 54.6698 99.2087 54.9566C99.2525 55.4744 99.3683 55.9835 99.5529 56.4692C99.7317 57.0938 100.123 57.6368 100.659 58.0048C101.195 58.3728 101.842 58.543 102.49 58.486H102.605Z" fill="#070707"/>
<path d="M90.0061 53.7887V54.1325L85.4163 51.2677H84.8196L85.508 51.0156L90.0061 53.7887Z" fill="#070707"/>
<path d="M85.8752 51.6113L89.3865 54.3615V53.2614L85.8752 51.6113Z" fill="#070707"/>
<path d="M107.31 53.1697L106.392 52.6426V53.0093L107.31 53.1697Z" fill="#070707"/>
</g>
<defs>
<clipPath id="clip0_8796_40639">
<rect width="294" height="254" fill="white"/>
</clipPath>
</defs>
</svg>
