<svg width="261" height="216" viewBox="0 0 261 216" fill="none" xmlns="http://www.w3.org/2000/svg">
<path d="M130.285 215.555C202.24 215.555 260.571 206.371 260.571 195.041C260.571 183.712 202.24 174.527 130.285 174.527C58.3306 174.527 -0.000244141 183.712 -0.000244141 195.041C-0.000244141 206.371 58.3306 215.555 130.285 215.555Z" fill="#476577"/>
<path d="M164 187.25C164 187.25 240.399 161.866 224.915 133.579C211.944 109.845 158.143 171.228 158.143 171.228L164 187.25Z" fill="#87BBBB"/>
<path d="M211.501 143.958C217.06 139.783 221.703 136.205 225.004 133.661L225.324 134.277C219.53 138.77 209.605 146.383 197.955 154.771L214.44 161.45L213.844 161.947L197.316 155.328C186.666 162.941 174.717 171.23 163.237 178.346L175.08 183.157L174.185 183.515L162.428 178.704L161.171 179.46L160.937 178.804C167.092 175.047 173.418 170.853 179.595 166.877L177.465 151.73L178.104 151.154L180.234 166.42C191.437 158.846 202.172 151.034 210.798 144.554L210.351 129.109L211.053 128.91L211.501 143.958Z" fill="#3E7979"/>
<path d="M162.809 181.28C162.809 181.28 231.839 141.525 245.875 170.546C257.483 194.877 172.521 195.612 172.521 195.612L162.809 181.28Z" fill="#3E7979"/>
<path d="M228.687 173.849C235.652 172.418 241.466 171.265 245.726 170.49L245.407 169.874C238.016 171.265 225.449 173.73 211.158 176.95L215.886 160.77L215.098 160.889L210.391 177.189C197.377 180.131 182.979 183.709 169.753 187.664L173.161 175.916L172.287 176.334L168.943 187.903L167.538 188.34L167.921 188.917C174.928 186.79 182.298 184.742 189.646 182.854L200.913 193.926H201.808L190.434 182.735C203.767 179.176 217.015 176.274 227.899 174.028L240.529 183.967L241.125 183.569L228.687 173.849Z" fill="#499094"/>
<path d="M172.201 178.978C172.201 178.978 224.958 121.531 196.439 104.158C172.499 89.5873 158.527 167.767 158.527 167.767L172.201 178.978Z" fill="#65BEBF"/>
<path d="M190.286 119.384C192.885 113.202 195.014 107.934 196.505 104.197L197.102 104.575C194.482 111.174 189.924 122.465 184.322 135.048L202.171 133.219L201.915 133.915L184.003 135.743C178.87 147.293 172.864 159.995 166.602 171.524L179.573 170.212L178.998 170.947L166.218 172.239C166.005 172.657 165.771 173.054 165.537 173.472L164.983 173.015C168.348 166.892 171.628 160.412 174.78 153.932L164.812 141.826C164.812 141.568 164.962 141.289 165.047 141.031L175.079 153.335C180.765 141.548 185.92 129.8 189.988 120.179L181.468 107L181.958 106.483L190.286 119.384Z" fill="#3E7979"/>
<path d="M134.397 0.277344H119.914C113.891 0.277344 109.009 4.83396 109.009 10.4548V13.3769C109.009 18.9977 113.891 23.5544 119.914 23.5544H134.397C140.42 23.5544 145.302 18.9977 145.302 13.3769V10.4548C145.302 4.83396 140.42 0.277344 134.397 0.277344Z" fill="#B2DAF2"/>
<path d="M137.717 4.09961H113.095C112.437 4.09961 111.903 4.59799 111.903 5.21277V5.33204C111.903 5.94682 112.437 6.4452 113.095 6.4452H137.717C138.376 6.4452 138.91 5.94682 138.91 5.33204V5.21277C138.91 4.59799 138.376 4.09961 137.717 4.09961Z" fill="#64A8DB"/>
<path d="M130.241 8.39062H113.095C112.437 8.39062 111.903 8.889 111.903 9.50379V9.62305C111.903 10.2378 112.437 10.7362 113.095 10.7362H130.241C130.9 10.7362 131.434 10.2378 131.434 9.62305V9.50379C131.434 8.889 130.9 8.39062 130.241 8.39062Z" fill="#64A8DB"/>
<path d="M137.717 13.4766H113.095C112.437 13.4766 111.903 13.9749 111.903 14.5897V14.709C111.903 15.3238 112.437 15.8222 113.095 15.8222H137.717C138.376 15.8222 138.91 15.3238 138.91 14.709V14.5897C138.91 13.9749 138.376 13.4766 137.717 13.4766Z" fill="#64A8DB"/>
<path d="M130.241 17.7734H113.095C112.437 17.7734 111.903 18.2718 111.903 18.8866V19.0059C111.903 19.6206 112.437 20.119 113.095 20.119H130.241C130.9 20.119 131.434 19.6206 131.434 19.0059V18.8866C131.434 18.2718 130.9 17.7734 130.241 17.7734Z" fill="#64A8DB"/>
<path d="M77.1863 91.4707L70.9457 93.1007L51.1164 130.69L48.6244 134.367L25.9836 167.722L43.9813 181.299L53.2463 167.245L78.2087 129.298C79.325 125.039 80.094 120.706 80.5089 116.338C80.4024 113.018 77.1863 91.4707 77.1863 91.4707Z" fill="#45A69F"/>
<path d="M77.4477 126.36C73.9121 112.446 70.6534 95.8081 71.058 93.1047C67.4451 92.9289 63.8955 92.1479 60.579 90.7989C56.1701 88.8111 46.9902 84.2988 46.9902 84.2988C43.194 89.1501 41.4497 95.1382 42.0915 101.116C43.2416 111.054 52.1659 133.298 52.1659 133.298C54.043 138.599 55.6002 143.995 56.8303 149.459C57.5971 154.408 62.2616 196.172 62.2616 196.172L68.9068 195.754L77.1069 195.237L89.0343 194.482C89.0343 194.482 86.0525 153.693 81.5158 140.295C80.174 136.617 78.8109 131.668 77.4477 126.36Z" fill="#62C4B9"/>
<path d="M52.0527 133.307C53.9298 138.608 55.4871 144.003 56.7172 149.467C57.484 154.417 62.1484 196.18 62.1484 196.18L68.7937 195.763C66.0248 186.778 61.7651 156.285 59.9546 149.885C57.9261 144.124 55.2787 138.57 52.0527 133.307Z" fill="#49B1AA"/>
<path d="M77.4441 126.365C78.4026 136.066 81.214 157.574 80.788 166.121C80.4047 173.873 78.2109 187.867 76.9968 195.322L88.9242 194.566C88.9242 194.566 85.9424 153.777 81.4057 140.379C80.1704 136.622 78.8072 131.673 77.4441 126.365Z" fill="#49B1AA"/>
<path d="M48.5392 134.377L25.9836 167.732L43.9813 181.309L53.2463 167.255C52.7777 162.365 52.2026 156.143 51.9258 151.611C51.3054 145.789 50.1728 140.025 48.5392 134.377Z" fill="#62C4B9"/>
<path d="M40.8115 183.256L42.6006 180.235L29.2036 170.117L28.5433 171.23L26.7968 174.51L24.4965 178.923C24.32 179.58 24.2971 180.264 24.4295 180.929C24.5618 181.595 24.8462 182.226 25.2633 182.779C26.6903 184.767 42.7497 196.952 44.4323 197.171C46.115 197.39 44.6666 191.724 42.1108 186.019C41.7274 185.145 41.2801 184.151 40.8115 183.256Z" fill="#F9C8D2"/>
<path d="M42.1534 186.02C40.0269 185.965 37.963 185.337 36.211 184.211C32.2396 181.827 29.0198 178.5 26.882 174.57L25.0716 177.989L24.5817 178.924C24.4052 179.58 24.3823 180.264 24.5147 180.93C24.647 181.595 24.9314 182.226 25.3485 182.78C26.7755 184.768 42.8349 196.953 44.5175 197.171C45.7316 197.331 45.0926 193.494 43.3887 188.922C42.984 187.968 42.6006 186.994 42.1534 186.02Z" fill="#355C82"/>
<path d="M28.54 171.23C31.1598 173.655 40.2119 182.024 40.8082 183.157L42.5973 180.235L29.2003 170.117L28.54 171.23Z" fill="#F288A7"/>
<path d="M96.144 198.395C93.5453 197.431 90.867 196.667 88.1356 196.109C86.7512 195.791 85.814 195.632 85.814 195.632L85.6436 194.697L71.0965 195.612L66.3042 195.91C66.3612 196.824 66.4821 197.734 66.6663 198.633C66.9858 200.124 67.5395 201.575 68.5619 201.814C70.6918 202.35 97.9118 203.801 99.062 201.018C99.4454 200.104 98.1035 199.19 96.144 198.395Z" fill="#355C82"/>
<path d="M96.1411 198.4C92.7971 200.388 83.2126 201.283 78.7185 200.806C74.6608 200.289 70.6363 199.566 66.6633 198.639C66.9828 200.13 67.5366 201.581 68.5589 201.819C70.6888 202.356 97.9089 203.807 99.059 201.024C99.4424 200.11 98.1006 199.196 96.1411 198.4Z" fill="#284C6C"/>
<path d="M85.6421 194.697L71.095 195.612C76.5631 197.514 82.5494 197.689 88.1341 196.109C86.7497 195.791 85.8125 195.632 85.8125 195.632L85.6421 194.697Z" fill="#F9C8D2"/>
<path d="M95.2729 66.0541C95.0599 64.7422 94.8895 63.6091 94.7617 62.814C94.5409 60.9489 93.6205 59.2168 92.1632 57.9241C90.8665 58.2008 89.5196 58.2008 88.2229 57.9241C88.2229 58.5204 88.0099 59.077 87.8821 59.5938C86.1569 66.0939 80.9387 64.0067 80.9387 64.0067C76.402 62.0189 75.976 53.3323 75.976 53.3323L77.5734 52.1992L68.4362 52.8751C58.8091 53.7298 54.5919 65.1198 54.5919 65.1198C53.4429 66.953 52.4186 68.8518 51.5248 70.8049C49.5664 75.1736 48.006 79.6886 46.8604 84.302C46.8604 84.302 56.0402 88.7547 60.4491 90.8021C62.6262 91.7742 64.9439 92.4439 67.3286 92.7899C68.52 92.9783 69.7217 93.1044 70.9282 93.1676L77.1688 91.5376L78.8088 88.7944L82.7278 82.4732L83.9631 90.0268L92.1206 88.8739C95.2516 88.4167 98.1269 88.0192 98.3186 88.0192C98.5103 88.0192 96.423 73.6673 95.2303 66.1535L95.2729 66.0541Z" fill="#62C4B9"/>
<path d="M79.8464 70.7012L78.8027 75.452C78.8027 75.452 78.8027 76.8832 81.6781 77.4398C82.4327 77.6611 83.2408 77.6678 83.9994 77.4589C84.758 77.2501 85.4329 76.8351 85.9379 76.267L85.7249 71.2975L79.8464 70.7012Z" fill="#49B1AA"/>
<path d="M54.6132 82.8526C51.5887 80.4275 51.397 74.5238 51.61 70.8066C49.6225 75.1729 48.0337 79.6879 46.8604 84.3037C46.8604 84.3037 56.0402 88.7564 60.4491 90.8038C62.6262 91.7759 64.9439 92.4456 67.3286 92.7916C68.52 92.98 69.7217 93.1061 70.9282 93.1693L77.1688 91.5393L78.8088 88.7961C73.2284 89.4322 59.1711 86.5102 54.6132 82.8526Z" fill="#49B1AA"/>
<path d="M86.9445 32.5803C86.9445 32.5803 87.4769 27.3524 79.4046 27.3127C71.3323 27.2729 68.1588 33.5742 69.4367 36.9733C70.7147 40.3725 72.7381 42.0223 70.2887 42.7976C67.8393 43.5728 55.1877 48.264 60.1504 56.8115C62.3237 54.6054 65.2692 53.1956 68.457 52.8359L74.5485 52.4383L77.3387 52.2197H77.7646L76.3589 53.2136L76.1672 53.3527C76.1672 53.3527 76.5932 62.0791 81.1299 64.0271C81.1299 64.0271 87.051 66.4324 88.3289 57.7656C89.6256 58.0423 90.9725 58.0423 92.2692 57.7656C94.8251 57.2885 97.956 55.579 99.4257 50.3313C99.9466 50.4634 100.496 50.4591 101.015 50.3189C101.533 50.1786 102 49.9078 102.365 49.5362C103.648 47.8386 104.196 45.7509 103.898 43.6921C103.643 35.6614 93.9518 29.1216 86.9445 32.5803Z" fill="#302327"/>
<path d="M77.187 51.9629V52.3405H77.6129V51.9629H77.187Z" fill="black"/>
<path d="M84.9611 45.8143C84.9093 45.3333 84.7414 44.8695 84.4701 44.4577C84.1988 44.046 83.8311 43.6969 83.3945 43.4368C82.958 43.1766 82.4639 43.0122 81.9495 42.9557C81.4351 42.8993 80.9137 42.9523 80.4244 43.1109C80.0323 43.2384 79.6741 43.4431 79.3742 43.7111C79.0743 43.9791 78.8396 44.3042 78.6861 44.6642C78.5326 45.0243 78.4638 45.411 78.4844 45.798C78.5051 46.1851 78.6146 46.5635 78.8057 46.9075C80.1049 49.77 81.2337 49.9687 81.2337 49.9687L77.6555 52.2149L76.0581 53.348C76.1281 54.4494 76.2775 55.5452 76.5054 56.6278C77.0805 59.3114 78.3158 62.8695 81.0208 64.0224C81.0208 64.0224 86.9419 66.4276 88.2198 57.7609C89.5165 58.0376 90.8634 58.0376 92.1601 57.7609C94.2078 57.3851 96.0183 56.28 97.208 54.6798C97.8475 53.8649 98.3569 52.9677 98.7202 52.0162C98.9569 51.4585 99.1561 50.8875 99.3166 50.3067C99.6121 49.7154 99.7648 49.0707 99.7638 48.4183C99.7638 48.4183 95.504 44.1644 95.2698 40.7852C94.0735 42.299 92.5235 43.5387 90.7373 44.4101C88.9512 45.2815 86.9758 45.7617 84.9611 45.8143Z" fill="#F9C8D2"/>
<path d="M77.5708 54.9417L81.8306 51.9004C81.8306 51.9004 78.082 52.1389 77.5708 54.9417Z" fill="#FBD9DC"/>
<path d="M83.5791 52.8926C83.2617 53.5785 83.1215 54.3244 83.1696 55.0702C83.2177 55.8159 83.4528 56.5407 83.8559 57.1862C85.2617 59.174 86.5183 58.3391 86.5396 59.5318C86.5466 59.9342 86.4558 60.3328 86.2741 60.6978C86.0924 61.0627 85.8244 61.3845 85.4903 61.6389C85.1562 61.8933 84.7646 62.0738 84.3451 62.1667C83.9255 62.2597 83.4889 62.2627 83.0679 62.1756C81.1084 61.937 78.0413 59.1939 76.4226 56.6097C76.9977 59.2933 78.233 62.8514 80.938 64.0043C80.938 64.0043 86.8591 66.4095 88.137 57.7428C86.1462 56.5724 84.5627 54.8874 83.5791 52.8926Z" fill="#F288A7"/>
<path d="M86.9445 32.5803C86.9445 32.5803 87.4769 27.3524 79.4046 27.3127C71.3323 27.2729 68.1588 33.5742 69.4367 36.9733C70.7147 40.3725 72.7381 42.0223 70.2887 42.7976C67.8393 43.5728 55.1877 48.264 60.1504 56.8115C58.6808 46.9918 71.0768 47.3894 74.0799 43.7119C76.4441 40.8495 72.9724 39.2195 72.3121 35.6018C71.6518 31.984 76.9979 29.0818 81.3642 30.3739C81.9467 30.5417 82.4857 30.8205 82.9469 31.1927C83.4082 31.5648 83.7817 32.0222 84.0439 32.5359C84.3062 33.0497 84.4514 33.6086 84.4704 34.1773C84.4893 34.7461 84.3817 35.3123 84.1543 35.8403C81.5132 33.4947 76.6997 36.1782 77.5942 40.6706C78.4888 45.163 76.9127 45.3221 74.8467 47.5484C74.3545 48.2722 74.0688 49.1014 74.0166 49.9572C73.9644 50.813 74.1475 51.6671 74.5485 52.4383L77.3387 52.2197H77.7646L81.2364 49.9735C81.2364 49.9735 80.1075 49.7946 78.8722 46.9322C78.5136 46.32 78.4288 45.6005 78.6363 44.9303C78.8437 44.26 79.3266 43.6935 79.9797 43.3541C80.119 43.265 80.2691 43.1916 80.427 43.1355C80.8802 42.9843 81.362 42.9222 81.8421 42.953C82.3222 42.9837 82.7904 43.1068 83.2172 43.3144C83.6787 43.6004 84.0721 43.9722 84.3726 44.4066C84.6732 44.841 84.8744 45.3286 84.9637 45.8389C86.0426 45.8184 87.1151 45.6783 88.1585 45.4214C89.3726 41.2471 87.2214 38.4244 86.3055 36.2776C85.3897 34.1308 93.2703 33.6736 98.7654 39.1997C100.159 40.5686 101.196 42.2179 101.798 44.0205C102.4 45.823 102.55 47.7305 102.237 49.5958C103.52 47.8983 104.068 45.8106 103.771 43.7517C103.643 35.6614 93.9518 29.1216 86.9445 32.5803Z" fill="#4D4044"/>
<path d="M79.9778 43.3312C80.1171 43.242 80.2672 43.1686 80.4251 43.1126C80.8782 42.9614 81.36 42.8992 81.8402 42.93C82.3203 42.9608 82.7884 43.0839 83.2152 43.2915C83.049 41.4024 82.7645 39.5241 82.3633 37.666C80.9893 39.2948 80.1596 41.2652 79.9778 43.3312Z" fill="#302327"/>
<path d="M82.7671 82.4242L84.0024 89.9778L92.1599 88.8249L87.0695 71.9883C87.5594 81.6092 82.7671 82.4242 82.7671 82.4242Z" fill="#49B1AA"/>
<path d="M70.4964 65.6747C70.4964 65.0982 69.7083 59.0554 64.1067 58.5982C63.0975 58.556 62.0908 58.7231 61.1591 59.0875C60.2274 59.4518 59.3937 60.0043 58.7181 60.7052C58.5512 60.8477 58.3946 61.0005 58.2495 61.1624C57.2061 62.2626 56.4315 63.5612 55.9791 64.9685C55.5268 66.3757 55.4075 67.8579 55.6297 69.3124L57.6531 83.2269C57.6531 83.2269 70.4325 81.2391 73.0949 78.9531L71.8169 72.4928L70.4964 65.6747Z" fill="#62C4B9"/>
<path d="M71.1586 76.486C70.8178 77.9967 65.0458 79.4677 63.0011 79.2689C60.9564 79.0701 59.0182 74.9157 58.3579 70.1052C58.0268 67.1315 58.0268 64.1338 58.3579 61.1602C57.3145 62.2603 56.5399 63.559 56.0875 64.9662C55.6352 66.3734 55.5159 67.8556 55.7381 69.3101L57.7615 83.2246C57.7615 83.2246 70.5409 81.2368 73.2033 78.9509L70.2853 64.3009C70.0297 65.6526 71.4142 75.3728 71.1586 76.486Z" fill="#49B1AA"/>
<path d="M104.47 81.1469C101.642 80.8393 98.7969 80.6999 95.9504 80.7295C95.9504 80.7295 95.0346 79.6759 97.2283 78.7417C99.4221 77.8074 101.147 75.2233 100.381 74.9251C100.254 74.9026 100.124 74.9026 99.9972 74.9251C98.698 74.9251 95.2901 76.3365 94.6512 76.3365C94.0122 76.3365 88.8366 78.3242 88.2615 80.9879L73.5865 82.2601L72.4151 79.3977C71.2949 79.9462 70.1172 80.3858 68.9007 80.7096C66.6005 81.4053 63.8742 82.0017 61.6804 82.439L59.2949 82.8962C59.7635 85.7983 61.4248 93.8091 65.429 94.4452C68.4783 94.4223 71.4994 93.8975 74.3533 92.8947C81.9144 90.7678 91.009 87.2494 91.009 87.2494C91.009 87.2494 105.769 83.0552 106.153 81.8625C106.195 81.5445 105.514 81.3059 104.47 81.1469Z" fill="#F9C8D2"/>
<path d="M89.457 84.7227L69.0952 89.9903C69.0952 89.9903 81.193 90.209 89.457 84.7227Z" fill="#FBD9DC"/>
<path d="M68.8392 80.6987C69.3168 81.3448 69.5493 82.1215 69.4994 82.9051C69.4709 83.8848 69.2395 84.8501 68.8179 85.7476C70.2548 84.4437 71.8403 83.2906 73.5462 82.3088L72.4174 79.3867C71.2768 79.939 70.0776 80.3787 68.8392 80.6987Z" fill="#F288A7"/>
<path d="M100.384 74.9583C100.257 74.9358 100.127 74.9358 100 74.9583C100 75.5745 99.6808 76.0914 98.5946 76.7871C97.5083 77.4828 94.9311 78.0593 94.7182 79.5501C94.5052 81.041 95.9535 80.7428 95.9535 80.7428C95.9535 80.7428 95.0376 79.6893 97.2314 78.755C99.4252 77.8207 101.15 75.2565 100.384 74.9583Z" fill="#F288A7"/>
<path d="M104.473 81.1367C104.483 81.196 104.483 81.2564 104.473 81.3156C104.473 83.3034 95.2714 85.0328 93.2906 85.2912C92.7188 85.3259 92.1768 85.5419 91.7546 85.9034C91.3324 86.265 91.0552 86.7503 90.969 87.279C90.969 87.279 105.729 83.0848 106.113 81.8921C106.198 81.5343 105.516 81.2957 104.473 81.1367Z" fill="#F288A7"/>
<path d="M64.6872 93.108C62.7489 92.0147 61.8757 85.0376 61.6201 82.4336L59.2346 82.8908C59.7032 85.793 61.3645 93.8037 65.3687 94.4398C68.418 94.4169 71.4391 93.8921 74.293 92.8894C74.293 92.8894 67.0513 94.4398 64.6872 93.108Z" fill="#F288A7"/>
<path d="M97.0616 88.1328L92.461 88.7888L85.8796 89.723L94.953 100.775H102.855V94.454L97.0616 88.1328Z" fill="#F9C8D2"/>
<path d="M93.313 92.8878C92.5101 91.6631 92.2075 90.2091 92.461 88.793L85.8796 89.7272L94.953 100.779H102.855C102.855 100.779 95.1447 96.0086 93.313 92.8878Z" fill="#F288A7"/>
<path d="M92.1605 57.9199C90.8638 58.1966 89.5169 58.1966 88.2202 57.9199C88.2202 58.5163 88.0072 59.0728 87.8794 59.5897C87.8794 59.5897 90.1158 60.027 91.5215 60.4047C92.9273 60.7823 95.2275 66.1494 95.2701 66.2289C95.0571 64.9169 94.8868 63.7839 94.759 62.9888C94.5827 61.0603 93.6588 59.2581 92.1605 57.9199Z" fill="#46B0A8"/>
<path d="M53.9507 93.7011C51.4853 96.6219 48.0689 98.715 44.217 99.6645L44.3448 100.042C48.2931 99.0574 51.7914 96.9017 54.3127 93.8999C55.4388 92.5881 56.3503 91.1278 57.0177 89.5665L56.613 89.4473C55.9516 90.9784 55.0548 92.4114 53.9507 93.7011Z" fill="#C6E6E1"/>
<path d="M62.113 130.023C61.6019 124.318 51.6978 98.2186 51.2719 97.1055L50.8672 97.2446C50.9737 97.503 61.1759 124.398 61.6871 130.043C61.7935 131.355 62.4538 135.192 63.3697 140.499C65.7764 154.592 70.2705 180.811 70.6113 195.64H71.0373C70.6965 180.771 66.3728 155.527 63.9021 140.439C62.8798 135.132 62.2195 131.315 62.113 130.023Z" fill="#C6E6E1"/>
<path d="M79.6626 72.4272L79.3218 75.1704C79.9911 75.9611 80.9573 76.4852 82.0249 76.6365C83.0925 76.7878 84.1818 76.555 85.0725 75.9853V73.6199L85.2003 71.8309L79.8117 70.7773L79.6626 72.4272Z" fill="#62C4B9"/>
<path d="M79.6597 72.4272C81.4679 72.9138 83.3021 73.3119 85.1548 73.6199L85.1974 71.8309L79.8088 70.7773L79.6597 72.4272Z" fill="#62C4B9"/>
<path d="M54.6394 141.731L33.1174 173.127L33.4763 173.341L54.9982 141.946L54.6394 141.731Z" fill="#C6E6E1"/>
<path d="M85.1335 74.2881L85.1548 73.6321L79.6597 72.4395L85.1335 74.2881Z" fill="#49B1AA"/>
<path d="M100.254 33.3297L99.9557 31.9184C99.0817 31.9671 98.2087 31.8108 97.4162 31.4635C96.6237 31.1163 95.937 30.5893 95.419 29.9306C94.9891 29.5025 94.467 29.1643 93.8869 28.9382C93.3069 28.7121 92.6822 28.6032 92.0538 28.6186C90.3532 28.6444 88.7024 29.158 87.3254 30.0896C86.3516 30.7393 85.3343 31.3302 84.2796 31.8587C83.5588 32.2662 82.7652 32.5491 81.9368 32.6936L83.7898 37.345C83.7898 37.345 94.8226 39.3328 100.829 36.4306L100.616 35.4367L100.254 33.3297Z" fill="#62C4B9"/>
<path d="M95.6763 33.2934L94.4196 33.4127L94.2918 32.2598L93.3334 32.3393L93.4825 33.5121L92.2258 33.6512L92.3323 34.5457L93.589 34.4066L93.7168 35.5794L94.6752 35.48L94.5261 34.3072L95.7828 34.168L95.6763 33.2934Z" fill="white"/>
<path d="M86.6652 35.7322C85.153 35.116 84.5353 33.1282 84.3436 31.9355C83.6228 32.3431 82.8291 32.6259 82.0007 32.7704L83.8537 37.4218C83.8537 37.4218 94.8866 39.4096 100.893 36.5075L100.68 35.5136C96.1058 36.7071 91.2795 36.7823 86.6652 35.7322Z" fill="#46B0A8"/>
<path d="M95.4187 29.913C94.9888 29.485 94.4667 29.1467 93.8866 28.9206C93.3066 28.6945 92.6819 28.5856 92.0535 28.6011C92.5944 28.7829 93.0903 29.0652 93.5113 29.4307C93.9322 29.7962 94.2695 30.2375 94.5028 30.728C95.132 31.5951 95.9947 32.2922 97.0042 32.7493C98.0137 33.2064 99.1344 33.4074 100.254 33.332L99.9554 31.9207C99.0796 31.9672 98.2052 31.8078 97.4126 31.457C96.6199 31.1062 95.9343 30.5753 95.4187 29.913Z" fill="#80CDC9"/>
<path d="M37.0203 188.148C32.1428 186.021 26.7968 180.077 24.9864 177.99L24.4965 178.924C24.32 179.581 24.2971 180.265 24.4295 180.931C24.5618 181.596 24.8462 182.227 25.2633 182.781C26.6903 184.769 42.7497 196.954 44.4323 197.172C45.6464 197.331 45.0074 193.495 43.3035 188.923C42.2551 189.202 41.1565 189.277 40.0757 189.144C38.995 189.01 37.955 188.671 37.0203 188.148Z" fill="#284C6C"/>
<path d="M162.621 136.124C148.904 136.243 137.935 151.072 138.127 169.22C138.319 187.369 149.586 201.999 163.324 201.88C177.061 201.761 188.009 186.932 187.817 168.783C187.626 150.635 176.359 136.005 162.621 136.124ZM175.166 152.026C177.189 155.198 178.467 158.735 178.914 162.402C178.979 162.54 179.012 162.689 179.012 162.84C179.012 162.99 178.979 163.139 178.914 163.277C178.772 163.405 178.596 163.494 178.403 163.535C176.199 164.076 173.946 164.422 171.673 164.569C169.735 164.569 170.672 163.118 171.311 162.064C173.142 158.945 174.443 155.578 175.166 152.086V152.026ZM171.034 146.758C171.461 147.089 171.788 147.517 171.982 148.002C172.177 148.487 172.232 149.011 172.141 149.521C171.999 150.555 171.705 151.564 171.268 152.523C170.927 153.378 170.587 154.213 170.267 155.067C169.5 157.055 168.776 159.043 168.137 161.031C168.137 161.289 167.903 162.204 167.605 162.263C167.307 162.323 167.285 162.104 167.221 161.945C167.168 161.496 167.168 161.043 167.221 160.593C167.15 159.82 167.036 159.05 166.881 158.288C166.582 156.638 166.518 155.008 166.178 153.338C165.834 151.573 165.335 149.838 164.687 148.15C164.452 147.554 163.047 143.777 162.344 143.757C164.723 143.852 167.044 144.472 169.117 145.566C169.791 145.912 170.432 146.311 171.034 146.758ZM151.226 147.713C152.418 146.717 153.742 145.869 155.166 145.188C157.126 144.254 157.466 145.188 158.425 146.639C159.753 148.85 160.907 151.149 161.875 153.517C163.495 156.55 164.355 159.888 164.389 163.277C158.5 159.747 153.577 154.982 150.012 149.362C150.012 149.362 149.863 149.144 149.884 149.044C149.914 148.935 149.981 148.837 150.076 148.766C150.438 148.349 150.8 148.031 151.226 147.713ZM158.787 192.696C155.077 191.371 151.798 189.173 149.266 186.315C149.943 185.955 150.573 185.521 151.141 185.023C152.978 183.438 154.726 181.766 156.38 180.014C158.51 177.867 160.64 175.701 162.642 173.494C162.159 180.013 160.866 186.457 158.787 192.696ZM160.32 169.558C156.135 174.429 151.255 178.743 145.816 182.38C143.683 178.145 142.577 173.522 142.578 168.843V168.028C143.618 168.425 144.717 168.667 145.837 168.743C150.644 169.27 155.481 169.528 160.32 169.519V169.558ZM160.32 165.583C157.564 165.914 154.77 165.847 152.035 165.384C148.968 165.126 145.922 164.728 142.898 164.231C143.339 160.728 144.435 157.323 146.135 154.173C147.789 155.792 149.577 157.287 151.481 158.645C154.548 160.931 157.743 163.078 160.768 165.424L160.32 165.583ZM165.262 192.895C165.218 192.632 165.218 192.363 165.262 192.1C165.837 185.799 166.391 179.477 166.305 173.156C168.606 174.925 169.351 177.847 170.374 180.352C171.618 183.292 172.622 186.315 173.377 189.397C173.285 189.461 173.185 189.514 173.079 189.556C171.758 190.331 170.437 191.086 169.074 191.802C168.371 192.179 167.626 192.478 166.944 192.796C166.263 193.114 165.39 193.491 165.262 192.895ZM175.784 184.606C175.975 184.268 174.037 181.505 173.803 181.088C173.064 179.762 172.354 178.437 171.673 177.112C170.395 174.329 169.202 171.566 168.265 168.743C172.078 168.445 176.252 169.121 179.724 167.014C179.724 167.511 179.724 168.008 179.724 168.505C179.844 174.092 178.491 179.621 175.784 184.606Z" fill="#989BA0"/>
<path d="M157.825 137.552C145.536 137.552 135.717 151.844 135.909 169.237C136.1 186.63 146.196 200.644 158.464 200.525C170.733 200.405 180.573 186.233 180.402 168.839C180.232 151.446 170.115 137.432 157.825 137.552ZM157.953 196.549C147.985 196.649 139.764 184.622 139.615 169.535C139.466 154.448 147.41 142.282 157.399 142.183C167.389 142.084 175.589 154.11 175.759 169.217C175.929 184.324 167.942 196.47 157.953 196.549Z" fill="#414042"/>
<path d="M123.852 146.703C118.698 145.693 113.693 144.112 108.942 141.992C108.523 141.812 108.146 141.555 107.835 141.237C107.545 140.79 107.37 140.286 107.324 139.766C105.194 126.209 105.598 112.434 106.024 98.7378C108.385 97.716 110.995 97.2975 113.586 97.5253H128.495C131.007 97.4239 133.523 97.6446 135.971 98.1813C138.429 98.7263 140.557 100.155 141.892 102.157C143.383 104.721 142.914 107.822 143.255 110.724C143.596 113.626 145.385 116.906 148.601 116.886C147.374 116.863 146.158 117.101 145.044 117.582C144.497 117.845 144.055 118.265 143.783 118.781C143.51 119.296 143.422 119.879 143.532 120.444C143.894 121.518 145.151 122.074 146.279 122.432C151.49 124.508 156.405 127.179 160.912 130.383C162.248 131.216 163.369 132.316 164.192 133.604C165.683 136.327 164.469 139.746 162.467 142.191C157.997 146.93 151.881 150.048 145.193 150.997C141.956 151.474 138.463 149.963 135.311 149.208L123.852 146.703Z" fill="white" stroke="black" stroke-width="5" stroke-miterlimit="10"/>
<path d="M169.261 142.699C168.601 142.347 167.88 142.105 167.131 141.983L165.917 141.745C165.385 141.745 165.917 137.213 165.917 136.815C165.917 134.171 166.109 131.508 166.173 128.864C166.322 124.451 166.173 120.356 161.402 118.408C155.225 115.903 148.857 115.247 142.424 113.677C141.716 113.581 141.046 113.315 140.482 112.903C139.918 112.492 139.479 111.95 139.208 111.331C139.081 110.394 139.081 109.446 139.208 108.509C139.208 105.567 139.208 102.545 139.208 99.683C139.286 98.4859 139.108 97.2863 138.685 96.1537C138.263 95.0211 137.603 93.9781 136.745 93.0851C135.888 92.192 134.848 91.4668 133.688 90.9513C132.528 90.4358 131.269 90.1403 129.986 90.082C125.534 90.082 120.423 93.6004 117.781 96.6417C117.543 96.8861 117.368 97.1786 117.27 97.4965C117.015 98.5301 118.378 99.365 119.4 99.1662C120.475 98.8482 121.424 98.2393 122.126 97.417C123.521 96.0092 125.25 94.9266 127.174 94.2564C128.143 93.9343 129.182 93.8437 130.198 93.993C131.214 94.1424 132.173 94.5268 132.989 95.1111C136.439 97.9736 135.247 105.627 135.247 109.801V128.267C135.247 131.17 134.65 134.946 136.141 137.63C137.632 140.313 140.827 141.268 144.086 141.924C146.109 142.341 148.111 142.599 149.709 142.937L167.003 146.674C167.693 146.874 168.423 146.915 169.133 146.794C171.008 146.317 170.667 143.554 169.261 142.699ZM139.932 135.165C139.423 134.679 139.028 134.099 138.771 133.463C138.514 132.826 138.402 132.147 138.441 131.468C138.441 129.023 138.441 126.558 138.441 124.113C138.441 122.861 138.441 121.628 138.441 120.376C138.441 117.374 141.253 116.957 143.915 117.354C148.644 118.07 155.268 118.666 159.4 121.092C160.245 121.641 160.961 122.345 161.503 123.162C162.045 123.979 162.402 124.892 162.552 125.842C162.992 129.646 162.92 133.485 162.339 137.272C162.339 138.306 162.168 139.777 161.04 140.294C159.911 140.81 157.057 139.896 155.651 139.638C152.754 139.061 149.879 138.465 147.004 137.829C144.436 137.54 141.996 136.621 139.932 135.165Z" fill="#182436"/>
<path d="M122.403 58.7962L122.147 58.6173C121.729 58.3024 121.392 57.9042 121.16 57.4519C120.929 56.9996 120.809 56.5046 120.809 56.0033C120.809 55.502 120.929 55.0071 121.16 54.5547C121.392 54.1024 121.729 53.7042 122.147 53.3894C122.718 52.8506 123.416 52.4442 124.185 52.2026C124.954 51.9609 125.774 51.8908 126.577 51.9979C127.023 52.1506 127.432 52.3841 127.781 52.685C128.129 52.9858 128.411 53.3481 128.609 53.7509C128.807 54.1537 128.917 54.589 128.934 55.0319C128.951 55.4748 128.874 55.9164 128.707 56.3313C128.25 57.0629 127.577 57.6563 126.769 58.0408C126.174 58.6087 125.445 59.0378 124.639 59.2931C123.855 59.3677 123.067 59.1926 122.403 58.7962Z" fill="#3A4949"/>
<path d="M144.388 102.45L144.239 108.095C144.135 109.874 144.213 111.658 144.473 113.422C144.733 115.198 145.531 116.867 146.773 118.233C147.767 119.165 148.892 119.967 150.117 120.618C153.12 122.407 156.081 124.296 158.956 126.264C161.26 127.654 163.208 129.5 164.664 131.67C164.739 131.785 164.782 131.914 164.792 132.048C164.783 132.133 164.756 132.216 164.712 132.291C164.668 132.366 164.608 132.432 164.536 132.485C164.09 132.758 163.555 132.878 163.024 132.823C161.357 132.925 159.685 132.688 158.125 132.127C157.069 131.632 156.063 131.047 155.122 130.378C150.309 127.277 144.345 125.786 140.085 122.049C139.623 121.688 139.227 121.258 138.914 120.777C138.708 120.384 138.551 119.971 138.445 119.545C137.444 115.537 137.444 111.368 138.445 107.36C138.765 105.69 139.127 104.02 139.489 102.35C139.626 101.303 139.996 100.294 140.575 99.3886C140.846 98.9727 141.271 98.6641 141.77 98.5212C142.268 98.3783 142.806 98.4111 143.28 98.6134C144.388 99.3687 144.409 101.297 144.388 102.45Z" fill="#F7AD8D"/>
<path d="M142.109 102.451C142.109 105.333 141.47 108.215 141.363 111.118C141.06 114.271 142.058 117.414 144.153 119.904C145.854 121.382 147.823 122.567 149.968 123.402C154.661 125.665 159.045 128.448 163.024 131.691C162.32 132.157 161.497 132.443 160.637 132.519C159.778 132.596 158.912 132.461 158.125 132.128C157.069 131.633 156.063 131.047 155.122 130.379C150.309 127.278 144.345 125.787 140.085 122.05C139.623 121.689 139.227 121.259 138.914 120.778C138.708 120.385 138.551 119.972 138.445 119.546C137.444 115.538 137.444 111.369 138.445 107.361C138.765 105.691 139.127 104.021 139.489 102.351C139.617 101.755 139.979 99.4293 140.809 99.31C141.64 99.1908 142.215 101.099 142.236 101.755L142.109 102.451Z" fill="#C94F49"/>
<path d="M130.883 54.0488H131.224C133.077 54.3867 134.824 53.8699 136.655 54.0488C137.983 54.209 139.211 54.7902 140.134 55.6949C141.057 56.5997 141.618 57.773 141.725 59.0183C141.784 60.2333 141.385 61.4294 140.596 62.3975C139.85 63.3318 138.764 63.5703 137.912 64.3853C135.995 66.0948 137.571 68.9771 136.677 71.0444C136.294 71.8062 135.742 72.4836 135.058 73.0322C134.704 73.4156 134.228 73.6838 133.7 73.7982C133.171 73.9125 132.618 73.867 132.119 73.6683C128.996 73.2243 126.12 71.8261 123.94 69.6927C122.837 68.4081 122.056 66.9095 121.654 65.3067C121.253 63.7038 121.24 62.0374 121.618 60.4296C122.027 58.4771 123.206 56.7386 124.921 55.5573C126.636 54.376 128.764 53.8377 130.883 54.0488Z" fill="#070909"/>
<path d="M121.618 60.4284C121.111 62.5574 121.296 64.7792 122.151 66.8092C122.479 67.8317 123.055 68.7701 123.833 69.5523C124.515 70.0095 125.686 69.3337 125.963 68.638C126.07 68.2601 126.07 67.8629 125.963 67.485C125.537 66.0747 125.537 64.5819 125.963 63.1715C126.811 61.5798 128.206 60.2991 129.925 59.5339C130.683 59.2014 131.398 58.7879 132.055 58.3014C132.366 58.0552 132.619 57.7514 132.799 57.4094C132.979 57.0673 133.081 56.6942 133.098 56.3137C133.098 53.2525 128.306 53.809 126.41 54.6837C125.209 55.2551 124.158 56.0659 123.33 57.0586C122.502 58.0513 121.917 59.2017 121.618 60.4284Z" fill="#1F2828"/>
<path d="M144.515 93.2883C144.881 94.7176 145.166 96.1641 145.367 97.6217C145.495 98.8143 145.601 101.061 143.94 101.418C142.161 101.94 140.268 102.022 138.445 101.657C135.292 100.723 135.186 99.033 135.271 96.6079C135.374 93.4727 135.679 90.3461 136.187 87.2454C136.4 86.0925 136.975 84.0848 138.317 83.7071C141.341 82.912 143.429 88.8356 144.515 93.2883Z" fill="#29577E"/>
<path d="M151.694 128.753C157.098 130.37 162.343 132.418 167.37 134.876C168.46 135.392 169.519 135.962 170.543 136.585C172.058 137.429 173.318 138.618 174.208 140.039C175.099 141.461 175.589 143.069 175.634 144.715C175.964 148.525 175.964 152.354 175.634 156.165C175.335 165.487 174.036 174.711 174.015 183.994C173.963 184.917 174.063 185.842 174.313 186.737C175.229 189.5 180.703 189.361 183.003 190.315C184.345 190.852 185.9 192.183 184.877 193.734C183.855 195.284 181.107 194.867 179.659 194.748C176.251 194.569 172.844 194.748 169.436 194.748C168.809 194.828 168.172 194.787 167.563 194.626C166.955 194.465 166.388 194.189 165.9 193.813C165.481 193.171 165.204 192.456 165.087 191.711C164.97 190.967 165.015 190.208 165.218 189.48C166.646 176.818 161.981 165.05 160.831 152.646C160.831 151.732 160.831 150.201 160.085 149.565C159.34 148.929 157.828 149.009 157.104 148.83C154.228 148.114 151.332 147.538 148.414 147.001C142.559 146.072 136.786 144.743 131.14 143.025C128.545 142.42 126.31 140.885 124.921 138.752C123.451 135.989 124.516 132.47 126.199 129.787C126.797 128.754 127.583 127.826 128.52 127.044C131.268 124.877 135.102 125.056 138.51 125.672C142.978 126.4 147.385 127.43 151.694 128.753Z" fill="#F7AD8D"/>
<path opacity="0.39" d="M149.303 134.252C159.441 138.108 167.876 140.732 170.41 151.605C172.242 159.556 171.688 167.646 171.539 175.677C171.539 180.507 169.175 189.85 175.799 191.838C177.119 192.235 179.015 192.613 178.908 193.826C178.802 195.038 170.155 194.68 169.26 194.7C168.634 194.781 167.996 194.739 167.387 194.579C166.779 194.418 166.213 194.141 165.724 193.766C165.305 193.123 165.029 192.409 164.911 191.664C164.794 190.92 164.839 190.161 165.043 189.433C166.47 176.77 161.805 165.003 160.655 152.599C160.655 151.685 160.655 150.154 159.91 149.518C159.164 148.882 157.652 148.961 156.928 148.782C154.053 148.067 151.156 147.49 148.238 146.954C142.384 146.024 136.61 144.696 130.965 142.978C128.369 142.373 126.135 140.837 124.745 138.704C118.632 126.996 136.311 129.481 142.274 131.648C144.617 132.502 146.96 133.456 149.303 134.252Z" fill="#C94F49"/>
<path d="M177.165 193.231C177.165 193.231 177.378 193.231 177.442 193.231C177.475 193.127 177.475 193.016 177.442 192.912V189.732C177.442 188.818 177.293 188.301 178.337 188.301C179.329 188.325 180.319 188.418 181.297 188.579C183.281 188.84 185.235 189.273 187.133 189.871C187.524 189.953 187.894 190.108 188.22 190.327C188.545 190.545 188.821 190.823 189.029 191.143C189.185 191.537 189.257 191.956 189.242 192.376C189.242 193.847 189.731 195.477 188.028 196.212C187.266 196.48 186.455 196.602 185.642 196.57H182.873C177.335 196.57 171.776 196.57 166.239 196.232C165.912 196.229 165.588 196.175 165.28 196.073C164.62 195.775 163.875 194.383 164.364 193.767C164.854 193.151 166.494 193.29 167.282 193.27C168.454 193.27 169.625 193.27 170.797 193.27C172.919 193.356 175.044 193.343 177.165 193.231Z" fill="#29577E"/>
<path d="M177.168 193.231C177.168 193.231 177.381 193.231 177.445 193.231C177.478 193.127 177.478 193.016 177.445 192.912V189.732C177.445 188.818 177.296 188.301 178.34 188.301C180.469 188.301 183.174 188.778 183.856 191.024C183.983 191.762 183.842 192.519 183.457 193.174C183.071 193.83 182.462 194.346 181.726 194.642C180.259 195.216 178.671 195.468 177.083 195.377L170.395 195.397C169.5 195.397 162.791 195.854 164.474 193.688C164.985 193.012 166.604 193.211 167.392 193.191C168.563 193.191 169.735 193.191 170.906 193.191C172.992 193.3 175.081 193.313 177.168 193.231Z" fill="#3567B0"/>
<path d="M142.488 124.915C145.725 127.141 148.927 129.42 152.094 131.752C157.397 135.728 163.616 137.974 164.596 145.031C164.942 149 164.942 152.989 164.596 156.958C164.277 166.618 162.956 176.14 162.935 185.8C162.873 186.757 162.974 187.716 163.233 188.643C164.17 191.486 169.751 191.346 172.221 192.32C173.606 192.877 175.203 194.308 174.159 195.879C173.116 197.449 170.262 197.031 168.771 196.932C165.235 196.733 161.721 196.932 158.121 196.932C157.477 197.016 156.82 196.974 156.194 196.81C155.567 196.646 154.983 196.362 154.479 195.978C154.042 195.313 153.753 194.572 153.628 193.8C153.504 193.029 153.547 192.241 153.755 191.486C155.246 178.386 150.411 166.221 149.218 153.4C148.984 150.716 148.878 150.418 146.45 149.921C143.191 149.225 140.06 148.072 136.822 147.118C132.95 146.068 129.209 144.635 125.662 142.844C122.032 141.051 119.064 138.281 117.142 134.893C116 132.555 115.28 130.056 115.012 127.499C114.559 124.976 114.654 122.394 115.289 119.905C115.605 118.684 116.219 117.548 117.083 116.586C117.948 115.624 119.04 114.862 120.273 114.359C124 113.067 127.962 115.234 131.263 117.381C135.04 119.846 138.782 122.357 142.488 124.915Z" fill="#F58F80"/>
<path d="M142.487 124.916C145.724 127.142 148.926 129.422 152.092 131.754C157.396 135.73 163.615 137.976 164.595 145.032C164.94 149.001 164.94 152.99 164.595 156.959C164.275 166.62 162.955 176.141 162.934 185.802C162.872 186.758 162.973 187.718 163.232 188.644C164.169 191.487 169.749 191.348 172.22 192.322C173.604 192.878 175.202 194.31 174.158 195.88C173.114 197.45 170.26 197.033 168.769 196.934C165.979 196.695 163.999 197.073 162.124 195.085C160.659 193.418 159.683 191.425 159.291 189.3C156.48 178.209 157.481 166.64 156.437 155.289C156.378 152.07 155.408 148.922 153.626 146.165C151.48 143.78 148.767 141.894 145.703 140.659L131.603 133.742C127.838 132.144 124.343 130.041 121.23 127.5C117.631 124.18 113.456 116.846 120.293 114.5C124.02 113.208 127.982 115.375 131.283 117.521C135.046 119.893 138.781 122.358 142.487 124.916Z" fill="#F7AD8D"/>
<path d="M166.133 195.196C166.236 195.233 166.35 195.233 166.453 195.196C166.487 195.092 166.487 194.981 166.453 194.878V191.479C166.453 190.545 166.304 190.008 167.369 190.008C168.404 190.032 169.436 190.125 170.457 190.286C172.499 190.567 174.509 191.019 176.463 191.638C177.284 191.813 177.996 192.285 178.444 192.95C178.602 193.357 178.675 193.789 178.657 194.222C178.657 195.753 179.168 197.422 177.4 198.198C176.617 198.465 175.785 198.586 174.951 198.555H172.097C166.417 198.555 160.681 198.436 154.887 198.198C154.552 198.217 154.216 198.163 153.908 198.038C153.205 197.72 152.438 196.309 152.949 195.653C153.46 194.997 155.207 195.176 155.974 195.156C157.166 195.156 158.38 195.156 159.594 195.156C161.772 195.277 163.954 195.29 166.133 195.196Z" fill="#29577E"/>
<path d="M166.131 195.196C166.234 195.233 166.348 195.233 166.45 195.196C166.485 195.092 166.485 194.981 166.45 194.878V191.479C166.45 190.545 166.301 190.008 167.366 190.008C170.029 190.008 172.031 191.002 171.967 193.804C171.984 194.423 171.822 195.034 171.498 195.574C170.497 197.144 168.176 197.343 166.216 197.343H155.034C154.118 197.343 152.116 196.905 152.904 195.653C153.437 194.858 155.034 195.176 155.929 195.156C157.121 195.156 158.335 195.156 159.55 195.156C161.741 195.279 163.938 195.292 166.131 195.196Z" fill="#3567B0"/>
<path d="M125.147 70.0689C124.913 69.8104 124.658 69.5322 124.402 69.2141C123.922 68.6134 123.555 67.9414 123.316 67.2263C123.215 66.8906 123.196 66.5383 123.259 66.1946C123.321 65.851 123.464 65.5245 123.678 65.2385C123.94 64.9657 124.277 64.7656 124.653 64.6604C125.029 64.5551 125.428 64.5488 125.808 64.6422C126.703 64.6879 127.596 64.531 128.412 64.1849C129.228 63.8388 129.942 63.3137 130.494 62.6544C131.196 61.9984 131.793 60.925 132.623 60.448C133.611 60.0312 134.718 59.9265 135.776 60.1498C136.377 60.1375 136.975 60.2507 137.524 60.4811C138.073 60.7115 138.56 61.0533 138.949 61.4816C139.21 61.9304 139.369 62.4242 139.418 62.9327C139.769 65.1003 139.769 67.3049 139.418 69.4725C139.319 71.4021 138.471 73.2322 137.032 74.6209C136.244 75.257 135.456 74.9588 134.902 75.7738C134.495 76.6288 134.39 77.5828 134.604 78.4971C134.881 80.2662 136.585 84.3014 135.414 85.8519C135.008 86.2997 134.507 86.6635 133.942 86.9203C133.377 87.177 132.761 87.3209 132.134 87.3427C130.877 87.5287 129.591 87.4347 128.38 87.0685C127.17 86.7024 126.07 86.0743 125.169 85.2357C124.771 84.8441 124.486 84.3657 124.338 83.8442C124.263 83.4164 124.263 82.98 124.338 82.5522C124.551 80.1867 125.211 77.9206 125.637 75.5949C125.659 73.9848 126.425 71.4603 125.147 70.0689Z" fill="#F7AD8D"/>
<path opacity="0.38" d="M125.147 70.0689C124.913 69.8104 124.658 69.5322 124.402 69.2141C123.922 68.6134 123.555 67.9414 123.316 67.2263C123.215 66.8906 123.196 66.5383 123.259 66.1946C123.321 65.851 123.464 65.5245 123.678 65.2385C123.94 64.9657 124.277 64.7656 124.653 64.6604C125.029 64.5551 125.428 64.5488 125.808 64.6422C126.703 64.6879 127.596 64.531 128.412 64.1849C129.228 63.8388 129.942 63.3137 130.494 62.6544C131.196 61.9984 131.793 60.925 132.623 60.448C133.611 60.0312 134.718 59.9265 135.776 60.1498C139.588 60.5275 140.035 63.7477 136.904 65.6758C135.232 66.4165 133.61 67.2529 132.048 68.1805C129.974 70.1486 128.805 72.7946 128.79 75.5551C128.392 77.5474 128.553 79.6017 129.258 81.5185C129.787 82.4525 130.257 83.415 130.664 84.4008C131.942 88.5752 126.915 87.2036 125.126 85.3351C124.729 84.9435 124.443 84.465 124.296 83.9436C124.22 83.5158 124.22 83.0794 124.296 82.6516C124.509 80.2861 125.169 78.02 125.595 75.6943C125.659 73.9848 126.425 71.4603 125.147 70.0689Z" fill="#E86050"/>
<path d="M133.975 125.851L130.653 140.183C130.112 140.228 129.577 140.321 129.055 140.461C128.629 140.58 128.352 140.461 127.926 140.64L129.204 124.917L134.976 124.658C134.848 125.016 134.06 125.513 133.975 125.851Z" stroke="black" stroke-width="3" stroke-miterlimit="10"/>
<path d="M161.576 142.364C163.936 141.113 166.593 140.429 169.307 140.377C171.97 140.377 179.02 142.643 176.378 138.508C172.119 131.769 162.918 128.271 155.356 125.786C150.862 124.335 144.835 123.52 142.321 119.147C139.808 114.774 142.321 109.625 143.024 105.232C144.174 97.2813 143.599 89.4295 138.36 82.6909C137.763 81.9157 136.23 80.1863 134.952 80.7031C134.1 81.1206 134.036 82.6909 133.035 83.2674C132.789 83.4163 132.512 83.5161 132.223 83.5606C131.933 83.6051 131.637 83.5932 131.353 83.5258C130.999 83.4058 130.674 83.2236 130.394 82.9891C129.159 82.0916 128.075 81.0262 127.178 79.8285C126.46 78.6654 125.384 77.7305 124.09 77.145C123.152 76.8468 122.812 77.145 121.96 77.4432C121.101 77.6481 120.224 77.7812 119.34 77.8407C117.463 78.1148 115.663 78.7359 114.046 79.6678C112.43 80.5997 111.029 81.8235 109.926 83.2674C109.472 83.874 109.127 84.5453 108.903 85.2552C108.235 88.1482 107.913 91.1017 107.945 94.0611C107.938 98.6568 108.208 103.249 108.754 107.817C109.393 118.213 104.495 126.383 110.48 136.56C116.869 147.731 128.584 149.083 139.467 154.669C140.51 155.272 141.626 155.759 142.79 156.12C146.219 156.994 147.05 154.132 148.903 152.005C150.281 150.357 151.829 148.839 153.525 147.473C156.071 145.588 158.761 143.881 161.576 142.364Z" fill="#29577E"/>
<path d="M153.542 147.635C156.162 145.648 160.912 142.089 155.672 139.943C152.989 138.869 149.602 139.644 146.791 139.386C144.308 139.129 141.919 138.349 139.806 137.106C137.692 135.863 135.907 134.189 134.586 132.21C128.197 122.629 131.967 108.993 130.753 98.3182C130.199 93.5277 129.965 87.5842 127.686 83.1912C123.894 75.9159 114.31 77.4862 109.965 83.3502C109.511 83.9568 109.166 84.6281 108.942 85.338C108.274 88.231 107.952 91.1845 107.984 94.1439C107.977 98.7396 108.247 103.332 108.793 107.899C109.432 118.296 104.534 126.465 110.519 136.643C116.908 147.814 128.623 149.166 139.506 154.752C140.549 155.355 141.665 155.842 142.829 156.203C146.258 157.077 147.089 154.215 148.942 152.088C150.318 150.469 151.859 148.978 153.542 147.635Z" fill="#5F9CCF"/>
<path d="M121.406 120.113C124.159 121.067 127.016 121.733 129.926 122.101C136.486 123.055 143.195 122.896 149.713 124.089C148.776 121.584 147.583 118.782 144.835 117.927C143.437 117.641 142.004 117.534 140.575 117.609C137.691 117.345 134.883 116.591 132.29 115.383C128.776 113.971 125.134 112.301 123.174 109.24C121.215 106.179 121.406 102.104 120.746 98.4466C120.429 96.2419 119.561 94.1377 118.212 92.3043C117.63 91.4473 116.804 90.7589 115.826 90.3165C114.701 89.9708 113.508 89.8622 112.333 89.9985C110.837 89.8964 109.355 90.322 108.18 91.1912C107.352 92.2035 106.937 93.4576 107.008 94.7294C106.63 101.568 108.592 108.341 112.61 114.071C114.872 116.82 117.922 118.915 121.406 120.113Z" fill="#F58F80"/>
<path d="M124.492 116.127C127.38 117.934 130.538 119.334 133.863 120.282C135.499 120.77 137.183 121.103 138.89 121.275C140.785 121.474 142.724 121.275 144.619 121.514C146.176 121.691 147.681 122.15 149.049 122.866C148.823 121.697 148.264 120.607 147.433 119.709C146.601 118.81 145.527 118.136 144.321 117.757C143.866 117.664 143.402 117.611 142.937 117.598C141.212 117.642 139.486 117.536 137.782 117.28C135.886 116.825 134.039 116.206 132.266 115.431C128.751 114.02 125.109 112.35 123.15 109.289C121.19 106.228 121.382 102.153 120.722 98.4954C120.405 96.2907 119.537 94.1865 118.187 92.3531C117.606 91.4961 116.78 90.8077 115.802 90.3653C113.225 89.3515 111.073 89.7491 110.946 92.4724C110.79 97.1763 111.96 101.836 114.337 105.987C116.713 110.137 120.215 113.634 124.492 116.127Z" fill="#F7AD8D"/>
<path d="M107.748 86.5884C107.336 87.6631 107.016 88.7664 106.79 89.8882C106.021 93.7 105.792 97.5896 106.108 101.457C106.111 101.736 106.169 102.012 106.279 102.272C106.683 103.008 107.727 103.107 108.6 103.107H121.38C122.407 97.4631 122.161 91.681 120.655 86.1312C119.761 83.07 116.949 80.1679 113.286 80.9829C111.924 81.3928 110.698 82.1242 109.728 83.1064C108.757 84.0885 108.076 85.288 107.748 86.5884Z" fill="#29577E"/>
<path d="M107.748 86.5896C107.336 87.6642 107.016 88.7676 106.79 89.8893C106.021 93.7012 105.792 97.5907 106.108 101.458C106.111 101.737 106.169 102.014 106.279 102.273C106.683 103.009 107.727 103.108 108.6 103.108C113.265 103.108 115.309 103.108 115.309 98.1585V84.9C115.139 84.0055 115.565 83.0315 115.309 82.1966C113.35 77.8036 108.387 84.9 107.748 86.5896Z" fill="#29577E"/>
<path d="M138.211 146.939C137.556 146.576 136.833 146.333 136.081 146.223L134.867 145.985C134.334 145.865 134.867 141.452 134.867 141.055C134.973 138.411 135.058 135.747 135.144 133.104C135.229 130.46 135.271 126.862 133.418 124.536C131.64 122.704 129.227 121.514 126.603 121.177C123.514 120.541 120.469 119.726 117.38 119.189C115.399 118.772 113.334 118.493 111.374 118.016C110.633 117.932 109.931 117.66 109.345 117.229C108.759 116.798 108.312 116.224 108.051 115.571C107.871 114.647 107.828 113.704 107.924 112.769C107.924 109.827 107.924 106.805 107.924 103.943C108.001 102.746 107.823 101.546 107.401 100.413C106.978 99.2809 106.319 98.2379 105.461 97.3448C104.603 96.4518 103.564 95.7265 102.403 95.211C101.243 94.6956 99.9847 94.4001 98.7011 94.3418C94.2496 94.3418 89.1379 97.8602 86.5181 100.901C86.273 101.145 86.0909 101.437 85.9857 101.756C85.7301 102.77 87.0932 103.625 88.1155 103.426C89.2297 103.117 90.2173 102.5 90.9483 101.657C92.3378 100.258 94.0594 99.182 95.9749 98.5162C96.9423 98.1949 97.9801 98.103 98.9951 98.2487C100.01 98.3944 100.97 98.7732 101.789 99.351C105.389 102.233 104.196 109.926 104.196 114.041V132.527C104.196 135.41 103.6 139.186 105.091 141.87C106.582 144.553 109.777 145.507 113.057 146.183C115.059 146.601 117.061 146.839 118.658 147.197L135.953 150.914C136.639 151.129 137.372 151.177 138.083 151.053C139.957 150.556 139.616 147.774 138.211 146.939ZM109.649 139.743C109.13 139.237 108.728 138.638 108.468 137.981C108.208 137.325 108.095 136.625 108.137 135.926C108.137 133.481 108.137 131.036 108.03 128.572C108.03 127.339 108.03 126.087 108.03 124.854C108.03 123.622 108.03 122.867 109.138 122.31C110.323 121.829 111.655 121.766 112.886 122.131C117.047 122.913 121.186 123.761 125.304 124.675C126.384 124.843 127.415 125.223 128.328 125.789C129.714 127.021 130.551 128.697 130.671 130.48C131.044 134.224 131.001 137.995 130.543 141.731C130.543 142.764 130.394 144.235 129.308 144.772C128.221 145.309 125.559 144.374 124.239 144.096C121.512 143.54 118.765 142.943 116.06 142.307C113.719 141.992 111.508 141.108 109.649 139.743Z" fill="#182436"/>
<path d="M138.022 146.538C137.361 146.189 136.64 145.947 135.892 145.823L134.699 145.584C134.167 145.584 134.699 141.052 134.699 140.655C134.827 138.011 134.891 135.347 134.976 132.703C135.061 130.06 135.104 126.462 133.251 124.156C131.474 122.319 129.061 121.122 126.435 120.777C123.347 120.141 120.301 119.346 117.213 118.789C115.232 118.372 113.187 118.113 111.206 117.616C110.5 117.521 109.833 117.254 109.273 116.842C108.712 116.431 108.277 115.889 108.012 115.271C107.842 114.338 107.799 113.39 107.884 112.448C107.884 111.732 107.884 110.818 108.033 109.904V109.029C108.06 108.55 107.979 108.07 107.796 107.622C107.612 107.173 107.33 106.766 106.968 106.425C106.74 106.234 106.464 106.101 106.166 106.039C105.868 105.976 105.557 105.986 105.264 106.067C105.087 106.149 104.931 106.264 104.802 106.404C104.674 106.544 104.578 106.707 104.519 106.882C104.689 115.31 104.327 123.739 104.327 132.187C104.327 135.069 103.752 138.846 105.243 141.529C106.734 144.213 109.907 145.167 113.187 145.843C115.189 146.24 117.213 146.499 118.81 146.857L136.105 150.574C136.717 150.755 137.364 150.809 138 150.733C139.747 150.156 139.428 147.373 138.022 146.538ZM130.525 141.41C130.525 142.444 130.375 143.915 129.289 144.431C128.203 144.948 125.541 144.054 124.22 143.775C121.472 143.219 118.746 142.623 116.02 141.986C113.691 141.651 111.493 140.769 109.63 139.422C109.118 138.913 108.722 138.312 108.466 137.656C108.21 137 108.099 136.303 108.139 135.606C108.139 133.161 108.139 130.716 108.139 128.251C108.139 127.018 108.139 125.766 108.139 124.514C108.139 123.261 108.139 122.526 109.226 121.989C110.437 121.497 111.797 121.426 113.059 121.791C117.191 122.586 121.323 123.44 125.455 124.355C126.54 124.51 127.574 124.89 128.48 125.468C129.875 126.695 130.713 128.373 130.823 130.159C131.139 133.909 131.039 137.679 130.525 141.41Z" fill="#414042"/>
<path d="M134.525 140.657C134.525 141.054 134.078 145.487 134.525 145.586L135.718 145.825C136.466 145.949 137.186 146.191 137.848 146.54C139.253 147.395 139.573 150.158 137.635 150.635C136.998 150.712 136.351 150.657 135.739 150.476L118.444 146.759C117.401 146.52 116.442 146.381 116.314 145.209C116.23 144.597 116.381 143.977 116.74 143.459C118.04 141.471 122.257 143.28 124.152 143.678C125.473 143.956 127.922 144.97 129.222 144.334C130.521 143.698 130.372 142.346 130.457 141.312C130.585 139.325 130.308 137.078 132.587 136.244C132.781 136.184 132.989 136.184 133.183 136.244C133.402 136.318 133.594 136.449 133.737 136.621C134.994 137.774 134.61 139.086 134.525 140.657Z" fill="#231F20"/>
<path d="M118.465 142.024C104.727 142.143 93.7159 156.972 93.9502 175.2C94.1845 193.428 105.43 207.979 119.147 207.86C132.863 207.74 143.832 192.912 143.641 174.763C143.449 156.615 132.182 141.905 118.465 142.024ZM130.989 157.926C133.017 161.08 134.315 164.594 134.802 168.243C134.854 168.516 134.801 168.798 134.652 169.038C134.507 169.173 134.322 169.263 134.12 169.297C131.918 169.847 129.664 170.193 127.39 170.33C125.473 170.45 126.388 168.899 127.027 167.826C128.894 164.761 130.231 161.44 130.989 157.986V157.926ZM126.857 152.599C127.288 152.931 127.619 153.363 127.817 153.851C128.015 154.339 128.073 154.867 127.986 155.382C127.836 156.41 127.535 157.413 127.091 158.364C126.751 159.219 126.431 160.073 126.09 160.908C125.345 162.896 124.599 164.884 123.96 166.872C123.96 167.13 123.705 168.044 123.428 168.104C123.151 168.164 123.087 167.945 123.023 167.786C122.97 167.343 122.97 166.897 123.023 166.454C123.023 165.679 122.832 164.904 122.704 164.128C122.384 162.479 122.32 160.849 122.001 159.179C121.647 157.414 121.142 155.679 120.489 153.991C120.254 153.394 118.849 149.618 118.146 149.598C120.525 149.693 122.846 150.313 124.919 151.407C125.598 151.778 126.246 152.196 126.857 152.659V152.599ZM107.006 153.553C108.206 152.558 109.538 151.709 110.968 151.029C112.906 150.095 113.247 151.029 114.227 152.5C115.574 154.701 116.742 156.993 117.72 159.358C119.359 162.426 120.212 165.808 120.212 169.237C114.319 165.712 109.395 160.947 105.835 155.322C105.796 155.22 105.796 155.107 105.835 155.004C105.841 154.95 105.859 154.896 105.889 154.849C105.918 154.801 105.958 154.759 106.005 154.726L107.006 153.553ZM114.631 198.557C110.914 197.225 107.627 195.02 105.09 192.156C105.771 191.81 106.401 191.382 106.964 190.884C108.801 189.292 110.55 187.614 112.203 185.855C114.333 183.708 116.463 181.541 118.593 179.355C118.066 185.896 116.737 192.358 114.631 198.617V198.557ZM116.144 175.399C111.965 180.27 107.092 184.584 101.66 188.22C99.5133 183.989 98.4002 179.365 98.4017 174.684V173.888C99.45 174.28 100.556 174.521 101.682 174.604C106.482 175.124 111.311 175.376 116.144 175.359V175.399ZM116.144 171.424C113.388 171.765 110.592 171.698 107.858 171.225C104.791 170.966 101.746 170.569 98.7212 170.092C99.1663 166.58 100.269 163.169 101.98 160.014C103.621 161.638 105.402 163.133 107.305 164.486C110.372 166.772 113.694 168.939 116.612 171.265L116.144 171.424ZM121.128 198.736C121.084 198.472 121.084 198.204 121.128 197.941C121.816 191.647 122.165 185.324 122.171 178.997C124.472 180.786 125.217 183.708 126.239 186.213C127.484 189.146 128.487 192.163 129.243 195.237C129.243 195.237 128.966 195.396 128.944 195.416C127.624 196.172 126.303 196.927 124.961 197.643C124.237 198.04 123.492 198.318 122.832 198.656C122.171 198.994 121.213 199.392 121.085 198.795L121.128 198.736ZM132.054 188.578C131.817 188.43 131.637 188.214 131.543 187.962L124.898 174.803C124.898 174.803 128.689 174.584 129.03 174.564C130.009 174.564 130.968 174.564 131.948 174.405C132.927 174.246 134.397 173.849 135.078 174.107C135.76 174.365 135.717 175.856 135.696 176.512C135.566 178.521 135.253 180.516 134.759 182.476C134.482 183.152 133.247 188.777 132.054 188.578Z" fill="#414042"/>
<path d="M143.47 174.674C143.524 167.178 141.404 159.808 137.336 153.345C133.971 148.236 128.817 142.332 121.916 144.718C119.784 145.208 117.892 146.357 116.548 147.978C114.951 150.403 116.08 153.504 117.102 156.187C119.999 163.721 121.745 172.209 118.444 179.603C117.171 182.447 115.278 185.013 112.885 187.137C110.307 189.031 107.906 191.126 105.707 193.399C98.9129 201.767 111.138 207.85 119.019 207.77C132.693 207.651 143.662 192.822 143.47 174.674ZM134.61 168.293C134.646 168.428 134.651 168.568 134.626 168.705C134.6 168.842 134.544 168.972 134.461 169.088C134.324 169.222 134.145 169.313 133.95 169.346C131.748 169.896 129.494 170.243 127.219 170.38C125.281 170.499 126.218 168.949 126.857 167.875C128.725 164.775 130.061 161.422 130.819 157.936C132.854 161.099 134.147 164.629 134.61 168.293ZM114.44 198.607C110.729 197.274 107.449 195.069 104.919 192.206C105.6 191.859 106.23 191.432 106.793 190.934C108.647 189.363 110.35 187.634 112.033 185.905C114.163 183.758 116.293 181.591 118.295 179.404C117.808 185.923 116.515 192.366 114.44 198.607ZM117.869 149.647C120.248 149.743 122.569 150.363 124.642 151.456C125.39 151.799 126.103 152.205 126.772 152.669C127.18 153.01 127.489 153.443 127.668 153.926C127.847 154.41 127.89 154.928 127.794 155.432C127.634 156.457 127.333 157.459 126.9 158.413C126.559 159.268 126.239 160.123 125.899 160.958C125.132 162.946 124.408 164.933 123.769 166.921C123.769 167.18 123.534 168.094 123.258 168.154C122.981 168.213 122.917 167.995 122.853 167.836C122.8 167.393 122.8 166.946 122.853 166.504C122.781 165.724 122.667 164.947 122.512 164.178C122.214 162.528 122.15 160.898 121.809 159.228C121.47 157.463 120.971 155.727 120.318 154.04C119.978 153.464 118.572 149.667 117.869 149.647ZM128.731 195.366C127.411 196.122 126.09 196.877 124.749 197.593C124.024 197.99 123.279 198.269 122.619 198.607C121.958 198.944 121.128 199.282 121 198.706C120.956 198.436 120.956 198.161 121 197.891C121.689 191.597 122.037 185.274 122.044 178.947C124.344 180.736 125.089 183.658 126.112 186.163C127.356 189.096 128.36 192.113 129.115 195.188C129.115 195.188 128.753 195.446 128.731 195.466V195.366ZM135.419 176.363C135.289 178.372 134.976 180.367 134.482 182.327C134.312 183.082 133.055 188.687 131.884 188.469H131.756C131.525 188.318 131.354 188.102 131.266 187.853L124.621 174.693C124.621 174.693 128.412 174.475 128.753 174.455C129.732 174.455 130.691 174.455 131.649 174.296C132.608 174.137 134.12 173.739 134.78 173.998C135.441 174.256 135.441 175.807 135.419 176.463V176.363Z" fill="#414042"/>
<path d="M113.648 143.396C101.359 143.575 91.5826 157.748 91.7317 175.201C91.8808 192.654 102.019 206.608 114.309 206.509C126.598 206.409 136.417 192.197 136.225 174.704C136.033 157.212 125.938 143.396 113.648 143.396ZM113.797 202.414C103.808 202.414 95.5868 190.487 95.4377 175.38C95.2886 160.273 103.254 148.127 113.222 148.048C123.19 147.968 131.433 159.975 131.582 175.062C131.731 190.149 123.765 202.374 113.797 202.474V202.414Z" fill="#989BA0"/>
<path d="M94.013 164.135C94.0969 164.382 94.2769 164.59 94.5175 164.719C94.7581 164.848 95.0417 164.887 95.3123 164.831C96.6754 164.612 97.2079 161.67 97.6338 160.696C99.0144 156.89 101.403 153.471 104.577 150.757C105.813 149.783 108.645 148.65 108.432 146.781C108.305 145.807 106.494 146.145 105.855 146.284C104.451 146.751 103.203 147.553 102.234 148.61C98.7976 151.739 96.1873 155.57 94.6094 159.801C93.8304 161.123 93.6173 162.672 94.013 164.135Z" fill="#58595B"/>
<path d="M135.055 67.0689C133.899 67.1083 132.742 67.0283 131.605 66.8303C130.515 66.6488 129.473 66.2707 128.538 65.7172C127.814 65.2997 126.94 64.4052 126.067 64.3655C126.001 64.3539 125.933 64.3588 125.869 64.3798C125.805 64.4007 125.749 64.4369 125.705 64.4848C125.322 65.0811 128.644 67.2478 129.113 67.5658C130.604 68.5398 132.18 69.7126 131.988 71.5414C131.97 71.9259 131.821 72.295 131.562 72.5949C130.455 73.6683 127.686 71.5017 126.77 70.8457C126.373 70.5269 125.937 70.2533 125.471 70.0307C125.258 70.0307 125.002 69.9114 124.874 70.0307C124.747 70.15 124.874 70.4481 125.045 70.6072C125.725 71.3155 126.515 71.9252 127.388 72.416C128.839 73.3753 130.405 74.1757 132.052 74.8014C133.522 75.3182 135.652 75.9941 137.057 75.0996C138.067 74.346 138.773 73.2947 139.06 72.1179C139.57 70.6369 139.766 69.077 139.635 67.5261V67.0291C138.037 67.0291 136.546 67.0291 135.055 67.0689Z" fill="#1C907A"/>
<path opacity="0.47" d="M134.991 67.2279C133.877 67.0051 132.744 66.8721 131.605 66.8303C130.515 66.6488 129.473 66.2707 128.538 65.7172C127.814 65.2997 126.94 64.4052 126.067 64.3655C126.001 64.3539 125.933 64.3588 125.869 64.3798C125.805 64.4007 125.749 64.4369 125.705 64.4848C125.322 65.0811 128.644 67.2478 129.113 67.5658C130.604 68.5398 132.18 69.7126 131.988 71.5414C131.97 71.9259 131.821 72.295 131.562 72.5949C130.455 73.6683 127.686 71.5017 126.77 70.8457C126.373 70.5269 125.937 70.2533 125.471 70.0307C125.258 70.0307 125.002 69.9114 124.874 70.0307C124.747 70.15 124.874 70.4481 125.045 70.6072C125.725 71.3155 126.515 71.9252 127.388 72.416C128.877 73.5072 130.576 74.3234 132.393 74.8213C133.14 74.816 133.871 74.6135 134.501 74.2372C135.13 73.8608 135.632 73.3259 135.95 72.6943C136.348 71.7952 136.515 70.822 136.44 69.8518C136.448 69.2701 136.347 68.6914 136.142 68.1423C135.891 67.7166 135.482 67.3913 134.991 67.2279Z" fill="#0D6D5C"/>
<path d="M123.75 67.1254C123.893 67.5804 124.14 68.001 124.474 68.3578C124.575 68.4713 124.698 68.5658 124.836 68.6361C124.909 68.6709 124.989 68.6891 125.071 68.6891C125.152 68.6891 125.232 68.6709 125.305 68.6361C125.391 68.5765 125.462 68.4985 125.51 68.4087C125.558 68.3189 125.583 68.2197 125.582 68.1193C125.593 67.9074 125.593 67.6951 125.582 67.4832C125.635 67.1363 125.552 66.7833 125.347 66.4893C125.18 66.3342 124.972 66.2218 124.745 66.1627C124.518 66.1035 124.278 66.0996 124.048 66.1513C123.665 66.2507 123.537 66.7676 123.75 67.1254Z" fill="#D75F56"/>
<path d="M124.067 66.1174C124.399 66.0756 124.737 66.1168 125.047 66.2367C125.286 66.3995 125.478 66.6159 125.605 66.8659C125.731 67.116 125.788 67.3918 125.771 67.6679C125.771 67.9859 125.771 68.3835 125.366 68.463C125.191 68.4898 125.011 68.4684 124.848 68.4013C124.685 68.3342 124.547 68.2245 124.45 68.0853C124.341 67.948 124.288 67.7788 124.301 67.6083C124.301 67.4095 124.557 67.3101 124.727 67.2306C124.885 67.1524 125.065 67.1238 125.242 67.1488C125.418 67.1739 125.581 67.2514 125.707 67.3697" stroke="black" stroke-width="3" stroke-miterlimit="10"/>
</svg>
