<svg width="60" height="60" viewBox="0 0 60 60" fill="none" xmlns="http://www.w3.org/2000/svg">
<rect y="60" width="60" height="60" rx="30" transform="rotate(-90 0 60)" fill="#F04E30"/>
<g clip-path="url(#clip0_184_798)">
<path fill-rule="evenodd" clip-rule="evenodd" d="M23.1927 17.2859C22.6435 17.8352 22.6435 18.7266 23.1927 19.2758L34.1046 30.1866L23.1938 41.0985C22.6446 41.6477 22.6446 42.5391 23.1938 43.0883C23.743 43.6376 24.6344 43.6376 25.1837 43.0883L37.0916 31.1804L37.0932 31.1788C37.3634 30.9057 37.5016 30.5463 37.5016 30.1866C37.5016 29.8281 37.3641 29.4656 37.0876 29.1909L37.0858 29.1891L25.1826 17.2859C24.6334 16.7369 23.742 16.7367 23.1927 17.2859Z" fill="#FEFEFE"/>
</g>
<defs>
<clipPath id="clip0_184_798">
<rect width="27.9818" height="15.39" fill="white" transform="matrix(0 -1 1 0 22.29 43.991)"/>
</clipPath>
</defs>
</svg>
