<svg width="96" height="96" viewBox="0 0 96 96" fill="none" xmlns="http://www.w3.org/2000/svg">
<g clip-path="url(#clip0_184_804)">
<path d="M48 96C74.5097 96 96 74.5097 96 48C96 21.4903 74.5097 0 48 0C21.4903 0 0 21.4903 0 48C0 74.5097 21.4903 96 48 96Z" fill="#F3F9FF"/>
<path d="M68 74L80.428 61.572C80.7938 61.2067 80.9995 60.711 81 60.194V43.125C81 41.8321 80.4864 40.5921 79.5721 39.6779C78.6579 38.7636 77.4179 38.25 76.125 38.25C74.8321 38.25 73.5921 38.7636 72.6779 39.6779C71.7636 40.5921 71.25 41.8321 71.25 43.125V57.75" stroke="#F04E30" stroke-width="5" stroke-linecap="round" stroke-linejoin="round"/>
<path d="M68 61L70.7885 58.2115C70.935 58.0652 71.0512 57.8914 71.1304 57.7001C71.2096 57.5088 71.2502 57.3038 71.25 57.0967C71.2496 56.8045 71.1679 56.5181 71.014 56.2696C70.8602 56.0211 70.6404 55.8203 70.379 55.6895L68.9392 54.9713C67.7195 54.3614 66.3388 54.1506 64.9926 54.3687C63.6465 54.5869 62.403 55.2229 61.4382 56.1868L58.5295 59.0955C57.3104 60.3142 56.6254 61.9672 56.625 63.691V74M29 74L16.572 61.572C16.2062 61.2067 16.0005 60.711 16 60.194V43.125C16 41.8321 16.5136 40.5921 17.4279 39.6779C18.3421 38.7636 19.5821 38.25 20.875 38.25C22.1679 38.25 23.4079 38.7636 24.3221 39.6779C25.2364 40.5921 25.75 41.8321 25.75 43.125V57.75" stroke="#F04E30" stroke-width="5" stroke-linecap="round" stroke-linejoin="round"/>
<path d="M29 61L26.2115 58.2115C26.0651 58.0651 25.9491 57.8913 25.8699 57.7C25.7907 57.5088 25.75 57.3038 25.75 57.0967C25.75 56.502 26.088 55.9593 26.621 55.6895L28.0607 54.9713C29.2805 54.3614 30.6612 54.1506 32.0074 54.3687C33.3535 54.5869 34.597 55.2229 35.5618 56.1868L38.4705 59.0955C39.6896 60.3142 40.3746 61.9672 40.375 63.691V74M53.9177 48H43.0823V40.4177H35.5V29.5823H43.0823V22H53.9177V29.5823H61.5V40.4177H53.9177V48Z" stroke="#F04E30" stroke-width="5" stroke-linecap="round" stroke-linejoin="round"/>
</g>
<defs>
<clipPath id="clip0_184_804">
<rect width="96" height="96" fill="white"/>
</clipPath>
</defs>
</svg>
