<svg width="48" height="48" viewBox="0 0 48 48" fill="none" xmlns="http://www.w3.org/2000/svg">
<circle cx="24" cy="24" r="23.5" fill="#FEFEFE" stroke="#E5F5E7"/>
<path d="M22.3614 25.8039C23.4787 26.7973 24.4731 27.2206 24.9124 27.4076C24.9787 27.4359 25.0323 27.4587 25.0718 27.4773C25.2669 27.5772 25.502 27.6624 25.7574 27.633C26.0364 27.6008 26.2368 27.4458 26.3789 27.2761C26.5655 27.0635 27.1857 26.3294 27.4276 25.9769C27.4321 25.9708 27.4361 25.9654 27.4398 25.9607C27.4716 25.9684 27.5123 25.9811 27.5728 26.0019C27.7944 26.0946 28.6874 26.5275 29.2763 26.813C29.4833 26.9133 29.6528 26.9955 29.7423 27.0382C29.8108 27.0709 29.8747 27.1002 29.9296 27.1254C29.9435 27.1318 29.9569 27.1379 29.9696 27.1438C30.0355 27.1741 30.082 27.1962 30.119 27.2158C30.121 27.2168 30.1228 27.2178 30.1247 27.2188C30.1279 27.2736 30.1275 27.3503 30.1194 27.4469C30.1003 27.6735 30.0414 27.9779 29.9191 28.314L29.919 28.314L29.9165 28.3213C29.8433 28.5327 29.5774 28.8161 29.1658 29.0794C28.7676 29.3341 28.3561 29.4918 28.1365 29.524C27.6094 29.5971 26.9897 29.627 26.3214 29.4129L26.3214 29.4128L26.3143 29.4106C25.8545 29.2709 25.2738 29.0824 24.5274 28.7551L24.5239 28.7536C21.5702 27.4856 19.5624 24.5753 19.2415 24.1103C19.2266 24.0887 19.2154 24.0724 19.2078 24.0617L19.2036 24.0558L19.1993 24.0501L19.1968 24.0468C19.1196 23.9444 18.814 23.539 18.5267 22.9764C18.2327 22.4005 17.9804 21.7028 17.9804 21.023C17.9804 19.7565 18.5768 19.1038 18.9003 18.7498C18.927 18.7206 18.9518 18.6934 18.9744 18.668C19.1642 18.4647 19.3604 18.4291 19.4663 18.4291H20.0794C20.1099 18.4306 20.1389 18.4309 20.1577 18.4311C20.1601 18.4311 20.1623 18.4312 20.1643 18.4312C20.1911 18.4315 20.205 18.4319 20.2166 18.4328C20.218 18.4329 20.2192 18.433 20.2203 18.4331C20.24 18.4514 20.2929 18.5124 20.3626 18.6781C20.6193 19.3165 21.281 20.9248 21.3713 21.1046C21.3967 21.155 21.4015 21.1786 21.4025 21.1878C21.4029 21.1913 21.4028 21.1938 21.4023 21.1968C21.4018 21.1997 21.4002 21.2077 21.394 21.2215C21.3874 21.2345 21.3811 21.2471 21.375 21.2592C21.2816 21.4457 21.2405 21.5276 21.1388 21.6457C21.0729 21.7222 21.0119 21.7956 20.9551 21.8641C20.8524 21.9879 20.7629 22.0956 20.6815 22.1766C20.6784 22.1797 20.675 22.183 20.6716 22.1865C20.5942 22.2631 20.4378 22.4181 20.3598 22.6342C20.2618 22.9055 20.3096 23.1813 20.4547 23.4393L20.4584 23.4458L20.4623 23.4522C20.6618 23.7831 21.3342 24.8922 22.3614 25.8039ZM22.3614 25.8039C22.3615 25.8039 22.3615 25.804 22.3616 25.804L22.6935 25.43L22.3612 25.8037C22.3613 25.8037 22.3614 25.8038 22.3614 25.8039ZM32.8566 15.1357L32.8584 15.1375C35.2073 17.4747 36.5 20.5841 36.5 23.896C36.5 30.7155 30.9122 36.279 24.0523 36.279C21.9673 36.279 19.9195 35.7541 18.0976 34.7664L17.9239 34.6723L17.7328 34.7223L11.7108 36.2973L13.3114 30.45L13.3664 30.249L13.2624 30.0684C12.182 28.1935 11.6045 26.0694 11.6045 23.883C11.6045 17.0636 17.1924 11.5001 24.0523 11.5001L24.054 11.5001C25.6905 11.4944 27.3118 11.813 28.8231 12.4373C30.3345 13.0615 31.7056 13.9789 32.8566 15.1357ZM18.3085 33.5293L18.3115 33.5311C20.0471 34.5509 22.0289 35.095 24.0523 35.095C30.2557 35.095 35.3182 30.0784 35.292 23.8959C35.2972 22.4223 35.0086 20.9624 34.4429 19.6007C33.877 18.2388 33.0453 17.0023 31.996 15.9627C29.8768 13.841 27.0452 12.6711 24.0392 12.6711C17.8338 12.6711 12.7734 17.7026 12.7734 23.883L12.7734 23.8834C12.7749 25.9917 13.3721 28.0569 14.4964 29.8434L14.4964 29.8434L14.5001 29.849L14.6394 30.0639L13.6143 33.7997L13.3851 34.6348L14.223 34.4157L18.0966 33.4028L18.3085 33.5293ZM30.1161 27.1468C30.1162 27.1468 30.1165 27.148 30.1171 27.1507C30.1163 27.1481 30.1161 27.1468 30.1161 27.1468ZM20.2119 18.4263C20.212 18.4263 20.2129 18.4268 20.2146 18.4282C20.2128 18.4271 20.2119 18.4264 20.2119 18.4263Z" fill="#E74629" stroke="#E74629"/>
</svg>
