<svg width="116" height="42" viewBox="0 0 116 42" fill="none" xmlns="http://www.w3.org/2000/svg">
<path d="M10.9227 0.255371C9.61999 0.296011 8.38482 0.82041 7.4783 1.71771C6.57177 2.61502 6.06494 3.8149 6.06494 5.06372C6.06494 6.31254 6.57177 7.51242 7.4783 8.40973C8.38482 9.30703 9.61999 9.83143 10.9227 9.87207V0.255371Z" fill="#37B34A"/>
<path d="M12.0874 0.275879V9.85178C13.3284 9.73526 14.4797 9.18051 15.3173 8.2955C16.1549 7.41049 16.6189 6.25853 16.6189 5.06383C16.6189 3.86913 16.1549 2.71717 15.3173 1.83216C14.4797 0.947141 13.3284 0.392392 12.0874 0.275879Z" fill="#44ACE1"/>
<path d="M9.57425 10.5779H0V23.6422H0.553179C1.90953 15.3556 3.51144 11.2124 5.35892 11.2124V40.2841H3.69672V40.9059H10.904V10.583L9.57425 10.5779Z" fill="#44ACE1"/>
<path d="M17.6486 10.583H12.0981V40.9059H12.7364H19.0847V40.2867H17.6486V12.1348V11.2022C19.3719 11.2022 20.9118 15.348 22.2681 23.6397H22.8718V10.583H17.6486Z" fill="#37B34A"/>
<path d="M33.2092 10.8047H31.8848V40.9568H33.2092V10.8047Z" fill="white"/>
<path d="M43.6691 23.4664V15.2308H41.3633V15.1467L42.0893 13.6688H43.6691V10.5728L45.3738 9.80835H45.4616V13.6688H47.7674V13.7605L47.0413 15.2384H45.4616V22.6918L43.7568 23.4562L43.6691 23.4664Z" fill="white"/>
<path d="M48.3818 23.4666V16.2451C48.3818 14.5277 49.279 13.6689 51.0733 13.6689H53.3179V13.7607L52.5998 15.2233H51.0626C50.4651 15.2233 50.1664 15.5631 50.1664 16.2426V22.6894L48.4616 23.4538L48.3818 23.4666Z" fill="white"/>
<path d="M56.5782 23.1225C54.7839 23.1225 53.8867 22.263 53.8867 20.5438V16.2451C53.8867 14.5277 54.7839 13.6689 56.5782 13.6689H58.6393C60.4353 13.6689 61.3325 14.5277 61.3307 16.2451V16.7012L55.7058 20.87C55.7135 20.9717 55.7423 21.0708 55.7906 21.1617C55.8388 21.2525 55.9055 21.3332 55.9868 21.3989C56.0681 21.4647 56.1623 21.5142 56.2638 21.5446C56.3654 21.575 56.4723 21.5856 56.5782 21.5758H58.6393C59.2386 21.5758 59.5382 21.2361 59.5382 20.5566V20.0877L61.2429 19.3233H61.3307V20.5515C61.3307 22.2723 60.4336 23.1319 58.6393 23.1302L56.5782 23.1225ZM55.6792 19.0735L59.5276 16.2222C59.4921 15.5529 59.196 15.2174 58.6393 15.2157H56.5782C55.9806 15.2157 55.681 15.5554 55.6792 16.2349V19.0735Z" fill="white"/>
<path d="M65.3096 23.1224C63.5171 23.1224 62.6199 22.2628 62.6182 20.5437V19.3664C62.6182 17.6473 63.5153 16.7877 65.3096 16.7877H67.1952C67.5131 16.7894 67.824 16.8778 68.0914 17.0425V16.2449C68.0914 15.5654 67.7927 15.2257 67.1952 15.2257H63.9825V15.139L64.7006 13.679H67.1952C68.9877 13.679 69.8848 14.5377 69.8866 16.2551V22.7019L68.1819 23.4664H68.0835V22.865C67.8237 23.0452 67.5075 23.135 67.1872 23.1198L65.3096 23.1224ZM65.3096 21.5756H67.1952C67.7927 21.5756 68.0914 21.2359 68.0914 20.5564V19.3664C68.0914 18.6784 67.7927 18.3387 67.1952 18.3472H65.3096C64.7121 18.3472 64.4133 18.6869 64.4133 19.3664V20.5437C64.4133 21.2317 64.7121 21.5756 65.3096 21.5756Z" fill="white"/>
<path d="M72.8068 23.4664V15.2308H70.501V15.1467L71.227 13.6688H72.8068V10.5728L74.5089 9.80835H74.5993V13.6688H76.9051V13.7605L76.179 15.2384H74.5993V22.6918L72.8945 23.4562L72.8068 23.4664Z" fill="white"/>
<path d="M77.5198 23.4666V16.2451C77.5198 14.5277 78.4169 13.6689 80.2112 13.6689H82.275C83.0994 13.6689 83.6978 13.8804 84.0702 14.3034C84.4638 13.8804 85.0613 13.6689 85.8627 13.6689H87.9265C89.7225 13.6689 90.6197 14.5277 90.6179 16.2451V22.6919L88.9131 23.4564H88.828V16.2451C88.828 15.5656 88.5293 15.2259 87.9318 15.2259H85.868C85.2705 15.2259 84.9717 15.5656 84.9717 16.2451V22.6919L83.267 23.4564H83.1766V16.2451C83.1766 15.5656 82.8778 15.2259 82.2803 15.2259H80.2112C79.6137 15.2259 79.3149 15.5656 79.3149 16.2451V22.6919L77.6102 23.4564L77.5198 23.4666Z" fill="white"/>
<path d="M95.0457 23.1225C93.2514 23.1225 92.3542 22.263 92.3542 20.5438V16.2451C92.3542 14.5277 93.2514 13.6689 95.0457 13.6689H97.1068C98.9029 13.6689 99.8 14.5277 99.7982 16.2451V16.7012L94.1734 20.87C94.181 20.9717 94.2098 21.0708 94.2581 21.1617C94.3063 21.2525 94.3731 21.3332 94.4543 21.3989C94.5356 21.4647 94.6298 21.5142 94.7314 21.5446C94.8329 21.575 94.9398 21.5856 95.0457 21.5758H97.1068C97.7061 21.5758 98.0057 21.2361 98.0057 20.5566V20.0877L99.7105 19.3233H99.7982V20.5515C99.7982 22.2723 98.9011 23.1319 97.1068 23.1302L95.0457 23.1225ZM94.1468 19.0735L97.9951 16.2222C97.9596 15.5529 97.6635 15.2174 97.1068 15.2157H95.0457C94.4482 15.2157 94.1485 15.5554 94.1468 16.2349V19.0735Z" fill="white"/>
<path d="M101.535 23.4666V16.2451C101.535 14.5277 102.432 13.6689 104.227 13.6689H106.29C108.083 13.6689 108.98 14.5277 108.982 16.2451V22.6919L107.277 23.4564H107.179V16.2451C107.179 15.5656 106.88 15.2259 106.282 15.2259H104.227C103.629 15.2259 103.33 15.5656 103.33 16.2451V22.6919L101.626 23.4564L101.535 23.4666Z" fill="white"/>
<path d="M111.902 23.4664V15.2308H109.596V15.1467L110.322 13.6688H111.902V10.5728L113.606 9.80835H113.694V13.6688H116V13.7605L115.274 15.2384H113.694V22.6918L111.99 23.4562L111.902 23.4664Z" fill="white"/>
<path d="M43.6691 41.3594V33.1264H41.3633V33.0423L42.0893 31.5618H43.6691V28.4659L45.3738 27.7014H45.4616V31.5695H47.7674V31.6561L47.0413 33.134H45.4616V40.595L43.7568 41.3594H43.6691Z" fill="white"/>
<path d="M48.3818 41.3594V34.1456C48.3818 32.4282 49.279 31.5686 51.0733 31.5669H53.3179V31.6535L52.5998 33.1136H51.0626C50.4651 33.1136 50.1664 33.4576 50.1664 34.1456V40.5924L48.4616 41.3569L48.3818 41.3594Z" fill="white"/>
<path d="M56.1289 41.0256C54.3346 41.0256 53.4375 40.166 53.4375 38.4469V37.2696C53.4375 35.5505 54.3346 34.6909 56.1289 34.6909H58.0119C58.3308 34.6915 58.6429 34.7799 58.9108 34.9457V34.1456C58.9108 33.4661 58.6111 33.1221 58.0119 33.1136H54.8018V33.0295L55.5199 31.5669H58.0119C59.8079 31.5669 60.7051 32.4265 60.7033 34.1456V40.5924L58.9985 41.3568H58.9108V40.7708C58.65 40.9509 58.333 41.0408 58.0119 41.0256H56.1289ZM56.1289 39.4789H58.0119C58.6111 39.4789 58.9108 39.1391 58.9108 38.4596V37.2824C58.9108 36.6029 58.6111 36.2589 58.0119 36.2504H56.1289C55.5314 36.2504 55.2327 36.5944 55.2327 37.2824V38.4596C55.2327 39.1323 55.5314 39.4687 56.1289 39.4687V39.4789Z" fill="white"/>
<path d="M64.557 41.3593L61.0996 31.9312L62.7432 31.2253H62.8389L65.3256 38.2633L67.7643 31.2253H67.8468L69.2723 31.8853L66.0809 40.6178L64.6554 41.3695L64.557 41.3593Z" fill="white"/>
<path d="M72.4824 41.0256C70.6899 41.0256 69.7928 40.166 69.791 38.4469V34.1456C69.791 32.4282 70.6882 31.5686 72.4824 31.5669H74.5462C76.3423 31.5669 77.2394 32.4265 77.2377 34.1456V34.6017L71.6128 38.7679C71.6201 38.8696 71.6486 38.9688 71.6965 39.0598C71.7445 39.1507 71.8109 39.2316 71.8919 39.2976C71.973 39.3636 72.0669 39.4134 72.1684 39.4441C72.2698 39.4748 72.3765 39.4857 72.4824 39.4763H74.5462C75.1455 39.4763 75.4443 39.1366 75.4425 38.4571V38.001L77.1472 37.2365H77.2377V38.4673C77.2377 40.1881 76.3405 41.0477 74.5462 41.046L72.4824 41.0256ZM71.5862 36.9766L75.4345 34.1252C75.3973 33.4457 75.1012 33.106 74.5462 33.106H72.4824C71.8849 33.106 71.5862 33.45 71.5862 34.138V36.9766Z" fill="white"/>
<path d="M79.4211 41.3594V28.4659L81.1259 27.7014H81.2163V40.595L79.5116 41.3594H79.4211Z" fill="white"/>
<path d="M83.8494 41.3594V28.4659L85.5541 27.7014H85.6366V40.595L83.9345 41.3594H83.8494Z" fill="white"/>
<path d="M90.5191 41.0256C88.7248 41.0256 87.8276 40.166 87.8276 38.4469V34.1456C87.8276 32.4282 88.7248 31.5686 90.5191 31.5669H92.5828C94.3754 31.5669 95.2725 32.4265 95.2743 34.1456V34.6017L89.6494 38.7679C89.6567 38.8696 89.6852 38.9688 89.7332 39.0598C89.7811 39.1507 89.8475 39.2316 89.9286 39.2976C90.0096 39.3636 90.1036 39.4134 90.205 39.4441C90.3064 39.4748 90.4132 39.4857 90.5191 39.4763H92.5828C93.1786 39.4763 93.4791 39.1323 93.4791 38.4571V38.001L95.1839 37.2365H95.2743V38.4673C95.2743 40.1881 94.3771 41.0477 92.5828 41.046L90.5191 41.0256ZM89.6255 36.9664L93.4765 34.115C93.4392 33.4355 93.1431 33.0958 92.5882 33.0958H90.5244C89.9269 33.0958 89.6272 33.4398 89.6255 34.1278V36.9664Z" fill="white"/>
<path d="M97.0083 41.3594V34.1456C97.0083 32.4282 97.9054 31.5686 99.6997 31.5669H101.942V31.6535L101.226 33.1136H99.6997C99.1022 33.1136 98.8035 33.4576 98.8035 34.1456V40.5924L97.0987 41.3569L97.0083 41.3594Z" fill="white"/>
</svg>
