<svg width="197" height="61" fill="none" xmlns="http://www.w3.org/2000/svg"><path d="M56.221 21.77c-.136.696-.786 2.262-1.936 2.973l-.125.078c-.433.251-2.532 1.156-4.387.688-.39-.102-.93-.41-1.327-.16a.826.826 0 0 0-.334.541c-.087.624.668 1.188.964 1.407 1.243.93 4.51 1.23 7.259-.289 2.636-1.444 4.9-4.602 4.645-8.379-.252-3.952-3.153-7.09-6.408-7.966-1.492-.401-4.004-.681-7.23 1.055-7.418 3.996-7.371 16.758-7.177 20.653a1.045 1.045 0 0 1-.653 1.026 1.058 1.058 0 0 1-.424.077h-1.53a.907.907 0 0 1-.91-.601.895.895 0 0 1-.045-.384c0-.895-.018-1.803-.02-2.808-.004-10.549-3.636-18.639-7.765-23.057C24.742 2.262 21.406.641 14.774.641c-5.412 0-9.99 3.192-11.776 5.374-.366.448-4.205 5.47-2.614 11.846a13.564 13.564 0 0 0 3.708 6.411c5.247 5.065 12.593 3.817 14.442 3.418 2.878-.624 6.783-2.311 6.678-3.614a.892.892 0 0 0-.322-.596c-.531-.398-1.362.191-2.904.506-.555.103-1.117.164-1.68.182a8.407 8.407 0 0 1-4.066-.939c-1.51-.818-2.691-2.6-2.874-4.525-.253-2.666 1.484-4.94 3.313-5.98 3.075-1.751 7.023-.168 8.577.577 0 0 8.873 4.502 9 17.77 0 .45 0 .907-.017 1.378a2.102 2.102 0 0 1-.418 1.216.664.664 0 0 1-.064.07c-.244.248-.996.684-2.596.927a33.312 33.312 0 0 0-3.74.65l-.115.029a32.278 32.278 0 0 0-3.548 1.127c-.392.15-.779.312-1.162.473a24.547 24.547 0 0 0-6.254 4.11c-.212.19-.366.331-.58.536-1.235 1.237-3.598 3.976-4.008 7.952-.121 1.196-.412 4.218 1.452 6.989 2.99 4.412 8.763 4.244 9.23 4.224.787-.035 4.393-.2 7.076-2.89 0 0 4.965-4.171 6.937-20.62.02-.29.143-.564.345-.774.253-.234.552-.246 1.098-.29 1.742-.123 2.032-.236 2.352.038.182.178.3.41.336.662.68 3.227 1.014 5.151 1.49 6.238.53 1.27 1.257 2.45 2.154 3.496.45.48 3.592 3.814 7.802 3.08.816-.145 3.429-.745 4.82-3.083 1.512-2.543.766-5.779-.526-7.711-2.43-3.65-7.932-4.43-11.547-4.944-.171-.023-.331-.043-.508-.084a2.29 2.29 0 0 1-.444-.147 2.056 2.056 0 0 1-.442-.29 1.374 1.374 0 0 1-.461-.81v-.03a24.48 24.48 0 0 1-.227-4.94c.102-1.93.27-4.586 1.728-7.466.685-1.356 1.254-2.485 2.546-3.442.383-.289 3.357-2.4 6.321-1.04a5.596 5.596 0 0 1 2.866 3.303c.224.905.248 1.847.07 2.762zm-23.07 20.104a27.064 27.064 0 0 1-2.904 6.665c-.926 1.508-2.05 2.97-3.61 3.82-1.558.85-3.626.97-5.048-.09a3.947 3.947 0 0 1-1.394-2.022 5.89 5.89 0 0 1 .125-3.378c.95-3.152 3.435-5.706 6.164-7.449a20.05 20.05 0 0 1 6.678-2.724c.29-.064.677-.09.848.162a.786.786 0 0 1 .064.555 31.213 31.213 0 0 1-.924 4.46zm10.147-6.016c.163-.15.447-.084.552-.06 7.148 1.635 8.31 5.217 8.31 5.217a3.066 3.066 0 0 1-.694 3.418c-.982.934-2.637 1.318-3.836.616 0 0-3.519-1.532-4.437-8.694a.592.592 0 0 1 .105-.497z" fill="#65BFC0"/><path d="M93.364 40.372c-.348.659-1.124 1.492-2.837 1.844a9.34 9.34 0 0 1-1.847.169c-4.509 0-4.413-3.327-4.413-3.327l-.044-2.353c0-.951-.034-1.819-.034-2.577v-3.419c0-1.77-.244-2.978-.738-3.636-.494-.659-1.3-.982-2.427-.982a6.415 6.415 0 0 0-2.773.638 9.525 9.525 0 0 0-1.383.83c-.378.268-.685.62-.897 1.03-.213.407-.323.86-.322 1.318v4.238c0 .799 0 1.732.023 2.803.023 1.07.026 2.093.044 3.075v.014a.488.488 0 0 0 .114.304.5.5 0 0 0 .28.169l1.743.337a.602.602 0 0 1 .345.202.588.588 0 0 1 .14.371v.481a.484.484 0 0 1-.146.342.498.498 0 0 1-.348.142h-8.377a.497.497 0 0 1-.348-.142.483.483 0 0 1-.146-.342v-.418c0-.154.056-.304.157-.422a.67.67 0 0 1 .395-.225l1.925-.35a.495.495 0 0 0 .288-.162.483.483 0 0 0 .118-.307c0-.982.03-2.004.044-3.075.015-1.07.023-2.004.023-2.803V17.99a1.156 1.156 0 0 0-.3-.766 1.187 1.187 0 0 0-.74-.38l-1.617-.2a.584.584 0 0 1-.366-.19.569.569 0 0 1-.145-.383v-.364c0-.157.053-.31.149-.435a.73.73 0 0 1 .386-.258l5.557-1.537a.591.591 0 0 1 .453.054l.079.043a.594.594 0 0 1 .29.533l-.162 5.2v6.536a.377.377 0 0 0 .23.362.392.392 0 0 0 .426-.076 12.052 12.052 0 0 1 2.442-1.77 8.44 8.44 0 0 1 4.1-1.145c1.701 0 2.987.563 3.856 1.687.869 1.124 1.303 2.956 1.3 5.494v6.319c0 .544.021.988.027 1.271.005.432.148.85.41 1.197.333.42.928.83 1.991.785 1.54-.063 2.26-.89 2.555-1.38a.242.242 0 0 1 .212-.122.247.247 0 0 1 .212.122 1.801 1.801 0 0 1 .096 1.786z" fill="#ECECEC"/><path d="M108.043 27.514a8.564 8.564 0 0 0-3.351-3.238 9.16 9.16 0 0 0-4.356-1.1 9.16 9.16 0 0 0-4.355 1.1 8.56 8.56 0 0 0-3.351 3.238c-.856 1.426-1.285 3.192-1.286 5.297-.002 2.105.42 3.85 1.266 5.237a8.173 8.173 0 0 0 3.327 3.175 9.544 9.544 0 0 0 4.425 1.062 9.332 9.332 0 0 0 4.356-1.062 8.376 8.376 0 0 0 3.328-3.175c.855-1.413 1.284-3.159 1.286-5.237.002-2.079-.428-3.844-1.289-5.297zm-4.005 11.135c-.39.61-.935 1.11-1.582 1.449a4.251 4.251 0 0 1-2.102.483c-3.341 0-5.013-2.59-5.015-7.77 0-2.575.429-4.534 1.286-5.878a4.356 4.356 0 0 1 1.59-1.479 4.43 4.43 0 0 1 4.234 0 4.349 4.349 0 0 1 1.589 1.479c.885 1.336 1.328 3.295 1.33 5.878-.004 2.607-.447 4.553-1.33 5.838zM124.595 36.757a4.917 4.917 0 0 1-.888 2.817 6.395 6.395 0 0 1-3.418 2.29c-1.357.36-2.765.49-4.167.39-1.573-.072-3.295-.375-4.294-1.578-.627-.758-.871-1.772-.897-2.75a1.694 1.694 0 0 1 .09-.731 1.1 1.1 0 0 1 .437-.487c.192-.115.415-.17.64-.157.224.018.441.09.63.212.189.12.345.286.453.48.328.573.241 1.3.499 1.91.161.327.394.613.682.838.288.225.624.383.982.462a6.422 6.422 0 0 0 2.184.092c1.036-.083 2.14-.244 2.904-.934a2.57 2.57 0 0 0 .336-3.324 4.057 4.057 0 0 0-1.434-1.108c-1.315-.678-2.767-1.053-4.138-1.614-1.37-.562-2.715-1.366-3.464-2.629a4.587 4.587 0 0 1-.526-3.238c.162-.78.503-1.514.996-2.145a5.496 5.496 0 0 1 1.775-1.471 7.618 7.618 0 0 1 2.18-.759 10.09 10.09 0 0 1 2.349-.163c.291 0 .564.034.842.066a5.787 5.787 0 0 1 2.501.767c.436.286.805.66 1.082 1.1.277.438.456.93.523 1.442a2.12 2.12 0 0 1-.363 1.59 1.213 1.213 0 0 1-.694.439 1.229 1.229 0 0 1-.819-.102 1.601 1.601 0 0 1-.615-1.11 4.574 4.574 0 0 0-.29-1.269c-.459-.907-1.656-1.145-2.686-1.145-.944 0-1.952.14-2.675.741a2.46 2.46 0 0 0-.467 3.15c.456.684 1.228 1.094 1.992 1.411 1.254.524 2.572.885 3.815 1.432 1.243.547 2.436 1.306 3.194 2.428.509.794.77 1.718.749 2.657zM143.847 27.694a7.647 7.647 0 0 0-2.686-3.284 6.638 6.638 0 0 0-3.774-1.128 7.278 7.278 0 0 0-3.485.896c-.666.367-1.28.82-1.826 1.345a.385.385 0 0 1-.654-.24l-.095-1.2a.818.818 0 0 0-.395-.635.637.637 0 0 0-.558-.04l-4.837 2.004a.815.815 0 0 0-.508.756c0 .229.085.45.24.62.155.17.368.28.599.304l.755.084c.392.046.755.23 1.021.518.267.288.419.66.431 1.05 0 .264 0 .513.02.762 0 .667.02 1.532.02 2.577V42.99c0 1.335 0 2.68-.02 4.029 0 .33 0 .661-.015.993-.003.326-.12.64-.332.89-.212.25-.505.419-.829.479l-1.26.22a.757.757 0 0 0-.446.256.737.737 0 0 0-.176.477.78.78 0 0 0 .234.557c.15.148.353.23.565.23h8.476a.85.85 0 0 0 .492-.147.83.83 0 0 0 .312-.402.736.736 0 0 0-.284-.85.763.763 0 0 0-.297-.123l-1.678-.287a1.432 1.432 0 0 1-.847-.467 1.394 1.394 0 0 1-.349-.893c-.035-1.706-.052-3.38-.05-5.019v-1.703a.472.472 0 0 1 .075-.25.472.472 0 0 1 .463-.208.47.47 0 0 1 .24.108c.37.334.784.616 1.232.84.99.492 2.084.75 3.194.752a7.385 7.385 0 0 0 4.065-1.168 8.183 8.183 0 0 0 2.904-3.341 11.38 11.38 0 0 0 1.068-5.114c0-2-.335-3.719-1.005-5.156zm-4.355 10.851a4.595 4.595 0 0 1-1.61 1.27 4.655 4.655 0 0 1-2.011.448 5.254 5.254 0 0 1-2.814-.86h-.014a2.815 2.815 0 0 1-.968-1.013 2.771 2.771 0 0 1-.351-1.348V29.13c.001-.503.132-.997.381-1.437.248-.44.606-.809 1.039-1.074.16-.095.311-.183.462-.26a5.742 5.742 0 0 1 2.648-.776c1.382 0 2.518.647 3.406 1.94.889 1.295 1.334 3.166 1.336 5.615-.002 2.451-.504 4.253-1.507 5.406h.003zM155.539 41.733a.683.683 0 0 1-.218.466.703.703 0 0 1-.485.187h-8.575a.697.697 0 0 1-.49-.2.68.68 0 0 1-.204-.484c0-.215.077-.422.217-.587a.927.927 0 0 1 .547-.312l1.504-.264a.963.963 0 0 0 .564-.316.942.942 0 0 0 .232-.597c.04-1.821.06-3.65.058-5.486V18.261c0-.36-.133-.707-.375-.977a1.498 1.498 0 0 0-.938-.486l-1.071-.117a.879.879 0 0 1-.606-.35.86.86 0 0 1-.146-.678.905.905 0 0 1 .659-.661l5.43-1.472a.827.827 0 0 1 .662.095.508.508 0 0 1 .247.443l-.125 5.262v14.826c0 1.838.019 3.67.058 5.494.006.22.089.43.234.597a.972.972 0 0 0 .565.317l1.501.257c.213.04.407.15.549.312a.899.899 0 0 1 .206.61zM174.212 39.782a.63.63 0 0 0-.842 0c-.28.246-.641.385-1.017.389a1.209 1.209 0 0 1-1.028-.478c-.24-.319-.36-.865-.36-1.638v-8.137c0-2.458-.491-4.194-1.475-5.208-.983-1.014-2.511-1.518-4.585-1.515a11.668 11.668 0 0 0-2.613.287l-.253.063c-.087.02-.171.045-.258.068a.406.406 0 0 1-.052.018c-.093.025-.183.057-.273.085-.14.05-.291.098-.413.152l-.252.106c-.442.206-.868.442-1.275.707-1.161.802-2.033 1.644-2.25 3.107v.183a2.622 2.622 0 0 0 .459 1.478c.218.32.504.588.839.787a2.701 2.701 0 0 0 3.048-.199 2.624 2.624 0 0 0 .529-3.575 3.468 3.468 0 0 0-.447-.41l-.05-.03a.524.524 0 0 1-.142-.155c-.075-.164.073-.312.317-.436a5.423 5.423 0 0 1 1.213-.375l.119-.025c.229-.048.461-.073.694-.075h.032c1.293 0 2.213.312 2.759.936.549.625.819 1.847.819 3.671v.335a.85.85 0 0 1-.182.515.87.87 0 0 1-.46.304c-.215.054-.436.111-.662.175a49.727 49.727 0 0 0-2.904.873 19.255 19.255 0 0 0-4.065 1.824c-.939.61-1.583 1.24-1.934 1.886a4.352 4.352 0 0 0-.528 2.096c0 1.605.498 2.796 1.495 3.57a5.763 5.763 0 0 0 3.641 1.163 5.67 5.67 0 0 0 3.096-.79c.69-.459 1.339-.975 1.939-1.544a.564.564 0 0 1 .898.184c.163.397.399.76.697 1.073.339.346.749.617 1.202.796.454.178.941.26 1.428.238a4.127 4.127 0 0 0 1.957-.455 3.63 3.63 0 0 0 1.243-1.16.659.659 0 0 0-.104-.864zm-6.783-3.468c0 .49-.121.971-.353 1.404a3.01 3.01 0 0 1-.98 1.076c-.459.317-.953.58-1.472.787-.407.14-.836.21-1.266.206a3.382 3.382 0 0 1-2.126-.664c-.581-.44-.871-1.162-.871-2.156.023-.705.248-1.39.65-1.973.436-.678 1.467-1.317 3.096-1.93.557-.22 1.338-.483 2.323-.787.067-.02.13-.037.191-.06a.624.624 0 0 1 .545.089c.077.055.14.128.184.212a.61.61 0 0 1 .067.272l.012 3.524zM196.875 42.117a1.207 1.207 0 0 1-.926.264l-7.355.017a1 1 0 0 1-.706-.263c-.493-.487 0-1.16.581-1.34.491-.158 1.034-.098 1.53-.244a.725.725 0 0 0 .395-.234.899.899 0 0 0 .122-.522c.082-3.338.16-6.68 0-10.02-.046-1.086-.18-2.291-1.016-2.998-.836-.707-1.989-.653-3.032-.476-1.344.232-2.758.728-3.51 1.85-.485.722-.633 1.61-.703 2.471-.186 2.227.067 4.472-.017 6.706l.043 2.112c-.012.22.026.439.111.642.194.375.665.512 1.086.572.421.06.885.092 1.205.373a.861.861 0 0 1 .29.612v.017a.714.714 0 0 1-.308.573c-.229.12-.488.17-.746.146h-7.349a1.424 1.424 0 0 1-.529-.069.734.734 0 0 1-.366-.948 1.04 1.04 0 0 1 .561-.506c.243-.09.497-.15.755-.18l.946-.144a.762.762 0 0 0 .453-.177.73.73 0 0 0 .14-.518c0-.656.017-1.314.026-1.973v-.495c0-.038 0-.043.032-.043h-.032v.043c0 .45-.02.899-.029 1.348.017-2.811.034-5.624.049-8.437a5.732 5.732 0 0 0-.148-1.641 1.933 1.933 0 0 0-1.002-1.26 4.665 4.665 0 0 0-1.054-.235 2.108 2.108 0 0 1-.418-.117 1.214 1.214 0 0 1-.369-.215.74.74 0 0 1-.238-.363.944.944 0 0 1 0-.43c.017-.1.05-.197.099-.286a.585.585 0 0 1 .168-.169c.082-.052.169-.096.259-.132l.412-.169.523-.217.525-.218.526-.215.526-.217.525-.218.523-.215.525-.217.526-.218h.023c.264-.149.577-.19.871-.114.363.157.459.618.465 1.01.006.393 0 .836.29 1.108a.958.958 0 0 0 .99.124 3.57 3.57 0 0 0 .872-.573 8.75 8.75 0 0 1 4.579-1.778 5.375 5.375 0 0 1 3.194.601c1.1.659 1.797 1.838 2.128 3.064.331 1.225.346 2.51.354 3.782l.058 8.79c-.032.283.043.568.212.799.18.152.406.241.642.252.468.065.964.08 1.365.326a.99.99 0 0 1 .462.73.577.577 0 0 1-.114.472z" fill="#ECECEC"/></svg>