<svg width="58" height="57" viewBox="0 0 58 57" fill="none" xmlns="http://www.w3.org/2000/svg">
<path d="M52.1382 21.4112L52.1246 21.4303C51.7039 21.9464 51.1956 22.3844 50.6231 22.7243C50.2163 22.9618 48.5374 23.9501 46.8011 23.4969C46.4353 23.4013 45.9275 23.1092 45.5535 23.3467C45.47 23.4069 45.3993 23.4829 45.3454 23.5706C45.2915 23.6582 45.2555 23.7556 45.2396 23.8573C45.1577 24.4469 45.8675 24.9793 46.1459 25.1868C47.3143 26.0658 50.3856 26.3497 52.9708 24.9138C55.4497 23.5488 57.579 20.5649 57.3388 16.9968C57.1013 13.2622 54.3741 10.2975 51.3138 9.47028C49.9105 9.09082 47.5491 8.82601 44.5161 10.4667C37.541 14.2423 37.5847 26.3006 37.7676 29.9806C37.7748 30.1169 37.7537 30.2532 37.7058 30.381C37.6578 30.5087 37.584 30.6252 37.4889 30.7231C37.3938 30.8211 37.2795 30.8983 37.1532 30.9499C37.0269 31.0016 36.8912 31.0266 36.7548 31.0234C36.3016 31.0234 35.8348 31.0234 35.3161 31.0234C35.1835 31.0267 35.0517 31.0034 34.9283 30.955C34.8049 30.9065 34.6924 30.8338 34.5975 30.7412C34.5026 30.6486 34.4272 30.538 34.3757 30.4158C34.3243 30.2936 34.2978 30.1623 34.2978 30.0297C34.2978 29.1834 34.2814 28.3262 34.2787 27.3762C34.2651 17.3954 30.9782 9.82791 27.0961 5.65378C23.2633 1.53152 20.1265 0 13.8912 0C8.80257 0 4.4974 3.01662 2.81847 5.07775C2.47449 5.5009 -1.13454 10.2456 0.361489 16.2707C0.940588 18.5736 2.14743 20.6707 3.84767 22.3285C8.78073 27.1141 15.6876 25.9348 17.4266 25.558C20.132 24.9684 23.8038 23.374 23.7055 22.1428C23.6821 21.9229 23.5733 21.7209 23.4025 21.5805C22.9029 21.2037 22.1221 21.7606 20.6725 22.0582C20.1507 22.1552 19.6223 22.2127 19.0919 22.2302C17.7634 22.2617 16.4486 21.9565 15.2699 21.3429C13.8503 20.5704 12.7392 18.886 12.5672 17.0678C12.3297 14.548 13.9622 12.3995 15.6821 11.4168C18.5732 9.76239 22.2859 11.2584 23.7465 11.9628C23.7465 11.9628 32.0893 16.2161 32.2094 28.7521C32.2094 29.178 32.2094 29.6093 32.193 30.0543C32.1848 30.469 32.0473 30.8708 31.7999 31.2036C31.7814 31.2269 31.7614 31.2488 31.7398 31.2691C31.5105 31.5039 30.8034 31.9161 29.2992 32.1455C28.1164 32.2829 26.9424 32.488 25.783 32.7597L25.6738 32.787C24.5422 33.0772 23.4283 33.4327 22.3378 33.8517C21.9692 33.9937 21.6062 34.1465 21.2458 34.2994C19.0985 35.2847 17.1152 36.594 15.3654 38.1814C15.1661 38.3616 15.0215 38.4954 14.8194 38.6892C13.6592 39.8576 11.437 42.4457 11.0521 46.2021C10.9374 47.3323 10.6644 50.1879 12.4171 52.8059C15.2289 56.9746 20.6561 56.8162 21.0957 56.7971C21.8355 56.7644 25.2261 56.6088 27.7486 54.0672C27.7486 54.0672 32.4169 50.1251 34.2705 34.5833C34.29 34.309 34.4049 34.0501 34.5954 33.8517C34.8329 33.6306 35.1141 33.6196 35.6273 33.5787C37.2653 33.4613 37.5383 33.3548 37.8386 33.6142C38.01 33.7821 38.1213 34.0018 38.1553 34.2393C38.7941 37.2887 39.108 39.1069 39.5557 40.1334C40.054 41.3336 40.7375 42.4483 41.5814 43.4366C42.0045 43.8898 44.9584 47.0402 48.9168 46.3468C49.684 46.2103 52.1409 45.6425 53.4486 43.4339C54.8709 41.0315 54.1693 37.974 52.9545 36.1476C50.6695 32.6996 45.4962 31.9626 42.0974 31.4766C41.9363 31.4548 41.7861 31.4357 41.6196 31.3974C41.476 31.3655 41.336 31.3188 41.2019 31.2582C41.0524 31.1854 40.913 31.0937 40.787 30.9852C40.5573 30.7879 40.4038 30.5166 40.3529 30.2181C40.3529 30.2181 40.3529 30.1935 40.3529 30.1908C40.1253 28.6458 40.054 27.0818 40.14 25.5225C40.2355 23.6989 40.3939 21.1901 41.7643 18.4683C42.4086 17.1879 42.9436 16.1205 44.1585 15.2169C44.5188 14.9439 47.3143 12.9483 50.1016 14.2341C50.7367 14.5475 51.3023 14.9852 51.7652 15.5212C52.228 16.0572 52.5786 16.6805 52.7961 17.3545C52.9749 18.0392 53.0087 18.7537 52.8954 19.4523C52.7821 20.1508 52.5242 20.8181 52.1382 21.4112ZM31.1638 38.9595C30.5402 41.1717 29.622 43.29 28.4338 45.2575C27.5684 46.6826 26.5119 48.0639 25.0459 48.8666C23.5799 49.6692 21.6362 49.7838 20.2985 48.7819C19.6699 48.3002 19.2109 47.6309 18.9881 46.8709C18.7161 45.8184 18.7569 44.7093 19.1055 43.6796C19.9982 40.7012 22.3351 38.2879 24.9012 36.6417C26.8207 35.4098 28.9484 34.5375 31.1802 34.0674C31.4532 34.0073 31.8163 33.9827 31.9773 34.2202C32.0606 34.3818 32.082 34.5682 32.0374 34.7444C31.8506 36.1686 31.5605 37.5774 31.1693 38.9595H31.1638ZM40.7051 33.2757C40.8579 33.1337 41.1255 33.1965 41.2238 33.2183C47.945 34.7635 49.037 38.1487 49.037 38.1487C49.2835 38.7087 49.345 39.3327 49.2128 39.93C49.0805 40.5274 48.7612 41.0671 48.3013 41.4706C47.8415 41.8742 47.2649 42.1207 46.6554 42.1743C46.0459 42.2279 45.4352 42.0858 44.912 41.7686C44.912 41.7686 41.4749 40.5238 40.6122 33.7561C40.5913 33.6738 40.5892 33.5878 40.6063 33.5046C40.6233 33.4214 40.6589 33.3431 40.7105 33.2757H40.7051Z" fill="url(#paint0_linear_15887_45620)"/>
<defs>
<linearGradient id="paint0_linear_15887_45620" x1="-0.00432805" y1="28.3999" x2="57.3716" y2="28.3999" gradientUnits="userSpaceOnUse">
<stop stop-color="#65BFC0"/>
<stop offset="0.15" stop-color="#64BCBF"/>
<stop offset="0.25" stop-color="#5FB3BE"/>
<stop offset="0.33" stop-color="#57A4BB"/>
<stop offset="0.41" stop-color="#4B8FB7"/>
<stop offset="0.48" stop-color="#3D73B2"/>
<stop offset="0.51" stop-color="#3768B0"/>
<stop offset="0.64" stop-color="#3768B0"/>
<stop offset="0.71" stop-color="#3768B0"/>
<stop offset="1" stop-color="#65BFC0"/>
</linearGradient>
</defs>
</svg>
