<svg width="184" height="57" fill="none" xmlns="http://www.w3.org/2000/svg"><path d="m52.138 21.411-.013.02c-.421.515-.93.953-1.502 1.293-.407.238-2.086 1.226-3.822.773-.366-.096-.873-.388-1.248-.15a.778.778 0 0 0-.313.51c-.082.59.627 1.122.906 1.33 1.168.879 4.24 1.163 6.825-.273 2.479-1.365 4.608-4.35 4.368-7.917-.238-3.735-2.965-6.7-6.025-7.527-1.404-.38-3.765-.644-6.798.997-6.975 3.775-6.931 15.834-6.748 19.514a.992.992 0 0 1-1.013 1.042h-1.439a.994.994 0 0 1-1.018-.993c0-.847-.017-1.704-.02-2.654-.013-9.98-3.3-17.548-7.182-21.722C23.263 1.532 20.126 0 13.891 0 8.803 0 4.497 3.017 2.818 5.078 2.474 5.5-1.135 10.246.361 16.27c.58 2.303 1.786 4.4 3.487 6.057 4.933 4.786 11.84 3.607 13.579 3.23 2.705-.59 6.377-2.184 6.279-3.415a.843.843 0 0 0-.303-.563c-.5-.376-1.28.18-2.73.478-.522.097-1.05.155-1.581.172a7.873 7.873 0 0 1-3.822-.887c-1.42-.773-2.53-2.457-2.703-4.275-.237-2.52 1.395-4.669 3.115-5.651 2.891-1.655 6.604-.159 8.065.546 0 0 8.342 4.253 8.462 16.79 0 .425 0 .856-.016 1.301a1.993 1.993 0 0 1-.393 1.15.612.612 0 0 1-.06.065c-.23.235-.937.647-2.44.877a31.18 31.18 0 0 0-3.517.614l-.11.027c-1.13.29-2.245.646-3.335 1.065-.369.142-.732.295-1.092.447a23.074 23.074 0 0 0-5.88 3.882c-.2.18-.345.314-.547.508-1.16 1.169-3.382 3.757-3.767 7.513-.115 1.13-.388 3.986 1.365 6.604 2.812 4.169 8.24 4.01 8.679 3.991.74-.033 4.13-.188 6.653-2.73 0 0 4.668-3.942 6.521-19.484.02-.274.135-.533.325-.731.238-.221.52-.232 1.032-.273 1.638-.118 1.911-.224 2.212.035.171.168.282.388.316.625.64 3.05.953 4.868 1.4 5.894a12.422 12.422 0 0 0 2.026 3.304c.423.453 3.377 3.603 7.336 2.91.767-.137 3.224-.705 4.532-2.913 1.422-2.402.72-5.46-.494-7.286-2.285-3.448-7.459-4.185-10.858-4.671-.16-.022-.31-.041-.477-.08a2.143 2.143 0 0 1-.418-.139 1.932 1.932 0 0 1-.415-.273 1.299 1.299 0 0 1-.434-.767v-.027a23.247 23.247 0 0 1-.213-4.668c.096-1.824.254-4.333 1.624-7.055.645-1.28 1.18-2.348 2.394-3.251.36-.273 3.156-2.269 5.944-.983a5.293 5.293 0 0 1 2.694 3.12 5.082 5.082 0 0 1-.658 4.057zM31.164 38.96a25.64 25.64 0 0 1-2.73 6.298c-.866 1.426-1.922 2.807-3.388 3.61-1.466.802-3.41.917-4.747-.085a3.73 3.73 0 0 1-1.31-1.911 5.59 5.59 0 0 1 .116-3.191c.893-2.979 3.23-5.392 5.796-7.038a18.8 18.8 0 0 1 6.28-2.575c.272-.06.635-.084.796.153a.745.745 0 0 1 .06.524 29.621 29.621 0 0 1-.868 4.215h-.005zm9.541-5.683c.153-.142.42-.08.519-.058 6.721 1.545 7.813 4.93 7.813 4.93a2.878 2.878 0 0 1-4.125 3.62s-3.437-1.244-4.3-8.012a.562.562 0 0 1 .099-.48h-.006z" fill="url(#a)"/><path d="M86.449 40.608c-.328.628-1.057 1.423-2.667 1.759a8.661 8.661 0 0 1-1.737.16c-4.24 0-4.15-3.172-4.15-3.172l-.04-2.244c0-.906-.033-1.733-.033-2.457v-3.26c0-1.686-.23-2.838-.693-3.466-.464-.628-1.223-.937-2.283-.937a5.963 5.963 0 0 0-2.607.61c-.455.226-.89.49-1.3.79a2.752 2.752 0 0 0-1.146 2.24v4.04c0 .761 0 1.651.022 2.672.022 1.021.025 1.996.041 2.932v.014a.47.47 0 0 0 .371.45l1.638.323a.565.565 0 0 1 .456.546v.458a.464.464 0 0 1-.464.462h-7.876a.464.464 0 0 1-.464-.462v-.398a.628.628 0 0 1 .519-.617l1.81-.333a.464.464 0 0 0 .382-.448c0-.937.027-1.911.04-2.932.014-1.021.023-1.911.023-2.673v-15.4a1.111 1.111 0 0 0-.978-1.091l-1.52-.192a.546.546 0 0 1-.48-.546v-.346a.685.685 0 0 1 .502-.66l5.225-1.467a.545.545 0 0 1 .426.052l.073.04a.562.562 0 0 1 .273.509v11.19c0 .322.23.478.464.273a11.334 11.334 0 0 1 2.296-1.687 7.851 7.851 0 0 1 3.855-1.092c1.6 0 2.808.536 3.625 1.608.818 1.072 1.225 2.818 1.223 5.238v6.026c0 .518.02.941.025 1.212.005.411.14.81.385 1.14.314.402.874.792 1.873.749 1.447-.06 2.124-.85 2.402-1.316a.23.23 0 0 1 .399 0 1.734 1.734 0 0 1 .09 1.703z" fill="#3768B0"/><path d="M100.696 28.49a8.33 8.33 0 0 0-3.243-3.178 8.77 8.77 0 0 0-8.436 0 8.337 8.337 0 0 0-3.24 3.177c-.83 1.398-1.245 3.127-1.245 5.187 0 2.06.409 3.772 1.226 5.135a7.95 7.95 0 0 0 3.232 3.126 9.13 9.13 0 0 0 4.278 1.04 8.917 8.917 0 0 0 4.218-1.04 8.119 8.119 0 0 0 3.218-3.118c.83-1.383 1.245-3.095 1.245-5.135 0-2.04-.417-3.772-1.253-5.195zm-3.87 10.92a4.074 4.074 0 0 1-3.566 1.894c-3.233 0-4.85-2.541-4.852-7.622 0-2.525.415-4.447 1.245-5.766a4.241 4.241 0 0 1 7.172 0c.857 1.316 1.286 3.238 1.286 5.766 0 2.557-.429 4.467-1.286 5.73v-.003zM116.034 37.787a4.833 4.833 0 0 1-.952 2.73 6.164 6.164 0 0 1-3.38 2.127c-1.324.308-2.69.39-4.041.243-1.517-.126-3.172-.48-4.094-1.693-.585-.767-.776-1.766-.776-2.73a1.75 1.75 0 0 1 .112-.712 1.09 1.09 0 0 1 1.065-.595 1.32 1.32 0 0 1 1.021.715c.297.576.188 1.283.418 1.89a2.368 2.368 0 0 0 1.561 1.332c.689.175 1.403.229 2.11.16 1.002-.046 2.075-.166 2.84-.819a2.54 2.54 0 0 0 .439-3.246 3.913 3.913 0 0 0-1.349-1.135c-1.247-.71-2.637-1.125-3.942-1.723-1.305-.598-2.577-1.43-3.259-2.692a4.583 4.583 0 0 1-.396-3.19 5.1 5.1 0 0 1 1.032-2.057 5.459 5.459 0 0 1 1.766-1.38 7.31 7.31 0 0 1 2.132-.67 9.757 9.757 0 0 1 2.274-.082c.273.022.546.052.819.093.851.091 1.67.378 2.392.838a3.55 3.55 0 0 1 1.463 2.547 2.077 2.077 0 0 1-.407 1.543 1.164 1.164 0 0 1-1.471.273 1.56 1.56 0 0 1-.546-1.111 4.485 4.485 0 0 0-.246-1.25c-.412-.907-1.561-1.177-2.555-1.21-.915-.027-1.892.071-2.613.636a2.437 2.437 0 0 0-.559 3.074c.417.688 1.152 1.114 1.878 1.452 1.193.546 2.457.953 3.636 1.53 1.18.575 2.312 1.364 3.003 2.483.462.796.68 1.71.625 2.63zM134.338 28.53a7.446 7.446 0 0 0-2.585-3.2 6.335 6.335 0 0 0-3.628-1.091 6.936 6.936 0 0 0-3.366.876c-.64.356-1.23.793-1.756 1.302a.37.37 0 0 1-.556-.039.376.376 0 0 1-.074-.193l-.071-1.18a.797.797 0 0 0-.383-.622.602.602 0 0 0-.535-.038l-4.641 1.96a.8.8 0 0 0-.491.737.901.901 0 0 0 .819.904l.726.082a1.583 1.583 0 0 1 1.403 1.531c0 .257.014.5.019.743 0 .652.02 1.496.02 2.528v10.647c0 1.305-.007 2.616-.02 3.934v.969a1.36 1.36 0 0 1-1.135 1.335l-1.212.215a.73.73 0 0 0-.598.716.771.771 0 0 0 .77.77h8.16a.821.821 0 0 0 .772-.546.736.736 0 0 0-.134-.705.71.71 0 0 0-.434-.245l-1.619-.273a1.368 1.368 0 0 1-1.152-1.33 240.134 240.134 0 0 1-.046-4.914v-1.635a.445.445 0 0 1 .071-.245.444.444 0 0 1 .445-.204.45.45 0 0 1 .232.108c.357.325.756.601 1.188.819a6.88 6.88 0 0 0 3.079.734 7.033 7.033 0 0 0 3.912-1.141 7.945 7.945 0 0 0 2.741-3.265 11.24 11.24 0 0 0 1.04-4.996c0-1.966-.32-3.648-.961-5.048zm-4.196 10.595c-.965 1.13-2.126 1.695-3.483 1.693a4.995 4.995 0 0 1-2.711-.838 2.73 2.73 0 0 1-1.27-2.307v-7.74a2.903 2.903 0 0 1 1.365-2.457c.153-.092.301-.18.445-.256a5.505 5.505 0 0 1 2.536-.74c1.333 0 2.425.631 3.276 1.895.852 1.263 1.28 3.088 1.284 5.476 0 2.391-.481 4.15-1.442 5.274zM144.903 41.906a.654.654 0 0 1-.661.622h-8.061a.655.655 0 0 1-.653-.652.87.87 0 0 1 .718-.857l1.414-.252a.906.906 0 0 0 .748-.87c.039-1.737.057-3.48.055-5.231v-15.14a1.402 1.402 0 0 0-1.234-1.395l-1.007-.112a.82.82 0 0 1-.707-.98.847.847 0 0 1 .619-.631l5.105-1.403a.768.768 0 0 1 .623.09.489.489 0 0 1 .232.423l-.117 5.018V34.67c0 1.753.018 3.5.054 5.24a.912.912 0 0 0 .751.87l1.411.246a.9.9 0 0 1 .516.297.86.86 0 0 1 .194.582zM162.683 40.52a.603.603 0 0 0-.819 0 1.511 1.511 0 0 1-.986.383 1.167 1.167 0 0 1-.996-.47c-.235-.314-.347-.849-.347-1.61v-7.991c0-2.415-.476-4.12-1.43-5.116-.954-.996-2.433-1.49-4.439-1.485-.85-.006-1.699.085-2.528.273l-.243.06-.251.068-.052.016-.273.085a6.856 6.856 0 0 0-.401.15l-.246.104c-.427.202-.84.433-1.234.693-1.117.787-1.977 1.614-2.184 3.05v.18c0 .137.011.274.036.41a2.59 2.59 0 0 0 3.002 2.15 2.632 2.632 0 0 0 2.154-2.396 2.452 2.452 0 0 0-.819-1.999c-.095-.079-.226-.142-.273-.259-.076-.158.071-.306.306-.426.376-.168.77-.292 1.174-.368l.115-.025c.221-.047.447-.07.674-.071h.03c1.253 0 2.14.306 2.673.917.532.612.791 1.813.791 3.607v.327a.82.82 0 0 1-.619.803l-.642.172c-1.092.3-2.023.587-2.814.857a18.443 18.443 0 0 0-3.932 1.794c-.91.598-1.535 1.216-1.875 1.853a4.345 4.345 0 0 0-.511 2.059c0 1.576.484 2.744 1.45 3.505a5.522 5.522 0 0 0 3.519 1.157 5.44 5.44 0 0 0 3.003-.775c.668-.45 1.296-.958 1.878-1.515a.549.549 0 0 1 .715-.024.551.551 0 0 1 .156.204c.157.389.385.745.672 1.051a3.33 3.33 0 0 0 2.549 1.019 3.935 3.935 0 0 0 1.895-.45 3.531 3.531 0 0 0 1.204-1.137.654.654 0 0 0-.082-.83zm-6.568-3.393a2.928 2.928 0 0 1-1.292 2.432c-.443.312-.922.571-1.425.773a3.614 3.614 0 0 1-1.225.205 3.236 3.236 0 0 1-2.059-.653c-.546-.43-.832-1.14-.832-2.115a3.667 3.667 0 0 1 .627-1.941c.424-.664 1.42-1.294 3.003-1.895a32.012 32.012 0 0 1 2.264-.773c.062-.019.125-.035.185-.057a.59.59 0 0 1 .77.563l-.016 3.461zM165.081 40.909c.297-.055.592-.104.892-.15a.713.713 0 0 0 .429-.17.721.721 0 0 0 .131-.496V39.02l.049-8.084a5.49 5.49 0 0 0-.142-1.57 1.847 1.847 0 0 0-.944-1.206 4.385 4.385 0 0 0-.997-.227 2.043 2.043 0 0 1-.396-.112 1.129 1.129 0 0 1-.346-.205.71.71 0 0 1-.224-.349.846.846 0 0 1 0-.412.853.853 0 0 1 .092-.273.531.531 0 0 1 .159-.161c.077-.05.16-.092.246-.126.128-.057.256-.109.387-.164l.494-.207.497-.208.497-.207.494-.208.497-.207.497-.207.494-.21.497-.208h.022c.248-.143.542-.182.819-.11.344.15.434.593.439.97.006.377 0 .8.273 1.059a.9.9 0 0 0 .937.12 3.45 3.45 0 0 0 .819-.546 8.186 8.186 0 0 1 4.324-1.703 4.99 4.99 0 0 1 3.046.584c1.041.63 1.699 1.76 2.012 2.934.314 1.174.325 2.406.334 3.623l.057 8.422c-.031.27.04.544.199.765a.995.995 0 0 0 .606.242c.442.06.912.074 1.291.312a.957.957 0 0 1 .435.699.543.543 0 0 1-.137.436c-.207.235-.546.252-.871.252l-6.62.016c-.426 0-.939-.05-1.127-.431-.219-.437.204-.953.671-1.092.467-.14.975-.096 1.444-.232a.703.703 0 0 0 .374-.227.849.849 0 0 0 .115-.5c.076-3.196.153-6.399 0-9.593-.044-1.04-.169-2.184-.958-2.874-.789-.691-1.879-.625-2.864-.453-1.272.22-2.604.696-3.317 1.771-.459.69-.598 1.54-.666 2.364-.172 2.138.065 4.286-.016 6.427.016.674.03 1.351.043 2.025-.011.21.024.42.104.615.183.36.628.491 1.026.546.399.054.839.09 1.139.357a.823.823 0 0 1 .273.59v.014a.69.69 0 0 1-.292.546 1.252 1.252 0 0 1-.702.139h-6.934a1.336 1.336 0 0 1-.5-.066.713.713 0 0 1-.346-.906.918.918 0 0 1 .467-.453c.087-.038.179-.068.273-.088.174-.046.341-.073.505-.114z" fill="#3768B0"/><defs><linearGradient id="a" x1="-.004" y1="28.4" x2="57.372" y2="28.4" gradientUnits="userSpaceOnUse"><stop stop-color="#65BFC0"/><stop offset=".15" stop-color="#64BCBF"/><stop offset=".25" stop-color="#5FB3BE"/><stop offset=".33" stop-color="#57A4BB"/><stop offset=".41" stop-color="#4B8FB7"/><stop offset=".48" stop-color="#3D73B2"/><stop offset=".51" stop-color="#3768B0"/><stop offset=".64" stop-color="#3768B0"/><stop offset=".71" stop-color="#3768B0"/><stop offset="1" stop-color="#65BFC0"/></linearGradient></defs></svg>