<svg width="96" height="96" viewBox="0 0 96 96" fill="none" xmlns="http://www.w3.org/2000/svg">
<g clip-path="url(#clip0_184_830)">
<path d="M48 96C74.5097 96 96 74.5097 96 48C96 21.4903 74.5097 0 48 0C21.4903 0 0 21.4903 0 48C0 74.5097 21.4903 96 48 96Z" fill="#F3F9FF"/>
<path d="M67.3158 58.12C68.1639 57.3102 68.8391 56.3353 69.3006 55.2546C69.762 54.174 70 53.0103 70 51.8342C70 50.6582 69.762 49.4944 69.3006 48.4138C68.8391 47.3332 68.1639 46.3583 67.3158 45.5485C65.58 43.8917 63.278 42.968 60.8848 42.968C58.4915 42.968 56.1895 43.8917 54.4537 45.5485L48 52.0385L41.5463 45.5485C39.8105 43.8917 37.5085 42.968 35.1152 42.968C32.722 42.968 30.42 43.8917 28.6841 45.5485C27.8361 46.3583 27.1609 47.3332 26.6994 48.4138C26.238 49.4944 26 50.6582 26 51.8342C26 53.0103 26.238 54.174 26.6994 55.2546C27.1609 56.3353 27.8361 57.3102 28.6841 58.12L48 77L67.3158 58.12ZM48 36.1538C50.3939 36.1538 52.6897 35.1975 54.3824 33.4953C56.0751 31.793 57.0261 29.4843 57.0261 27.0769C57.0261 24.6696 56.0751 22.3608 54.3824 20.6586C52.6897 18.9563 50.3939 18 48 18C45.6061 18 43.3103 18.9563 41.6176 20.6586C39.9249 22.3608 38.9739 24.6696 38.9739 27.0769C38.9739 29.4843 39.9249 31.793 41.6176 33.4953C43.3103 35.1975 45.6061 36.1538 48 36.1538Z" stroke="#F04E30" stroke-width="5" stroke-linecap="round" stroke-linejoin="round"/>
</g>
<defs>
<clipPath id="clip0_184_830">
<rect width="96" height="96" fill="white"/>
</clipPath>
</defs>
</svg>
