<?xml version="1.0" encoding="UTF-8" standalone="no"?>
<svg
   version="1.1"
   width="152.5412"
   height="56.800861"
   id="svg35"
   viewBox="0 0 152.5412 56.800862"
   sodipodi:docname="379410ea34aab688884ffcdb5f4b756f.cdr"
   xmlns:inkscape="http://www.inkscape.org/namespaces/inkscape"
   xmlns:sodipodi="http://sodipodi.sourceforge.net/DTD/sodipodi-0.dtd"
   xmlns="http://www.w3.org/2000/svg"
   xmlns:svg="http://www.w3.org/2000/svg">
  <defs
     id="defs39" />
  <sodipodi:namedview
     id="namedview37"
     pagecolor="#ffffff"
     bordercolor="#666666"
     borderopacity="1.0"
     inkscape:pageshadow="2"
     inkscape:pageopacity="0.0"
     inkscape:pagecheckerboard="0" />
  <g
     id="Layer1000"
     transform="translate(-405.6192,-368.39594)">
    <path
       d="m 405.6192,412.4377 v -6.7785 h 0.8978 v 5.9784 h 3.3382 v 0.8001 z m 5.0351,-5.8206 v -0.9579 h 0.8334 v 0.9579 z m 0,5.8206 v -4.9098 h 0.8334 v 4.9098 z m 1.9148,0 v -6.7785 h 0.8318 v 6.7785 z m 5.1598,-0.6061 c -0.3093,0.2621 -0.6058,0.4466 -0.8901,0.5558 -0.2855,0.1071 -0.5918,0.1608 -0.9185,0.1608 -0.5397,0 -0.9533,-0.1309 -1.2437,-0.3945 -0.2889,-0.2635 -0.4341,-0.6012 -0.4341,-1.01 0,-0.2416 0.0537,-0.4609 0.1644,-0.6598 0.1089,-0.1989 0.2523,-0.3584 0.4292,-0.4783 0.1785,-0.1199 0.3771,-0.2114 0.5997,-0.273 0.1626,-0.0427 0.4088,-0.0852 0.7386,-0.1248 0.6723,-0.0803 1.168,-0.1751 1.4853,-0.2871 0.003,-0.1135 0.005,-0.1863 0.005,-0.2163 0,-0.3392 -0.0788,-0.5792 -0.2368,-0.7165 -0.2114,-0.1892 -0.5286,-0.2825 -0.9468,-0.2825 -0.3914,0 -0.6803,0.068 -0.8682,0.2053 -0.1861,0.1373 -0.3234,0.3801 -0.4134,0.7291 l -0.8129,-0.112 c 0.0744,-0.3474 0.1958,-0.6299 0.3648,-0.8429 0.1687,-0.2147 0.4149,-0.3803 0.7352,-0.4956 0.3206,-0.1151 0.6915,-0.1736 1.1143,-0.1736 0.4198,0 0.7593,0.0506 1.0211,0.1485 0.262,0.0994 0.4548,0.2224 0.5793,0.3722 0.1232,0.1501 0.2083,0.338 0.2589,0.5668 0.0269,0.1419 0.0409,0.3978 0.0409,0.7669 v 1.1097 c 0,0.7749 0.0174,1.2642 0.0537,1.4677 0.0348,0.2053 0.1058,0.4024 0.2099,0.5902 h -0.8694 c -0.0854,-0.172 -0.1422,-0.374 -0.166,-0.6061 z m -0.0692,-1.859 c -0.3032,0.1245 -0.756,0.2288 -1.359,0.3155 -0.3426,0.049 -0.5854,0.1043 -0.726,0.1659 -0.1422,0.0616 -0.2526,0.1513 -0.3283,0.2715 -0.0774,0.1183 -0.1168,0.2492 -0.1168,0.3944 0,0.2227 0.0854,0.4073 0.2526,0.5555 0.1674,0.1468 0.4136,0.2209 0.737,0.2209 0.3203,0 0.6061,-0.0693 0.8553,-0.2099 0.2496,-0.1403 0.4341,-0.3328 0.551,-0.5759 0.0899,-0.1879 0.1342,-0.4658 0.1342,-0.8319 z m 3.3289,2.4651 -1.8685,-4.9098 h 0.8789 l 1.0543,2.9401 c 0.1138,0.3173 0.2178,0.6471 0.3142,0.9896 0.0741,-0.2587 0.1769,-0.5698 0.3093,-0.9343 l 1.0921,-2.9954 h 0.8554 l -1.859,4.9098 z m 6.4084,-0.6061 c -0.3096,0.2621 -0.6061,0.4466 -0.8904,0.5558 -0.2855,0.1071 -0.5918,0.1608 -0.9185,0.1608 -0.5396,0 -0.9533,-0.1309 -1.2434,-0.3945 -0.2889,-0.2635 -0.4341,-0.6012 -0.4341,-1.01 0,-0.2416 0.0534,-0.4609 0.1641,-0.6598 0.1089,-0.1989 0.2526,-0.3584 0.4292,-0.4783 0.1785,-0.1199 0.3771,-0.2114 0.5998,-0.273 0.1626,-0.0427 0.4087,-0.0852 0.7388,-0.1248 0.6721,-0.0803 1.1677,-0.1751 1.485,-0.2871 0.003,-0.1135 0.005,-0.1863 0.005,-0.2163 0,-0.3392 -0.079,-0.5792 -0.237,-0.7165 -0.2114,-0.1892 -0.5287,-0.2825 -0.9469,-0.2825 -0.3914,0 -0.6803,0.068 -0.8682,0.2053 -0.1861,0.1373 -0.3234,0.3801 -0.4133,0.7291 l -0.813,-0.112 c 0.0744,-0.3474 0.1958,-0.6299 0.3648,-0.8429 0.1687,-0.2147 0.4149,-0.3803 0.7355,-0.4956 0.3203,-0.1151 0.6912,-0.1736 1.1141,-0.1736 0.4197,0 0.7592,0.0506 1.0213,0.1485 0.2617,0.0994 0.4545,0.2224 0.579,0.3722 0.1232,0.1501 0.2086,0.338 0.2589,0.5668 0.0269,0.1419 0.041,0.3978 0.041,0.7669 v 1.1097 c 0,0.7749 0.0173,1.2642 0.0536,1.4677 0.0348,0.2053 0.1059,0.4024 0.2099,0.5902 h -0.8694 c -0.0854,-0.172 -0.1422,-0.374 -0.1657,-0.6061 z m -0.0695,-1.859 c -0.3032,0.1245 -0.7559,0.2288 -1.359,0.3155 -0.3426,0.049 -0.5854,0.1043 -0.726,0.1659 -0.1419,0.0616 -0.2523,0.1513 -0.3283,0.2715 -0.0772,0.1183 -0.1165,0.2492 -0.1165,0.3944 0,0.2227 0.0851,0.4073 0.2523,0.5555 0.1674,0.1468 0.4136,0.2209 0.737,0.2209 0.3203,0 0.6061,-0.0693 0.8554,-0.2099 0.2495,-0.1403 0.4341,-0.3328 0.5509,-0.5759 0.09,-0.1879 0.1342,-0.4658 0.1342,-0.8319 z m 3.7819,1.7202 0.1199,0.7355 c -0.2334,0.0488 -0.4432,0.0741 -0.6281,0.0741 -0.3029,0 -0.5366,-0.0473 -0.7037,-0.1436 -0.1657,-0.0946 -0.2825,-0.2209 -0.3505,-0.3771 -0.0678,-0.1547 -0.1025,-0.4829 -0.1025,-0.9817 v -2.8251 h -0.6108 v -0.647 h 0.6108 v -1.2168 l 0.8285,-0.4988 v 1.7156 h 0.8364 v 0.647 h -0.8364 v 2.8709 c 0,0.2382 0.0143,0.3898 0.0427,0.4576 0.0299,0.068 0.0774,0.1217 0.1437,0.1626 0.0662,0.0393 0.1607,0.06 0.284,0.06 0.093,0 0.2147,-0.0112 0.366,-0.0332 z m 0.6509,-5.0757 v -0.9579 h 0.8334 v 0.9579 z m 0,5.8206 v -4.9098 h 0.8334 v 4.9098 z m 4.6974,0 v -6.7785 h 0.8981 v 2.7839 h 3.5227 v -2.7839 h 0.8978 v 6.7785 h -0.8978 v -3.1944 h -3.5227 v 3.1944 z m 6.2282,-2.4556 c 0,-0.9094 0.2526,-1.5832 0.7592,-2.0204 0.4213,-0.363 0.9359,-0.546 1.5436,-0.546 0.6754,0 1.2278,0.2209 1.6555,0.6644 0.4295,0.442 0.6425,1.0527 0.6425,1.8324 0,0.633 -0.0949,1.13 -0.2841,1.4914 -0.1894,0.363 -0.4657,0.644 -0.8272,0.8444 -0.3628,0.2004 -0.7575,0.2999 -1.1867,0.2999 -0.6867,0 -1.2422,-0.2194 -1.6665,-0.6614 -0.4246,-0.4402 -0.6363,-1.0747 -0.6363,-1.9047 z m 0.8556,0 c 0,0.6296 0.1373,1.1 0.4119,1.4124 0.2745,0.3142 0.6201,0.4704 1.0353,0.4704 0.4134,0 0.7575,-0.1578 1.0323,-0.472 0.273,-0.3139 0.4103,-0.794 0.4103,-1.4377 0,-0.6076 -0.1373,-1.0686 -0.4136,-1.381 -0.2761,-0.3126 -0.6187,-0.4688 -1.029,-0.4688 -0.4152,0 -0.7608,0.1562 -1.0353,0.4673 -0.2746,0.3109 -0.4119,0.7812 -0.4119,1.4094 z m 4.2222,0.9895 0.8224,-0.1296 c 0.0457,0.3301 0.1751,0.5826 0.3865,0.7593 0.2101,0.1751 0.5052,0.2636 0.8855,0.2636 0.382,0 0.666,-0.079 0.8508,-0.2337 0.1846,-0.1562 0.2776,-0.3392 0.2776,-0.5476 0,-0.1894 -0.082,-0.3362 -0.2461,-0.4451 -0.1135,-0.0741 -0.3978,-0.1674 -0.8506,-0.2809 -0.6091,-0.1547 -1.0338,-0.2871 -1.269,-0.4008 -0.2351,-0.112 -0.4151,-0.2682 -0.5365,-0.4674 -0.1215,-0.1988 -0.1831,-0.4179 -0.1831,-0.658 0,-0.2193 0.0504,-0.4215 0.1514,-0.6076 0.0994,-0.1879 0.2367,-0.3423 0.4087,-0.4656 0.1294,-0.0946 0.3063,-0.1766 0.5287,-0.2431 0.2242,-0.0662 0.464,-0.0994 0.7199,-0.0994 0.385,0 0.7227,0.0567 1.0149,0.1672 0.2919,0.1107 0.5064,0.2605 0.6455,0.4499 0.1388,0.191 0.2334,0.4435 0.2855,0.7608 l -0.8127,0.112 c -0.0381,-0.2526 -0.1454,-0.45 -0.3221,-0.5919 -0.1766,-0.1421 -0.4277,-0.2129 -0.7513,-0.2129 -0.3819,0 -0.655,0.0629 -0.8175,0.1892 -0.1642,0.1263 -0.2462,0.2748 -0.2462,0.4435 0,0.1089 0.0347,0.2053 0.1025,0.2922 0.068,0.0897 0.1738,0.1623 0.319,0.2224 0.0836,0.0299 0.3283,0.101 0.7355,0.2114 0.5885,0.158 0.9988,0.2858 1.2309,0.3868 0.2337,0.0995 0.4167,0.2462 0.5491,0.4372 0.1327,0.1909 0.1992,0.4276 0.1992,0.7117 0,0.2778 -0.0821,0.5381 -0.2431,0.7845 -0.1626,0.2444 -0.3963,0.4339 -0.701,0.5681 -0.3045,0.1342 -0.6501,0.2004 -1.0351,0.2004 -0.6394,0 -1.1253,-0.1324 -1.46,-0.3978 -0.3346,-0.2651 -0.5475,-0.658 -0.6393,-1.1788 z m 4.9011,3.3474 v -6.7911 h 0.7575 v 0.6376 c 0.1784,-0.2495 0.3804,-0.4372 0.6061,-0.5619 0.2242,-0.1248 0.4972,-0.1879 0.8176,-0.1879 0.4197,0 0.7891,0.1089 1.1094,0.3236 0.3221,0.2163 0.5635,0.5208 0.7261,0.9137 0.1641,0.3932 0.2461,0.8239 0.2461,1.2928 0,0.5018 -0.0899,0.9548 -0.2714,1.3572 -0.18,0.4023 -0.4418,0.7101 -0.7859,0.9249 -0.3441,0.2132 -0.7056,0.3203 -1.0844,0.3203 -0.2776,0 -0.5254,-0.0583 -0.7465,-0.1751 -0.2209,-0.1169 -0.4008,-0.2651 -0.543,-0.4436 v 2.3895 z m 0.7529,-4.3086 c 0,0.6312 0.1278,1.0985 0.3835,1.4015 0.2556,0.3014 0.5665,0.453 0.9295,0.453 0.3694,0 0.6866,-0.1562 0.9502,-0.4704 0.2635,-0.3124 0.396,-0.7969 0.396,-1.4536 0,-0.6266 -0.1294,-1.0936 -0.3866,-1.4063 -0.2571,-0.3108 -0.5649,-0.467 -0.9218,-0.467 -0.3551,0 -0.669,0.1656 -0.942,0.4972 -0.2731,0.3313 -0.4088,0.8142 -0.4088,1.4456 z m 4.35,-3.3933 v -0.9579 h 0.8336 v 0.9579 z m 0,5.8206 v -4.9098 h 0.8336 v 4.9098 z m 3.7505,-0.7449 0.1199,0.7355 c -0.2334,0.0488 -0.4433,0.0741 -0.6281,0.0741 -0.303,0 -0.5366,-0.0473 -0.7038,-0.1436 -0.1657,-0.0946 -0.2825,-0.2209 -0.3505,-0.3771 -0.0677,-0.1547 -0.1025,-0.4829 -0.1025,-0.9817 v -2.8251 h -0.6107 v -0.647 h 0.6107 v -1.2168 l 0.8285,-0.4988 v 1.7156 h 0.8365 v 0.647 h -0.8365 v 2.8709 c 0,0.2382 0.0143,0.3898 0.0427,0.4576 0.0299,0.068 0.0775,0.1217 0.1437,0.1626 0.0662,0.0393 0.1608,0.06 0.284,0.06 0.0931,0 0.2147,-0.0112 0.3661,-0.0332 z m 3.8515,0.1388 c -0.3094,0.2621 -0.6059,0.4466 -0.8902,0.5558 -0.2855,0.1071 -0.5918,0.1608 -0.9185,0.1608 -0.5396,0 -0.9533,-0.1309 -1.2437,-0.3945 -0.2889,-0.2635 -0.4341,-0.6012 -0.4341,-1.01 0,-0.2416 0.0537,-0.4609 0.1644,-0.6598 0.1087,-0.1989 0.2523,-0.3584 0.4292,-0.4783 0.1782,-0.1199 0.3771,-0.2114 0.5998,-0.273 0.1626,-0.0427 0.4087,-0.0852 0.7385,-0.1248 0.6724,-0.0803 1.168,-0.1751 1.4853,-0.2871 0.003,-0.1135 0.005,-0.1863 0.005,-0.2163 0,-0.3392 -0.079,-0.5792 -0.2367,-0.7165 -0.2114,-0.1892 -0.5287,-0.2825 -0.9469,-0.2825 -0.3914,0 -0.6803,0.068 -0.8682,0.2053 -0.1861,0.1373 -0.3236,0.3801 -0.4134,0.7291 l -0.8129,-0.112 c 0.0744,-0.3474 0.1958,-0.6299 0.3646,-0.8429 0.1689,-0.2147 0.4151,-0.3803 0.7354,-0.4956 0.3206,-0.1151 0.6913,-0.1736 1.1144,-0.1736 0.4197,0 0.7592,0.0506 1.021,0.1485 0.262,0.0994 0.4548,0.2224 0.5793,0.3722 0.1232,0.1501 0.2083,0.338 0.2589,0.5668 0.0269,0.1419 0.0409,0.3978 0.0409,0.7669 v 1.1097 c 0,0.7749 0.0174,1.2642 0.0537,1.4677 0.0348,0.2053 0.1059,0.4024 0.2099,0.5902 h -0.8694 c -0.0854,-0.172 -0.1422,-0.374 -0.1659,-0.6061 z m -0.0693,-1.859 c -0.3032,0.1245 -0.7559,0.2288 -1.359,0.3155 -0.3426,0.049 -0.5854,0.1043 -0.726,0.1659 -0.1422,0.0616 -0.2526,0.1513 -0.3283,0.2715 -0.0774,0.1183 -0.1168,0.2492 -0.1168,0.3944 0,0.2227 0.0851,0.4073 0.2526,0.5555 0.1672,0.1468 0.4134,0.2209 0.737,0.2209 0.3203,0 0.6061,-0.0693 0.8554,-0.2099 0.2495,-0.1403 0.4341,-0.3328 0.5509,-0.5759 0.09,-0.1879 0.1342,-0.4658 0.1342,-0.8319 z m 1.9464,2.4651 v -6.7785 h 0.8319 v 6.7785 z m 7.7907,-0.6061 c -0.3093,0.2621 -0.6059,0.4466 -0.8901,0.5558 -0.2856,0.1071 -0.5919,0.1608 -0.9186,0.1608 -0.5396,0 -0.9532,-0.1309 -1.2437,-0.3945 -0.2888,-0.2635 -0.434,-0.6012 -0.434,-1.01 0,-0.2416 0.0537,-0.4609 0.1643,-0.6598 0.1089,-0.1989 0.2524,-0.3584 0.4293,-0.4783 0.1784,-0.1199 0.377,-0.2114 0.5997,-0.273 0.1626,-0.0427 0.4088,-0.0852 0.7385,-0.1248 0.6724,-0.0803 1.1681,-0.1751 1.4853,-0.2871 0.003,-0.1135 0.005,-0.1863 0.005,-0.2163 0,-0.3392 -0.0787,-0.5792 -0.2367,-0.7165 -0.2114,-0.1892 -0.5287,-0.2825 -0.9469,-0.2825 -0.3914,0 -0.6803,0.068 -0.8682,0.2053 -0.1861,0.1373 -0.3233,0.3801 -0.4133,0.7291 l -0.813,-0.112 c 0.0744,-0.3474 0.1959,-0.6299 0.3648,-0.8429 0.1688,-0.2147 0.4149,-0.3803 0.7353,-0.4956 0.3205,-0.1151 0.6915,-0.1736 1.1143,-0.1736 0.4198,0 0.7593,0.0506 1.0213,0.1485 0.2618,0.0994 0.4545,0.2224 0.579,0.3722 0.1232,0.1501 0.2086,0.338 0.259,0.5668 0.0268,0.1419 0.0409,0.3978 0.0409,0.7669 v 1.1097 c 0,0.7749 0.0174,1.2642 0.0537,1.4677 0.0347,0.2053 0.1058,0.4024 0.2098,0.5902 h -0.8694 c -0.0854,-0.172 -0.1421,-0.374 -0.1659,-0.6061 z m -0.0693,-1.859 c -0.3032,0.1245 -0.7559,0.2288 -1.359,0.3155 -0.3425,0.049 -0.5854,0.1043 -0.726,0.1659 -0.1421,0.0616 -0.2526,0.1513 -0.3282,0.2715 -0.0775,0.1183 -0.1169,0.2492 -0.1169,0.3944 0,0.2227 0.0854,0.4073 0.2526,0.5555 0.1675,0.1468 0.4136,0.2209 0.737,0.2209 0.3203,0 0.6062,-0.0693 0.8554,-0.2099 0.2495,-0.1403 0.4341,-0.3328 0.5509,-0.5759 0.09,-0.1879 0.1342,-0.4658 0.1342,-0.8319 z m 1.9654,2.4651 v -4.9098 h 0.748 v 0.6974 c 0.3615,-0.5397 0.8825,-0.8096 1.5627,-0.8096 0.2966,0 0.5681,0.0537 0.8158,0.1595 0.2495,0.1071 0.4341,0.2462 0.5573,0.4198 0.1247,0.172 0.2099,0.3773 0.2605,0.6138 0.0299,0.1546 0.0455,0.4246 0.0455,0.8096 v 3.0193 h -0.8332 v -2.9876 c 0,-0.3377 -0.0317,-0.5918 -0.0963,-0.7608 -0.0647,-0.1672 -0.18,-0.3014 -0.3441,-0.4009 -0.1657,-0.1009 -0.3582,-0.1513 -0.5808,-0.1513 -0.3551,0 -0.6596,0.1135 -0.9186,0.3377 -0.2571,0.2257 -0.385,0.6516 -0.385,1.2815 v 2.6814 z m 8.2848,0 v -0.6201 c -0.3109,0.4877 -0.7685,0.7306 -1.3731,0.7306 -0.3913,0 -0.7513,-0.1071 -1.0795,-0.3237 -0.3283,-0.2144 -0.5824,-0.5158 -0.7639,-0.9042 -0.1799,-0.3867 -0.2699,-0.83 -0.2699,-1.3336 0,-0.4893 0.082,-0.9344 0.2446,-1.3337 0.1644,-0.3993 0.4088,-0.7053 0.7357,-0.917 0.3265,-0.213 0.6928,-0.3203 1.0967,-0.3203 0.2953,0 0.5589,0.0631 0.7892,0.1879 0.2321,0.1247 0.4198,0.2873 0.565,0.4877 v -2.4321 h 0.827 v 6.7785 z m -2.6308,-2.451 c 0,0.6296 0.1324,1.1 0.3975,1.4108 0.2654,0.3112 0.5778,0.4674 0.9392,0.4674 0.3631,0 0.6724,-0.1501 0.9265,-0.4466 0.2541,-0.2968 0.3819,-0.7514 0.3819,-1.3621 0,-0.6723 -0.1293,-1.165 -0.3883,-1.4789 -0.2587,-0.3157 -0.5775,-0.4719 -0.9579,-0.4719 -0.3694,0 -0.6787,0.1516 -0.9264,0.453 -0.2478,0.3014 -0.3725,0.7779 -0.3725,1.4283 z m 7.2968,2.451 v -6.7785 h 3.005 c 0.6043,0 1.0637,0.0616 1.3777,0.183 0.3141,0.1214 0.5652,0.3362 0.7546,0.644 0.1877,0.3093 0.281,0.6501 0.281,1.0225 0,0.4814 -0.155,0.8856 -0.4674,1.2153 -0.3108,0.3301 -0.7922,0.54 -1.4425,0.6299 0.2385,0.1136 0.4182,0.2255 0.5414,0.3378 0.262,0.2397 0.5098,0.5411 0.745,0.9011 l 1.179,1.8449 h -1.1287 l -0.8963,-1.4108 c -0.262,-0.4057 -0.4783,-0.7181 -0.6488,-0.9329 -0.1687,-0.2162 -0.3203,-0.3678 -0.4545,-0.453 -0.1342,-0.0869 -0.2697,-0.1467 -0.4088,-0.1815 -0.1025,-0.0204 -0.2681,-0.0314 -0.5003,-0.0314 h -1.0399 v 3.0096 z m 0.8965,-3.7863 h 1.9285 c 0.4088,0 0.7307,-0.0426 0.9612,-0.1278 0.2319,-0.0851 0.407,-0.2208 0.5272,-0.407 0.1199,-0.1863 0.18,-0.3883 0.18,-0.6079 0,-0.3203 -0.1153,-0.5839 -0.349,-0.7907 -0.2319,-0.2065 -0.5997,-0.309 -1.1031,-0.309 h -2.1448 z m 9.0154,2.205 0.8602,0.1055 c -0.1357,0.5036 -0.3867,0.8935 -0.7528,1.1711 -0.3676,0.2764 -0.8365,0.4152 -1.4063,0.4152 -0.7181,0 -1.2879,-0.2209 -1.7077,-0.6629 -0.4213,-0.442 -0.6312,-1.0622 -0.6312,-1.8608 0,-0.827 0.213,-1.4676 0.6376,-1.9237 0.4262,-0.4563 0.9768,-0.6851 1.6555,-0.6851 0.6568,0 1.1931,0.2242 1.6083,0.6708 0.4167,0.4466 0.625,1.0762 0.625,1.8861 0,0.0504 -0.002,0.1245 -0.005,0.2224 h -3.6618 c 0.0302,0.5397 0.1833,0.9533 0.4579,1.2388 0.2745,0.2874 0.6156,0.4311 1.0259,0.4311 0.3044,0 0.5649,-0.0806 0.7812,-0.2416 0.2163,-0.1593 0.3865,-0.4152 0.5128,-0.7669 z m -2.732,-1.3463 h 2.7415 c -0.0363,-0.412 -0.1419,-0.7229 -0.314,-0.9279 -0.2651,-0.3206 -0.6091,-0.4814 -1.0307,-0.4814 -0.3819,0 -0.7038,0.1278 -0.9643,0.3835 -0.2602,0.2556 -0.4039,0.5982 -0.4325,1.0258 z m 4.1388,1.4615 0.8224,-0.1296 c 0.0458,0.3301 0.1751,0.5826 0.3865,0.7593 0.2102,0.1751 0.5052,0.2636 0.8856,0.2636 0.3819,0 0.6659,-0.079 0.8507,-0.2337 0.1846,-0.1562 0.2777,-0.3392 0.2777,-0.5476 0,-0.1894 -0.0821,-0.3362 -0.2462,-0.4451 -0.1135,-0.0741 -0.3978,-0.1674 -0.8508,-0.2809 -0.6092,-0.1547 -1.0338,-0.2871 -1.269,-0.4008 -0.2349,-0.112 -0.4149,-0.2682 -0.5363,-0.4674 -0.1217,-0.1988 -0.1833,-0.4179 -0.1833,-0.658 0,-0.2193 0.0506,-0.4215 0.1516,-0.6076 0.0994,-0.1879 0.2367,-0.3423 0.4088,-0.4656 0.1293,-0.0946 0.3062,-0.1766 0.5286,-0.2431 0.2242,-0.0662 0.464,-0.0994 0.7196,-0.0994 0.3853,0 0.723,0.0567 1.0149,0.1672 0.292,0.1107 0.5067,0.2605 0.6455,0.4499 0.1388,0.191 0.2337,0.4435 0.2858,0.7608 l -0.8129,0.112 c -0.0378,-0.2526 -0.1452,-0.45 -0.3218,-0.5919 -0.177,-0.1421 -0.428,-0.2129 -0.7514,-0.2129 -0.3819,0 -0.6549,0.0629 -0.8175,0.1892 -0.1641,0.1263 -0.2462,0.2748 -0.2462,0.4435 0,0.1089 0.0348,0.2053 0.1025,0.2922 0.068,0.0897 0.1736,0.1623 0.3188,0.2224 0.0838,0.0299 0.3282,0.101 0.7355,0.2114 0.5887,0.158 0.999,0.2858 1.2311,0.3868 0.2334,0.0995 0.4167,0.2462 0.5492,0.4372 0.1326,0.1909 0.1988,0.4276 0.1988,0.7117 0,0.2778 -0.082,0.5381 -0.2431,0.7845 -0.1623,0.2444 -0.396,0.4339 -0.7007,0.5681 -0.3044,0.1342 -0.6501,0.2004 -1.0353,0.2004 -0.6391,0 -1.1254,-0.1324 -1.46,-0.3978 -0.3344,-0.2651 -0.5476,-0.658 -0.6391,-1.1788 z m 8.261,-0.1152 0.8603,0.1055 c -0.1358,0.5036 -0.3868,0.8935 -0.7529,1.1711 -0.3676,0.2764 -0.8364,0.4152 -1.4063,0.4152 -0.7181,0 -1.2876,-0.2209 -1.7076,-0.6629 -0.4213,-0.442 -0.6312,-1.0622 -0.6312,-1.8608 0,-0.827 0.2132,-1.4676 0.6375,-1.9237 0.4262,-0.4563 0.9771,-0.6851 1.6556,-0.6851 0.6567,0 1.1933,0.2242 1.6082,0.6708 0.4167,0.4466 0.6251,1.0762 0.6251,1.8861 0,0.0504 -0.002,0.1245 -0.005,0.2224 h -3.6618 c 0.0302,0.5397 0.1833,0.9533 0.4579,1.2388 0.2746,0.2874 0.6156,0.4311 1.0259,0.4311 0.3047,0 0.565,-0.0806 0.7812,-0.2416 0.2163,-0.1593 0.3868,-0.4152 0.5128,-0.7669 z m -2.732,-1.3463 h 2.7415 c -0.036,-0.412 -0.1419,-0.7229 -0.3139,-0.9279 -0.2651,-0.3206 -0.6092,-0.4814 -1.0305,-0.4814 -0.3822,0 -0.704,0.1278 -0.9645,0.3835 -0.2603,0.2556 -0.404,0.5982 -0.4326,1.0258 z m 7.6759,2.3215 c -0.3093,0.2621 -0.6061,0.4466 -0.8902,0.5558 -0.2858,0.1071 -0.5918,0.1608 -0.9187,0.1608 -0.5397,0 -0.9531,-0.1309 -1.2435,-0.3945 -0.2888,-0.2635 -0.434,-0.6012 -0.434,-1.01 0,-0.2416 0.0536,-0.4609 0.1641,-0.6598 0.1089,-0.1989 0.2525,-0.3584 0.4292,-0.4783 0.1784,-0.1199 0.3773,-0.2114 0.5997,-0.273 0.1626,-0.0427 0.4088,-0.0852 0.7388,-0.1248 0.6721,-0.0803 1.1678,-0.1751 1.485,-0.2871 0.003,-0.1135 0.005,-0.1863 0.005,-0.2163 0,-0.3392 -0.079,-0.5792 -0.237,-0.7165 -0.2114,-0.1892 -0.5286,-0.2825 -0.9469,-0.2825 -0.3914,0 -0.6802,0.068 -0.8679,0.2053 -0.1863,0.1373 -0.3236,0.3801 -0.4136,0.7291 l -0.8127,-0.112 c 0.0742,-0.3474 0.1956,-0.6299 0.3646,-0.8429 0.1687,-0.2147 0.4151,-0.3803 0.7354,-0.4956 0.3204,-0.1151 0.6913,-0.1736 1.1141,-0.1736 0.42,0 0.7593,0.0506 1.0213,0.1485 0.262,0.0994 0.4545,0.2224 0.5793,0.3722 0.123,0.1501 0.2083,0.338 0.2587,0.5668 0.0268,0.1419 0.0412,0.3978 0.0412,0.7669 v 1.1097 c 0,0.7749 0.0173,1.2642 0.0534,1.4677 0.035,0.2053 0.1058,0.4024 0.2101,0.5902 h -0.8697 c -0.0853,-0.172 -0.1421,-0.374 -0.1656,-0.6061 z m -0.0696,-1.859 c -0.3031,0.1245 -0.7559,0.2288 -1.3587,0.3155 -0.3425,0.049 -0.5857,0.1043 -0.7263,0.1659 -0.1418,0.0616 -0.2523,0.1513 -0.3282,0.2715 -0.0772,0.1183 -0.1166,0.2492 -0.1166,0.3944 0,0.2227 0.0852,0.4073 0.2523,0.5555 0.1675,0.1468 0.4137,0.2209 0.7371,0.2209 0.3205,0 0.6061,-0.0693 0.8556,-0.2099 0.2492,-0.1403 0.4341,-0.3328 0.5506,-0.5759 0.09,-0.1879 0.1342,-0.4658 0.1342,-0.8319 z m 1.956,2.4651 v -4.9098 h 0.7482 v 0.7432 c 0.191,-0.3472 0.3676,-0.5775 0.5302,-0.6882 0.1611,-0.1105 0.3393,-0.1672 0.5335,-0.1672 0.281,0 0.565,0.09 0.8554,0.2684 l -0.2871,0.7733 c -0.2022,-0.1217 -0.4057,-0.1815 -0.6094,-0.1815 -0.1831,0 -0.3456,0.0552 -0.4908,0.1641 -0.1453,0.1105 -0.2478,0.2621 -0.3094,0.4561 -0.093,0.2953 -0.1388,0.6186 -0.1388,0.9707 v 2.5709 z m 6.2,-1.7992 0.8176,0.1074 c -0.0885,0.5634 -0.3173,1.0052 -0.6864,1.3242 -0.3679,0.3188 -0.8209,0.4781 -1.3575,0.4781 -0.6708,0 -1.212,-0.2194 -1.6192,-0.658 -0.4088,-0.439 -0.6141,-1.0686 -0.6141,-1.8892 0,-0.5305 0.0885,-0.9945 0.2636,-1.3922 0.1766,-0.3976 0.4435,-0.6959 0.8035,-0.8948 0.3581,-0.1989 0.7495,-0.2983 1.1708,-0.2983 0.5335,0 0.9707,0.1357 1.3084,0.4057 0.3395,0.2699 0.5573,0.6519 0.6537,1.1488 l -0.8099,0.1248 c -0.0772,-0.3298 -0.213,-0.5778 -0.4085,-0.745 -0.1959,-0.1656 -0.4326,-0.2492 -0.7105,-0.2492 -0.4197,0 -0.7607,0.1498 -1.0225,0.4512 -0.2621,0.2999 -0.3932,0.7751 -0.3932,1.4252 0,0.6598 0.1263,1.1397 0.3804,1.4395 0.2526,0.2981 0.5823,0.4482 0.9896,0.4482 0.3267,0 0.5982,-0.101 0.8175,-0.3014 0.2194,-0.2005 0.3584,-0.5083 0.4167,-0.925 z m 1.3641,1.7992 v -6.7785 h 0.8316 v 2.4321 c 0.3883,-0.4499 0.8792,-0.6756 1.4712,-0.6756 0.3628,0 0.6785,0.0726 0.9469,0.2163 0.2682,0.1421 0.4609,0.341 0.576,0.5933 0.1153,0.2526 0.1736,0.6204 0.1736,1.1 v 3.1124 h -0.8332 v -3.1124 c 0,-0.4149 -0.09,-0.7181 -0.2699,-0.9075 -0.18,-0.1892 -0.4356,-0.2856 -0.7654,-0.2856 -0.2465,0 -0.4783,0.0647 -0.6961,0.1925 -0.2178,0.1279 -0.3725,0.3017 -0.464,0.521 -0.0933,0.2178 -0.1391,0.5208 -0.1391,0.9058 v 2.6862 z m 12.6724,-2.3769 0.8981,0.2273 c -0.1879,0.7354 -0.5272,1.2973 -1.0149,1.6857 -0.4893,0.3865 -1.0857,0.5792 -1.7928,0.5792 -0.7309,0 -1.3243,-0.1485 -1.7819,-0.445 -0.4578,-0.2984 -0.8065,-0.7291 -1.0448,-1.2925 -0.2385,-0.5653 -0.3584,-1.1714 -0.3584,-1.8184 0,-0.7056 0.1342,-1.3209 0.4042,-1.8465 0.2699,-0.5256 0.6534,-0.9249 1.1519,-1.198 0.4972,-0.273 1.0448,-0.4087 1.643,-0.4087 0.6787,0 1.2486,0.172 1.711,0.5176 0.4625,0.3457 0.7843,0.8301 0.9658,1.4567 l -0.8822,0.2083 c -0.158,-0.4939 -0.385,-0.852 -0.6851,-1.0777 -0.2981,-0.2258 -0.6739,-0.3377 -1.1284,-0.3377 -0.5207,0 -0.9548,0.1244 -1.3051,0.374 -0.3504,0.2507 -0.5966,0.5854 -0.7372,1.0069 -0.1419,0.4198 -0.213,0.8536 -0.213,1.3005 0,0.5775 0.0836,1.0795 0.2511,1.5103 0.1687,0.4292 0.4292,0.7513 0.7843,0.9643 0.3551,0.2132 0.7385,0.3188 1.1521,0.3188 0.5019,0 0.9265,-0.1452 1.2752,-0.4341 0.3489,-0.2902 0.5839,-0.7212 0.7071,-1.291 z m 5.0903,0.7956 0.8602,0.1055 c -0.1357,0.5036 -0.3865,0.8935 -0.7528,1.1711 -0.3676,0.2764 -0.8365,0.4152 -1.406,0.4152 -0.7184,0 -1.288,-0.2209 -1.7077,-0.6629 -0.4216,-0.442 -0.6315,-1.0622 -0.6315,-1.8608 0,-0.827 0.2132,-1.4676 0.6376,-1.9237 0.4262,-0.4563 0.9771,-0.6851 1.6558,-0.6851 0.6565,0 1.1931,0.2242 1.6082,0.6708 0.4167,0.4466 0.6248,1.0762 0.6248,1.8861 0,0.0504 -0.002,0.1245 -0.005,0.2224 h -3.6615 c 0.0299,0.5397 0.183,0.9533 0.4576,1.2388 0.2745,0.2874 0.6156,0.4311 1.0259,0.4311 0.3047,0 0.5649,-0.0806 0.7812,-0.2416 0.2163,-0.1593 0.3868,-0.4152 0.5128,-0.7669 z m -2.7318,-1.3463 h 2.7415 c -0.0363,-0.412 -0.1421,-0.7229 -0.3142,-0.9279 -0.2651,-0.3206 -0.6092,-0.4814 -1.0304,-0.4814 -0.3822,0 -0.7041,0.1278 -0.9646,0.3835 -0.2602,0.2556 -0.4039,0.5982 -0.4323,1.0258 z m 4.4717,2.9276 v -4.9098 h 0.748 v 0.6974 c 0.3615,-0.5397 0.8825,-0.8096 1.5627,-0.8096 0.2966,0 0.5681,0.0537 0.8158,0.1595 0.2495,0.1071 0.4341,0.2462 0.5573,0.4198 0.1247,0.172 0.2099,0.3773 0.2605,0.6138 0.0299,0.1546 0.0455,0.4246 0.0455,0.8096 v 3.0193 h -0.8331 v -2.9876 c 0,-0.3377 -0.0317,-0.5918 -0.0964,-0.7608 -0.0647,-0.1672 -0.18,-0.3014 -0.3441,-0.4009 -0.1657,-0.1009 -0.3582,-0.1513 -0.5808,-0.1513 -0.3551,0 -0.6596,0.1135 -0.9185,0.3377 -0.2572,0.2257 -0.385,0.6516 -0.385,1.2815 v 2.6814 z m 6.9164,-0.7449 0.1201,0.7355 c -0.2336,0.0488 -0.4435,0.0741 -0.6281,0.0741 -0.3032,0 -0.5368,-0.0473 -0.704,-0.1436 -0.1657,-0.0946 -0.2825,-0.2209 -0.3503,-0.3771 -0.068,-0.1547 -0.1027,-0.4829 -0.1027,-0.9817 v -2.8251 h -0.6107 v -0.647 h 0.6107 v -1.2168 l 0.8288,-0.4988 v 1.7156 h 0.8362 v 0.647 h -0.8362 v 2.8709 c 0,0.2382 0.014,0.3898 0.0424,0.4576 0.0302,0.068 0.0775,0.1217 0.1437,0.1626 0.0662,0.0393 0.161,0.06 0.284,0.06 0.0933,0 0.2147,-0.0112 0.3661,-0.0332 z m 0.6383,0.7449 v -4.9098 h 0.748 v 0.7432 c 0.191,-0.3472 0.3679,-0.5775 0.5302,-0.6882 0.1611,-0.1105 0.3395,-0.1672 0.5335,-0.1672 0.281,0 0.565,0.09 0.8557,0.2684 l -0.2874,0.7733 c -0.2019,-0.1217 -0.4057,-0.1815 -0.6092,-0.1815 -0.1833,0 -0.3456,0.0552 -0.4908,0.1641 -0.1452,0.1105 -0.248,0.2621 -0.3093,0.4561 -0.0933,0.2953 -0.1391,0.6186 -0.1391,0.9707 v 2.5709 z m 6.356,-1.5813 0.8602,0.1055 c -0.1357,0.5036 -0.3865,0.8935 -0.7528,1.1711 -0.3676,0.2764 -0.8365,0.4152 -1.4061,0.4152 -0.7183,0 -1.2879,-0.2209 -1.7076,-0.6629 -0.4216,-0.442 -0.6315,-1.0622 -0.6315,-1.8608 0,-0.827 0.2132,-1.4676 0.6376,-1.9237 0.4262,-0.4563 0.9771,-0.6851 1.6558,-0.6851 0.6565,0 1.1931,0.2242 1.608,0.6708 0.4169,0.4466 0.625,1.0762 0.625,1.8861 0,0.0504 -10e-4,0.1245 -0.005,0.2224 h -3.6615 c 0.0299,0.5397 0.183,0.9533 0.4576,1.2388 0.2745,0.2874 0.6155,0.4311 1.0258,0.4311 0.3048,0 0.565,-0.0806 0.7813,-0.2416 0.2163,-0.1593 0.3868,-0.4152 0.5128,-0.7669 z m -2.7318,-1.3463 h 2.7415 c -0.0363,-0.412 -0.1421,-0.7229 -0.3142,-0.9279 -0.2651,-0.3206 -0.6092,-0.4814 -1.0305,-0.4814 -0.3821,0 -0.704,0.1278 -0.9645,0.3835 -0.2602,0.2556 -0.4039,0.5982 -0.4323,1.0258 z"
       style="fill:#1b1918;fill-rule:evenodd"
       id="path2" />
    <g
       id="Layer1001">
      <path
         d="m 465.1194,377.2963 h 8.7917 v -8.7916 h 15.3171 v 8.7916 h 8.7917 v 15.3171 h -8.7917 v 8.7917 h -15.3171 v -8.7917 h -8.7917 z"
         style="fill:#00aa91;fill-rule:evenodd"
         id="path4" />
      <path
         d="m 481.5642,388.878 c -0.4303,2.3414 -4.8791,3.0681 -4.2245,7.1033 0.7127,3.5738 7.9064,3.7358 8.6368,-0.2636 0.2752,-3.9073 -3.741,-4.2001 -4.4123,-6.8397 z"
         style="fill:#102a83;fill-rule:evenodd;stroke:#102a83;stroke-width:0.216;stroke-linecap:butt;stroke-linejoin:miter;stroke-dasharray:none"
         id="path6" />
      <path
         d="m 481.5364,392.9602 c -0.1064,0.6676 -1.2466,0.9144 -1.0846,2.0649 0.1763,1.0191 1.956,1.0653 2.1367,-0.0751 0.0681,-1.1141 -0.886,-1.2371 -1.0521,-1.9898 z"
         style="fill:#ffffff;fill-rule:evenodd"
         id="path8" />
      <path
         d="m 473.5963,392.5756 c -2.3563,-6.8393 5.248,-8.6753 7.941,-13.908 1.9737,4.835 10.1901,6.3887 8.0327,13.9317 0.2907,0.0179 0.5354,-0.008 0.8262,-0.0237 1.7595,-8.7671 -7.5891,-10.2818 -8.9048,-15.8359 -0.8706,5.6151 -11.4196,7.4167 -8.7213,15.8609 0.2754,-0.005 0.5508,6e-4 0.8262,-0.025 z"
         style="fill:#ffffff;fill-rule:evenodd;stroke:#ffffff;stroke-width:0.216;stroke-linecap:butt;stroke-linejoin:miter;stroke-dasharray:none"
         id="path10" />
      <path
         d="m 472.5278,392.5916 c -5.0372,-10.6614 7.4018,-13.7756 9.0095,-20.7655 2.6543,8.0671 14.135,10.5278 8.9618,20.7717 0.1223,0.0154 0.2558,-0.003 0.3782,0.0127 5.6122,-11.4265 -8.5885,-13.5879 -9.34,-23.1755 -0.1271,9.1781 -14.7512,11.2897 -9.4798,23.1605 0.1717,-0.005 0.2988,-0.001 0.4703,-0.004 z"
         style="fill:#ffffff;fill-rule:evenodd;stroke:#ffffff;stroke-width:0.216;stroke-linecap:butt;stroke-linejoin:miter;stroke-dasharray:none"
         id="path12" />
      <path
         d="m 471.2224,392.613 c -0.1162,0.002 -0.2243,-0.004 -0.3323,0.006 -3.3959,-6.6265 -2.0573,-9.9511 0.6538,-12.9836 2.7388,-3.0636 7.2159,-5.5635 9.098,-11.1293 0.0664,-0.004 0.1891,-0.002 0.268,0.0125 -1.2264,5.3401 -6.6214,8.3315 -9.7132,12.1391 -2.2338,2.7509 -2.8344,6.523 0.0257,11.9557 z"
         style="fill:#ffffff;fill-rule:evenodd;stroke:#ffffff;stroke-width:0.216;stroke-linecap:butt;stroke-linejoin:miter;stroke-dasharray:none"
         id="path14" />
      <path
         d="m 491.7535,392.613 c 0.1162,0.002 0.2243,-0.004 0.3324,0.006 3.3958,-6.6265 2.0572,-9.9511 -0.6539,-12.9836 -2.7388,-3.0636 -7.2159,-5.5635 -9.098,-11.1293 -0.0664,-0.004 -0.1891,-0.002 -0.268,0.0125 1.2264,5.3401 6.6214,8.3315 9.7132,12.1391 2.2338,2.7509 2.8344,6.523 -0.0257,11.9557 z"
         style="fill:#ffffff;fill-rule:evenodd;stroke:#ffffff;stroke-width:0.216;stroke-linecap:butt;stroke-linejoin:miter;stroke-dasharray:none"
         id="path16" />
      <path
         d="m 477.1066,368.5196 c 0.1401,0 0.1857,0 0.3257,0 -0.9414,2.081 -2.19,3.3189 -3.4767,4.423 -0.0156,-0.1484 -0.0122,-0.2586 -0.0279,-0.4068 1.409,-1.0531 2.4402,-2.4882 3.1789,-4.0162 z"
         style="fill:#ffffff;fill-rule:evenodd;stroke:#ffffff;stroke-width:0.216;stroke-linecap:butt;stroke-linejoin:miter;stroke-dasharray:none"
         id="path18" />
      <path
         d="m 486.0471,368.5196 c -0.1401,0 -0.1857,0 -0.3257,0 0.9414,2.081 2.19,3.3189 3.4767,4.423 0.0156,-0.1484 0.0122,-0.2586 0.0279,-0.4068 -1.409,-1.0531 -2.4402,-2.4882 -3.1789,-4.0162 z"
         style="fill:#ffffff;fill-rule:evenodd;stroke:#ffffff;stroke-width:0.216;stroke-linecap:butt;stroke-linejoin:miter;stroke-dasharray:none"
         id="path20" />
      <path
         d="m 469.1321,377.3052 c 0.1303,0.01 0.2741,-0.0138 0.4044,-0.004 -4.311,4.8679 -4.0134,9.9571 -0.1804,15.3101 -0.1303,0.002 -0.2851,0.004 -0.4154,0.0137 -4.066,-6.2541 -3.7298,-10.3229 0.1914,-15.32 z"
         style="fill:#ffffff;fill-rule:evenodd;stroke:#ffffff;stroke-width:0.216;stroke-linecap:butt;stroke-linejoin:miter;stroke-dasharray:none"
         id="path22" />
      <path
         d="m 493.9004,377.3161 c -0.1358,-0.007 -0.2606,-0.008 -0.3964,-0.0147 4.2412,4.8326 3.935,9.8574 0.1694,15.3126 0.1303,0.01 0.2828,-0.002 0.4131,0.008 4.066,-6.254 3.7351,-10.3086 -0.1861,-15.3057 z"
         style="fill:#ffffff;fill-rule:evenodd;stroke:#ffffff;stroke-width:0.216;stroke-linecap:butt;stroke-linejoin:miter;stroke-dasharray:none"
         id="path24" />
    </g>
    <g
       id="Layer1002">
      <path
         d="m 429.2839,418.8091 c 0,0.0644 -0.3216,0.7559 -0.9648,2.0745 -0.4118,0.8493 -0.7817,1.4572 -1.1097,1.8238 -0.5274,0.5918 -1.142,0.8878 -1.8429,0.8878 -0.1158,0 -0.2638,-0.0289 -0.4441,-0.0869 -0.2249,-0.0772 -0.3377,-0.1608 -0.3377,-0.2508 0,-0.0194 0.01,-0.0386 0.0289,-0.058 0.058,0.013 0.1641,0.0547 0.3185,0.1255 0.135,0.0642 0.2669,0.0964 0.3958,0.0964 0.4243,0 0.8298,-0.1961 1.2158,-0.5885 0.2894,-0.296 0.5821,-0.7237 0.8779,-1.2833 0.2124,-0.431 0.4215,-0.859 0.6273,-1.2834 0.2316,-0.4696 0.4116,-0.8459 0.5404,-1.1291 -0.3218,0.1222 -0.5051,0.1835 -0.5501,0.1835 -0.0256,0 -0.0386,-0.0291 -0.0386,-0.0869 0.006,-0.013 0.0258,-0.0289 0.058,-0.0483 0.1028,-0.0514 0.2958,-0.135 0.5788,-0.2508 0.3152,-0.1222 0.5082,-0.1833 0.579,-0.1833 0.045,0 0.0675,0.0192 0.0675,0.0578 z m 1.708,3.908 c 0,0.4696 0.1641,0.7043 0.4921,0.7043 0.1544,0 0.341,-0.0821 0.5598,-0.246 0.2186,-0.1641 0.3247,-0.2461 0.3183,-0.2461 0.045,0 0.0675,0.0258 0.0675,0.0772 0,0.0836 -0.1271,0.2027 -0.3812,0.3571 -0.2541,0.1544 -0.4517,0.2316 -0.5933,0.2316 -0.6432,0 -0.9651,-0.4149 -0.9651,-1.2447 0,-0.8492 0.5918,-1.9718 1.7757,-3.3676 -0.7656,-0.0772 -1.3219,-0.1738 -1.6693,-0.2896 -0.3088,-0.103 -0.7496,-0.2122 -1.3222,-0.328 -0.5982,-0.1158 -1.0387,-0.1738 -1.3219,-0.1738 -0.5146,0 -0.9487,0.1352 -1.3025,0.4054 -0.3796,0.2958 -0.5693,0.6946 -0.5693,1.1964 0,0.1416 0.0337,0.3009 0.1012,0.4778 0.0675,0.1767 0.1012,0.2556 0.1012,0.2362 0,0.0258 -0.0161,0.0386 -0.048,0.0386 -0.0966,0 -0.1769,-0.1125 -0.2413,-0.3377 -0.0578,-0.18 -0.087,-0.3344 -0.087,-0.4632 0,-0.6174 0.2994,-1.1031 0.8976,-1.4569 0.5016,-0.296 1.0839,-0.4438 1.7465,-0.4438 0.3924,0 0.8621,0.0642 1.4086,0.1928 0.4632,0.1158 0.9265,0.2349 1.3897,0.3571 0.5918,0.148 0.997,0.2219 1.2158,0.2219 -0.006,0 0.148,-0.1158 0.4632,-0.3474 0.3152,-0.2316 0.5788,-0.3474 0.7912,-0.3474 0.2894,0 0.4341,0.0997 0.4341,0.2993 0,0.2894 -0.2316,0.5049 -0.6948,0.6465 -0.3216,0.0964 -0.6721,0.1447 -1.0517,0.1447 -0.0642,0 -0.3086,0.4052 -0.7332,1.2158 -0.5213,0.9907 -0.7817,1.8205 -0.7817,2.4895 z m -2.0554,0.4824 c 0,0.1222 0.0614,0.1833 0.1835,0.1833 0.0773,0 0.1511,-0.0402 0.2219,-0.1204 0.0709,-0.0806 0.1095,-0.1207 0.1158,-0.1207 0.045,0 0.0675,0.0225 0.0675,0.0675 0,0.1094 -0.058,0.2009 -0.1738,0.2751 -0.1155,0.0738 -0.2283,0.1109 -0.3377,0.1109 -0.0772,0 -0.193,-0.006 -0.3472,-0.0194 -0.1544,-0.0128 -0.2702,-0.0192 -0.3474,-0.0192 -0.0386,0 -0.0948,0.006 -0.169,0.0192 -0.0738,0.013 -0.1301,0.0194 -0.1687,0.0194 -0.1866,0 -0.2799,-0.0386 -0.2799,-0.1158 0,-0.0644 0.0225,-0.0966 0.0675,-0.0966 0.013,0 0.0355,0.006 0.0675,0.0194 0.0322,0.0128 0.058,0.0192 0.0772,0.0192 0.1158,0 0.2316,-0.0708 0.3474,-0.2122 0.1674,-0.2058 0.4504,-0.7301 0.8492,-1.573 0.2639,-0.5787 0.6657,-1.4408 1.2061,-2.5858 0.0645,-0.1352 0.1803,-0.2027 0.3475,-0.2027 0.148,0 0.2219,0.0225 0.2219,0.0675 0,0.0902 -0.325,0.7833 -0.9745,2.0794 -0.6499,1.2963 -0.9748,2.0313 -0.9748,2.2049 z m 3.8599,-4.5254 c 0.238,0.0192 0.3699,0.0289 0.3955,0.0289 0.1674,0 0.3441,-0.0355 0.5307,-0.1061 0.238,-0.0902 0.3571,-0.206 0.3571,-0.3474 0,-0.103 -0.0708,-0.1544 -0.2124,-0.1544 -0.3408,0 -0.6979,0.193 -1.0709,0.579 z m -0.071,3.9561 c 0,-0.4633 0.1802,-0.8587 0.5404,-1.1867 0.3602,-0.3283 0.7751,-0.4924 1.2447,-0.4924 0.283,0 0.5179,0.0903 0.7045,0.2702 0.1864,0.1803 0.2797,0.4119 0.2797,0.6949 0,0.4887 -0.1736,0.8909 -0.521,1.2061 -0.3474,0.3152 -0.7687,0.4729 -1.2641,0.4729 -0.283,0 -0.5177,-0.0902 -0.7043,-0.2702 -0.1866,-0.1802 -0.2799,-0.4118 -0.2799,-0.6948 z m 0.4051,0.2316 c 0,0.3732 0.1836,0.5596 0.5502,0.5596 0.328,0 0.6498,-0.2089 0.965,-0.6271 0.2958,-0.3988 0.4438,-0.7687 0.4438,-1.1098 0,-0.3729 -0.1833,-0.5596 -0.5501,-0.5596 -0.328,0 -0.6447,0.2043 -0.9502,0.6128 -0.3058,0.4085 -0.4587,0.783 -0.4587,1.1241 z m 3.2855,0.3763 c 0,0.1222 0.0547,0.1833 0.1642,0.1833 0.0899,0 0.1641,-0.021 0.2219,-0.0627 0.0577,-0.0419 0.0997,-0.0626 0.1255,-0.0626 0.0255,0 0.0386,0.0225 0.0386,0.0675 0,0.0642 -0.0499,0.1189 -0.1496,0.1641 -0.0997,0.045 -0.1851,0.0675 -0.2559,0.0675 -0.0641,0 -0.1623,-0.006 -0.2942,-0.0194 -0.1319,-0.0128 -0.2298,-0.0192 -0.2943,-0.0192 -0.0577,0 -0.1446,0.006 -0.2605,0.0192 -0.1158,0.013 -0.2027,0.0194 -0.2604,0.0194 -0.1417,0 -0.2125,-0.0258 -0.2125,-0.0772 0,-0.0644 0.0805,-0.0966 0.2413,-0.0966 0.1608,0 0.3216,-0.1414 0.4824,-0.4244 0.2058,-0.3924 0.5341,-0.9748 0.9842,-1.7465 -0.0322,0.006 -0.0997,0.0289 -0.2024,0.0675 -0.103,0.0386 -0.1769,0.0577 -0.2219,0.0577 -0.0386,0 -0.058,-0.0255 -0.058,-0.0772 0,-0.045 0.1608,-0.1158 0.4823,-0.2122 0.3025,-0.0899 0.5019,-0.1352 0.5982,-0.1352 0.0773,0 0.1159,0.0161 0.1159,0.0483 0,0.0258 -0.0338,0.0869 -0.1013,0.1833 -0.0675,0.0967 -0.1076,0.1578 -0.1206,0.1836 l 0.0194,0.0191 c 0.3024,-0.2893 0.656,-0.4343 1.0614,-0.4343 0.328,0 0.4921,0.1416 0.4921,0.4246 0,0.3025 -0.1641,0.4535 -0.4921,0.4535 -0.1158,0 -0.1738,-0.0255 -0.1738,-0.0772 0,-0.006 0.0209,-0.0529 0.0629,-0.1398 0.0416,-0.0869 0.0626,-0.1559 0.0626,-0.2073 0,-0.1611 -0.0836,-0.2413 -0.2508,-0.2413 -0.3216,0 -0.7027,0.2638 -1.1435,0.7912 -0.4407,0.5273 -0.6611,0.9553 -0.6611,1.2833 z m 2.5618,-0.6946 c 0,-0.4826 0.2894,-0.9039 0.8684,-1.2641 0.5146,-0.3216 1.0292,-0.4824 1.5438,-0.4824 0.3152,0 0.473,0.1383 0.473,0.4149 0,0.1544 -0.0739,0.3377 -0.2237,0.5499 -0.1301,0.1866 -0.27,0.3313 -0.418,0.4343 -0.3377,0.238 -0.7526,0.3569 -1.2465,0.3569 -0.1559,0 -0.2878,-0.0128 -0.3988,-0.0386 0,0.2057 0.0885,0.3924 0.2638,0.5598 0.1754,0.1672 0.3666,0.2508 0.5742,0.2508 0.2411,0 0.4839,-0.0644 0.7317,-0.193 0.2461,-0.1286 0.3571,-0.193 0.3313,-0.193 0.0322,0 0.0483,0.0194 0.0483,0.058 0,0.1092 -0.1866,0.2541 -0.5596,0.4341 -0.2252,0.1094 -0.5052,0.1641 -0.8395,0.1641 -0.3216,0 -0.5936,-0.0966 -0.8155,-0.2896 -0.2219,-0.1928 -0.3329,-0.4471 -0.3329,-0.7621 z m 2.3448,-1.2158 c 0,-0.1739 -0.1383,-0.2608 -0.415,-0.2608 -0.2893,0 -0.5836,0.1401 -0.8829,0.4198 -0.2991,0.2799 -0.4487,0.5614 -0.4487,0.8444 0.0258,0 0.0757,0.008 0.1496,0.024 0.0741,0.0161 0.1303,0.0243 0.1689,0.0243 0.3666,0 0.6754,-0.0997 0.9262,-0.2991 0.3347,-0.2638 0.5019,-0.5146 0.5019,-0.7526 z m 4.4031,-0.2994 c 0,0.0708 -0.1736,0.1094 -0.521,0.1158 -0.3602,0.9392 -0.7751,1.618 -1.2447,2.0362 0.045,0 0.1222,0.0113 0.2314,0.0337 0.1094,0.0225 0.193,0.0338 0.251,0.0338 0.0258,0 0.0626,-0.005 0.1109,-0.0146 0.0484,-0.009 0.0852,-0.0143 0.111,-0.0143 0.0258,0 0.0386,0.0192 0.0386,0.0578 0,0.0966 -0.0644,0.1769 -0.193,0.2413 -0.1028,0.0514 -0.2091,0.0772 -0.3185,0.0772 -0.0514,0 -0.1302,-0.0112 -0.2363,-0.0337 -0.106,-0.0225 -0.1881,-0.0338 -0.2461,-0.0338 -0.045,0 -0.0933,0.0113 -0.1447,0.0338 -0.0514,0.0225 -0.0772,0.0337 -0.0772,0.0337 -0.0259,0 -0.0386,-0.0161 -0.0386,-0.0483 0,-0.0128 0.0225,-0.0514 0.0675,-0.1158 0.103,-0.148 0.3185,-0.5307 0.6465,-1.1484 0.341,-0.6495 0.5115,-1.0228 0.5115,-1.1191 0,-0.0195 -0.0562,-0.0371 -0.169,-0.0532 -0.1125,-0.0161 -0.1687,-0.0304 -0.1687,-0.0435 0,-0.0319 0.0322,-0.0641 0.0964,-0.0964 0.3216,-0.148 0.6979,-0.6015 1.1289,-1.3605 0.0516,-0.0966 0.1513,-0.2316 0.2991,-0.4052 0.1674,-0.2124 0.2799,-0.3185 0.3379,-0.3185 0.032,0 0.0481,0.0128 0.0481,0.0386 0,-0.006 -0.0386,0.0419 -0.1158,0.1447 -0.18,0.238 -0.4663,0.8717 -0.8587,1.9009 0.2122,0 0.3538,0.0128 0.4246,0.0386 0.0192,0.006 0.0289,0.0128 0.0289,0.0192 z m 3.0828,-0.135 c 0.18,0 0.328,0.0611 0.4438,0.1833 0.1158,0.1222 0.1738,0.2736 0.1738,0.4535 0,0.2189 -0.1383,0.5438 -0.4151,0.9748 -0.2764,0.4308 -0.415,0.6785 -0.415,0.7429 0,0.1158 0.0484,0.1736 0.145,0.1736 0.1158,0 0.2186,-0.0611 0.3086,-0.1833 0.0516,-0.006 0.0772,0.01 0.0772,0.0483 0,0.09 -0.0772,0.1672 -0.2314,0.2316 -0.1288,0.0514 -0.2446,0.0772 -0.3474,0.0772 -0.0644,0 -0.1562,-0.006 -0.2751,-0.0194 -0.1189,-0.0128 -0.2106,-0.0192 -0.2751,-0.0192 -0.0513,0 -0.1252,0.006 -0.2218,0.0192 -0.0964,0.013 -0.1706,0.0194 -0.2219,0.0194 -0.1481,0 -0.2219,-0.0355 -0.2219,-0.1061 0,-0.0386 0.0322,-0.058 0.0963,-0.058 0.1739,0 0.3152,-0.0626 0.4247,-0.1848 0.1671,-0.1867 0.3796,-0.4875 0.6368,-0.9007 0.2896,-0.4711 0.4343,-0.7912 0.4343,-0.9586 0,-0.2137 -0.0933,-0.3201 -0.2799,-0.3201 -0.3988,0 -0.8779,0.272 -1.4378,0.8155 -0.5596,0.5435 -0.8395,1.0083 -0.8395,1.3943 0,0.0966 0.058,0.1447 0.1739,0.1447 0.0705,0 0.1574,-0.045 0.2604,-0.135 0.1028,-0.09 0.1672,-0.135 0.1931,-0.135 0.0255,0 0.0386,0.0192 0.0386,0.0563 0,0.1012 -0.0724,0.1912 -0.2173,0.2699 -0.1447,0.079 -0.2748,0.1176 -0.3907,0.1176 -0.058,0 -0.14,0 -0.2461,0 -0.1061,0 -0.1882,0 -0.246,0 -0.058,0 -0.1464,0 -0.2653,0 -0.1191,0 -0.2076,0 -0.2654,0 -0.2252,0 -0.3377,-0.0611 -0.3377,-0.1833 0,-0.0516 0.0225,-0.0772 0.0675,-0.0772 0,0 0.0225,0.0143 0.0675,0.0432 0.045,0.0292 0.0933,0.0435 0.1447,0.0435 0.148,0 0.3668,-0.2508 0.6562,-0.7526 0.3347,-0.5982 0.6657,-1.1964 0.994,-1.7946 0.5146,-0.8815 0.9842,-1.5633 1.4088,-2.0457 0.5788,-0.6562 1.1031,-0.9842 1.5727,-0.9842 0.1994,0 0.3684,0.0739 0.5067,0.2219 0.1383,0.1478 0.2073,0.3216 0.2073,0.521 0,0.0386 -0.0289,0.0578 -0.0867,0.0578 -0.0386,0 -0.0741,-0.0547 -0.1063,-0.1639 -0.032,-0.1416 -0.0739,-0.2413 -0.1253,-0.2991 -0.0836,-0.1094 -0.2188,-0.1641 -0.4054,-0.1641 -0.4888,0 -1.0517,0.5113 -1.6885,1.5341 -0.4119,0.7334 -0.8201,1.4669 -1.2256,2.2 l 0.0195,0.0195 c 0.4632,-0.3347 0.7331,-0.5244 0.8103,-0.5693 0.3411,-0.2058 0.6499,-0.3089 0.9265,-0.3089 z m 3.4992,2.7019 h -0.7237 c -0.045,0 -0.0675,-0.013 -0.0675,-0.0386 0,-0.006 0.01,-0.0516 0.0289,-0.1352 -0.2058,0.1158 -0.4469,0.1738 -0.7237,0.1738 -0.6174,0 -0.9262,-0.2735 -0.9262,-0.8203 0,-0.4697 0.3119,-0.9004 0.9359,-1.2928 0.5662,-0.3541 1.1,-0.531 1.6018,-0.531 0.4824,0 0.7946,0.0547 0.9359,0.1641 -0.3344,0.5146 -0.5435,0.846 -0.6271,0.994 -0.2638,0.4696 -0.3957,0.8201 -0.3957,1.0517 0,0.1738 0.0644,0.2605 0.193,0.2605 0.1416,0 0.2444,-0.0675 0.3088,-0.2025 0.0644,-0.1352 0.0997,-0.2027 0.1061,-0.2027 0.0517,0 0.0772,0.0194 0.0772,0.058 0,0.1028 -0.0514,0.2186 -0.1544,0.3472 -0.0708,0.0902 -0.1544,0.1449 -0.2508,0.1641 -0.0386,0.006 -0.1447,0.01 -0.3185,0.01 z m -1.814,-0.8684 c 0,0.3988 0.1899,0.5982 0.5693,0.5982 0.4052,0 0.7204,-0.2669 0.9456,-0.8009 0.1158,-0.2702 0.3635,-0.7237 0.7431,-1.3605 -0.0644,-0.0259 -0.1288,-0.0387 -0.193,-0.0387 -0.399,0 -0.8331,0.1672 -1.3027,0.5019 -0.5082,0.3538 -0.7623,0.7204 -0.7623,1.1 z m 5.7943,-1.1292 c 0,-0.2894 -0.1288,-0.434 -0.386,-0.434 -0.4504,0 -0.9392,0.4726 -1.4669,1.4185 -0.2121,0.3794 -0.3182,0.6238 -0.3182,0.7332 0,0.0708 0.0352,0.1061 0.1061,0.1061 0.045,0 0.0948,-0.0274 0.1495,-0.0821 0.0547,-0.0544 0.0918,-0.0818 0.111,-0.0818 0.045,0 0.0674,0.0256 0.0674,0.0772 0,0.0514 -0.0593,0.1076 -0.1784,0.1687 -0.1189,0.0611 -0.2073,0.0918 -0.2653,0.0918 -0.0514,0 -0.1286,-0.006 -0.2317,-0.0194 -0.1027,-0.0128 -0.1799,-0.0192 -0.2316,-0.0192 -0.0514,0 -0.1301,0.006 -0.2362,0.0192 -0.1063,0.013 -0.1851,0.0194 -0.2364,0.0194 -0.09,0 -0.1353,-0.013 -0.1353,-0.0386 0,-0.045 0.0757,-0.0918 0.2268,-0.1401 0.1513,-0.048 0.2687,-0.1462 0.3522,-0.2942 0.1994,-0.3924 0.5019,-0.9779 0.9071,-1.756 -0.045,0.006 -0.1253,0.0273 -0.2411,0.0626 -0.1158,0.0353 -0.2061,0.0532 -0.2702,0.0532 -0.0322,0 -0.0483,-0.0161 -0.0483,-0.0483 0,-0.0386 0.148,-0.1128 0.4438,-0.2219 0.1802,-0.0645 0.3602,-0.1289 0.5404,-0.193 0.1094,-0.045 0.1736,-0.0678 0.193,-0.0678 0.0386,0 0.0578,0.0228 0.0578,0.0678 0,0.0255 -0.0177,0.0802 -0.053,0.1638 -0.0355,0.0839 -0.0562,0.1416 -0.0628,0.1739 0.1352,-0.1031 0.3024,-0.2028 0.5018,-0.2991 0.2316,-0.1095 0.4149,-0.1642 0.5501,-0.1642 0.4632,0 0.6946,0.2122 0.6946,0.6368 0,0.2317 -0.09,0.4858 -0.27,0.7624 -0.1158,0.1802 -0.2799,0.3827 -0.4921,0.6079 -0.1802,0.193 -0.2702,0.296 -0.2702,0.3088 0,0.0772 0.0933,0.1158 0.2797,0.1158 0.0386,0 0.0884,-0.0113 0.1495,-0.0337 0.0611,-0.0225 0.1079,-0.0338 0.1401,-0.0338 0.0514,0 0.0772,0.0128 0.0772,0.0386 0,0.0836 -0.0547,0.1544 -0.1641,0.2122 -0.1094,0.058 -0.2091,0.0869 -0.2991,0.0869 -0.045,0 -0.1158,-0.006 -0.2124,-0.0194 -0.0964,-0.0128 -0.1672,-0.0192 -0.2122,-0.0192 -0.0258,0 -0.0596,0.006 -0.1012,0.0192 -0.042,0.013 -0.0757,0.0194 -0.1015,0.0194 -0.0706,0 -0.1061,-0.0194 -0.1061,-0.058 0,-0.0128 0.09,-0.135 0.2702,-0.3666 0.2188,-0.2702 0.386,-0.5113 0.5018,-0.7237 0.18,-0.3216 0.2702,-0.6046 0.2702,-0.8493 z m 7.8285,-3.3095 -0.0289,-0.01 c -0.5918,0.0966 -0.9167,0.1447 -0.9745,0.1447 -0.193,0 -0.4665,-0.045 -0.8203,-0.135 -0.3538,-0.0902 -0.5982,-0.1352 -0.7335,-0.1352 -0.1927,0 -0.3729,0.0772 -0.5401,0.2316 -0.0772,0.0772 -0.1544,0.1577 -0.2316,0.2413 -0.0192,-0.0194 -0.0289,-0.0386 -0.0289,-0.058 0,-0.18 0.1188,-0.3584 0.3568,-0.5356 0.2381,-0.1766 0.4505,-0.2651 0.6369,-0.2651 0.2124,0 0.5261,0.0578 0.941,0.1736 0.4149,0.1158 0.7283,0.1736 0.9407,0.1736 0.0836,0 0.2058,-0.0161 0.3666,-0.0481 0.1608,-0.0322 0.283,-0.0483 0.3669,-0.0483 0.0577,0 0.0866,0.0192 0.0866,0.0578 0,0 -0.1061,0.1738 -0.3183,0.5212 -0.4696,0.7782 -0.7462,1.37 -0.83,1.7754 0.1158,0 0.2863,0.0241 0.5115,0.0724 0.2252,0.0483 0.3763,0.0723 0.4535,0.0723 0.0772,0 0.1994,0.0259 0.3666,0.0772 0.1675,0.0514 0.2927,0.0772 0.3766,0.0772 0.0319,0 0.0675,-0.006 0.1061,-0.0194 0.386,-0.9262 0.6237,-1.4699 0.714,-1.6305 0.386,-0.6692 0.817,-1.0036 1.293,-1.0036 0.09,0 0.2347,0.0371 0.4341,0.1109 0.2252,0.0821 0.3377,0.1593 0.3377,0.2332 0,0.0404 -0.0225,0.0611 -0.0675,0.0611 0.0194,0 -0.045,-0.0386 -0.193,-0.1158 -0.1478,-0.0772 -0.2894,-0.1158 -0.4246,-0.1158 -0.3086,0 -0.5982,0.2541 -0.8684,0.7623 -0.0192,0.0258 -0.1864,0.4149 -0.5016,1.1675 -0.1289,0.296 -0.1963,0.4857 -0.2027,0.5693 0.0127,0.0194 0.0386,0.0292 0.0772,0.0292 0.0386,0 0.0981,-0.008 0.1784,-0.0243 0.0805,-0.0161 0.1401,-0.0241 0.1787,-0.0241 0.0386,0 0.0578,0.0259 0.0578,0.0772 0,0.045 -0.0806,0.0836 -0.2414,0.1159 -0.1158,0.0191 -0.2155,0.0288 -0.2991,0.0288 -0.0513,0 -0.1799,0.2718 -0.386,0.8137 -0.1091,0.2654 -0.2219,0.5259 -0.3377,0.7849 -0.1672,0.4133 -0.2508,0.6577 -0.2508,0.7367 0,0.1156 0.0836,0.18 0.2508,0.1928 -0.0255,0 0.0967,0 0.3669,0 0.0255,0 0.0386,0.0209 0.0386,0.0644 0,0.0723 -0.1642,0.1094 -0.4921,0.1094 -0.1031,0 -0.2383,-0.021 -0.4055,-0.0629 -0.1672,-0.0416 -0.2894,-0.0626 -0.3666,-0.0626 -0.0708,0 -0.1672,0.0194 -0.2894,0.058 -0.1224,0.0386 -0.2091,0.0611 -0.2607,0.0675 -0.0192,-0.013 -0.0289,-0.0355 -0.0289,-0.0675 0,0 0.0708,-0.0483 0.2124,-0.1449 0.1864,-0.1222 0.3377,-0.2927 0.4535,-0.5113 0.3475,-0.669 0.656,-1.3444 0.9262,-2.0265 -0.1413,-0.0128 -0.4179,-0.0675 -0.8298,-0.1638 -0.3793,-0.0903 -0.6368,-0.1353 -0.772,-0.1353 -0.0514,0 -0.1125,-0.006 -0.1833,-0.0192 -0.373,0.849 -0.7171,1.4667 -1.0325,1.8527 -0.6691,0.8106 -1.3925,1.2158 -2.1709,1.2158 -0.4183,0 -0.7302,-0.0805 -0.9362,-0.2413 -0.2444,-0.1866 -0.3666,-0.3763 -0.3666,-0.5693 0,-0.0322 0.01,-0.0611 0.0289,-0.0869 0.0902,0.1221 0.1769,0.2446 0.2608,0.3668 0.2185,0.238 0.4985,0.3569 0.8392,0.3569 0.6435,0 1.2192,-0.3216 1.7274,-0.9648 0.1222,-0.1544 0.3183,-0.4568 0.5885,-0.907 0.3088,-0.5082 0.4632,-0.8137 0.4632,-0.9168 0,-0.0386 -0.0128,-0.058 -0.0386,-0.058 -0.0514,0 -0.1271,0.0179 -0.2268,0.0532 -0.0997,0.0353 -0.1753,0.0532 -0.2267,0.0532 -0.045,0 -0.0675,-0.0225 -0.0675,-0.0678 0,-0.1028 0.2186,-0.1864 0.656,-0.2508 0.3796,-0.8362 0.8395,-1.5277 1.3799,-2.0745 z m 2.1098,4.2554 c 0,-0.4826 0.2894,-0.9039 0.8684,-1.2641 0.5149,-0.3216 1.0295,-0.4824 1.5441,-0.4824 0.3152,0 0.4727,0.1383 0.4727,0.4149 0,0.1544 -0.0739,0.3377 -0.2234,0.5499 -0.1304,0.1866 -0.2703,0.3313 -0.4183,0.4343 -0.3377,0.238 -0.7526,0.3569 -1.2462,0.3569 -0.1562,0 -0.2879,-0.0128 -0.3991,-0.0386 0,0.2057 0.0887,0.3924 0.2638,0.5598 0.1754,0.1672 0.3669,0.2508 0.5742,0.2508 0.2413,0 0.4842,-0.0644 0.7317,-0.193 0.2461,-0.1286 0.3571,-0.193 0.3313,-0.193 0.0322,0 0.0483,0.0194 0.0483,0.058 0,0.1092 -0.1866,0.2541 -0.5596,0.4341 -0.2252,0.1094 -0.5052,0.1641 -0.8395,0.1641 -0.3216,0 -0.5934,-0.0966 -0.8155,-0.2896 -0.2219,-0.1928 -0.3329,-0.4471 -0.3329,-0.7621 z m 2.3448,-1.2158 c 0,-0.1739 -0.1383,-0.2608 -0.4149,-0.2608 -0.2894,0 -0.5837,0.1401 -0.8828,0.4198 -0.2991,0.2799 -0.4489,0.5614 -0.4489,0.8444 0.0258,0 0.0757,0.008 0.1498,0.024 0.0739,0.0161 0.1301,0.0243 0.1688,0.0243 0.3665,0 0.6754,-0.0997 0.9264,-0.2991 0.3344,-0.2638 0.5016,-0.5146 0.5016,-0.7526 z m 3.1599,2.2675 h -0.7237 c -0.045,0 -0.0675,-0.013 -0.0675,-0.0386 0,-0.006 0.01,-0.0516 0.0289,-0.1352 -0.2058,0.1158 -0.4468,0.1738 -0.7234,0.1738 -0.6177,0 -0.9265,-0.2735 -0.9265,-0.8203 0,-0.4697 0.3119,-0.9004 0.9359,-1.2928 0.5663,-0.3541 1.1,-0.531 1.6019,-0.531 0.4824,0 0.7945,0.0547 0.9359,0.1641 -0.3344,0.5146 -0.5435,0.846 -0.6271,0.994 -0.2638,0.4696 -0.3958,0.8201 -0.3958,1.0517 0,0.1738 0.0645,0.2605 0.193,0.2605 0.1417,0 0.2447,-0.0675 0.3089,-0.2025 0.0644,-0.1352 0.0997,-0.2027 0.1061,-0.2027 0.0516,0 0.0772,0.0194 0.0772,0.058 0,0.1028 -0.0514,0.2186 -0.1545,0.3472 -0.0705,0.0902 -0.1544,0.1449 -0.2507,0.1641 -0.0386,0.006 -0.1447,0.01 -0.3186,0.01 z m -1.814,-0.8684 c 0,0.3988 0.19,0.5982 0.5693,0.5982 0.4052,0 0.7207,-0.2669 0.9456,-0.8009 0.1158,-0.2702 0.3636,-0.7237 0.7432,-1.3605 -0.0644,-0.0259 -0.1289,-0.0387 -0.193,-0.0387 -0.3988,0 -0.8332,0.1672 -1.3028,0.5019 -0.5082,0.3538 -0.7623,0.7204 -0.7623,1.1 z m 6.198,-4.8055 c 0.1222,0 0.2523,0.0419 0.3909,0.1255 0.1383,0.0836 0.2073,0.1833 0.2073,0.2991 0,0.0516 -0.0192,0.0772 -0.0578,0.0772 0.006,0 -0.0419,-0.0547 -0.1449,-0.1639 -0.1028,-0.1094 -0.2316,-0.1641 -0.3858,-0.1641 -0.3282,0 -0.637,0.4341 -0.9264,1.3043 -0.0128,0.0337 -0.2669,0.7027 -0.7623,2.0119 -0.4183,1.0951 -0.6271,1.6982 -0.6271,1.8076 0,0.1222 0.0353,0.1897 0.1061,0.2025 -0.0322,0 0.048,0 0.241,0 0.0323,0 0.0484,0.0112 0.0484,0.0355 0,0.0915 -0.1158,0.1383 -0.3475,0.1383 -0.0513,0 -0.1285,-0.005 -0.2316,-0.0146 -0.1027,-0.01 -0.1799,-0.0143 -0.2313,-0.0143 -0.0517,0 -0.1273,0.005 -0.2268,0.0143 -0.0997,0.01 -0.1753,0.0146 -0.2267,0.0146 -0.2897,0 -0.4344,-0.0404 -0.4344,-0.1222 0,-0.0291 0.0225,-0.0452 0.0675,-0.0516 0.0258,0 0.0693,0 0.1304,0 0.0611,0 0.0915,0 0.0915,0 0.0836,0 0.1675,-0.0417 0.2511,-0.1253 0.1349,-0.1416 0.4085,-0.7301 0.8201,-1.766 0.4824,-1.2158 0.759,-1.8912 0.8298,-2.0262 0.251,-0.5018 0.4343,-0.8331 0.5501,-0.9939 0.2766,-0.3924 0.566,-0.5887 0.8684,-0.5887 z m 0.9502,3.107 c 0,0.0708 -0.1735,0.1094 -0.521,0.1158 -0.3604,0.9392 -0.7751,1.618 -1.2449,2.0362 0.0452,0 0.1224,0.0113 0.2316,0.0337 0.1094,0.0225 0.193,0.0338 0.251,0.0338 0.0258,0 0.0627,-0.005 0.111,-0.0146 0.048,-0.009 0.0851,-0.0143 0.1109,-0.0143 0.0258,0 0.0386,0.0192 0.0386,0.0578 0,0.0966 -0.0644,0.1769 -0.193,0.2413 -0.103,0.0514 -0.2091,0.0772 -0.3185,0.0772 -0.0514,0 -0.1301,-0.0112 -0.2365,-0.0337 -0.1061,-0.0225 -0.1879,-0.0338 -0.2459,-0.0338 -0.045,0 -0.0933,0.0113 -0.1447,0.0338 -0.0514,0.0225 -0.0772,0.0337 -0.0772,0.0337 -0.0258,0 -0.0386,-0.0161 -0.0386,-0.0483 0,-0.0128 0.0225,-0.0514 0.0675,-0.1158 0.103,-0.148 0.3185,-0.5307 0.6465,-1.1484 0.341,-0.6495 0.5115,-1.0228 0.5115,-1.1191 0,-0.0195 -0.0565,-0.0371 -0.1689,-0.0532 -0.1125,-0.0161 -0.1688,-0.0304 -0.1688,-0.0435 0,-0.0319 0.032,-0.0641 0.0964,-0.0964 0.3216,-0.148 0.6979,-0.6015 1.1289,-1.3605 0.0517,-0.0966 0.1514,-0.2316 0.2991,-0.4052 0.1675,-0.2124 0.2799,-0.3185 0.338,-0.3185 0.0319,0 0.048,0.0128 0.048,0.0386 0,-0.006 -0.0386,0.0419 -0.1158,0.1447 -0.1799,0.238 -0.4663,0.8717 -0.8587,1.9009 0.2122,0 0.3538,0.0128 0.4247,0.0386 0.0191,0.006 0.0288,0.0128 0.0288,0.0192 z"
         style="fill:#00aa91;fill-rule:evenodd"
         id="path27" />
      <path
         d="m 480.148,420.8933 c 0.18,0 0.328,0.0611 0.4438,0.1833 0.1158,0.1222 0.1738,0.2736 0.1738,0.4535 0,0.2189 -0.1385,0.5438 -0.4151,0.9748 -0.2766,0.4308 -0.4149,0.6785 -0.4149,0.7429 0,0.1158 0.0483,0.1736 0.1449,0.1736 0.1158,0 0.2186,-0.0611 0.3086,-0.1833 0.0516,-0.006 0.0772,0.01 0.0772,0.0483 0,0.09 -0.0772,0.1672 -0.2314,0.2316 -0.1288,0.0514 -0.2446,0.0772 -0.3474,0.0772 -0.0644,0 -0.1562,-0.006 -0.2751,-0.0194 -0.1191,-0.0128 -0.2106,-0.0192 -0.275,-0.0192 -0.0514,0 -0.1255,0.006 -0.2219,0.0192 -0.0964,0.013 -0.1705,0.0194 -0.2219,0.0194 -0.148,0 -0.2219,-0.0355 -0.2219,-0.1061 0,-0.0386 0.0319,-0.058 0.0964,-0.058 0.1738,0 0.3152,-0.0626 0.4246,-0.1848 0.1672,-0.1867 0.3796,-0.4875 0.6368,-0.9007 0.2896,-0.4711 0.4343,-0.7912 0.4343,-0.9586 0,-0.2137 -0.0933,-0.3201 -0.2799,-0.3201 -0.3988,0 -0.8781,0.272 -1.4377,0.8155 -0.5596,0.5435 -0.8396,1.0083 -0.8396,1.3943 0,0.0966 0.0581,0.1447 0.1739,0.1447 0.0705,0 0.1575,-0.045 0.2605,-0.135 0.1027,-0.09 0.1672,-0.135 0.193,-0.135 0.0256,0 0.0386,0.0192 0.0386,0.0563 0,0.1012 -0.0724,0.1912 -0.2173,0.2699 -0.1447,0.079 -0.2748,0.1176 -0.3906,0.1176 -0.0581,0 -0.1401,0 -0.2462,0 -0.1061,0 -0.1882,0 -0.2459,0 -0.0581,0 -0.1465,0 -0.2654,0 -0.1191,0 -0.2076,0 -0.2656,0 -0.225,0 -0.3374,-0.0611 -0.3374,-0.1833 0,-0.0516 0.0224,-0.0772 0.0674,-0.0772 0,0 0.0225,0.0143 0.0675,0.0432 0.045,0.0292 0.0933,0.0435 0.1447,0.0435 0.148,0 0.3666,-0.2508 0.6563,-0.7526 0.3343,-0.5982 0.6656,-1.1964 0.9939,-1.7946 0.5146,-0.8815 0.9842,-1.5633 1.4086,-2.0457 0.579,-0.6562 1.1033,-0.9842 1.5729,-0.9842 0.1994,0 0.3684,0.0739 0.5067,0.2219 0.1383,0.1478 0.2073,0.3216 0.2073,0.521 0,0.0386 -0.0289,0.0578 -0.0866,0.0578 -0.0386,0 -0.0742,-0.0547 -0.1064,-0.1639 -0.0322,-0.1416 -0.0739,-0.2413 -0.1252,-0.2991 -0.0839,-0.1094 -0.2189,-0.1641 -0.4055,-0.1641 -0.4888,0 -1.0517,0.5113 -1.6885,1.5341 -0.4118,0.7334 -0.8203,1.4669 -1.2255,2.2 l 0.0194,0.0195 c 0.463,-0.3347 0.7332,-0.5244 0.8104,-0.5693 0.341,-0.2058 0.6498,-0.3089 0.9264,-0.3089 z m 1.087,1.6116 c 0,-0.4568 0.1833,-0.8428 0.5499,-1.1581 0.3474,-0.3024 0.7559,-0.4535 1.2255,-0.4535 0.0836,0 0.2091,0.0128 0.3763,0.0386 0.1672,0.0259 0.2927,0.0386 0.3763,0.0386 0.045,0 0.0982,-0.0127 0.1593,-0.0386 0.0611,-0.0258 0.1046,-0.0386 0.1301,-0.0386 0.103,0 0.1544,0.1256 0.1544,0.3763 0,0.1481 -0.0498,0.2815 -0.1495,0.4006 -0.0997,0.1189 -0.2235,0.1785 -0.3715,0.1785 -0.2316,0 -0.3474,-0.0581 -0.3474,-0.1739 0,-0.0191 0.0611,-0.0626 0.1833,-0.1301 0.1225,-0.0675 0.1836,-0.1593 0.1836,-0.2751 0,-0.1349 -0.1994,-0.2027 -0.5985,-0.2027 -0.328,0 -0.6319,0.1401 -0.9119,0.4198 -0.2796,0.2799 -0.4197,0.5839 -0.4197,0.9119 0,0.238 0.0677,0.4471 0.2027,0.6273 0.1544,0.1994 0.3441,0.2991 0.5693,0.2991 0.2058,0 0.4118,-0.0644 0.6176,-0.193 0.135,-0.09 0.2733,-0.2155 0.4149,-0.3763 0.1222,-0.1286 0.1833,-0.193 0.1833,-0.193 0.0386,0 0.0581,0.0161 0.0581,0.0483 0,0.0642 -0.1319,0.2316 -0.3958,0.5018 -0.3088,0.3216 -0.6723,0.4824 -1.0903,0.4824 -0.3216,0 -0.5854,-0.1015 -0.7912,-0.3039 -0.206,-0.2028 -0.3088,-0.4648 -0.3088,-0.7864 z m 5.5239,1.0903 h -0.7237 c -0.045,0 -0.0675,-0.013 -0.0675,-0.0386 0,-0.006 0.01,-0.0516 0.0289,-0.1352 -0.2058,0.1158 -0.4469,0.1738 -0.7235,0.1738 -0.6176,0 -0.9264,-0.2735 -0.9264,-0.8203 0,-0.4697 0.3118,-0.9004 0.9359,-1.2928 0.5662,-0.3541 1.1,-0.531 1.6018,-0.531 0.4824,0 0.7945,0.0547 0.9359,0.1641 -0.3344,0.5146 -0.5435,0.846 -0.6271,0.994 -0.2638,0.4696 -0.3957,0.8201 -0.3957,1.0517 0,0.1738 0.0644,0.2605 0.193,0.2605 0.1416,0 0.2446,-0.0675 0.3088,-0.2025 0.0644,-0.1352 0.0997,-0.2027 0.1061,-0.2027 0.0516,0 0.0772,0.0194 0.0772,0.058 0,0.1028 -0.0514,0.2186 -0.1544,0.3472 -0.0706,0.0902 -0.1544,0.1449 -0.2508,0.1641 -0.0386,0.006 -0.1447,0.01 -0.3185,0.01 z m -1.814,-0.8684 c 0,0.3988 0.1899,0.5982 0.5693,0.5982 0.4054,0 0.7206,-0.2669 0.9456,-0.8009 0.1158,-0.2702 0.3635,-0.7237 0.7431,-1.3605 -0.0644,-0.0259 -0.1288,-0.0387 -0.193,-0.0387 -0.3988,0 -0.8331,0.1672 -1.3027,0.5019 -0.5082,0.3538 -0.7623,0.7204 -0.7623,1.1 z m 3.6232,0.5113 c 0,0.1222 0.0547,0.1833 0.1641,0.1833 0.09,0 0.1638,-0.021 0.2219,-0.0627 0.0578,-0.0419 0.0997,-0.0626 0.1255,-0.0626 0.0256,0 0.0386,0.0225 0.0386,0.0675 0,0.0642 -0.0499,0.1189 -0.1498,0.1641 -0.0997,0.045 -0.1848,0.0675 -0.2556,0.0675 -0.0642,0 -0.1624,-0.006 -0.2943,-0.0194 -0.1319,-0.0128 -0.2301,-0.0192 -0.2942,-0.0192 -0.0581,0 -0.1447,0.006 -0.2605,0.0192 -0.1158,0.013 -0.2028,0.0194 -0.2605,0.0194 -0.1417,0 -0.2125,-0.0258 -0.2125,-0.0772 0,-0.0644 0.0806,-0.0966 0.2414,-0.0966 0.1608,0 0.3216,-0.1414 0.4824,-0.4244 0.2057,-0.3924 0.534,-0.9748 0.9842,-1.7465 -0.0322,0.006 -0.0997,0.0289 -0.2028,0.0675 -0.1027,0.0386 -0.1769,0.0577 -0.2219,0.0577 -0.0386,0 -0.0577,-0.0255 -0.0577,-0.0772 0,-0.045 0.1608,-0.1158 0.4824,-0.2122 0.3024,-0.0899 0.5018,-0.1352 0.5982,-0.1352 0.0772,0 0.1158,0.0161 0.1158,0.0483 0,0.0258 -0.0338,0.0869 -0.1013,0.1833 -0.0674,0.0967 -0.1078,0.1578 -0.1206,0.1836 l 0.0194,0.0191 c 0.3022,-0.2893 0.656,-0.4343 1.0612,-0.4343 0.3282,0 0.4923,0.1416 0.4923,0.4246 0,0.3025 -0.1641,0.4535 -0.4923,0.4535 -0.1156,0 -0.1736,-0.0255 -0.1736,-0.0772 0,-0.006 0.021,-0.0529 0.0629,-0.1398 0.0416,-0.0869 0.0626,-0.1559 0.0626,-0.2073 0,-0.1611 -0.0836,-0.2413 -0.251,-0.2413 -0.3216,0 -0.7028,0.2638 -1.1433,0.7912 -0.4407,0.5273 -0.661,0.9553 -0.661,1.2833 z m 2.5617,-0.6946 c 0,-0.4826 0.2894,-0.9039 0.8684,-1.2641 0.5147,-0.3216 1.0293,-0.4824 1.5439,-0.4824 0.3152,0 0.4729,0.1383 0.4729,0.4149 0,0.1544 -0.0741,0.3377 -0.2237,0.5499 -0.1301,0.1866 -0.2702,0.3313 -0.418,0.4343 -0.3377,0.238 -0.7528,0.3569 -1.2465,0.3569 -0.1559,0 -0.2878,-0.0128 -0.3988,-0.0386 0,0.2057 0.0885,0.3924 0.2639,0.5598 0.1751,0.1672 0.3665,0.2508 0.5741,0.2508 0.2411,0 0.484,-0.0644 0.7317,-0.193 0.2462,-0.1286 0.3571,-0.193 0.3313,-0.193 0.0322,0 0.0483,0.0194 0.0483,0.058 0,0.1092 -0.1866,0.2541 -0.5596,0.4341 -0.2252,0.1094 -0.5051,0.1641 -0.8395,0.1641 -0.3216,0 -0.5936,-0.0966 -0.8155,-0.2896 -0.2219,-0.1928 -0.3329,-0.4471 -0.3329,-0.7621 z m 2.3448,-1.2158 c 0,-0.1739 -0.1383,-0.2608 -0.4149,-0.2608 -0.2894,0 -0.5839,0.1401 -0.883,0.4198 -0.2991,0.2799 -0.4487,0.5614 -0.4487,0.8444 0.0259,0 0.0757,0.008 0.1496,0.024 0.0741,0.0161 0.1304,0.0243 0.169,0.0243 0.3666,0 0.6754,-0.0997 0.9262,-0.2991 0.3346,-0.2638 0.5018,-0.5146 0.5018,-0.7526 z m 1.4617,2.3061 c 0,0.1608 -0.0419,0.3408 -0.1255,0.5402 -0.0578,0.1352 -0.1705,0.3282 -0.3377,0.579 -0.1994,0.296 -0.3441,0.4438 -0.4343,0.4438 -0.0578,0 -0.0867,-0.0225 -0.0867,-0.0675 0,-0.0128 0.1222,-0.1769 0.3666,-0.4921 0.2444,-0.3152 0.3666,-0.5724 0.3666,-0.7718 0,-0.1608 -0.0915,-0.2574 -0.2748,-0.2896 -0.1833,-0.0322 -0.2751,-0.1222 -0.2751,-0.2702 0,-0.2314 0.1061,-0.3472 0.3185,-0.3472 0.1608,0 0.283,0.0772 0.3666,0.2316 0.0772,0.1286 0.1158,0.2764 0.1158,0.4438 z m 8.2434,-5.3457 -0.0289,-0.01 c -0.5918,0.0966 -0.9167,0.1447 -0.9745,0.1447 -0.193,0 -0.4665,-0.045 -0.8203,-0.135 -0.3538,-0.0902 -0.5982,-0.1352 -0.7332,-0.1352 -0.193,0 -0.3732,0.0772 -0.5404,0.2316 -0.0772,0.0772 -0.1544,0.1577 -0.2316,0.2413 -0.0192,-0.0194 -0.0289,-0.0386 -0.0289,-0.058 0,-0.18 0.1189,-0.3584 0.3569,-0.5356 0.238,-0.1766 0.4504,-0.2651 0.637,-0.2651 0.2122,0 0.5259,0.0578 0.9408,0.1736 0.4149,0.1158 0.7283,0.1736 0.9407,0.1736 0.0836,0 0.2058,-0.0161 0.3666,-0.0481 0.1608,-0.0322 0.2833,-0.0483 0.3669,-0.0483 0.0577,0 0.0866,0.0192 0.0866,0.0578 0,0 -0.1061,0.1738 -0.3182,0.5212 -0.4697,0.7782 -0.7463,1.37 -0.8301,1.7754 0.1158,0 0.2863,0.0241 0.5115,0.0724 0.2252,0.0483 0.3763,0.0723 0.4535,0.0723 0.0772,0 0.1994,0.0259 0.3666,0.0772 0.1675,0.0514 0.2927,0.0772 0.3766,0.0772 0.0319,0 0.0675,-0.006 0.1061,-0.0194 0.386,-0.9262 0.624,-1.4699 0.714,-1.6305 0.386,-0.6692 0.817,-1.0036 1.293,-1.0036 0.09,0 0.2347,0.0371 0.4341,0.1109 0.2252,0.0821 0.3379,0.1593 0.3379,0.2332 0,0.0404 -0.0227,0.0611 -0.0677,0.0611 0.0194,0 -0.045,-0.0386 -0.193,-0.1158 -0.1478,-0.0772 -0.2894,-0.1158 -0.4244,-0.1158 -0.3088,0 -0.5984,0.2541 -0.8686,0.7623 -0.0192,0.0258 -0.1864,0.4149 -0.5016,1.1675 -0.1289,0.296 -0.1963,0.4857 -0.2027,0.5693 0.0127,0.0194 0.0386,0.0292 0.0772,0.0292 0.0386,0 0.0981,-0.008 0.1784,-0.0243 0.0805,-0.0161 0.1401,-0.0241 0.1787,-0.0241 0.0386,0 0.0578,0.0259 0.0578,0.0772 0,0.045 -0.0803,0.0836 -0.2414,0.1159 -0.1158,0.0191 -0.2152,0.0288 -0.2991,0.0288 -0.0513,0 -0.1799,0.2718 -0.386,0.8137 -0.1091,0.2654 -0.2219,0.5259 -0.3377,0.7849 -0.1672,0.4133 -0.2508,0.6577 -0.2508,0.7367 0,0.1156 0.0836,0.18 0.2508,0.1928 -0.0255,0 0.0967,0 0.3669,0 0.0255,0 0.0386,0.0209 0.0386,0.0644 0,0.0723 -0.1641,0.1094 -0.4921,0.1094 -0.1031,0 -0.238,-0.021 -0.4055,-0.0629 -0.1672,-0.0416 -0.2894,-0.0626 -0.3666,-0.0626 -0.0708,0 -0.1672,0.0194 -0.2894,0.058 -0.1221,0.0386 -0.2091,0.0611 -0.2607,0.0675 -0.0192,-0.013 -0.0289,-0.0355 -0.0289,-0.0675 0,0 0.0708,-0.0483 0.2124,-0.1449 0.1867,-0.1222 0.3377,-0.2927 0.4536,-0.5113 0.3474,-0.669 0.6559,-1.3444 0.9261,-2.0265 -0.1413,-0.0128 -0.4179,-0.0675 -0.8298,-0.1638 -0.3793,-0.0903 -0.6368,-0.1353 -0.772,-0.1353 -0.0514,0 -0.1125,-0.006 -0.1833,-0.0192 -0.373,0.849 -0.7171,1.4667 -1.0323,1.8527 -0.6692,0.8106 -1.3927,1.2158 -2.1711,1.2158 -0.4183,0 -0.7301,-0.0805 -0.9362,-0.2413 -0.2444,-0.1866 -0.3666,-0.3763 -0.3666,-0.5693 0,-0.0322 0.01,-0.0611 0.0289,-0.0869 0.0902,0.1221 0.1769,0.2446 0.2608,0.3668 0.2185,0.238 0.4985,0.3569 0.8392,0.3569 0.6435,0 1.2192,-0.3216 1.7274,-0.9648 0.1222,-0.1544 0.3185,-0.4568 0.5885,-0.907 0.3088,-0.5082 0.4632,-0.8137 0.4632,-0.9168 0,-0.0386 -0.0128,-0.058 -0.0386,-0.058 -0.0514,0 -0.1271,0.0179 -0.2268,0.0532 -0.0997,0.0353 -0.1753,0.0532 -0.2267,0.0532 -0.045,0 -0.0675,-0.0225 -0.0675,-0.0678 0,-0.1028 0.2186,-0.1864 0.6562,-0.2508 0.3794,-0.8362 0.8393,-1.5277 1.3797,-2.0745 z m 2.6986,4.622 c 0,0.341 0.1255,0.5113 0.3763,0.5113 0.3024,0 0.5532,-0.1028 0.7526,-0.3086 0.1222,-0.1224 0.2766,-0.3571 0.4632,-0.7045 0.1222,-0.2316 0.3055,-0.5724 0.5499,-1.0229 -0.0256,0.006 -0.0803,0.021 -0.1639,0.0435 -0.0836,0.0225 -0.148,0.0338 -0.193,0.0338 -0.0322,0 -0.0483,-0.0192 -0.0483,-0.0578 0.006,-0.0131 0.0258,-0.0292 0.0578,-0.0483 0.0902,-0.045 0.2477,-0.1158 0.4729,-0.2125 0.2574,-0.1027 0.4149,-0.1544 0.4727,-0.1544 0.0516,0 0.0772,0.0161 0.0772,0.0483 0,0.0514 -0.1767,0.4022 -0.5307,1.0517 -0.3536,0.6483 -0.5307,1.0344 -0.5307,1.1581 0,0.1028 0.0419,0.1608 0.1255,0.1736 -0.0578,0 0.0194,0 0.2316,0 0.0514,0 0.0772,0.0176 0.0772,0.0516 0,0.0818 -0.09,0.1222 -0.2702,0.1222 -0.0642,0 -0.1623,-0.01 -0.2943,-0.0289 -0.1319,-0.0194 -0.23,-0.0291 -0.2942,-0.0291 -0.0322,0 -0.0757,0.01 -0.1304,0.0291 -0.0547,0.0192 -0.0981,0.0289 -0.1301,0.0289 -0.0322,0 -0.0483,-0.0161 -0.0483,-0.0483 0,-0.0258 0.0322,-0.0933 0.0964,-0.2027 l -0.0192,-0.0192 c -0.2638,0.18 -0.5468,0.2702 -0.8492,0.2702 -0.2186,0 -0.3988,-0.0547 -0.5405,-0.1641 -0.1413,-0.1094 -0.2122,-0.2702 -0.2122,-0.4824 0,-0.2316 0.09,-0.5018 0.2703,-0.8106 0.1544,-0.2444 0.3054,-0.4922 0.4535,-0.7429 -0.0386,0.006 -0.1125,0.0304 -0.2219,0.0723 -0.1094,0.0417 -0.193,0.0626 -0.2511,0.0626 -0.0322,0 -0.048,-0.0258 -0.048,-0.0772 0,-0.0191 0.0866,-0.0641 0.2605,-0.1349 0.5274,-0.2189 0.8265,-0.3283 0.8973,-0.3283 0.045,0 0.0675,0.0225 0.0675,0.0678 0,0.0386 -0.1542,0.3152 -0.463,0.8298 -0.3088,0.5146 -0.4632,0.8553 -0.4632,1.0228 z m 7.3284,-1.1772 c 0,-0.3538 -0.1511,-0.5307 -0.4535,-0.5307 -0.2188,0 -0.4568,0.1574 -0.714,0.4726 -0.0644,0.0839 -0.2349,0.338 -0.5115,0.7624 -0.2958,0.4568 -0.4438,0.7431 -0.4438,0.8589 0,0.0836 0.0578,0.1253 0.1736,0.1253 0.045,0 0.1078,-0.0289 0.1881,-0.0867 0.0805,-0.058 0.1337,-0.0869 0.1593,-0.0869 0.0386,0 0.0578,0.0176 0.0578,0.0514 0,0.0884 -0.0739,0.1626 -0.2219,0.2252 -0.1158,0.0465 -0.225,0.0708 -0.328,0.0708 -0.0514,0 -0.1271,-0.01 -0.2268,-0.0289 -0.0997,-0.0194 -0.1754,-0.0291 -0.2267,-0.0291 -0.0386,0 -0.0918,0.01 -0.1593,0.0291 -0.0675,0.0192 -0.1204,0.0289 -0.159,0.0289 -0.0453,0 -0.0678,-0.0225 -0.0678,-0.0675 0,0.0192 0.1994,-0.2799 0.5985,-0.8975 0.3988,-0.6174 0.5982,-1.0259 0.5982,-1.2253 0,-0.1866 -0.0836,-0.28 -0.251,-0.28 -0.27,0 -0.6271,0.2864 -1.0709,0.8587 -0.4441,0.5727 -0.666,0.994 -0.666,1.2642 0,0.09 0.0289,0.135 0.087,0.135 0.0386,0 0.0836,-0.0225 0.1349,-0.0675 0.0517,-0.045 0.087,-0.0675 0.1061,-0.0675 0.0386,0 0.0581,0.0176 0.0581,0.0514 0,0.0741 -0.0563,0.1431 -0.169,0.2042 -0.1125,0.0611 -0.2073,0.0918 -0.2846,0.0918 -0.0772,0 -0.1881,-0.01 -0.3328,-0.0289 -0.1449,-0.0194 -0.2559,-0.0291 -0.3331,-0.0291 -0.0256,0 -0.0675,0.005 -0.1253,0.0146 -0.058,0.01 -0.0997,0.0145 -0.1255,0.0145 -0.09,0 -0.135,-0.0194 -0.135,-0.058 0,-0.0578 0.0578,-0.0869 0.1736,-0.0869 0.1544,0 0.4149,-0.3183 0.7815,-0.9551 0.0708,-0.1288 0.2799,-0.5243 0.6274,-1.1869 -0.3089,0.0577 -0.4599,0.0869 -0.4535,0.0869 -0.0323,0 -0.0484,-0.0195 -0.0484,-0.0581 0,-0.0386 0.1608,-0.1076 0.4824,-0.2073 0.3219,-0.0999 0.5277,-0.1498 0.6177,-0.1498 0.0386,0 0.058,0.0194 0.058,0.058 0,0.0259 -0.0179,0.0788 -0.0532,0.1593 -0.0355,0.0803 -0.0562,0.1368 -0.0626,0.1687 l 0.0192,0.0195 c 0.3088,-0.3089 0.6176,-0.4633 0.9264,-0.4633 0.2508,0 0.431,0.1897 0.5402,0.5694 0.4054,-0.3797 0.7623,-0.5694 1.0711,-0.5694 0.4696,0 0.7046,0.2414 0.7046,0.7238 0,0.1994 -0.0903,0.431 -0.2703,0.6948 -0.1285,0.18 -0.2991,0.3763 -0.5115,0.5885 -0.18,0.1738 -0.2702,0.2605 -0.2702,0.2605 0,0.058 0.0869,0.0869 0.2605,0.0869 0.148,0 0.3313,-0.0578 0.5501,-0.1736 0.0386,0 0.0578,0.0159 0.0578,0.0481 0,0.103 -0.0803,0.2076 -0.2411,0.3136 -0.1608,0.1061 -0.296,0.1593 -0.4054,0.1593 -0.0578,0 -0.1399,-0.013 -0.2459,-0.0386 -0.1061,-0.0258 -0.1849,-0.0386 -0.2365,-0.0386 -0.0256,0 -0.0642,0.003 -0.1158,0.01 -0.0514,0.006 -0.09,0.01 -0.1158,0.01 -0.0256,0 -0.0386,-0.0161 -0.0386,-0.0481 0,-0.013 0.0902,-0.1191 0.2702,-0.3185 0.2188,-0.238 0.386,-0.4535 0.5018,-0.6465 0.1802,-0.2894 0.2702,-0.5532 0.2702,-0.7912 z m 3.3916,1.8623 h -0.7237 c -0.045,0 -0.0678,-0.013 -0.0678,-0.0386 0,-0.006 0.01,-0.0516 0.0292,-0.1352 -0.2058,0.1158 -0.4471,0.1738 -0.7237,0.1738 -0.6177,0 -0.9265,-0.2735 -0.9265,-0.8203 0,-0.4697 0.3122,-0.9004 0.9362,-1.2928 0.566,-0.3541 1.1,-0.531 1.6016,-0.531 0.4826,0 0.7945,0.0547 0.9361,0.1641 -0.3346,0.5146 -0.5437,0.846 -0.6273,0.994 -0.2636,0.4696 -0.3955,0.8201 -0.3955,1.0517 0,0.1738 0.0642,0.2605 0.193,0.2605 0.1414,0 0.2444,-0.0675 0.3086,-0.2025 0.0644,-0.1352 0.0999,-0.2027 0.1063,-0.2027 0.0514,0 0.0772,0.0194 0.0772,0.058 0,0.1028 -0.0516,0.2186 -0.1544,0.3472 -0.0708,0.0902 -0.1544,0.1449 -0.251,0.1641 -0.0386,0.006 -0.1447,0.01 -0.3183,0.01 z m -1.814,-0.8684 c 0,0.3988 0.1897,0.5982 0.5693,0.5982 0.4052,0 0.7204,-0.2669 0.9454,-0.8009 0.1158,-0.2702 0.3635,-0.7237 0.7431,-1.3605 -0.0644,-0.0259 -0.1286,-0.0387 -0.193,-0.0387 -0.3988,0 -0.8331,0.1672 -1.3027,0.5019 -0.508,0.3538 -0.7621,0.7204 -0.7621,1.1 z m 5.7941,-1.1292 c 0,-0.2894 -0.1286,-0.434 -0.386,-0.434 -0.4502,0 -0.9393,0.4726 -1.4666,1.4185 -0.2122,0.3794 -0.3186,0.6238 -0.3186,0.7332 0,0.0708 0.0356,0.1061 0.1064,0.1061 0.045,0 0.0948,-0.0274 0.1495,-0.0821 0.0545,-0.0544 0.0915,-0.0818 0.111,-0.0818 0.045,0 0.0675,0.0256 0.0675,0.0772 0,0.0514 -0.0596,0.1076 -0.1785,0.1687 -0.1191,0.0611 -0.2076,0.0918 -0.2653,0.0918 -0.0517,0 -0.1289,-0.006 -0.2316,-0.0194 -0.1031,-0.0128 -0.1803,-0.0192 -0.2317,-0.0192 -0.0516,0 -0.1303,0.006 -0.2364,0.0192 -0.1061,0.013 -0.1851,0.0194 -0.2365,0.0194 -0.09,0 -0.135,-0.013 -0.135,-0.0386 0,-0.045 0.0757,-0.0918 0.2268,-0.1401 0.1511,-0.048 0.2684,-0.1462 0.3523,-0.2942 0.1991,-0.3924 0.5015,-0.9779 0.907,-1.756 -0.0453,0.006 -0.1255,0.0273 -0.2413,0.0626 -0.1159,0.0353 -0.2058,0.0532 -0.2703,0.0532 -0.0322,0 -0.0483,-0.0161 -0.0483,-0.0483 0,-0.0386 0.148,-0.1128 0.4441,-0.2219 0.1799,-0.0645 0.3602,-0.1289 0.5404,-0.193 0.1092,-0.045 0.1736,-0.0678 0.1927,-0.0678 0.0386,0 0.0581,0.0228 0.0581,0.0678 0,0.0255 -0.0177,0.0802 -0.0532,0.1638 -0.0353,0.0839 -0.0562,0.1416 -0.0626,0.1739 0.135,-0.1031 0.3024,-0.2028 0.5018,-0.2991 0.2314,-0.1095 0.4149,-0.1642 0.5499,-0.1642 0.4632,0 0.6948,0.2122 0.6948,0.6368 0,0.2317 -0.09,0.4858 -0.2702,0.7624 -0.1158,0.1802 -0.2799,0.3827 -0.4921,0.6079 -0.1802,0.193 -0.2702,0.296 -0.2702,0.3088 0,0.0772 0.0933,0.1158 0.2799,0.1158 0.0386,0 0.0885,-0.0113 0.1496,-0.0337 0.0611,-0.0225 0.1076,-0.0338 0.1398,-0.0338 0.0514,0 0.0772,0.0128 0.0772,0.0386 0,0.0836 -0.0547,0.1544 -0.1641,0.2122 -0.1092,0.058 -0.2089,0.0869 -0.2991,0.0869 -0.045,0 -0.1158,-0.006 -0.2122,-0.0194 -0.0966,-0.0128 -0.1672,-0.0192 -0.2124,-0.0192 -0.0256,0 -0.0594,0.006 -0.1013,0.0192 -0.0417,0.013 -0.0757,0.0194 -0.1012,0.0194 -0.0708,0 -0.1061,-0.0194 -0.1061,-0.058 0,-0.0128 0.09,-0.135 0.27,-0.3666 0.2188,-0.2702 0.386,-0.5113 0.5018,-0.7237 0.1802,-0.3216 0.2702,-0.6046 0.2702,-0.8493 z m 3.0618,-0.241 c 0,-0.8429 0.3346,-1.6259 1.0036,-2.3496 0.6691,-0.7238 1.4217,-1.0857 2.2579,-1.0857 0.1094,0 0.2702,0.013 0.4826,0.0386 0.2122,0.0258 0.373,0.0386 0.4824,0.0386 0.1094,0 0.2702,-0.0128 0.4824,-0.0386 0.2124,-0.0256 0.3699,-0.0386 0.4729,-0.0386 0.1222,0 0.2219,0.0805 0.2991,0.2413 0.0578,0.1222 0.0867,0.2541 0.0867,0.3957 0,0.225 -0.0772,0.4341 -0.2316,0.6271 -0.1672,0.2124 -0.3602,0.3185 -0.5788,0.3185 -0.1094,0 -0.2285,-0.0291 -0.3571,-0.0869 -0.1544,-0.0644 -0.2316,-0.148 -0.2316,-0.2508 0,-0.0386 0.013,-0.058 0.0386,-0.058 0,0 0.0434,0.0371 0.1304,0.1109 0.0869,0.0742 0.1817,0.111 0.2845,0.111 0.1352,0 0.2477,-0.0675 0.3379,-0.2025 0.0706,-0.1158 0.1061,-0.2477 0.1061,-0.3957 0,-0.3988 -0.1191,-0.5982 -0.3571,-0.5982 -0.0514,0 -0.1286,0.006 -0.2316,0.0192 -0.1028,0.013 -0.18,0.0194 -0.2316,0.0194 -0.1028,0 -0.2605,-0.013 -0.4727,-0.0386 -0.2124,-0.0258 -0.3732,-0.0386 -0.4824,-0.0386 -0.6948,0 -1.3286,0.373 -1.9009,1.1192 -0.5405,0.6948 -0.8107,1.3991 -0.8107,2.1134 0,0.624 0.1705,1.1289 0.5113,1.5149 0.341,0.386 0.8204,0.5788 1.438,0.5788 0.5788,0 1.066,-0.2043 1.4617,-0.6128 0.3958,-0.4083 0.5934,-0.9052 0.5934,-1.4906 0,-0.0645 -0.0113,-0.1578 -0.0338,-0.28 -0.0225,-0.1222 -0.0337,-0.2155 -0.0337,-0.2796 0,-0.0517 0.0161,-0.0772 0.0483,-0.0772 0.0772,0 0.1544,0.1188 0.2316,0.3568 0.0642,0.1994 0.0964,0.3538 0.0964,0.4633 0,0.6176 -0.2669,1.1289 -0.8009,1.5343 -0.4888,0.373 -1.0517,0.5596 -1.6885,0.5596 -0.6821,0 -1.2481,-0.1994 -1.6983,-0.5982 -0.4696,-0.4182 -0.7045,-0.965 -0.7045,-1.6404 z m 7.6582,2.2386 h -0.7237 c -0.045,0 -0.0675,-0.013 -0.0675,-0.0386 0,-0.006 0.01,-0.0516 0.0289,-0.1352 -0.2058,0.1158 -0.4471,0.1738 -0.7237,0.1738 -0.6176,0 -0.9265,-0.2735 -0.9265,-0.8203 0,-0.4697 0.3122,-0.9004 0.9362,-1.2928 0.566,-0.3541 1.1,-0.531 1.6019,-0.531 0.4823,0 0.7942,0.0547 0.9359,0.1641 -0.3347,0.5146 -0.5435,0.846 -0.6274,0.994 -0.2636,0.4696 -0.3955,0.8201 -0.3955,1.0517 0,0.1738 0.0645,0.2605 0.193,0.2605 0.1414,0 0.2444,-0.0675 0.3089,-0.2025 0.0641,-0.1352 0.0997,-0.2027 0.106,-0.2027 0.0514,0 0.0773,0.0194 0.0773,0.058 0,0.1028 -0.0514,0.2186 -0.1545,0.3472 -0.0708,0.0902 -0.1544,0.1449 -0.251,0.1641 -0.0386,0.006 -0.1447,0.01 -0.3183,0.01 z m -1.814,-0.8684 c 0,0.3988 0.1897,0.5982 0.5693,0.5982 0.4052,0 0.7204,-0.2669 0.9456,-0.8009 0.1158,-0.2702 0.3636,-0.7237 0.7429,-1.3605 -0.0644,-0.0259 -0.1286,-0.0387 -0.193,-0.0387 -0.3988,0 -0.8329,0.1672 -1.3025,0.5019 -0.5082,0.3538 -0.7623,0.7204 -0.7623,1.1 z m 3.6229,0.5113 c 0,0.1222 0.0548,0.1833 0.1642,0.1833 0.0902,0 0.1641,-0.021 0.2219,-0.0627 0.058,-0.0419 0.0997,-0.0626 0.1255,-0.0626 0.0258,0 0.0386,0.0225 0.0386,0.0675 0,0.0642 -0.0499,0.1189 -0.1496,0.1641 -0.0997,0.045 -0.1848,0.0675 -0.2556,0.0675 -0.0644,0 -0.1626,-0.006 -0.2945,-0.0194 -0.1319,-0.0128 -0.2298,-0.0192 -0.2942,-0.0192 -0.0578,0 -0.1447,0.006 -0.2605,0.0192 -0.1158,0.013 -0.2028,0.0194 -0.2605,0.0194 -0.1417,0 -0.2122,-0.0258 -0.2122,-0.0772 0,-0.0644 0.0802,-0.0966 0.241,-0.0966 0.1608,0 0.3216,-0.1414 0.4824,-0.4244 0.2061,-0.3924 0.5341,-0.9748 0.9843,-1.7465 -0.032,0.006 -0.0997,0.0289 -0.2025,0.0675 -0.103,0.0386 -0.1769,0.0577 -0.2219,0.0577 -0.0386,0 -0.058,-0.0255 -0.058,-0.0772 0,-0.045 0.1608,-0.1158 0.4824,-0.2122 0.3024,-0.0899 0.5018,-0.1352 0.5984,-0.1352 0.0772,0 0.1158,0.0161 0.1158,0.0483 0,0.0258 -0.0337,0.0869 -0.1015,0.1833 -0.0675,0.0967 -0.1076,0.1578 -0.1206,0.1836 l 0.0194,0.0191 c 0.3024,-0.2893 0.6562,-0.4343 1.0614,-0.4343 0.328,0 0.4921,0.1416 0.4921,0.4246 0,0.3025 -0.1641,0.4535 -0.4921,0.4535 -0.1158,0 -0.1736,-0.0255 -0.1736,-0.0772 0,-0.006 0.0207,-0.0529 0.0627,-0.1398 0.0419,-0.0869 0.0626,-0.1559 0.0626,-0.2073 0,-0.1611 -0.0836,-0.2413 -0.2508,-0.2413 -0.3216,0 -0.7027,0.2638 -1.1435,0.7912 -0.4407,0.5273 -0.6611,0.9553 -0.6611,1.2833 z"
         style="fill:#00aa91;fill-rule:evenodd"
         id="path29" />
      <path
         d="m 535.6691,422.5435 c 0,-0.4826 0.2897,-0.9039 0.8684,-1.2641 0.5149,-0.3216 1.0295,-0.4824 1.5441,-0.4824 0.3152,0 0.4727,0.1383 0.4727,0.4149 0,0.1544 -0.0739,0.3377 -0.2234,0.5499 -0.1304,0.1866 -0.2703,0.3313 -0.4183,0.4343 -0.3377,0.238 -0.7526,0.3569 -1.2462,0.3569 -0.1562,0 -0.2879,-0.0128 -0.3988,-0.0386 0,0.2057 0.0884,0.3924 0.2635,0.5598 0.1754,0.1672 0.3669,0.2508 0.5742,0.2508 0.2413,0 0.4842,-0.0644 0.7317,-0.193 0.2461,-0.1286 0.3571,-0.193 0.3313,-0.193 0.0322,0 0.0483,0.0194 0.0483,0.058 0,0.1092 -0.1866,0.2541 -0.5596,0.4341 -0.2252,0.1094 -0.5052,0.1641 -0.8395,0.1641 -0.3216,0 -0.5934,-0.0966 -0.8155,-0.2896 -0.2219,-0.1928 -0.3329,-0.4471 -0.3329,-0.7621 z m 2.3448,-1.2158 c 0,-0.1739 -0.1383,-0.2608 -0.4149,-0.2608 -0.2894,0 -0.5837,0.1401 -0.8828,0.4198 -0.2991,0.2799 -0.4486,0.5614 -0.4486,0.8444 0.0255,0 0.0754,0.008 0.1495,0.024 0.0739,0.0161 0.1302,0.0243 0.1688,0.0243 0.3665,0 0.6754,-0.0997 0.9264,-0.2991 0.3344,-0.2638 0.5016,-0.5146 0.5016,-0.7526 z"
         style="fill:#00aa91;fill-rule:evenodd"
         id="path31" />
    </g>
  </g>
</svg>
