<svg width="213" height="68" viewBox="0 0 213 68" fill="none" xmlns="http://www.w3.org/2000/svg">
<path d="M62.3754 23.5694C62.224 24.3461 61.5024 26.093 60.2268 26.8858L60.0882 26.9728C59.6083 27.2532 57.2793 28.262 55.2209 27.7399C54.7892 27.6271 54.19 27.2822 53.7487 27.5626C53.6502 27.6336 53.5668 27.7234 53.5032 27.8269C53.4396 27.9303 53.3971 28.0454 53.3783 28.1653C53.2816 28.8615 54.1192 29.49 54.4477 29.7349C55.8265 30.7727 59.4504 31.1079 62.501 29.4126C65.4259 27.8011 67.9386 24.2785 67.6551 20.0661C67.3748 15.6571 64.1567 12.157 60.5457 11.1804C58.8899 10.7324 56.1035 10.4198 52.5246 12.3568C44.2942 16.8141 44.3458 31.0499 44.5616 35.3944C44.5701 35.5553 44.5452 35.7162 44.4886 35.8671C44.432 36.0179 44.3449 36.1555 44.2327 36.2711C44.1205 36.3866 43.9856 36.4778 43.8366 36.5388C43.6875 36.5998 43.5275 36.6293 43.3665 36.6256C42.8317 36.6256 42.2809 36.6256 41.6688 36.6256C41.524 36.6347 41.3788 36.6122 41.2435 36.5596C41.1081 36.5071 40.9858 36.4257 40.885 36.3212C40.7842 36.2166 40.7073 36.0914 40.6597 35.9542C40.612 35.817 40.5948 35.6711 40.609 35.5266C40.609 34.5274 40.5897 33.5154 40.5865 32.3938C40.5833 20.6269 36.5534 11.6026 31.9727 6.67472C27.45 1.80807 23.7488 0 16.3913 0C10.3868 0 5.30682 3.56136 3.32572 5.99468C2.91983 6.49424 -1.33873 12.0957 0.426547 19.2088C1.10987 21.9276 2.53391 24.4034 4.54015 26.3605C10.361 32.0103 18.5109 30.618 20.5629 30.1732C23.7552 29.4771 28.0879 27.5949 27.9719 26.1413C27.9443 25.8817 27.8159 25.6433 27.6143 25.4774C27.0248 25.0326 26.1035 25.6901 24.393 26.0414C23.7773 26.156 23.1538 26.2239 22.5279 26.2445C20.9604 26.2817 19.4089 25.9213 18.0181 25.197C16.343 24.2849 15.0319 22.2964 14.829 20.1499C14.5487 17.1751 16.4751 14.6386 18.5045 13.4784C21.9158 11.5253 26.2968 13.2914 28.0202 14.123C28.0202 14.123 37.8645 19.1443 38.0062 33.9441C38.0062 34.4469 38.0062 34.9561 37.9869 35.4814C37.9772 35.971 37.815 36.4453 37.523 36.8383C37.5013 36.8657 37.4776 36.8916 37.4522 36.9156C37.1816 37.1928 36.3473 37.6795 34.5723 37.9502C33.1766 38.1125 31.7913 38.3546 30.4233 38.6754L30.2944 38.7076C28.9591 39.0502 27.6448 39.4699 26.358 39.9645C25.9231 40.1321 25.4947 40.3126 25.0695 40.4931C22.5357 41.6563 20.1955 43.202 18.1308 45.0761C17.8957 45.2889 17.7249 45.4468 17.4866 45.6756C16.1175 47.055 13.4954 50.1104 13.0412 54.5452C12.9059 55.8795 12.5837 59.2507 14.6518 62.3415C17.9697 67.2629 24.3737 67.076 24.8923 67.0534C25.7653 67.0147 29.7661 66.831 32.7426 63.8305C32.7426 63.8305 38.2511 59.1765 40.4383 40.8283C40.4613 40.5044 40.5969 40.1988 40.8216 39.9645C41.1019 39.7035 41.4337 39.6906 42.0393 39.6423C43.9721 39.5037 44.2942 39.378 44.6486 39.6842C44.8508 39.8824 44.9821 40.1418 45.0222 40.4222C45.776 44.0222 46.1465 46.1687 46.6748 47.3805C47.2627 48.7976 48.0692 50.1135 49.065 51.2803C49.5643 51.8153 53.0497 55.5346 57.7206 54.716C58.6258 54.5548 61.5249 53.8845 63.068 51.2771C64.7462 48.4409 63.9184 44.8312 62.4849 42.675C59.7887 38.6045 53.6843 37.7343 49.6738 37.1606C49.4837 37.1348 49.3066 37.1122 49.1101 37.0671C48.9406 37.0294 48.7754 36.9743 48.6172 36.9027C48.4408 36.8168 48.2762 36.7085 48.1276 36.5805C47.8566 36.3475 47.6754 36.0272 47.6154 35.6748C47.6154 35.6748 47.6154 35.6458 47.6154 35.6426C47.3468 33.8186 47.2626 31.9722 47.3641 30.1313C47.4769 27.9784 47.6637 25.0165 49.2808 21.8032C50.041 20.2917 50.6724 19.0315 52.1059 17.9647C52.5311 17.6424 55.8297 15.2864 59.1186 16.8044C59.8679 17.1745 60.5354 17.6912 61.0815 18.3239C61.6277 18.9567 62.0413 19.6927 62.2981 20.4883C62.5472 21.4975 62.5736 22.5489 62.3754 23.5694ZM36.7789 45.9947C36.0431 48.6064 34.9597 51.1073 33.5576 53.43C32.53 55.1124 31.2834 56.7432 29.5535 57.6908C27.8237 58.6383 25.5301 58.7737 23.9517 57.5908C23.2099 57.0222 22.6684 56.232 22.4055 55.3348C22.0846 54.0921 22.1327 52.7828 22.544 51.5672C23.5974 48.0509 26.3548 45.2018 29.3828 43.2584C31.6478 41.804 34.1583 40.7742 36.7918 40.2192C37.1139 40.1483 37.5424 40.1192 37.7324 40.3996C37.8307 40.5904 37.8559 40.8104 37.8033 41.0185C37.5829 42.6999 37.2405 44.363 36.7789 45.9947ZM48.0374 39.2845C48.2178 39.1169 48.5334 39.191 48.6494 39.2168C56.5802 41.041 57.8688 45.0375 57.8688 45.0375C58.1406 45.6764 58.2125 46.3827 58.0751 47.0634C57.9376 47.744 57.5973 48.367 57.0989 48.8502C56.0101 49.8912 54.1739 50.3199 52.8435 49.5367C52.8435 49.5367 48.9393 47.8285 47.9214 39.8389C47.8987 39.7436 47.8973 39.6445 47.9173 39.5487C47.9374 39.4528 47.9784 39.3626 48.0374 39.2845Z" fill="url(#paint0_linear_89_4095)"/>
<path d="M98.0292 47.9416C97.6426 48.6829 96.7825 49.6207 94.882 50.0172C94.2072 50.1493 93.5208 50.213 92.8332 50.2073C87.8305 50.2073 87.9368 46.4622 87.9368 46.4622L87.8885 43.813C87.8885 42.743 87.8499 41.7664 87.8499 40.9123V37.0641C87.8499 35.0723 87.5793 33.7123 87.0317 32.971C86.484 32.2297 85.5885 31.8655 84.3386 31.8655C83.272 31.8687 82.22 32.1144 81.2623 32.5842C80.7255 32.8516 80.2126 33.1643 79.729 33.5189C79.3098 33.8201 78.9683 34.217 78.7331 34.6766C78.4978 35.1362 78.3754 35.6453 78.376 36.1617V40.9317C78.376 41.8309 78.376 42.8815 78.4018 44.0869C78.4276 45.2923 78.4308 46.4429 78.4501 47.5484V47.5645C78.4524 47.6896 78.497 47.8102 78.5765 47.9068C78.6561 48.0033 78.7659 48.0701 78.8882 48.0963L80.821 48.4766C80.9709 48.5061 81.1061 48.5862 81.204 48.7036C81.302 48.8209 81.3567 48.9683 81.3589 49.1212V49.6626C81.3581 49.8074 81.3 49.9459 81.1974 50.048C81.0948 50.15 80.956 50.2073 80.8113 50.2073H71.5179C71.3732 50.2073 71.2344 50.15 71.1318 50.048C71.0292 49.9459 70.9711 49.8074 70.9703 49.6626V49.1921C70.9706 49.0181 71.0321 48.8498 71.144 48.7167C71.2559 48.5835 71.4111 48.4939 71.5823 48.4637L73.718 48.0705C73.8427 48.0482 73.9558 47.9833 74.038 47.8869C74.1202 47.7905 74.1665 47.6686 74.169 47.5419C74.169 46.4365 74.2012 45.2859 74.2173 44.0805C74.2334 42.8751 74.2431 41.8244 74.2431 40.9252V22.7446C74.2399 22.4263 74.1212 22.12 73.909 21.8828C73.6968 21.6456 73.4057 21.4937 73.0899 21.4554L71.2956 21.2298C71.1385 21.2108 70.9938 21.1346 70.8892 21.0157C70.7847 20.8968 70.7275 20.7436 70.7287 20.5852V20.1759C70.7286 19.9989 70.7865 19.8268 70.8936 19.6859C71.0006 19.545 71.1509 19.4432 71.3214 19.3959L77.4869 17.6652C77.5705 17.6409 77.6581 17.6339 77.7445 17.6444C77.8308 17.6549 77.9142 17.6828 77.9895 17.7264L78.0764 17.7748C78.1792 17.8363 78.2634 17.9245 78.3201 18.0301C78.3768 18.1356 78.4039 18.2546 78.3986 18.3743L78.2182 24.2271V31.5851C78.2149 31.6708 78.2375 31.7556 78.2829 31.8283C78.3283 31.9011 78.3945 31.9586 78.4729 31.9933C78.5514 32.028 78.6384 32.0384 78.7227 32.0231C78.8071 32.0077 78.885 31.9675 78.9462 31.9074C79.7619 31.1321 80.6721 30.4629 81.6553 29.9156C83.0345 29.0996 84.6017 28.6554 86.2038 28.6265C88.0915 28.6265 89.5174 29.2592 90.4817 30.5248C91.4459 31.7903 91.927 33.8519 91.9248 36.7096V40.9317C91.9248 41.6278 91.9248 42.3992 91.9248 43.2457C91.9248 43.3295 91.9248 43.4133 91.9248 43.5004C91.9248 43.5874 91.9248 43.7066 91.9248 43.8226C91.9248 44.435 91.9474 44.9346 91.9538 45.2536C91.9591 45.7395 92.1181 46.2111 92.408 46.6008C92.7785 47.0746 93.4388 47.5355 94.6178 47.4839C96.3251 47.413 97.124 46.4816 97.4526 45.9305C97.4762 45.8889 97.5104 45.8544 97.5517 45.8303C97.593 45.8063 97.6399 45.7937 97.6877 45.7937C97.7355 45.7937 97.7824 45.8063 97.8237 45.8303C97.865 45.8544 97.8992 45.8889 97.9229 45.9305C98.1124 46.2281 98.2218 46.5696 98.2404 46.922C98.259 47.2744 98.1863 47.6256 98.0292 47.9416Z" fill="#3567B0"/>
<path d="M114.312 33.4685C113.434 31.9327 112.147 30.6709 110.595 29.8233C109.114 29.0109 107.452 28.585 105.763 28.585C104.074 28.585 102.412 29.0109 100.931 29.8233C99.3789 30.6709 98.092 31.9327 97.2138 33.4685C96.2646 35.0735 95.7889 37.061 95.7868 39.4309C95.7846 41.8009 96.2528 43.7658 97.1913 45.3257C98.0542 46.8463 99.3355 48.0869 100.883 48.9C102.397 49.6936 104.083 50.1041 105.792 50.0957C107.477 50.1009 109.136 49.6902 110.624 48.9C112.164 48.0771 113.443 46.8389 114.316 45.3257C115.265 43.7357 115.741 41.7708 115.743 39.4309C115.745 37.0911 115.268 35.1036 114.312 33.4685ZM109.87 46.0025C109.437 46.6898 108.832 47.252 108.115 47.6336C107.398 48.0151 106.594 48.2028 105.782 48.178C102.076 48.178 100.221 45.2623 100.219 39.4309C100.219 36.5324 100.695 34.3269 101.646 32.8142C102.084 32.1192 102.691 31.5465 103.41 31.1496C104.129 30.7527 104.937 30.5445 105.758 30.5445C106.58 30.5445 107.387 30.7527 108.106 31.1496C108.826 31.5465 109.432 32.1192 109.87 32.8142C110.852 34.3183 111.344 36.5238 111.346 39.4309C111.341 42.366 110.85 44.5565 109.87 46.0025Z" fill="#3567B0"/>
<path d="M132.677 43.8753C132.677 45.0079 132.333 46.1138 131.691 47.0467C130.748 48.3026 129.414 49.2096 127.9 49.625C126.394 50.0287 124.832 50.1768 123.277 50.0633C121.531 49.9828 119.621 49.6411 118.513 48.2875C117.817 47.4334 117.547 46.2925 117.518 45.1902C117.492 44.9123 117.526 44.6321 117.617 44.3684C117.72 44.1408 117.889 43.9496 118.103 43.8201C118.316 43.6907 118.563 43.629 118.813 43.6432C119.062 43.6636 119.302 43.7456 119.512 43.8817C119.721 44.0178 119.894 44.2039 120.014 44.4232C120.378 45.0678 120.282 45.8864 120.568 46.5729C120.746 46.94 121.004 47.2623 121.324 47.5156C121.643 47.769 122.016 47.9469 122.414 48.0361C123.209 48.2107 124.029 48.2456 124.836 48.1392C125.986 48.0458 127.211 47.8653 128.058 47.0886C128.551 46.6088 128.858 45.9704 128.927 45.2858C128.995 44.6013 128.82 43.9145 128.431 43.3467C128.002 42.8158 127.458 42.3894 126.84 42.0994C125.381 41.3356 123.77 40.9134 122.25 40.2817C120.729 39.65 119.238 38.7443 118.407 37.323C117.775 36.2194 117.568 34.9234 117.824 33.6779C118.003 32.7993 118.381 31.9735 118.929 31.2639C119.46 30.5784 120.131 30.0138 120.897 29.6073C121.655 29.2 122.471 28.9119 123.316 28.7532C124.174 28.589 125.049 28.5273 125.922 28.5695C126.244 28.5695 126.547 28.6082 126.856 28.6436C127.835 28.7132 128.784 29.0089 129.63 29.5074C130.114 29.8293 130.523 30.2513 130.831 30.745C131.138 31.2387 131.336 31.7926 131.411 32.3694C131.517 32.9954 131.372 33.6379 131.008 34.1581C130.817 34.408 130.545 34.5829 130.238 34.6524C129.931 34.7219 129.61 34.6816 129.33 34.5384C129.137 34.3878 128.977 34.1991 128.859 33.984C128.742 33.7689 128.67 33.532 128.647 33.2879C128.608 32.7991 128.499 32.3184 128.325 31.8601C127.816 30.8385 126.489 30.571 125.345 30.571C124.298 30.571 123.181 30.7289 122.379 31.4057C121.891 31.8425 121.572 32.4365 121.478 33.0843C121.383 33.7321 121.518 34.3927 121.86 34.9509C122.366 35.7212 123.223 36.1821 124.07 36.5399C125.461 37.1297 126.924 37.5357 128.303 38.1513C129.681 38.7669 131.005 39.621 131.846 40.8844C132.411 41.778 132.7 42.8183 132.677 43.8753Z" fill="#3567B0"/>
<path d="M154.035 33.6701C153.408 32.1823 152.376 30.9012 151.055 29.9734C149.822 29.1312 148.36 28.688 146.867 28.7035C145.514 28.7065 144.184 29.0537 143.002 29.7123C142.262 30.1253 141.581 30.6347 140.976 31.2271C140.918 31.2848 140.845 31.3246 140.765 31.342C140.686 31.3593 140.603 31.3533 140.526 31.3248C140.45 31.2963 140.383 31.2464 140.334 31.181C140.286 31.1157 140.257 31.0377 140.251 30.9564L140.144 29.6059C140.133 29.4605 140.088 29.3198 140.012 29.1954C139.935 29.071 139.831 28.9665 139.706 28.8905C139.599 28.8272 139.477 28.7938 139.352 28.7938C139.261 28.7931 139.172 28.8106 139.088 28.8453L133.721 31.1014C133.554 31.1722 133.412 31.2907 133.311 31.442C133.211 31.5933 133.158 31.7707 133.157 31.9523C133.157 32.21 133.252 32.4586 133.424 32.6507C133.596 32.8428 133.832 32.9647 134.088 32.9933L134.926 33.0867C135.361 33.1391 135.764 33.3462 136.059 33.6704C136.355 33.9946 136.524 34.4142 136.537 34.8529C136.537 35.1494 136.537 35.4298 136.559 35.7102C136.559 36.4612 136.582 37.4345 136.582 38.6109V50.8903C136.582 52.3922 136.582 53.907 136.559 55.425C136.559 55.7956 136.559 56.1695 136.543 56.5433C136.54 56.9097 136.409 57.2635 136.174 57.5444C135.939 57.8253 135.614 58.016 135.255 58.0839L133.856 58.3321C133.663 58.3669 133.488 58.4685 133.362 58.6194C133.236 58.7702 133.167 58.9606 133.167 59.1571C133.167 59.3922 133.26 59.6176 133.427 59.7839C133.593 59.9501 133.818 60.0435 134.053 60.0435H143.456C143.651 60.0467 143.842 59.9887 144.002 59.8777C144.162 59.7667 144.283 59.6082 144.348 59.4247C144.387 59.3104 144.4 59.1892 144.388 59.0693C144.375 58.9494 144.337 58.8335 144.276 58.7296C144.215 58.6257 144.132 58.5361 144.034 58.467C143.935 58.3978 143.823 58.3507 143.704 58.3288L141.842 58.0066C141.477 57.9465 141.145 57.7605 140.902 57.4809C140.66 57.2013 140.523 56.8457 140.515 56.4757C140.476 54.5548 140.458 52.6715 140.46 50.8258V48.9082C140.46 48.8083 140.489 48.7105 140.544 48.6266C140.598 48.5426 140.675 48.476 140.766 48.4346C140.857 48.3932 140.958 48.3788 141.056 48.393C141.155 48.4073 141.248 48.4496 141.323 48.515C141.734 48.8904 142.193 49.2081 142.689 49.4593C143.788 50.0145 145.002 50.3048 146.233 50.3069C147.833 50.3234 149.402 49.8659 150.743 48.992C152.141 48.0578 153.255 46.7565 153.964 45.2308C154.794 43.4281 155.2 41.4588 155.149 39.4746C155.149 37.2228 154.778 35.288 154.035 33.6701ZM149.203 45.885C148.723 46.4905 148.112 46.9791 147.417 47.314C146.721 47.649 145.958 47.8216 145.186 47.8188C144.074 47.8044 142.99 47.4686 142.064 46.8519H142.048C141.6 46.5683 141.231 46.1758 140.975 45.7108C140.719 45.2459 140.585 44.7237 140.586 44.193V35.288C140.587 34.7218 140.732 34.1651 141.007 33.6706C141.283 33.176 141.68 32.7599 142.161 32.4615C142.338 32.3551 142.506 32.2552 142.673 32.1682C143.566 31.6397 144.575 31.3397 145.611 31.2948C147.144 31.2948 148.404 32.0232 149.39 33.4799C150.375 34.9367 150.869 37.0434 150.871 39.8001C150.869 42.559 150.312 44.5873 149.2 45.885H149.203Z" fill="#3567B0"/>
<path d="M167.004 49.4732C166.994 49.6726 166.907 49.8605 166.762 49.9975C166.617 50.1345 166.424 50.2099 166.225 50.208H156.712C156.508 50.208 156.312 50.1268 156.168 49.9824C156.023 49.8379 155.942 49.642 155.942 49.4377C155.942 49.1964 156.027 48.9627 156.182 48.7777C156.337 48.5927 156.552 48.4681 156.789 48.4257L158.458 48.1292C158.701 48.0867 158.922 47.9609 159.083 47.7734C159.244 47.5859 159.335 47.3482 159.341 47.1011C159.386 45.0513 159.407 42.9929 159.405 40.9259V23.0514C159.406 22.6463 159.258 22.2549 158.989 21.9514C158.721 21.648 158.351 21.4534 157.949 21.4045L156.76 21.2724C156.627 21.2568 156.499 21.2137 156.383 21.1458C156.267 21.0778 156.167 20.9865 156.088 20.8777C156.01 20.7689 155.955 20.6449 155.927 20.5136C155.899 20.3824 155.899 20.2467 155.926 20.1153C155.968 19.9362 156.059 19.772 156.188 19.6407C156.316 19.5094 156.479 19.4161 156.657 19.3708L162.681 17.7142C162.761 17.6896 162.845 17.6777 162.929 17.6788C163.101 17.6789 163.27 17.7281 163.416 17.8206C163.501 17.8728 163.571 17.9463 163.619 18.034C163.667 18.1216 163.691 18.2202 163.689 18.3201L163.551 24.2439V40.9323C163.551 43.0015 163.572 45.0631 163.615 47.1172C163.622 47.3644 163.714 47.6018 163.875 47.7892C164.037 47.9765 164.258 48.1023 164.501 48.1453L166.167 48.4354C166.403 48.48 166.618 48.6039 166.775 48.7867C166.933 48.9798 167.014 49.224 167.004 49.4732Z" fill="#3567B0"/>
<path d="M187.72 47.279C187.592 47.1624 187.426 47.0977 187.253 47.0977C187.08 47.0977 186.914 47.1624 186.786 47.279C186.475 47.5569 186.075 47.7126 185.658 47.7173C185.439 47.7293 185.219 47.6863 185.02 47.5924C184.821 47.4984 184.649 47.3564 184.518 47.1791C184.252 46.8203 184.119 46.2058 184.119 45.3356V36.176C184.119 33.4085 183.573 31.4544 182.482 30.3134C181.391 29.1725 179.696 28.6042 177.396 28.6085C176.42 28.6048 175.448 28.713 174.497 28.9308L174.216 29.0017C174.12 29.0242 174.026 29.0533 173.93 29.079C173.911 29.0869 173.891 29.0934 173.872 29.0984C173.769 29.1274 173.669 29.1628 173.569 29.1951C173.414 29.2499 173.247 29.3046 173.111 29.3659L172.831 29.4851C172.341 29.7164 171.869 29.9824 171.417 30.2812C170.129 31.1836 169.162 32.1312 168.921 33.7781C168.921 33.8426 168.921 33.9135 168.921 33.9844C168.92 34.1409 168.933 34.2973 168.959 34.4517C169.027 34.8799 169.188 35.288 169.43 35.6476C169.672 36.0072 169.989 36.3096 170.36 36.5337C170.97 36.9046 171.694 37.041 172.396 36.9172C172.889 36.8311 173.351 36.6224 173.742 36.3102C174.132 35.9981 174.438 35.5926 174.63 35.1312C174.823 34.6697 174.896 34.1672 174.844 33.6699C174.791 33.1727 174.614 32.6967 174.329 32.2859C174.178 32.1179 174.012 31.9637 173.833 31.825L173.778 31.7895C173.714 31.7428 173.661 31.6836 173.62 31.6155C173.537 31.4318 173.701 31.2642 173.972 31.1256C174.402 30.932 174.854 30.7903 175.318 30.7034L175.45 30.6744C175.703 30.6205 175.961 30.5925 176.22 30.5906H176.255C177.69 30.5906 178.71 30.9419 179.316 31.6445C179.925 32.3471 180.224 33.7233 180.224 35.7763V36.1534C180.222 36.3636 180.151 36.5673 180.022 36.7336C179.894 36.8999 179.715 37.0198 179.512 37.0752C179.274 37.1364 179.029 37.2009 178.778 37.2718C177.531 37.6166 176.462 37.9421 175.556 38.2548C173.978 38.7605 172.465 39.4495 171.047 40.3078C170.005 40.9953 169.29 41.7033 168.901 42.4317C168.513 43.1571 168.311 43.968 168.315 44.7909C168.315 46.5979 168.868 47.9376 169.974 48.8099C171.13 49.6982 172.557 50.1603 174.013 50.1184C175.22 50.1617 176.413 49.8526 177.447 49.2289C178.213 48.7126 178.933 48.1314 179.599 47.4917C179.672 47.4236 179.76 47.3739 179.856 47.3469C179.952 47.3199 180.053 47.3163 180.15 47.3366C180.248 47.3568 180.339 47.4002 180.416 47.4631C180.494 47.526 180.555 47.6066 180.595 47.698C180.776 48.1451 181.038 48.5548 181.368 48.9066C181.744 49.2961 182.199 49.6012 182.702 49.8018C183.205 50.0024 183.745 50.0938 184.286 50.0701C185.041 50.0831 185.788 49.9069 186.457 49.5576C187.013 49.2376 187.486 48.7903 187.836 48.2524C187.936 48.1031 187.98 47.9228 187.959 47.7441C187.937 47.5655 187.853 47.4005 187.72 47.279ZM180.195 43.376C180.196 43.9268 180.061 44.4693 179.804 44.956C179.546 45.4426 179.172 45.8585 178.717 46.1671C178.208 46.5237 177.66 46.8211 177.083 47.0534C176.632 47.2104 176.157 47.2889 175.679 47.2855C174.831 47.3131 173.998 47.0492 173.321 46.5377C172.677 46.0414 172.354 45.2292 172.354 44.1109C172.38 43.3172 172.63 42.5471 173.076 41.8903C173.559 41.1264 174.703 40.4077 176.51 39.718C177.128 39.4698 177.995 39.1733 179.087 38.8317C179.161 38.8091 179.232 38.7898 179.3 38.764C179.401 38.7322 179.508 38.7247 179.613 38.7421C179.718 38.7594 179.817 38.8011 179.903 38.8637C179.989 38.9264 180.059 39.0084 180.107 39.103C180.156 39.1976 180.182 39.3023 180.182 39.4086L180.195 43.376Z" fill="#3567B0"/>
<path d="M212.862 49.9051C212.72 50.0226 212.556 50.1096 212.379 50.1606C212.202 50.2116 212.017 50.2256 211.834 50.2016L203.675 50.2209C203.385 50.2293 203.104 50.1227 202.892 49.9244C202.345 49.3765 202.892 48.6191 203.536 48.4161C204.081 48.2388 204.683 48.3065 205.234 48.1421C205.405 48.1042 205.559 48.0114 205.672 47.8778C205.775 47.7002 205.822 47.4959 205.807 47.2913C205.898 43.5333 205.985 39.7721 205.807 36.0109C205.756 34.7895 205.608 33.4326 204.68 32.6365C203.752 31.8405 202.473 31.9017 201.317 32.1015C199.825 32.3626 198.257 32.9201 197.422 34.1835C196.884 34.9957 196.72 35.9948 196.643 36.9649C196.437 39.4724 196.717 41.9992 196.623 44.5131L196.672 46.8916C196.658 47.1384 196.7 47.3851 196.794 47.6136C197.01 48.0358 197.532 48.1905 197.999 48.2581C198.466 48.3258 198.981 48.3613 199.336 48.6771C199.433 48.7643 199.512 48.8704 199.568 48.9889C199.623 49.1075 199.654 49.236 199.658 49.3668V49.3862C199.656 49.513 199.624 49.6375 199.565 49.7495C199.505 49.8616 199.42 49.958 199.316 50.0308C199.062 50.165 198.775 50.2222 198.489 50.1951H190.336C190.137 50.2071 189.938 50.1808 189.749 50.1178C189.559 50.0248 189.411 49.8628 189.336 49.6646C189.26 49.4665 189.263 49.2471 189.343 49.051C189.472 48.7895 189.694 48.5859 189.965 48.4805C190.235 48.379 190.516 48.3108 190.803 48.2775L191.853 48.1163C192.038 48.1069 192.214 48.0367 192.355 47.9165C192.478 47.7484 192.534 47.5401 192.51 47.3332C192.51 46.5951 192.529 45.8538 192.539 45.1126C192.539 44.9288 192.539 44.7419 192.539 44.555C192.539 44.5131 192.539 44.5066 192.574 44.5066H192.539V44.555C192.539 45.061 192.516 45.567 192.507 46.073C192.526 42.9081 192.544 39.742 192.561 36.575C192.594 35.9547 192.539 35.3329 192.397 34.7282C192.323 34.4265 192.186 34.1439 191.994 33.8994C191.803 33.6549 191.561 33.454 191.286 33.3101C190.908 33.1766 190.515 33.0879 190.116 33.0458C189.958 33.0181 189.802 32.9738 189.653 32.9137C189.503 32.858 189.364 32.7762 189.244 32.672C189.116 32.5654 189.024 32.4227 188.979 32.2627C188.942 32.1036 188.942 31.9382 188.979 31.7792C188.998 31.6664 189.035 31.5575 189.089 31.4569C189.137 31.3812 189.201 31.3164 189.276 31.2668C189.366 31.2085 189.462 31.1589 189.562 31.1185L190.02 30.9284L190.6 30.6834L191.183 30.4385L191.766 30.1968L192.349 29.9518L192.932 29.7069L193.512 29.4651L194.095 29.2202L194.678 28.9753H194.704C194.996 28.8073 195.343 28.761 195.67 28.8463C196.073 29.0236 196.179 29.5425 196.185 29.984C196.192 30.4256 196.185 30.9251 196.508 31.2313C196.66 31.3542 196.843 31.4322 197.037 31.4566C197.231 31.4811 197.428 31.4511 197.606 31.3699C197.958 31.204 198.284 30.9868 198.572 30.7253C200.037 29.5821 201.802 28.887 203.652 28.7239C204.875 28.5732 206.114 28.8099 207.196 29.4007C208.417 30.142 209.19 31.4698 209.557 32.8492C209.924 34.2287 209.94 35.6758 209.95 37.1067C209.971 40.4049 209.993 43.703 210.014 47.0012C209.978 47.3198 210.062 47.6403 210.25 47.9004C210.448 48.0723 210.699 48.1722 210.962 48.184C211.48 48.2581 212.031 48.2743 212.476 48.5514C212.617 48.6414 212.736 48.762 212.825 48.9042C212.913 49.0464 212.969 49.2067 212.988 49.3733C213.006 49.4658 213.004 49.561 212.982 49.6527C212.96 49.7444 212.92 49.8304 212.862 49.9051Z" fill="#3567B0"/>
<defs>
<linearGradient id="paint0_linear_89_4095" x1="-0.00510698" y1="33.5283" x2="67.697" y2="33.5283" gradientUnits="userSpaceOnUse">
<stop stop-color="#65BFC0"/>
<stop offset="0.15" stop-color="#64BCBF"/>
<stop offset="0.25" stop-color="#5FB3BE"/>
<stop offset="0.33" stop-color="#57A4BB"/>
<stop offset="0.41" stop-color="#4B8FB7"/>
<stop offset="0.48" stop-color="#3D73B2"/>
<stop offset="0.51" stop-color="#3768B0"/>
<stop offset="0.64" stop-color="#3768B0"/>
<stop offset="0.71" stop-color="#3768B0"/>
<stop offset="1" stop-color="#65BFC0"/>
</linearGradient>
</defs>
</svg>
