<svg width="129" height="146" viewBox="0 0 129 146" fill="none" xmlns="http://www.w3.org/2000/svg">
<path d="M21.3013 122.676L66.5824 116.684C68.3031 116.456 69.5135 114.876 69.2856 113.156L58.5843 32.2888C58.3564 30.5681 56.777 29.3578 55.0563 29.5857L9.77516 35.5778C8.05447 35.8053 6.84411 37.3851 7.07199 39.1058L17.7736 119.973C18.0012 121.693 19.5806 122.903 21.3013 122.676Z" fill="#5F5F5F"/>
<path d="M7.83277 53.9556L9.09962 54.4354L8.21536 47.752L7.1167 48.5447L7.83277 53.9556Z" fill="#B8C973"/>
<path d="M11.7108 34.1179L11.231 35.3848L17.9144 34.5005L17.1216 33.4019L11.7108 34.1179Z" fill="#B8C973"/>
<path d="M8.71925 60.6392L9.98642 61.119L9.10184 54.4355L8.00317 55.2283L8.71925 60.6392Z" fill="#B8C973"/>
<path d="M24.994 38.9048L25.9508 40.0834C26.4865 40.7433 27.3268 41.0778 28.1696 40.9661L38.6947 39.5731C39.5375 39.4617 40.2616 38.9202 40.6073 38.1435L41.2245 36.7566C41.5702 35.9799 42.2946 35.4387 43.1375 35.327L53.5634 33.9472C54.9018 33.77 56.1305 34.7114 56.3077 36.0502L66.1841 110.682C66.3612 112.02 65.4199 113.249 64.0811 113.426L22.8666 118.88C21.5282 119.058 20.2995 118.116 20.1224 116.777L10.2463 42.1459C10.0691 40.8075 11.0105 39.5785 12.3492 39.4017L22.7751 38.0219C23.618 37.9105 24.4583 38.2446 24.994 38.9048Z" fill="black"/>
<path d="M36.2416 37.3237C36.2997 37.7624 36.7026 38.0712 37.1413 38.0131C37.5801 37.955 37.8888 37.5522 37.8307 37.1134C37.7727 36.6747 37.3698 36.3659 36.9311 36.424C36.492 36.4821 36.1836 36.8849 36.2416 37.3237Z" fill="black"/>
<path d="M34.5276 37.5508L27.9475 38.4212" stroke="#333333" stroke-width="0.148896" stroke-miterlimit="10" stroke-linecap="round" stroke-linejoin="round"/>
<mask id="mask0_2805_20329" style="mask-type:luminance" maskUnits="userSpaceOnUse" x="0" y="33" width="67" height="86">
<path d="M24.9955 38.9043L25.9523 40.0829C26.488 40.7428 27.3283 41.0773 28.1712 40.9656L38.6963 39.5726C39.5391 39.4612 40.2632 38.9197 40.6089 38.143L41.2261 36.7561C41.5718 35.9794 42.2962 35.4382 43.1391 35.3265L53.565 33.9467C54.9034 33.7695 56.1321 34.7109 56.3092 36.0497L66.1856 110.681C66.3628 112.02 65.4214 113.249 64.0827 113.426L22.8682 118.88C21.5298 119.057 20.3011 118.116 20.1239 116.777L20.2327 99.8938C20.2327 99.8938 1.81866 89.2686 0.144506 77.3229C-1.52965 65.3775 13.7842 59.3826 13.7842 59.3826L10.2478 42.1454C10.0707 40.807 11.0121 39.578 12.3508 39.4012L22.7767 38.0214C23.6196 37.91 24.4599 38.2441 24.9955 38.9043Z" fill="white"/>
</mask>
<g mask="url(#mask0_2805_20329)">
<path d="M42.9951 90.2637L37.6909 90.5728L32.3824 90.3436C32.3824 90.3436 29.0543 97.5477 29.0951 102.965C29.1359 108.383 29.9922 138.924 29.9922 138.924C29.9922 138.924 30.3164 140.217 32.6662 140.484C35.0586 140.757 36.3451 139.65 36.3451 139.65L38.1691 111.444L39.7755 139.624C39.7755 139.624 41.0787 140.711 43.4666 140.403C45.8119 140.1 46.1168 138.802 46.1168 138.802C46.1168 138.802 46.5132 108.252 46.4725 102.834C46.4314 97.417 42.9951 90.2637 42.9951 90.2637Z" fill="#E5B570"/>
<path d="M38.354 111.74C38.5992 108.528 38.8444 105.316 39.0897 102.103C39.1262 101.624 39.168 101.127 39.4055 100.709C39.6979 100.195 40.2387 99.8819 40.7545 99.5928C41.4988 99.1755 42.2428 98.7586 42.9871 98.3413" stroke="#333333" stroke-width="0.148896" stroke-miterlimit="10" stroke-linecap="round" stroke-linejoin="round"/>
<path d="M40.9917 99.3493C41.3884 96.259 41.3329 93.1113 40.8264 90.0371" stroke="#333333" stroke-width="0.148896" stroke-miterlimit="10" stroke-linecap="round" stroke-linejoin="round"/>
<path d="M39.9129 100.081C40.3096 96.991 40.254 93.8432 39.7476 90.769" stroke="#333333" stroke-width="0.148896" stroke-miterlimit="10" stroke-linecap="round" stroke-linejoin="round"/>
<path d="M30.6606 96.4217C31.1254 96.3196 31.5074 95.9935 31.8347 95.6482C32.8101 94.6195 33.4896 93.3135 33.7721 91.9243" stroke="#333333" stroke-width="0.148896" stroke-miterlimit="10" stroke-linecap="round" stroke-linejoin="round"/>
<path d="M43.1459 126.246C43.1459 126.246 41.2298 121.315 40.7737 118.7" stroke="#333333" stroke-width="0.148896" stroke-miterlimit="10" stroke-linecap="round" stroke-linejoin="round"/>
<path d="M38.2653 71.2017C38.2653 71.2017 33.6543 70.6837 30.9209 71.5956C28.1876 72.5074 30.2077 90.4028 30.2077 90.4028L28.1709 108.303C28.1709 108.303 32.6131 110.619 37.2751 111.077L38.8504 108.121L40.1926 111.09C44.7279 110.661 48.065 107.924 48.065 107.924C48.168 107.832 46.67 99.5141 46.3898 92.1335C46.0666 83.6208 46.3061 76.1854 46.3443 75.7219C46.4284 74.7054 46.3786 72.856 45.5428 72.1158C43.9476 70.7036 38.2653 71.2017 38.2653 71.2017Z" fill="#DEDEDE"/>
<path d="M37.8943 71.3438L34.3438 71.3707L38.8507 79.2854L41.4907 71.5469L37.8943 71.3438Z" fill="#B8C973"/>
<path d="M37.0256 76.0829L38.8134 74.5708L40.0636 75.7247" stroke="#333333" stroke-width="0.148896" stroke-miterlimit="10" stroke-linecap="round" stroke-linejoin="round"/>
<path d="M38.814 74.5708L38.8496 79.2848" stroke="#333333" stroke-width="0.148896" stroke-miterlimit="10" stroke-linecap="round" stroke-linejoin="round"/>
<path d="M38.8496 79.2852C38.8496 79.2852 39.2075 88.4766 39.3468 93.1178C39.4861 97.7589 38.8496 108.121 38.8496 108.121" stroke="#333333" stroke-width="0.148896" stroke-miterlimit="10" stroke-linecap="round" stroke-linejoin="round"/>
<path d="M36.2269 100.249L31.8672 99.4072L31.9083 100.584L36.2358 101.466L36.2269 100.249Z" stroke="#333333" stroke-width="0.148896" stroke-miterlimit="10" stroke-linecap="round" stroke-linejoin="round"/>
<path d="M41.6777 99.9767L46.0242 99.0693L46.0008 100.247L41.6867 101.193L41.6777 99.9767Z" stroke="#333333" stroke-width="0.148896" stroke-miterlimit="10" stroke-linecap="round" stroke-linejoin="round"/>
<path d="M39.3556 91.0728C38.2255 89.5556 35.3144 80.6578 35.3144 80.6578L36.3781 79.6051C36.3781 79.6051 33.7269 73.8165 31.9834 71.3438" stroke="#333333" stroke-width="0.148896" stroke-miterlimit="10" stroke-linecap="round" stroke-linejoin="round"/>
<path d="M39.3555 91.0723C40.5087 89.1423 42.3873 80.2294 42.3873 80.2294L41.1368 79.4687C41.1368 79.4687 43.2247 73.9286 44.1671 71.522" stroke="#333333" stroke-width="0.148896" stroke-miterlimit="10" stroke-linecap="round" stroke-linejoin="round"/>
<path d="M37.8943 71.3438L34.3438 71.3707L38.8151 74.5714L41.4907 71.5469L37.8943 71.3438Z" fill="#F2B27E"/>
<path d="M43.0782 50.0732C41.4044 49.3129 39.5191 49.1412 37.6818 49.2095C36.3848 49.2577 35.0644 49.4281 33.8983 49.9985C32.7322 50.5685 31.7331 51.5933 31.4567 52.8615C30.2107 52.8827 29.0944 53.7746 28.5327 54.8871C27.9714 55.9995 27.8873 57.2959 27.9897 58.5381C28.0869 59.7192 28.3427 60.8875 28.7484 62.0013C29.1792 63.184 29.7906 64.3202 30.6794 65.2112C31.5684 66.1022 32.756 66.7329 34.0129 66.7955C35.3279 66.8613 36.6201 66.3044 37.6401 65.4722C39.952 63.5859 40.5914 60.1451 43.5475 59.0542C44.4754 58.7117 45.3966 58.566 46.0144 57.7122C46.9064 56.4791 46.9966 54.7311 46.4237 53.3548C45.8074 51.8732 44.5207 50.7283 43.0782 50.0732Z" fill="#1A1A1A"/>
<path d="M35.3179 71.1621C35.3179 72.0704 35.7326 72.8979 37.8294 72.8979C39.9263 72.8979 40.341 72.0996 40.341 71.1621C40.341 70.2246 40.6494 66.6313 40.6494 66.6313H35.0098C35.0094 66.6313 35.3179 70.2538 35.3179 71.1621Z" fill="#F2B27E"/>
<mask id="mask1_2805_20329" style="mask-type:luminance" maskUnits="userSpaceOnUse" x="35" y="66" width="6" height="7">
<path d="M35.3169 71.1616C35.3169 72.0699 35.7316 72.8974 37.8285 72.8974C39.9253 72.8974 40.34 72.0991 40.34 71.1616C40.34 70.2241 40.6485 66.6309 40.6485 66.6309H35.0088C35.0085 66.6309 35.3169 70.2533 35.3169 71.1616Z" fill="white"/>
</mask>
<g mask="url(#mask1_2805_20329)">
<path opacity="0.7" d="M39.2834 70.4529C41.9473 70.4529 44.1069 68.3849 44.1069 65.8339C44.1069 63.2828 41.9473 61.2148 39.2834 61.2148C36.6195 61.2148 34.46 63.2828 34.46 65.8339C34.46 68.3849 36.6195 70.4529 39.2834 70.4529Z" fill="#F2B27E"/>
</g>
<path d="M31.2295 60.2579C31.2 58.0031 31.8153 55.7319 33.0776 53.9946C34.2922 52.3233 36.157 51.335 38.3704 51.2737C40.5837 51.2124 42.2986 51.9105 43.6692 53.2464C45.1796 54.7183 45.9211 56.9067 45.7436 59.0084C45.6656 59.9302 45.4236 60.8343 45.377 61.7581C45.2929 63.4296 45.8444 65.1654 45.2933 66.7459C44.8179 68.1087 43.5629 69.103 42.1841 69.5302C40.8052 69.9574 39.3156 69.8794 37.8985 69.6044C35.8909 69.2147 34.2212 67.7877 33.0398 66.1457C31.8618 64.5074 31.2575 62.39 31.2295 60.2579Z" fill="#F2B27E"/>
<path d="M36.064 65.8287C36.8798 65.8287 37.5411 65.1674 37.5411 64.3516C37.5411 63.5358 36.8798 62.8745 36.064 62.8745C35.2482 62.8745 34.5869 63.5358 34.5869 64.3516C34.5869 65.1674 35.2482 65.8287 36.064 65.8287Z" fill="#E89777"/>
<path d="M43.8472 65.8287C44.663 65.8287 45.3243 65.1674 45.3243 64.3516C45.3243 63.5358 44.663 62.8745 43.8472 62.8745C43.0314 62.8745 42.3701 63.5358 42.3701 64.3516C42.3701 65.1674 43.0314 65.8287 43.8472 65.8287Z" fill="#E89777"/>
<path d="M41.1077 60.2856C41.0207 61.0903 41.1597 61.9181 41.5047 62.6502C41.6951 63.0543 41.9531 63.4587 41.9271 63.9045C41.9095 64.2062 41.7516 64.497 41.508 64.6758C41.2643 64.8546 40.9398 64.9185 40.6465 64.845" stroke="#333333" stroke-width="0.148896" stroke-miterlimit="10" stroke-linecap="round" stroke-linejoin="round"/>
<path d="M40.1892 67.5529C39.7348 67.5821 39.2722 67.5076 38.8896 67.3442" stroke="#333333" stroke-width="0.148896" stroke-miterlimit="10" stroke-linecap="round" stroke-linejoin="round"/>
<path d="M38.1429 65.651C38.0264 66.28 38.703 66.888 39.6537 67.0086C40.6044 67.1293 41.4697 66.7169 41.5863 66.0878C41.7028 65.4587 40.9132 65.4629 39.9622 65.3422C39.0111 65.2215 38.2594 65.0219 38.1429 65.651Z" fill="#C9413A"/>
<mask id="mask2_2805_20329" style="mask-type:luminance" maskUnits="userSpaceOnUse" x="38" y="65" width="4" height="3">
<path d="M38.1429 65.651C38.0264 66.28 38.703 66.888 39.6537 67.0086C40.6044 67.1293 41.4697 66.7169 41.5863 66.0878C41.7028 65.4587 40.9132 65.4629 39.9622 65.3422C39.0111 65.2215 38.2594 65.0219 38.1429 65.651Z" fill="white"/>
</mask>
<g mask="url(#mask2_2805_20329)">
<path d="M36.6332 66.1674C36.38 66.8045 37.1695 67.6053 38.3966 67.9564C39.6236 68.3076 40.8234 68.0755 41.0767 67.4387C41.3299 66.8016 40.5403 66.0008 39.3133 65.6496C38.0865 65.2985 36.8864 65.5306 36.6332 66.1674Z" fill="#F96C4B"/>
</g>
<mask id="mask3_2805_20329" style="mask-type:luminance" maskUnits="userSpaceOnUse" x="38" y="65" width="4" height="3">
<path d="M38.1429 65.651C38.0264 66.28 38.703 66.888 39.6537 67.0086C40.6044 67.1293 41.4697 66.7169 41.5863 66.0878C41.7028 65.4587 40.9132 65.4629 39.9622 65.3422C39.0111 65.2215 38.2594 65.0219 38.1429 65.651Z" fill="white"/>
</mask>
<g mask="url(#mask3_2805_20329)">
<path d="M38.2289 65.1211C38.1535 65.5496 38.8956 65.79 39.8434 65.9039C40.7912 66.0178 41.5544 66.0544 41.6299 65.6256C41.7053 65.1971 40.9651 65.0299 40.0173 64.916C39.0698 64.802 38.3043 64.6926 38.2289 65.1211Z" fill="#DEDEDE"/>
</g>
<path d="M38.1429 65.651C38.0264 66.28 38.703 66.888 39.6537 67.0086C40.6044 67.1293 41.4697 66.7169 41.5863 66.0878C41.7028 65.4587 40.9132 65.4629 39.9622 65.3422C39.0111 65.2215 38.2594 65.0219 38.1429 65.651Z" stroke="#333333" stroke-width="0.148896" stroke-miterlimit="10" stroke-linecap="round" stroke-linejoin="round"/>
<path d="M37.9876 62.5806C38.3825 62.5806 38.7027 62.2604 38.7027 61.8655C38.7027 61.4706 38.3825 61.1504 37.9876 61.1504C37.5926 61.1504 37.2725 61.4706 37.2725 61.8655C37.2725 62.2604 37.5926 62.5806 37.9876 62.5806Z" fill="#38322E"/>
<path d="M42.647 62.5806C43.0419 62.5806 43.3621 62.2604 43.3621 61.8655C43.3621 61.4706 43.0419 61.1504 42.647 61.1504C42.252 61.1504 41.9319 61.4706 41.9319 61.8655C41.9319 62.2604 42.252 62.5806 42.647 62.5806Z" fill="#38322E"/>
<path d="M37.6656 58.2035C38.6093 57.8623 39.2756 58.3942 39.3546 58.917C39.3546 58.917 38.7685 58.7235 37.8771 58.8583C36.9858 58.9928 36.2627 59.3843 36.2627 59.3843C36.2627 59.3843 36.7217 58.545 37.6656 58.2035Z" fill="#5E4028"/>
<path d="M43.3042 58.2035C42.3605 57.8623 41.6942 58.3942 41.6152 58.917C41.6152 58.917 42.2013 58.7235 43.0926 58.8583C43.984 58.9928 44.7071 59.3843 44.7071 59.3843C44.7071 59.3843 44.2481 58.545 43.3042 58.2035Z" fill="#5E4028"/>
<path d="M33.6723 61.9509C33.9714 61.2746 33.9268 60.5049 33.9852 59.7677C34.0568 58.8661 34.2914 57.9776 34.6753 57.1585C35.107 56.2367 35.8709 55.3226 36.8883 55.2844C37.3922 55.2655 37.8743 55.468 38.3471 55.6433C39.0391 55.9 39.7497 56.1064 40.4716 56.2602C41.3815 56.454 42.4484 56.5224 43.1231 55.8821C43.3747 55.6433 43.5339 55.3146 43.8632 55.1695C44.0927 55.0684 44.3549 55.0511 44.6008 55.1012C44.7956 55.141 44.9799 55.2209 45.1683 55.2851C45.2148 55.3008 45.2668 55.3159 45.3121 55.2966C45.4042 55.2575 45.3926 55.1246 45.3618 55.0293C44.4336 52.1409 40.9871 50.2103 38.0406 50.417C35.3682 50.6044 32.8243 53.1847 31.577 55.5556C30.7489 57.1297 30.5236 59.0018 30.9014 60.7357C31.0371 61.358 31.2628 62.5289 31.8896 62.8611C32.5739 63.2241 33.402 62.5617 33.6723 61.9509Z" fill="#1A1A1A"/>
<path d="M29.9637 62.8471C30.5305 64.3717 31.9203 65.2829 32.6174 64.9439C33.1586 64.6807 33.2436 63.6658 32.9285 62.4478C32.6133 61.23 31.7033 59.6804 30.7851 59.9118C29.8665 60.1436 29.3969 61.3225 29.9637 62.8471Z" fill="#F2B27E"/>
<path opacity="0.7" d="M30.7411 60.7714C31.1962 60.9559 31.5553 61.3254 31.8256 61.7359C32.1886 62.287 32.413 62.9289 32.4733 63.5859C32.3269 63.4781 32.126 63.4482 31.9546 63.5092C31.7701 63.5747 31.6873 63.7156 31.5971 63.8741C31.1914 63.7047 30.8373 63.1141 30.6525 62.737C30.4358 62.2947 30.318 61.8026 30.3232 61.3096C30.3254 61.0519 30.3967 60.6318 30.7411 60.7714Z" fill="#F2B27E"/>
<path d="M30.9194 71.5957C30.9194 71.5957 28.0711 72.2909 27.1644 74.2969C26.258 76.303 24.2828 84.5004 24.2828 84.5004L22.2026 81.208C22.2026 81.208 20.4906 81.0744 19.1907 81.9709C17.8908 82.8674 18.2014 83.7661 18.2014 83.7661C18.2014 83.7661 23.2765 94.6465 26.9477 91.5934C30.3243 88.7808 32.6009 80.3468 32.6009 80.3468L30.9194 71.5957Z" fill="#DEDEDE"/>
<path d="M19.0166 85.3509C19.0166 85.3509 22.2009 85.7104 23.1712 82.7383" stroke="#333333" stroke-width="0.148896" stroke-miterlimit="10" stroke-linecap="round" stroke-linejoin="round"/>
<path d="M23.415 83.126C23.415 83.126 25.0436 85.2684 26.2305 86.9496" stroke="#333333" stroke-width="0.148896" stroke-miterlimit="10" stroke-linecap="round" stroke-linejoin="round"/>
<path d="M19.6828 84.3748C19.7859 84.5571 19.7695 84.7612 19.6466 84.8305C19.5236 84.8999 19.3407 84.8084 19.2377 84.6261C19.1346 84.4438 19.151 84.2396 19.2739 84.1703C19.3969 84.1007 19.5798 84.1921 19.6828 84.3748Z" fill="#333333"/>
<path d="M28.4922 73.9458C28.4922 73.9458 30.0688 76.1666 30.3262 78.9821" stroke="#333333" stroke-width="0.148896" stroke-miterlimit="10" stroke-linecap="round" stroke-linejoin="round"/>
<path d="M19.1846 83.44C19.1846 83.44 18.7253 82.5195 18.5279 82.1209C18.1475 81.3528 17.6218 81.4677 16.7684 81.4347C15.9416 81.4029 15.1507 81.1233 14.4067 80.7783C14.035 80.6059 13.6701 80.4172 13.3125 80.2195C12.8962 79.9893 12.4751 79.7669 12.0762 79.5076C11.6923 79.2582 11.2876 79.0043 10.9875 78.6532C10.8135 78.4497 10.5747 78.0963 10.6947 77.8174C10.7137 77.7737 10.7878 77.7169 10.7798 77.6665C10.7702 77.6071 10.6126 77.4967 10.5766 77.4242C10.479 77.2287 10.4842 76.9755 10.618 76.7977C10.5095 76.7072 10.4049 76.5868 10.4104 76.4456C10.4158 76.2995 10.5429 76.1808 10.6822 76.1371C10.8273 76.0919 11.0022 76.1509 11.1335 76.0733C11.3026 75.9734 11.3322 75.7947 11.5668 75.7757C11.7578 75.7603 11.9423 75.8383 12.1179 75.9147C12.6822 76.1599 13.2531 76.3904 13.8341 76.5939C14.2096 76.7251 14.5758 76.8818 14.9536 77.0066C15.1857 77.0833 15.4691 77.2197 15.7162 77.195C15.2881 76.6365 14.5117 75.9535 14.5832 75.1806C14.5925 75.0792 14.6221 74.9707 14.7042 74.9104C14.832 74.8167 15.0127 74.8847 15.1459 74.9704C15.5968 75.2596 15.8071 75.7443 16.2134 76.0787C16.6175 76.4115 17.0887 76.6507 17.5323 76.9245C17.8773 77.1373 18.2162 77.3789 18.4836 77.6867C18.7128 77.9506 18.8373 78.2616 19.0751 78.5155C19.3489 78.8076 19.5502 79.2007 19.8564 79.4582C20.3182 79.8468 21.7696 82.17 21.7696 82.17C21.7696 82.17 21.0722 83.5399 19.1846 83.44Z" fill="#F2B27E"/>
<path d="M14.1108 77.3232C14.0174 77.5739 13.5511 79.0613 13.4846 79.3203" stroke="#333333" stroke-width="0.148896" stroke-miterlimit="10" stroke-linecap="round" stroke-linejoin="round"/>
<path d="M13.9803 77.5729C13.0197 77.2898 11.8533 76.7811 11.0168 76.23" stroke="#333333" stroke-width="0.148896" stroke-miterlimit="10" stroke-linecap="round" stroke-linejoin="round"/>
<path d="M13.7812 78.3043C12.9762 78.0215 11.4298 77.3048 10.7124 76.8433" stroke="#333333" stroke-width="0.148896" stroke-miterlimit="10" stroke-linecap="round" stroke-linejoin="round"/>
<path d="M13.582 78.9816C12.9667 78.7367 11.4482 78.0258 10.8801 77.6855" stroke="#333333" stroke-width="0.148896" stroke-miterlimit="10" stroke-linecap="round" stroke-linejoin="round"/>
<path d="M14.2229 79.394C15.2041 79.0698 16.287 79.0614 17.2734 79.3699" stroke="#333333" stroke-width="0.148896" stroke-miterlimit="10" stroke-linecap="round" stroke-linejoin="round"/>
<path d="M14.9281 83.2439L5.69583 83.6197C5.11424 83.6435 4.62381 83.1912 4.60005 82.6097L4.08683 70.0028C4.06308 69.4212 4.51532 68.9308 5.09691 68.907L14.3291 68.5312C14.9107 68.5074 15.4012 68.9597 15.4249 69.5412L15.9381 82.1481C15.9619 82.7297 15.5097 83.2201 14.9281 83.2439Z" fill="#CC9864"/>
<path d="M6.17736 81.9933L14.3086 81.6621L13.7882 68.8867L5.65698 69.2179L6.17736 81.9933Z" fill="#DEDEDE"/>
<path d="M12.245 67.3904L11.4217 67.4238L11.386 66.5518L7.86859 66.6952L7.90422 67.5673L7.08094 67.6007L6.39087 69.5412L13.0904 69.2684L12.245 67.3904Z" fill="#C6C6C6"/>
<path d="M15.1454 74.9699C15.0122 74.8842 14.8312 74.8162 14.7038 74.9099C14.6216 74.9702 14.5921 75.0787 14.5828 75.1802C14.5144 75.9181 15.2192 76.5744 15.6557 77.1185L16.1738 76.7513L15.5848 75.3721C15.4571 75.2222 15.3194 75.0816 15.1454 74.9699Z" fill="#F2B27E"/>
<path d="M6.93457 70.8772L13.0422 70.6284" stroke="#333333" stroke-width="0.148896" stroke-miterlimit="10" stroke-linecap="round" stroke-linejoin="round"/>
<path d="M6.95581 71.9314L13.0635 71.6826" stroke="#333333" stroke-width="0.148896" stroke-miterlimit="10" stroke-linecap="round" stroke-linejoin="round"/>
<path d="M6.97852 72.9861L13.0858 72.7373" stroke="#333333" stroke-width="0.148896" stroke-miterlimit="10" stroke-linecap="round" stroke-linejoin="round"/>
<path d="M7 74.0406L13.1076 73.7915" stroke="#333333" stroke-width="0.148896" stroke-miterlimit="10" stroke-linecap="round" stroke-linejoin="round"/>
<path d="M7.02124 75.0954L13.1289 74.8467" stroke="#333333" stroke-width="0.148896" stroke-miterlimit="10" stroke-linecap="round" stroke-linejoin="round"/>
<path d="M7.04395 76.1509L13.1513 75.9019" stroke="#333333" stroke-width="0.148896" stroke-miterlimit="10" stroke-linecap="round" stroke-linejoin="round"/>
<path d="M7.06543 77.2038L13.1731 76.9551" stroke="#333333" stroke-width="0.148896" stroke-miterlimit="10" stroke-linecap="round" stroke-linejoin="round"/>
<path d="M7.08594 78.2583L13.1936 78.0093" stroke="#333333" stroke-width="0.148896" stroke-miterlimit="10" stroke-linecap="round" stroke-linejoin="round"/>
<path d="M7.1084 79.3127L13.2157 79.064" stroke="#333333" stroke-width="0.148896" stroke-miterlimit="10" stroke-linecap="round" stroke-linejoin="round"/>
<path d="M7.13013 80.3684L13.2378 80.1196" stroke="#333333" stroke-width="0.148896" stroke-miterlimit="10" stroke-linecap="round" stroke-linejoin="round"/>
<path d="M45.0314 71.7876C45.0314 71.7876 48.7877 72.3641 49.7368 74.5408C50.6856 76.7176 55.0699 87.2594 53.4722 89.2789C51.8744 91.2984 42.9689 92.0864 42.9689 92.0864C42.9689 92.0864 41.6302 91.5282 41.3362 89.3993C41.0422 87.2703 41.9412 87.0039 41.9412 87.0039L47.5745 85.0101C47.5745 85.0101 46.4745 81.2975 45.3261 77.9649C44.1327 74.5033 45.0314 71.7876 45.0314 71.7876Z" fill="#DEDEDE"/>
<path d="M47.8943 85.037C47.8943 85.037 49.1261 84.5713 51.4239 85.5933" stroke="#333333" stroke-width="0.148896" stroke-miterlimit="10" stroke-linecap="round" stroke-linejoin="round"/>
<path d="M46.3884 77.685C46.3884 77.685 46.833 74.2776 46.7986 72.9565" stroke="#333333" stroke-width="0.148896" stroke-miterlimit="10" stroke-linecap="round" stroke-linejoin="round"/>
<path d="M46.9129 91.5642C44.7788 91.9253 42.9689 92.0855 42.9689 92.0855C42.9689 92.0855 41.6302 91.5273 41.3362 89.3984C41.0422 87.2694 41.9412 87.003 41.9412 87.003L46.6905 85.3218" stroke="#333333" stroke-width="0.148896" stroke-miterlimit="10" stroke-linecap="round" stroke-linejoin="round"/>
<path d="M45.4127 91.7955C45.4127 91.7955 45.9477 88.7608 44.1638 86.2158" stroke="#333333" stroke-width="0.148896" stroke-miterlimit="10" stroke-linecap="round" stroke-linejoin="round"/>
<path d="M44.0811 87.025C44.1164 87.1489 43.9768 87.2972 43.7697 87.3562C43.5624 87.4153 43.3656 87.3627 43.3307 87.2388C43.2953 87.1149 43.435 86.9666 43.642 86.9075C43.8493 86.8485 44.0458 86.9011 44.0811 87.025Z" fill="#333333"/>
<path d="M43.128 89.8645C43.1056 89.9974 43.0735 90.1283 43.0311 90.2564C42.9977 90.3575 42.956 90.4605 42.8774 90.5321C42.5936 90.7905 41.675 90.5032 41.2947 90.5398C40.2528 90.6399 39.3143 91.087 38.3216 91.3923C37.7808 91.5585 37.2354 91.7261 36.6722 91.7806C36.1686 91.8294 35.6849 91.8529 35.1784 91.7861C34.5788 91.7068 33.9796 91.6279 33.38 91.5486C33.1916 91.5239 32.9997 91.4979 32.8286 91.4154C32.6575 91.3329 32.5076 91.1827 32.4759 90.9956C32.2724 90.942 32.0653 90.8867 31.8875 90.7744C31.7097 90.6618 31.5624 90.4811 31.5434 90.2715C31.5396 90.2272 31.5409 90.18 31.5197 90.1405C31.502 90.1068 31.47 90.0827 31.4449 90.0538C31.3547 89.9489 31.3644 89.7849 31.433 89.6645C31.5017 89.5445 31.6173 89.4594 31.7325 89.3827C31.6725 89.2845 31.7158 89.1519 31.7932 89.0666C31.8981 88.9504 32.0554 88.8923 32.2114 88.8765C32.367 88.8608 32.524 88.8836 32.679 88.9061C32.9804 88.9497 33.2821 88.9927 33.5841 89.0351C33.8197 89.0682 34.0566 89.1009 34.2944 89.0958C34.7541 89.0858 35.1951 88.934 35.6101 88.7469C35.8043 88.6593 35.9917 88.5543 36.191 88.484C36.3111 88.4413 36.4776 88.3864 36.4972 88.2333C36.5197 88.0571 36.329 87.9329 36.1605 87.8761C35.4782 87.6466 34.7149 87.7528 34.0386 87.5054C33.934 87.4672 33.821 87.4081 33.7902 87.3009C33.7372 87.117 33.9536 86.978 34.1317 86.9087C34.7656 86.6625 35.4156 86.4125 36.0957 86.3961C37.2621 86.3676 38.4814 86.727 39.5846 87.0702C40.0256 87.2072 40.4554 87.3783 40.8993 87.5054C41.3294 87.6283 41.7338 87.5798 42.1773 87.559C42.2586 87.5551 42.342 87.5519 42.4184 87.5782C42.5333 87.618 42.6151 87.7185 42.6838 87.8186C43.0892 88.4089 43.2471 89.16 43.128 89.8645Z" fill="#F2B27E"/>
<path d="M31.8044 89.4043C32.681 89.7249 33.6015 89.9252 34.5317 89.9981" stroke="#333333" stroke-width="0.148896" stroke-miterlimit="10" stroke-linecap="round" stroke-linejoin="round"/>
<path d="M31.6201 90.1724C32.6122 90.4628 33.6403 90.6301 34.6731 90.6686" stroke="#333333" stroke-width="0.148896" stroke-miterlimit="10" stroke-linecap="round" stroke-linejoin="round"/>
<path d="M32.6003 90.9629C33.3812 91.1417 34.1772 91.2543 34.9774 91.2993" stroke="#333333" stroke-width="0.148896" stroke-miterlimit="10" stroke-linecap="round" stroke-linejoin="round"/>
</g>
<path d="M125.014 120.682H81.1815C80.3668 120.682 79.7063 121.343 79.7063 122.157V123.174C79.7063 123.989 80.3668 124.649 81.1815 124.649H84.81L85.7729 141.878H87.5462L88.5091 124.649H100.198L100.982 138.668H102.755L103.539 124.649H108.766L109.729 141.878H111.502L112.465 124.649H120.997L121.781 138.668H123.554L124.338 124.649H125.014C125.829 124.649 126.49 123.988 126.49 123.174V122.157C126.49 121.342 125.829 120.682 125.014 120.682Z" fill="#6D4D38"/>
<path d="M122.91 84.6782H103.627C100.626 84.6782 98.1936 87.1105 98.1936 90.1109V112.53H128.342V90.1109C128.342 87.1105 125.91 84.6782 122.91 84.6782Z" fill="#E5B570"/>
<path d="M99.3642 122.176H80.365C78.2395 122.176 76.5166 120.453 76.5166 118.327V111.843C76.5166 107.894 79.7179 104.692 83.6671 104.692H99.3642V122.176Z" fill="#EDC188"/>
<path d="M120.819 122.175H85.3108V117.603C85.3108 114.801 87.5819 112.53 90.3837 112.53H120.819V122.175Z" fill="#E5B570"/>
<path d="M91.4938 141.874C90.7883 141.885 90.0549 141.89 89.4146 141.594C88.7932 141.306 88.3284 140.765 87.7532 140.394C87.327 140.119 86.8385 139.945 86.3359 139.877C86.2428 139.951 86.1494 140.025 86.055 140.094C84.8867 140.951 81.3798 142.259 80.7196 142.971C80.1852 143.548 79.9461 144.456 80.7302 144.891C81.9746 145.583 83.8509 145.592 85.2224 145.422C86.8369 145.222 88.4038 144.363 90.0228 144.19C91.0027 144.085 93.8837 144.338 93.9649 142.857C93.9703 142.758 93.9344 142.375 93.8811 141.839C93.7932 141.839 93.7052 141.84 93.6173 141.841C92.9092 141.853 92.2015 141.863 91.4938 141.874Z" fill="#160D00"/>
<path d="M93.5643 136.259C93.763 134.751 94.7159 132.091 94.1587 130.637C92.6617 130.499 91.1555 130.462 89.6537 130.525C89.4441 130.534 89.2271 130.547 89.0406 130.643C88.2963 131.025 88.7806 133.671 88.744 134.475C88.6985 135.474 88.6317 136.492 88.2607 137.421C87.8678 138.404 87.1367 139.235 86.3365 139.876L86.3352 139.877C86.8378 139.945 87.3263 140.119 87.7526 140.394C88.3278 140.766 88.7928 141.306 89.4139 141.594C90.0542 141.891 90.7876 141.886 91.4931 141.875C92.2008 141.864 92.9086 141.853 93.6166 141.842C93.7042 141.841 93.7925 141.84 93.8805 141.84C93.8602 141.636 93.8378 141.411 93.8137 141.169C93.6532 139.544 93.4385 137.214 93.5643 136.259Z" fill="#8AA4A6"/>
<path d="M79.6474 138.997C78.9419 139.008 78.2085 139.013 77.5682 138.716C76.9468 138.429 76.4821 137.888 75.9069 137.517C75.4806 137.242 74.9921 137.068 74.4892 137C74.3964 137.074 74.303 137.147 74.2083 137.216C73.0397 138.073 69.5332 139.381 68.8729 140.094C68.3385 140.67 68.0994 141.578 68.8835 142.014C70.1279 142.705 72.0043 142.714 73.3758 142.545C74.9902 142.344 76.5572 141.486 78.1761 141.312C79.156 141.207 82.037 141.461 82.1182 139.979C82.1237 139.881 82.0877 139.498 82.0344 138.961C81.9465 138.962 81.8585 138.963 81.7706 138.964C81.0629 138.975 80.3551 138.986 79.6474 138.997Z" fill="#160D00"/>
<path d="M81.7189 133.381C81.9176 131.873 82.8705 129.214 82.3133 127.759C80.8164 127.621 79.3101 127.584 77.8083 127.648C77.5987 127.657 77.3817 127.669 77.1952 127.765C76.4509 128.148 76.9353 130.793 76.8987 131.597C76.8531 132.596 76.7863 133.614 76.415 134.543C76.0221 135.527 75.291 136.358 74.4908 136.999L74.4895 137C74.9921 137.068 75.4806 137.242 75.9072 137.517C76.4824 137.888 76.9475 138.429 77.5685 138.717C78.2089 139.013 78.9423 139.008 79.6477 138.997C80.3555 138.986 81.0632 138.975 81.7712 138.965C81.8589 138.964 81.9471 138.962 82.0351 138.962C82.0149 138.758 81.9924 138.534 81.9683 138.291C81.8075 136.666 81.5928 134.337 81.7189 133.381Z" fill="#8AA4A6"/>
<path d="M79.3348 113.313C79.8798 112.372 80.8752 111.65 81.7543 111.05C84.7049 109.037 88.2233 107.787 91.6512 106.873C92.4748 106.654 93.3039 106.455 94.1384 106.281C94.6975 106.164 95.3622 106.287 95.7625 105.823C96.2179 105.295 96.449 104.343 96.5902 103.678C96.5992 103.635 96.6101 103.589 96.6448 103.563C96.675 103.539 96.7157 103.538 96.7536 103.537C100.928 103.418 105.302 103.826 109.372 104.84C109.626 104.904 109.895 104.979 110.069 105.173C110.28 105.409 110.299 105.753 110.308 106.069C110.352 107.734 110.574 109.496 110.301 111.139C109.642 115.094 106.158 116.098 102.771 117.185C100.338 117.967 95.8998 118.784 95.8998 118.784L94.071 137.614C94.071 137.614 93.2657 139.305 89.7932 139.305C86.3206 139.305 86.9709 137.598 86.9709 137.598C86.9709 137.598 87.6058 118.055 87.7451 116.735C87.5012 116.762 86.2122 116.826 85.9747 116.846C86.6532 118.604 82.1744 135.976 82.1744 135.976C82.1744 135.976 80.6348 137.669 78.0343 137.144C75.4338 136.619 75.4338 135.064 75.4338 135.064C75.4338 135.064 78.465 114.815 79.3348 113.313Z" fill="#444444"/>
<path d="M87.7424 116.736C87.7809 116.371 87.876 116.017 88.0477 115.683C88.5449 114.716 89.5026 113.945 90.3503 113.302C92.2719 111.844 94.4695 110.72 96.7343 109.81" stroke="#333333" stroke-width="0.148896" stroke-miterlimit="10" stroke-linecap="round" stroke-linejoin="round"/>
<path d="M108.768 106.63C108.671 108.306 108.54 110.055 107.673 111.493C106.602 113.27 104.613 114.247 102.71 115.076C100.231 116.156 95.1641 118.047 95.1641 118.047C95.1641 118.047 94.3337 128.241 93.2649 138.44" stroke="#333333" stroke-width="0.148896" stroke-miterlimit="10" stroke-linecap="round" stroke-linejoin="round"/>
<path d="M107.897 110.986C107.483 110.936 107.19 110.564 106.981 110.203C106.332 109.089 106.015 107.785 106.077 106.498" stroke="#333333" stroke-width="0.148896" stroke-miterlimit="10" stroke-linecap="round" stroke-linejoin="round"/>
<path d="M87.9413 115.566C87.0413 115.969 86.141 116.37 85.241 116.773C84.9252 119.852 81.1477 136.722 81.1477 136.722" stroke="#333333" stroke-width="0.148896" stroke-miterlimit="10" stroke-linecap="round" stroke-linejoin="round"/>
<path d="M95.6993 118.513C94.5127 117.808 93.2535 117.227 91.9485 116.779" stroke="#333333" stroke-width="0.148896" stroke-miterlimit="10" stroke-linecap="round" stroke-linejoin="round"/>
<path d="M86.1266 117.528C85.0588 116.938 83.9171 116.483 82.7366 116.175" stroke="#333333" stroke-width="0.148896" stroke-miterlimit="10" stroke-linecap="round" stroke-linejoin="round"/>
<path d="M96.0237 110.077C96.0417 109.043 96.267 108.013 96.6823 107.066C96.7112 107 96.7911 106.924 96.8386 106.978" stroke="#333333" stroke-width="0.148896" stroke-miterlimit="10" stroke-linecap="round" stroke-linejoin="round"/>
<path d="M96.7795 109.776C97.1897 108.892 97.6628 108.037 98.194 107.22" stroke="#333333" stroke-width="0.148896" stroke-miterlimit="10" stroke-linecap="round" stroke-linejoin="round"/>
<path d="M93.9124 101.123C93.7545 101.414 93.5966 101.705 93.4387 101.997C93.0294 102.751 92.5881 103.667 91.8939 104.207C91.2442 104.712 90.2893 104.896 89.5303 105.231C88.9965 105.467 88.4586 105.705 87.9829 106.043C87.5573 106.345 87.1648 106.653 86.8152 107.048C86.4015 107.515 85.9881 107.981 85.5744 108.448C85.4444 108.594 85.3125 108.744 85.2348 108.924C85.1571 109.104 85.1417 109.323 85.2435 109.49C85.1212 109.669 84.997 109.852 84.9344 110.059C84.8718 110.267 84.8792 110.508 85.0059 110.684C85.0329 110.721 85.0656 110.757 85.0759 110.802C85.0849 110.84 85.0762 110.88 85.0762 110.92C85.0769 111.063 85.1953 111.184 85.3298 111.231C85.4646 111.278 85.6119 111.267 85.7535 111.248C85.773 111.365 85.8966 111.439 86.0144 111.454C86.1749 111.473 86.3367 111.413 86.4686 111.32C86.6005 111.226 86.7074 111.103 86.813 110.981C87.0184 110.743 87.2245 110.506 87.4308 110.269C87.592 110.084 87.7544 109.898 87.9431 109.742C88.308 109.439 88.7538 109.259 89.2038 109.125C89.4144 109.062 89.6311 109.017 89.8339 108.937C89.9562 108.889 90.1231 108.819 90.2418 108.925C90.3783 109.048 90.3137 109.273 90.221 109.431C89.8442 110.071 89.1778 110.504 88.818 111.154C88.7625 111.254 88.7144 111.376 88.7625 111.481C88.8456 111.659 89.1079 111.622 89.2937 111.555C89.9539 111.319 90.6293 111.075 91.1704 110.628C92.0986 109.862 92.8057 108.758 93.4335 107.746C94.8146 105.517 96.4265 103.441 97.7881 101.2C98.5077 100.015 99.0228 98.9756 99.2828 97.616C99.5508 96.2156 99.7026 94.7963 99.8522 93.3795C100.008 91.9002 100.162 90.4132 100.083 88.9278C100.077 88.8029 100.063 88.6662 99.9754 88.5773C99.8958 88.4967 99.7751 88.4765 99.6628 88.462C98.8967 88.3651 98.1183 88.3661 97.3525 88.4656C97.1965 88.4858 97.0357 88.5121 96.9035 88.5975C96.6136 88.7846 96.5581 89.1781 96.5308 89.5219C96.3511 91.7731 96.1714 94.024 95.9913 96.2753C95.9589 96.682 95.9255 97.0928 95.8048 97.4824C95.6976 97.8278 95.5243 98.1481 95.3519 98.4659C94.8727 99.3517 94.3926 100.237 93.9124 101.123Z" fill="#A85848"/>
<path d="M85.7964 111.183C86.2627 110.341 86.8447 109.563 87.5203 108.878" stroke="#A85848" stroke-width="0.148896" stroke-miterlimit="10" stroke-linecap="round" stroke-linejoin="round"/>
<path d="M85.1333 110.711C85.7101 109.814 86.3982 108.99 87.1769 108.261" stroke="#A85848" stroke-width="0.148896" stroke-miterlimit="10" stroke-linecap="round" stroke-linejoin="round"/>
<path d="M85.3618 109.432C85.8497 108.765 86.3937 108.139 86.9865 107.564" stroke="#A85848" stroke-width="0.148896" stroke-miterlimit="10" stroke-linecap="round" stroke-linejoin="round"/>
<path d="M94.7321 91.2852C95.1192 89.6569 95.806 88.1124 96.5269 86.5779C96.846 85.8987 97.1894 85.2177 97.6984 84.6659C99.3829 82.8409 101.763 82.5739 104.084 82.6422C105.438 82.6824 106.794 82.7571 108.135 82.9542C109.21 83.1121 110.408 83.1625 111.437 83.5082C113.444 84.1822 114.994 85.9215 115.828 87.8236C116.875 90.2144 117.002 92.8919 117.114 95.4998C117.121 95.6484 117.124 95.8082 117.043 95.9328C116.953 96.0708 116.783 96.1295 116.625 96.1767C114.639 96.7695 112.543 96.99 110.477 96.8238C110.397 98.0919 110.571 99.3764 110.559 100.663C110.555 101.226 110.574 101.85 110.963 102.257C111.087 102.386 111.249 102.496 111.295 102.669C111.415 103.127 110.652 103.379 110.616 103.85C110.98 104.048 111.065 104.617 110.775 104.912C110.673 105.015 110.528 105.109 110.533 105.253C110.536 105.361 110.628 105.443 110.68 105.538C111.019 106.16 108.579 106.928 108.158 107.176C107.319 107.67 106.414 108.011 105.469 108.26C103.528 108.772 101.469 108.851 99.4997 108.455C98.8376 108.321 98.1776 108.134 97.5941 107.794C96.9451 107.415 96.1334 106.661 95.9014 105.925C95.7399 105.413 95.625 104.41 96.0968 104.043C96.2246 103.944 96.3912 103.881 96.4711 103.741C96.5276 103.641 96.5292 103.521 96.5263 103.406C96.5167 103.036 96.4746 102.666 96.4005 102.303C96.3469 102.038 96.2756 101.772 96.2984 101.503C96.3299 101.129 96.5369 100.797 96.7185 100.469C97.7796 98.5515 97.8008 96.9675 97.6394 94.8367C97.6275 94.6787 97.6121 94.5115 97.5177 94.3847C97.4343 94.2727 97.3021 94.2098 97.1753 94.1511C96.3953 93.7903 95.6154 93.4299 94.8358 93.0691C94.7083 93.0101 94.57 92.9404 94.5161 92.8107C94.4782 92.7199 94.4901 92.6172 94.5029 92.5196C94.5578 92.1024 94.6355 91.6912 94.7321 91.2852Z" fill="#7DA061"/>
<path d="M108.988 83.9692C108.947 84.7398 106.173 88.0149 103.452 87.5498C100.731 87.0851 101.703 84.786 102.33 83.9422C102.958 83.0984 104.171 82.7572 105.875 82.849C107.579 82.9411 109.03 83.1985 108.988 83.9692Z" fill="#B27449"/>
<path d="M110.859 96.8469C110.851 97.0825 110.843 97.3184 110.836 97.554C110.802 98.5704 110.943 99.7327 110.557 100.696C110.518 100.793 110.475 100.89 110.424 100.982C110.107 101.565 109.648 102.055 109.193 102.537C108.036 103.766 106.879 104.995 105.684 106.187C105.476 106.395 105.267 106.601 105.057 106.806C104.427 107.42 103.687 108.14 102.85 108.461C102.028 108.776 101.13 108.525 100.262 108.535C100.171 108.536 100.08 108.538 99.9889 108.54C99.4956 108.548 99.0016 108.569 98.5205 108.673C98.0105 108.784 97.5284 108.913 97.0518 109.138C96.4878 109.405 95.9242 109.671 95.3603 109.937C95.1831 110.021 95.0027 110.107 94.8605 110.242C94.7183 110.377 94.6185 110.571 94.6461 110.765C94.4632 110.882 94.277 111.001 94.138 111.168C93.9987 111.334 93.9111 111.558 93.9583 111.77C93.9683 111.815 93.9843 111.86 93.9763 111.906C93.9695 111.945 93.9458 111.978 93.9304 112.015C93.8748 112.146 93.9358 112.304 94.0411 112.401C94.1464 112.497 94.2866 112.544 94.424 112.583C94.3961 112.698 94.4805 112.815 94.5832 112.875C94.7228 112.956 94.8955 112.963 95.0538 112.93C95.2117 112.896 95.3587 112.825 95.5037 112.754C95.7862 112.616 96.069 112.478 96.3521 112.342C96.8508 112.101 97.1692 111.946 97.7165 112.049C98.3481 112.168 98.9689 112.338 99.598 112.47C100.421 112.643 101.275 112.753 102.102 112.602C102.982 112.442 103.62 111.934 104.264 111.377C105.038 110.707 105.953 110.181 106.798 109.591C108.56 108.361 110.269 107.056 111.921 105.68C112.901 104.864 113.915 103.956 114.484 102.79C115.153 101.419 115.216 99.4085 115.442 97.8951C115.515 97.4095 115.58 96.9226 115.64 96.4351C114.077 96.7997 112.462 96.9387 110.859 96.8469Z" fill="#E0B495"/>
<path d="M94.4875 112.54C95.2476 111.949 96.0882 111.463 96.9789 111.098" stroke="#333333" stroke-width="0.148896" stroke-miterlimit="10" stroke-linecap="round" stroke-linejoin="round"/>
<path d="M94.0637 111.845C94.9464 111.247 95.9035 110.759 96.9059 110.396" stroke="#333333" stroke-width="0.148896" stroke-miterlimit="10" stroke-linecap="round" stroke-linejoin="round"/>
<path d="M94.7795 110.759C95.4902 110.338 96.2364 109.976 97.008 109.68" stroke="#333333" stroke-width="0.148896" stroke-miterlimit="10" stroke-linecap="round" stroke-linejoin="round"/>
<path d="M99.1587 104.01C101.666 104.999 104.691 104.528 106.778 102.824" stroke="#333333" stroke-width="0.148896" stroke-miterlimit="10" stroke-linecap="round" stroke-linejoin="round"/>
<path d="M99.1858 102.385C100.165 103.418 101.745 103.835 103.106 103.421" stroke="#333333" stroke-width="0.148896" stroke-miterlimit="10" stroke-linecap="round" stroke-linejoin="round"/>
<path d="M110.28 96.363C110.118 96.3129 109.955 96.2628 109.792 96.2127C109.261 93.8793 109.344 91.4092 110.028 89.1162" stroke="#333333" stroke-width="0.148896" stroke-miterlimit="10" stroke-linecap="round" stroke-linejoin="round"/>
<path d="M111.009 86.9549C111.307 86.313 111.829 85.7783 112.464 85.4663" stroke="#333333" stroke-width="0.148896" stroke-miterlimit="10" stroke-linecap="round" stroke-linejoin="round"/>
<path d="M98.6688 86.3986C98.6521 85.8972 98.6351 85.3959 98.6184 84.8945" stroke="#333333" stroke-width="0.148896" stroke-miterlimit="10" stroke-linecap="round" stroke-linejoin="round"/>
<path d="M97.4641 94.1101C97.5784 93.3228 97.7251 92.5399 97.9035 91.7642" stroke="#333333" stroke-width="0.148896" stroke-miterlimit="10" stroke-linecap="round" stroke-linejoin="round"/>
<path d="M110.999 62.0012C109.909 61.3346 108.595 61.1414 107.318 61.1025C106.041 61.0637 104.757 61.1641 103.487 61.022C102.217 60.8798 100.924 60.4628 100.027 59.5532C99.8915 60.5931 100.282 61.688 101.045 62.4076C98.5402 63.1378 96.774 65.4728 95.9693 67.9545C95.5004 69.4004 95.2994 70.9703 95.6698 72.4445C96.0402 73.9187 97.0452 75.2789 98.4616 75.831C99.4675 76.2232 100.58 76.1892 101.657 76.2569C102.735 76.3246 103.879 76.5348 104.656 77.2853C105.222 77.8331 105.515 78.5951 105.884 79.2916C106.32 80.1168 106.906 80.8964 107.717 81.3602C108.728 81.9386 110.138 81.9993 111.189 81.4902C110.506 81.0852 110.367 79.9769 110.807 79.3298C111.214 79.9162 111.997 80.2134 112.69 80.0452C112.149 79.4027 112.212 78.4208 112.582 77.6662C112.952 76.9117 113.571 76.3153 114.119 75.6785C115.014 74.6392 115.748 73.442 116.127 72.1238C116.505 70.8056 116.51 69.3597 116.002 68.0854C115.456 66.713 114.406 65.762 113.312 64.8254C112.37 64.0182 112.088 62.6675 110.999 62.0012Z" fill="#38322E"/>
<path d="M108.162 83.3808C108.162 84.2892 107.747 85.1166 105.65 85.1166C103.553 85.1166 103.139 84.3184 103.139 83.3808C103.139 82.4433 102.83 78.8501 102.83 78.8501H108.47C108.47 78.8501 108.162 82.4725 108.162 83.3808Z" fill="#E8AB86"/>
<mask id="mask4_2805_20329" style="mask-type:luminance" maskUnits="userSpaceOnUse" x="102" y="78" width="7" height="8">
<path d="M108.161 83.3804C108.161 84.2887 107.746 85.1161 105.649 85.1161C103.552 85.1161 103.138 84.3179 103.138 83.3804C103.138 82.4428 102.829 78.8496 102.829 78.8496H108.469C108.469 78.8496 108.161 82.472 108.161 83.3804Z" fill="white"/>
</mask>
<g mask="url(#mask4_2805_20329)">
<path opacity="0.5" d="M104.196 82.6716C106.86 82.6716 109.019 80.6036 109.019 78.0526C109.019 75.5016 106.86 73.4336 104.196 73.4336C101.532 73.4336 99.3723 75.5016 99.3723 78.0526C99.3723 80.6036 101.532 82.6716 104.196 82.6716Z" fill="#E8AB86"/>
</g>
<path d="M112.252 72.4752C112.282 70.2204 111.667 67.9492 110.404 66.2118C109.189 64.5403 107.325 63.5523 105.111 63.491C102.898 63.4297 101.183 64.1278 99.8124 65.4637C98.3019 66.9356 97.5605 69.124 97.738 71.2256C97.816 72.1475 98.058 73.0516 98.1045 73.9753C98.1886 75.6469 97.6372 77.3827 98.1883 78.9631C98.6637 80.326 99.919 81.3203 101.298 81.7475C102.676 82.1747 104.166 82.0967 105.583 81.8217C107.591 81.432 109.26 80.005 110.442 78.3629C111.62 76.7247 112.224 74.607 112.252 72.4752Z" fill="#E8AB86"/>
<path d="M102.37 72.5049C102.457 73.3095 102.318 74.1373 101.973 74.8694C101.782 75.2735 101.524 75.6779 101.55 76.1238C101.568 76.4255 101.726 76.7163 101.969 76.895C102.213 77.0738 102.537 77.1377 102.831 77.0642" stroke="#333333" stroke-width="0.148896" stroke-miterlimit="10" stroke-linecap="round" stroke-linejoin="round"/>
<path d="M102.58 78.6273C103.509 78.7287 104.476 78.427 105.182 77.8149" stroke="#333333" stroke-width="0.148896" stroke-miterlimit="10" stroke-linecap="round" stroke-linejoin="round"/>
<path d="M103.607 79.4759C103.923 79.4862 104.242 79.3928 104.503 79.2134" stroke="#333333" stroke-width="0.148896" stroke-miterlimit="10" stroke-linecap="round" stroke-linejoin="round"/>
<path d="M105.495 74.7994C105.89 74.7994 106.21 74.4792 106.21 74.0842C106.21 73.6893 105.89 73.3691 105.495 73.3691C105.1 73.3691 104.78 73.6893 104.78 74.0842C104.78 74.4792 105.1 74.7994 105.495 74.7994Z" fill="#38322E"/>
<path d="M101.55 74.0842C101.55 74.479 101.23 74.7994 100.835 74.7994C100.44 74.7994 100.12 74.4794 100.12 74.0842C100.12 73.6895 100.44 73.3691 100.835 73.3691C101.23 73.3695 101.55 73.6895 101.55 74.0842Z" fill="#38322E"/>
<path d="M108.893 76.5708C108.893 77.3867 108.231 78.0479 107.416 78.0479C106.6 78.0479 105.939 77.3864 105.939 76.5708C105.939 75.7549 106.6 75.0938 107.416 75.0938C108.232 75.0938 108.893 75.7549 108.893 76.5708Z" fill="#E8AB86"/>
<path d="M99.6326 78.0479C100.448 78.0479 101.11 77.3866 101.11 76.5708C101.11 75.7551 100.448 75.0938 99.6326 75.0938C98.8168 75.0938 98.1555 75.7551 98.1555 76.5708C98.1555 77.3866 98.8168 78.0479 99.6326 78.0479Z" fill="#E8AB86"/>
<path d="M105.819 70.4219C104.876 70.0804 104.209 70.6126 104.13 71.1354C104.13 71.1354 104.716 70.9419 105.608 71.0767C106.499 71.2112 107.222 71.6024 107.222 71.6024C107.222 71.6024 106.764 70.7634 105.819 70.4219Z" fill="#38322E"/>
<path d="M100.182 70.4219C101.125 70.0804 101.791 70.6126 101.87 71.1354C101.87 71.1354 101.284 70.9419 100.393 71.0767C99.5017 71.2112 98.7786 71.6024 98.7786 71.6024C98.7786 71.6024 99.2372 70.7634 100.182 70.4219Z" fill="#38322E"/>
<path d="M110.608 71.7652C110.024 71.0129 109.278 70.2589 109.27 69.3066C109.016 70.3283 109.23 71.4568 109.839 72.315C108.251 70.9044 107.201 68.9029 106.942 66.7944C105.764 68.3216 103.845 69.2482 101.916 69.2209C102.574 68.6034 103.018 67.7628 103.159 66.8711C102.383 68.233 100.968 69.0749 99.7712 70.0872C99.1806 70.587 98.6356 71.139 98.1407 71.7338C98.0893 71.7957 97.1097 72.9823 97.0844 72.8806C95.865 68.0212 99.4736 63.285 104.157 62.1058C107.305 61.313 110.372 62.9801 112.257 65.4814C113.735 67.4418 114.485 70.6495 113.16 72.8681C112.884 73.3315 112.193 74.3865 111.562 73.9179C111.265 73.6978 111.312 73.1675 111.207 72.8501C111.078 72.4572 110.86 72.0907 110.608 71.7652Z" fill="#38322E"/>
<path d="M113.519 75.0658C112.952 76.5904 111.562 77.5016 110.865 77.1627C110.324 76.8995 110.239 75.8843 110.554 74.6665C110.869 73.4488 111.779 71.8992 112.698 72.1306C113.616 72.362 114.085 73.5409 113.519 75.0658Z" fill="#E8AB86"/>
<path opacity="0.5" d="M112.741 72.9902C112.286 73.1748 111.926 73.5442 111.656 73.9547C111.293 74.5058 111.069 75.1478 111.009 75.8048C111.155 75.6969 111.356 75.6671 111.527 75.7281C111.712 75.7936 111.795 75.9345 111.885 76.093C112.291 75.9235 112.645 75.333 112.83 74.9558C113.046 74.5135 113.164 74.0215 113.159 73.5285C113.156 73.2704 113.085 72.8503 112.741 72.9902Z" fill="#E8AB86"/>
<path d="M124.493 122.176H105.493V111.843C105.493 107.894 108.695 104.692 112.644 104.692H128.341V118.327C128.341 120.453 126.618 122.176 124.493 122.176Z" fill="#EDC188"/>
<path d="M66.4689 47.603H55.7243C54.5796 47.603 53.6516 48.531 53.6516 49.6757V55.8086C53.6516 56.9533 54.5796 57.8813 55.7243 57.8813H57.087C57.0281 59.1077 56.0542 60.017 56.0542 60.017C57.9614 60.0952 59.29 58.6937 59.8964 57.8813H66.4689C67.6138 57.8813 68.5416 56.9533 68.5416 55.8086V49.6757C68.5416 48.531 67.6136 47.603 66.4689 47.603Z" fill="#E5B570"/>
<path d="M57.8586 50.917H64.7087" stroke="#DEDEDE" stroke-width="0.157291" stroke-miterlimit="10" stroke-linecap="round" stroke-linejoin="round"/>
<path d="M57.002 52.6074H65.5649" stroke="#DEDEDE" stroke-width="0.157291" stroke-miterlimit="10" stroke-linecap="round" stroke-linejoin="round"/>
<path d="M57.8586 54.2979H64.7087" stroke="#DEDEDE" stroke-width="0.157291" stroke-miterlimit="10" stroke-linecap="round" stroke-linejoin="round"/>
<path d="M100.657 28.6777H87.4276C84.2709 28.6777 81.7122 31.2365 81.7122 34.3932C81.7122 37.5499 84.2712 40.1086 87.4276 40.1086H87.8952C87.7839 42.4304 85.9399 44.1521 85.9399 44.1521C89.0995 44.2815 91.4201 42.2661 92.72 40.73C93.0573 40.3313 93.558 40.1086 94.0802 40.1086H100.657C103.814 40.1086 106.372 37.5499 106.372 34.3932C106.373 31.2365 103.813 28.6777 100.657 28.6777Z" fill="#9BF190"/>
<path d="M91.247 34.4871C91.247 35.0135 90.8204 35.4401 90.294 35.4401C89.7676 35.4401 89.3411 35.0135 89.3411 34.4871C89.3411 33.9607 89.7676 33.5342 90.294 33.5342C90.8201 33.5342 91.247 33.9607 91.247 34.4871Z" fill="black"/>
<path d="M95.4787 34.4871C95.4787 35.0135 95.0521 35.4401 94.5257 35.4401C93.9993 35.4401 93.5728 35.0135 93.5728 34.4871C93.5728 33.9607 93.9993 33.5342 94.5257 33.5342C95.0521 33.5342 95.4787 33.9607 95.4787 34.4871Z" fill="black"/>
<path d="M99.7099 34.4871C99.7099 35.0135 99.2833 35.4401 98.7569 35.4401C98.2305 35.4401 97.804 35.0135 97.804 34.4871C97.804 33.9607 98.2305 33.5342 98.7569 33.5342C99.2833 33.5342 99.7099 33.9607 99.7099 34.4871Z" fill="black"/>
</svg>
