<svg width="128" height="123" viewBox="0 0 128 123" fill="none" xmlns="http://www.w3.org/2000/svg">
<g clip-path="url(#clip0_2805_20543)">
<path d="M75.0119 10.8436C66.8617 8.84548 57.8076 10.3403 50.6632 15.4331C46.4785 18.416 43.1896 22.4915 39.1493 25.6674C33.6209 30.0131 26.9129 32.5131 20.5435 35.4932C14.1744 38.4733 7.80871 42.2142 4.01431 48.1347C-0.332655 54.9169 -0.623527 63.7047 1.57153 71.4555C2.98577 76.4493 5.47171 81.3005 9.50561 84.566C13.6921 87.9549 19.1253 89.3412 23.7875 92.0378C29.683 95.448 34.1343 100.814 38.9912 105.589C43.8479 110.364 49.6283 114.805 56.4034 115.501C64.0904 116.291 71.4661 112.064 77.1392 106.817C79.8619 104.299 81.3296 101.817 83.3289 98.8795C85.3285 95.941 89.0622 93.8578 92.1329 92.2326C98.6497 88.7835 105.827 86.8446 112.571 83.9183C115.445 82.6715 118.293 81.1974 120.478 78.9522C123.474 75.8718 124.958 71.5929 125.562 67.3377C126.53 60.5237 125.274 53.1105 120.792 47.887C116.051 42.3598 108.57 40.0809 102.892 35.5209C97.4303 31.1338 93.8869 24.8528 89.3311 19.5308C85.5273 15.0887 80.4725 12.1821 75.0119 10.8436Z" fill="#D0F3E1"/>
<path d="M6.31199 98.2248C7.13965 97.6472 8.18163 97.2452 9.44556 97.1015C11.9458 96.8168 14.9063 97.7531 16.7422 96.1606C18.0967 94.9857 18.0541 92.9726 17.5029 91.334C16.9517 89.6955 15.9942 88.15 15.8301 86.441C15.5907 83.9494 17.2871 81.403 19.804 80.4761C22.4965 79.4845 25.9846 80.1328 27.9996 78.2087C29.8335 76.4574 29.332 73.6497 29.6009 71.2265C30.2201 65.6452 36.2612 61.4776 41.5097 59.4792C45.3778 58.0062 49.6857 57.7754 53.5752 59.0599C58.1205 60.5609 62.9525 61.8356 67.8241 61.2131C71.3792 60.7588 74.7342 59.3144 78.3071 59.0002C81.0193 58.7618 83.7204 59.1362 85.8379 60.7981C87.395 62.0202 88.9864 63.2807 89.9695 64.9346C91.1502 66.9208 91.3352 69.2882 91.1431 71.5471C90.928 74.0793 90.4152 77.0164 92.3492 78.8229C93.5777 79.9704 95.4706 80.2665 97.2162 80.1905C98.9618 80.1144 100.687 79.7296 102.435 79.767C103.783 79.7958 105.124 80.0797 106.351 80.5964C107.427 81.0494 108.435 81.6986 109.104 82.5989C111.571 85.9163 108.901 90.3773 110.487 93.9108C111.958 97.189 117.982 97.4479 120.861 99.1987C123.351 100.713 124.92 103.437 124.888 106.188C124.881 106.788 124.789 107.42 124.393 107.896C124.013 108.353 123.41 108.597 122.827 108.803C119.252 110.071 115.431 110.632 111.625 111.022C94.053 112.825 76.3144 111.15 58.6491 110.469C44.2734 109.915 29.8769 110.022 15.4915 110.287C13.1965 110.329 10.8465 110.367 8.6732 109.685C3.34051 108.012 2.28458 101.036 6.31199 98.2248Z" fill="#DEF9F6"/>
<path d="M85.3828 89.0353C84.7061 89.8659 83.9901 90.7271 82.9914 91.1619C81.9928 91.5966 80.6274 91.4455 80.0524 90.5464C79.5877 89.82 79.7691 88.8906 79.921 88.0499C80.2954 85.9781 80.3936 83.8601 80.2125 81.7644C80.0864 80.3078 79.8924 78.8316 80.0681 77.3758C80.1318 76.8481 80.317 76.3202 80.684 75.9241C80.9054 75.6852 81.1839 75.503 81.4231 75.2808C81.9776 74.7656 82.5985 73.9205 82.9557 73.2674C83.3996 72.4556 83.5023 71.5152 83.8074 70.646C84.2054 69.5119 85.029 68.447 86.2059 68.0649C86.9559 67.8213 87.7466 67.9203 88.4548 67.57C89.1434 67.2293 89.7128 66.7572 90.227 66.2021C90.8221 65.5595 91.3402 64.8509 91.9698 64.2394C92.3584 63.8619 92.8378 63.5051 93.3895 63.5059C93.9434 63.5066 94.4446 63.8895 94.6861 64.37C95.2485 65.4886 94.677 67.0777 94.5081 68.2375C94.4246 68.8106 94.2633 69.5718 94.4342 70.1413C94.5679 70.5868 94.9796 70.9255 95.1914 71.3512C95.5338 72.039 95.5455 72.8718 95.2226 73.5682C94.7371 74.6154 93.5485 75.3717 93.4727 76.5166C93.4344 77.0961 93.7007 77.6477 93.8709 78.2047C94.6927 80.8941 93.1226 82.8033 91.0559 84.3697C89.9934 85.1751 88.9308 85.9803 87.8681 86.7855C87.0219 87.4264 85.8878 88.0614 85.3828 89.0353Z" fill="#4AA69B"/>
<path d="M81.6422 89.8951C85.6698 81.9212 89.2612 73.7497 93.3959 65.8249C93.5423 65.5444 93.1048 65.2965 92.9579 65.5782C88.8232 73.503 85.2318 81.6744 81.2041 89.6484C81.0618 89.93 81.4991 90.1782 81.6422 89.8951Z" fill="#76BBA0"/>
<path d="M86.4386 69.7032C86.6562 71.4994 87.2566 73.2998 88.8345 74.3994C89.0996 74.584 89.353 74.16 89.0904 73.9771C87.6751 72.991 87.1399 71.3067 86.9459 69.7032C86.9083 69.3944 86.4005 69.3907 86.4386 69.7032Z" fill="#76BBA0"/>
<path d="M81.508 76.7977C82.1877 79.1304 84.0044 80.8308 84.4604 83.2706C84.5183 83.5799 85.0073 83.4488 84.9495 83.1405C84.4924 80.6946 82.6775 79.0028 81.997 76.6674C81.909 76.3652 81.4194 76.4936 81.508 76.7977Z" fill="#76BBA0"/>
<path d="M88.9717 74.4349C91.0303 74.4263 92.9905 73.9664 94.8259 73.0693C95.1171 72.927 94.8606 72.5049 94.57 72.647C92.8089 73.5079 90.9456 73.9375 88.972 73.9459C88.6455 73.9471 88.6448 74.4361 88.9717 74.4349Z" fill="#76BBA0"/>
<path d="M84.9008 83.3101C86.8605 81.818 89.6975 82.9208 91.6374 81.2985C91.8845 81.0918 91.5243 80.7473 91.2788 80.9527C89.3863 82.5355 86.5241 81.4552 84.5421 82.9643C84.286 83.1592 84.6472 83.5033 84.9008 83.3101Z" fill="#76BBA0"/>
<path d="M88.039 94.4487C90.0203 92.9618 91.7334 91.1409 93.8501 89.8388C96.1203 88.4422 99.1115 87.6096 101.794 87.559C104.357 87.5201 106.702 88.3307 109.178 88.8346C109.539 88.908 109.979 89.0635 110.007 89.4175C110.028 89.6775 109.802 89.8877 109.596 90.0562C108.304 91.1125 106.952 92.1233 105.9 93.4178C104.802 94.7707 103.901 96.2505 102.849 97.636C99.547 101.983 93.7966 104.666 88.2671 103.882C85.897 103.545 83.6616 102.623 81.5074 101.613C79.7174 100.773 77.8985 99.8163 76.7223 98.2683C76.333 97.7558 76.0293 97.0257 76.4235 96.5166C77.4635 95.1737 80.6135 96.7736 82.0131 96.8521C84.1768 96.9738 86.403 95.6767 88.039 94.4487Z" fill="#76BBA0"/>
<path d="M77.5899 97.7394C81.8413 100.707 87.9167 101.007 92.2325 97.9634C94.4889 96.3721 96.1851 94.1333 98.5367 92.662C99.8937 91.8131 101.466 91.0878 103.01 90.6325C104.567 90.1733 106.22 90.144 107.79 89.7239C108.104 89.6398 107.971 89.1679 107.655 89.2522C106.232 89.6332 104.753 89.6975 103.323 90.0423C102.103 90.3364 100.891 90.8805 99.7699 91.4248C97.4292 92.5605 95.7095 94.322 93.8219 96.0261C91.6194 98.0145 89.2151 99.2984 86.1744 99.5845C83.1928 99.865 80.2563 99.0001 77.8456 97.3174C77.5811 97.1323 77.3277 97.5565 77.5899 97.7394Z" fill="#A7C4A9"/>
<path d="M100.664 88.5201C99.5825 89.4676 99.0369 90.7623 98.5265 92.0514C98.4101 92.3458 98.9004 92.473 99.0158 92.1815C99.496 90.9687 100.006 89.7569 101.023 88.8658C101.264 88.6539 100.905 88.3088 100.664 88.5201Z" fill="#A7C4A9"/>
<path d="M93.3115 91.5404C92.0643 93.6201 91.785 95.7892 91.2836 98.0991C91.2169 98.4062 91.7059 98.5375 91.7729 98.2292C92.2693 95.9422 92.5097 93.8548 93.7495 91.7874C93.9131 91.5143 93.4751 91.2678 93.3115 91.5404Z" fill="#A7C4A9"/>
<path d="M98.6112 92.5828C100.338 93.2642 102.137 93.4501 103.978 93.1694C104.299 93.1202 104.163 92.649 103.843 92.6979C102.094 92.9647 100.381 92.7569 98.7458 92.1114C98.444 91.9923 98.3126 92.4652 98.6112 92.5828Z" fill="#A7C4A9"/>
<path d="M91.3445 98.4161C93.8077 99.7033 96.5435 100.096 99.2903 99.5646C99.6101 99.5028 99.4747 99.0313 99.1554 99.093C96.5446 99.5981 93.9411 99.2167 91.6005 97.9936C91.3136 97.8437 91.0571 98.266 91.3445 98.4161Z" fill="#A7C4A9"/>
<path d="M84.6249 99.8058C84.9024 100.541 85.5921 100.995 86.2376 101.427C87.0886 101.997 88.0127 102.435 88.9836 102.778C89.2905 102.887 89.4229 102.415 89.1186 102.307C88.369 102.042 87.6537 101.717 86.9752 101.31C86.3224 100.919 85.3935 100.416 85.114 99.6758C85.0034 99.3823 84.5128 99.509 84.6249 99.8058Z" fill="#A7C4A9"/>
<path d="M85.114 99.9349C85.6994 98.7869 86.539 97.8091 87.6142 97.057C87.8759 96.8739 87.623 96.4494 87.3582 96.6347C86.2117 97.4365 85.3014 98.4615 84.6759 99.688C84.5326 99.9694 84.9699 100.218 85.114 99.9349Z" fill="#A7C4A9"/>
<path d="M97.4577 74.8126C95.1642 75.2639 92.893 75.8523 90.7485 76.767C88.6031 77.682 86.5924 78.9581 84.9762 80.6061C83.2671 82.3488 82.3433 84.4355 81.4875 86.6403C80.5318 89.1026 80.7449 92.1158 82.5759 94.0641C83.655 95.2121 85.1611 95.2243 86.2553 96.2295C87.3838 97.2665 88.9564 97.7636 90.5044 97.6868C92.3038 97.5976 94.0071 96.8036 95.4151 95.7199C98.2006 93.5763 100.489 90.2076 101.759 87.0152C102.66 84.7502 103.075 82.3486 103.722 80.0129C104.025 78.9163 104.338 77.8172 104.65 76.7376C104.955 75.6794 105.81 74.8483 106.238 73.8406C106.669 72.8276 105.155 73.4778 104.785 73.6159C104.007 73.9069 103.094 73.9524 102.271 74.0734C100.999 74.2604 99.7116 74.3971 98.4469 74.626C98.1167 74.6857 97.7869 74.7478 97.4577 74.8126Z" fill="url(#paint0_linear_2805_20543)"/>
<path d="M98.5239 79.5123C95.0662 82.5411 91.6348 85.646 88.8746 89.3005C86.4236 92.5457 83.6122 96.6908 83.6152 100.851C83.6155 101.166 84.1228 101.166 84.1225 100.851C84.1195 96.6685 87.075 92.4352 89.5815 89.1956C92.2659 85.7262 95.5712 82.759 98.8825 79.858C99.1248 79.646 98.7651 79.301 98.5239 79.5123Z" fill="#1E9DA2"/>
<path d="M98.0845 82.8562C97.1085 82.6704 96.1368 82.4997 95.1377 82.5261C94.812 82.5347 94.8105 83.0237 95.1377 83.0152C96.0914 82.99 97.0177 83.1504 97.9496 83.3279C98.2684 83.3886 98.4049 82.9171 98.0845 82.8562Z" fill="#1E9DA2"/>
<path d="M95.4343 82.8246C95.6971 81.9903 95.7787 81.1416 95.673 80.275C95.6354 79.9662 95.1276 79.9625 95.1657 80.275C95.2661 81.0993 95.1954 81.9 94.945 82.6945C94.8501 82.9965 95.3394 83.1253 95.4343 82.8246Z" fill="#1E9DA2"/>
<path d="M92.2435 93.2379C90.264 93.7601 88.2326 93.609 86.2163 93.4105C85.8919 93.3787 85.8942 93.8677 86.2163 93.8995C88.2782 94.1025 90.3569 94.2428 92.3784 93.7093C92.6927 93.6264 92.5593 93.1545 92.2435 93.2379Z" fill="#1E9DA2"/>
<path d="M95.6689 88.2998C93.6656 88.9823 91.5966 88.8862 89.5116 88.7444C89.1859 88.7221 89.1872 89.2114 89.5116 89.2334C91.6471 89.3784 93.7564 89.4689 95.8038 88.7712C96.1095 88.6673 95.9778 88.1947 95.6689 88.2998Z" fill="#1E9DA2"/>
<path d="M90.3266 87.9074C88.8874 86.1337 88.9721 83.544 89.2438 81.4157C89.2836 81.1042 88.7758 81.1069 88.7365 81.4157C88.4455 83.6951 88.4344 86.363 89.9679 88.2531C90.1688 88.5008 90.5254 88.1524 90.3266 87.9074Z" fill="#1E9DA2"/>
<path d="M86.6229 93.0543C85.1918 91.4716 85.4477 88.5677 85.5002 86.6233C85.5088 86.3084 85.0015 86.3086 84.9929 86.6233C84.9364 88.7164 84.7231 91.6958 86.2642 93.4001C86.4791 93.6378 86.8364 93.2905 86.6229 93.0543Z" fill="#1E9DA2"/>
<path d="M48.746 105.021C49.7956 105.199 50.8942 105.375 51.9103 105.065C52.9264 104.755 53.8136 103.791 53.6249 102.78C53.4725 101.963 52.7151 101.403 52.0389 100.889C50.3724 99.6226 48.8751 98.1496 47.5952 96.5182C46.7057 95.3841 45.8524 94.1933 44.7447 93.2485C44.3435 92.9062 43.8537 92.6394 43.321 92.5825C42.9999 92.548 42.6752 92.5903 42.3523 92.5788C41.6038 92.5526 40.5849 92.3289 39.8864 92.0792C39.0181 91.769 38.3105 91.152 37.5041 90.7131C36.4522 90.1405 35.1383 89.8847 34.0286 90.3442C33.3215 90.6371 32.8152 91.2036 32.0664 91.3929C31.3382 91.577 30.6077 91.5914 29.8615 91.511C28.9975 91.4178 28.145 91.2286 27.2773 91.1797C26.7416 91.1493 26.1539 91.1909 25.7546 91.5367C25.3539 91.8839 25.2486 92.4749 25.3973 92.9742C25.7432 94.1364 27.2271 94.9298 28.1306 95.6646C28.577 96.0277 29.2063 96.4781 29.466 96.9974C29.6692 97.4038 29.5989 97.9068 29.7321 98.3479C29.9472 99.0604 30.4996 99.671 31.2025 99.9734C32.2594 100.428 33.6296 100.232 34.4555 101.014C34.8735 101.41 35.0521 101.976 35.304 102.486C36.5197 104.949 38.9425 105.349 41.4945 105.191C42.8066 105.109 44.1185 105.028 45.4306 104.946C46.4754 104.881 47.7246 104.632 48.746 105.021Z" fill="#4AA69B"/>
<path d="M52.1781 102.842C43.8912 99.5851 35.7869 95.9134 27.4553 92.7596C27.1515 92.6445 27.0196 93.1174 27.3204 93.2311C35.6517 96.3848 43.756 100.056 52.0432 103.313C52.3455 103.432 52.4769 102.959 52.1781 102.842Z" fill="#76BBA0"/>
<path d="M34.5576 91.96C35.5123 93.2706 36.2654 94.8057 35.9075 96.4412C35.8403 96.7484 36.3291 96.8794 36.3968 96.5713C36.7836 94.8049 36.0358 93.1408 34.9959 91.7133C34.8092 91.4575 34.3694 91.7018 34.5576 91.96Z" fill="#76BBA0"/>
<path d="M42.8709 93.9601C43.9408 96.0778 43.7782 98.4438 45.0909 100.497C45.2618 100.764 45.7009 100.519 45.5289 100.25C44.2196 98.2022 44.3789 95.8309 43.309 93.7134C43.1659 93.4304 42.7284 93.6779 42.8709 93.9601Z" fill="#76BBA0"/>
<path d="M35.9698 96.3408C34.5366 97.5729 32.8922 98.4213 31.0366 98.8959C30.7213 98.9766 30.855 99.4483 31.1715 99.3674C33.1053 98.8727 34.8357 97.97 36.3287 96.6865C36.5727 96.4767 36.213 96.1317 35.9698 96.3408Z" fill="#76BBA0"/>
<path d="M45.253 100.093C42.8058 100.255 41.4592 102.796 39.0184 102.851C38.6924 102.858 38.6912 103.347 39.0184 103.34C41.512 103.284 42.8243 100.743 45.253 100.582C45.5769 100.56 45.5795 100.071 45.253 100.093Z" fill="#76BBA0"/>
<path d="M47.1175 80.612C46.2496 78.3407 45.792 75.9224 44.7079 73.7392C43.5452 71.3974 41.461 69.1679 39.2106 67.7593C37.0556 66.422 34.6203 65.9166 32.2409 65.084C31.8946 64.9627 31.4355 64.8711 31.2177 65.1574C31.0576 65.3677 31.1339 65.6608 31.2166 65.909C31.7353 67.4639 32.3301 69.0107 32.5138 70.6451C32.7058 72.3532 32.6599 74.068 32.7946 75.7806C33.2174 81.1531 36.6313 86.3589 41.7567 88.5072C43.9535 89.4281 46.3571 89.7826 48.7399 90.0213C50.7198 90.2196 52.7886 90.3325 54.6354 89.6168C55.2469 89.3799 55.9047 88.9143 55.8486 88.2813C55.701 86.6115 52.1494 86.3667 50.9179 85.7209C49.0141 84.7226 47.8341 82.4877 47.1175 80.612Z" fill="#76BBA0"/>
<path d="M54.1942 88.2348C51.2848 88.4326 48.4057 87.7032 46.0409 86.0344C43.385 84.1601 42.0399 81.6177 41.233 78.6057C40.5601 76.0933 39.9493 73.7376 38.4599 71.5394C37.7994 70.5646 37.1135 69.597 36.2385 68.7886C35.2771 67.9008 34.1976 67.156 33.2967 66.2051C33.076 65.9723 32.7181 66.3188 32.938 66.5508C33.8831 67.5482 35.0268 68.3228 36.0213 69.2684C37.1343 70.3264 38.0498 71.7003 38.7957 73.0202C40.2999 75.6815 40.4817 78.7695 41.668 81.5458C43.6929 86.284 48.9893 89.0776 54.1942 88.7238C54.5181 88.7018 54.5206 88.2128 54.1942 88.2348Z" fill="#A7C4A9"/>
<path d="M39.154 69.273C39.519 70.554 39.2953 71.8255 39.0383 73.1051C38.9767 73.4127 39.4655 73.5442 39.5276 73.2352C39.8015 71.8703 40.0324 70.509 39.6433 69.1432C39.5568 68.84 39.0672 68.9686 39.154 69.273Z" fill="#A7C4A9"/>
<path d="M43.7241 75.4504C43.6394 77.8327 42.7024 79.7345 41.873 81.9247C41.7609 82.2208 42.2509 82.3484 42.362 82.0548C43.2034 79.8328 44.1454 77.8579 44.2312 75.4504C44.2426 75.1354 43.7353 75.1359 43.7241 75.4504Z" fill="#A7C4A9"/>
<path d="M39.299 73.1755C37.5501 72.8941 35.9859 72.1958 34.6466 71.0734C34.4014 70.8678 34.0409 71.2123 34.288 71.4192C35.6894 72.5936 37.3315 73.3521 39.1644 73.6472C39.4837 73.6986 39.6209 73.2274 39.299 73.1755Z" fill="#A7C4A9"/>
<path d="M42.1417 81.81C39.4891 81.6602 37.0579 80.6469 35.1238 78.891C34.8862 78.6753 34.5267 79.0206 34.7652 79.2367C36.8022 81.086 39.3488 82.1411 42.142 82.2991C42.4679 82.3174 42.4667 81.8284 42.1417 81.81Z" fill="#A7C4A9"/>
<path d="M46.7811 86.509C45.5918 87.3631 43.2366 86.9995 41.8908 86.7352C41.572 86.6726 41.4358 87.1438 41.7559 87.2069C43.277 87.5054 45.695 87.8954 47.0373 86.9313C47.296 86.7455 47.0431 86.3207 46.7811 86.509Z" fill="#A7C4A9"/>
<path d="M47.1014 86.7668C47.2323 85.4191 47.038 84.1212 46.5163 82.8643C46.3965 82.5758 45.9055 82.7017 46.027 82.9944C46.5317 84.2102 46.7205 85.4633 46.5941 86.7668C46.5637 87.0801 47.0712 87.0781 47.1014 86.7668Z" fill="#A7C4A9"/>
<path d="M26.8223 74.7788C29.064 74.3876 31.3367 74.1279 33.6178 74.2071C35.8993 74.2866 38.1948 74.7389 40.2732 75.6649C42.4711 76.6442 44.0883 78.2079 45.6883 79.9019C47.4753 81.7937 48.4125 84.591 47.4885 86.9894C46.9439 88.403 45.5874 88.9387 44.9756 90.2283C44.3448 91.5587 43.11 92.5556 41.6825 93.0258C40.0231 93.5721 38.1862 93.4481 36.5076 92.9595C33.1866 91.9932 29.8554 89.7466 27.5107 87.3041C25.8475 85.5715 24.5717 83.5459 23.1119 81.6605C22.4266 80.7753 21.7311 79.8914 21.0452 79.0243C20.3728 78.1744 19.2887 77.7213 18.5234 76.9601C17.7541 76.195 19.3666 76.2544 19.7524 76.2508C20.5645 76.2425 21.4067 75.9654 22.196 75.7882C23.4155 75.5141 24.63 75.1888 25.8587 74.9551C26.179 74.8937 26.5004 74.8348 26.8223 74.7788Z" fill="#62B0A4"/>
<path d="M22.8123 77.8861C27.9491 79.7332 33.0997 81.6673 37.7754 84.4629C40.043 85.8187 42.1937 87.3535 44.1963 89.0534C46.1762 90.734 48.0631 92.5781 49.0425 94.9859C49.1601 95.2756 49.651 95.1494 49.5315 94.8558C47.6971 90.3452 42.8664 87.0423 38.7887 84.503C33.8753 81.4431 28.4047 79.3769 22.9469 77.4144C22.641 77.3044 22.5086 77.7768 22.8123 77.8861Z" fill="#1E9DA2"/>
<path d="M25.3521 81.378C26.3139 80.776 27.279 80.1825 28.3619 79.8016C28.6662 79.6945 28.5346 79.2218 28.2269 79.3299C27.102 79.7255 26.0958 80.3297 25.0959 80.9555C24.8232 81.1264 25.0771 81.5499 25.3521 81.378Z" fill="#1E9DA2"/>
<path d="M28.4105 79.4008C27.7728 78.6377 27.3279 77.7757 27.0661 76.8295C26.9822 76.5258 26.4926 76.6546 26.5768 76.9596C26.8619 77.9895 27.3586 78.9169 28.0518 79.7466C28.2565 79.9916 28.6136 79.6436 28.4105 79.4008Z" fill="#1E9DA2"/>
<path d="M36.4217 90.5559C38.9485 90.2862 41.2235 89.2213 43.4487 88.0975C43.7381 87.9516 43.4819 87.5293 43.1925 87.6753C41.0535 88.7555 38.8529 89.8072 36.4217 90.0669C36.1008 90.1011 36.0973 90.5904 36.4217 90.5559Z" fill="#1E9DA2"/>
<path d="M30.3041 86.5112C32.9273 86.4212 35.2778 85.3866 37.6025 84.3007C37.8962 84.1636 37.6393 83.7418 37.3466 83.8785C35.0993 84.9282 32.8416 85.9351 30.3041 86.0221C29.9786 86.0334 29.9769 86.5224 30.3041 86.5112Z" fill="#1E9DA2"/>
<path d="M36.5872 83.4133C37.4364 80.6769 36.1349 77.6562 34.7632 75.2741C34.6046 74.9988 34.1663 75.2453 34.3251 75.5208C35.6233 77.7753 36.9029 80.6894 36.0979 83.2832C36.0043 83.5855 36.4938 83.7146 36.5872 83.4133Z" fill="#1E9DA2"/>
<path d="M43.0882 87.6307C43.6431 86.6484 43.2875 85.108 43.0562 84.0644C42.7039 82.4748 42.0269 80.9703 41.3623 79.4836C41.2335 79.1953 40.7965 79.4442 40.9243 79.7303C41.4542 80.9157 41.9835 82.1092 42.3475 83.3538C42.6557 84.4072 43.2441 86.3323 42.6501 87.3837C42.4941 87.6602 42.9319 87.9074 43.0882 87.6307Z" fill="#1E9DA2"/>
<path d="M83.8 103.266H47.5782C45.4769 103.266 43.7734 101.623 43.7734 99.5979V26.9832C43.7734 24.9576 45.4769 23.3154 47.5782 23.3154H83.8C85.9012 23.3154 87.6047 24.9576 87.6047 26.9832V99.5976C87.6047 101.623 85.9015 103.266 83.8 103.266Z" fill="#282D3A"/>
<path d="M82.0825 103.266H45.8606C43.7594 103.266 42.0559 101.623 42.0559 99.5979V26.9832C42.0559 24.9576 43.7594 23.3154 45.8606 23.3154H82.0825C84.1837 23.3154 85.8872 24.9576 85.8872 26.9832V99.5976C85.8872 101.623 84.1837 103.266 82.0825 103.266Z" fill="#343A4A"/>
<path d="M79.4341 93.3585H48.5061C46.4049 93.3585 44.7014 91.7163 44.7014 89.6907V31.8123C44.7014 29.7867 46.4049 28.1445 48.5061 28.1445H79.4341C81.5354 28.1445 83.2388 29.7867 83.2388 31.8123V89.6907C83.2388 91.7163 81.5356 93.3585 79.4341 93.3585Z" fill="#B1DAEB"/>
<path opacity="0.5" d="M69.4839 26.1042H58.4571C58.14 26.1042 57.8828 25.8563 57.8828 25.5507C57.8828 25.245 58.14 24.9971 58.4571 24.9971H69.4839C69.801 24.9971 70.0581 25.245 70.0581 25.5507C70.0581 25.8565 69.8012 26.1042 69.4839 26.1042Z" fill="#343A4A"/>
<mask id="mask0_2805_20543" style="mask-type:luminance" maskUnits="userSpaceOnUse" x="34" y="28" width="54" height="66">
<path d="M87.1741 28.1445H34.426V93.3585H87.1741V28.1445Z" fill="white"/>
</mask>
<g mask="url(#mask0_2805_20543)">
<path d="M40.25 57.9241C40.5306 58.0921 40.8205 58.2454 41.1183 58.3828C41.4186 58.5215 41.7278 58.6447 42.0098 58.8151C42.4355 59.0724 42.7857 59.4286 43.1784 59.7304C43.2111 59.7556 43.2471 59.7815 43.289 59.7822C43.3303 59.7832 43.3676 59.7592 43.4008 59.7353C43.7445 59.49 44.0195 59.1558 44.1887 58.777C44.2125 58.7235 44.2348 58.6667 44.2295 58.6088C44.2234 58.5406 44.1805 58.4814 44.1417 58.4242C43.7072 57.7855 43.6195 56.9187 43.3635 56.2008C43.169 55.655 43.0419 55.0873 42.9859 54.5129C42.9549 54.1965 42.9334 53.8495 42.7081 53.6172C42.6465 53.5536 42.5597 53.4994 42.4715 53.5165C42.4319 53.5243 42.3966 53.5456 42.3639 53.5686C41.9162 53.8825 41.8822 54.6965 41.8625 55.1914C41.4597 54.3478 40.8732 53.6001 40.2914 52.8597C40.0821 52.5934 39.7876 52.2954 39.4513 52.3763C39.3011 52.6599 39.446 52.9998 39.59 53.2864C39.8252 53.7539 40.06 54.2212 40.2952 54.6887C39.9304 53.9828 39.4384 53.3382 38.8474 52.793C38.7431 52.6966 38.6127 52.5966 38.4709 52.6225C38.3223 52.6497 38.235 52.8118 38.2442 52.9573C38.2533 53.1028 38.3335 53.2338 38.4116 53.3588C38.7393 53.8828 39.067 54.407 39.3947 54.931C39.0815 54.5173 38.7089 54.1451 38.2911 53.8282C38.1727 53.7385 38.02 53.6488 37.881 53.7048C37.762 53.7527 37.7092 53.8952 37.7283 54.0182C37.7475 54.1412 37.8219 54.2488 37.8959 54.3508C38.2269 54.8066 38.5902 55.2406 38.982 55.6489C38.7502 55.2838 38.368 55.0102 37.9385 54.9017C37.8465 54.8784 37.7463 54.863 37.6585 54.8978C37.5116 54.9557 37.4538 55.1381 37.4914 55.2868C37.5642 55.5753 37.9213 55.9357 38.1214 56.1614C38.3931 56.4675 38.6863 56.7556 38.9988 57.0231C39.3884 57.3576 39.8074 57.6591 40.25 57.9241Z" fill="#FAC39A"/>
<path d="M54.7069 54.5218C54.6366 54.7223 54.5704 54.9235 54.5057 55.124C54.1372 56.27 53.7461 57.4462 53.1125 58.4856C52.6825 59.1908 52.0674 59.9378 51.2659 60.2566C50.3414 60.6246 49.3044 60.5038 48.4458 60.03C47.4947 59.505 46.6723 58.6558 46.0354 57.8034C44.7373 56.0661 43.0525 57.6623 41.9956 58.8944C41.7731 59.1539 41.5613 59.4404 41.5038 59.7725C41.2899 61.0044 42.8978 62.547 43.6927 63.3801C45.6382 65.4191 48.6566 67.2716 51.6471 66.9715C54.9215 66.6432 57.1023 63.0524 58.1448 60.3701C59.1995 57.656 59.582 54.6594 59.0716 51.7932C58.9157 50.9176 58.2011 50.7364 57.3824 50.9975C57.0394 51.1068 56.7383 51.3152 56.4746 51.5531C55.5835 52.3558 55.0901 53.4266 54.7069 54.5218Z" fill="#EBF3F7"/>
<path d="M64.5871 109.797C64.7215 109.796 64.9397 84.4303 65.0394 82.2301C63.2565 82.1771 61.4748 82.0908 59.6953 81.9727C57.9159 81.8546 56.2398 81.1051 55.9354 83.2339C55.7949 84.2173 56.3258 84.9245 56.55 85.8421C56.8952 87.2562 56.8605 88.8071 56.9845 90.2527C57.5456 96.7904 58.2206 103.319 59.0089 109.835C60.8684 109.822 62.7276 109.81 64.5871 109.797Z" fill="#343A4A"/>
<path d="M56.3817 37.9345C56.2704 40.4899 57.1079 43.2615 59.5483 44.5851C60.1312 44.9012 60.7668 45.1169 61.4093 45.2959C62.7037 45.6563 64.0604 45.8739 65.3999 45.734C66.7394 45.5942 68.066 45.0714 68.9883 44.1244C69.5296 43.5688 69.9143 42.8903 70.2591 42.2044C70.8739 40.9806 71.3799 39.706 71.7698 38.399C71.9686 37.7322 72.0807 36.8845 71.5095 36.4622C71.3662 36.3561 71.1902 36.2894 71.0689 36.16C70.9652 36.0492 70.9122 35.9038 70.8663 35.7612C70.6725 35.1582 70.5543 34.5186 70.2015 33.987C69.6911 33.2182 68.78 32.803 67.9138 32.4343C67.1034 32.0893 66.5137 31.8416 65.6312 31.9754C64.8586 32.0922 64.098 32.2827 63.3639 32.5424C62.481 32.8546 61.6541 33.352 60.7338 33.5588C59.7307 33.7843 58.1778 33.519 57.5229 34.4257C56.8015 35.4247 56.4345 36.7295 56.3817 37.9345Z" fill="#343A4A"/>
<path d="M73.6479 109.684C73.7823 109.678 72.808 84.3282 72.8042 82.1258C71.0206 82.1505 69.2367 82.1422 67.4535 82.1021C65.6704 82.062 63.9611 81.3862 63.7569 83.5262C63.6625 84.5148 64.2264 85.1979 64.4932 86.1048C64.9046 87.5025 64.9427 89.0535 65.1344 90.4917C66.0022 96.998 66.9833 103.49 68.077 109.965C69.9339 109.872 71.7909 109.778 73.6479 109.684Z" fill="#343A4A"/>
<path d="M66.3052 45.1333H61.3401V50.9296H66.3052V45.1333Z" fill="#F99D6E"/>
<path d="M55.5188 55.9102C55.6999 54.8187 56.0385 53.6655 56.5395 52.6703C57.2197 51.3196 58.3995 50.2924 59.9924 50.1721C61.3479 50.0697 62.7066 50.0161 64.0652 49.9699C65.3149 49.9273 66.6006 49.7936 67.8463 49.9428C69.1343 50.097 70.4127 50.557 71.4352 51.3375C72.5017 52.1517 72.6829 53.3484 72.7729 54.591C73.3005 60.6934 73.687 66.799 74.4074 72.8855C74.692 75.2913 76.2085 88.5338 76.2248 90.3136C72.6235 91.7988 68.5854 91.8929 64.6699 91.7937C61.2819 91.7078 57.8343 91.4816 54.6729 90.3048C54.6706 84.5922 54.9945 78.8952 54.9927 73.1862C54.9917 70.2339 54.975 67.2816 55.0206 64.3296C55.0642 61.5292 55.0589 58.6825 55.5188 55.9102Z" fill="black"/>
<mask id="mask1_2805_20543" style="mask-type:luminance" maskUnits="userSpaceOnUse" x="54" y="49" width="23" height="43">
<path d="M55.5188 55.9102C55.6999 54.8187 56.0385 53.6655 56.5395 52.6703C57.2197 51.3196 58.3995 50.2924 59.9924 50.1721C61.3479 50.0697 62.7066 50.0161 64.0652 49.9699C65.3149 49.9273 66.6006 49.7936 67.8463 49.9428C69.1343 50.097 70.4127 50.557 71.4352 51.3375C72.5017 52.1517 72.6829 53.3484 72.7729 54.591C73.3005 60.6934 73.687 66.799 74.4074 72.8855C74.692 75.2913 76.2085 88.5338 76.2248 90.3136C72.6235 91.7988 68.5854 91.8929 64.6699 91.7937C61.2819 91.7078 57.8343 91.4816 54.6729 90.3048C54.6706 84.5922 54.9945 78.8952 54.9927 73.1862C54.9917 70.2339 54.975 67.2816 55.0206 64.3296C55.0642 61.5292 55.0589 58.6825 55.5188 55.9102Z" fill="white"/>
</mask>
<g mask="url(#mask1_2805_20543)">
<path d="M63.0057 66.2115L59.4414 48.0322H67.4653L63.0057 66.2115Z" fill="#ACD4EA"/>
</g>
<path d="M68.4096 40.8304C68.6382 36.8958 66.2732 33.5685 63.1272 33.3987C59.9813 33.2289 57.2458 36.2809 57.0173 40.2155C56.7888 44.1502 59.1538 47.4775 62.2997 47.6473C65.4456 47.8171 68.1811 44.7651 68.4096 40.8304Z" fill="#FAC39A"/>
<path d="M73.9558 71.9705C73.8036 71.8028 72.8676 70.6665 72.5922 70.7856C72.5222 70.8159 72.4806 70.8846 72.44 70.9474C71.9423 71.7145 70.9947 72.0617 70.1736 72.4999C70.1326 72.5219 70.0894 72.5463 70.0686 72.5869C70.0466 72.63 70.0549 72.6813 70.0674 72.7278C70.1442 73.0131 70.3578 73.2427 70.5645 73.4601C71.135 74.0606 71.6798 74.5697 72.3421 75.0773C72.4392 75.1517 72.5425 75.2289 72.6652 75.2451C72.9866 75.2879 73.1852 74.925 73.2841 74.6272C73.5309 73.8843 73.7777 73.1415 74.0245 72.3989C74.0555 72.306 74.0864 72.2052 74.0537 72.1128C74.0342 72.0585 73.9948 72.0135 73.9558 71.9705Z" fill="#FAC39A"/>
<path d="M69.0413 42.2278C69.8915 39.7052 69.7906 37.3319 69.5394 34.7373C69.4699 34.0204 69.0732 33.6226 68.552 33.1025C68.1558 32.7071 67.7472 32.3032 67.2307 32.0699C65.7573 31.4046 63.9795 32.3257 62.4076 31.921C61.7778 31.7589 61.2254 31.3931 60.6128 31.1777C59.2249 30.6899 57.5533 31.0711 56.5392 32.1068C56.3756 32.2741 56.2262 32.4594 56.137 32.6726C55.9465 33.1274 56.0533 33.6529 56.2704 34.0965C56.8444 35.2682 57.8204 35.5122 58.9415 35.9543C59.8435 36.3101 60.9124 36.3673 61.8729 36.3795C62.9555 36.3932 63.9742 36.1758 64.9928 36.6803C65.3573 36.8607 65.6777 37.1138 66.03 37.315C66.3881 37.5197 66.7871 37.6767 67.073 37.9689C67.4654 38.3701 67.5732 38.9491 67.6779 39.4912C67.8611 40.4392 68.0878 41.3794 68.3574 42.3078C68.3942 42.4345 68.4472 42.5777 68.5751 42.624C68.7935 42.7032 68.9695 42.4413 69.0413 42.2278Z" fill="#343A4A"/>
<path d="M73.2283 63.4067C72.994 61.0427 71.4865 59.4453 70.6122 57.3199C69.7876 55.3151 69.1512 53.0037 69.6293 50.8454C69.6486 50.7588 69.6719 50.6669 69.7389 50.6065C69.8662 50.4913 70.0717 50.5473 70.2322 50.6136C72.0095 51.3447 73.5583 52.4704 74.908 53.7906C76.4164 55.266 77.5923 56.9847 78.338 58.9562C78.8524 60.316 79.0797 61.7635 79.1687 63.2084C79.2547 64.6036 79.2124 66.0176 78.8725 67.3764C78.2678 69.7929 76.6876 71.6906 74.63 73.1093C74.4636 73.224 74.2622 73.3416 74.0674 73.2817C73.969 73.2514 73.8911 73.1797 73.817 73.1101C73.0835 72.4178 72.3794 71.6965 71.7067 70.949C71.6024 70.8329 71.4964 70.7123 71.4457 70.5668C71.3267 70.2248 71.54 69.867 71.7303 69.5563C72.8582 67.7121 73.4396 65.5376 73.2283 63.4067Z" fill="#EBF3F7"/>
<path d="M69.9011 41.1787C70.2537 41.4217 70.5284 41.8768 70.5332 42.2966C70.5368 42.6289 70.3754 42.9453 70.1641 43.2082C69.6979 43.7882 69.1815 44.1701 68.4231 44.2821C67.9006 44.3594 67.1417 44.3161 67.0293 43.6906C66.9291 43.1316 67.4007 42.3372 67.734 41.9066C68.2319 41.2638 69.0829 40.6141 69.9011 41.1787Z" fill="#FAC39A"/>
<path d="M61.2615 49.7565L62.878 51.8517L66.3004 49.5078L61.2615 49.7565Z" fill="#F99D6E"/>
<path d="M63.0859 65.9518L66.0194 59.5041L65.1727 58.1084L66.5685 58.0996L69.7181 50.2719L66.9771 49.355L63.0859 65.9518Z" fill="#EBF3F7"/>
<path d="M62.8789 51.8523L66.3072 48.998L68.1702 49.6678L64.416 53.658L62.8789 51.8523Z" fill="#C7E8FF"/>
<path d="M63.0063 66.2117L60.136 59.5044L60.9827 58.1087L59.5869 58.0999L56.7021 50.9304L59.9785 49.9678L63.0063 66.2117Z" fill="#EBF3F7"/>
<path d="M61.3407 49.355L62.8775 51.8525L61.0672 53.6582L59.1885 50.1993L61.3407 49.355Z" fill="#C7E8FF"/>
<path d="M64.1082 39.0745C64.2368 38.9292 64.4181 38.8547 64.5992 38.8165C64.7821 38.7808 64.9695 38.7872 65.1476 38.8256C65.3257 38.864 65.4951 38.9361 65.644 39.0388C65.7906 39.1437 65.9235 39.2762 65.992 39.4552C65.7962 39.4408 65.6384 39.4153 65.4822 39.3904C65.3279 39.3638 65.1811 39.3349 65.036 39.3026L64.5985 39.1999L64.1082 39.0745Z" fill="#343A4A"/>
<path d="M66.5109 42.4678C66.4942 42.8177 65.9877 43.0793 65.3797 43.0524C64.7717 43.0255 64.2923 42.7199 64.3088 42.3702C64.3255 42.0203 64.832 41.7587 65.44 41.7856C66.0483 41.8125 66.5277 42.1179 66.5109 42.4678Z" fill="#F78B7C"/>
<path d="M64.1717 40.601C64.1547 40.9969 64.3502 41.3282 64.6087 41.3409C64.8672 41.3537 65.0906 41.0431 65.1076 40.6473C65.1246 40.2514 64.9291 39.9201 64.6706 39.9071C64.4121 39.8946 64.1887 40.2052 64.1717 40.601Z" fill="#3D2217"/>
<path d="M59.6539 38.8389L59.1537 38.9203L58.7083 38.9839C58.5607 39.0032 58.4118 39.0189 58.2556 39.0318C58.0976 39.0428 57.9383 39.0543 57.7419 39.0514C57.8272 38.8793 57.9723 38.759 58.128 38.6675C58.286 38.5783 58.4615 38.5218 58.6426 38.499C58.8235 38.4765 59.0109 38.4868 59.1895 38.5387C59.3663 38.5927 59.5398 38.6829 59.6539 38.8389Z" fill="#343A4A"/>
<path d="M57.2803 42.0211C57.2635 42.3708 57.6671 42.673 58.1812 42.6957C58.6956 42.7185 59.1261 42.4534 59.1426 42.1037C59.1593 41.7538 58.756 41.4519 58.2416 41.4291C57.7275 41.4061 57.297 41.6712 57.2803 42.0211Z" fill="#F78B7C"/>
<path d="M59.4399 40.3238C59.423 40.7197 59.1995 41.0302 58.941 41.0175C58.6826 41.0048 58.4867 40.6734 58.504 40.2776C58.521 39.8817 58.7444 39.5712 59.0029 39.5839C59.2611 39.5966 59.4569 39.9279 59.4399 40.3238Z" fill="#3D2217"/>
<path d="M62.338 42.7727C62.3271 42.9319 62.0321 43.0426 61.679 43.0204C61.326 42.9979 61.0487 42.8507 61.0596 42.6918C61.0705 42.5326 61.3655 42.4218 61.7184 42.4443C62.0714 42.4663 62.3489 42.6135 62.338 42.7727Z" fill="#E59A7F"/>
<path d="M61.9007 45.7795C60.778 45.8106 59.7845 45.1069 59.6049 44.0163C59.6016 43.9958 59.5983 43.9755 59.5955 43.9549C59.5925 43.9337 59.5897 43.9121 59.5869 43.8906C59.5869 43.8906 60.2992 44.2484 61.8033 44.3151C63.3031 44.3816 63.9585 44.0865 63.9623 44.0848C63.9479 44.0914 63.9289 44.2117 63.9243 44.2268C63.8063 44.6137 63.6465 44.9553 63.3379 45.2352C62.9495 45.5881 62.4295 45.7646 61.9007 45.7795Z" fill="black"/>
<path d="M62.8623 59.835L63.746 91.7666" stroke="#ACD4EA" stroke-width="0.190236" stroke-miterlimit="10"/>
<path d="M69.9528 71.3433L73.9876 75.5083L72.2742 76.8405L69.0686 72.7069L69.9528 71.3433Z" fill="#EBF3F7"/>
<path d="M56.9933 72.0454L55.2109 75.6017L56.5373 76.5609L58.5271 72.5648L56.9933 72.0454Z" fill="#EBF3F7"/>
<path d="M65.0391 68.7515C65.0391 68.9405 64.8803 69.0936 64.6842 69.0936C64.4881 69.0936 64.3291 68.9405 64.3291 68.7515C64.3291 68.5625 64.4881 68.4092 64.6842 68.4092C64.8803 68.4092 65.0391 68.5625 65.0391 68.7515Z" fill="#EBF3F7"/>
<path d="M65.0391 74.6448C65.0391 74.8338 64.8803 74.9871 64.6842 74.9871C64.4881 74.9871 64.3291 74.8341 64.3291 74.6448C64.3291 74.4558 64.4881 74.3027 64.6842 74.3027C64.8803 74.3027 65.0391 74.4558 65.0391 74.6448Z" fill="#EBF3F7"/>
</g>
<mask id="mask2_2805_20543" style="mask-type:luminance" maskUnits="userSpaceOnUse" x="44" y="28" width="40" height="66">
<path d="M79.4361 93.3585H48.5081C46.4069 93.3585 44.7034 91.7163 44.7034 89.6907V31.8123C44.7034 29.7867 46.4069 28.1445 48.5081 28.1445H79.4361C81.5373 28.1445 83.2408 29.7867 83.2408 31.8123V89.6907C83.2408 91.7163 81.5376 93.3585 79.4361 93.3585Z" fill="white"/>
</mask>
<g mask="url(#mask2_2805_20543)">
<path opacity="0.2" d="M89.6654 30.8297L81.4846 24.2783L28.0655 86.2669L36.2463 92.8183L89.6654 30.8297Z" fill="black"/>
<path opacity="0.2" d="M99.764 40.5641L91.5833 34.0127L38.1642 96.0013L46.345 102.553L99.764 40.5641Z" fill="black"/>
</g>
<mask id="mask3_2805_20543" style="mask-type:luminance" maskUnits="userSpaceOnUse" x="44" y="28" width="40" height="66">
<path d="M79.4361 93.3585H48.5081C46.4069 93.3585 44.7034 91.7163 44.7034 89.6907V31.8123C44.7034 29.7867 46.4069 28.1445 48.5081 28.1445H79.4361C81.5373 28.1445 83.2408 29.7867 83.2408 31.8123V89.6907C83.2408 91.7163 81.5376 93.3585 79.4361 93.3585Z" fill="white"/>
</mask>
<g mask="url(#mask3_2805_20543)">
<path opacity="0.3" d="M88.8955 81.6211H38.0813V94.877H88.8955V81.6211Z" fill="#231F20"/>
</g>
<mask id="mask4_2805_20543" style="mask-type:luminance" maskUnits="userSpaceOnUse" x="44" y="28" width="40" height="66">
<path d="M79.4361 93.3585H48.5081C46.4069 93.3585 44.7034 91.7163 44.7034 89.6907V31.8123C44.7034 29.7867 46.4069 28.1445 48.5081 28.1445H79.4361C81.5373 28.1445 83.2408 29.7867 83.2408 31.8123V89.6907C83.2408 91.7163 81.5376 93.3585 79.4361 93.3585Z" fill="white"/>
</mask>
<g mask="url(#mask4_2805_20543)">
<path d="M63.9706 91.4591C66.3537 91.4591 68.2856 89.5967 68.2856 87.2994C68.2856 85.002 66.3537 83.1396 63.9706 83.1396C61.5874 83.1396 59.6555 85.002 59.6555 87.2994C59.6555 89.5967 61.5874 91.4591 63.9706 91.4591Z" fill="#D8555F"/>
</g>
<path d="M64.7803 87.7486C64.7803 87.7486 64.9216 86.9317 65.4182 86.75C66.3463 86.4104 66.9188 87.3126 66.5147 88.2078C65.4646 88.2946 64.7803 87.7486 64.7803 87.7486Z" fill="black"/>
<path d="M63.1669 87.7066C63.1669 87.7066 62.9878 86.8968 62.4833 86.7366C61.5405 86.4373 61.0103 87.3635 61.4555 88.2404C62.5086 88.2817 63.1669 87.7066 63.1669 87.7066Z" fill="black"/>
<path d="M62.4035 87.2611L61.7009 86.8449C62.2166 86.0351 62.9722 85.6245 63.9465 85.6245C64.872 85.6245 65.6134 85.8289 66.2219 86.8266L65.5112 87.2295C65.0935 86.5446 64.6564 86.4194 63.9465 86.4194C63.2596 86.4197 62.7693 86.6869 62.4035 87.2611Z" fill="black"/>
<path d="M76.0342 88.5583H74.4704C74.1901 88.5583 73.9631 88.3392 73.9631 88.0692V86.5618C73.9631 86.2916 74.1901 86.0728 74.4704 86.0728H76.0342C76.3144 86.0728 76.5415 86.2916 76.5415 86.5618V88.0692C76.5415 88.3392 76.3142 88.5583 76.0342 88.5583Z" fill="black"/>
<path d="M77.5615 88.1444L76.5139 87.9373V86.6944L77.5615 86.4873V88.1444Z" fill="black"/>
<path d="M52.5517 88.1246C52.0912 88.1246 51.718 87.7649 51.718 87.3209V86.3642C51.718 85.9203 52.0912 85.5605 52.5517 85.5605C53.0122 85.5605 53.3854 85.9203 53.3854 86.3642V87.3209C53.3854 87.7649 53.012 88.1246 52.5517 88.1246Z" fill="black"/>
<path d="M53.5318 87.4431C53.4639 88.6592 51.6384 88.6618 51.5703 87.4431C51.5548 87.1676 51.1082 87.1659 51.1237 87.4431C51.1652 88.1869 51.7444 88.8226 52.5511 88.8191C53.3577 88.8157 53.9365 88.1919 53.9784 87.4431C53.9939 87.1663 53.5473 87.1672 53.5318 87.4431Z" fill="black"/>
<path d="M52.3274 88.6048C52.3274 88.8532 52.3274 89.1016 52.3274 89.35C52.3274 89.627 52.774 89.6274 52.774 89.35C52.774 89.1016 52.774 88.8532 52.774 88.6048C52.774 88.328 52.3274 88.3274 52.3274 88.6048Z" fill="black"/>
<path d="M88.0126 40.2979H75.4032C74.6969 40.2979 74.1243 39.7459 74.1243 39.0649V33.1758C74.1243 32.4948 74.6969 31.9429 75.4032 31.9429H88.0126C88.719 31.9429 89.2916 32.4948 89.2916 33.1758V39.0649C89.2916 39.7459 88.719 40.2979 88.0126 40.2979Z" fill="#00BDD7"/>
<path d="M86.735 34.3083H76.9359C76.6506 34.3083 76.4192 34.1284 76.4192 33.9066C76.4192 33.6848 76.6506 33.5049 76.9359 33.5049H86.735C87.0204 33.5049 87.2517 33.6848 87.2517 33.9066C87.2517 34.1285 87.0204 34.3083 86.735 34.3083Z" fill="#EBF3F7"/>
<path d="M86.8359 36.4147H76.8369C76.6068 36.4147 76.4202 36.2348 76.4202 36.013C76.4202 35.7912 76.6068 35.6113 76.8369 35.6113H86.8359C87.066 35.6113 87.2526 35.7912 87.2526 36.013C87.2526 36.2348 87.066 36.4147 86.8359 36.4147Z" fill="#EBF3F7"/>
<path d="M83.635 38.5211H76.9359C76.6506 38.5211 76.4192 38.3413 76.4192 38.1195C76.4192 37.8977 76.6506 37.7178 76.9359 37.7178H83.635C83.9203 37.7178 84.1517 37.8977 84.1517 38.1195C84.1515 38.3413 83.9203 38.5211 83.635 38.5211Z" fill="#EBF3F7"/>
<path d="M75.5698 39.9502V42.422L79.1449 40.1591L75.5698 39.9502Z" fill="#00BDD7"/>
<path opacity="0.5" d="M63.9797 101.307C65.6846 101.307 67.0666 99.9747 67.0666 98.3312C67.0666 96.6878 65.6846 95.3555 63.9797 95.3555C62.2749 95.3555 60.8928 96.6878 60.8928 98.3312C60.8928 99.9747 62.2749 101.307 63.9797 101.307Z" fill="#343A4A"/>
<g opacity="0.75">
<path d="M21.6471 24.9946H37.3238C38.7247 24.9946 39.8602 23.8999 39.8602 22.5494V16.0096C39.8602 14.6592 38.7247 13.5645 37.3238 13.5645H21.6471C20.2462 13.5645 19.1106 14.6592 19.1106 16.0096V22.5494C19.1106 23.8999 20.2462 24.9946 21.6471 24.9946Z" fill="#92D4D6"/>
<path d="M37.8845 24.5186V27.9L32.9934 24.8044L37.8845 24.5186Z" fill="#92D4D6"/>
<path d="M24.2661 20.2147C24.9712 20.2147 25.5427 19.6637 25.5427 18.9841C25.5427 18.3044 24.9712 17.7534 24.2661 17.7534C23.5611 17.7534 22.9895 18.3044 22.9895 18.9841C22.9895 19.6637 23.5611 20.2147 24.2661 20.2147Z" fill="#EBF3F7"/>
<path d="M29.1372 20.2147C29.8423 20.2147 30.4138 19.6637 30.4138 18.9841C30.4138 18.3044 29.8423 17.7534 29.1372 17.7534C28.4322 17.7534 27.8606 18.3044 27.8606 18.9841C27.8606 19.6637 28.4322 20.2147 29.1372 20.2147Z" fill="#EBF3F7"/>
<path d="M35.2847 18.9841C35.2847 19.6636 34.7132 20.2147 34.0081 20.2147C33.3032 20.2147 32.7314 19.6638 32.7314 18.9841C32.7314 18.3046 33.3029 17.7534 34.0081 17.7534C34.7132 17.7534 35.2847 18.3043 35.2847 18.9841Z" fill="#EBF3F7"/>
<path d="M26.2176 62.7926C28.1547 62.7926 29.7251 61.2788 29.7251 59.4114C29.7251 57.5441 28.1547 56.0303 26.2176 56.0303C24.2805 56.0303 22.7102 57.5441 22.7102 59.4114C22.7102 61.2788 24.2805 62.7926 26.2176 62.7926Z" fill="#92D4D6"/>
<path d="M26.4465 57.7993H25.9846V61.0225H26.4465V57.7993Z" fill="#EBF3F7"/>
<path d="M27.8878 59.188H24.5442V59.6333H27.8878V59.188Z" fill="#EBF3F7"/>
</g>
</g>
<defs>
<linearGradient id="paint0_linear_2805_20543" x1="93.6219" y1="73.2832" x2="93.6219" y2="97.6945" gradientUnits="userSpaceOnUse">
<stop stop-color="#BFFA15"/>
<stop offset="1" stop-color="#DBFF00" stop-opacity="0"/>
</linearGradient>
<clipPath id="clip0_2805_20543">
<rect width="126.824" height="122.258" fill="white" transform="translate(0.231689 0.62793)"/>
</clipPath>
</defs>
</svg>
