<svg width="96" height="96" viewBox="0 0 96 96" fill="none" xmlns="http://www.w3.org/2000/svg">
<g clip-path="url(#clip0_184_818)">
<path d="M48 96C74.5097 96 96 74.5097 96 48C96 21.4903 74.5097 0 48 0C21.4903 0 0 21.4903 0 48C0 74.5097 21.4903 96 48 96Z" fill="#F3F9FF"/>
<path d="M43.0834 34.5005C41.8143 34.5005 40.762 35.6055 40.762 36.938V52.1804C40.762 53.3179 41.3191 54.3579 42.2167 54.9429L53.4834 62.2229C53.9841 62.5418 54.585 62.6388 55.1539 62.4925C55.7228 62.3462 56.213 61.9687 56.5167 61.4429C56.8205 60.9171 56.9128 60.2862 56.7735 59.6889C56.6342 59.0915 56.2746 58.5768 55.7739 58.2579L45.4048 51.7254V36.938C45.4048 35.6055 44.3524 34.5005 43.0834 34.5005Z" fill="#F04E30"/>
<path d="M65.2762 47.4997C65.7428 50.7299 65.537 54.028 64.6732 57.1668C63.8093 60.3056 62.3078 63.2106 60.2722 65.6816C58.2365 68.1526 55.715 70.1311 52.8812 71.4807C50.0474 72.8304 46.9687 73.5191 43.8571 73.4996C31.7857 73.4996 22.1905 63.4246 22.1905 50.7496C22.1905 38.0747 31.7857 27.9997 43.8571 27.9997C46.0238 27.9997 48.0976 28.3247 50.0476 28.9422V22.2473C48.0667 21.7598 45.9929 21.4998 43.8571 21.4998C28.381 21.4998 16 34.4997 16 50.7496C16 66.9996 28.381 79.9995 43.8571 79.9995C47.7809 80.0166 51.6635 79.1596 55.2486 77.485C58.8337 75.8103 62.0396 73.3563 64.6548 70.2847C67.27 67.2132 69.2349 63.5942 70.4198 59.6665C71.6047 55.7389 71.9826 51.592 71.5286 47.4997H65.2762Z" fill="#F04E30"/>
<path d="M77.9047 24.75H71.7142V18.25C71.7142 16.4625 70.3214 15 68.619 15C66.9166 15 65.5238 16.4625 65.5238 18.25V24.75H59.3333C57.6309 24.75 56.238 26.2125 56.238 28C56.238 29.7874 57.6309 31.2499 59.3333 31.2499H65.5238V37.7499C65.5238 39.5374 66.9166 40.9999 68.619 40.9999C70.3214 40.9999 71.7142 39.5374 71.7142 37.7499V31.2499H77.9047C79.6071 31.2499 80.9999 29.7874 80.9999 28C80.9999 26.2125 79.6071 24.75 77.9047 24.75Z" fill="#F04E30"/>
</g>
<defs>
<clipPath id="clip0_184_818">
<rect width="96" height="96" fill="white"/>
</clipPath>
</defs>
</svg>
