<?xml version="1.0" encoding="UTF-8"?>
<svg version="1.1" viewBox="0 0 2048 724" width="1280" height="1280" xmlns="http://www.w3.org/2000/svg">
<path transform="translate(217,142)" d="m0 0h53l20 57 51 144 3 8v16h-48l-4-10-15-46v-2l-75 1-11 33-7 23-1 1h-40v-16l17-48 20-57 17-48 19-54zm21 51-3 8-19 59-4 13v2h53l-2-9-20-62-4-11z" fill="#1A428A"/>
<path transform="translate(675,195)" d="m0 0h11l17 2 16 5 11 7 10 9 8 13 5 13 3 15 1 24-1 10h-109l3 16 4 9 4 6 8 6 8 3 14 2 16-1 15-4 12-6 4-3h15v32l-14 7-15 5-16 3-12 1h-16l-16-2-15-4-14-7-13-11-9-12-7-16-4-18-1-19 2-19 5-17 8-15 9-11 9-8 14-8 15-5zm-1 30-9 3-9 8-5 10-3 11v7h62v-9l-4-16-6-8-6-4-7-2z" fill="#1A428A"/>
<path transform="translate(921,142)" d="m0 0h28l16 42 22 57 35 91 2 7h2l1-5 16-42 18-47 20-52 18-47 2-4h27v224h-18l-1-203-8 20-44 114-20 52-7 17h-13l-5-12-14-36-18-47-20-52-21-55-1 202h-17z" fill="#1E458C"/>
<path transform="translate(412,196)" d="m0 0h25l14 2 17 5 8 4 1 1v33l-1 1h-14l-14-7-11-3h-25l-8 3-3 3-1 3v9l6 5 8 3 33 6 15 5 10 6 7 7 5 10 3 13v16l-2 10-5 12-9 10-10 7-13 5-15 3h-34l-20-4-16-6-5-3v-35h16l10 7 11 4 12 2h15l10-2 8-5 2-4v-8l-3-5-4-3-9-3-29-5-15-5-11-7-8-9-5-12-1-5v-21l4-13 6-10 10-9 12-6 15-4z" fill="#1A428A"/>
<path transform="translate(512,153)" d="m0 0h47v45h34v32h-34l1 92 3 8 6 4 4 1 21 1v28l-7 3-12 2h-22l-14-3-12-6-7-7-5-10-3-13v-100h-19l-1-1v-31h20z" fill="#1A428A"/>
<path transform="translate(869,196)" d="m0 0 13 1 1 1v37l-21 1-18 3-15 5-2 1-1 122h-46l-1-1v-168h37l5 3 4 10v6l14-11 14-7 7-2z" fill="#1A428A"/>
<path transform="translate(1437,142)" d="m0 0h12l3 2 1 3v219h-12l-3-3-1-3v-21l-5 5-9 8-13 8-16 6-13 2h-11l-16-3-16-8-10-9-8-11-6-15-4-18-1-10v-19l3-21 5-16 6-11 7-9 7-7 11-7 14-5 10-2h20l16 3 13 5 11 8 5 4zm-63 68-13 3-11 6-8 7-7 11-5 12-3 13-1 8v27l3 18 5 13 6 10 9 9 12 6 9 2h15l14-3 16-8 13-12 8-9 1-2v-89l-7-7-14-9-15-5-6-1z" fill="#1A428A"/>
<path transform="translate(1218,197)" d="m0 0h18l15 3 12 5 10 7 7 7 8 14 5 15 2 13v22h-126l2 21 4 15 7 13 7 8 9 6 12 5 11 2h24l15-3 12-5 11-7 1-1h7v13l-11 7-14 6-18 4-11 1h-11l-16-2-16-5-12-7-10-9-9-12-6-14-4-17-1-8v-21l3-18 5-15 6-11 8-10 11-10 16-8 10-3zm7 12-14 2-11 4-11 8-7 8-5 8-5 13-3 15v4h110v-9l-3-17-5-12-7-10-7-6-10-5-8-2z" fill="#1B438A"/>
<path transform="translate(1759,199)" d="m0 0h16l13 30 18 41 13 30 14 32v3h2l3-10 16-38 15-37 16-38 5-12 1-1h14v7l-19 45-18 43-38 90-14 33-1 1h-14l1-9 18-41 5-12-1-5-20-45-19-43-20-45-6-14z" fill="#1B428A"/>
<path transform="translate(1547,197)" d="m0 0h21l17 3 13 5 11 7v14h-9l-7-6-10-5-11-3-7-1h-16l-14 3-14 7-10 9-7 11-5 11-3 13-1 8v19l2 14 5 15 7 12 10 10 16 8 9 2 15 1 16-2 14-5 9-6 7-6h7v13l-8 7-16 8-16 4-10 1h-11l-16-2-15-5-12-7-12-11-9-14-5-12-3-12-2-20 1-18 4-18 7-16 9-12 7-7 14-9 13-5z" fill="#1B438A"/>
<path transform="translate(314,461)" d="m0 0h12l18 92 3 15v3h6l1-9 21-90 2-9 1-1h12l3 9 21 91 1 9h6l4-23 17-86 1-1h11l-5 26-19 92-1 2h-21l-3-9-20-89v-5h-2l-1 9-21 93-1 1h-21l-3-12-22-107z" fill="#454446"/>
<path transform="translate(1397,461)" d="m0 0h11l20 100 1 10h6l2-11 22-95 1-3h13l9 37 16 70v2l5-1 16-80 5-26 1-3h11l-1 8-22 107-2 5h-21l-7-29-16-71-1-1-18 80-5 21h-21l-3-9-22-107z" fill="#444345"/>
<path transform="translate(1687,152)" d="m0 0h16v47h45v12l-44 1v124l4 10 5 4 8 3 30 1v12l-17 2h-13l-12-2-10-5-5-5-5-8-2-7-1-129-22-1v-12h23z" fill="#1A428A"/>
<path transform="translate(1632,199)" d="m0 0h10l4 2 2 7v158h-16z" fill="#1A428A"/>
<path transform="translate(938,493)" d="m0 0h25l9 4 5 6 3 8 1 56 5 5 6 2-1 8h-8l-8-3-2-2-7 1-16 4h-19l-8-4-4-5-3-7-1-12 2-10 5-7 10-5 24-3 14-1-1-13-3-8-8-4h-15l-22 2-1-1v-8zm31 43-28 3-9 3-5 6-1 12 3 8 6 5h16l19-5v-32z" fill="#444345"/>
<path transform="translate(856,493)" d="m0 0h20l10 4 6 5 6 12 2 11v17h-59l2 15 5 10 7 4 5 1h18l18-1 1 2v7l-15 2h-28l-10-4-6-5-5-10-2-7-1-9v-17l2-13 7-14 7-6zm3 9-8 3-6 7-3 7-1 6v8h48v-12l-4-11-6-6-6-2z" fill="#444345"/>
<path transform="translate(1574,493)" d="m0 0h19l10 4 6 5 6 12 2 12v16h-59l2 15 5 10 7 4 5 1h18l18-1 1 2v7l-15 2h-28l-10-4-5-4-5-8-3-11-1-8v-17l3-16 6-11 7-6zm2 9-8 3-6 7-3 7-1 5v9h48v-11l-3-10-7-8-6-2z" fill="#444345"/>
<path transform="translate(491,493)" d="m0 0h19l9 3 9 8 4 8 2 9v21h-58l2 16 4 8 5 4 7 2h18l19-1v9l-14 2h-28l-9-3-8-7-5-10-2-11v-25l3-13 5-9 9-8zm2 9-8 4-6 7-3 9v11h48v-8l-3-12-4-6-6-4-3-1z" fill="#444345"/>
<path transform="translate(1206,493)" d="m0 0h22l11 4 7 6 5 10 2 9v31l-3 12-5 9-9 6-7 2h-23l-10-3-9-8-4-9-2-12v-25l3-14 6-10 9-6zm4 9-9 3-6 7-3 11v29l2 9 4 6 5 4 6 2h16l10-4 4-5 3-9 1-10v-15l-2-14-3-6-5-5-8-3z" fill="#444345"/>
<path transform="translate(1094,461)" d="m0 0h13l16 30 10 18 4 7v2h2l2-6 14-26 13-23 1-2h13l-8 15-30 54-1 51h-10l-1-1-1-52-14-25-15-27-8-14z" fill="#484749"/>
<path transform="translate(1275,494)" d="m0 0h10l1 60 3 12 1 3 9 3h11l12-3 6-3h2v-72h10v87h-10v-6l-14 6-4 1h-19l-9-4-5-6-3-8-1-6z" fill="#424143"/>
<path transform="translate(693,461)" d="m0 0h86v10h-38v110h-10v-110h-38z" fill="#414042"/>
<path transform="translate(1012,467)" d="m0 0h10v27h28l1 1v8l-1 1h-28l1 57 3 9 4 2h22v9l-15 2-12-1-6-3-5-6-2-7-1-8v-54h-12v-10h12v-26z" fill="#4A494B"/>
<path transform="translate(628,456)" d="m0 0h11v124l-1 1h-9l-1-1z" fill="#414042"/>
<path transform="translate(590,456)" d="m0 0h10l1 1v123l-1 1h-9l-1-1z" fill="#515052"/>
<path transform="translate(1677,456)" d="m0 0h10v125h-10z" fill="#414042"/>
<path transform="translate(1639,456)" d="m0 0h10v125h-10z" fill="#414042"/>
<path transform="translate(816,493)" d="m0 0h5v10l-20 7-12 6-1 65h-10v-87h10v12l12-7z" fill="#424143"/>
<path transform="translate(1636,152)" d="m0 0h9l5 5 1 2v7l-3 5-3 2h-10l-5-5-1-2v-7l3-5z" fill="#1B438A"/>
<path transform="translate(558,457)" d="m0 0h10l1 2-10 35h-9l7-36z" fill="#484749"/>
<path transform="translate(1714,456)" d="m0 0h4l6 16 6-16h4v21h-2l-1-15-5 14-4-1-5-14-1 16h-2z" fill="#4D4C4E"/>
<path transform="translate(1730,456)" d="m0 0h4v21h-2l-1-15-4 10h-2l3-10z" fill="#484749"/>
<path transform="translate(1697,456)" d="m0 0h14v2h-6v19h-2v-19h-7z" fill="#434244"/>
</svg>
