<?xml version="1.0" encoding="UTF-8"?>
<svg version="1.1" viewBox="0 0 2048 1167" width="1280" height="1280" xmlns="http://www.w3.org/2000/svg">
<path transform="translate(521,134)" d="m0 0h42l24 2 24 4 21 6 15 6 17 9 16 12 14 14 10 14 11 21 8 24 5 22 3 22 2 26 1 55v125l-1 302h-125l-24-3-15-4-16-7-9-7-10-9-9-11-8-14-7-19-5-22-4-31-1-20v-105l-188 1-1 59v191l-2 1h-137l-19-4-12-5-11-7-10-9-7-7-10-15-8-15-7-19-6-24-4-31-2-33v-490l2-4h96l29 1 19 2 16 4 12 5 12 7 11 9 10 11 8 13 6 13 6 20 4 22 2 20 1 115h24l50 2 31 3 17 4 12 5 13 9 9 9 11 17 9 19 11 30 4 9 1 1-2-24v-321l1-5z" fill="#1787C7"/>
<path transform="translate(1665,114)" d="m0 0h30l30 2 38 5 24 5 20 6 21 9 15 9 11 9 9 9 10 15 8 18 5 19 3 21 1 13 1 38-2 2-181 1-26 1-21 4-21 8-17 9-16 12-13 12-11 12-9 13-9 16-8 19-7 24-2 13v40l4 25 7 24 8 19 8 14 9 12 8 10 10 10 17 13 19 11 18 8 22 7 25 5 19 2 21 1 1-72v-30l-18-1-20-2-13-1-14-5-10-6-10-9-7-8-6-10-5-15-2-16 2-15 5-14 6-11 9-10 8-7 15-8 10-3 8-1 104-1 3-3 6 2 2 1 24 3 17 5 16 8 14 10 13 13 9 13 8 16 5 15 3 16 2 22v258l-2 2-37 11-32 8-37 7-44 6-47 4h-63l-40-5-31-6-33-9-27-9-24-10-21-10-23-13-24-16-16-13-10-9-27-27-13-17-12-18-9-16-10-21-6-15v-5l6 1 25 11 20 9 29 14h2l-11-9-18-13-19-14-16-12-14-10-12-9-4-4-3-13-3-21-4-38v-6l1-1 85-9 30-3 29-2 2-1-31-5-85-9-26-3-3-3v-10l5-31 9-36 5-8 8-7 18-13 17-12 18-13 14-10 10-7-10 4-39 17-11 5-8 3h-4l1-5 11-20 11-18 11-16 11-14 12-14 17-17 7-8 14-12 16-13 20-14 20-12 23-12 15-7 23-9 31-9 29-6 24-3z" fill="#E65982"/>
<path transform="translate(749,463)" d="m0 0h22l55 4 156 14 3 3 3 22 3 11-1 5-10 7-18 13-34 24-14 10-23 16-17 12-18 13-13 9-16 11-13 8 16-7 32-15 36-16 34-16 33-15 28-13 13-6 4 1 7 11 21 21-2 6-14 32-19 41-18 39-11 25-10 22-5 10 10-14 52-72 13-19 11-15 10-14 11-16 2-3 9 1 29 9 9 3 2 3 13 128 2 26v13l-2 7h3l1-10 3-17 7-62 8-77 1-7 1-1 31-1 25-2 4 4 8 12 13 18 10 14 12 17 14 20 36 51 4 5-17-36-16-36-17-37-15-34v-3l8-2 19-3h21l12 3 10 6 8 8 8 16 3 11 2 20v15l-2 23-5 37-2 15-3 5-15 6-24 10-22 7-21 5-31 5-44 4h-65l-40-4-36-6-31-8-36-12-24-11-24-12-19-12-19-14-11-9-15-13-15-15-9-11-12-15-13-18-13-24-12-25-9-25-7-26-6-36-3-33z" fill="#F3AC28"/>
<path transform="translate(1103,113)" d="m0 0h57l31 3 24 4 23 6 21 8 15 8 17 12 16 16 10 14 8 16 6 20 3 19 1 18v9l-2 25-3 2-19 2-17 1h-47l1-5 15-32 16-36 9-20 10-22 1-7-13 19-8 11-14 19-13 18-11 15-12 17-12 16-5 6-51-1h-8l-4-31-7-62-4-34-4-36-1-15-3 46-6 59-7 73-2 2-21 5-18 8-3 2-4-1-16-23-13-18-10-14-13-18-12-17-13-18-12-17-11-15-6-8 9 20 9 19 16 36 16 35 13 29 12 27 2 4-1 5-10 10-7 10-7 11-4-1-16-8-36-16-39-18-36-16-32-15-20-9h-2l14 10 23 16 36 26 14 10 17 12 18 13 17 12 20 14 7 5-1 8-5 17-2 11-6 2-171 16-39 4-22 1v-10l3-28 6-31 8-28 11-29 14-29 14-24 7-11 13-18 9-11 12-14 32-32 11-9 19-14 20-13 18-10 25-12 20-7 21-6 36-7 22-3z" fill="#F2AC28"/>
<path transform="translate(443,921)" d="m0 0h14l1 1v127l-1 2h-14l-17 2h-7l-10-3-8-7-6-9-4-12-1-5v-18l3-13 8-16 7-7 7-4 4-1h15l9 2-1-37zm-16 52-8 3-8 9-4 10-1 7v11l2 10 4 7 7 6 5 2h9l6-3 3-3 1-4 1-38-2-8-5-6-7-3z" fill="#555456"/>
<path transform="translate(534,921)" d="m0 0 14 1v129h-14l-3-1-5 2h-21l-8-3-7-7-7-14-2-9v-23l3-12 7-13 9-9 10-4h13l11 3zm-21 53-8 7-4 5-4 10-1 14 2 11 5 10 9 6 4 1h7l7-3 3-4 1-7v-39l-4-6-5-4-2-1z" fill="#525153"/>
<path transform="translate(1442,958)" d="m0 0h18l10 4 8 8 5 10 2 8v17l-2 2-54 1 1 8 4 9 7 8 8 4h11l9-6h5l4 5v5l-6 7-9 4-5 1h-16l-10-4-8-7-7-12-4-15v-19l6-18 7-10 8-7zm3 16-7 4-6 7-3 6v3l7 1h33l2-1-1-6-7-9-8-5z" fill="#545254"/>
<path transform="translate(1031,958)" d="m0 0h18l8 3 8 7 5 8 3 9 1 7v12l-1 2-3 1-53 1 4 15 4 6 7 6 5 2h11l14-7h3l1 3v7l-3 5-6 5-12 3h-15l-10-4-7-7-7-12-3-9-1-6v-20l5-16 5-9 9-8zm2 16-6 4-7 8-2 5v3l6 1h34l1-1-1-7-9-10-6-3z" fill="#555254"/>
<path transform="translate(1230,958)" d="m0 0h15l9 3 9 8 7 14 2 9v26l-3 11-5 10-7 8-10 5-4 1h-15l-10-4-7-7-8-16-2-10v-21l4-15 6-11 8-7 6-3zm6 15-7 3-5 4-4 7-2 5-1 6v15l2 11 5 9 6 5 6 1 10-5 6-7 4-13v-20l-4-13-5-6-4-2z" fill="#545254"/>
<path transform="translate(329,958)" d="m0 0h14l9 3 6 4 4 6 3 10 2 21 1 34 3 11-1 5h-8l-4-2-3-5-5 2-8 4-4 1h-14l-10-5-6-8-2-7v-14l3-10 9-10 8-4 8-2h16l-1-7-5-9-2-1h-13l-9 3-3 2-5-1-2-5v-6l4-5 10-4zm6 48-6 4-5 6-3 7v9l4 6 5 2 9-1 6-4 5-5 1-3v-17l-3-4z" fill="#565255"/>
<path transform="translate(1526,958)" d="m0 0h17l8 3 7 7 4 9 2 11 1 31v17l4 11v4l-2 1h-7l-6-5-1-2-6 2-7 4-4 1h-14l-10-5-7-9-2-8v-10l4-12 9-10 11-5 5-1h16l-1-7-6-9-2-1h-14l-6 3-4 3-4-2-3-7 1-7 10-5zm7 48-6 4-6 7-3 7 1 9 6 6 8 1 8-3 6-7 2-4v-16l-4-4z" fill="#555254"/>
<path transform="translate(1329,959)" d="m0 0h13l3 2 17 53 4 10 7-24 11-38 5-3h11l-1 8-14 47-10 33-6 17-7 12-7 7-11 4h-5l-3-4-1-8 3-3 10-4 5-5 2-4 1-8-4-17-17-53-6-19z" fill="#565255"/>
<path transform="translate(628,958)" d="m0 0 6 1 4 4 1 3 5-2 7-5 4-1h16l8 4 6 9 2 7 1 8 1 22v34l-1 9h-14l-1-1-1-56-2-13-1-4-6-2h-11l-6 4-3 4-1 3-1 65h-14l-1-2v-60l1-30z" fill="#595356"/>
<path transform="translate(761,956)" d="m0 0h9l3 5v6l-5 4 4 13v16l-3 11-6 8-5 4-8 3-5 1h-17l-5-3-9-13-3-9v-19l4-11 6-8 6-4 6-2h17l7 2zm-22 17-6 3-6 12v9l3 8 7 6 5 1 10-5 3-5 1-10-3-12-4-5-5-2z" fill="#545254"/>
<path transform="translate(1670,958)" d="m0 0h17l10 3 4 3-1 10-2 5-4 2-9-6-8-1-5 3 1 9 6 7 14 10 6 5 4 6 2 8v11l-4 10-8 7-9 3h-14l-13-4-3-5 1-7 3-6 4-1 10 7 8 1 5-3 3-4v-8l-4-6-19-12-7-8-3-7-1-12 3-10 5-6z" fill="#555255"/>
<path transform="translate(1157,934)" d="m0 0h2v26l5-1h15l1 3v10l-1 1-20 1 1 51 2 8 5 3 3 1h7l6-2 3 6v8l-5 3-5 1h-8l-9-2-8-5-4-5-2-7-1-28v-31l-7-2-1-2v-9l4-3 4-1v-14l3-5z" fill="#555255"/>
<path transform="translate(967,923)" d="m0 0h18l4 2 1 6-2 4-16 4-3 4-4 17 14-1 2 1-1 13-2 1h-13v24l-1 53h-13l-1-74-1-3-10-2v-7l2-4 8-2 3-16 7-14 6-5z" fill="#545254"/>
<path transform="translate(842,921)" d="m0 0h10l6 1 1 106 2 5 8 5 3 8-1 5-1 1h-9l-11-4-5-6-2-4-1-9z" fill="#535153"/>
<path transform="translate(720,1026)" d="m0 0 5 1 5 5 7 2 21-1 9 4 6 7 3 9v9l-3 10-6 8-7 4-10 3h-13l-13-3-8-5-2-2v-8l4-5h7l5 4 4 2h14l9-5 2-4-1-9-6-2-17 1h-13l-5-3-2-4v-13z" fill="#575456"/>
<path transform="translate(1989,134)" d="m0 0 6 1 1 1 1 25v17l-2 2-6-1-1-2v-20l-2 2-6 17-3 4-6-1-4-9-4-10v-2h-2l2 18-4 4h-5l-1-1-1-10-1-30-13 6-1 7-1 26-3 3-5-1-1-1-1-28-1-7h-9l-2-2v-6l1-1h32l2 2 3-2h11l4 6 6 21h2l8-20 3-6z" fill="#5B5659"/>
<path transform="translate(1625,958)" d="m0 0h14l1 1-1 12-1 2-17 3-7 6-3 6-1 5-1 57-1 1h-14l-1-1v-89l1-2h9l5 3 3 4 9-7z" fill="#545153"/>
<path transform="translate(585,959)" d="m0 0h12l1 1v91h-15l-1-1-1-7v-69l-8-1-1-1v-11l1-1z" fill="#5E5559"/>
<path transform="translate(892,960)" d="m0 0h23v91l-7 1-8-1-1-6-1-71-8-2-1-2v-8z" fill="#515152"/>
<path transform="translate(1915,135)" d="m0 0h32l2 4-4 3-7 3-1 7-1 26-3 3-5-1-1-1-1-28-1-7h-9l-2-2v-6z" fill="#5E5559"/>
<path transform="translate(903,926)" d="m0 0h8l5 2v15l-2 2h-12l-2-2v-13z" fill="#565255"/>
<path transform="translate(586,926)" d="m0 0h7l5 2v16l-2 1h-10l-4-4v-12z" fill="#585256"/>
</svg>
